<?xml version="1.0" encoding="UTF-8" standalone="no"?>
<!DOCTYPE svg PUBLIC "-//W3C//DTD SVG 1.1//EN"
 "http://www.w3.org/Graphics/SVG/1.1/DTD/svg11.dtd">
<!-- Generated by graphviz version 2.49.3 (20211027.1534)
 -->
<!-- Title: src/buyer.h Pages: 1 -->
<svg width="214pt" height="140pt"
 viewBox="0.00 0.00 213.50 140.00" xmlns="http://www.w3.org/2000/svg" xmlns:xlink="http://www.w3.org/1999/xlink">
<g id="graph0" class="graph" transform="scale(1 1) rotate(0) translate(4 136)">
<title>src/buyer.h</title>
<!-- Node1 -->
<g id="node1" class="node">
<title>Node1</title>
<g id="a_node1"><a xlink:title=" ">
<polygon fill="#bfbfbf" stroke="black" points="62,-112.5 62,-131.5 126,-131.5 126,-112.5 62,-112.5"/>
<text text-anchor="middle" x="94" y="-119.5" font-family="Helvetica,sans-Serif" font-size="10.00">src/buyer.h</text>
</a>
</g>
</g>
<!-- Node2 -->
<g id="node2" class="node">
<title>Node2</title>
<g id="a_node2"><a xlink:title=" ">
<polygon fill="none" stroke="#bfbfbf" points="0,-56.5 0,-75.5 30,-75.5 30,-56.5 0,-56.5"/>
<text text-anchor="middle" x="15" y="-63.5" font-family="Helvetica,sans-Serif" font-size="10.00">set</text>
</a>
</g>
</g>
<!-- Node1&#45;&gt;Node2 -->
<g id="edge1" class="edge">
<title>Node1&#45;&gt;Node2</title>
<path fill="none" stroke="midnightblue" d="M81.31,-112.32C69.1,-103.98 50.42,-91.21 36,-81.35"/>
<polygon fill="midnightblue" stroke="midnightblue" points="37.89,-78.41 27.66,-75.65 33.94,-84.19 37.89,-78.41"/>
</g>
<!-- Node3 -->
<g id="node3" class="node">
<title>Node3</title>
<g id="a_node3"><a xlink:title=" ">
<polygon fill="none" stroke="#bfbfbf" points="48.5,-56.5 48.5,-75.5 83.5,-75.5 83.5,-56.5 48.5,-56.5"/>
<text text-anchor="middle" x="66" y="-63.5" font-family="Helvetica,sans-Serif" font-size="10.00">map</text>
</a>
</g>
</g>
<!-- Node1&#45;&gt;Node3 -->
<g id="edge2" class="edge">
<title>Node1&#45;&gt;Node3</title>
<path fill="none" stroke="midnightblue" d="M89.38,-112.08C85.54,-104.69 79.98,-93.95 75.24,-84.81"/>
<polygon fill="midnightblue" stroke="midnightblue" points="78.25,-83.02 70.54,-75.75 72.03,-86.24 78.25,-83.02"/>
</g>
<!-- Node4 -->
<g id="node4" class="node">
<title>Node4</title>
<g id="a_node4"><a xlink:href="item_8h.html" target="_top" xlink:title=" ">
<polygon fill="none" stroke="black" points="101.5,-56.5 101.5,-75.5 144.5,-75.5 144.5,-56.5 101.5,-56.5"/>
<text text-anchor="middle" x="123" y="-63.5" font-family="Helvetica,sans-Serif" font-size="10.00">item.h</text>
</a>
</g>
</g>
<!-- Node1&#45;&gt;Node4 -->
<g id="edge3" class="edge">
<title>Node1&#45;&gt;Node4</title>
<path fill="none" stroke="midnightblue" d="M98.79,-112.08C102.76,-104.69 108.53,-93.95 113.43,-84.81"/>
<polygon fill="midnightblue" stroke="midnightblue" points="116.65,-86.22 118.3,-75.75 110.49,-82.91 116.65,-86.22"/>
</g>
<!-- Node6 -->
<g id="node6" class="node">
<title>Node6</title>
<g id="a_node6"><a xlink:href="user_8h.html" target="_top" xlink:title=" ">
<polygon fill="none" stroke="black" points="162.5,-56.5 162.5,-75.5 205.5,-75.5 205.5,-56.5 162.5,-56.5"/>
<text text-anchor="middle" x="184" y="-63.5" font-family="Helvetica,sans-Serif" font-size="10.00">user.h</text>
</a>
</g>
</g>
<!-- Node1&#45;&gt;Node6 -->
<g id="edge5" class="edge">
<title>Node1&#45;&gt;Node6</title>
<path fill="none" stroke="midnightblue" d="M108.46,-112.32C122.5,-103.9 144.05,-90.97 160.54,-81.07"/>
<polygon fill="midnightblue" stroke="midnightblue" points="162.8,-83.8 169.58,-75.65 159.2,-77.8 162.8,-83.8"/>
</g>
<!-- Node5 -->
<g id="node5" class="node">
<title>Node5</title>
<g id="a_node5"><a xlink:title=" ">
<polygon fill="none" stroke="#bfbfbf" points="126,-0.5 126,-19.5 180,-19.5 180,-0.5 126,-0.5"/>
<text text-anchor="middle" x="153" y="-7.5" font-family="Helvetica,sans-Serif" font-size="10.00">iostream</text>
</a>
</g>
</g>
<!-- Node4&#45;&gt;Node5 -->
<g id="edge4" class="edge">
<title>Node4&#45;&gt;Node5</title>
<path fill="none" stroke="midnightblue" d="M127.95,-56.08C132.1,-48.61 138.15,-37.72 143.27,-28.52"/>
<polygon fill="midnightblue" stroke="midnightblue" points="146.34,-30.19 148.14,-19.75 140.22,-26.79 146.34,-30.19"/>
</g>
<!-- Node6&#45;&gt;Node5 -->
<g id="edge6" class="edge">
<title>Node6&#45;&gt;Node5</title>
<path fill="none" stroke="midnightblue" d="M178.88,-56.08C174.59,-48.61 168.34,-37.72 163.06,-28.52"/>
<polygon fill="midnightblue" stroke="midnightblue" points="166.04,-26.68 158.02,-19.75 159.97,-30.17 166.04,-26.68"/>
</g>
</g>
</svg>
