<?xml version="1.0" encoding="UTF-8" standalone="no"?>
<!DOCTYPE svg PUBLIC "-//W3C//DTD SVG 1.1//EN"
 "http://www.w3.org/Graphics/SVG/1.1/DTD/svg11.dtd">
<!-- Generated by graphviz version 2.49.3 (20211027.1534)
 -->
<!-- Title: src/buyer.cpp Pages: 1 -->
<svg width="274pt" height="252pt"
 viewBox="0.00 0.00 274.00 252.00" xmlns="http://www.w3.org/2000/svg" xmlns:xlink="http://www.w3.org/1999/xlink">
<g id="graph0" class="graph" transform="scale(1 1) rotate(0) translate(4 248)">
<title>src/buyer.cpp</title>
<!-- Node1 -->
<g id="node1" class="node">
<title>Node1</title>
<g id="a_node1"><a xlink:title=" ">
<polygon fill="#bfbfbf" stroke="black" points="94,-224.5 94,-243.5 168,-243.5 168,-224.5 94,-224.5"/>
<text text-anchor="middle" x="131" y="-231.5" font-family="Helvetica,sans-Serif" font-size="10.00">src/buyer.cpp</text>
</a>
</g>
</g>
<!-- Node2 -->
<g id="node2" class="node">
<title>Node2</title>
<g id="a_node2"><a xlink:href="buyer_8h.html" target="_top" xlink:title=" ">
<polygon fill="none" stroke="black" points="169.5,-112.5 169.5,-131.5 216.5,-131.5 216.5,-112.5 169.5,-112.5"/>
<text text-anchor="middle" x="193" y="-119.5" font-family="Helvetica,sans-Serif" font-size="10.00">buyer.h</text>
</a>
</g>
</g>
<!-- Node1&#45;&gt;Node2 -->
<g id="edge1" class="edge">
<title>Node1&#45;&gt;Node2</title>
<path fill="none" stroke="midnightblue" d="M144.43,-224.33C155.73,-216.29 171.39,-203.3 180,-188 188.03,-173.74 191.15,-155.27 192.34,-141.66"/>
<polygon fill="midnightblue" stroke="midnightblue" points="195.84,-141.77 192.94,-131.58 188.85,-141.35 195.84,-141.77"/>
</g>
<!-- Node8 -->
<g id="node8" class="node">
<title>Node8</title>
<g id="a_node8"><a xlink:href="shoppingcart_8h.html" target="_top" xlink:title=" ">
<polygon fill="none" stroke="black" points="91,-168.5 91,-187.5 171,-187.5 171,-168.5 91,-168.5"/>
<text text-anchor="middle" x="131" y="-175.5" font-family="Helvetica,sans-Serif" font-size="10.00">shoppingcart.h</text>
</a>
</g>
</g>
<!-- Node1&#45;&gt;Node8 -->
<g id="edge8" class="edge">
<title>Node1&#45;&gt;Node8</title>
<path fill="none" stroke="midnightblue" d="M131,-224.08C131,-217.01 131,-206.86 131,-197.99"/>
<polygon fill="midnightblue" stroke="midnightblue" points="134.5,-197.75 131,-187.75 127.5,-197.75 134.5,-197.75"/>
</g>
<!-- Node9 -->
<g id="node9" class="node">
<title>Node9</title>
<g id="a_node9"><a xlink:href="eshoperror_8h.html" target="_top" xlink:title=" ">
<polygon fill="none" stroke="black" points="0,-112.5 0,-131.5 70,-131.5 70,-112.5 0,-112.5"/>
<text text-anchor="middle" x="35" y="-119.5" font-family="Helvetica,sans-Serif" font-size="10.00">eshoperror.h</text>
</a>
</g>
</g>
<!-- Node1&#45;&gt;Node9 -->
<g id="edge13" class="edge">
<title>Node1&#45;&gt;Node9</title>
<path fill="none" stroke="midnightblue" d="M120.29,-224.26C109.95,-215.58 94.13,-201.64 82,-188 68.46,-172.78 55.05,-153.74 46.04,-140.21"/>
<polygon fill="midnightblue" stroke="midnightblue" points="48.97,-138.28 40.56,-131.83 43.11,-142.12 48.97,-138.28"/>
</g>
<!-- Node3 -->
<g id="node3" class="node">
<title>Node3</title>
<g id="a_node3"><a xlink:title=" ">
<polygon fill="none" stroke="#bfbfbf" points="236,-56.5 236,-75.5 266,-75.5 266,-56.5 236,-56.5"/>
<text text-anchor="middle" x="251" y="-63.5" font-family="Helvetica,sans-Serif" font-size="10.00">set</text>
</a>
</g>
</g>
<!-- Node2&#45;&gt;Node3 -->
<g id="edge2" class="edge">
<title>Node2&#45;&gt;Node3</title>
<path fill="none" stroke="midnightblue" d="M202.32,-112.32C210.89,-104.34 223.81,-92.31 234.19,-82.65"/>
<polygon fill="midnightblue" stroke="midnightblue" points="236.58,-85.21 241.51,-75.83 231.81,-80.09 236.58,-85.21"/>
</g>
<!-- Node4 -->
<g id="node4" class="node">
<title>Node4</title>
<g id="a_node4"><a xlink:title=" ">
<polygon fill="none" stroke="#bfbfbf" points="121.5,-56.5 121.5,-75.5 156.5,-75.5 156.5,-56.5 121.5,-56.5"/>
<text text-anchor="middle" x="139" y="-63.5" font-family="Helvetica,sans-Serif" font-size="10.00">map</text>
</a>
</g>
</g>
<!-- Node2&#45;&gt;Node4 -->
<g id="edge3" class="edge">
<title>Node2&#45;&gt;Node4</title>
<path fill="none" stroke="midnightblue" d="M184.08,-112.08C176.22,-104.22 164.57,-92.57 155.08,-83.08"/>
<polygon fill="midnightblue" stroke="midnightblue" points="157.3,-80.35 147.75,-75.75 152.35,-85.3 157.3,-80.35"/>
</g>
<!-- Node5 -->
<g id="node5" class="node">
<title>Node5</title>
<g id="a_node5"><a xlink:href="item_8h.html" target="_top" xlink:title=" ">
<polygon fill="none" stroke="black" points="60.5,-56.5 60.5,-75.5 103.5,-75.5 103.5,-56.5 60.5,-56.5"/>
<text text-anchor="middle" x="82" y="-63.5" font-family="Helvetica,sans-Serif" font-size="10.00">item.h</text>
</a>
</g>
</g>
<!-- Node2&#45;&gt;Node5 -->
<g id="edge4" class="edge">
<title>Node2&#45;&gt;Node5</title>
<path fill="none" stroke="midnightblue" d="M175.17,-112.32C157.28,-103.62 129.52,-90.12 108.95,-80.11"/>
<polygon fill="midnightblue" stroke="midnightblue" points="110.31,-76.88 99.79,-75.65 107.25,-83.18 110.31,-76.88"/>
</g>
<!-- Node7 -->
<g id="node7" class="node">
<title>Node7</title>
<g id="a_node7"><a xlink:href="user_8h.html" target="_top" xlink:title=" ">
<polygon fill="none" stroke="black" points="174.5,-56.5 174.5,-75.5 217.5,-75.5 217.5,-56.5 174.5,-56.5"/>
<text text-anchor="middle" x="196" y="-63.5" font-family="Helvetica,sans-Serif" font-size="10.00">user.h</text>
</a>
</g>
</g>
<!-- Node2&#45;&gt;Node7 -->
<g id="edge6" class="edge">
<title>Node2&#45;&gt;Node7</title>
<path fill="none" stroke="midnightblue" d="M193.5,-112.08C193.89,-105.01 194.45,-94.86 194.95,-85.99"/>
<polygon fill="midnightblue" stroke="midnightblue" points="198.45,-85.93 195.51,-75.75 191.46,-85.54 198.45,-85.93"/>
</g>
<!-- Node6 -->
<g id="node6" class="node">
<title>Node6</title>
<g id="a_node6"><a xlink:title=" ">
<polygon fill="none" stroke="#bfbfbf" points="55,-0.5 55,-19.5 109,-19.5 109,-0.5 55,-0.5"/>
<text text-anchor="middle" x="82" y="-7.5" font-family="Helvetica,sans-Serif" font-size="10.00">iostream</text>
</a>
</g>
</g>
<!-- Node5&#45;&gt;Node6 -->
<g id="edge5" class="edge">
<title>Node5&#45;&gt;Node6</title>
<path fill="none" stroke="midnightblue" d="M82,-56.08C82,-49.01 82,-38.86 82,-29.99"/>
<polygon fill="midnightblue" stroke="midnightblue" points="85.5,-29.75 82,-19.75 78.5,-29.75 85.5,-29.75"/>
</g>
<!-- Node7&#45;&gt;Node6 -->
<g id="edge7" class="edge">
<title>Node7&#45;&gt;Node6</title>
<path fill="none" stroke="midnightblue" d="M177.94,-56.44C159.43,-47.68 130.42,-33.94 109.14,-23.86"/>
<polygon fill="midnightblue" stroke="midnightblue" points="110.51,-20.63 99.98,-19.52 107.52,-26.96 110.51,-20.63"/>
</g>
<!-- Node8&#45;&gt;Node2 -->
<g id="edge12" class="edge">
<title>Node8&#45;&gt;Node2</title>
<path fill="none" stroke="midnightblue" d="M140.96,-168.32C150.13,-160.34 163.94,-148.31 175.03,-138.65"/>
<polygon fill="midnightblue" stroke="midnightblue" points="177.62,-141.04 182.86,-131.83 173.02,-135.76 177.62,-141.04"/>
</g>
<!-- Node8&#45;&gt;Node3 -->
<g id="edge9" class="edge">
<title>Node8&#45;&gt;Node3</title>
<path fill="none" stroke="midnightblue" d="M163.38,-168.45C183.74,-161.59 209.25,-150.06 226,-132 237.94,-119.13 244.38,-99.95 247.71,-85.76"/>
<polygon fill="midnightblue" stroke="midnightblue" points="251.2,-86.16 249.77,-75.66 244.34,-84.76 251.2,-86.16"/>
</g>
<!-- Node8&#45;&gt;Node4 -->
<g id="edge10" class="edge">
<title>Node8&#45;&gt;Node4</title>
<path fill="none" stroke="midnightblue" d="M131.63,-168.37C132.92,-150.62 135.9,-109.67 137.65,-85.6"/>
<polygon fill="midnightblue" stroke="midnightblue" points="141.14,-85.82 138.38,-75.59 134.16,-85.31 141.14,-85.82"/>
</g>
<!-- Node8&#45;&gt;Node5 -->
<g id="edge11" class="edge">
<title>Node8&#45;&gt;Node5</title>
<path fill="none" stroke="midnightblue" d="M127.16,-168.37C119.18,-150.46 100.67,-108.92 90,-84.95"/>
<polygon fill="midnightblue" stroke="midnightblue" points="93.09,-83.3 85.83,-75.59 86.7,-86.15 93.09,-83.3"/>
</g>
<!-- Node9&#45;&gt;Node6 -->
<g id="edge14" class="edge">
<title>Node9&#45;&gt;Node6</title>
<path fill="none" stroke="midnightblue" d="M36.13,-112.26C38,-99.46 42.43,-75.08 51,-56 55.51,-45.96 62.3,-35.78 68.38,-27.64"/>
<polygon fill="midnightblue" stroke="midnightblue" points="71.16,-29.76 74.55,-19.72 65.64,-25.46 71.16,-29.76"/>
</g>
</g>
</svg>
