<?xml version="1.0" encoding="UTF-8" standalone="no"?>
<!DOCTYPE svg PUBLIC "-//W3C//DTD SVG 1.1//EN"
 "http://www.w3.org/Graphics/SVG/1.1/DTD/svg11.dtd">
<!-- Generated by graphviz version 2.49.3 (20211027.1534)
 -->
<!-- Title: Buyer::placeOrder Pages: 1 -->
<!--zoomable 222 -->
<svg id="main" version="1.1" xmlns="http://www.w3.org/2000/svg" xmlns:xlink="http://www.w3.org/1999/xlink" xml:space="preserve" onload="init(evt)">
<style type="text/css"><![CDATA[
.edge:hover path { stroke: red; }
.edge:hover polygon { stroke: red; fill: red; }
]]></style>
<script type="text/javascript"><![CDATA[
var edges = document.getElementsByTagName('g');
if (edges && edges.length) {
  for (var i=0;i<edges.length;i++) {
    if (edges[i].id.substr(0,4)=='edge') {
      edges[i].setAttribute('class','edge');
    }
  }
}
]]></script>
        <defs>
                <circle id="rim" cx="0" cy="0" r="7"/>
                <circle id="rim2" cx="0" cy="0" r="3.5"/>
                <g id="zoomPlus">
                        <use xlink:href="#rim" fill="#404040">
                                <set attributeName="fill" to="#808080" begin="zoomplus.mouseover" end="zoomplus.mouseout"/>
                        </use>
                        <path d="M-4,0h8M0,-4v8" fill="none" stroke="white" stroke-width="1.5" pointer-events="none"/>
                </g>
                <g id="zoomMin">
                        <use xlink:href="#rim" fill="#404040">
                                <set attributeName="fill" to="#808080" begin="zoomminus.mouseover" end="zoomminus.mouseout"/>
                        </use>
                        <path d="M-4,0h8" fill="none" stroke="white" stroke-width="1.5" pointer-events="none"/>
                </g>
                <g id="dirArrow">
                        <path fill="none" stroke="white" stroke-width="1.5" d="M0,-3.0v7 M-2.5,-0.5L0,-3.0L2.5,-0.5"/>
                </g>
               <g id="resetDef">
                       <use xlink:href="#rim2" fill="#404040">
                               <set attributeName="fill" to="#808080" begin="reset.mouseover" end="reset.mouseout"/>
                       </use>
               </g>
        </defs>

<script type="text/javascript">
var viewWidth = 1004;
var viewHeight = 222;
var sectionId = 'dynsection-15';
</script>
<script xlink:href="svgpan.js"/>
<svg id="graph" class="graph">
<g id="viewport">
<title>Buyer::placeOrder</title>
<!-- Node1 -->
<g id="node1" class="node">
<title>Node1</title>
<g id="a_node1"><a xlink:title="Add an item to the cart with the specified quantity.">
<polygon fill="#bfbfbf" stroke="black" points="903,-156.5 903,-175.5 996,-175.5 996,-156.5 903,-156.5"/>
<text text-anchor="middle" x="949.5" y="-163.5" font-family="Helvetica,sans-Serif" font-size="10.00">Buyer::placeOrder</text>
</a>
</g>
</g>
<!-- Node2 -->
<g id="node2" class="node">
<title>Node2</title>
<g id="a_node2"><a xlink:href="main_8cpp.html#a3c04138a5bfe5d72780bb7e82a18e627" target="_top" xlink:title=" ">
<polygon fill="none" stroke="black" points="793,-194.5 793,-213.5 831,-213.5 831,-194.5 793,-194.5"/>
<text text-anchor="middle" x="812" y="-201.5" font-family="Helvetica,sans-Serif" font-size="10.00">main</text>
</a>
</g>
</g>
<!-- Node1&#45;&gt;Node2 -->
<g id="edge1" class="edge">
<title>Node1&#45;&gt;Node2</title>
<path fill="none" stroke="midnightblue" d="M904.38,-178.37C879.6,-185.32 850,-193.62 831.34,-198.86"/>
<polygon fill="midnightblue" stroke="midnightblue" points="905.62,-181.66 914.31,-175.59 903.73,-174.92 905.62,-181.66"/>
</g>
<!-- Node3 -->
<g id="node3" class="node">
<title>Node3</title>
<g id="a_node3"><a xlink:href="classMenu.html#a781c392fdcd203e436f5dc6e78f057a8" target="_top" xlink:title=" ">
<polygon fill="none" stroke="black" points="757,-80.5 757,-99.5 867,-99.5 867,-80.5 757,-80.5"/>
<text text-anchor="middle" x="812" y="-87.5" font-family="Helvetica,sans-Serif" font-size="10.00">Menu::showCartMenu</text>
</a>
</g>
</g>
<!-- Node1&#45;&gt;Node3 -->
<g id="edge2" class="edge">
<title>Node1&#45;&gt;Node3</title>
<path fill="none" stroke="midnightblue" d="M922.37,-151.35C895.14,-136.07 853.26,-112.58 830.02,-99.55"/>
<polygon fill="midnightblue" stroke="midnightblue" points="920.9,-154.54 931.34,-156.37 924.33,-148.43 920.9,-154.54"/>
</g>
<!-- Node7 -->
<g id="node7" class="node">
<title>Node7</title>
<g id="a_node7"><a xlink:href="classMenu.html#a957fada7140f67c43e3ee253ae863125" target="_top" xlink:title=" ">
<polygon fill="none" stroke="black" points="105,-98.5 105,-117.5 231,-117.5 231,-98.5 105,-98.5"/>
<text text-anchor="middle" x="168" y="-105.5" font-family="Helvetica,sans-Serif" font-size="10.00">Menu::showProductMenu</text>
</a>
</g>
</g>
<!-- Node1&#45;&gt;Node7 -->
<g id="edge26" class="edge">
<title>Node1&#45;&gt;Node7</title>
<path fill="none" stroke="midnightblue" d="M892.27,-166C834.79,-166 742.92,-166 663.5,-166 663.5,-166 663.5,-166 500,-166 389.15,-166 260.52,-134.05 201.55,-117.58"/>
<polygon fill="midnightblue" stroke="midnightblue" points="892.59,-169.5 902.59,-166 892.59,-162.5 892.59,-169.5"/>
</g>
<!-- Node3&#45;&gt;Node3 -->
<g id="edge25" class="edge">
<title>Node3&#45;&gt;Node3</title>
<path fill="none" stroke="midnightblue" d="M837.3,-109.03C835.92,-114.13 827.49,-118 812,-118 787.83,-118 780.84,-108.57 791.04,-99.76"/>
<polygon fill="midnightblue" stroke="midnightblue" points="840.37,-107.33 832.96,-99.76 834.03,-110.3 840.37,-107.33"/>
</g>
<!-- Node4 -->
<g id="node4" class="node">
<title>Node4</title>
<g id="a_node4"><a xlink:href="classMenu.html#a2ecf65abb196d80c5a5c354155019a93" target="_top" xlink:title=" ">
<polygon fill="none" stroke="black" points="604,-80.5 604,-99.5 721,-99.5 721,-80.5 604,-80.5"/>
<text text-anchor="middle" x="662.5" y="-87.5" font-family="Helvetica,sans-Serif" font-size="10.00">Menu::showBuyerMenu</text>
</a>
</g>
</g>
<!-- Node3&#45;&gt;Node4 -->
<g id="edge3" class="edge">
<title>Node3&#45;&gt;Node4</title>
<path fill="none" stroke="midnightblue" d="M746.64,-83.3C738.13,-83.21 729.44,-83.24 721.05,-83.4"/>
<polygon fill="midnightblue" stroke="midnightblue" points="746.86,-86.8 756.91,-83.47 746.97,-79.8 746.86,-86.8"/>
</g>
<!-- Node4&#45;&gt;Node3 -->
<g id="edge20" class="edge">
<title>Node4&#45;&gt;Node3</title>
<path fill="none" stroke="midnightblue" d="M731.12,-96.73C739.76,-96.79 748.52,-96.72 756.91,-96.53"/>
<polygon fill="midnightblue" stroke="midnightblue" points="731.1,-93.23 721.05,-96.6 731.01,-100.23 731.1,-93.23"/>
</g>
<!-- Node4&#45;&gt;Node4 -->
<g id="edge19" class="edge">
<title>Node4&#45;&gt;Node4</title>
<path fill="none" stroke="midnightblue" d="M690.13,-108.65C688.97,-113.94 679.76,-118 662.5,-118 636.2,-118 628.59,-108.57 639.69,-99.76"/>
<polygon fill="midnightblue" stroke="midnightblue" points="693.15,-106.89 685.31,-99.76 686.99,-110.22 693.15,-106.89"/>
</g>
<!-- Node5 -->
<g id="node5" class="node">
<title>Node5</title>
<g id="a_node5"><a xlink:href="classMenu.html#a1de78dc75d7de7db8bce09a70dbbf77f" target="_top" xlink:title=" ">
<polygon fill="none" stroke="black" points="438.5,-80.5 438.5,-99.5 563.5,-99.5 563.5,-80.5 438.5,-80.5"/>
<text text-anchor="middle" x="501" y="-87.5" font-family="Helvetica,sans-Serif" font-size="10.00">Menu::showBrowseMenu</text>
</a>
</g>
</g>
<!-- Node4&#45;&gt;Node5 -->
<g id="edge4" class="edge">
<title>Node4&#45;&gt;Node5</title>
<path fill="none" stroke="midnightblue" d="M593.63,-83.32C583.64,-83.2 573.39,-83.23 563.54,-83.41"/>
<polygon fill="midnightblue" stroke="midnightblue" points="593.86,-86.82 603.92,-83.49 593.98,-79.82 593.86,-86.82"/>
</g>
<!-- Node8 -->
<g id="node8" class="node">
<title>Node8</title>
<g id="a_node8"><a xlink:href="classMenu.html#a6a602f7f37917ae9582719a89246b73b" target="_top" xlink:title=" ">
<polygon fill="none" stroke="black" points="272,-42.5 272,-61.5 393,-61.5 393,-42.5 272,-42.5"/>
<text text-anchor="middle" x="332.5" y="-49.5" font-family="Helvetica,sans-Serif" font-size="10.00">Menu::showOwnerMenu</text>
</a>
</g>
</g>
<!-- Node4&#45;&gt;Node8 -->
<g id="edge23" class="edge">
<title>Node4&#45;&gt;Node8</title>
<path fill="none" stroke="midnightblue" d="M609.7,-78.33C596.18,-75.59 581.59,-72.92 568,-71 508.95,-62.64 440.99,-57.64 393.48,-54.88"/>
<polygon fill="midnightblue" stroke="midnightblue" points="609.29,-81.81 619.8,-80.41 610.71,-74.96 609.29,-81.81"/>
</g>
<!-- Node10 -->
<g id="node10" class="node">
<title>Node10</title>
<g id="a_node10"><a xlink:href="classMenu.html#aaef7622e532f3424a27fce4d16dbda47" target="_top" xlink:title=" ">
<polygon fill="none" stroke="black" points="113.5,-0.5 113.5,-19.5 222.5,-19.5 222.5,-0.5 113.5,-0.5"/>
<text text-anchor="middle" x="168" y="-7.5" font-family="Helvetica,sans-Serif" font-size="10.00">Menu::showWelcome</text>
</a>
</g>
</g>
<!-- Node4&#45;&gt;Node10 -->
<g id="edge24" class="edge">
<title>Node4&#45;&gt;Node10</title>
<path fill="none" stroke="midnightblue" d="M644.25,-74.91C625.82,-64 595.53,-50.94 568,-44 447.07,-13.51 300.18,-4.64 222.76,-5.13"/>
<polygon fill="midnightblue" stroke="midnightblue" points="642.43,-77.89 652.73,-80.37 646.22,-72.01 642.43,-77.89"/>
</g>
<!-- Node12 -->
<g id="node12" class="node">
<title>Node12</title>
<g id="a_node12"><a xlink:href="classMenu.html#a3905222cc1c1ec7ed2dce13e16555c52" target="_top" xlink:title=" ">
<polygon fill="none" stroke="black" points="434,-118.5 434,-137.5 568,-137.5 568,-118.5 434,-118.5"/>
<text text-anchor="middle" x="501" y="-125.5" font-family="Helvetica,sans-Serif" font-size="10.00">Menu::showCheckoutMenu</text>
</a>
</g>
</g>
<!-- Node4&#45;&gt;Node12 -->
<g id="edge21" class="edge">
<title>Node4&#45;&gt;Node12</title>
<path fill="none" stroke="midnightblue" d="M594.14,-99.37C568.34,-105.21 540.77,-112.44 522.59,-118.39"/>
<polygon fill="midnightblue" stroke="midnightblue" points="594.91,-102.79 603.92,-97.21 593.4,-95.95 594.91,-102.79"/>
</g>
<!-- Node5&#45;&gt;Node4 -->
<g id="edge5" class="edge">
<title>Node5&#45;&gt;Node4</title>
<path fill="none" stroke="midnightblue" d="M573.6,-96.72C583.75,-96.8 594.08,-96.73 603.92,-96.51"/>
<polygon fill="midnightblue" stroke="midnightblue" points="573.58,-93.22 563.54,-96.59 573.49,-100.22 573.58,-93.22"/>
</g>
<!-- Node6 -->
<g id="node6" class="node">
<title>Node6</title>
<g id="a_node6"><a xlink:href="classMenu.html#a8bdf4110581d8d8a82f6290f246201e7" target="_top" xlink:title=" ">
<polygon fill="none" stroke="black" points="267,-89.5 267,-108.5 398,-108.5 398,-89.5 267,-89.5"/>
<text text-anchor="middle" x="332.5" y="-96.5" font-family="Helvetica,sans-Serif" font-size="10.00">Menu::showCategoryMenu</text>
</a>
</g>
</g>
<!-- Node5&#45;&gt;Node6 -->
<g id="edge6" class="edge">
<title>Node5&#45;&gt;Node6</title>
<path fill="none" stroke="midnightblue" d="M428.38,-87.18C415.67,-87.74 402.59,-88.53 390.36,-89.49"/>
<polygon fill="midnightblue" stroke="midnightblue" points="428.62,-90.67 438.47,-86.78 428.35,-83.68 428.62,-90.67"/>
</g>
<!-- Node5&#45;&gt;Node8 -->
<g id="edge10" class="edge">
<title>Node5&#45;&gt;Node8</title>
<path fill="none" stroke="midnightblue" d="M468.79,-77.47C447.54,-71.34 418.73,-64.4 393.15,-59.11"/>
<polygon fill="midnightblue" stroke="midnightblue" points="467.99,-80.89 478.57,-80.41 470,-74.18 467.99,-80.89"/>
</g>
<!-- Node6&#45;&gt;Node5 -->
<g id="edge7" class="edge">
<title>Node6&#45;&gt;Node5</title>
<path fill="none" stroke="midnightblue" d="M408.3,-101.68C420.01,-101.13 431.94,-100.39 443.17,-99.51"/>
<polygon fill="midnightblue" stroke="midnightblue" points="407.93,-98.19 398.09,-102.11 408.23,-105.18 407.93,-98.19"/>
</g>
<!-- Node6&#45;&gt;Node7 -->
<g id="edge8" class="edge">
<title>Node6&#45;&gt;Node7</title>
<path fill="none" stroke="midnightblue" d="M256.55,-96.42C245.78,-96.95 234.86,-97.66 224.56,-98.48"/>
<polygon fill="midnightblue" stroke="midnightblue" points="256.98,-99.9 266.81,-95.96 256.66,-92.91 256.98,-99.9"/>
</g>
<!-- Node7&#45;&gt;Node6 -->
<g id="edge9" class="edge">
<title>Node7&#45;&gt;Node6</title>
<path fill="none" stroke="midnightblue" d="M241.34,-110.71C252.98,-110.16 264.87,-109.41 276.03,-108.51"/>
<polygon fill="midnightblue" stroke="midnightblue" points="241.04,-107.22 231.19,-111.14 241.33,-114.21 241.04,-107.22"/>
</g>
<!-- Node8&#45;&gt;Node5 -->
<g id="edge11" class="edge">
<title>Node8&#45;&gt;Node5</title>
<path fill="none" stroke="midnightblue" d="M364.85,-64.57C385.57,-70.54 413.43,-77.28 438.47,-82.5"/>
<polygon fill="midnightblue" stroke="midnightblue" points="365.59,-61.14 355,-61.62 363.58,-67.84 365.59,-61.14"/>
</g>
<!-- Node9 -->
<g id="node9" class="node">
<title>Node9</title>
<g id="a_node9"><a xlink:href="classMenu.html#a788512183de460d13b8a2dfb571c03f2" target="_top" xlink:title=" ">
<polygon fill="none" stroke="black" points="107.5,-42.5 107.5,-61.5 228.5,-61.5 228.5,-42.5 107.5,-42.5"/>
<text text-anchor="middle" x="168" y="-49.5" font-family="Helvetica,sans-Serif" font-size="10.00">Menu::showStatusMenu</text>
</a>
</g>
</g>
<!-- Node8&#45;&gt;Node9 -->
<g id="edge12" class="edge">
<title>Node8&#45;&gt;Node9</title>
<path fill="none" stroke="midnightblue" d="M261.85,-45.31C250.77,-45.19 239.4,-45.25 228.58,-45.47"/>
<polygon fill="midnightblue" stroke="midnightblue" points="261.86,-48.81 271.91,-45.47 261.97,-41.81 261.86,-48.81"/>
</g>
<!-- Node8&#45;&gt;Node10 -->
<g id="edge15" class="edge">
<title>Node8&#45;&gt;Node10</title>
<path fill="none" stroke="midnightblue" d="M302.74,-39.27C280.61,-32.1 249.4,-23.67 222.69,-17.49"/>
<polygon fill="midnightblue" stroke="midnightblue" points="301.63,-42.59 312.22,-42.46 303.86,-35.95 301.63,-42.59"/>
</g>
<!-- Node9&#45;&gt;Node8 -->
<g id="edge13" class="edge">
<title>Node9&#45;&gt;Node8</title>
<path fill="none" stroke="midnightblue" d="M238.65,-58.69C249.72,-58.81 261.09,-58.75 271.91,-58.53"/>
<polygon fill="midnightblue" stroke="midnightblue" points="238.63,-55.19 228.58,-58.53 238.52,-62.19 238.63,-55.19"/>
</g>
<!-- Node9&#45;&gt;Node9 -->
<g id="edge14" class="edge">
<title>Node9&#45;&gt;Node9</title>
<path fill="none" stroke="midnightblue" d="M192.55,-71.03C191.21,-76.13 183.03,-80 168,-80 144.54,-80 137.76,-70.57 147.65,-61.76"/>
<polygon fill="midnightblue" stroke="midnightblue" points="195.67,-69.42 188.35,-61.76 189.29,-72.31 195.67,-69.42"/>
</g>
<!-- Node10&#45;&gt;Node4 -->
<g id="edge17" class="edge">
<title>Node10&#45;&gt;Node4</title>
<path fill="none" stroke="midnightblue" d="M233.11,-17.73C312.76,-23.44 452.27,-32.82 568,-62 586.62,-66.69 606.5,-74.19 623.12,-80.49"/>
<polygon fill="midnightblue" stroke="midnightblue" points="232.98,-14.21 222.76,-16.98 232.48,-21.19 232.98,-14.21"/>
</g>
<!-- Node10&#45;&gt;Node8 -->
<g id="edge18" class="edge">
<title>Node10&#45;&gt;Node8</title>
<path fill="none" stroke="midnightblue" d="M197.87,-22.76C218.38,-29.4 246.65,-37.12 271.91,-43.13"/>
<polygon fill="midnightblue" stroke="midnightblue" points="198.78,-19.38 188.19,-19.5 196.55,-26.01 198.78,-19.38"/>
</g>
<!-- Node11 -->
<g id="node11" class="node">
<title>Node11</title>
<g id="a_node11"><a xlink:href="classMenu.html#a323509e5b6f4dc00536e87efd65b8b94" target="_top" xlink:title=" ">
<polygon fill="none" stroke="black" points="0,-0.5 0,-19.5 69,-19.5 69,-0.5 0,-0.5"/>
<text text-anchor="middle" x="34.5" y="-7.5" font-family="Helvetica,sans-Serif" font-size="10.00">Menu::Menu</text>
</a>
</g>
</g>
<!-- Node10&#45;&gt;Node11 -->
<g id="edge16" class="edge">
<title>Node10&#45;&gt;Node11</title>
<path fill="none" stroke="midnightblue" d="M102.92,-10C91.23,-10 79.47,-10 69.12,-10"/>
<polygon fill="midnightblue" stroke="midnightblue" points="103.13,-13.5 113.13,-10 103.13,-6.5 103.13,-13.5"/>
</g>
<!-- Node12&#45;&gt;Node4 -->
<g id="edge22" class="edge">
<title>Node12&#45;&gt;Node4</title>
<path fill="none" stroke="midnightblue" d="M578.21,-116.59C601.33,-111.16 624.85,-104.87 640.97,-99.59"/>
<polygon fill="midnightblue" stroke="midnightblue" points="577.3,-113.2 568.34,-118.86 578.87,-120.03 577.3,-113.2"/>
</g>
</g>
</svg>
        <g id="navigator" transform="translate(0 0)" fill="#404254">
                <rect fill="#f2f5e9" fill-opacity="0.5" stroke="#606060" stroke-width=".5" x="0" y="0" width="60" height="60"/>
                <use id="zoomplus" xlink:href="#zoomPlus" x="17" y="9" onmousedown="handleZoom(evt,'in')"/>
                <use id="zoomminus" xlink:href="#zoomMin" x="42" y="9" onmousedown="handleZoom(evt,'out')"/>
                <use id="reset" xlink:href="#resetDef" x="30" y="36" onmousedown="handleReset()"/>
                <g id="arrowUp" xlink:href="#dirArrow" transform="translate(30 24)" onmousedown="handlePan(0,-1)">
                  <use xlink:href="#rim" fill="#404040">
                        <set attributeName="fill" to="#808080" begin="arrowUp.mouseover" end="arrowUp.mouseout"/>
                  </use>
                  <path fill="none" stroke="white" stroke-width="1.5" d="M0,-3.0v7 M-2.5,-0.5L0,-3.0L2.5,-0.5"/>
                </g>
                <g id="arrowRight" xlink:href="#dirArrow" transform="rotate(90) translate(36 -43)" onmousedown="handlePan(1,0)">
                  <use xlink:href="#rim" fill="#404040">
                        <set attributeName="fill" to="#808080" begin="arrowRight.mouseover" end="arrowRight.mouseout"/>
                  </use>
                  <path fill="none" stroke="white" stroke-width="1.5" d="M0,-3.0v7 M-2.5,-0.5L0,-3.0L2.5,-0.5"/>
                </g>
                <g id="arrowDown" xlink:href="#dirArrow" transform="rotate(180) translate(-30 -48)" onmousedown="handlePan(0,1)">
                  <use xlink:href="#rim" fill="#404040">
                        <set attributeName="fill" to="#808080" begin="arrowDown.mouseover" end="arrowDown.mouseout"/>
                  </use>
                  <path fill="none" stroke="white" stroke-width="1.5" d="M0,-3.0v7 M-2.5,-0.5L0,-3.0L2.5,-0.5"/>
                </g>
                <g id="arrowLeft" xlink:href="#dirArrow" transform="rotate(270) translate(-36 17)" onmousedown="handlePan(-1,0)">
                  <use xlink:href="#rim" fill="#404040">
                        <set attributeName="fill" to="#808080" begin="arrowLeft.mouseover" end="arrowLeft.mouseout"/>
                  </use>
                  <path fill="none" stroke="white" stroke-width="1.5" d="M0,-3.0v7 M-2.5,-0.5L0,-3.0L2.5,-0.5"/>
                </g>
        </g>
        <svg viewBox="0 0 15 15" width="100%" height="30px" preserveAspectRatio="xMaxYMin meet">
         <g id="arrow_out" transform="scale(0.3 0.3)">
          <a xlink:href="classBuyer_a50ddd9046308e8ac9b82c0665d07452b_icgraph_org.svg" target="_base">
           <rect id="button" ry="5" rx="5" y="6" x="6" height="38" width="38"
                fill="#f2f5e9" fill-opacity="0.5" stroke="#606060" stroke-width="1.0"/>
           <path id="arrow"
             d="M 11.500037,31.436501 C 11.940474,20.09759 22.043105,11.32322 32.158766,21.979434 L 37.068811,17.246167 C 37.068811,17.246167 37.088388,32 37.088388,32 L 22.160133,31.978069 C 22.160133,31.978069 26.997745,27.140456 26.997745,27.140456 C 18.528582,18.264221 13.291696,25.230495 11.500037,31.436501 z"
             style="fill:#404040;"/>
          </a>
         </g>
        </svg>
</svg>
