<?xml version="1.0" encoding="UTF-8" standalone="no"?>
<!DOCTYPE svg PUBLIC "-//W3C//DTD SVG 1.1//EN"
 "http://www.w3.org/Graphics/SVG/1.1/DTD/svg11.dtd">
<!-- Generated by graphviz version 2.49.3 (20211027.1534)
 -->
<!-- Title: Owner Pages: 1 -->
<svg width="172pt" height="237pt"
 viewBox="0.00 0.00 172.00 237.00" xmlns="http://www.w3.org/2000/svg" xmlns:xlink="http://www.w3.org/1999/xlink">
<g id="graph0" class="graph" transform="scale(1 1) rotate(0) translate(4 233)">
<title>Owner</title>
<!-- Node1 -->
<g id="node1" class="node">
<title>Node1</title>
<g id="a_node1"><a xlink:title="Specialization of User. Describes an Owner.">
<polygon fill="#bfbfbf" stroke="black" points="0,-0.5 0,-68.5 164,-68.5 164,-0.5 0,-0.5"/>
<text text-anchor="middle" x="82" y="-56.5" font-family="Helvetica,sans-Serif" font-size="10.00">Owner</text>
<polyline fill="none" stroke="black" points="0,-49.5 164,-49.5 "/>
<text text-anchor="start" x="8" y="-37.5" font-family="Helvetica,sans-Serif" font-size="10.00">&#45; bool _isAdmin</text>
<polyline fill="none" stroke="black" points="0,-30.5 164,-30.5 "/>
<text text-anchor="start" x="8" y="-18.5" font-family="Helvetica,sans-Serif" font-size="10.00">+ Owner(string name, string email)</text>
<text text-anchor="start" x="8" y="-7.5" font-family="Helvetica,sans-Serif" font-size="10.00">+ bool isAdmin()</text>
</a>
</g>
</g>
<!-- Node2 -->
<g id="node2" class="node">
<title>Node2</title>
<g id="a_node2"><a xlink:href="classUser.html" target="_top" xlink:title="Base class for all users.">
<polygon fill="none" stroke="black" points="3.5,-105.5 3.5,-228.5 160.5,-228.5 160.5,-105.5 3.5,-105.5"/>
<text text-anchor="middle" x="82" y="-216.5" font-family="Helvetica,sans-Serif" font-size="10.00">User</text>
<polyline fill="none" stroke="black" points="3.5,-209.5 160.5,-209.5 "/>
<text text-anchor="start" x="11.5" y="-197.5" font-family="Helvetica,sans-Serif" font-size="10.00">&#45; string _name</text>
<text text-anchor="start" x="11.5" y="-186.5" font-family="Helvetica,sans-Serif" font-size="10.00">&#45; string _email</text>
<polyline fill="none" stroke="black" points="3.5,-179.5 160.5,-179.5 "/>
<text text-anchor="start" x="11.5" y="-167.5" font-family="Helvetica,sans-Serif" font-size="10.00">+ User(string name, string email)</text>
<text text-anchor="start" x="11.5" y="-156.5" font-family="Helvetica,sans-Serif" font-size="10.00">+ string getName()</text>
<text text-anchor="start" x="11.5" y="-145.5" font-family="Helvetica,sans-Serif" font-size="10.00">+ string getEmail()</text>
<text text-anchor="start" x="11.5" y="-134.5" font-family="Helvetica,sans-Serif" font-size="10.00">+ virtual bool isAdmin()=0</text>
<text text-anchor="start" x="11.5" y="-123.5" font-family="Helvetica,sans-Serif" font-size="10.00">&#45; void setName(string name)</text>
<text text-anchor="start" x="11.5" y="-112.5" font-family="Helvetica,sans-Serif" font-size="10.00">&#45; void setEmail(string email)</text>
</a>
</g>
</g>
<!-- Node2&#45;&gt;Node1 -->
<g id="edge1" class="edge">
<title>Node2&#45;&gt;Node1</title>
<path fill="none" stroke="midnightblue" d="M82,-95.24C82,-85.97 82,-76.84 82,-68.62"/>
<polygon fill="none" stroke="midnightblue" points="78.5,-95.33 82,-105.33 85.5,-95.33 78.5,-95.33"/>
</g>
</g>
</svg>
