<?xml version="1.0" encoding="UTF-8" standalone="no"?>
<!DOCTYPE svg PUBLIC "-//W3C//DTD SVG 1.1//EN"
 "http://www.w3.org/Graphics/SVG/1.1/DTD/svg11.dtd">
<!-- Generated by graphviz version 2.49.3 (20211027.1534)
 -->
<!-- Title: User::getEmail Pages: 1 -->
<svg width="1166pt" height="292pt"
 viewBox="0.00 0.00 1166.00 292.00" xmlns="http://www.w3.org/2000/svg" xmlns:xlink="http://www.w3.org/1999/xlink">
<g id="graph0" class="graph" transform="scale(1 1) rotate(0) translate(4 288)">
<title>User::getEmail</title>
<!-- Node1 -->
<g id="node1" class="node">
<title>Node1</title>
<g id="a_node1"><a xlink:title="Get the Email of the user.">
<polygon fill="#bfbfbf" stroke="black" points="1078,-57.5 1078,-76.5 1158,-76.5 1158,-57.5 1078,-57.5"/>
<text text-anchor="middle" x="1118" y="-64.5" font-family="Helvetica,sans-Serif" font-size="10.00">User::getEmail</text>
</a>
</g>
</g>
<!-- Node2 -->
<g id="node2" class="node">
<title>Node2</title>
<g id="a_node2"><a xlink:href="classMenu.html#a1cba910e7f8a136371a3eb3d18cc73b3" target="_top" xlink:title="User authentication.">
<polygon fill="none" stroke="black" points="963,-84.5 963,-103.5 1028,-103.5 1028,-84.5 963,-84.5"/>
<text text-anchor="middle" x="995.5" y="-91.5" font-family="Helvetica,sans-Serif" font-size="10.00">Menu::login</text>
</a>
</g>
</g>
<!-- Node1&#45;&gt;Node2 -->
<g id="edge1" class="edge">
<title>Node1&#45;&gt;Node2</title>
<path fill="none" stroke="midnightblue" d="M1067.84,-78.02C1054.46,-81.01 1040.33,-84.18 1028.2,-86.9"/>
<polygon fill="midnightblue" stroke="midnightblue" points="1068.88,-81.37 1077.88,-75.77 1067.35,-74.54 1068.88,-81.37"/>
</g>
<!-- Node6 -->
<g id="node6" class="node">
<title>Node6</title>
<g id="a_node6"><a xlink:href="classMenu.html#a2ecf65abb196d80c5a5c354155019a93" target="_top" xlink:title=" ">
<polygon fill="none" stroke="black" points="499,-179.5 499,-198.5 616,-198.5 616,-179.5 499,-179.5"/>
<text text-anchor="middle" x="557.5" y="-186.5" font-family="Helvetica,sans-Serif" font-size="10.00">Menu::showBuyerMenu</text>
</a>
</g>
</g>
<!-- Node1&#45;&gt;Node6 -->
<g id="edge28" class="edge">
<title>Node1&#45;&gt;Node6</title>
<path fill="none" stroke="midnightblue" d="M1096.59,-82.6C1082.12,-92.86 1061.82,-105.7 1042,-113 894.9,-167.2 708.69,-182.75 616.16,-187.21"/>
<polygon fill="midnightblue" stroke="midnightblue" points="1098.77,-85.34 1104.79,-76.62 1094.65,-79.68 1098.77,-85.34"/>
</g>
<!-- Node10 -->
<g id="node10" class="node">
<title>Node10</title>
<g id="a_node10"><a xlink:href="classMenu.html#a6a602f7f37917ae9582719a89246b73b" target="_top" xlink:title=" ">
<polygon fill="none" stroke="black" points="167,-136.5 167,-155.5 288,-155.5 288,-136.5 167,-136.5"/>
<text text-anchor="middle" x="227.5" y="-143.5" font-family="Helvetica,sans-Serif" font-size="10.00">Menu::showOwnerMenu</text>
</a>
</g>
</g>
<!-- Node1&#45;&gt;Node10 -->
<g id="edge29" class="edge">
<title>Node1&#45;&gt;Node10</title>
<path fill="none" stroke="midnightblue" d="M1067.68,-61.26C1015.26,-55.67 929.9,-48 856,-48 856,-48 856,-48 556.5,-48 433.77,-48 295.62,-111.77 246.78,-136.42"/>
<polygon fill="midnightblue" stroke="midnightblue" points="1067.39,-64.75 1077.71,-62.35 1068.15,-57.79 1067.39,-64.75"/>
</g>
<!-- Node14 -->
<g id="node14" class="node">
<title>Node14</title>
<g id="a_node14"><a xlink:href="classBuyer.html#a717e6d050ec7b9d746839368347c77c4" target="_top" xlink:title="Comparission operator between two Buyers.">
<polygon fill="none" stroke="black" points="949,-0.5 949,-19.5 1042,-19.5 1042,-0.5 949,-0.5"/>
<text text-anchor="middle" x="995.5" y="-7.5" font-family="Helvetica,sans-Serif" font-size="10.00">Buyer::operator==</text>
</a>
</g>
</g>
<!-- Node1&#45;&gt;Node14 -->
<g id="edge27" class="edge">
<title>Node1&#45;&gt;Node14</title>
<path fill="none" stroke="midnightblue" d="M1087.62,-53.1C1065.63,-42.7 1036.13,-28.75 1016.73,-19.57"/>
<polygon fill="midnightblue" stroke="midnightblue" points="1086.29,-56.35 1096.83,-57.46 1089.29,-50.02 1086.29,-56.35"/>
</g>
<!-- Node3 -->
<g id="node3" class="node">
<title>Node3</title>
<g id="a_node3"><a xlink:href="classMenu.html#a69db6693739aa87710c029b54a90385d" target="_top" xlink:title=" ">
<polygon fill="none" stroke="black" points="797,-100.5 797,-119.5 913,-119.5 913,-100.5 797,-100.5"/>
<text text-anchor="middle" x="855" y="-107.5" font-family="Helvetica,sans-Serif" font-size="10.00">Menu::showLoginMenu</text>
</a>
</g>
</g>
<!-- Node2&#45;&gt;Node3 -->
<g id="edge2" class="edge">
<title>Node2&#45;&gt;Node3</title>
<path fill="none" stroke="midnightblue" d="M952.66,-98.83C940.24,-100.27 926.41,-101.87 913.19,-103.39"/>
<polygon fill="midnightblue" stroke="midnightblue" points="953.19,-102.3 962.73,-97.67 952.39,-95.34 953.19,-102.3"/>
</g>
<!-- Node4 -->
<g id="node4" class="node">
<title>Node4</title>
<g id="a_node4"><a xlink:href="classMenu.html#aaef7622e532f3424a27fce4d16dbda47" target="_top" xlink:title=" ">
<polygon fill="none" stroke="black" points="652,-108.5 652,-127.5 761,-127.5 761,-108.5 652,-108.5"/>
<text text-anchor="middle" x="706.5" y="-115.5" font-family="Helvetica,sans-Serif" font-size="10.00">Menu::showWelcome</text>
</a>
</g>
</g>
<!-- Node3&#45;&gt;Node4 -->
<g id="edge3" class="edge">
<title>Node3&#45;&gt;Node4</title>
<path fill="none" stroke="midnightblue" d="M786.93,-113.66C778.34,-114.13 769.63,-114.61 761.29,-115.06"/>
<polygon fill="midnightblue" stroke="midnightblue" points="787.15,-117.16 796.94,-113.12 786.76,-110.17 787.15,-117.16"/>
</g>
<!-- Node5 -->
<g id="node5" class="node">
<title>Node5</title>
<g id="a_node5"><a xlink:href="classMenu.html#a323509e5b6f4dc00536e87efd65b8b94" target="_top" xlink:title=" ">
<polygon fill="none" stroke="black" points="523,-132.5 523,-151.5 592,-151.5 592,-132.5 523,-132.5"/>
<text text-anchor="middle" x="557.5" y="-139.5" font-family="Helvetica,sans-Serif" font-size="10.00">Menu::Menu</text>
</a>
</g>
</g>
<!-- Node4&#45;&gt;Node5 -->
<g id="edge4" class="edge">
<title>Node4&#45;&gt;Node5</title>
<path fill="none" stroke="midnightblue" d="M641.7,-128.42C624.7,-131.19 607,-134.08 592.32,-136.48"/>
<polygon fill="midnightblue" stroke="midnightblue" points="642.29,-131.87 651.6,-126.8 641.16,-124.96 642.29,-131.87"/>
</g>
<!-- Node4&#45;&gt;Node6 -->
<g id="edge5" class="edge">
<title>Node4&#45;&gt;Node6</title>
<path fill="none" stroke="midnightblue" d="M664.46,-131.7C632.66,-145.75 590.72,-166.75 570.47,-179.32"/>
<polygon fill="midnightblue" stroke="midnightblue" points="666.18,-134.76 673.96,-127.57 663.4,-128.34 666.18,-134.76"/>
</g>
<!-- Node4&#45;&gt;Node10 -->
<g id="edge26" class="edge">
<title>Node4&#45;&gt;Node10</title>
<path fill="none" stroke="midnightblue" d="M641.72,-108.32C566.62,-102.88 438.26,-100.92 329,-114 296.83,-117.85 259.91,-127.75 241.04,-136.41"/>
<polygon fill="midnightblue" stroke="midnightblue" points="641.72,-111.83 651.96,-109.1 642.26,-104.85 641.72,-111.83"/>
</g>
<!-- Node6&#45;&gt;Node4 -->
<g id="edge25" class="edge">
<title>Node6&#45;&gt;Node4</title>
<path fill="none" stroke="midnightblue" d="M599.51,-175.32C631.41,-161.22 673.53,-140.13 693.72,-127.57"/>
<polygon fill="midnightblue" stroke="midnightblue" points="597.76,-172.26 589.98,-179.45 600.55,-178.68 597.76,-172.26"/>
</g>
<!-- Node6&#45;&gt;Node6 -->
<g id="edge18" class="edge">
<title>Node6&#45;&gt;Node6</title>
<path fill="none" stroke="midnightblue" d="M585.13,-207.65C583.97,-212.94 574.76,-217 557.5,-217 531.2,-217 523.59,-207.57 534.69,-198.76"/>
<polygon fill="midnightblue" stroke="midnightblue" points="588.15,-205.89 580.31,-198.76 581.99,-209.22 588.15,-205.89"/>
</g>
<!-- Node7 -->
<g id="node7" class="node">
<title>Node7</title>
<g id="a_node7"><a xlink:href="classMenu.html#a1de78dc75d7de7db8bce09a70dbbf77f" target="_top" xlink:title=" ">
<polygon fill="none" stroke="black" points="333.5,-264.5 333.5,-283.5 458.5,-283.5 458.5,-264.5 333.5,-264.5"/>
<text text-anchor="middle" x="396" y="-271.5" font-family="Helvetica,sans-Serif" font-size="10.00">Menu::showBrowseMenu</text>
</a>
</g>
</g>
<!-- Node6&#45;&gt;Node7 -->
<g id="edge6" class="edge">
<title>Node6&#45;&gt;Node7</title>
<path fill="none" stroke="midnightblue" d="M528.72,-204.6C510.89,-217.37 486.71,-234.62 463,-246 446.02,-254.15 424.86,-259.48 411.14,-264.48"/>
<polygon fill="midnightblue" stroke="midnightblue" points="530.83,-207.4 536.94,-198.74 526.76,-201.7 530.83,-207.4"/>
</g>
<!-- Node6&#45;&gt;Node10 -->
<g id="edge24" class="edge">
<title>Node6&#45;&gt;Node10</title>
<path fill="none" stroke="midnightblue" d="M488.93,-190.83C443.39,-190.9 382.15,-188.7 329,-179 301.72,-174.02 271.66,-163.43 251.58,-155.59"/>
<polygon fill="midnightblue" stroke="midnightblue" points="489,-194.33 498.98,-190.78 488.97,-187.33 489,-194.33"/>
</g>
<!-- Node12 -->
<g id="node12" class="node">
<title>Node12</title>
<g id="a_node12"><a xlink:href="classMenu.html#a781c392fdcd203e436f5dc6e78f057a8" target="_top" xlink:title=" ">
<polygon fill="none" stroke="black" points="341,-132.5 341,-151.5 451,-151.5 451,-132.5 341,-132.5"/>
<text text-anchor="middle" x="396" y="-139.5" font-family="Helvetica,sans-Serif" font-size="10.00">Menu::showCartMenu</text>
</a>
</g>
</g>
<!-- Node6&#45;&gt;Node12 -->
<g id="edge19" class="edge">
<title>Node6&#45;&gt;Node12</title>
<path fill="none" stroke="midnightblue" d="M529.71,-175.91C508.31,-168.1 477.62,-158.64 451.14,-151.52"/>
<polygon fill="midnightblue" stroke="midnightblue" points="528.54,-179.21 539.13,-179.48 531.02,-172.66 528.54,-179.21"/>
</g>
<!-- Node13 -->
<g id="node13" class="node">
<title>Node13</title>
<g id="a_node13"><a xlink:href="classMenu.html#a3905222cc1c1ec7ed2dce13e16555c52" target="_top" xlink:title=" ">
<polygon fill="none" stroke="black" points="329,-226.5 329,-245.5 463,-245.5 463,-226.5 329,-226.5"/>
<text text-anchor="middle" x="396" y="-233.5" font-family="Helvetica,sans-Serif" font-size="10.00">Menu::showCheckoutMenu</text>
</a>
</g>
</g>
<!-- Node6&#45;&gt;Node13 -->
<g id="edge22" class="edge">
<title>Node6&#45;&gt;Node13</title>
<path fill="none" stroke="midnightblue" d="M492.24,-201.3C464.12,-209.16 433.33,-218.98 414.58,-226.4"/>
<polygon fill="midnightblue" stroke="midnightblue" points="493.34,-204.63 502.06,-198.6 491.49,-197.88 493.34,-204.63"/>
</g>
<!-- Node7&#45;&gt;Node6 -->
<g id="edge7" class="edge">
<title>Node7&#45;&gt;Node6</title>
<path fill="none" stroke="midnightblue" d="M467.68,-261.47C504.59,-242.1 537.53,-214.34 550.6,-198.83"/>
<polygon fill="midnightblue" stroke="midnightblue" points="466.1,-258.34 458.73,-265.95 469.24,-264.6 466.1,-258.34"/>
</g>
<!-- Node8 -->
<g id="node8" class="node">
<title>Node8</title>
<g id="a_node8"><a xlink:href="classMenu.html#a8bdf4110581d8d8a82f6290f246201e7" target="_top" xlink:title=" ">
<polygon fill="none" stroke="black" points="162,-264.5 162,-283.5 293,-283.5 293,-264.5 162,-264.5"/>
<text text-anchor="middle" x="227.5" y="-271.5" font-family="Helvetica,sans-Serif" font-size="10.00">Menu::showCategoryMenu</text>
</a>
</g>
</g>
<!-- Node7&#45;&gt;Node8 -->
<g id="edge8" class="edge">
<title>Node7&#45;&gt;Node8</title>
<path fill="none" stroke="midnightblue" d="M323.17,-267.31C313.18,-267.21 302.97,-267.24 293.12,-267.4"/>
<polygon fill="midnightblue" stroke="midnightblue" points="323.42,-270.81 333.47,-267.46 323.53,-263.81 323.42,-270.81"/>
</g>
<!-- Node7&#45;&gt;Node10 -->
<g id="edge12" class="edge">
<title>Node7&#45;&gt;Node10</title>
<path fill="none" stroke="midnightblue" d="M368.06,-261.56C355.53,-257.88 340.81,-253.29 329,-246 288.92,-221.25 254.79,-176.19 238.58,-155.79"/>
<polygon fill="midnightblue" stroke="midnightblue" points="367.39,-265.01 377.97,-264.48 369.37,-258.3 367.39,-265.01"/>
</g>
<!-- Node8&#45;&gt;Node7 -->
<g id="edge9" class="edge">
<title>Node8&#45;&gt;Node7</title>
<path fill="none" stroke="midnightblue" d="M303.17,-280.72C313.31,-280.79 323.61,-280.73 333.47,-280.54"/>
<polygon fill="midnightblue" stroke="midnightblue" points="303.16,-277.22 293.12,-280.6 303.08,-284.22 303.16,-277.22"/>
</g>
<!-- Node9 -->
<g id="node9" class="node">
<title>Node9</title>
<g id="a_node9"><a xlink:href="classMenu.html#a957fada7140f67c43e3ee253ae863125" target="_top" xlink:title=" ">
<polygon fill="none" stroke="black" points="0,-264.5 0,-283.5 126,-283.5 126,-264.5 0,-264.5"/>
<text text-anchor="middle" x="63" y="-271.5" font-family="Helvetica,sans-Serif" font-size="10.00">Menu::showProductMenu</text>
</a>
</g>
</g>
<!-- Node8&#45;&gt;Node9 -->
<g id="edge10" class="edge">
<title>Node8&#45;&gt;Node9</title>
<path fill="none" stroke="midnightblue" d="M151.78,-267.27C143.19,-267.22 134.49,-267.27 126.09,-267.42"/>
<polygon fill="midnightblue" stroke="midnightblue" points="151.77,-270.77 161.81,-267.38 151.85,-263.77 151.77,-270.77"/>
</g>
<!-- Node9&#45;&gt;Node8 -->
<g id="edge11" class="edge">
<title>Node9&#45;&gt;Node8</title>
<path fill="none" stroke="midnightblue" d="M136.34,-280.71C144.83,-280.78 153.44,-280.75 161.81,-280.62"/>
<polygon fill="midnightblue" stroke="midnightblue" points="136.13,-277.21 126.09,-280.58 136.04,-284.21 136.13,-277.21"/>
</g>
<!-- Node10&#45;&gt;Node4 -->
<g id="edge17" class="edge">
<title>Node10&#45;&gt;Node4</title>
<path fill="none" stroke="midnightblue" d="M298.32,-136.93C308.55,-134.98 319,-133.2 329,-132 443.4,-118.31 578.74,-121.1 651.96,-121.23"/>
<polygon fill="midnightblue" stroke="midnightblue" points="297.32,-133.56 288.19,-138.93 298.68,-140.43 297.32,-133.56"/>
</g>
<!-- Node10&#45;&gt;Node7 -->
<g id="edge13" class="edge">
<title>Node10&#45;&gt;Node7</title>
<path fill="none" stroke="midnightblue" d="M237.07,-164.67C252.6,-191.28 287.63,-238.46 329,-264 330.42,-264.88 331.88,-265.71 333.38,-266.51"/>
<polygon fill="midnightblue" stroke="midnightblue" points="239.97,-162.67 232.11,-155.57 233.83,-166.03 239.97,-162.67"/>
</g>
<!-- Node11 -->
<g id="node11" class="node">
<title>Node11</title>
<g id="a_node11"><a xlink:href="classMenu.html#a788512183de460d13b8a2dfb571c03f2" target="_top" xlink:title=" ">
<polygon fill="none" stroke="black" points="2.5,-136.5 2.5,-155.5 123.5,-155.5 123.5,-136.5 2.5,-136.5"/>
<text text-anchor="middle" x="63" y="-143.5" font-family="Helvetica,sans-Serif" font-size="10.00">Menu::showStatusMenu</text>
</a>
</g>
</g>
<!-- Node10&#45;&gt;Node11 -->
<g id="edge14" class="edge">
<title>Node10&#45;&gt;Node11</title>
<path fill="none" stroke="midnightblue" d="M156.85,-139.31C145.77,-139.19 134.4,-139.25 123.58,-139.47"/>
<polygon fill="midnightblue" stroke="midnightblue" points="156.86,-142.81 166.91,-139.47 156.97,-135.81 156.86,-142.81"/>
</g>
<!-- Node11&#45;&gt;Node10 -->
<g id="edge15" class="edge">
<title>Node11&#45;&gt;Node10</title>
<path fill="none" stroke="midnightblue" d="M133.65,-152.69C144.72,-152.81 156.09,-152.75 166.91,-152.53"/>
<polygon fill="midnightblue" stroke="midnightblue" points="133.63,-149.19 123.58,-152.53 133.52,-156.19 133.63,-149.19"/>
</g>
<!-- Node11&#45;&gt;Node11 -->
<g id="edge16" class="edge">
<title>Node11&#45;&gt;Node11</title>
<path fill="none" stroke="midnightblue" d="M93.69,-164.27C92.81,-169.74 82.58,-174 63,-174 33.85,-174 25.43,-164.57 37.72,-155.76"/>
<polygon fill="midnightblue" stroke="midnightblue" points="96.59,-162.32 88.28,-155.76 90.69,-166.07 96.59,-162.32"/>
</g>
<!-- Node12&#45;&gt;Node6 -->
<g id="edge20" class="edge">
<title>Node12&#45;&gt;Node6</title>
<path fill="none" stroke="midnightblue" d="M423.97,-155.16C445.28,-162.93 475.72,-172.31 502.06,-179.4"/>
<polygon fill="midnightblue" stroke="midnightblue" points="425.18,-151.87 414.58,-151.6 422.7,-158.42 425.18,-151.87"/>
</g>
<!-- Node12&#45;&gt;Node12 -->
<g id="edge21" class="edge">
<title>Node12&#45;&gt;Node12</title>
<path fill="none" stroke="midnightblue" d="M425.94,-160.27C425.09,-165.74 415.11,-170 396,-170 367.56,-170 359.34,-160.57 371.34,-151.76"/>
<polygon fill="midnightblue" stroke="midnightblue" points="428.9,-158.41 420.66,-151.76 422.95,-162.1 428.9,-158.41"/>
</g>
<!-- Node13&#45;&gt;Node6 -->
<g id="edge23" class="edge">
<title>Node13&#45;&gt;Node6</title>
<path fill="none" stroke="midnightblue" d="M461.01,-223.77C489.3,-215.86 520.35,-205.97 539.13,-198.52"/>
<polygon fill="midnightblue" stroke="midnightblue" points="459.86,-220.46 451.14,-226.48 461.71,-227.21 459.86,-220.46"/>
</g>
</g>
</svg>
