<?xml version="1.0" encoding="UTF-8" standalone="no"?>
<!DOCTYPE svg PUBLIC "-//W3C//DTD SVG 1.1//EN"
 "http://www.w3.org/Graphics/SVG/1.1/DTD/svg11.dtd">
<!-- Generated by graphviz version 2.49.3 (20211027.1534)
 -->
<!-- Title: Buyer::operator== Pages: 1 -->
<svg width="219pt" height="66pt"
 viewBox="0.00 0.00 219.00 66.00" xmlns="http://www.w3.org/2000/svg" xmlns:xlink="http://www.w3.org/1999/xlink">
<g id="graph0" class="graph" transform="scale(1 1) rotate(0) translate(4 62)">
<title>Buyer::operator==</title>
<!-- Node1 -->
<g id="node1" class="node">
<title>Node1</title>
<g id="a_node1"><a xlink:title="Comparission operator between two Buyers.">
<polygon fill="#bfbfbf" stroke="black" points="0,-19.5 0,-38.5 93,-38.5 93,-19.5 0,-19.5"/>
<text text-anchor="middle" x="46.5" y="-26.5" font-family="Helvetica,sans-Serif" font-size="10.00">Buyer::operator==</text>
</a>
</g>
</g>
<!-- Node2 -->
<g id="node2" class="node">
<title>Node2</title>
<g id="a_node2"><a xlink:href="classUser.html#a851bfaab8e406de66700edb326c58e38" target="_top" xlink:title="Get the Email of the user.">
<polygon fill="none" stroke="black" points="130,-38.5 130,-57.5 210,-57.5 210,-38.5 130,-38.5"/>
<text text-anchor="middle" x="170" y="-45.5" font-family="Helvetica,sans-Serif" font-size="10.00">User::getEmail</text>
</a>
</g>
</g>
<!-- Node1&#45;&gt;Node2 -->
<g id="edge1" class="edge">
<title>Node1&#45;&gt;Node2</title>
<path fill="none" stroke="midnightblue" d="M93.09,-36.13C101.8,-37.49 110.96,-38.92 119.78,-40.3"/>
<polygon fill="midnightblue" stroke="midnightblue" points="119.51,-43.8 129.93,-41.89 120.59,-36.89 119.51,-43.8"/>
</g>
<!-- Node3 -->
<g id="node3" class="node">
<title>Node3</title>
<g id="a_node3"><a xlink:href="classUser.html#adb316ac38d5f62a967686e7b736a0469" target="_top" xlink:title="Get the Name of the user.">
<polygon fill="none" stroke="black" points="129,-0.5 129,-19.5 211,-19.5 211,-0.5 129,-0.5"/>
<text text-anchor="middle" x="170" y="-7.5" font-family="Helvetica,sans-Serif" font-size="10.00">User::getName</text>
</a>
</g>
</g>
<!-- Node1&#45;&gt;Node3 -->
<g id="edge2" class="edge">
<title>Node1&#45;&gt;Node3</title>
<path fill="none" stroke="midnightblue" d="M93.09,-21.87C101.42,-20.57 110.15,-19.2 118.61,-17.88"/>
<polygon fill="midnightblue" stroke="midnightblue" points="119.41,-21.3 128.75,-16.29 118.33,-14.38 119.41,-21.3"/>
</g>
</g>
</svg>
