<?xml version="1.0" encoding="UTF-8" standalone="no"?>
<!DOCTYPE svg PUBLIC "-//W3C//DTD SVG 1.1//EN"
 "http://www.w3.org/Graphics/SVG/1.1/DTD/svg11.dtd">
<!-- Generated by graphviz version 2.49.3 (20211027.1534)
 -->
<!-- Title: ShoppingCart::checkout Pages: 1 -->
<svg width="639pt" height="180pt"
 viewBox="0.00 0.00 639.00 180.00" xmlns="http://www.w3.org/2000/svg" xmlns:xlink="http://www.w3.org/1999/xlink">
<g id="graph0" class="graph" transform="scale(1 1) rotate(0) translate(4 176)">
<title>ShoppingCart::checkout</title>
<!-- Node1 -->
<g id="node1" class="node">
<title>Node1</title>
<g id="a_node1"><a xlink:title="Performs the checkout.">
<polygon fill="#bfbfbf" stroke="black" points="0,-76.5 0,-95.5 119,-95.5 119,-76.5 0,-76.5"/>
<text text-anchor="middle" x="59.5" y="-83.5" font-family="Helvetica,sans-Serif" font-size="10.00">ShoppingCart::checkout</text>
</a>
</g>
</g>
<!-- Node2 -->
<g id="node2" class="node">
<title>Node2</title>
<g id="a_node2"><a xlink:href="classBuyer.html#a99e4efe4a01aae567b2f3bbd2a185c95" target="_top" xlink:title="Set the buyer&#39;s bonus based on the cost of the order.">
<polygon fill="none" stroke="black" points="165.5,-114.5 165.5,-133.5 265.5,-133.5 265.5,-114.5 165.5,-114.5"/>
<text text-anchor="middle" x="215.5" y="-121.5" font-family="Helvetica,sans-Serif" font-size="10.00">Buyer::awardBonus</text>
</a>
</g>
</g>
<!-- Node1&#45;&gt;Node2 -->
<g id="edge1" class="edge">
<title>Node1&#45;&gt;Node2</title>
<path fill="none" stroke="midnightblue" d="M99.36,-95.59C119.59,-100.58 144.52,-106.73 166,-112.03"/>
<polygon fill="midnightblue" stroke="midnightblue" points="165.37,-115.48 175.92,-114.48 167.05,-108.69 165.37,-115.48"/>
</g>
<!-- Node5 -->
<g id="node5" class="node">
<title>Node5</title>
<g id="a_node5"><a xlink:href="classShoppingCart.html#aefd629209efffec246165e50efaf40d3" target="_top" xlink:title="Calculates the cost of the order.">
<polygon fill="none" stroke="black" points="497,-38.5 497,-57.5 631,-57.5 631,-38.5 497,-38.5"/>
<text text-anchor="middle" x="564" y="-45.5" font-family="Helvetica,sans-Serif" font-size="10.00">ShoppingCart::calculateNet</text>
</a>
</g>
</g>
<!-- Node1&#45;&gt;Node5 -->
<g id="edge4" class="edge">
<title>Node1&#45;&gt;Node5</title>
<path fill="none" stroke="midnightblue" d="M119.31,-83.89C197.49,-80.75 339.86,-73.93 461,-62 470.08,-61.11 479.59,-60.01 489.01,-58.83"/>
<polygon fill="midnightblue" stroke="midnightblue" points="489.68,-62.28 499.16,-57.53 488.79,-55.33 489.68,-62.28"/>
</g>
<!-- Node6 -->
<g id="node6" class="node">
<title>Node6</title>
<g id="a_node6"><a xlink:href="classShoppingCart.html#ac63018317b6a7619a80ecbf1d71e2083" target="_top" xlink:title="Show the contents of the cart.">
<polygon fill="none" stroke="black" points="155,-38.5 155,-57.5 276,-57.5 276,-38.5 155,-38.5"/>
<text text-anchor="middle" x="215.5" y="-45.5" font-family="Helvetica,sans-Serif" font-size="10.00">ShoppingCart::showCart</text>
</a>
</g>
</g>
<!-- Node1&#45;&gt;Node6 -->
<g id="edge5" class="edge">
<title>Node1&#45;&gt;Node6</title>
<path fill="none" stroke="midnightblue" d="M99.36,-76.41C119.59,-71.42 144.52,-65.27 166,-59.97"/>
<polygon fill="midnightblue" stroke="midnightblue" points="167.05,-63.31 175.92,-57.52 165.37,-56.52 167.05,-63.31"/>
</g>
<!-- Node3 -->
<g id="node3" class="node">
<title>Node3</title>
<g id="a_node3"><a xlink:href="classBuyer.html#a12b8dad507986d3ecb0ffca73c5cab22" target="_top" xlink:title="Sets a buyer&#39;s bonus based on the cost.">
<polygon fill="none" stroke="black" points="343,-152.5 343,-171.5 430,-171.5 430,-152.5 343,-152.5"/>
<text text-anchor="middle" x="386.5" y="-159.5" font-family="Helvetica,sans-Serif" font-size="10.00">Buyer::setBonus</text>
</a>
</g>
</g>
<!-- Node2&#45;&gt;Node3 -->
<g id="edge2" class="edge">
<title>Node2&#45;&gt;Node3</title>
<path fill="none" stroke="midnightblue" d="M259.15,-133.59C281.65,-138.65 309.45,-144.9 333.24,-150.25"/>
<polygon fill="midnightblue" stroke="midnightblue" points="332.64,-153.7 343.16,-152.48 334.17,-146.87 332.64,-153.7"/>
</g>
<!-- Node4 -->
<g id="node4" class="node">
<title>Node4</title>
<g id="a_node4"><a xlink:href="classBuyer.html#a71abc791624d824d6a3da483ec342d5a" target="_top" xlink:title="Sets a buyer&#39;s category based on _bonus.">
<polygon fill="none" stroke="black" points="337.5,-114.5 337.5,-133.5 435.5,-133.5 435.5,-114.5 337.5,-114.5"/>
<text text-anchor="middle" x="386.5" y="-121.5" font-family="Helvetica,sans-Serif" font-size="10.00">Buyer::setCategory</text>
</a>
</g>
</g>
<!-- Node2&#45;&gt;Node4 -->
<g id="edge3" class="edge">
<title>Node2&#45;&gt;Node4</title>
<path fill="none" stroke="midnightblue" d="M265.84,-124C285,-124 307.1,-124 327.06,-124"/>
<polygon fill="midnightblue" stroke="midnightblue" points="327.27,-127.5 337.27,-124 327.27,-120.5 327.27,-127.5"/>
</g>
<!-- Node6&#45;&gt;Node5 -->
<g id="edge9" class="edge">
<title>Node6&#45;&gt;Node5</title>
<path fill="none" stroke="midnightblue" d="M276.07,-48C334.26,-48 423.09,-48 486.49,-48"/>
<polygon fill="midnightblue" stroke="midnightblue" points="486.83,-51.5 496.83,-48 486.83,-44.5 486.83,-51.5"/>
</g>
<!-- Node7 -->
<g id="node7" class="node">
<title>Node7</title>
<g id="a_node7"><a xlink:href="classShoppingCart.html#aed1f25cafeacfa931c9c2b0b0cd6c442" target="_top" xlink:title="Calculates the cost of the courier.">
<polygon fill="none" stroke="black" points="312,-0.5 312,-19.5 461,-19.5 461,-0.5 312,-0.5"/>
<text text-anchor="middle" x="386.5" y="-7.5" font-family="Helvetica,sans-Serif" font-size="10.00">ShoppingCart::calculateCourier</text>
</a>
</g>
</g>
<!-- Node6&#45;&gt;Node7 -->
<g id="edge6" class="edge">
<title>Node6&#45;&gt;Node7</title>
<path fill="none" stroke="midnightblue" d="M259.15,-38.41C281.65,-33.35 309.45,-27.1 333.24,-21.75"/>
<polygon fill="midnightblue" stroke="midnightblue" points="334.17,-25.13 343.16,-19.52 332.64,-18.3 334.17,-25.13"/>
</g>
<!-- Node7&#45;&gt;Node5 -->
<g id="edge7" class="edge">
<title>Node7&#45;&gt;Node5</title>
<path fill="none" stroke="midnightblue" d="M431.79,-19.59C455.26,-24.67 484.28,-30.96 509.06,-36.32"/>
<polygon fill="midnightblue" stroke="midnightblue" points="508.52,-39.78 519.03,-38.48 510,-32.94 508.52,-39.78"/>
</g>
<!-- Node8 -->
<g id="node8" class="node">
<title>Node8</title>
<g id="a_node8"><a xlink:href="classBuyer.html#a3a482baedbb2d8fc1fde5dee7a435102" target="_top" xlink:title="Get the Buyer&#39;s category.">
<polygon fill="none" stroke="black" points="515,-0.5 515,-19.5 613,-19.5 613,-0.5 515,-0.5"/>
<text text-anchor="middle" x="564" y="-7.5" font-family="Helvetica,sans-Serif" font-size="10.00">Buyer::getCategory</text>
</a>
</g>
</g>
<!-- Node7&#45;&gt;Node8 -->
<g id="edge8" class="edge">
<title>Node7&#45;&gt;Node8</title>
<path fill="none" stroke="midnightblue" d="M461.16,-10C475.59,-10 490.54,-10 504.39,-10"/>
<polygon fill="midnightblue" stroke="midnightblue" points="504.75,-13.5 514.75,-10 504.75,-6.5 504.75,-13.5"/>
</g>
</g>
</svg>
