<?xml version="1.0" encoding="UTF-8" standalone="no"?>
<!DOCTYPE svg PUBLIC "-//W3C//DTD SVG 1.1//EN"
 "http://www.w3.org/Graphics/SVG/1.1/DTD/svg11.dtd">
<!-- Generated by graphviz version 2.49.3 (20211027.1534)
 -->
<!-- Title: Menu::showCheckoutMenu Pages: 1 -->
<svg width="890pt" height="193pt"
 viewBox="0.00 0.00 890.00 193.00" xmlns="http://www.w3.org/2000/svg" xmlns:xlink="http://www.w3.org/1999/xlink">
<g id="graph0" class="graph" transform="scale(1 1) rotate(0) translate(4 189)">
<title>Menu::showCheckoutMenu</title>
<!-- Node1 -->
<g id="node1" class="node">
<title>Node1</title>
<g id="a_node1"><a xlink:title=" ">
<polygon fill="#bfbfbf" stroke="black" points="748,-65.5 748,-84.5 882,-84.5 882,-65.5 748,-65.5"/>
<text text-anchor="middle" x="815" y="-72.5" font-family="Helvetica,sans-Serif" font-size="10.00">Menu::showCheckoutMenu</text>
</a>
</g>
</g>
<!-- Node2 -->
<g id="node2" class="node">
<title>Node2</title>
<g id="a_node2"><a xlink:href="classMenu.html#a2ecf65abb196d80c5a5c354155019a93" target="_top" xlink:title=" ">
<polygon fill="none" stroke="black" points="595,-65.5 595,-84.5 712,-84.5 712,-65.5 595,-65.5"/>
<text text-anchor="middle" x="653.5" y="-72.5" font-family="Helvetica,sans-Serif" font-size="10.00">Menu::showBuyerMenu</text>
</a>
</g>
</g>
<!-- Node1&#45;&gt;Node2 -->
<g id="edge1" class="edge">
<title>Node1&#45;&gt;Node2</title>
<path fill="none" stroke="midnightblue" d="M737.7,-68.26C729.11,-68.23 720.47,-68.3 712.17,-68.49"/>
<polygon fill="midnightblue" stroke="midnightblue" points="737.72,-71.76 747.74,-68.34 737.77,-64.76 737.72,-71.76"/>
</g>
<!-- Node2&#45;&gt;Node1 -->
<g id="edge21" class="edge">
<title>Node2&#45;&gt;Node1</title>
<path fill="none" stroke="midnightblue" d="M722.32,-81.68C730.74,-81.78 739.35,-81.77 747.74,-81.66"/>
<polygon fill="midnightblue" stroke="midnightblue" points="722.22,-78.18 712.17,-81.51 722.11,-85.18 722.22,-78.18"/>
</g>
<!-- Node2&#45;&gt;Node2 -->
<g id="edge17" class="edge">
<title>Node2&#45;&gt;Node2</title>
<path fill="none" stroke="midnightblue" d="M682.62,-93.65C681.4,-98.94 671.7,-103 653.5,-103 625.77,-103 617.76,-93.57 629.46,-84.76"/>
<polygon fill="midnightblue" stroke="midnightblue" points="685.54,-91.71 677.54,-84.76 679.46,-95.18 685.54,-91.71"/>
</g>
<!-- Node3 -->
<g id="node3" class="node">
<title>Node3</title>
<g id="a_node3"><a xlink:href="classMenu.html#a1de78dc75d7de7db8bce09a70dbbf77f" target="_top" xlink:title=" ">
<polygon fill="none" stroke="black" points="434,-150.5 434,-169.5 559,-169.5 559,-150.5 434,-150.5"/>
<text text-anchor="middle" x="496.5" y="-157.5" font-family="Helvetica,sans-Serif" font-size="10.00">Menu::showBrowseMenu</text>
</a>
</g>
</g>
<!-- Node2&#45;&gt;Node3 -->
<g id="edge2" class="edge">
<title>Node2&#45;&gt;Node3</title>
<path fill="none" stroke="midnightblue" d="M620.75,-90.1C603.1,-101.27 580.43,-115.98 559,-127 541.67,-135.91 520.24,-143.57 507.79,-150.35"/>
<polygon fill="midnightblue" stroke="midnightblue" points="622.88,-92.89 629.48,-84.61 619.15,-86.96 622.88,-92.89"/>
</g>
<!-- Node6 -->
<g id="node6" class="node">
<title>Node6</title>
<g id="a_node6"><a xlink:href="classMenu.html#a6a602f7f37917ae9582719a89246b73b" target="_top" xlink:title=" ">
<polygon fill="none" stroke="black" points="272,-112.5 272,-131.5 393,-131.5 393,-112.5 272,-112.5"/>
<text text-anchor="middle" x="332.5" y="-119.5" font-family="Helvetica,sans-Serif" font-size="10.00">Menu::showOwnerMenu</text>
</a>
</g>
</g>
<!-- Node2&#45;&gt;Node6 -->
<g id="edge22" class="edge">
<title>Node2&#45;&gt;Node6</title>
<path fill="none" stroke="midnightblue" d="M608.65,-87.08C593.07,-91.03 575.34,-95.13 559,-98 503.16,-107.79 438.79,-114.16 393.15,-117.86"/>
<polygon fill="midnightblue" stroke="midnightblue" points="609.73,-90.42 618.54,-84.53 607.98,-83.64 609.73,-90.42"/>
</g>
<!-- Node8 -->
<g id="node8" class="node">
<title>Node8</title>
<g id="a_node8"><a xlink:href="classMenu.html#aaef7622e532f3424a27fce4d16dbda47" target="_top" xlink:title=" ">
<polygon fill="none" stroke="black" points="113.5,-69.5 113.5,-88.5 222.5,-88.5 222.5,-69.5 113.5,-69.5"/>
<text text-anchor="middle" x="168" y="-76.5" font-family="Helvetica,sans-Serif" font-size="10.00">Menu::showWelcome</text>
</a>
</g>
</g>
<!-- Node2&#45;&gt;Node8 -->
<g id="edge23" class="edge">
<title>Node2&#45;&gt;Node8</title>
<path fill="none" stroke="midnightblue" d="M584.37,-70.69C487.34,-68.85 311.31,-70.45 222.83,-74.11"/>
<polygon fill="midnightblue" stroke="midnightblue" points="584.59,-74.2 594.66,-70.91 584.73,-67.2 584.59,-74.2"/>
</g>
<!-- Node10 -->
<g id="node10" class="node">
<title>Node10</title>
<g id="a_node10"><a xlink:href="classMenu.html#a781c392fdcd203e436f5dc6e78f057a8" target="_top" xlink:title=" ">
<polygon fill="none" stroke="black" points="441.5,-0.5 441.5,-19.5 551.5,-19.5 551.5,-0.5 441.5,-0.5"/>
<text text-anchor="middle" x="496.5" y="-7.5" font-family="Helvetica,sans-Serif" font-size="10.00">Menu::showCartMenu</text>
</a>
</g>
</g>
<!-- Node2&#45;&gt;Node10 -->
<g id="edge18" class="edge">
<title>Node2&#45;&gt;Node10</title>
<path fill="none" stroke="midnightblue" d="M630.2,-60.74C605.09,-48.12 563.91,-30.54 534.08,-19.51"/>
<polygon fill="midnightblue" stroke="midnightblue" points="628.8,-63.96 639.28,-65.48 632.04,-57.75 628.8,-63.96"/>
</g>
<!-- Node3&#45;&gt;Node2 -->
<g id="edge3" class="edge">
<title>Node3&#45;&gt;Node2</title>
<path fill="none" stroke="midnightblue" d="M556.92,-146.06C557.62,-145.71 558.31,-145.35 559,-145 593.47,-127.27 631.15,-100.01 645.98,-84.64"/>
<polygon fill="midnightblue" stroke="midnightblue" points="555.13,-143.03 547.56,-150.45 558.1,-149.36 555.13,-143.03"/>
</g>
<!-- Node4 -->
<g id="node4" class="node">
<title>Node4</title>
<g id="a_node4"><a xlink:href="classMenu.html#a8bdf4110581d8d8a82f6290f246201e7" target="_top" xlink:title=" ">
<polygon fill="none" stroke="black" points="267,-157.5 267,-176.5 398,-176.5 398,-157.5 267,-157.5"/>
<text text-anchor="middle" x="332.5" y="-164.5" font-family="Helvetica,sans-Serif" font-size="10.00">Menu::showCategoryMenu</text>
</a>
</g>
</g>
<!-- Node3&#45;&gt;Node4 -->
<g id="edge4" class="edge">
<title>Node3&#45;&gt;Node4</title>
<path fill="none" stroke="midnightblue" d="M423.6,-156.39C415.16,-156.69 406.6,-157.09 398.27,-157.57"/>
<polygon fill="midnightblue" stroke="midnightblue" points="423.9,-159.89 433.79,-156.09 423.69,-152.89 423.9,-159.89"/>
</g>
<!-- Node3&#45;&gt;Node6 -->
<g id="edge8" class="edge">
<title>Node3&#45;&gt;Node6</title>
<path fill="none" stroke="midnightblue" d="M465.07,-147.45C444.89,-141.47 417.72,-134.72 393.32,-129.49"/>
<polygon fill="midnightblue" stroke="midnightblue" points="464.07,-150.81 474.65,-150.41 466.13,-144.12 464.07,-150.81"/>
</g>
<!-- Node4&#45;&gt;Node3 -->
<g id="edge5" class="edge">
<title>Node4&#45;&gt;Node3</title>
<path fill="none" stroke="midnightblue" d="M408.52,-170.49C416.98,-170.17 425.53,-169.75 433.79,-169.24"/>
<polygon fill="midnightblue" stroke="midnightblue" points="408.15,-167 398.27,-170.83 408.38,-174 408.15,-167"/>
</g>
<!-- Node5 -->
<g id="node5" class="node">
<title>Node5</title>
<g id="a_node5"><a xlink:href="classMenu.html#a957fada7140f67c43e3ee253ae863125" target="_top" xlink:title=" ">
<polygon fill="none" stroke="black" points="105,-165.5 105,-184.5 231,-184.5 231,-165.5 105,-165.5"/>
<text text-anchor="middle" x="168" y="-172.5" font-family="Helvetica,sans-Serif" font-size="10.00">Menu::showProductMenu</text>
</a>
</g>
</g>
<!-- Node4&#45;&gt;Node5 -->
<g id="edge6" class="edge">
<title>Node4&#45;&gt;Node5</title>
<path fill="none" stroke="midnightblue" d="M256.55,-163.96C247.4,-164.36 238.14,-164.87 229.25,-165.49"/>
<polygon fill="midnightblue" stroke="midnightblue" points="256.95,-167.45 266.81,-163.56 256.68,-160.45 256.95,-167.45"/>
</g>
<!-- Node5&#45;&gt;Node4 -->
<g id="edge7" class="edge">
<title>Node5&#45;&gt;Node4</title>
<path fill="none" stroke="midnightblue" d="M241.4,-178.15C251.29,-177.74 261.35,-177.19 270.99,-176.53"/>
<polygon fill="midnightblue" stroke="midnightblue" points="241.05,-174.66 231.19,-178.52 241.31,-181.66 241.05,-174.66"/>
</g>
<!-- Node6&#45;&gt;Node3 -->
<g id="edge9" class="edge">
<title>Node6&#45;&gt;Node3</title>
<path fill="none" stroke="midnightblue" d="M363.93,-134.55C383.59,-140.37 409.88,-146.93 433.79,-152.1"/>
<polygon fill="midnightblue" stroke="midnightblue" points="364.89,-131.18 354.3,-131.58 362.82,-137.87 364.89,-131.18"/>
</g>
<!-- Node7 -->
<g id="node7" class="node">
<title>Node7</title>
<g id="a_node7"><a xlink:href="classMenu.html#a788512183de460d13b8a2dfb571c03f2" target="_top" xlink:title=" ">
<polygon fill="none" stroke="black" points="107.5,-109.5 107.5,-128.5 228.5,-128.5 228.5,-109.5 107.5,-109.5"/>
<text text-anchor="middle" x="168" y="-116.5" font-family="Helvetica,sans-Serif" font-size="10.00">Menu::showStatusMenu</text>
</a>
</g>
</g>
<!-- Node6&#45;&gt;Node7 -->
<g id="edge10" class="edge">
<title>Node6&#45;&gt;Node7</title>
<path fill="none" stroke="midnightblue" d="M261.85,-114.03C250.77,-113.7 239.4,-113.55 228.58,-113.57"/>
<polygon fill="midnightblue" stroke="midnightblue" points="261.8,-117.53 271.91,-114.37 262.04,-110.53 261.8,-117.53"/>
</g>
<!-- Node6&#45;&gt;Node8 -->
<g id="edge13" class="edge">
<title>Node6&#45;&gt;Node8</title>
<path fill="none" stroke="midnightblue" d="M303.05,-109.2C280.87,-101.86 249.42,-93.16 222.56,-86.78"/>
<polygon fill="midnightblue" stroke="midnightblue" points="301.95,-112.52 312.54,-112.46 304.22,-105.9 301.95,-112.52"/>
</g>
<!-- Node7&#45;&gt;Node6 -->
<g id="edge11" class="edge">
<title>Node7&#45;&gt;Node6</title>
<path fill="none" stroke="midnightblue" d="M238.65,-126.97C249.72,-127.3 261.09,-127.45 271.91,-127.43"/>
<polygon fill="midnightblue" stroke="midnightblue" points="238.69,-123.47 228.58,-126.63 238.45,-130.47 238.69,-123.47"/>
</g>
<!-- Node7&#45;&gt;Node7 -->
<g id="edge12" class="edge">
<title>Node7&#45;&gt;Node7</title>
<path fill="none" stroke="midnightblue" d="M192.55,-138.03C191.21,-143.13 183.03,-147 168,-147 144.54,-147 137.76,-137.57 147.65,-128.76"/>
<polygon fill="midnightblue" stroke="midnightblue" points="195.67,-136.42 188.35,-128.76 189.29,-139.31 195.67,-136.42"/>
</g>
<!-- Node8&#45;&gt;Node2 -->
<g id="edge15" class="edge">
<title>Node8&#45;&gt;Node2</title>
<path fill="none" stroke="midnightblue" d="M232.84,-83.22C327.48,-85.16 503.6,-83.65 594.66,-80.05"/>
<polygon fill="midnightblue" stroke="midnightblue" points="232.91,-79.72 222.83,-83 232.75,-86.72 232.91,-79.72"/>
</g>
<!-- Node8&#45;&gt;Node6 -->
<g id="edge16" class="edge">
<title>Node8&#45;&gt;Node6</title>
<path fill="none" stroke="midnightblue" d="M197.87,-91.94C218.38,-98.71 246.65,-106.6 271.91,-112.76"/>
<polygon fill="midnightblue" stroke="midnightblue" points="198.78,-88.56 188.19,-88.62 196.51,-95.18 198.78,-88.56"/>
</g>
<!-- Node9 -->
<g id="node9" class="node">
<title>Node9</title>
<g id="a_node9"><a xlink:href="classMenu.html#a323509e5b6f4dc00536e87efd65b8b94" target="_top" xlink:title=" ">
<polygon fill="none" stroke="black" points="0,-69.5 0,-88.5 69,-88.5 69,-69.5 0,-69.5"/>
<text text-anchor="middle" x="34.5" y="-76.5" font-family="Helvetica,sans-Serif" font-size="10.00">Menu::Menu</text>
</a>
</g>
</g>
<!-- Node8&#45;&gt;Node9 -->
<g id="edge14" class="edge">
<title>Node8&#45;&gt;Node9</title>
<path fill="none" stroke="midnightblue" d="M102.92,-79C91.23,-79 79.47,-79 69.12,-79"/>
<polygon fill="midnightblue" stroke="midnightblue" points="103.13,-82.5 113.13,-79 103.13,-75.5 103.13,-82.5"/>
</g>
<!-- Node10&#45;&gt;Node2 -->
<g id="edge19" class="edge">
<title>Node10&#45;&gt;Node2</title>
<path fill="none" stroke="midnightblue" d="M520.07,-24.39C545.16,-36.99 586.05,-54.44 615.77,-65.44"/>
<polygon fill="midnightblue" stroke="midnightblue" points="521.46,-21.17 510.98,-19.66 518.23,-27.38 521.46,-21.17"/>
</g>
<!-- Node10&#45;&gt;Node10 -->
<g id="edge20" class="edge">
<title>Node10&#45;&gt;Node10</title>
<path fill="none" stroke="midnightblue" d="M525.62,-28.65C524.4,-33.94 514.7,-38 496.5,-38 468.77,-38 460.76,-28.57 472.46,-19.76"/>
<polygon fill="midnightblue" stroke="midnightblue" points="528.54,-26.71 520.54,-19.76 522.46,-30.18 528.54,-26.71"/>
</g>
</g>
</svg>
