<?xml version="1.0" encoding="UTF-8" standalone="no"?>
<!DOCTYPE svg PUBLIC "-//W3C//DTD SVG 1.1//EN"
 "http://www.w3.org/Graphics/SVG/1.1/DTD/svg11.dtd">
<!-- Generated by graphviz version 2.49.3 (20211027.1534)
 -->
<!-- Title: EShop::getBuyerByEmail Pages: 1 -->
<svg width="1181pt" height="292pt"
 viewBox="0.00 0.00 1181.00 292.00" xmlns="http://www.w3.org/2000/svg" xmlns:xlink="http://www.w3.org/1999/xlink">
<g id="graph0" class="graph" transform="scale(1 1) rotate(0) translate(4 288)">
<title>EShop::getBuyerByEmail</title>
<!-- Node1 -->
<g id="node1" class="node">
<title>Node1</title>
<g id="a_node1"><a xlink:title="Return a Buyer reference if the Buyer&#39;s email is found in the e&#45;shop.">
<polygon fill="#bfbfbf" stroke="black" points="1050,-38.5 1050,-57.5 1173,-57.5 1173,-38.5 1050,-38.5"/>
<text text-anchor="middle" x="1111.5" y="-45.5" font-family="Helvetica,sans-Serif" font-size="10.00">EShop::getBuyerByEmail</text>
</a>
</g>
</g>
<!-- Node2 -->
<g id="node2" class="node">
<title>Node2</title>
<g id="a_node2"><a xlink:href="classMenu.html#a1cba910e7f8a136371a3eb3d18cc73b3" target="_top" xlink:title="User authentication.">
<polygon fill="none" stroke="black" points="949,-78.5 949,-97.5 1014,-97.5 1014,-78.5 949,-78.5"/>
<text text-anchor="middle" x="981.5" y="-85.5" font-family="Helvetica,sans-Serif" font-size="10.00">Menu::login</text>
</a>
</g>
</g>
<!-- Node1&#45;&gt;Node2 -->
<g id="edge1" class="edge">
<title>Node1&#45;&gt;Node2</title>
<path fill="none" stroke="midnightblue" d="M1070.19,-60.6C1051.66,-66.39 1030.04,-73.14 1012.91,-78.5"/>
<polygon fill="midnightblue" stroke="midnightblue" points="1071.34,-63.9 1079.84,-57.58 1069.25,-57.22 1071.34,-63.9"/>
</g>
<!-- Node11 -->
<g id="node11" class="node">
<title>Node11</title>
<g id="a_node11"><a xlink:href="classMenu.html#a788512183de460d13b8a2dfb571c03f2" target="_top" xlink:title=" ">
<polygon fill="none" stroke="black" points="2.5,-146.5 2.5,-165.5 123.5,-165.5 123.5,-146.5 2.5,-146.5"/>
<text text-anchor="middle" x="63" y="-153.5" font-family="Helvetica,sans-Serif" font-size="10.00">Menu::showStatusMenu</text>
</a>
</g>
</g>
<!-- Node1&#45;&gt;Node11 -->
<g id="edge28" class="edge">
<title>Node1&#45;&gt;Node11</title>
<path fill="none" stroke="midnightblue" d="M1039.56,-48C988.51,-48 918,-48 856,-48 856,-48 856,-48 395,-48 268.67,-48 127.99,-119.98 80.6,-146.42"/>
<polygon fill="midnightblue" stroke="midnightblue" points="1039.82,-51.5 1049.82,-48 1039.82,-44.5 1039.82,-51.5"/>
</g>
<!-- Node14 -->
<g id="node14" class="node">
<title>Node14</title>
<g id="a_node14"><a xlink:href="main_8cpp.html#a3c04138a5bfe5d72780bb7e82a18e627" target="_top" xlink:title=" ">
<polygon fill="none" stroke="black" points="962.5,-0.5 962.5,-19.5 1000.5,-19.5 1000.5,-0.5 962.5,-0.5"/>
<text text-anchor="middle" x="981.5" y="-7.5" font-family="Helvetica,sans-Serif" font-size="10.00">main</text>
</a>
</g>
</g>
<!-- Node1&#45;&gt;Node14 -->
<g id="edge27" class="edge">
<title>Node1&#45;&gt;Node14</title>
<path fill="none" stroke="midnightblue" d="M1068.32,-35.48C1045.33,-28.65 1018.08,-20.56 1000.55,-15.36"/>
<polygon fill="midnightblue" stroke="midnightblue" points="1067.62,-38.92 1078.2,-38.41 1069.61,-32.21 1067.62,-38.92"/>
</g>
<!-- Node3 -->
<g id="node3" class="node">
<title>Node3</title>
<g id="a_node3"><a xlink:href="classMenu.html#a69db6693739aa87710c029b54a90385d" target="_top" xlink:title=" ">
<polygon fill="none" stroke="black" points="797,-80.5 797,-99.5 913,-99.5 913,-80.5 797,-80.5"/>
<text text-anchor="middle" x="855" y="-87.5" font-family="Helvetica,sans-Serif" font-size="10.00">Menu::showLoginMenu</text>
</a>
</g>
</g>
<!-- Node2&#45;&gt;Node3 -->
<g id="edge2" class="edge">
<title>Node2&#45;&gt;Node3</title>
<path fill="none" stroke="midnightblue" d="M938.76,-88.67C930.59,-88.8 921.9,-88.94 913.33,-89.08"/>
<polygon fill="midnightblue" stroke="midnightblue" points="938.82,-92.17 948.76,-88.51 938.71,-85.17 938.82,-92.17"/>
</g>
<!-- Node4 -->
<g id="node4" class="node">
<title>Node4</title>
<g id="a_node4"><a xlink:href="classMenu.html#aaef7622e532f3424a27fce4d16dbda47" target="_top" xlink:title=" ">
<polygon fill="none" stroke="black" points="652,-108.5 652,-127.5 761,-127.5 761,-108.5 652,-108.5"/>
<text text-anchor="middle" x="706.5" y="-115.5" font-family="Helvetica,sans-Serif" font-size="10.00">Menu::showWelcome</text>
</a>
</g>
</g>
<!-- Node3&#45;&gt;Node4 -->
<g id="edge3" class="edge">
<title>Node3&#45;&gt;Node4</title>
<path fill="none" stroke="midnightblue" d="M793.91,-101.48C781.74,-103.81 769.06,-106.23 757.28,-108.49"/>
<polygon fill="midnightblue" stroke="midnightblue" points="794.83,-104.87 803.99,-99.56 793.51,-98 794.83,-104.87"/>
</g>
<!-- Node5 -->
<g id="node5" class="node">
<title>Node5</title>
<g id="a_node5"><a xlink:href="classMenu.html#a323509e5b6f4dc00536e87efd65b8b94" target="_top" xlink:title=" ">
<polygon fill="none" stroke="black" points="523,-207.5 523,-226.5 592,-226.5 592,-207.5 523,-207.5"/>
<text text-anchor="middle" x="557.5" y="-214.5" font-family="Helvetica,sans-Serif" font-size="10.00">Menu::Menu</text>
</a>
</g>
</g>
<!-- Node4&#45;&gt;Node5 -->
<g id="edge4" class="edge">
<title>Node4&#45;&gt;Node5</title>
<path fill="none" stroke="midnightblue" d="M690.56,-134.97C673.96,-152.91 645.57,-180.9 616,-198 608.63,-202.26 600.16,-205.73 592.04,-208.48"/>
<polygon fill="midnightblue" stroke="midnightblue" points="693.2,-137.28 697.32,-127.52 688.01,-132.58 693.2,-137.28"/>
</g>
<!-- Node6 -->
<g id="node6" class="node">
<title>Node6</title>
<g id="a_node6"><a xlink:href="classMenu.html#a2ecf65abb196d80c5a5c354155019a93" target="_top" xlink:title=" ">
<polygon fill="none" stroke="black" points="499,-151.5 499,-170.5 616,-170.5 616,-151.5 499,-151.5"/>
<text text-anchor="middle" x="557.5" y="-158.5" font-family="Helvetica,sans-Serif" font-size="10.00">Menu::showBuyerMenu</text>
</a>
</g>
</g>
<!-- Node4&#45;&gt;Node6 -->
<g id="edge5" class="edge">
<title>Node4&#45;&gt;Node6</title>
<path fill="none" stroke="midnightblue" d="M641.76,-129.95C617.69,-136.73 592.2,-144.9 575.86,-151.38"/>
<polygon fill="midnightblue" stroke="midnightblue" points="642.89,-133.27 651.6,-127.24 641.03,-126.52 642.89,-133.27"/>
</g>
<!-- Node10 -->
<g id="node10" class="node">
<title>Node10</title>
<g id="a_node10"><a xlink:href="classMenu.html#a6a602f7f37917ae9582719a89246b73b" target="_top" xlink:title=" ">
<polygon fill="none" stroke="black" points="167,-146.5 167,-165.5 288,-165.5 288,-146.5 167,-146.5"/>
<text text-anchor="middle" x="227.5" y="-153.5" font-family="Helvetica,sans-Serif" font-size="10.00">Menu::showOwnerMenu</text>
</a>
</g>
</g>
<!-- Node4&#45;&gt;Node10 -->
<g id="edge26" class="edge">
<title>Node4&#45;&gt;Node10</title>
<path fill="none" stroke="midnightblue" d="M649.89,-107.38C576.01,-99.74 441.7,-95.2 329,-114 294.58,-119.74 255.89,-135.14 238.23,-146.37"/>
<polygon fill="midnightblue" stroke="midnightblue" points="649.58,-110.87 659.9,-108.47 650.34,-103.91 649.58,-110.87"/>
</g>
<!-- Node6&#45;&gt;Node4 -->
<g id="edge25" class="edge">
<title>Node6&#45;&gt;Node4</title>
<path fill="none" stroke="midnightblue" d="M623.23,-148.77C647.11,-142.02 672.24,-133.94 688.35,-127.54"/>
<polygon fill="midnightblue" stroke="midnightblue" points="622.16,-145.44 613.45,-151.48 624.03,-152.18 622.16,-145.44"/>
</g>
<!-- Node6&#45;&gt;Node6 -->
<g id="edge18" class="edge">
<title>Node6&#45;&gt;Node6</title>
<path fill="none" stroke="midnightblue" d="M585.13,-179.65C583.97,-184.94 574.76,-189 557.5,-189 531.2,-189 523.59,-179.57 534.69,-170.76"/>
<polygon fill="midnightblue" stroke="midnightblue" points="588.15,-177.89 580.31,-170.76 581.99,-181.22 588.15,-177.89"/>
</g>
<!-- Node7 -->
<g id="node7" class="node">
<title>Node7</title>
<g id="a_node7"><a xlink:href="classMenu.html#a1de78dc75d7de7db8bce09a70dbbf77f" target="_top" xlink:title=" ">
<polygon fill="none" stroke="black" points="333.5,-264.5 333.5,-283.5 458.5,-283.5 458.5,-264.5 333.5,-264.5"/>
<text text-anchor="middle" x="396" y="-271.5" font-family="Helvetica,sans-Serif" font-size="10.00">Menu::showBrowseMenu</text>
</a>
</g>
</g>
<!-- Node6&#45;&gt;Node7 -->
<g id="edge6" class="edge">
<title>Node6&#45;&gt;Node7</title>
<path fill="none" stroke="midnightblue" d="M514.54,-176.28C509.05,-180.15 503.7,-184.45 499,-189 478.79,-208.54 485.26,-223.83 463,-241 447.75,-252.77 426.18,-259.15 411.9,-264.43"/>
<polygon fill="midnightblue" stroke="midnightblue" points="516.77,-179 523.22,-170.6 512.94,-173.15 516.77,-179"/>
</g>
<!-- Node6&#45;&gt;Node10 -->
<g id="edge24" class="edge">
<title>Node6&#45;&gt;Node10</title>
<path fill="none" stroke="midnightblue" d="M532.61,-176.22C507.48,-192.08 470.55,-214.91 463,-217 405.6,-232.87 386.35,-233.04 329,-217 293.03,-206.94 257.13,-180.09 239.58,-165.6"/>
<polygon fill="midnightblue" stroke="midnightblue" points="534.68,-179.05 541.25,-170.75 530.93,-173.14 534.68,-179.05"/>
</g>
<!-- Node12 -->
<g id="node12" class="node">
<title>Node12</title>
<g id="a_node12"><a xlink:href="classMenu.html#a781c392fdcd203e436f5dc6e78f057a8" target="_top" xlink:title=" ">
<polygon fill="none" stroke="black" points="341,-170.5 341,-189.5 451,-189.5 451,-170.5 341,-170.5"/>
<text text-anchor="middle" x="396" y="-177.5" font-family="Helvetica,sans-Serif" font-size="10.00">Menu::showCartMenu</text>
</a>
</g>
</g>
<!-- Node6&#45;&gt;Node12 -->
<g id="edge19" class="edge">
<title>Node6&#45;&gt;Node12</title>
<path fill="none" stroke="midnightblue" d="M488.71,-162.39C468.35,-164.59 446.92,-167.5 429.9,-170.5"/>
<polygon fill="midnightblue" stroke="midnightblue" points="489.33,-165.85 498.92,-161.35 488.61,-158.88 489.33,-165.85"/>
</g>
<!-- Node13 -->
<g id="node13" class="node">
<title>Node13</title>
<g id="a_node13"><a xlink:href="classMenu.html#a3905222cc1c1ec7ed2dce13e16555c52" target="_top" xlink:title=" ">
<polygon fill="none" stroke="black" points="329,-132.5 329,-151.5 463,-151.5 463,-132.5 329,-132.5"/>
<text text-anchor="middle" x="396" y="-139.5" font-family="Helvetica,sans-Serif" font-size="10.00">Menu::showCheckoutMenu</text>
</a>
</g>
</g>
<!-- Node6&#45;&gt;Node13 -->
<g id="edge22" class="edge">
<title>Node6&#45;&gt;Node13</title>
<path fill="none" stroke="midnightblue" d="M513.2,-149.76C497.81,-147.32 480.11,-145.02 463.24,-143.23"/>
<polygon fill="midnightblue" stroke="midnightblue" points="513.01,-153.28 523.45,-151.47 514.16,-146.37 513.01,-153.28"/>
</g>
<!-- Node7&#45;&gt;Node6 -->
<g id="edge7" class="edge">
<title>Node7&#45;&gt;Node6</title>
<path fill="none" stroke="midnightblue" d="M462.89,-257.96C484.25,-238.8 480.76,-224.63 499,-207 514.36,-192.15 536.55,-179.89 548.37,-170.79"/>
<polygon fill="midnightblue" stroke="midnightblue" points="460.56,-255.34 455.02,-264.37 464.98,-260.77 460.56,-255.34"/>
</g>
<!-- Node8 -->
<g id="node8" class="node">
<title>Node8</title>
<g id="a_node8"><a xlink:href="classMenu.html#a8bdf4110581d8d8a82f6290f246201e7" target="_top" xlink:title=" ">
<polygon fill="none" stroke="black" points="162,-264.5 162,-283.5 293,-283.5 293,-264.5 162,-264.5"/>
<text text-anchor="middle" x="227.5" y="-271.5" font-family="Helvetica,sans-Serif" font-size="10.00">Menu::showCategoryMenu</text>
</a>
</g>
</g>
<!-- Node7&#45;&gt;Node8 -->
<g id="edge8" class="edge">
<title>Node7&#45;&gt;Node8</title>
<path fill="none" stroke="midnightblue" d="M323.17,-267.31C313.18,-267.21 302.97,-267.24 293.12,-267.4"/>
<polygon fill="midnightblue" stroke="midnightblue" points="323.42,-270.81 333.47,-267.46 323.53,-263.81 323.42,-270.81"/>
</g>
<!-- Node7&#45;&gt;Node10 -->
<g id="edge12" class="edge">
<title>Node7&#45;&gt;Node10</title>
<path fill="none" stroke="midnightblue" d="M373.04,-260.66C359.7,-255.49 342.66,-249.38 329,-241 293.37,-219.13 259.49,-183.24 241.61,-165.58"/>
<polygon fill="midnightblue" stroke="midnightblue" points="371.83,-263.94 382.41,-264.46 374.46,-257.46 371.83,-263.94"/>
</g>
<!-- Node8&#45;&gt;Node7 -->
<g id="edge9" class="edge">
<title>Node8&#45;&gt;Node7</title>
<path fill="none" stroke="midnightblue" d="M303.17,-280.72C313.31,-280.79 323.61,-280.73 333.47,-280.54"/>
<polygon fill="midnightblue" stroke="midnightblue" points="303.16,-277.22 293.12,-280.6 303.08,-284.22 303.16,-277.22"/>
</g>
<!-- Node9 -->
<g id="node9" class="node">
<title>Node9</title>
<g id="a_node9"><a xlink:href="classMenu.html#a957fada7140f67c43e3ee253ae863125" target="_top" xlink:title=" ">
<polygon fill="none" stroke="black" points="0,-264.5 0,-283.5 126,-283.5 126,-264.5 0,-264.5"/>
<text text-anchor="middle" x="63" y="-271.5" font-family="Helvetica,sans-Serif" font-size="10.00">Menu::showProductMenu</text>
</a>
</g>
</g>
<!-- Node8&#45;&gt;Node9 -->
<g id="edge10" class="edge">
<title>Node8&#45;&gt;Node9</title>
<path fill="none" stroke="midnightblue" d="M151.78,-267.27C143.19,-267.22 134.49,-267.27 126.09,-267.42"/>
<polygon fill="midnightblue" stroke="midnightblue" points="151.77,-270.77 161.81,-267.38 151.85,-263.77 151.77,-270.77"/>
</g>
<!-- Node9&#45;&gt;Node8 -->
<g id="edge11" class="edge">
<title>Node9&#45;&gt;Node8</title>
<path fill="none" stroke="midnightblue" d="M136.34,-280.71C144.83,-280.78 153.44,-280.75 161.81,-280.62"/>
<polygon fill="midnightblue" stroke="midnightblue" points="136.13,-277.21 126.09,-280.58 136.04,-284.21 136.13,-277.21"/>
</g>
<!-- Node10&#45;&gt;Node4 -->
<g id="edge17" class="edge">
<title>Node10&#45;&gt;Node4</title>
<path fill="none" stroke="midnightblue" d="M283.2,-143.4C297.85,-138.93 313.84,-134.53 329,-132 442.65,-113.04 578.27,-117.82 651.74,-119.7"/>
<polygon fill="midnightblue" stroke="midnightblue" points="281.8,-140.17 273.29,-146.48 283.88,-146.85 281.8,-140.17"/>
</g>
<!-- Node10&#45;&gt;Node7 -->
<g id="edge13" class="edge">
<title>Node10&#45;&gt;Node7</title>
<path fill="none" stroke="midnightblue" d="M238.6,-173.8C255.47,-196.92 291.25,-235.84 329,-259 332.12,-260.91 335.41,-262.71 338.8,-264.37"/>
<polygon fill="midnightblue" stroke="midnightblue" points="241.46,-171.78 232.93,-165.5 235.68,-175.73 241.46,-171.78"/>
</g>
<!-- Node10&#45;&gt;Node11 -->
<g id="edge14" class="edge">
<title>Node10&#45;&gt;Node11</title>
<path fill="none" stroke="midnightblue" d="M156.85,-149.31C145.77,-149.19 134.4,-149.25 123.58,-149.47"/>
<polygon fill="midnightblue" stroke="midnightblue" points="156.86,-152.81 166.91,-149.47 156.97,-145.81 156.86,-152.81"/>
</g>
<!-- Node11&#45;&gt;Node10 -->
<g id="edge15" class="edge">
<title>Node11&#45;&gt;Node10</title>
<path fill="none" stroke="midnightblue" d="M133.65,-162.69C144.72,-162.81 156.09,-162.75 166.91,-162.53"/>
<polygon fill="midnightblue" stroke="midnightblue" points="133.63,-159.19 123.58,-162.53 133.52,-166.19 133.63,-159.19"/>
</g>
<!-- Node11&#45;&gt;Node11 -->
<g id="edge16" class="edge">
<title>Node11&#45;&gt;Node11</title>
<path fill="none" stroke="midnightblue" d="M93.69,-174.27C92.81,-179.74 82.58,-184 63,-184 33.85,-184 25.43,-174.57 37.72,-165.76"/>
<polygon fill="midnightblue" stroke="midnightblue" points="96.59,-172.32 88.28,-165.76 90.69,-176.07 96.59,-172.32"/>
</g>
<!-- Node12&#45;&gt;Node6 -->
<g id="edge20" class="edge">
<title>Node12&#45;&gt;Node6</title>
<path fill="none" stroke="midnightblue" d="M461.06,-179C482.45,-176.78 505.41,-173.7 523.45,-170.53"/>
<polygon fill="midnightblue" stroke="midnightblue" points="460.65,-175.53 451.04,-179.99 461.33,-182.49 460.65,-175.53"/>
</g>
<!-- Node12&#45;&gt;Node12 -->
<g id="edge21" class="edge">
<title>Node12&#45;&gt;Node12</title>
<path fill="none" stroke="midnightblue" d="M425.94,-198.27C425.09,-203.74 415.11,-208 396,-208 367.56,-208 359.34,-198.57 371.34,-189.76"/>
<polygon fill="midnightblue" stroke="midnightblue" points="428.9,-196.41 420.66,-189.76 422.95,-200.1 428.9,-196.41"/>
</g>
<!-- Node13&#45;&gt;Node6 -->
<g id="edge23" class="edge">
<title>Node13&#45;&gt;Node6</title>
<path fill="none" stroke="midnightblue" d="M439.89,-153.17C458.03,-156.06 479.43,-158.76 498.92,-160.65"/>
<polygon fill="midnightblue" stroke="midnightblue" points="440.34,-149.7 429.9,-151.5 439.19,-156.6 440.34,-149.7"/>
</g>
</g>
</svg>
