<?xml version="1.0" encoding="UTF-8" standalone="no"?>
<!DOCTYPE svg PUBLIC "-//W3C//DTD SVG 1.1//EN"
 "http://www.w3.org/Graphics/SVG/1.1/DTD/svg11.dtd">
<!-- Generated by graphviz version 2.49.3 (20211027.1534)
 -->
<!-- Title: EShop::getOwner Pages: 1 -->
<svg width="1150pt" height="196pt"
 viewBox="0.00 0.00 1150.00 196.09" xmlns="http://www.w3.org/2000/svg" xmlns:xlink="http://www.w3.org/1999/xlink">
<g id="graph0" class="graph" transform="scale(1 1) rotate(0) translate(4 192.09)">
<title>EShop::getOwner</title>
<!-- Node1 -->
<g id="node1" class="node">
<title>Node1</title>
<g id="a_node1"><a xlink:title="Get the owner.">
<polygon fill="#bfbfbf" stroke="black" points="1050,-74.59 1050,-93.59 1142,-93.59 1142,-74.59 1050,-74.59"/>
<text text-anchor="middle" x="1096" y="-81.59" font-family="Helvetica,sans-Serif" font-size="10.00">EShop::getOwner</text>
</a>
</g>
</g>
<!-- Node2 -->
<g id="node2" class="node">
<title>Node2</title>
<g id="a_node2"><a xlink:href="classMenu.html#a1cba910e7f8a136371a3eb3d18cc73b3" target="_top" xlink:title="User authentication.">
<polygon fill="none" stroke="black" points="949,-74.59 949,-93.59 1014,-93.59 1014,-74.59 949,-74.59"/>
<text text-anchor="middle" x="981.5" y="-81.59" font-family="Helvetica,sans-Serif" font-size="10.00">Menu::login</text>
</a>
</g>
</g>
<!-- Node1&#45;&gt;Node2 -->
<g id="edge1" class="edge">
<title>Node1&#45;&gt;Node2</title>
<path fill="none" stroke="midnightblue" d="M1039.67,-84.09C1030.9,-84.09 1022.11,-84.09 1014.13,-84.09"/>
<polygon fill="midnightblue" stroke="midnightblue" points="1039.89,-87.59 1049.89,-84.09 1039.89,-80.59 1039.89,-87.59"/>
</g>
<!-- Node3 -->
<g id="node3" class="node">
<title>Node3</title>
<g id="a_node3"><a xlink:href="classMenu.html#a69db6693739aa87710c029b54a90385d" target="_top" xlink:title=" ">
<polygon fill="none" stroke="black" points="797,-74.59 797,-93.59 913,-93.59 913,-74.59 797,-74.59"/>
<text text-anchor="middle" x="855" y="-81.59" font-family="Helvetica,sans-Serif" font-size="10.00">Menu::showLoginMenu</text>
</a>
</g>
</g>
<!-- Node2&#45;&gt;Node3 -->
<g id="edge2" class="edge">
<title>Node2&#45;&gt;Node3</title>
<path fill="none" stroke="midnightblue" d="M938.76,-84.09C930.59,-84.09 921.9,-84.09 913.33,-84.09"/>
<polygon fill="midnightblue" stroke="midnightblue" points="938.76,-87.59 948.76,-84.09 938.76,-80.59 938.76,-87.59"/>
</g>
<!-- Node4 -->
<g id="node4" class="node">
<title>Node4</title>
<g id="a_node4"><a xlink:href="classMenu.html#aaef7622e532f3424a27fce4d16dbda47" target="_top" xlink:title=" ">
<polygon fill="none" stroke="black" points="652,-74.59 652,-93.59 761,-93.59 761,-74.59 652,-74.59"/>
<text text-anchor="middle" x="706.5" y="-81.59" font-family="Helvetica,sans-Serif" font-size="10.00">Menu::showWelcome</text>
</a>
</g>
</g>
<!-- Node3&#45;&gt;Node4 -->
<g id="edge3" class="edge">
<title>Node3&#45;&gt;Node4</title>
<path fill="none" stroke="midnightblue" d="M786.93,-84.09C778.34,-84.09 769.63,-84.09 761.29,-84.09"/>
<polygon fill="midnightblue" stroke="midnightblue" points="786.94,-87.59 796.94,-84.09 786.94,-80.59 786.94,-87.59"/>
</g>
<!-- Node5 -->
<g id="node5" class="node">
<title>Node5</title>
<g id="a_node5"><a xlink:href="classMenu.html#a323509e5b6f4dc00536e87efd65b8b94" target="_top" xlink:title=" ">
<polygon fill="none" stroke="black" points="523,-130.59 523,-149.59 592,-149.59 592,-130.59 523,-130.59"/>
<text text-anchor="middle" x="557.5" y="-137.59" font-family="Helvetica,sans-Serif" font-size="10.00">Menu::Menu</text>
</a>
</g>
</g>
<!-- Node4&#45;&gt;Node5 -->
<g id="edge4" class="edge">
<title>Node4&#45;&gt;Node5</title>
<path fill="none" stroke="midnightblue" d="M674.13,-97.72C657.06,-104.96 635.5,-113.85 616,-121.09 607.23,-124.35 597.61,-127.64 588.78,-130.54"/>
<polygon fill="midnightblue" stroke="midnightblue" points="675.79,-100.81 683.61,-93.66 673.04,-94.38 675.79,-100.81"/>
</g>
<!-- Node6 -->
<g id="node6" class="node">
<title>Node6</title>
<g id="a_node6"><a xlink:href="classMenu.html#a2ecf65abb196d80c5a5c354155019a93" target="_top" xlink:title=" ">
<polygon fill="none" stroke="black" points="499,-74.59 499,-93.59 616,-93.59 616,-74.59 499,-74.59"/>
<text text-anchor="middle" x="557.5" y="-81.59" font-family="Helvetica,sans-Serif" font-size="10.00">Menu::showBuyerMenu</text>
</a>
</g>
</g>
<!-- Node4&#45;&gt;Node6 -->
<g id="edge5" class="edge">
<title>Node4&#45;&gt;Node6</title>
<path fill="none" stroke="midnightblue" d="M641.51,-77.39C633.14,-77.3 624.61,-77.33 616.35,-77.48"/>
<polygon fill="midnightblue" stroke="midnightblue" points="641.54,-80.89 651.6,-77.56 641.66,-73.89 641.54,-80.89"/>
</g>
<!-- Node10 -->
<g id="node10" class="node">
<title>Node10</title>
<g id="a_node10"><a xlink:href="classMenu.html#a6a602f7f37917ae9582719a89246b73b" target="_top" xlink:title=" ">
<polygon fill="none" stroke="black" points="167,-112.59 167,-131.59 288,-131.59 288,-112.59 167,-112.59"/>
<text text-anchor="middle" x="227.5" y="-119.59" font-family="Helvetica,sans-Serif" font-size="10.00">Menu::showOwnerMenu</text>
</a>
</g>
</g>
<!-- Node4&#45;&gt;Node10 -->
<g id="edge26" class="edge">
<title>Node4&#45;&gt;Node10</title>
<path fill="none" stroke="midnightblue" d="M684.57,-69.48C626.11,-36.92 457.01,32.84 329,-18.09 281.71,-36.91 243.82,-89.71 232.19,-112.41"/>
<polygon fill="midnightblue" stroke="midnightblue" points="682.87,-72.55 693.28,-74.55 686.39,-66.49 682.87,-72.55"/>
</g>
<!-- Node6&#45;&gt;Node4 -->
<g id="edge25" class="edge">
<title>Node6&#45;&gt;Node4</title>
<path fill="none" stroke="midnightblue" d="M626.53,-90.82C634.94,-90.87 643.44,-90.81 651.6,-90.62"/>
<polygon fill="midnightblue" stroke="midnightblue" points="626.4,-87.32 616.35,-90.7 626.31,-94.32 626.4,-87.32"/>
</g>
<!-- Node6&#45;&gt;Node6 -->
<g id="edge18" class="edge">
<title>Node6&#45;&gt;Node6</title>
<path fill="none" stroke="midnightblue" d="M585.13,-102.74C583.97,-108.03 574.76,-112.09 557.5,-112.09 531.2,-112.09 523.59,-102.66 534.69,-93.85"/>
<polygon fill="midnightblue" stroke="midnightblue" points="588.15,-100.98 580.31,-93.85 581.99,-104.31 588.15,-100.98"/>
</g>
<!-- Node7 -->
<g id="node7" class="node">
<title>Node7</title>
<g id="a_node7"><a xlink:href="classMenu.html#a1de78dc75d7de7db8bce09a70dbbf77f" target="_top" xlink:title=" ">
<polygon fill="none" stroke="black" points="333.5,-168.59 333.5,-187.59 458.5,-187.59 458.5,-168.59 333.5,-168.59"/>
<text text-anchor="middle" x="396" y="-175.59" font-family="Helvetica,sans-Serif" font-size="10.00">Menu::showBrowseMenu</text>
</a>
</g>
</g>
<!-- Node6&#45;&gt;Node7 -->
<g id="edge6" class="edge">
<title>Node6&#45;&gt;Node7</title>
<path fill="none" stroke="midnightblue" d="M517.49,-99.04C511.18,-103.13 504.82,-107.6 499,-112.09 481.81,-125.34 481.56,-133.83 463,-145.09 445.8,-155.53 423.35,-162.48 409.57,-168.51"/>
<polygon fill="midnightblue" stroke="midnightblue" points="519.35,-102 526,-93.75 515.66,-96.06 519.35,-102"/>
</g>
<!-- Node6&#45;&gt;Node10 -->
<g id="edge24" class="edge">
<title>Node6&#45;&gt;Node10</title>
<path fill="none" stroke="midnightblue" d="M529,-98.12C510.8,-106.61 486.1,-116.63 463,-121.09 404.44,-132.39 336.1,-131.08 288.36,-127.9"/>
<polygon fill="midnightblue" stroke="midnightblue" points="530.64,-101.22 538.14,-93.74 527.61,-94.91 530.64,-101.22"/>
</g>
<!-- Node12 -->
<g id="node12" class="node">
<title>Node12</title>
<g id="a_node12"><a xlink:href="classMenu.html#a781c392fdcd203e436f5dc6e78f057a8" target="_top" xlink:title=" ">
<polygon fill="none" stroke="black" points="341,-74.59 341,-93.59 451,-93.59 451,-74.59 341,-74.59"/>
<text text-anchor="middle" x="396" y="-81.59" font-family="Helvetica,sans-Serif" font-size="10.00">Menu::showCartMenu</text>
</a>
</g>
</g>
<!-- Node6&#45;&gt;Node12 -->
<g id="edge19" class="edge">
<title>Node6&#45;&gt;Node12</title>
<path fill="none" stroke="midnightblue" d="M488.9,-77.41C476.26,-77.26 463.2,-77.35 451.04,-77.66"/>
<polygon fill="midnightblue" stroke="midnightblue" points="488.86,-80.91 498.92,-77.58 488.98,-73.91 488.86,-80.91"/>
</g>
<!-- Node13 -->
<g id="node13" class="node">
<title>Node13</title>
<g id="a_node13"><a xlink:href="classMenu.html#a3905222cc1c1ec7ed2dce13e16555c52" target="_top" xlink:title=" ">
<polygon fill="none" stroke="black" points="329,-36.59 329,-55.59 463,-55.59 463,-36.59 329,-36.59"/>
<text text-anchor="middle" x="396" y="-43.59" font-family="Helvetica,sans-Serif" font-size="10.00">Menu::showCheckoutMenu</text>
</a>
</g>
</g>
<!-- Node6&#45;&gt;Node13 -->
<g id="edge22" class="edge">
<title>Node6&#45;&gt;Node13</title>
<path fill="none" stroke="midnightblue" d="M526.43,-71.51C508.6,-66.15 485.28,-60.17 463.34,-55.23"/>
<polygon fill="midnightblue" stroke="midnightblue" points="525.39,-74.85 535.97,-74.5 527.48,-68.17 525.39,-74.85"/>
</g>
<!-- Node7&#45;&gt;Node6 -->
<g id="edge7" class="edge">
<title>Node7&#45;&gt;Node6</title>
<path fill="none" stroke="midnightblue" d="M461.78,-163.82C462.19,-163.58 462.6,-163.34 463,-163.09 481.56,-151.83 481.81,-143.34 499,-130.09 516.3,-116.75 538.43,-103.47 549.52,-93.72"/>
<polygon fill="midnightblue" stroke="midnightblue" points="460.02,-160.79 452.84,-168.59 463.31,-166.97 460.02,-160.79"/>
</g>
<!-- Node8 -->
<g id="node8" class="node">
<title>Node8</title>
<g id="a_node8"><a xlink:href="classMenu.html#a8bdf4110581d8d8a82f6290f246201e7" target="_top" xlink:title=" ">
<polygon fill="none" stroke="black" points="162,-168.59 162,-187.59 293,-187.59 293,-168.59 162,-168.59"/>
<text text-anchor="middle" x="227.5" y="-175.59" font-family="Helvetica,sans-Serif" font-size="10.00">Menu::showCategoryMenu</text>
</a>
</g>
</g>
<!-- Node7&#45;&gt;Node8 -->
<g id="edge8" class="edge">
<title>Node7&#45;&gt;Node8</title>
<path fill="none" stroke="midnightblue" d="M323.17,-171.4C313.18,-171.3 302.97,-171.33 293.12,-171.49"/>
<polygon fill="midnightblue" stroke="midnightblue" points="323.42,-174.9 333.47,-171.55 323.53,-167.9 323.42,-174.9"/>
</g>
<!-- Node7&#45;&gt;Node10 -->
<g id="edge12" class="edge">
<title>Node7&#45;&gt;Node10</title>
<path fill="none" stroke="midnightblue" d="M369.53,-164.5C344.51,-154.25 305.75,-140.84 275.19,-131.66"/>
<polygon fill="midnightblue" stroke="midnightblue" points="368.46,-167.85 379.04,-168.54 371.2,-161.41 368.46,-167.85"/>
</g>
<!-- Node8&#45;&gt;Node7 -->
<g id="edge9" class="edge">
<title>Node8&#45;&gt;Node7</title>
<path fill="none" stroke="midnightblue" d="M303.17,-184.81C313.31,-184.88 323.61,-184.82 333.47,-184.63"/>
<polygon fill="midnightblue" stroke="midnightblue" points="303.16,-181.31 293.12,-184.69 303.08,-188.31 303.16,-181.31"/>
</g>
<!-- Node9 -->
<g id="node9" class="node">
<title>Node9</title>
<g id="a_node9"><a xlink:href="classMenu.html#a957fada7140f67c43e3ee253ae863125" target="_top" xlink:title=" ">
<polygon fill="none" stroke="black" points="0,-168.59 0,-187.59 126,-187.59 126,-168.59 0,-168.59"/>
<text text-anchor="middle" x="63" y="-175.59" font-family="Helvetica,sans-Serif" font-size="10.00">Menu::showProductMenu</text>
</a>
</g>
</g>
<!-- Node8&#45;&gt;Node9 -->
<g id="edge10" class="edge">
<title>Node8&#45;&gt;Node9</title>
<path fill="none" stroke="midnightblue" d="M151.78,-171.36C143.19,-171.31 134.49,-171.36 126.09,-171.51"/>
<polygon fill="midnightblue" stroke="midnightblue" points="151.77,-174.86 161.81,-171.47 151.85,-167.86 151.77,-174.86"/>
</g>
<!-- Node9&#45;&gt;Node8 -->
<g id="edge11" class="edge">
<title>Node9&#45;&gt;Node8</title>
<path fill="none" stroke="midnightblue" d="M136.34,-184.8C144.83,-184.87 153.44,-184.84 161.81,-184.71"/>
<polygon fill="midnightblue" stroke="midnightblue" points="136.13,-181.3 126.09,-184.67 136.04,-188.3 136.13,-181.3"/>
</g>
<!-- Node10&#45;&gt;Node4 -->
<g id="edge17" class="edge">
<title>Node10&#45;&gt;Node4</title>
<path fill="none" stroke="midnightblue" d="M245.55,-104.46C263.32,-83.47 293.51,-50.21 329,-36.09 451.24,12.54 610.94,-48.88 676,-74.41"/>
<polygon fill="midnightblue" stroke="midnightblue" points="242.67,-102.45 238.93,-112.36 248.03,-106.95 242.67,-102.45"/>
</g>
<!-- Node10&#45;&gt;Node7 -->
<g id="edge13" class="edge">
<title>Node10&#45;&gt;Node7</title>
<path fill="none" stroke="midnightblue" d="M254.23,-135.78C279.22,-146.01 317.74,-159.33 348.18,-168.48"/>
<polygon fill="midnightblue" stroke="midnightblue" points="255.3,-132.44 244.73,-131.75 252.56,-138.88 255.3,-132.44"/>
</g>
<!-- Node11 -->
<g id="node11" class="node">
<title>Node11</title>
<g id="a_node11"><a xlink:href="classMenu.html#a788512183de460d13b8a2dfb571c03f2" target="_top" xlink:title=" ">
<polygon fill="none" stroke="black" points="2.5,-112.59 2.5,-131.59 123.5,-131.59 123.5,-112.59 2.5,-112.59"/>
<text text-anchor="middle" x="63" y="-119.59" font-family="Helvetica,sans-Serif" font-size="10.00">Menu::showStatusMenu</text>
</a>
</g>
</g>
<!-- Node10&#45;&gt;Node11 -->
<g id="edge14" class="edge">
<title>Node10&#45;&gt;Node11</title>
<path fill="none" stroke="midnightblue" d="M156.85,-115.4C145.77,-115.28 134.4,-115.34 123.58,-115.56"/>
<polygon fill="midnightblue" stroke="midnightblue" points="156.86,-118.9 166.91,-115.56 156.97,-111.9 156.86,-118.9"/>
</g>
<!-- Node11&#45;&gt;Node10 -->
<g id="edge15" class="edge">
<title>Node11&#45;&gt;Node10</title>
<path fill="none" stroke="midnightblue" d="M133.65,-128.78C144.72,-128.9 156.09,-128.84 166.91,-128.62"/>
<polygon fill="midnightblue" stroke="midnightblue" points="133.63,-125.28 123.58,-128.62 133.52,-132.28 133.63,-125.28"/>
</g>
<!-- Node11&#45;&gt;Node11 -->
<g id="edge16" class="edge">
<title>Node11&#45;&gt;Node11</title>
<path fill="none" stroke="midnightblue" d="M93.69,-140.36C92.81,-145.83 82.58,-150.09 63,-150.09 33.85,-150.09 25.43,-140.66 37.72,-131.85"/>
<polygon fill="midnightblue" stroke="midnightblue" points="96.59,-138.41 88.28,-131.85 90.69,-142.16 96.59,-138.41"/>
</g>
<!-- Node12&#45;&gt;Node6 -->
<g id="edge20" class="edge">
<title>Node12&#45;&gt;Node6</title>
<path fill="none" stroke="midnightblue" d="M461.33,-90.73C473.77,-90.91 486.72,-90.87 498.92,-90.6"/>
<polygon fill="midnightblue" stroke="midnightblue" points="461.11,-87.22 451.04,-90.52 460.97,-94.22 461.11,-87.22"/>
</g>
<!-- Node12&#45;&gt;Node12 -->
<g id="edge21" class="edge">
<title>Node12&#45;&gt;Node12</title>
<path fill="none" stroke="midnightblue" d="M425.94,-102.36C425.09,-107.83 415.11,-112.09 396,-112.09 367.56,-112.09 359.34,-102.66 371.34,-93.85"/>
<polygon fill="midnightblue" stroke="midnightblue" points="428.9,-100.5 420.66,-93.85 422.95,-104.19 428.9,-100.5"/>
</g>
<!-- Node13&#45;&gt;Node6 -->
<g id="edge23" class="edge">
<title>Node13&#45;&gt;Node6</title>
<path fill="none" stroke="midnightblue" d="M427.18,-58.7C447.39,-64.78 474.64,-71.63 498.92,-76.88"/>
<polygon fill="midnightblue" stroke="midnightblue" points="428.18,-55.35 417.59,-55.7 426.09,-62.03 428.18,-55.35"/>
</g>
</g>
</svg>
