<?xml version="1.0" encoding="UTF-8" standalone="no"?>
<!DOCTYPE svg PUBLIC "-//W3C//DTD SVG 1.1//EN"
 "http://www.w3.org/Graphics/SVG/1.1/DTD/svg11.dtd">
<!-- Generated by graphviz version 2.49.3 (20211027.1534)
 -->
<!-- Title: Item::Item Pages: 1 -->
<svg width="207pt" height="142pt"
 viewBox="0.00 0.00 207.00 142.00" xmlns="http://www.w3.org/2000/svg" xmlns:xlink="http://www.w3.org/1999/xlink">
<g id="graph0" class="graph" transform="scale(1 1) rotate(0) translate(4 138)">
<title>Item::Item</title>
<!-- Node1 -->
<g id="node1" class="node">
<title>Node1</title>
<g id="a_node1"><a xlink:title="Constructor for Item, called by the derivative classes.">
<polygon fill="#bfbfbf" stroke="black" points="0,-57.5 0,-76.5 60,-76.5 60,-57.5 0,-57.5"/>
<text text-anchor="middle" x="30" y="-64.5" font-family="Helvetica,sans-Serif" font-size="10.00">Item::Item</text>
</a>
</g>
</g>
<!-- Node2 -->
<g id="node2" class="node">
<title>Node2</title>
<g id="a_node2"><a xlink:href="classItem.html#a7bdce299af7ea17d77c2afd0c65ba75e" target="_top" xlink:title="Set the stock of an item.">
<polygon fill="none" stroke="black" points="96,-114.5 96,-133.5 199,-133.5 199,-114.5 96,-114.5"/>
<text text-anchor="middle" x="147.5" y="-121.5" font-family="Helvetica,sans-Serif" font-size="10.00">Item::setDescription</text>
</a>
</g>
</g>
<!-- Node1&#45;&gt;Node2 -->
<g id="edge1" class="edge">
<title>Node1&#45;&gt;Node2</title>
<path fill="none" stroke="midnightblue" d="M45.84,-76.65C58.77,-84.82 78.18,-96.51 96,-105 100.16,-106.98 104.58,-108.9 109.01,-110.71"/>
<polygon fill="midnightblue" stroke="midnightblue" points="108.04,-114.09 118.63,-114.48 110.59,-107.57 108.04,-114.09"/>
</g>
<!-- Node3 -->
<g id="node3" class="node">
<title>Node3</title>
<g id="a_node3"><a xlink:href="classItem.html#a5dcdff1db4c66ca22bd6a3f826c69644" target="_top" xlink:title="Set the stock of an item.">
<polygon fill="none" stroke="black" points="107.5,-76.5 107.5,-95.5 187.5,-95.5 187.5,-76.5 107.5,-76.5"/>
<text text-anchor="middle" x="147.5" y="-83.5" font-family="Helvetica,sans-Serif" font-size="10.00">Item::setName</text>
</a>
</g>
</g>
<!-- Node1&#45;&gt;Node3 -->
<g id="edge2" class="edge">
<title>Node1&#45;&gt;Node3</title>
<path fill="none" stroke="midnightblue" d="M60.15,-71.79C71.43,-73.65 84.66,-75.83 97.33,-77.91"/>
<polygon fill="midnightblue" stroke="midnightblue" points="96.89,-81.39 107.33,-79.56 98.03,-74.48 96.89,-81.39"/>
</g>
<!-- Node4 -->
<g id="node4" class="node">
<title>Node4</title>
<g id="a_node4"><a xlink:href="classItem.html#aaa1df0d4713c04f3c12ee9c67fbd8dad" target="_top" xlink:title="Set the price of an item.">
<polygon fill="none" stroke="black" points="109,-38.5 109,-57.5 186,-57.5 186,-38.5 109,-38.5"/>
<text text-anchor="middle" x="147.5" y="-45.5" font-family="Helvetica,sans-Serif" font-size="10.00">Item::setPrice</text>
</a>
</g>
</g>
<!-- Node1&#45;&gt;Node4 -->
<g id="edge3" class="edge">
<title>Node1&#45;&gt;Node4</title>
<path fill="none" stroke="midnightblue" d="M60.15,-62.21C71.75,-60.3 85.41,-58.05 98.4,-55.91"/>
<polygon fill="midnightblue" stroke="midnightblue" points="99.32,-59.31 108.62,-54.23 98.19,-52.4 99.32,-59.31"/>
</g>
<!-- Node5 -->
<g id="node5" class="node">
<title>Node5</title>
<g id="a_node5"><a xlink:href="classItem.html#a0fa2135af2d5ac406fc7ee8d9b73aeec" target="_top" xlink:title="Set the stock of an item.">
<polygon fill="none" stroke="black" points="107.5,-0.5 107.5,-19.5 187.5,-19.5 187.5,-0.5 107.5,-0.5"/>
<text text-anchor="middle" x="147.5" y="-7.5" font-family="Helvetica,sans-Serif" font-size="10.00">Item::setStock</text>
</a>
</g>
</g>
<!-- Node1&#45;&gt;Node5 -->
<g id="edge4" class="edge">
<title>Node1&#45;&gt;Node5</title>
<path fill="none" stroke="midnightblue" d="M45.84,-57.35C58.77,-49.18 78.18,-37.49 96,-29 100.16,-27.02 104.58,-25.1 109.01,-23.29"/>
<polygon fill="midnightblue" stroke="midnightblue" points="110.59,-26.43 118.63,-19.52 108.04,-19.91 110.59,-26.43"/>
</g>
</g>
</svg>
