<?xml version="1.0" encoding="UTF-8" standalone="no"?>
<!DOCTYPE svg PUBLIC "-//W3C//DTD SVG 1.1//EN"
 "http://www.w3.org/Graphics/SVG/1.1/DTD/svg11.dtd">
<!-- Generated by graphviz version 2.49.3 (20211027.1534)
 -->
<!-- Title: ShoppingCart Pages: 1 -->
<!--zoomable 562 -->
<svg id="main" version="1.1" xmlns="http://www.w3.org/2000/svg" xmlns:xlink="http://www.w3.org/1999/xlink" xml:space="preserve" onload="init(evt)">
<style type="text/css"><![CDATA[
.edge:hover path { stroke: red; }
.edge:hover polygon { stroke: red; fill: red; }
]]></style>
<script type="text/javascript"><![CDATA[
var edges = document.getElementsByTagName('g');
if (edges && edges.length) {
  for (var i=0;i<edges.length;i++) {
    if (edges[i].id.substr(0,4)=='edge') {
      edges[i].setAttribute('class','edge');
    }
  }
}
]]></script>
        <defs>
                <circle id="rim" cx="0" cy="0" r="7"/>
                <circle id="rim2" cx="0" cy="0" r="3.5"/>
                <g id="zoomPlus">
                        <use xlink:href="#rim" fill="#404040">
                                <set attributeName="fill" to="#808080" begin="zoomplus.mouseover" end="zoomplus.mouseout"/>
                        </use>
                        <path d="M-4,0h8M0,-4v8" fill="none" stroke="white" stroke-width="1.5" pointer-events="none"/>
                </g>
                <g id="zoomMin">
                        <use xlink:href="#rim" fill="#404040">
                                <set attributeName="fill" to="#808080" begin="zoomminus.mouseover" end="zoomminus.mouseout"/>
                        </use>
                        <path d="M-4,0h8" fill="none" stroke="white" stroke-width="1.5" pointer-events="none"/>
                </g>
                <g id="dirArrow">
                        <path fill="none" stroke="white" stroke-width="1.5" d="M0,-3.0v7 M-2.5,-0.5L0,-3.0L2.5,-0.5"/>
                </g>
               <g id="resetDef">
                       <use xlink:href="#rim2" fill="#404040">
                               <set attributeName="fill" to="#808080" begin="reset.mouseover" end="reset.mouseout"/>
                       </use>
               </g>
        </defs>

<script type="text/javascript">
var viewWidth = 838;
var viewHeight = 562;
var sectionId = 'dynsection-0';
</script>
<script xlink:href="svgpan.js"/>
<svg id="graph" class="graph">
<g id="viewport">
<title>ShoppingCart</title>
<!-- Node1 -->
<g id="node1" class="node">
<title>Node1</title>
<g id="a_node1"><a xlink:title="Class implementing the shopping cart.">
<polygon fill="#bfbfbf" stroke="black" points="0,-281.5 0,-437.5 258,-437.5 258,-281.5 0,-281.5"/>
<text text-anchor="middle" x="129" y="-425.5" font-family="Helvetica,sans-Serif" font-size="10.00">ShoppingCart</text>
<polyline fill="none" stroke="black" points="0,-418.5 258,-418.5 "/>
<text text-anchor="middle" x="129" y="-406.5" font-family="Helvetica,sans-Serif" font-size="10.00"> </text>
<polyline fill="none" stroke="black" points="0,-399.5 258,-399.5 "/>
<text text-anchor="start" x="8" y="-387.5" font-family="Helvetica,sans-Serif" font-size="10.00">+ ShoppingCart(Buyer *buyer)</text>
<text text-anchor="start" x="8" y="-376.5" font-family="Helvetica,sans-Serif" font-size="10.00">+ void addItemOrder(Item *item, int quantity)</text>
<text text-anchor="start" x="8" y="-365.5" font-family="Helvetica,sans-Serif" font-size="10.00">+ void removeItemOrder(Item *item)</text>
<text text-anchor="start" x="8" y="-354.5" font-family="Helvetica,sans-Serif" font-size="10.00">+ void changeItemOrderQuantity(Item *item, int quantity)</text>
<text text-anchor="start" x="8" y="-343.5" font-family="Helvetica,sans-Serif" font-size="10.00">+ pair&lt; Item *, int &gt; getItemOrder(Item *)</text>
<text text-anchor="start" x="8" y="-332.5" font-family="Helvetica,sans-Serif" font-size="10.00">+ set&lt; int &gt; showCart()</text>
<text text-anchor="start" x="8" y="-321.5" font-family="Helvetica,sans-Serif" font-size="10.00">+ void clearCart()</text>
<text text-anchor="start" x="8" y="-310.5" font-family="Helvetica,sans-Serif" font-size="10.00">+ void checkout()</text>
<text text-anchor="start" x="8" y="-299.5" font-family="Helvetica,sans-Serif" font-size="10.00">+ double calculateNet()</text>
<text text-anchor="start" x="8" y="-288.5" font-family="Helvetica,sans-Serif" font-size="10.00">+ double calculateCourier()</text>
</a>
</g>
</g>
<!-- Node3 -->
<g id="node3" class="node">
<title>Node3</title>
<g id="a_node3"><a xlink:href="classBuyer.html" target="_top" xlink:title="Specialization of User. Describes a Buyer.">
<polygon fill="none" stroke="black" points="364,-0.5 364,-233.5 564,-233.5 564,-0.5 364,-0.5"/>
<text text-anchor="middle" x="464" y="-221.5" font-family="Helvetica,sans-Serif" font-size="10.00">Buyer</text>
<polyline fill="none" stroke="black" points="364,-214.5 564,-214.5 "/>
<text text-anchor="middle" x="464" y="-202.5" font-family="Helvetica,sans-Serif" font-size="10.00"> </text>
<polyline fill="none" stroke="black" points="364,-195.5 564,-195.5 "/>
<text text-anchor="start" x="372" y="-183.5" font-family="Helvetica,sans-Serif" font-size="10.00">+ Buyer(string name, string email)</text>
<text text-anchor="start" x="372" y="-172.5" font-family="Helvetica,sans-Serif" font-size="10.00">+ Buyer(const Buyer &amp;)=delete</text>
<text text-anchor="start" x="372" y="-161.5" font-family="Helvetica,sans-Serif" font-size="10.00">+ bool isAdmin()</text>
<text text-anchor="start" x="372" y="-150.5" font-family="Helvetica,sans-Serif" font-size="10.00">+ void awardBonus(double orderValue)</text>
<text text-anchor="start" x="372" y="-139.5" font-family="Helvetica,sans-Serif" font-size="10.00">+ void placeOrder(Item *item, int quantity)</text>
<text text-anchor="start" x="372" y="-128.5" font-family="Helvetica,sans-Serif" font-size="10.00">+ void removeFromOrder(Item *item)</text>
<text text-anchor="start" x="372" y="-117.5" font-family="Helvetica,sans-Serif" font-size="10.00">+ void checkout()</text>
<text text-anchor="start" x="372" y="-106.5" font-family="Helvetica,sans-Serif" font-size="10.00">+ set&lt; int &gt; showCart()</text>
<text text-anchor="start" x="372" y="-95.5" font-family="Helvetica,sans-Serif" font-size="10.00">+ pair&lt; Item *, int &gt; getItemOrder(Item *)</text>
<text text-anchor="start" x="372" y="-84.5" font-family="Helvetica,sans-Serif" font-size="10.00">+ void clearCart()</text>
<text text-anchor="start" x="372" y="-73.5" font-family="Helvetica,sans-Serif" font-size="10.00">+ bool operator==(Buyer &amp;)</text>
<text text-anchor="start" x="372" y="-62.5" font-family="Helvetica,sans-Serif" font-size="10.00">+ Buyer &amp; operator=(const Buyer &amp;)=delete</text>
<text text-anchor="start" x="372" y="-51.5" font-family="Helvetica,sans-Serif" font-size="10.00">+ int getBonus()</text>
<text text-anchor="start" x="372" y="-40.5" font-family="Helvetica,sans-Serif" font-size="10.00">+ Category getCategory()</text>
<text text-anchor="start" x="372" y="-29.5" font-family="Helvetica,sans-Serif" font-size="10.00">+ string getCategoryName()</text>
<text text-anchor="start" x="372" y="-18.5" font-family="Helvetica,sans-Serif" font-size="10.00">&#45; void setBonus(double)</text>
<text text-anchor="start" x="372" y="-7.5" font-family="Helvetica,sans-Serif" font-size="10.00">&#45; void setCategory()</text>
</a>
</g>
</g>
<!-- Node1&#45;&gt;Node3 -->
<g id="edge9" class="edge">
<title>Node1&#45;&gt;Node3</title>
<path fill="none" stroke="#404040" d="M174.18,-281.31C182.3,-270.73 191.3,-260.57 201,-252 245.18,-212.96 302.76,-181.94 352.79,-159.63"/>
<polygon fill="none" stroke="#404040" points="353.01,-159.53 356.9,-153.46 364,-154.71 360.11,-160.79 353.01,-159.53"/>
<text text-anchor="middle" x="215" y="-255" font-family="Helvetica,sans-Serif" font-size="10.00"> &#45;_cart</text>
</g>
<!-- Node2 -->
<g id="node2" class="node">
<title>Node2</title>
<g id="a_node2"><a xlink:title=" ">
<polygon fill="none" stroke="#bfbfbf" points="220.5,-496.5 220.5,-553.5 261.5,-553.5 261.5,-496.5 220.5,-496.5"/>
<text text-anchor="middle" x="241" y="-541.5" font-family="Helvetica,sans-Serif" font-size="10.00">map&lt;</text>
<polyline fill="none" stroke="#bfbfbf" points="220.5,-534.5 261.5,-534.5 "/>
<text text-anchor="middle" x="241" y="-522.5" font-family="Helvetica,sans-Serif" font-size="10.00"> </text>
<polyline fill="none" stroke="#bfbfbf" points="220.5,-515.5 261.5,-515.5 "/>
<text text-anchor="middle" x="241" y="-503.5" font-family="Helvetica,sans-Serif" font-size="10.00"> </text>
</a>
</g>
</g>
<!-- Node2&#45;&gt;Node1 -->
<g id="edge1" class="edge">
<title>Node2&#45;&gt;Node1</title>
<path fill="none" stroke="#404040" d="M222,-496.26C212.71,-482.71 200.97,-465.56 188.98,-448.06"/>
<polygon fill="none" stroke="#404040" points="188.69,-447.64 182,-444.95 181.91,-437.74 188.6,-440.43 188.69,-447.64"/>
<text text-anchor="middle" x="224.5" y="-464.5" font-family="Helvetica,sans-Serif" font-size="10.00"> &#45;_order</text>
</g>
<!-- Node2&#45;&gt;Node3 -->
<g id="edge7" class="edge">
<title>Node2&#45;&gt;Node3</title>
<path fill="none" stroke="#404040" d="M249.91,-496.25C255.17,-479.47 261.8,-457.6 267,-438 285.37,-368.81 268.53,-343.75 303,-281 316.74,-255.99 335.43,-232.19 355.2,-210.89"/>
<polygon fill="none" stroke="#404040" points="355.47,-210.62 356.7,-203.51 363.74,-201.92 362.5,-209.03 355.47,-210.62"/>
<text text-anchor="middle" x="339.5" y="-362.5" font-family="Helvetica,sans-Serif" font-size="10.00"> &#45;_categoryScore</text>
<text text-anchor="middle" x="339.5" y="-351.5" font-family="Helvetica,sans-Serif" font-size="10.00">&#45;_categoryString</text>
</g>
<!-- Node3&#45;&gt;Node1 -->
<g id="edge2" class="edge">
<title>Node3&#45;&gt;Node1</title>
<path fill="none" stroke="#404040" d="M363.76,-174.25C325.83,-196.91 282.93,-224.23 246,-252 237.04,-258.74 227.96,-266.04 219.03,-273.54"/>
<polygon fill="none" stroke="#404040" points="218.92,-273.64 216.95,-280.58 209.79,-281.43 211.76,-274.49 218.92,-273.64"/>
<text text-anchor="middle" x="263" y="-255" font-family="Helvetica,sans-Serif" font-size="10.00"> &#45;_buyer</text>
</g>
<!-- Node4 -->
<g id="node4" class="node">
<title>Node4</title>
<g id="a_node4"><a xlink:href="classUser.html" target="_top" xlink:title="Base class for all users.">
<polygon fill="none" stroke="black" points="385.5,-303.5 385.5,-415.5 542.5,-415.5 542.5,-303.5 385.5,-303.5"/>
<text text-anchor="middle" x="464" y="-403.5" font-family="Helvetica,sans-Serif" font-size="10.00">User</text>
<polyline fill="none" stroke="black" points="385.5,-396.5 542.5,-396.5 "/>
<text text-anchor="middle" x="464" y="-384.5" font-family="Helvetica,sans-Serif" font-size="10.00"> </text>
<polyline fill="none" stroke="black" points="385.5,-377.5 542.5,-377.5 "/>
<text text-anchor="start" x="393.5" y="-365.5" font-family="Helvetica,sans-Serif" font-size="10.00">+ User(string name, string email)</text>
<text text-anchor="start" x="393.5" y="-354.5" font-family="Helvetica,sans-Serif" font-size="10.00">+ string getName()</text>
<text text-anchor="start" x="393.5" y="-343.5" font-family="Helvetica,sans-Serif" font-size="10.00">+ string getEmail()</text>
<text text-anchor="start" x="393.5" y="-332.5" font-family="Helvetica,sans-Serif" font-size="10.00">+ virtual bool isAdmin()=0</text>
<text text-anchor="start" x="393.5" y="-321.5" font-family="Helvetica,sans-Serif" font-size="10.00">&#45; void setName(string name)</text>
<text text-anchor="start" x="393.5" y="-310.5" font-family="Helvetica,sans-Serif" font-size="10.00">&#45; void setEmail(string email)</text>
</a>
</g>
</g>
<!-- Node4&#45;&gt;Node3 -->
<g id="edge3" class="edge">
<title>Node4&#45;&gt;Node3</title>
<path fill="none" stroke="midnightblue" d="M464,-293.32C464,-274.87 464,-254.21 464,-233.73"/>
<polygon fill="none" stroke="midnightblue" points="460.5,-293.32 464,-303.32 467.5,-293.32 460.5,-293.32"/>
</g>
<!-- Node5 -->
<g id="node5" class="node">
<title>Node5</title>
<g id="a_node5"><a xlink:title=" ">
<polygon fill="none" stroke="#bfbfbf" points="443.5,-496.5 443.5,-553.5 484.5,-553.5 484.5,-496.5 443.5,-496.5"/>
<text text-anchor="middle" x="464" y="-541.5" font-family="Helvetica,sans-Serif" font-size="10.00">string</text>
<polyline fill="none" stroke="#bfbfbf" points="443.5,-534.5 484.5,-534.5 "/>
<text text-anchor="middle" x="464" y="-522.5" font-family="Helvetica,sans-Serif" font-size="10.00"> </text>
<polyline fill="none" stroke="#bfbfbf" points="443.5,-515.5 484.5,-515.5 "/>
<text text-anchor="middle" x="464" y="-503.5" font-family="Helvetica,sans-Serif" font-size="10.00"> </text>
</a>
</g>
</g>
<!-- Node5&#45;&gt;Node4 -->
<g id="edge4" class="edge">
<title>Node5&#45;&gt;Node4</title>
<path fill="none" stroke="#404040" d="M464,-496.26C464,-477.49 464,-451.83 464,-427.88"/>
<polygon fill="none" stroke="#404040" points="464,-427.55 460,-421.55 464,-415.55 468,-421.55 464,-427.55"/>
<text text-anchor="middle" x="481" y="-470" font-family="Helvetica,sans-Serif" font-size="10.00"> &#45;_email</text>
<text text-anchor="middle" x="481" y="-459" font-family="Helvetica,sans-Serif" font-size="10.00">&#45;_name</text>
</g>
<!-- Node6 -->
<g id="node6" class="node">
<title>Node6</title>
<g id="a_node6"><a xlink:title=" ">
<polygon fill="none" stroke="#bfbfbf" points="560.5,-331 560.5,-388 589.5,-388 589.5,-331 560.5,-331"/>
<text text-anchor="middle" x="575" y="-376" font-family="Helvetica,sans-Serif" font-size="10.00">int</text>
<polyline fill="none" stroke="#bfbfbf" points="560.5,-369 589.5,-369 "/>
<text text-anchor="middle" x="575" y="-357" font-family="Helvetica,sans-Serif" font-size="10.00"> </text>
<polyline fill="none" stroke="#bfbfbf" points="560.5,-350 589.5,-350 "/>
<text text-anchor="middle" x="575" y="-338" font-family="Helvetica,sans-Serif" font-size="10.00"> </text>
</a>
</g>
</g>
<!-- Node6&#45;&gt;Node3 -->
<g id="edge5" class="edge">
<title>Node6&#45;&gt;Node3</title>
<path fill="none" stroke="#404040" d="M568.26,-330.76C564.25,-315.77 558.64,-297.08 552,-281 547.06,-269.05 541.51,-256.84 535.65,-244.74"/>
<polygon fill="none" stroke="#404040" points="535.5,-244.43 529.26,-240.81 530.19,-233.66 536.43,-237.28 535.5,-244.43"/>
<text text-anchor="middle" x="562.5" y="-255" font-family="Helvetica,sans-Serif" font-size="10.00"> &#45;_bonus</text>
</g>
<!-- Node7 -->
<g id="node7" class="node">
<title>Node7</title>
<g id="a_node7"><a xlink:title=" ">
<polygon fill="none" stroke="#bfbfbf" points="607.5,-331 607.5,-388 662.5,-388 662.5,-331 607.5,-331"/>
<text text-anchor="middle" x="635" y="-376" font-family="Helvetica,sans-Serif" font-size="10.00">Category</text>
<polyline fill="none" stroke="#bfbfbf" points="607.5,-369 662.5,-369 "/>
<text text-anchor="middle" x="635" y="-357" font-family="Helvetica,sans-Serif" font-size="10.00"> </text>
<polyline fill="none" stroke="#bfbfbf" points="607.5,-350 662.5,-350 "/>
<text text-anchor="middle" x="635" y="-338" font-family="Helvetica,sans-Serif" font-size="10.00"> </text>
</a>
</g>
</g>
<!-- Node7&#45;&gt;Node3 -->
<g id="edge6" class="edge">
<title>Node7&#45;&gt;Node3</title>
<path fill="none" stroke="#404040" d="M622.27,-330.83C615.43,-316.03 606.81,-297.49 599,-281 592.87,-268.07 592.99,-263.88 585,-252 580.81,-245.77 576.34,-239.53 571.69,-233.34"/>
<polygon fill="none" stroke="#404040" points="571.56,-233.17 564.73,-230.86 564.24,-223.67 571.07,-225.98 571.56,-233.17"/>
<text text-anchor="middle" x="615" y="-255" font-family="Helvetica,sans-Serif" font-size="10.00"> &#45;_category</text>
</g>
<!-- Node8 -->
<g id="node8" class="node">
<title>Node8</title>
<g id="a_node8"><a xlink:title=" ">
<polygon fill="none" stroke="#bfbfbf" points="680.5,-331 680.5,-388 829.5,-388 829.5,-331 680.5,-331"/>
<text text-anchor="middle" x="755" y="-376" font-family="Helvetica,sans-Serif" font-size="10.00">static constexpr initializer_list&lt;</text>
<polyline fill="none" stroke="#bfbfbf" points="680.5,-369 829.5,-369 "/>
<text text-anchor="middle" x="755" y="-357" font-family="Helvetica,sans-Serif" font-size="10.00"> </text>
<polyline fill="none" stroke="#bfbfbf" points="680.5,-350 829.5,-350 "/>
<text text-anchor="middle" x="755" y="-338" font-family="Helvetica,sans-Serif" font-size="10.00"> </text>
</a>
</g>
</g>
<!-- Node8&#45;&gt;Node3 -->
<g id="edge8" class="edge">
<title>Node8&#45;&gt;Node3</title>
<path fill="none" stroke="#404040" d="M727.76,-330.86C705.59,-308.79 673.13,-277.45 643,-252 621.2,-233.59 597.17,-214.7 573.97,-197.13"/>
<polygon fill="none" stroke="#404040" points="573.68,-196.91 566.48,-196.5 564.1,-189.69 571.29,-190.11 573.68,-196.91"/>
<text text-anchor="middle" x="683" y="-255" font-family="Helvetica,sans-Serif" font-size="10.00"> &#45;_categories</text>
</g>
</g>
</svg>
        <g id="navigator" transform="translate(0 0)" fill="#404254">
                <rect fill="#f2f5e9" fill-opacity="0.5" stroke="#606060" stroke-width=".5" x="0" y="0" width="60" height="60"/>
                <use id="zoomplus" xlink:href="#zoomPlus" x="17" y="9" onmousedown="handleZoom(evt,'in')"/>
                <use id="zoomminus" xlink:href="#zoomMin" x="42" y="9" onmousedown="handleZoom(evt,'out')"/>
                <use id="reset" xlink:href="#resetDef" x="30" y="36" onmousedown="handleReset()"/>
                <g id="arrowUp" xlink:href="#dirArrow" transform="translate(30 24)" onmousedown="handlePan(0,-1)">
                  <use xlink:href="#rim" fill="#404040">
                        <set attributeName="fill" to="#808080" begin="arrowUp.mouseover" end="arrowUp.mouseout"/>
                  </use>
                  <path fill="none" stroke="white" stroke-width="1.5" d="M0,-3.0v7 M-2.5,-0.5L0,-3.0L2.5,-0.5"/>
                </g>
                <g id="arrowRight" xlink:href="#dirArrow" transform="rotate(90) translate(36 -43)" onmousedown="handlePan(1,0)">
                  <use xlink:href="#rim" fill="#404040">
                        <set attributeName="fill" to="#808080" begin="arrowRight.mouseover" end="arrowRight.mouseout"/>
                  </use>
                  <path fill="none" stroke="white" stroke-width="1.5" d="M0,-3.0v7 M-2.5,-0.5L0,-3.0L2.5,-0.5"/>
                </g>
                <g id="arrowDown" xlink:href="#dirArrow" transform="rotate(180) translate(-30 -48)" onmousedown="handlePan(0,1)">
                  <use xlink:href="#rim" fill="#404040">
                        <set attributeName="fill" to="#808080" begin="arrowDown.mouseover" end="arrowDown.mouseout"/>
                  </use>
                  <path fill="none" stroke="white" stroke-width="1.5" d="M0,-3.0v7 M-2.5,-0.5L0,-3.0L2.5,-0.5"/>
                </g>
                <g id="arrowLeft" xlink:href="#dirArrow" transform="rotate(270) translate(-36 17)" onmousedown="handlePan(-1,0)">
                  <use xlink:href="#rim" fill="#404040">
                        <set attributeName="fill" to="#808080" begin="arrowLeft.mouseover" end="arrowLeft.mouseout"/>
                  </use>
                  <path fill="none" stroke="white" stroke-width="1.5" d="M0,-3.0v7 M-2.5,-0.5L0,-3.0L2.5,-0.5"/>
                </g>
        </g>
        <svg viewBox="0 0 15 15" width="100%" height="30px" preserveAspectRatio="xMaxYMin meet">
         <g id="arrow_out" transform="scale(0.3 0.3)">
          <a xlink:href="classShoppingCart__coll__graph_org.svg" target="_base">
           <rect id="button" ry="5" rx="5" y="6" x="6" height="38" width="38"
                fill="#f2f5e9" fill-opacity="0.5" stroke="#606060" stroke-width="1.0"/>
           <path id="arrow"
             d="M 11.500037,31.436501 C 11.940474,20.09759 22.043105,11.32322 32.158766,21.979434 L 37.068811,17.246167 C 37.068811,17.246167 37.088388,32 37.088388,32 L 22.160133,31.978069 C 22.160133,31.978069 26.997745,27.140456 26.997745,27.140456 C 18.528582,18.264221 13.291696,25.230495 11.500037,31.436501 z"
             style="fill:#404040;"/>
          </a>
         </g>
        </svg>
</svg>
