<?xml version="1.0" encoding="UTF-8" standalone="no"?>
<!DOCTYPE svg PUBLIC "-//W3C//DTD SVG 1.1//EN"
 "http://www.w3.org/Graphics/SVG/1.1/DTD/svg11.dtd">
<!-- Generated by graphviz version 2.49.3 (20211027.1534)
 -->
<!-- Title: Buyer Pages: 1 -->
<!--zoomable 733 -->
<svg id="main" version="1.1" xmlns="http://www.w3.org/2000/svg" xmlns:xlink="http://www.w3.org/1999/xlink" xml:space="preserve" onload="init(evt)">
<style type="text/css"><![CDATA[
.edge:hover path { stroke: red; }
.edge:hover polygon { stroke: red; fill: red; }
]]></style>
<script type="text/javascript"><![CDATA[
var edges = document.getElementsByTagName('g');
if (edges && edges.length) {
  for (var i=0;i<edges.length;i++) {
    if (edges[i].id.substr(0,4)=='edge') {
      edges[i].setAttribute('class','edge');
    }
  }
}
]]></script>
        <defs>
                <circle id="rim" cx="0" cy="0" r="7"/>
                <circle id="rim2" cx="0" cy="0" r="3.5"/>
                <g id="zoomPlus">
                        <use xlink:href="#rim" fill="#404040">
                                <set attributeName="fill" to="#808080" begin="zoomplus.mouseover" end="zoomplus.mouseout"/>
                        </use>
                        <path d="M-4,0h8M0,-4v8" fill="none" stroke="white" stroke-width="1.5" pointer-events="none"/>
                </g>
                <g id="zoomMin">
                        <use xlink:href="#rim" fill="#404040">
                                <set attributeName="fill" to="#808080" begin="zoomminus.mouseover" end="zoomminus.mouseout"/>
                        </use>
                        <path d="M-4,0h8" fill="none" stroke="white" stroke-width="1.5" pointer-events="none"/>
                </g>
                <g id="dirArrow">
                        <path fill="none" stroke="white" stroke-width="1.5" d="M0,-3.0v7 M-2.5,-0.5L0,-3.0L2.5,-0.5"/>
                </g>
               <g id="resetDef">
                       <use xlink:href="#rim2" fill="#404040">
                               <set attributeName="fill" to="#808080" begin="reset.mouseover" end="reset.mouseout"/>
                       </use>
               </g>
        </defs>

<script type="text/javascript">
var viewWidth = 511;
var viewHeight = 733;
var sectionId = 'dynsection-1';
</script>
<script xlink:href="svgpan.js"/>
<svg id="graph" class="graph">
<g id="viewport">
<title>Buyer</title>
<!-- Node1 -->
<g id="node1" class="node">
<title>Node1</title>
<g id="a_node1"><a xlink:title="Specialization of User. Describes a Buyer.">
<polygon fill="#bfbfbf" stroke="black" points="128.5,-204.5 128.5,-437.5 328.5,-437.5 328.5,-204.5 128.5,-204.5"/>
<text text-anchor="middle" x="228.5" y="-425.5" font-family="Helvetica,sans-Serif" font-size="10.00">Buyer</text>
<polyline fill="none" stroke="black" points="128.5,-418.5 328.5,-418.5 "/>
<text text-anchor="middle" x="228.5" y="-406.5" font-family="Helvetica,sans-Serif" font-size="10.00"> </text>
<polyline fill="none" stroke="black" points="128.5,-399.5 328.5,-399.5 "/>
<text text-anchor="start" x="136.5" y="-387.5" font-family="Helvetica,sans-Serif" font-size="10.00">+ Buyer(string name, string email)</text>
<text text-anchor="start" x="136.5" y="-376.5" font-family="Helvetica,sans-Serif" font-size="10.00">+ Buyer(const Buyer &amp;)=delete</text>
<text text-anchor="start" x="136.5" y="-365.5" font-family="Helvetica,sans-Serif" font-size="10.00">+ bool isAdmin()</text>
<text text-anchor="start" x="136.5" y="-354.5" font-family="Helvetica,sans-Serif" font-size="10.00">+ void awardBonus(double orderValue)</text>
<text text-anchor="start" x="136.5" y="-343.5" font-family="Helvetica,sans-Serif" font-size="10.00">+ void placeOrder(Item *item, int quantity)</text>
<text text-anchor="start" x="136.5" y="-332.5" font-family="Helvetica,sans-Serif" font-size="10.00">+ void removeFromOrder(Item *item)</text>
<text text-anchor="start" x="136.5" y="-321.5" font-family="Helvetica,sans-Serif" font-size="10.00">+ void checkout()</text>
<text text-anchor="start" x="136.5" y="-310.5" font-family="Helvetica,sans-Serif" font-size="10.00">+ set&lt; int &gt; showCart()</text>
<text text-anchor="start" x="136.5" y="-299.5" font-family="Helvetica,sans-Serif" font-size="10.00">+ pair&lt; Item *, int &gt; getItemOrder(Item *)</text>
<text text-anchor="start" x="136.5" y="-288.5" font-family="Helvetica,sans-Serif" font-size="10.00">+ void clearCart()</text>
<text text-anchor="start" x="136.5" y="-277.5" font-family="Helvetica,sans-Serif" font-size="10.00">+ bool operator==(Buyer &amp;)</text>
<text text-anchor="start" x="136.5" y="-266.5" font-family="Helvetica,sans-Serif" font-size="10.00">+ Buyer &amp; operator=(const Buyer &amp;)=delete</text>
<text text-anchor="start" x="136.5" y="-255.5" font-family="Helvetica,sans-Serif" font-size="10.00">+ int getBonus()</text>
<text text-anchor="start" x="136.5" y="-244.5" font-family="Helvetica,sans-Serif" font-size="10.00">+ Category getCategory()</text>
<text text-anchor="start" x="136.5" y="-233.5" font-family="Helvetica,sans-Serif" font-size="10.00">+ string getCategoryName()</text>
<text text-anchor="start" x="136.5" y="-222.5" font-family="Helvetica,sans-Serif" font-size="10.00">&#45; void setBonus(double)</text>
<text text-anchor="start" x="136.5" y="-211.5" font-family="Helvetica,sans-Serif" font-size="10.00">&#45; void setCategory()</text>
</a>
</g>
</g>
<!-- Node8 -->
<g id="node8" class="node">
<title>Node8</title>
<g id="a_node8"><a xlink:href="classShoppingCart.html" target="_top" xlink:title="Class implementing the shopping cart.">
<polygon fill="none" stroke="black" points="42.5,-0.5 42.5,-156.5 300.5,-156.5 300.5,-0.5 42.5,-0.5"/>
<text text-anchor="middle" x="171.5" y="-144.5" font-family="Helvetica,sans-Serif" font-size="10.00">ShoppingCart</text>
<polyline fill="none" stroke="black" points="42.5,-137.5 300.5,-137.5 "/>
<text text-anchor="middle" x="171.5" y="-125.5" font-family="Helvetica,sans-Serif" font-size="10.00"> </text>
<polyline fill="none" stroke="black" points="42.5,-118.5 300.5,-118.5 "/>
<text text-anchor="start" x="50.5" y="-106.5" font-family="Helvetica,sans-Serif" font-size="10.00">+ ShoppingCart(Buyer *buyer)</text>
<text text-anchor="start" x="50.5" y="-95.5" font-family="Helvetica,sans-Serif" font-size="10.00">+ void addItemOrder(Item *item, int quantity)</text>
<text text-anchor="start" x="50.5" y="-84.5" font-family="Helvetica,sans-Serif" font-size="10.00">+ void removeItemOrder(Item *item)</text>
<text text-anchor="start" x="50.5" y="-73.5" font-family="Helvetica,sans-Serif" font-size="10.00">+ void changeItemOrderQuantity(Item *item, int quantity)</text>
<text text-anchor="start" x="50.5" y="-62.5" font-family="Helvetica,sans-Serif" font-size="10.00">+ pair&lt; Item *, int &gt; getItemOrder(Item *)</text>
<text text-anchor="start" x="50.5" y="-51.5" font-family="Helvetica,sans-Serif" font-size="10.00">+ set&lt; int &gt; showCart()</text>
<text text-anchor="start" x="50.5" y="-40.5" font-family="Helvetica,sans-Serif" font-size="10.00">+ void clearCart()</text>
<text text-anchor="start" x="50.5" y="-29.5" font-family="Helvetica,sans-Serif" font-size="10.00">+ void checkout()</text>
<text text-anchor="start" x="50.5" y="-18.5" font-family="Helvetica,sans-Serif" font-size="10.00">+ double calculateNet()</text>
<text text-anchor="start" x="50.5" y="-7.5" font-family="Helvetica,sans-Serif" font-size="10.00">+ double calculateCourier()</text>
</a>
</g>
</g>
<!-- Node1&#45;&gt;Node8 -->
<g id="edge9" class="edge">
<title>Node1&#45;&gt;Node8</title>
<path fill="none" stroke="#404040" d="M173.24,-204.43C171.41,-198.27 169.8,-192.11 168.5,-186 167.31,-180.42 166.44,-174.63 165.85,-168.77"/>
<polygon fill="none" stroke="#404040" points="165.84,-168.65 161.43,-162.95 164.99,-156.68 169.41,-162.38 165.84,-168.65"/>
<text text-anchor="middle" x="185.5" y="-178" font-family="Helvetica,sans-Serif" font-size="10.00"> &#45;_buyer</text>
</g>
<!-- Node2 -->
<g id="node2" class="node">
<title>Node2</title>
<g id="a_node2"><a xlink:href="classUser.html" target="_top" xlink:title="Base class for all users.">
<polygon fill="none" stroke="black" points="59,-496.5 59,-608.5 216,-608.5 216,-496.5 59,-496.5"/>
<text text-anchor="middle" x="137.5" y="-596.5" font-family="Helvetica,sans-Serif" font-size="10.00">User</text>
<polyline fill="none" stroke="black" points="59,-589.5 216,-589.5 "/>
<text text-anchor="middle" x="137.5" y="-577.5" font-family="Helvetica,sans-Serif" font-size="10.00"> </text>
<polyline fill="none" stroke="black" points="59,-570.5 216,-570.5 "/>
<text text-anchor="start" x="67" y="-558.5" font-family="Helvetica,sans-Serif" font-size="10.00">+ User(string name, string email)</text>
<text text-anchor="start" x="67" y="-547.5" font-family="Helvetica,sans-Serif" font-size="10.00">+ string getName()</text>
<text text-anchor="start" x="67" y="-536.5" font-family="Helvetica,sans-Serif" font-size="10.00">+ string getEmail()</text>
<text text-anchor="start" x="67" y="-525.5" font-family="Helvetica,sans-Serif" font-size="10.00">+ virtual bool isAdmin()=0</text>
<text text-anchor="start" x="67" y="-514.5" font-family="Helvetica,sans-Serif" font-size="10.00">&#45; void setName(string name)</text>
<text text-anchor="start" x="67" y="-503.5" font-family="Helvetica,sans-Serif" font-size="10.00">&#45; void setEmail(string email)</text>
</a>
</g>
</g>
<!-- Node2&#45;&gt;Node1 -->
<g id="edge1" class="edge">
<title>Node2&#45;&gt;Node1</title>
<path fill="none" stroke="midnightblue" d="M163.13,-486.85C169.24,-471.45 175.94,-454.55 182.66,-437.62"/>
<polygon fill="none" stroke="midnightblue" points="159.85,-485.65 159.41,-496.24 166.35,-488.23 159.85,-485.65"/>
</g>
<!-- Node3 -->
<g id="node3" class="node">
<title>Node3</title>
<g id="a_node3"><a xlink:title=" ">
<polygon fill="none" stroke="#bfbfbf" points="117,-667.5 117,-724.5 158,-724.5 158,-667.5 117,-667.5"/>
<text text-anchor="middle" x="137.5" y="-712.5" font-family="Helvetica,sans-Serif" font-size="10.00">string</text>
<polyline fill="none" stroke="#bfbfbf" points="117,-705.5 158,-705.5 "/>
<text text-anchor="middle" x="137.5" y="-693.5" font-family="Helvetica,sans-Serif" font-size="10.00"> </text>
<polyline fill="none" stroke="#bfbfbf" points="117,-686.5 158,-686.5 "/>
<text text-anchor="middle" x="137.5" y="-674.5" font-family="Helvetica,sans-Serif" font-size="10.00"> </text>
</a>
</g>
</g>
<!-- Node3&#45;&gt;Node2 -->
<g id="edge2" class="edge">
<title>Node3&#45;&gt;Node2</title>
<path fill="none" stroke="#404040" d="M137.5,-667.38C137.5,-654.05 137.5,-637.42 137.5,-621.01"/>
<polygon fill="none" stroke="#404040" points="137.5,-620.57 133.5,-614.57 137.5,-608.57 141.5,-614.57 137.5,-620.57"/>
<text text-anchor="middle" x="154.5" y="-641" font-family="Helvetica,sans-Serif" font-size="10.00"> &#45;_email</text>
<text text-anchor="middle" x="154.5" y="-630" font-family="Helvetica,sans-Serif" font-size="10.00">&#45;_name</text>
</g>
<!-- Node4 -->
<g id="node4" class="node">
<title>Node4</title>
<g id="a_node4"><a xlink:title=" ">
<polygon fill="none" stroke="#bfbfbf" points="234,-524 234,-581 263,-581 263,-524 234,-524"/>
<text text-anchor="middle" x="248.5" y="-569" font-family="Helvetica,sans-Serif" font-size="10.00">int</text>
<polyline fill="none" stroke="#bfbfbf" points="234,-562 263,-562 "/>
<text text-anchor="middle" x="248.5" y="-550" font-family="Helvetica,sans-Serif" font-size="10.00"> </text>
<polyline fill="none" stroke="#bfbfbf" points="234,-543 263,-543 "/>
<text text-anchor="middle" x="248.5" y="-531" font-family="Helvetica,sans-Serif" font-size="10.00"> </text>
</a>
</g>
</g>
<!-- Node4&#45;&gt;Node1 -->
<g id="edge3" class="edge">
<title>Node4&#45;&gt;Node1</title>
<path fill="none" stroke="#404040" d="M246.09,-523.82C244.42,-504.67 242.07,-477.69 239.63,-449.67"/>
<polygon fill="none" stroke="#404040" points="239.62,-449.57 235.11,-443.94 238.58,-437.61 243.08,-443.24 239.62,-449.57"/>
<text text-anchor="middle" x="261" y="-464.5" font-family="Helvetica,sans-Serif" font-size="10.00"> &#45;_bonus</text>
</g>
<!-- Node5 -->
<g id="node5" class="node">
<title>Node5</title>
<g id="a_node5"><a xlink:title=" ">
<polygon fill="none" stroke="#bfbfbf" points="281,-524 281,-581 336,-581 336,-524 281,-524"/>
<text text-anchor="middle" x="308.5" y="-569" font-family="Helvetica,sans-Serif" font-size="10.00">Category</text>
<polyline fill="none" stroke="#bfbfbf" points="281,-562 336,-562 "/>
<text text-anchor="middle" x="308.5" y="-550" font-family="Helvetica,sans-Serif" font-size="10.00"> </text>
<polyline fill="none" stroke="#bfbfbf" points="281,-543 336,-543 "/>
<text text-anchor="middle" x="308.5" y="-531" font-family="Helvetica,sans-Serif" font-size="10.00"> </text>
</a>
</g>
</g>
<!-- Node5&#45;&gt;Node1 -->
<g id="edge4" class="edge">
<title>Node5&#45;&gt;Node1</title>
<path fill="none" stroke="#404040" d="M302.24,-523.63C297.68,-504.43 291,-478.43 283.5,-456 282.75,-453.76 281.99,-451.51 281.2,-449.25"/>
<polygon fill="none" stroke="#404040" points="281.17,-449.16 275.39,-444.84 277.16,-437.85 282.93,-442.17 281.17,-449.16"/>
<text text-anchor="middle" x="313.5" y="-464.5" font-family="Helvetica,sans-Serif" font-size="10.00"> &#45;_category</text>
</g>
<!-- Node6 -->
<g id="node6" class="node">
<title>Node6</title>
<g id="a_node6"><a xlink:title=" ">
<polygon fill="none" stroke="#bfbfbf" points="0,-524 0,-581 41,-581 41,-524 0,-524"/>
<text text-anchor="middle" x="20.5" y="-569" font-family="Helvetica,sans-Serif" font-size="10.00">map&lt;</text>
<polyline fill="none" stroke="#bfbfbf" points="0,-562 41,-562 "/>
<text text-anchor="middle" x="20.5" y="-550" font-family="Helvetica,sans-Serif" font-size="10.00"> </text>
<polyline fill="none" stroke="#bfbfbf" points="0,-543 41,-543 "/>
<text text-anchor="middle" x="20.5" y="-531" font-family="Helvetica,sans-Serif" font-size="10.00"> </text>
</a>
</g>
</g>
<!-- Node6&#45;&gt;Node1 -->
<g id="edge5" class="edge">
<title>Node6&#45;&gt;Node1</title>
<path fill="none" stroke="#404040" d="M32.74,-523.94C37.4,-514.68 43.14,-504.55 49.5,-496 69.98,-468.47 94.91,-441.33 119.58,-416.97"/>
<polygon fill="none" stroke="#404040" points="119.7,-416.85 121.2,-409.8 128.29,-408.47 126.79,-415.52 119.7,-416.85"/>
<text text-anchor="middle" x="117" y="-470" font-family="Helvetica,sans-Serif" font-size="10.00"> &#45;_categoryScore</text>
<text text-anchor="middle" x="117" y="-459" font-family="Helvetica,sans-Serif" font-size="10.00">&#45;_categoryString</text>
</g>
<!-- Node6&#45;&gt;Node8 -->
<g id="edge8" class="edge">
<title>Node6&#45;&gt;Node8</title>
<path fill="none" stroke="#404040" d="M21.92,-523.82C25.83,-463.5 39.78,-316.59 86.5,-204 91.66,-191.57 98.18,-179.1 105.3,-167.13"/>
<polygon fill="none" stroke="#404040" points="105.4,-166.96 105.14,-159.75 111.69,-156.74 111.95,-163.94 105.4,-166.96"/>
<text text-anchor="middle" x="103" y="-318.5" font-family="Helvetica,sans-Serif" font-size="10.00"> &#45;_order</text>
</g>
<!-- Node7 -->
<g id="node7" class="node">
<title>Node7</title>
<g id="a_node7"><a xlink:title=" ">
<polygon fill="none" stroke="#bfbfbf" points="354,-524 354,-581 503,-581 503,-524 354,-524"/>
<text text-anchor="middle" x="428.5" y="-569" font-family="Helvetica,sans-Serif" font-size="10.00">static constexpr initializer_list&lt;</text>
<polyline fill="none" stroke="#bfbfbf" points="354,-562 503,-562 "/>
<text text-anchor="middle" x="428.5" y="-550" font-family="Helvetica,sans-Serif" font-size="10.00"> </text>
<polyline fill="none" stroke="#bfbfbf" points="354,-543 503,-543 "/>
<text text-anchor="middle" x="428.5" y="-531" font-family="Helvetica,sans-Serif" font-size="10.00"> </text>
</a>
</g>
</g>
<!-- Node7&#45;&gt;Node1 -->
<g id="edge6" class="edge">
<title>Node7&#45;&gt;Node1</title>
<path fill="none" stroke="#404040" d="M404.38,-523.82C386.96,-503.83 362.09,-475.29 336.51,-445.95"/>
<polygon fill="none" stroke="#404040" points="336.45,-445.87 329.49,-443.97 328.56,-436.82 335.52,-438.72 336.45,-445.87"/>
<text text-anchor="middle" x="391.5" y="-464.5" font-family="Helvetica,sans-Serif" font-size="10.00"> &#45;_categories</text>
</g>
<!-- Node8&#45;&gt;Node1 -->
<g id="edge7" class="edge">
<title>Node8&#45;&gt;Node1</title>
<path fill="none" stroke="#404040" d="M201.29,-156.75C203.2,-162.88 204.97,-169.01 206.5,-175 207.95,-180.64 209.31,-186.43 210.59,-192.29"/>
<polygon fill="none" stroke="#404040" points="210.67,-192.67 215.81,-197.73 213.11,-204.42 207.98,-199.36 210.67,-192.67"/>
<text text-anchor="middle" x="222.5" y="-178" font-family="Helvetica,sans-Serif" font-size="10.00"> &#45;_cart</text>
</g>
</g>
</svg>
        <g id="navigator" transform="translate(0 0)" fill="#404254">
                <rect fill="#f2f5e9" fill-opacity="0.5" stroke="#606060" stroke-width=".5" x="0" y="0" width="60" height="60"/>
                <use id="zoomplus" xlink:href="#zoomPlus" x="17" y="9" onmousedown="handleZoom(evt,'in')"/>
                <use id="zoomminus" xlink:href="#zoomMin" x="42" y="9" onmousedown="handleZoom(evt,'out')"/>
                <use id="reset" xlink:href="#resetDef" x="30" y="36" onmousedown="handleReset()"/>
                <g id="arrowUp" xlink:href="#dirArrow" transform="translate(30 24)" onmousedown="handlePan(0,-1)">
                  <use xlink:href="#rim" fill="#404040">
                        <set attributeName="fill" to="#808080" begin="arrowUp.mouseover" end="arrowUp.mouseout"/>
                  </use>
                  <path fill="none" stroke="white" stroke-width="1.5" d="M0,-3.0v7 M-2.5,-0.5L0,-3.0L2.5,-0.5"/>
                </g>
                <g id="arrowRight" xlink:href="#dirArrow" transform="rotate(90) translate(36 -43)" onmousedown="handlePan(1,0)">
                  <use xlink:href="#rim" fill="#404040">
                        <set attributeName="fill" to="#808080" begin="arrowRight.mouseover" end="arrowRight.mouseout"/>
                  </use>
                  <path fill="none" stroke="white" stroke-width="1.5" d="M0,-3.0v7 M-2.5,-0.5L0,-3.0L2.5,-0.5"/>
                </g>
                <g id="arrowDown" xlink:href="#dirArrow" transform="rotate(180) translate(-30 -48)" onmousedown="handlePan(0,1)">
                  <use xlink:href="#rim" fill="#404040">
                        <set attributeName="fill" to="#808080" begin="arrowDown.mouseover" end="arrowDown.mouseout"/>
                  </use>
                  <path fill="none" stroke="white" stroke-width="1.5" d="M0,-3.0v7 M-2.5,-0.5L0,-3.0L2.5,-0.5"/>
                </g>
                <g id="arrowLeft" xlink:href="#dirArrow" transform="rotate(270) translate(-36 17)" onmousedown="handlePan(-1,0)">
                  <use xlink:href="#rim" fill="#404040">
                        <set attributeName="fill" to="#808080" begin="arrowLeft.mouseover" end="arrowLeft.mouseout"/>
                  </use>
                  <path fill="none" stroke="white" stroke-width="1.5" d="M0,-3.0v7 M-2.5,-0.5L0,-3.0L2.5,-0.5"/>
                </g>
        </g>
        <svg viewBox="0 0 15 15" width="100%" height="30px" preserveAspectRatio="xMaxYMin meet">
         <g id="arrow_out" transform="scale(0.3 0.3)">
          <a xlink:href="classBuyer__coll__graph_org.svg" target="_base">
           <rect id="button" ry="5" rx="5" y="6" x="6" height="38" width="38"
                fill="#f2f5e9" fill-opacity="0.5" stroke="#606060" stroke-width="1.0"/>
           <path id="arrow"
             d="M 11.500037,31.436501 C 11.940474,20.09759 22.043105,11.32322 32.158766,21.979434 L 37.068811,17.246167 C 37.068811,17.246167 37.088388,32 37.088388,32 L 22.160133,31.978069 C 22.160133,31.978069 26.997745,27.140456 26.997745,27.140456 C 18.528582,18.264221 13.291696,25.230495 11.500037,31.436501 z"
             style="fill:#404040;"/>
          </a>
         </g>
        </svg>
</svg>
