<?xml version="1.0" encoding="UTF-8" standalone="no"?>
<!DOCTYPE svg PUBLIC "-//W3C//DTD SVG 1.1//EN"
 "http://www.w3.org/Graphics/SVG/1.1/DTD/svg11.dtd">
<!-- Generated by graphviz version 2.49.3 (20211027.1534)
 -->
<!-- Title: Menu Pages: 1 -->
<svg width="872pt" height="1069pt"
 viewBox="0.00 0.00 871.50 1069.00" xmlns="http://www.w3.org/2000/svg" xmlns:xlink="http://www.w3.org/1999/xlink">
<g id="graph0" class="graph" transform="scale(1 1) rotate(0) translate(4 1065)">
<title>Menu</title>
<!-- Node1 -->
<g id="node1" class="node">
<title>Node1</title>
<g id="a_node1"><a xlink:title="Creates a menu for the e&#45;shop&#39;s interface.">
<polygon fill="#bfbfbf" stroke="black" points="167,-0.5 167,-200.5 339,-200.5 339,-0.5 167,-0.5"/>
<text text-anchor="middle" x="253" y="-188.5" font-family="Helvetica,sans-Serif" font-size="10.00">Menu</text>
<polyline fill="none" stroke="black" points="167,-181.5 339,-181.5 "/>
<text text-anchor="middle" x="253" y="-169.5" font-family="Helvetica,sans-Serif" font-size="10.00"> </text>
<polyline fill="none" stroke="black" points="167,-162.5 339,-162.5 "/>
<text text-anchor="start" x="175" y="-150.5" font-family="Helvetica,sans-Serif" font-size="10.00">+ Menu(EShop *)</text>
<text text-anchor="start" x="175" y="-139.5" font-family="Helvetica,sans-Serif" font-size="10.00">+ ~Menu()</text>
<text text-anchor="start" x="175" y="-128.5" font-family="Helvetica,sans-Serif" font-size="10.00">+ void showWelcome()</text>
<text text-anchor="start" x="175" y="-117.5" font-family="Helvetica,sans-Serif" font-size="10.00">+ void showLoginMenu()</text>
<text text-anchor="start" x="175" y="-106.5" font-family="Helvetica,sans-Serif" font-size="10.00">+ void showOwnerMenu()</text>
<text text-anchor="start" x="175" y="-95.5" font-family="Helvetica,sans-Serif" font-size="10.00">+ void showBuyerMenu()</text>
<text text-anchor="start" x="175" y="-84.5" font-family="Helvetica,sans-Serif" font-size="10.00">+ void showBrowseMenu()</text>
<text text-anchor="start" x="175" y="-73.5" font-family="Helvetica,sans-Serif" font-size="10.00">+ void showCategoryMenu(string)</text>
<text text-anchor="start" x="175" y="-62.5" font-family="Helvetica,sans-Serif" font-size="10.00">+ void showProductMenu(string, int)</text>
<text text-anchor="start" x="175" y="-51.5" font-family="Helvetica,sans-Serif" font-size="10.00">+ void showCartMenu()</text>
<text text-anchor="start" x="175" y="-40.5" font-family="Helvetica,sans-Serif" font-size="10.00">+ void showStatusMenu()</text>
<text text-anchor="start" x="175" y="-29.5" font-family="Helvetica,sans-Serif" font-size="10.00">+ void showCheckoutMenu()</text>
<text text-anchor="start" x="175" y="-18.5" font-family="Helvetica,sans-Serif" font-size="10.00">&#45; void login(string)</text>
<text text-anchor="start" x="175" y="-7.5" font-family="Helvetica,sans-Serif" font-size="10.00">&#45; bool askYesNo(string)</text>
</a>
</g>
</g>
<!-- Node2 -->
<g id="node2" class="node">
<title>Node2</title>
<g id="a_node2"><a xlink:href="classUser.html" target="_top" xlink:title="Base class for all users.">
<polygon fill="none" stroke="black" points="141.5,-832.5 141.5,-944.5 298.5,-944.5 298.5,-832.5 141.5,-832.5"/>
<text text-anchor="middle" x="220" y="-932.5" font-family="Helvetica,sans-Serif" font-size="10.00">User</text>
<polyline fill="none" stroke="black" points="141.5,-925.5 298.5,-925.5 "/>
<text text-anchor="middle" x="220" y="-913.5" font-family="Helvetica,sans-Serif" font-size="10.00"> </text>
<polyline fill="none" stroke="black" points="141.5,-906.5 298.5,-906.5 "/>
<text text-anchor="start" x="149.5" y="-894.5" font-family="Helvetica,sans-Serif" font-size="10.00">+ User(string name, string email)</text>
<text text-anchor="start" x="149.5" y="-883.5" font-family="Helvetica,sans-Serif" font-size="10.00">+ string getName()</text>
<text text-anchor="start" x="149.5" y="-872.5" font-family="Helvetica,sans-Serif" font-size="10.00">+ string getEmail()</text>
<text text-anchor="start" x="149.5" y="-861.5" font-family="Helvetica,sans-Serif" font-size="10.00">+ virtual bool isAdmin()=0</text>
<text text-anchor="start" x="149.5" y="-850.5" font-family="Helvetica,sans-Serif" font-size="10.00">&#45; void setName(string name)</text>
<text text-anchor="start" x="149.5" y="-839.5" font-family="Helvetica,sans-Serif" font-size="10.00">&#45; void setEmail(string email)</text>
</a>
</g>
</g>
<!-- Node2&#45;&gt;Node1 -->
<g id="edge1" class="edge">
<title>Node2&#45;&gt;Node1</title>
<path fill="none" stroke="#404040" d="M213.91,-832.31C199.68,-698.37 167.16,-358.9 190,-248 192.45,-236.08 195.92,-223.94 199.98,-211.99"/>
<polygon fill="none" stroke="#404040" points="200.01,-211.92 198.26,-204.93 204.05,-200.62 205.8,-207.62 200.01,-211.92"/>
<text text-anchor="middle" x="203" y="-508.5" font-family="Helvetica,sans-Serif" font-size="10.00"> &#45;_user</text>
</g>
<!-- Node4 -->
<g id="node4" class="node">
<title>Node4</title>
<g id="a_node4"><a xlink:href="classOwner.html" target="_top" xlink:title="Specialization of User. Describes an Owner.">
<polygon fill="none" stroke="black" points="0,-623 0,-691 164,-691 164,-623 0,-623"/>
<text text-anchor="middle" x="82" y="-679" font-family="Helvetica,sans-Serif" font-size="10.00">Owner</text>
<polyline fill="none" stroke="black" points="0,-672 164,-672 "/>
<text text-anchor="middle" x="82" y="-660" font-family="Helvetica,sans-Serif" font-size="10.00"> </text>
<polyline fill="none" stroke="black" points="0,-653 164,-653 "/>
<text text-anchor="start" x="8" y="-641" font-family="Helvetica,sans-Serif" font-size="10.00">+ Owner(string name, string email)</text>
<text text-anchor="start" x="8" y="-630" font-family="Helvetica,sans-Serif" font-size="10.00">+ bool isAdmin()</text>
</a>
</g>
</g>
<!-- Node2&#45;&gt;Node4 -->
<g id="edge4" class="edge">
<title>Node2&#45;&gt;Node4</title>
<path fill="none" stroke="midnightblue" d="M181.54,-823.53C155.68,-780.54 122.67,-725.64 101.92,-691.14"/>
<polygon fill="none" stroke="midnightblue" points="178.62,-825.47 186.77,-832.24 184.62,-821.86 178.62,-825.47"/>
</g>
<!-- Node6 -->
<g id="node6" class="node">
<title>Node6</title>
<g id="a_node6"><a xlink:href="classBuyer.html" target="_top" xlink:title="Specialization of User. Describes a Buyer.">
<polygon fill="none" stroke="black" points="531,-540.5 531,-773.5 731,-773.5 731,-540.5 531,-540.5"/>
<text text-anchor="middle" x="631" y="-761.5" font-family="Helvetica,sans-Serif" font-size="10.00">Buyer</text>
<polyline fill="none" stroke="black" points="531,-754.5 731,-754.5 "/>
<text text-anchor="middle" x="631" y="-742.5" font-family="Helvetica,sans-Serif" font-size="10.00"> </text>
<polyline fill="none" stroke="black" points="531,-735.5 731,-735.5 "/>
<text text-anchor="start" x="539" y="-723.5" font-family="Helvetica,sans-Serif" font-size="10.00">+ Buyer(string name, string email)</text>
<text text-anchor="start" x="539" y="-712.5" font-family="Helvetica,sans-Serif" font-size="10.00">+ Buyer(const Buyer &amp;)=delete</text>
<text text-anchor="start" x="539" y="-701.5" font-family="Helvetica,sans-Serif" font-size="10.00">+ bool isAdmin()</text>
<text text-anchor="start" x="539" y="-690.5" font-family="Helvetica,sans-Serif" font-size="10.00">+ void awardBonus(double orderValue)</text>
<text text-anchor="start" x="539" y="-679.5" font-family="Helvetica,sans-Serif" font-size="10.00">+ void placeOrder(Item *item, int quantity)</text>
<text text-anchor="start" x="539" y="-668.5" font-family="Helvetica,sans-Serif" font-size="10.00">+ void removeFromOrder(Item *item)</text>
<text text-anchor="start" x="539" y="-657.5" font-family="Helvetica,sans-Serif" font-size="10.00">+ void checkout()</text>
<text text-anchor="start" x="539" y="-646.5" font-family="Helvetica,sans-Serif" font-size="10.00">+ set&lt; int &gt; showCart()</text>
<text text-anchor="start" x="539" y="-635.5" font-family="Helvetica,sans-Serif" font-size="10.00">+ pair&lt; Item *, int &gt; getItemOrder(Item *)</text>
<text text-anchor="start" x="539" y="-624.5" font-family="Helvetica,sans-Serif" font-size="10.00">+ void clearCart()</text>
<text text-anchor="start" x="539" y="-613.5" font-family="Helvetica,sans-Serif" font-size="10.00">+ bool operator==(Buyer &amp;)</text>
<text text-anchor="start" x="539" y="-602.5" font-family="Helvetica,sans-Serif" font-size="10.00">+ Buyer &amp; operator=(const Buyer &amp;)=delete</text>
<text text-anchor="start" x="539" y="-591.5" font-family="Helvetica,sans-Serif" font-size="10.00">+ int getBonus()</text>
<text text-anchor="start" x="539" y="-580.5" font-family="Helvetica,sans-Serif" font-size="10.00">+ Category getCategory()</text>
<text text-anchor="start" x="539" y="-569.5" font-family="Helvetica,sans-Serif" font-size="10.00">+ string getCategoryName()</text>
<text text-anchor="start" x="539" y="-558.5" font-family="Helvetica,sans-Serif" font-size="10.00">&#45; void setBonus(double)</text>
<text text-anchor="start" x="539" y="-547.5" font-family="Helvetica,sans-Serif" font-size="10.00">&#45; void setCategory()</text>
</a>
</g>
</g>
<!-- Node2&#45;&gt;Node6 -->
<g id="edge7" class="edge">
<title>Node2&#45;&gt;Node6</title>
<path fill="none" stroke="midnightblue" d="M308.47,-864.59C370.13,-846.1 452.55,-816.18 517,-774 521.61,-770.98 526.17,-767.76 530.68,-764.36"/>
<polygon fill="none" stroke="midnightblue" points="307.35,-861.27 298.75,-867.46 309.34,-867.98 307.35,-861.27"/>
</g>
<!-- Node3 -->
<g id="node3" class="node">
<title>Node3</title>
<g id="a_node3"><a xlink:title=" ">
<polygon fill="none" stroke="#bfbfbf" points="256.5,-1003.5 256.5,-1060.5 297.5,-1060.5 297.5,-1003.5 256.5,-1003.5"/>
<text text-anchor="middle" x="277" y="-1048.5" font-family="Helvetica,sans-Serif" font-size="10.00">string</text>
<polyline fill="none" stroke="#bfbfbf" points="256.5,-1041.5 297.5,-1041.5 "/>
<text text-anchor="middle" x="277" y="-1029.5" font-family="Helvetica,sans-Serif" font-size="10.00"> </text>
<polyline fill="none" stroke="#bfbfbf" points="256.5,-1022.5 297.5,-1022.5 "/>
<text text-anchor="middle" x="277" y="-1010.5" font-family="Helvetica,sans-Serif" font-size="10.00"> </text>
</a>
</g>
</g>
<!-- Node3&#45;&gt;Node2 -->
<g id="edge2" class="edge">
<title>Node3&#45;&gt;Node2</title>
<path fill="none" stroke="#404040" d="M265.87,-1003.38C260.4,-989.79 253.54,-972.76 246.81,-956.05"/>
<polygon fill="none" stroke="#404040" points="246.67,-955.71 240.72,-951.63 242.19,-944.57 248.14,-948.65 246.67,-955.71"/>
<text text-anchor="middle" x="274" y="-977" font-family="Helvetica,sans-Serif" font-size="10.00"> &#45;_email</text>
<text text-anchor="middle" x="274" y="-966" font-family="Helvetica,sans-Serif" font-size="10.00">&#45;_name</text>
</g>
<!-- Node12 -->
<g id="node12" class="node">
<title>Node12</title>
<g id="a_node12"><a xlink:href="classEShop.html" target="_top" xlink:title="Class implementing the e&#45;shop.">
<polygon fill="none" stroke="black" points="199,-248.5 199,-481.5 471,-481.5 471,-248.5 199,-248.5"/>
<text text-anchor="middle" x="335" y="-469.5" font-family="Helvetica,sans-Serif" font-size="10.00">EShop</text>
<polyline fill="none" stroke="black" points="199,-462.5 471,-462.5 "/>
<text text-anchor="middle" x="335" y="-450.5" font-family="Helvetica,sans-Serif" font-size="10.00"> </text>
<polyline fill="none" stroke="black" points="199,-443.5 471,-443.5 "/>
<text text-anchor="start" x="207" y="-431.5" font-family="Helvetica,sans-Serif" font-size="10.00">+ EShop(string name)</text>
<text text-anchor="start" x="207" y="-420.5" font-family="Helvetica,sans-Serif" font-size="10.00">+ EShop(string name, string owner, string email)</text>
<text text-anchor="start" x="207" y="-409.5" font-family="Helvetica,sans-Serif" font-size="10.00">+ ~EShop()</text>
<text text-anchor="start" x="207" y="-398.5" font-family="Helvetica,sans-Serif" font-size="10.00">+ string getName()</text>
<text text-anchor="start" x="207" y="-387.5" font-family="Helvetica,sans-Serif" font-size="10.00">+ Owner * getOwner()</text>
<text text-anchor="start" x="207" y="-376.5" font-family="Helvetica,sans-Serif" font-size="10.00">+ void addItem(Item *)</text>
<text text-anchor="start" x="207" y="-365.5" font-family="Helvetica,sans-Serif" font-size="10.00">+ void removeItem(Item *)</text>
<text text-anchor="start" x="207" y="-354.5" font-family="Helvetica,sans-Serif" font-size="10.00">+ Item * getItemById(size_t id)</text>
<text text-anchor="start" x="207" y="-343.5" font-family="Helvetica,sans-Serif" font-size="10.00">+ void addBuyer(Buyer *)</text>
<text text-anchor="start" x="207" y="-332.5" font-family="Helvetica,sans-Serif" font-size="10.00">+ void removeBuyer(Buyer *)</text>
<text text-anchor="start" x="207" y="-321.5" font-family="Helvetica,sans-Serif" font-size="10.00">+ Buyer * getBuyerByEmail(string email)</text>
<text text-anchor="start" x="207" y="-310.5" font-family="Helvetica,sans-Serif" font-size="10.00">+ void updateItemStock(Item *, int)</text>
<text text-anchor="start" x="207" y="-299.5" font-family="Helvetica,sans-Serif" font-size="10.00">+ vector&lt; pair&lt; string, int &gt; &gt; getCategories()</text>
<text text-anchor="start" x="207" y="-288.5" font-family="Helvetica,sans-Serif" font-size="10.00">+ vector&lt; pair&lt; int, string &gt; &gt; getProductsInCategory(string)</text>
<text text-anchor="start" x="207" y="-277.5" font-family="Helvetica,sans-Serif" font-size="10.00">+ void showProduct(Item *)</text>
<text text-anchor="start" x="207" y="-266.5" font-family="Helvetica,sans-Serif" font-size="10.00">+ vector&lt; vector&lt; string &gt; &gt; checkStatus()</text>
<text text-anchor="start" x="207" y="-255.5" font-family="Helvetica,sans-Serif" font-size="10.00">&#45; void setOwner(string name, string email)</text>
</a>
</g>
</g>
<!-- Node3&#45;&gt;Node12 -->
<g id="edge16" class="edge">
<title>Node3&#45;&gt;Node12</title>
<path fill="none" stroke="#404040" d="M289.28,-1003.35C295.96,-986.79 303.55,-965.1 307,-945 333.33,-791.48 338.06,-611.96 337.68,-493.99"/>
<polygon fill="none" stroke="#404040" points="337.68,-493.7 333.65,-487.71 337.62,-481.7 341.65,-487.68 337.68,-493.7"/>
<text text-anchor="middle" x="344.5" y="-800.5" font-family="Helvetica,sans-Serif" font-size="10.00"> &#45;_name</text>
</g>
<!-- Node4&#45;&gt;Node1 -->
<g id="edge3" class="edge">
<title>Node4&#45;&gt;Node1</title>
<path fill="none" stroke="#404040" d="M78.25,-622.78C71.56,-550.91 63.14,-377.06 120,-248 129.54,-226.35 143.57,-205.75 158.99,-187.2"/>
<polygon fill="none" stroke="#404040" points="159.09,-187.08 159.96,-179.92 166.9,-177.97 166.03,-185.13 159.09,-187.08"/>
<text text-anchor="middle" x="138.5" y="-362.5" font-family="Helvetica,sans-Serif" font-size="10.00"> &#45;_owner</text>
</g>
<!-- Node4&#45;&gt;Node12 -->
<g id="edge17" class="edge">
<title>Node4&#45;&gt;Node12</title>
<path fill="none" stroke="#404040" d="M85.28,-622.86C90.06,-589.07 101.6,-536.55 129,-500 145.39,-478.14 166.46,-458.84 188.86,-442.18"/>
<polygon fill="none" stroke="#404040" points="189.14,-441.97 191.67,-435.22 198.87,-434.95 196.35,-441.71 189.14,-441.97"/>
<text text-anchor="middle" x="147.5" y="-508.5" font-family="Helvetica,sans-Serif" font-size="10.00"> &#45;_owner</text>
</g>
<!-- Node5 -->
<g id="node5" class="node">
<title>Node5</title>
<g id="a_node5"><a xlink:title=" ">
<polygon fill="none" stroke="#bfbfbf" points="64.5,-860 64.5,-917 99.5,-917 99.5,-860 64.5,-860"/>
<text text-anchor="middle" x="82" y="-905" font-family="Helvetica,sans-Serif" font-size="10.00">bool</text>
<polyline fill="none" stroke="#bfbfbf" points="64.5,-898 99.5,-898 "/>
<text text-anchor="middle" x="82" y="-886" font-family="Helvetica,sans-Serif" font-size="10.00"> </text>
<polyline fill="none" stroke="#bfbfbf" points="64.5,-879 99.5,-879 "/>
<text text-anchor="middle" x="82" y="-867" font-family="Helvetica,sans-Serif" font-size="10.00"> </text>
</a>
</g>
</g>
<!-- Node5&#45;&gt;Node4 -->
<g id="edge5" class="edge">
<title>Node5&#45;&gt;Node4</title>
<path fill="none" stroke="#404040" d="M82,-859.82C82,-821.05 82,-750.12 82,-703.51"/>
<polygon fill="none" stroke="#404040" points="82,-703.35 78,-697.35 82,-691.35 86,-697.35 82,-703.35"/>
<text text-anchor="middle" x="105" y="-800.5" font-family="Helvetica,sans-Serif" font-size="10.00"> &#45;_isAdmin</text>
</g>
<!-- Node6&#45;&gt;Node1 -->
<g id="edge6" class="edge">
<title>Node6&#45;&gt;Node1</title>
<path fill="none" stroke="#404040" d="M544.89,-540.39C533.77,-521.58 523.63,-501.76 516,-482 478.11,-383.83 537.24,-336.29 480,-248 449.11,-200.35 396.67,-165 349.96,-140.98"/>
<polygon fill="none" stroke="#404040" points="349.9,-140.95 342.74,-141.84 339.17,-135.57 346.32,-134.68 349.9,-140.95"/>
<text text-anchor="middle" x="533" y="-362.5" font-family="Helvetica,sans-Serif" font-size="10.00"> &#45;_buyer</text>
</g>
<!-- Node11 -->
<g id="node11" class="node">
<title>Node11</title>
<g id="a_node11"><a xlink:href="classShoppingCart.html" target="_top" xlink:title="Class implementing the shopping cart.">
<polygon fill="none" stroke="black" points="559,-287 559,-443 817,-443 817,-287 559,-287"/>
<text text-anchor="middle" x="688" y="-431" font-family="Helvetica,sans-Serif" font-size="10.00">ShoppingCart</text>
<polyline fill="none" stroke="black" points="559,-424 817,-424 "/>
<text text-anchor="middle" x="688" y="-412" font-family="Helvetica,sans-Serif" font-size="10.00"> </text>
<polyline fill="none" stroke="black" points="559,-405 817,-405 "/>
<text text-anchor="start" x="567" y="-393" font-family="Helvetica,sans-Serif" font-size="10.00">+ ShoppingCart(Buyer *buyer)</text>
<text text-anchor="start" x="567" y="-382" font-family="Helvetica,sans-Serif" font-size="10.00">+ void addItemOrder(Item *item, int quantity)</text>
<text text-anchor="start" x="567" y="-371" font-family="Helvetica,sans-Serif" font-size="10.00">+ void removeItemOrder(Item *item)</text>
<text text-anchor="start" x="567" y="-360" font-family="Helvetica,sans-Serif" font-size="10.00">+ void changeItemOrderQuantity(Item *item, int quantity)</text>
<text text-anchor="start" x="567" y="-349" font-family="Helvetica,sans-Serif" font-size="10.00">+ pair&lt; Item *, int &gt; getItemOrder(Item *)</text>
<text text-anchor="start" x="567" y="-338" font-family="Helvetica,sans-Serif" font-size="10.00">+ set&lt; int &gt; showCart()</text>
<text text-anchor="start" x="567" y="-327" font-family="Helvetica,sans-Serif" font-size="10.00">+ void clearCart()</text>
<text text-anchor="start" x="567" y="-316" font-family="Helvetica,sans-Serif" font-size="10.00">+ void checkout()</text>
<text text-anchor="start" x="567" y="-305" font-family="Helvetica,sans-Serif" font-size="10.00">+ double calculateNet()</text>
<text text-anchor="start" x="567" y="-294" font-family="Helvetica,sans-Serif" font-size="10.00">+ double calculateCourier()</text>
</a>
</g>
</g>
<!-- Node6&#45;&gt;Node11 -->
<g id="edge14" class="edge">
<title>Node6&#45;&gt;Node11</title>
<path fill="none" stroke="#404040" d="M622.85,-540.42C623.62,-526.71 625.23,-512.98 628,-500 631.25,-484.8 636.35,-469.25 642.24,-454.36"/>
<polygon fill="none" stroke="#404040" points="642.3,-454.22 640.89,-447.15 646.88,-443.13 648.29,-450.2 642.3,-454.22"/>
<text text-anchor="middle" x="645" y="-508.5" font-family="Helvetica,sans-Serif" font-size="10.00"> &#45;_buyer</text>
</g>
<!-- Node7 -->
<g id="node7" class="node">
<title>Node7</title>
<g id="a_node7"><a xlink:title=" ">
<polygon fill="none" stroke="#bfbfbf" points="594.5,-860 594.5,-917 623.5,-917 623.5,-860 594.5,-860"/>
<text text-anchor="middle" x="609" y="-905" font-family="Helvetica,sans-Serif" font-size="10.00">int</text>
<polyline fill="none" stroke="#bfbfbf" points="594.5,-898 623.5,-898 "/>
<text text-anchor="middle" x="609" y="-886" font-family="Helvetica,sans-Serif" font-size="10.00"> </text>
<polyline fill="none" stroke="#bfbfbf" points="594.5,-879 623.5,-879 "/>
<text text-anchor="middle" x="609" y="-867" font-family="Helvetica,sans-Serif" font-size="10.00"> </text>
</a>
</g>
</g>
<!-- Node7&#45;&gt;Node6 -->
<g id="edge8" class="edge">
<title>Node7&#45;&gt;Node6</title>
<path fill="none" stroke="#404040" d="M608.23,-859.87C607.96,-840.77 608.1,-814.8 610,-792 610.17,-789.94 610.35,-787.87 610.55,-785.78"/>
<polygon fill="none" stroke="#404040" points="610.56,-785.66 607.2,-779.28 611.79,-773.72 615.16,-780.1 610.56,-785.66"/>
<text text-anchor="middle" x="628.5" y="-800.5" font-family="Helvetica,sans-Serif" font-size="10.00"> &#45;_bonus</text>
</g>
<!-- Node8 -->
<g id="node8" class="node">
<title>Node8</title>
<g id="a_node8"><a xlink:title=" ">
<polygon fill="none" stroke="#bfbfbf" points="641.5,-860 641.5,-917 696.5,-917 696.5,-860 641.5,-860"/>
<text text-anchor="middle" x="669" y="-905" font-family="Helvetica,sans-Serif" font-size="10.00">Category</text>
<polyline fill="none" stroke="#bfbfbf" points="641.5,-898 696.5,-898 "/>
<text text-anchor="middle" x="669" y="-886" font-family="Helvetica,sans-Serif" font-size="10.00"> </text>
<polyline fill="none" stroke="#bfbfbf" points="641.5,-879 696.5,-879 "/>
<text text-anchor="middle" x="669" y="-867" font-family="Helvetica,sans-Serif" font-size="10.00"> </text>
</a>
</g>
</g>
<!-- Node8&#45;&gt;Node6 -->
<g id="edge9" class="edge">
<title>Node8&#45;&gt;Node6</title>
<path fill="none" stroke="#404040" d="M664.42,-859.82C661.25,-840.67 656.78,-813.69 652.14,-785.67"/>
<polygon fill="none" stroke="#404040" points="652.1,-785.45 647.18,-780.18 650.14,-773.61 655.07,-778.88 652.1,-785.45"/>
<text text-anchor="middle" x="681" y="-800.5" font-family="Helvetica,sans-Serif" font-size="10.00"> &#45;_category</text>
</g>
<!-- Node9 -->
<g id="node9" class="node">
<title>Node9</title>
<g id="a_node9"><a xlink:title=" ">
<polygon fill="none" stroke="#bfbfbf" points="476.5,-860 476.5,-917 517.5,-917 517.5,-860 476.5,-860"/>
<text text-anchor="middle" x="497" y="-905" font-family="Helvetica,sans-Serif" font-size="10.00">map&lt;</text>
<polyline fill="none" stroke="#bfbfbf" points="476.5,-898 517.5,-898 "/>
<text text-anchor="middle" x="497" y="-886" font-family="Helvetica,sans-Serif" font-size="10.00"> </text>
<polyline fill="none" stroke="#bfbfbf" points="476.5,-879 517.5,-879 "/>
<text text-anchor="middle" x="497" y="-867" font-family="Helvetica,sans-Serif" font-size="10.00"> </text>
</a>
</g>
</g>
<!-- Node9&#45;&gt;Node6 -->
<g id="edge10" class="edge">
<title>Node9&#45;&gt;Node6</title>
<path fill="none" stroke="#404040" d="M504.83,-859.85C510.91,-840.29 520.28,-813.77 532,-792 533.44,-789.33 534.93,-786.65 536.46,-783.96"/>
<polygon fill="none" stroke="#404040" points="536.46,-783.96 536.06,-776.76 542.55,-773.63 542.95,-780.83 536.46,-783.96"/>
<text text-anchor="middle" x="568.5" y="-806" font-family="Helvetica,sans-Serif" font-size="10.00"> &#45;_categoryScore</text>
<text text-anchor="middle" x="568.5" y="-795" font-family="Helvetica,sans-Serif" font-size="10.00">&#45;_categoryString</text>
</g>
<!-- Node9&#45;&gt;Node11 -->
<g id="edge13" class="edge">
<title>Node9&#45;&gt;Node11</title>
<path fill="none" stroke="#404040" d="M488.6,-859.75C471.73,-798.68 439.36,-649.35 489,-540 494.67,-527.51 538.42,-488.76 583.46,-450.99"/>
<polygon fill="none" stroke="#404040" points="583.56,-450.9 585.6,-443.98 592.77,-443.21 590.73,-450.12 583.56,-450.9"/>
<text text-anchor="middle" x="505.5" y="-654.5" font-family="Helvetica,sans-Serif" font-size="10.00"> &#45;_order</text>
</g>
<!-- Node10 -->
<g id="node10" class="node">
<title>Node10</title>
<g id="a_node10"><a xlink:title=" ">
<polygon fill="none" stroke="#bfbfbf" points="714.5,-860 714.5,-917 863.5,-917 863.5,-860 714.5,-860"/>
<text text-anchor="middle" x="789" y="-905" font-family="Helvetica,sans-Serif" font-size="10.00">static constexpr initializer_list&lt;</text>
<polyline fill="none" stroke="#bfbfbf" points="714.5,-898 863.5,-898 "/>
<text text-anchor="middle" x="789" y="-886" font-family="Helvetica,sans-Serif" font-size="10.00"> </text>
<polyline fill="none" stroke="#bfbfbf" points="714.5,-879 863.5,-879 "/>
<text text-anchor="middle" x="789" y="-867" font-family="Helvetica,sans-Serif" font-size="10.00"> </text>
</a>
</g>
</g>
<!-- Node10&#45;&gt;Node6 -->
<g id="edge11" class="edge">
<title>Node10&#45;&gt;Node6</title>
<path fill="none" stroke="#404040" d="M769.94,-859.82C756.47,-840.25 737.35,-812.48 717.6,-783.79"/>
<polygon fill="none" stroke="#404040" points="717.4,-783.5 710.7,-780.82 710.59,-773.61 717.29,-776.29 717.4,-783.5"/>
<text text-anchor="middle" x="766" y="-800.5" font-family="Helvetica,sans-Serif" font-size="10.00"> &#45;_categories</text>
</g>
<!-- Node11&#45;&gt;Node6 -->
<g id="edge12" class="edge">
<title>Node11&#45;&gt;Node6</title>
<path fill="none" stroke="#404040" d="M678.9,-443.27C675.45,-468.47 671.11,-496.52 666,-522 665.57,-524.16 665.12,-526.34 664.66,-528.53"/>
<polygon fill="none" stroke="#404040" points="664.64,-528.62 667.28,-535.33 662.1,-540.35 659.46,-533.63 664.64,-528.62"/>
<text text-anchor="middle" x="684" y="-508.5" font-family="Helvetica,sans-Serif" font-size="10.00"> &#45;_cart</text>
</g>
<!-- Node12&#45;&gt;Node1 -->
<g id="edge15" class="edge">
<title>Node12&#45;&gt;Node1</title>
<path fill="none" stroke="#404040" d="M298.91,-248.48C295.18,-236.51 291.38,-224.37 287.66,-212.46"/>
<polygon fill="none" stroke="#404040" points="287.55,-212.09 281.94,-207.55 283.97,-200.63 289.57,-205.17 287.55,-212.09"/>
<text text-anchor="middle" x="310.5" y="-222" font-family="Helvetica,sans-Serif" font-size="10.00"> &#45;_eshop</text>
</g>
<!-- Node13 -->
<g id="node13" class="node">
<title>Node13</title>
<g id="a_node13"><a xlink:title=" ">
<polygon fill="none" stroke="#bfbfbf" points="255,-628.5 255,-685.5 305,-685.5 305,-628.5 255,-628.5"/>
<text text-anchor="middle" x="280" y="-673.5" font-family="Helvetica,sans-Serif" font-size="10.00">vector&lt;</text>
<polyline fill="none" stroke="#bfbfbf" points="255,-666.5 305,-666.5 "/>
<text text-anchor="middle" x="280" y="-654.5" font-family="Helvetica,sans-Serif" font-size="10.00"> </text>
<polyline fill="none" stroke="#bfbfbf" points="255,-647.5 305,-647.5 "/>
<text text-anchor="middle" x="280" y="-635.5" font-family="Helvetica,sans-Serif" font-size="10.00"> </text>
</a>
</g>
</g>
<!-- Node13&#45;&gt;Node12 -->
<g id="edge18" class="edge">
<title>Node13&#45;&gt;Node12</title>
<path fill="none" stroke="#404040" d="M277.08,-628.35C274.48,-596.92 272.27,-544.24 281,-500 281.43,-497.83 281.89,-495.66 282.38,-493.47"/>
<polygon fill="none" stroke="#404040" points="282.4,-493.41 279.97,-486.62 285.31,-481.76 287.73,-488.55 282.4,-493.41"/>
<text text-anchor="middle" x="301" y="-514" font-family="Helvetica,sans-Serif" font-size="10.00"> &#45;_buyers</text>
<text text-anchor="middle" x="301" y="-503" font-family="Helvetica,sans-Serif" font-size="10.00">&#45;_items</text>
</g>
</g>
</svg>
