<?xml version="1.0" encoding="UTF-8" standalone="no"?>
<!DOCTYPE svg PUBLIC "-//W3C//DTD SVG 1.1//EN"
 "http://www.w3.org/Graphics/SVG/1.1/DTD/svg11.dtd">
<!-- Generated by graphviz version 2.49.3 (20211027.1534)
 -->
<!-- Title: Owner Pages: 1 -->
<svg width="254pt" height="353pt"
 viewBox="0.00 0.00 253.50 353.00" xmlns="http://www.w3.org/2000/svg" xmlns:xlink="http://www.w3.org/1999/xlink">
<g id="graph0" class="graph" transform="scale(1 1) rotate(0) translate(4 349)">
<title>Owner</title>
<!-- Node1 -->
<g id="node1" class="node">
<title>Node1</title>
<g id="a_node1"><a xlink:title="Specialization of User. Describes an Owner.">
<polygon fill="#bfbfbf" stroke="black" points="81.5,-0.5 81.5,-68.5 245.5,-68.5 245.5,-0.5 81.5,-0.5"/>
<text text-anchor="middle" x="163.5" y="-56.5" font-family="Helvetica,sans-Serif" font-size="10.00">Owner</text>
<polyline fill="none" stroke="black" points="81.5,-49.5 245.5,-49.5 "/>
<text text-anchor="middle" x="163.5" y="-37.5" font-family="Helvetica,sans-Serif" font-size="10.00"> </text>
<polyline fill="none" stroke="black" points="81.5,-30.5 245.5,-30.5 "/>
<text text-anchor="start" x="89.5" y="-18.5" font-family="Helvetica,sans-Serif" font-size="10.00">+ Owner(string name, string email)</text>
<text text-anchor="start" x="89.5" y="-7.5" font-family="Helvetica,sans-Serif" font-size="10.00">+ bool isAdmin()</text>
</a>
</g>
</g>
<!-- Node2 -->
<g id="node2" class="node">
<title>Node2</title>
<g id="a_node2"><a xlink:href="classUser.html" target="_top" xlink:title="Base class for all users.">
<polygon fill="none" stroke="black" points="0,-116.5 0,-228.5 157,-228.5 157,-116.5 0,-116.5"/>
<text text-anchor="middle" x="78.5" y="-216.5" font-family="Helvetica,sans-Serif" font-size="10.00">User</text>
<polyline fill="none" stroke="black" points="0,-209.5 157,-209.5 "/>
<text text-anchor="middle" x="78.5" y="-197.5" font-family="Helvetica,sans-Serif" font-size="10.00"> </text>
<polyline fill="none" stroke="black" points="0,-190.5 157,-190.5 "/>
<text text-anchor="start" x="8" y="-178.5" font-family="Helvetica,sans-Serif" font-size="10.00">+ User(string name, string email)</text>
<text text-anchor="start" x="8" y="-167.5" font-family="Helvetica,sans-Serif" font-size="10.00">+ string getName()</text>
<text text-anchor="start" x="8" y="-156.5" font-family="Helvetica,sans-Serif" font-size="10.00">+ string getEmail()</text>
<text text-anchor="start" x="8" y="-145.5" font-family="Helvetica,sans-Serif" font-size="10.00">+ virtual bool isAdmin()=0</text>
<text text-anchor="start" x="8" y="-134.5" font-family="Helvetica,sans-Serif" font-size="10.00">&#45; void setName(string name)</text>
<text text-anchor="start" x="8" y="-123.5" font-family="Helvetica,sans-Serif" font-size="10.00">&#45; void setEmail(string email)</text>
</a>
</g>
</g>
<!-- Node2&#45;&gt;Node1 -->
<g id="edge1" class="edge">
<title>Node2&#45;&gt;Node1</title>
<path fill="none" stroke="midnightblue" d="M118.57,-107.39C126.98,-93.93 135.53,-80.26 142.87,-68.51"/>
<polygon fill="none" stroke="midnightblue" points="115.4,-105.85 113.07,-116.18 121.34,-109.56 115.4,-105.85"/>
</g>
<!-- Node3 -->
<g id="node3" class="node">
<title>Node3</title>
<g id="a_node3"><a xlink:title=" ">
<polygon fill="none" stroke="#bfbfbf" points="58,-287.5 58,-344.5 99,-344.5 99,-287.5 58,-287.5"/>
<text text-anchor="middle" x="78.5" y="-332.5" font-family="Helvetica,sans-Serif" font-size="10.00">string</text>
<polyline fill="none" stroke="#bfbfbf" points="58,-325.5 99,-325.5 "/>
<text text-anchor="middle" x="78.5" y="-313.5" font-family="Helvetica,sans-Serif" font-size="10.00"> </text>
<polyline fill="none" stroke="#bfbfbf" points="58,-306.5 99,-306.5 "/>
<text text-anchor="middle" x="78.5" y="-294.5" font-family="Helvetica,sans-Serif" font-size="10.00"> </text>
</a>
</g>
</g>
<!-- Node3&#45;&gt;Node2 -->
<g id="edge2" class="edge">
<title>Node3&#45;&gt;Node2</title>
<path fill="none" stroke="#404040" d="M78.5,-287.38C78.5,-274.05 78.5,-257.42 78.5,-241.01"/>
<polygon fill="none" stroke="#404040" points="78.5,-240.57 74.5,-234.57 78.5,-228.57 82.5,-234.57 78.5,-240.57"/>
<text text-anchor="middle" x="95.5" y="-261" font-family="Helvetica,sans-Serif" font-size="10.00"> &#45;_email</text>
<text text-anchor="middle" x="95.5" y="-250" font-family="Helvetica,sans-Serif" font-size="10.00">&#45;_name</text>
</g>
<!-- Node4 -->
<g id="node4" class="node">
<title>Node4</title>
<g id="a_node4"><a xlink:title=" ">
<polygon fill="none" stroke="#bfbfbf" points="175,-144 175,-201 210,-201 210,-144 175,-144"/>
<text text-anchor="middle" x="192.5" y="-189" font-family="Helvetica,sans-Serif" font-size="10.00">bool</text>
<polyline fill="none" stroke="#bfbfbf" points="175,-182 210,-182 "/>
<text text-anchor="middle" x="192.5" y="-170" font-family="Helvetica,sans-Serif" font-size="10.00"> </text>
<polyline fill="none" stroke="#bfbfbf" points="175,-163 210,-163 "/>
<text text-anchor="middle" x="192.5" y="-151" font-family="Helvetica,sans-Serif" font-size="10.00"> </text>
</a>
</g>
</g>
<!-- Node4&#45;&gt;Node1 -->
<g id="edge3" class="edge">
<title>Node4&#45;&gt;Node1</title>
<path fill="none" stroke="#404040" d="M186.63,-143.98C182.76,-125.81 177.59,-101.58 173.12,-80.63"/>
<polygon fill="none" stroke="#404040" points="173.09,-80.48 167.93,-75.45 170.59,-68.75 175.75,-73.78 173.09,-80.48"/>
<text text-anchor="middle" x="198.5" y="-90" font-family="Helvetica,sans-Serif" font-size="10.00"> &#45;_isAdmin</text>
</g>
</g>
</svg>
