<?xml version="1.0" encoding="UTF-8" standalone="no"?>
<!DOCTYPE svg PUBLIC "-//W3C//DTD SVG 1.1//EN"
 "http://www.w3.org/Graphics/SVG/1.1/DTD/svg11.dtd">
<!-- Generated by graphviz version 2.49.3 (20211027.1534)
 -->
<!-- Title: EShop::getName Pages: 1 -->
<!--zoomable 169 -->
<svg id="main" version="1.1" xmlns="http://www.w3.org/2000/svg" xmlns:xlink="http://www.w3.org/1999/xlink" xml:space="preserve" onload="init(evt)">
<style type="text/css"><![CDATA[
.edge:hover path { stroke: red; }
.edge:hover polygon { stroke: red; fill: red; }
]]></style>
<script type="text/javascript"><![CDATA[
var edges = document.getElementsByTagName('g');
if (edges && edges.length) {
  for (var i=0;i<edges.length;i++) {
    if (edges[i].id.substr(0,4)=='edge') {
      edges[i].setAttribute('class','edge');
    }
  }
}
]]></script>
        <defs>
                <circle id="rim" cx="0" cy="0" r="7"/>
                <circle id="rim2" cx="0" cy="0" r="3.5"/>
                <g id="zoomPlus">
                        <use xlink:href="#rim" fill="#404040">
                                <set attributeName="fill" to="#808080" begin="zoomplus.mouseover" end="zoomplus.mouseout"/>
                        </use>
                        <path d="M-4,0h8M0,-4v8" fill="none" stroke="white" stroke-width="1.5" pointer-events="none"/>
                </g>
                <g id="zoomMin">
                        <use xlink:href="#rim" fill="#404040">
                                <set attributeName="fill" to="#808080" begin="zoomminus.mouseover" end="zoomminus.mouseout"/>
                        </use>
                        <path d="M-4,0h8" fill="none" stroke="white" stroke-width="1.5" pointer-events="none"/>
                </g>
                <g id="dirArrow">
                        <path fill="none" stroke="white" stroke-width="1.5" d="M0,-3.0v7 M-2.5,-0.5L0,-3.0L2.5,-0.5"/>
                </g>
               <g id="resetDef">
                       <use xlink:href="#rim2" fill="#404040">
                               <set attributeName="fill" to="#808080" begin="reset.mouseover" end="reset.mouseout"/>
                       </use>
               </g>
        </defs>

<script type="text/javascript">
var viewWidth = 857;
var viewHeight = 169;
var sectionId = 'dynsection-10';
</script>
<script xlink:href="svgpan.js"/>
<svg id="graph" class="graph">
<g id="viewport">
<title>EShop::getName</title>
<!-- Node1 -->
<g id="node1" class="node">
<title>Node1</title>
<g id="a_node1"><a xlink:title="Get the name of the e&#45;shop.">
<polygon fill="#bfbfbf" stroke="black" points="760,-56.5 760,-75.5 849,-75.5 849,-56.5 760,-56.5"/>
<text text-anchor="middle" x="804.5" y="-63.5" font-family="Helvetica,sans-Serif" font-size="10.00">EShop::getName</text>
</a>
</g>
</g>
<!-- Node2 -->
<g id="node2" class="node">
<title>Node2</title>
<g id="a_node2"><a xlink:href="classMenu.html#a6a602f7f37917ae9582719a89246b73b" target="_top" xlink:title=" ">
<polygon fill="none" stroke="black" points="603,-56.5 603,-75.5 724,-75.5 724,-56.5 603,-56.5"/>
<text text-anchor="middle" x="663.5" y="-63.5" font-family="Helvetica,sans-Serif" font-size="10.00">Menu::showOwnerMenu</text>
</a>
</g>
</g>
<!-- Node1&#45;&gt;Node2 -->
<g id="edge1" class="edge">
<title>Node1&#45;&gt;Node2</title>
<path fill="none" stroke="midnightblue" d="M749.86,-66C741.48,-66 732.76,-66 724.24,-66"/>
<polygon fill="midnightblue" stroke="midnightblue" points="749.9,-69.5 759.9,-66 749.9,-62.5 749.9,-69.5"/>
</g>
<!-- Node3 -->
<g id="node3" class="node">
<title>Node3</title>
<g id="a_node3"><a xlink:href="classMenu.html#a1de78dc75d7de7db8bce09a70dbbf77f" target="_top" xlink:title=" ">
<polygon fill="none" stroke="black" points="442,-56.5 442,-75.5 567,-75.5 567,-56.5 442,-56.5"/>
<text text-anchor="middle" x="504.5" y="-63.5" font-family="Helvetica,sans-Serif" font-size="10.00">Menu::showBrowseMenu</text>
</a>
</g>
</g>
<!-- Node2&#45;&gt;Node3 -->
<g id="edge2" class="edge">
<title>Node2&#45;&gt;Node3</title>
<path fill="none" stroke="midnightblue" d="M592.51,-59.29C584.08,-59.22 575.52,-59.25 567.22,-59.39"/>
<polygon fill="midnightblue" stroke="midnightblue" points="592.65,-62.79 602.7,-59.42 592.75,-55.79 592.65,-62.79"/>
</g>
<!-- Node7 -->
<g id="node7" class="node">
<title>Node7</title>
<g id="a_node7"><a xlink:href="classMenu.html#aaef7622e532f3424a27fce4d16dbda47" target="_top" xlink:title=" ">
<polygon fill="none" stroke="black" points="117.5,-141.5 117.5,-160.5 226.5,-160.5 226.5,-141.5 117.5,-141.5"/>
<text text-anchor="middle" x="172" y="-148.5" font-family="Helvetica,sans-Serif" font-size="10.00">Menu::showWelcome</text>
</a>
</g>
</g>
<!-- Node2&#45;&gt;Node7 -->
<g id="edge24" class="edge">
<title>Node2&#45;&gt;Node7</title>
<path fill="none" stroke="midnightblue" d="M611.71,-78.97C597.46,-84.01 581.8,-89.3 567,-93 447.64,-122.86 303.18,-134.9 226.65,-142.51"/>
<polygon fill="midnightblue" stroke="midnightblue" points="613.08,-82.2 621.33,-75.54 610.73,-75.6 613.08,-82.2"/>
</g>
<!-- Node11 -->
<g id="node11" class="node">
<title>Node11</title>
<g id="a_node11"><a xlink:href="classMenu.html#a788512183de460d13b8a2dfb571c03f2" target="_top" xlink:title=" ">
<polygon fill="none" stroke="black" points="444,-0.5 444,-19.5 565,-19.5 565,-0.5 444,-0.5"/>
<text text-anchor="middle" x="504.5" y="-7.5" font-family="Helvetica,sans-Serif" font-size="10.00">Menu::showStatusMenu</text>
</a>
</g>
</g>
<!-- Node2&#45;&gt;Node11 -->
<g id="edge21" class="edge">
<title>Node2&#45;&gt;Node11</title>
<path fill="none" stroke="midnightblue" d="M638.17,-52.28C614.57,-42.04 578.21,-28.71 549.53,-19.57"/>
<polygon fill="midnightblue" stroke="midnightblue" points="636.89,-55.54 647.45,-56.45 639.77,-49.15 636.89,-55.54"/>
</g>
<!-- Node3&#45;&gt;Node2 -->
<g id="edge20" class="edge">
<title>Node3&#45;&gt;Node2</title>
<path fill="none" stroke="midnightblue" d="M577.45,-72.73C585.89,-72.78 594.44,-72.73 602.7,-72.58"/>
<polygon fill="midnightblue" stroke="midnightblue" points="577.26,-69.23 567.22,-72.61 577.18,-76.23 577.26,-69.23"/>
</g>
<!-- Node4 -->
<g id="node4" class="node">
<title>Node4</title>
<g id="a_node4"><a xlink:href="classMenu.html#a2ecf65abb196d80c5a5c354155019a93" target="_top" xlink:title=" ">
<polygon fill="none" stroke="black" points="282,-76.5 282,-95.5 399,-95.5 399,-76.5 282,-76.5"/>
<text text-anchor="middle" x="340.5" y="-83.5" font-family="Helvetica,sans-Serif" font-size="10.00">Menu::showBuyerMenu</text>
</a>
</g>
</g>
<!-- Node3&#45;&gt;Node4 -->
<g id="edge3" class="edge">
<title>Node3&#45;&gt;Node4</title>
<path fill="none" stroke="midnightblue" d="M431.68,-68.16C411.54,-70.47 390.63,-73.45 374.03,-76.45"/>
<polygon fill="midnightblue" stroke="midnightblue" points="432.24,-71.62 441.79,-67.04 431.47,-64.66 432.24,-71.62"/>
</g>
<!-- Node9 -->
<g id="node9" class="node">
<title>Node9</title>
<g id="a_node9"><a xlink:href="classMenu.html#a8bdf4110581d8d8a82f6290f246201e7" target="_top" xlink:title=" ">
<polygon fill="none" stroke="black" points="275,-24.5 275,-43.5 406,-43.5 406,-24.5 275,-24.5"/>
<text text-anchor="middle" x="340.5" y="-31.5" font-family="Helvetica,sans-Serif" font-size="10.00">Menu::showCategoryMenu</text>
</a>
</g>
</g>
<!-- Node3&#45;&gt;Node9 -->
<g id="edge16" class="edge">
<title>Node3&#45;&gt;Node9</title>
<path fill="none" stroke="midnightblue" d="M470.23,-53.85C451.72,-49.16 428.03,-44.13 406.03,-40.12"/>
<polygon fill="midnightblue" stroke="midnightblue" points="469.38,-57.25 479.94,-56.42 471.17,-50.48 469.38,-57.25"/>
</g>
<!-- Node4&#45;&gt;Node2 -->
<g id="edge11" class="edge">
<title>Node4&#45;&gt;Node2</title>
<path fill="none" stroke="midnightblue" d="M409.32,-89.08C454.18,-90.29 514.24,-90.32 567,-85 585.67,-83.12 606.1,-79.3 623.26,-75.57"/>
<polygon fill="midnightblue" stroke="midnightblue" points="409.22,-85.58 399.12,-88.78 409.02,-92.57 409.22,-85.58"/>
</g>
<!-- Node4&#45;&gt;Node3 -->
<g id="edge4" class="edge">
<title>Node4&#45;&gt;Node3</title>
<path fill="none" stroke="midnightblue" d="M409.15,-84.32C430.6,-81.93 453.33,-78.75 471.11,-75.53"/>
<polygon fill="midnightblue" stroke="midnightblue" points="408.66,-80.85 399.08,-85.38 409.4,-87.81 408.66,-80.85"/>
</g>
<!-- Node4&#45;&gt;Node4 -->
<g id="edge5" class="edge">
<title>Node4&#45;&gt;Node4</title>
<path fill="none" stroke="midnightblue" d="M371.19,-104.27C370.31,-109.74 360.08,-114 340.5,-114 311.35,-114 302.93,-104.57 315.22,-95.76"/>
<polygon fill="midnightblue" stroke="midnightblue" points="374.09,-102.32 365.78,-95.76 368.19,-106.07 374.09,-102.32"/>
</g>
<!-- Node5 -->
<g id="node5" class="node">
<title>Node5</title>
<g id="a_node5"><a xlink:href="classMenu.html#a781c392fdcd203e436f5dc6e78f057a8" target="_top" xlink:title=" ">
<polygon fill="none" stroke="black" points="117,-47.5 117,-66.5 227,-66.5 227,-47.5 117,-47.5"/>
<text text-anchor="middle" x="172" y="-54.5" font-family="Helvetica,sans-Serif" font-size="10.00">Menu::showCartMenu</text>
</a>
</g>
</g>
<!-- Node4&#45;&gt;Node5 -->
<g id="edge6" class="edge">
<title>Node4&#45;&gt;Node5</title>
<path fill="none" stroke="midnightblue" d="M303.82,-74.13C281.53,-69.09 252.4,-63.78 227.29,-60.08"/>
<polygon fill="midnightblue" stroke="midnightblue" points="303.31,-77.61 313.85,-76.5 304.92,-70.79 303.31,-77.61"/>
</g>
<!-- Node6 -->
<g id="node6" class="node">
<title>Node6</title>
<g id="a_node6"><a xlink:href="classMenu.html#a3905222cc1c1ec7ed2dce13e16555c52" target="_top" xlink:title=" ">
<polygon fill="none" stroke="black" points="105,-103.5 105,-122.5 239,-122.5 239,-103.5 105,-103.5"/>
<text text-anchor="middle" x="172" y="-110.5" font-family="Helvetica,sans-Serif" font-size="10.00">Menu::showCheckoutMenu</text>
</a>
</g>
</g>
<!-- Node4&#45;&gt;Node6 -->
<g id="edge9" class="edge">
<title>Node4&#45;&gt;Node6</title>
<path fill="none" stroke="midnightblue" d="M271.54,-90.37C246.57,-94.08 219.7,-98.94 200.33,-103.41"/>
<polygon fill="midnightblue" stroke="midnightblue" points="272.33,-93.79 281.73,-88.91 271.34,-86.87 272.33,-93.79"/>
</g>
<!-- Node4&#45;&gt;Node7 -->
<g id="edge12" class="edge">
<title>Node4&#45;&gt;Node7</title>
<path fill="none" stroke="midnightblue" d="M295.39,-99.53C278.05,-107.07 257.83,-116.03 239,-123 220.66,-129.79 198.73,-135.68 185.34,-141.4"/>
<polygon fill="midnightblue" stroke="midnightblue" points="296.9,-102.69 304.69,-95.51 294.12,-96.26 296.9,-102.69"/>
</g>
<!-- Node5&#45;&gt;Node4 -->
<g id="edge7" class="edge">
<title>Node5&#45;&gt;Node4</title>
<path fill="none" stroke="midnightblue" d="M208.88,-68.92C230.12,-73.71 257.52,-78.75 281.73,-82.4"/>
<polygon fill="midnightblue" stroke="midnightblue" points="209.53,-65.47 199,-66.59 207.93,-72.29 209.53,-65.47"/>
</g>
<!-- Node5&#45;&gt;Node5 -->
<g id="edge8" class="edge">
<title>Node5&#45;&gt;Node5</title>
<path fill="none" stroke="midnightblue" d="M197.3,-76.03C195.92,-81.13 187.49,-85 172,-85 147.83,-85 140.84,-75.57 151.04,-66.76"/>
<polygon fill="midnightblue" stroke="midnightblue" points="200.37,-74.33 192.96,-66.76 194.03,-77.3 200.37,-74.33"/>
</g>
<!-- Node6&#45;&gt;Node4 -->
<g id="edge10" class="edge">
<title>Node6&#45;&gt;Node4</title>
<path fill="none" stroke="midnightblue" d="M249.25,-107.36C271.84,-103.84 295.12,-99.53 312.38,-95.54"/>
<polygon fill="midnightblue" stroke="midnightblue" points="248.65,-103.91 239.29,-108.87 249.7,-110.84 248.65,-103.91"/>
</g>
<!-- Node7&#45;&gt;Node2 -->
<g id="edge15" class="edge">
<title>Node7&#45;&gt;Node2</title>
<path fill="none" stroke="midnightblue" d="M236.88,-154.15C315.54,-151.83 452.77,-139.57 567,-111 599.66,-102.83 636.45,-86.96 653.24,-75.64"/>
<polygon fill="midnightblue" stroke="midnightblue" points="236.56,-150.66 226.65,-154.4 236.73,-157.66 236.56,-150.66"/>
</g>
<!-- Node7&#45;&gt;Node4 -->
<g id="edge14" class="edge">
<title>Node7&#45;&gt;Node4</title>
<path fill="none" stroke="midnightblue" d="M236.33,-141.97C237.23,-141.65 238.12,-141.33 239,-141 273.91,-128.07 313.62,-108.32 330.81,-95.6"/>
<polygon fill="midnightblue" stroke="midnightblue" points="234.88,-138.77 226.53,-145.3 237.13,-145.4 234.88,-138.77"/>
</g>
<!-- Node8 -->
<g id="node8" class="node">
<title>Node8</title>
<g id="a_node8"><a xlink:href="classMenu.html#a323509e5b6f4dc00536e87efd65b8b94" target="_top" xlink:title=" ">
<polygon fill="none" stroke="black" points="0,-141.5 0,-160.5 69,-160.5 69,-141.5 0,-141.5"/>
<text text-anchor="middle" x="34.5" y="-148.5" font-family="Helvetica,sans-Serif" font-size="10.00">Menu::Menu</text>
</a>
</g>
</g>
<!-- Node7&#45;&gt;Node8 -->
<g id="edge13" class="edge">
<title>Node7&#45;&gt;Node8</title>
<path fill="none" stroke="midnightblue" d="M107.42,-151C94.21,-151 80.79,-151 69.18,-151"/>
<polygon fill="midnightblue" stroke="midnightblue" points="107.45,-154.5 117.45,-151 107.45,-147.5 107.45,-154.5"/>
</g>
<!-- Node9&#45;&gt;Node3 -->
<g id="edge17" class="edge">
<title>Node9&#45;&gt;Node3</title>
<path fill="none" stroke="midnightblue" d="M374.87,-46.17C394.16,-51.06 419.05,-56.31 441.79,-60.39"/>
<polygon fill="midnightblue" stroke="midnightblue" points="375.61,-42.75 365.05,-43.58 373.82,-49.52 375.61,-42.75"/>
</g>
<!-- Node10 -->
<g id="node10" class="node">
<title>Node10</title>
<g id="a_node10"><a xlink:href="classMenu.html#a957fada7140f67c43e3ee253ae863125" target="_top" xlink:title=" ">
<polygon fill="none" stroke="black" points="109,-9.5 109,-28.5 235,-28.5 235,-9.5 109,-9.5"/>
<text text-anchor="middle" x="172" y="-16.5" font-family="Helvetica,sans-Serif" font-size="10.00">Menu::showProductMenu</text>
</a>
</g>
</g>
<!-- Node9&#45;&gt;Node10 -->
<g id="edge18" class="edge">
<title>Node9&#45;&gt;Node10</title>
<path fill="none" stroke="midnightblue" d="M288.93,-23.18C271.94,-21.12 252.79,-19.3 235.03,-18.04"/>
<polygon fill="midnightblue" stroke="midnightblue" points="288.83,-26.7 299.19,-24.49 289.72,-19.75 288.83,-26.7"/>
</g>
<!-- Node10&#45;&gt;Node9 -->
<g id="edge19" class="edge">
<title>Node10&#45;&gt;Node9</title>
<path fill="none" stroke="midnightblue" d="M223.65,-29.83C239.73,-31.78 257.72,-33.51 274.65,-34.76"/>
<polygon fill="midnightblue" stroke="midnightblue" points="223.76,-26.32 213.4,-28.52 222.88,-33.26 223.76,-26.32"/>
</g>
<!-- Node11&#45;&gt;Node2 -->
<g id="edge22" class="edge">
<title>Node11&#45;&gt;Node2</title>
<path fill="none" stroke="midnightblue" d="M530.08,-23.83C553.65,-34.04 589.78,-47.28 618.35,-56.39"/>
<polygon fill="midnightblue" stroke="midnightblue" points="531.36,-20.57 520.8,-19.66 528.49,-26.95 531.36,-20.57"/>
</g>
<!-- Node11&#45;&gt;Node11 -->
<g id="edge23" class="edge">
<title>Node11&#45;&gt;Node11</title>
<path fill="none" stroke="midnightblue" d="M533.99,-28.65C532.76,-33.94 522.93,-38 504.5,-38 476.42,-38 468.3,-28.57 480.15,-19.76"/>
<polygon fill="midnightblue" stroke="midnightblue" points="536.89,-26.66 528.85,-19.76 530.82,-30.17 536.89,-26.66"/>
</g>
</g>
</svg>
        <g id="navigator" transform="translate(0 0)" fill="#404254">
                <rect fill="#f2f5e9" fill-opacity="0.5" stroke="#606060" stroke-width=".5" x="0" y="0" width="60" height="60"/>
                <use id="zoomplus" xlink:href="#zoomPlus" x="17" y="9" onmousedown="handleZoom(evt,'in')"/>
                <use id="zoomminus" xlink:href="#zoomMin" x="42" y="9" onmousedown="handleZoom(evt,'out')"/>
                <use id="reset" xlink:href="#resetDef" x="30" y="36" onmousedown="handleReset()"/>
                <g id="arrowUp" xlink:href="#dirArrow" transform="translate(30 24)" onmousedown="handlePan(0,-1)">
                  <use xlink:href="#rim" fill="#404040">
                        <set attributeName="fill" to="#808080" begin="arrowUp.mouseover" end="arrowUp.mouseout"/>
                  </use>
                  <path fill="none" stroke="white" stroke-width="1.5" d="M0,-3.0v7 M-2.5,-0.5L0,-3.0L2.5,-0.5"/>
                </g>
                <g id="arrowRight" xlink:href="#dirArrow" transform="rotate(90) translate(36 -43)" onmousedown="handlePan(1,0)">
                  <use xlink:href="#rim" fill="#404040">
                        <set attributeName="fill" to="#808080" begin="arrowRight.mouseover" end="arrowRight.mouseout"/>
                  </use>
                  <path fill="none" stroke="white" stroke-width="1.5" d="M0,-3.0v7 M-2.5,-0.5L0,-3.0L2.5,-0.5"/>
                </g>
                <g id="arrowDown" xlink:href="#dirArrow" transform="rotate(180) translate(-30 -48)" onmousedown="handlePan(0,1)">
                  <use xlink:href="#rim" fill="#404040">
                        <set attributeName="fill" to="#808080" begin="arrowDown.mouseover" end="arrowDown.mouseout"/>
                  </use>
                  <path fill="none" stroke="white" stroke-width="1.5" d="M0,-3.0v7 M-2.5,-0.5L0,-3.0L2.5,-0.5"/>
                </g>
                <g id="arrowLeft" xlink:href="#dirArrow" transform="rotate(270) translate(-36 17)" onmousedown="handlePan(-1,0)">
                  <use xlink:href="#rim" fill="#404040">
                        <set attributeName="fill" to="#808080" begin="arrowLeft.mouseover" end="arrowLeft.mouseout"/>
                  </use>
                  <path fill="none" stroke="white" stroke-width="1.5" d="M0,-3.0v7 M-2.5,-0.5L0,-3.0L2.5,-0.5"/>
                </g>
        </g>
        <svg viewBox="0 0 15 15" width="100%" height="30px" preserveAspectRatio="xMaxYMin meet">
         <g id="arrow_out" transform="scale(0.3 0.3)">
          <a xlink:href="classEShop_afbae917d9662634da9452ff4c1ba732b_icgraph_org.svg" target="_base">
           <rect id="button" ry="5" rx="5" y="6" x="6" height="38" width="38"
                fill="#f2f5e9" fill-opacity="0.5" stroke="#606060" stroke-width="1.0"/>
           <path id="arrow"
             d="M 11.500037,31.436501 C 11.940474,20.09759 22.043105,11.32322 32.158766,21.979434 L 37.068811,17.246167 C 37.068811,17.246167 37.088388,32 37.088388,32 L 22.160133,31.978069 C 22.160133,31.978069 26.997745,27.140456 26.997745,27.140456 C 18.528582,18.264221 13.291696,25.230495 11.500037,31.436501 z"
             style="fill:#404040;"/>
          </a>
         </g>
        </svg>
</svg>
