<?xml version="1.0" encoding="UTF-8" standalone="no"?>
<!DOCTYPE svg PUBLIC "-//W3C//DTD SVG 1.1//EN"
 "http://www.w3.org/Graphics/SVG/1.1/DTD/svg11.dtd">
<!-- Generated by graphviz version 2.49.3 (20211027.1534)
 -->
<!-- Title: Item Pages: 1 -->
<svg width="260pt" height="391pt"
 viewBox="0.00 0.00 260.00 391.00" xmlns="http://www.w3.org/2000/svg" xmlns:xlink="http://www.w3.org/1999/xlink">
<g id="graph0" class="graph" transform="scale(1 1) rotate(0) translate(4 387)">
<title>Item</title>
<!-- Node1 -->
<g id="node1" class="node">
<title>Node1</title>
<g id="a_node1"><a xlink:title="Base class for all other items.">
<polygon fill="#bfbfbf" stroke="black" points="0,-0.5 0,-255.5 252,-255.5 252,-0.5 0,-0.5"/>
<text text-anchor="middle" x="126" y="-243.5" font-family="Helvetica,sans-Serif" font-size="10.00">Item</text>
<polyline fill="none" stroke="black" points="0,-236.5 252,-236.5 "/>
<text text-anchor="middle" x="126" y="-224.5" font-family="Helvetica,sans-Serif" font-size="10.00"> </text>
<polyline fill="none" stroke="black" points="0,-217.5 252,-217.5 "/>
<text text-anchor="start" x="8" y="-205.5" font-family="Helvetica,sans-Serif" font-size="10.00">+ Item(int stock, double price, string name, string desc)</text>
<text text-anchor="start" x="8" y="-194.5" font-family="Helvetica,sans-Serif" font-size="10.00">+ virtual ~Item()</text>
<text text-anchor="start" x="8" y="-183.5" font-family="Helvetica,sans-Serif" font-size="10.00">+ size_t getId()</text>
<text text-anchor="start" x="8" y="-172.5" font-family="Helvetica,sans-Serif" font-size="10.00">+ void setStock(int stock)</text>
<text text-anchor="start" x="8" y="-161.5" font-family="Helvetica,sans-Serif" font-size="10.00">+ int getStock()</text>
<text text-anchor="start" x="8" y="-150.5" font-family="Helvetica,sans-Serif" font-size="10.00">+ void setPrice(double price)</text>
<text text-anchor="start" x="8" y="-139.5" font-family="Helvetica,sans-Serif" font-size="10.00">+ double getPrice()</text>
<text text-anchor="start" x="8" y="-128.5" font-family="Helvetica,sans-Serif" font-size="10.00">+ void setName(string name)</text>
<text text-anchor="start" x="8" y="-117.5" font-family="Helvetica,sans-Serif" font-size="10.00">+ string getName()</text>
<text text-anchor="start" x="8" y="-106.5" font-family="Helvetica,sans-Serif" font-size="10.00">+ void setDescription(string desc)</text>
<text text-anchor="start" x="8" y="-95.5" font-family="Helvetica,sans-Serif" font-size="10.00">+ string getDescription()</text>
<text text-anchor="start" x="8" y="-84.5" font-family="Helvetica,sans-Serif" font-size="10.00">+ string getCategory()</text>
<text text-anchor="start" x="8" y="-73.5" font-family="Helvetica,sans-Serif" font-size="10.00">+ string getBasicInfo()</text>
<text text-anchor="start" x="8" y="-62.5" font-family="Helvetica,sans-Serif" font-size="10.00">+ void setId(size_t)</text>
<text text-anchor="start" x="8" y="-51.5" font-family="Helvetica,sans-Serif" font-size="10.00">+ void setCategory(string)</text>
<text text-anchor="start" x="8" y="-40.5" font-family="Helvetica,sans-Serif" font-size="10.00">+ virtual void setId()=0</text>
<text text-anchor="start" x="8" y="-29.5" font-family="Helvetica,sans-Serif" font-size="10.00">+ virtual string getDetails()=0</text>
<text text-anchor="start" x="8" y="-18.5" font-family="Helvetica,sans-Serif" font-size="10.00">+ operator std::string()</text>
<text text-anchor="start" x="8" y="-7.5" font-family="Helvetica,sans-Serif" font-size="10.00">+ bool operator==(const Item &amp;)</text>
</a>
</g>
</g>
<!-- Node2 -->
<g id="node2" class="node">
<title>Node2</title>
<g id="a_node2"><a xlink:title=" ">
<polygon fill="none" stroke="#bfbfbf" points="23,-325.5 23,-382.5 65,-382.5 65,-325.5 23,-325.5"/>
<text text-anchor="middle" x="44" y="-370.5" font-family="Helvetica,sans-Serif" font-size="10.00">size_t</text>
<polyline fill="none" stroke="#bfbfbf" points="23,-363.5 65,-363.5 "/>
<text text-anchor="middle" x="44" y="-351.5" font-family="Helvetica,sans-Serif" font-size="10.00"> </text>
<polyline fill="none" stroke="#bfbfbf" points="23,-344.5 65,-344.5 "/>
<text text-anchor="middle" x="44" y="-332.5" font-family="Helvetica,sans-Serif" font-size="10.00"> </text>
</a>
</g>
</g>
<!-- Node2&#45;&gt;Node1 -->
<g id="edge1" class="edge">
<title>Node2&#45;&gt;Node1</title>
<path fill="none" stroke="#404040" d="M54.22,-325.08C59.91,-309.53 67.47,-288.88 75.55,-266.82"/>
<polygon fill="none" stroke="#404040" points="75.55,-266.81 73.86,-259.8 79.68,-255.54 81.37,-262.55 75.55,-266.81"/>
<text text-anchor="middle" x="81.5" y="-288" font-family="Helvetica,sans-Serif" font-size="10.00"> &#45;_id</text>
</g>
<!-- Node3 -->
<g id="node3" class="node">
<title>Node3</title>
<g id="a_node3"><a xlink:title=" ">
<polygon fill="none" stroke="#bfbfbf" points="82.5,-325.5 82.5,-382.5 111.5,-382.5 111.5,-325.5 82.5,-325.5"/>
<text text-anchor="middle" x="97" y="-370.5" font-family="Helvetica,sans-Serif" font-size="10.00">int</text>
<polyline fill="none" stroke="#bfbfbf" points="82.5,-363.5 111.5,-363.5 "/>
<text text-anchor="middle" x="97" y="-351.5" font-family="Helvetica,sans-Serif" font-size="10.00"> </text>
<polyline fill="none" stroke="#bfbfbf" points="82.5,-344.5 111.5,-344.5 "/>
<text text-anchor="middle" x="97" y="-332.5" font-family="Helvetica,sans-Serif" font-size="10.00"> </text>
</a>
</g>
</g>
<!-- Node3&#45;&gt;Node1 -->
<g id="edge2" class="edge">
<title>Node3&#45;&gt;Node1</title>
<path fill="none" stroke="#404040" d="M96.15,-325.14C95.98,-309.98 96.27,-290.92 98,-274 98.21,-271.94 98.44,-269.86 98.67,-267.78"/>
<polygon fill="none" stroke="#404040" points="98.69,-267.63 95.47,-261.18 100.18,-255.73 103.4,-262.18 98.69,-267.63"/>
<text text-anchor="middle" x="115.5" y="-288" font-family="Helvetica,sans-Serif" font-size="10.00"> &#45;_stock</text>
</g>
<!-- Node4 -->
<g id="node4" class="node">
<title>Node4</title>
<g id="a_node4"><a xlink:title=" ">
<polygon fill="none" stroke="#bfbfbf" points="132.5,-325.5 132.5,-382.5 177.5,-382.5 177.5,-325.5 132.5,-325.5"/>
<text text-anchor="middle" x="155" y="-370.5" font-family="Helvetica,sans-Serif" font-size="10.00">double</text>
<polyline fill="none" stroke="#bfbfbf" points="132.5,-363.5 177.5,-363.5 "/>
<text text-anchor="middle" x="155" y="-351.5" font-family="Helvetica,sans-Serif" font-size="10.00"> </text>
<polyline fill="none" stroke="#bfbfbf" points="132.5,-344.5 177.5,-344.5 "/>
<text text-anchor="middle" x="155" y="-332.5" font-family="Helvetica,sans-Serif" font-size="10.00"> </text>
</a>
</g>
</g>
<!-- Node4&#45;&gt;Node1 -->
<g id="edge3" class="edge">
<title>Node4&#45;&gt;Node1</title>
<path fill="none" stroke="#404040" d="M151.39,-325.08C149.4,-309.75 146.77,-289.45 143.96,-267.73"/>
<polygon fill="none" stroke="#404040" points="143.92,-267.44 139.19,-262 142.38,-255.54 147.12,-260.97 143.92,-267.44"/>
<text text-anchor="middle" x="164" y="-288" font-family="Helvetica,sans-Serif" font-size="10.00"> &#45;_price</text>
</g>
<!-- Node5 -->
<g id="node5" class="node">
<title>Node5</title>
<g id="a_node5"><a xlink:title=" ">
<polygon fill="none" stroke="#bfbfbf" points="195.5,-325.5 195.5,-382.5 236.5,-382.5 236.5,-325.5 195.5,-325.5"/>
<text text-anchor="middle" x="216" y="-370.5" font-family="Helvetica,sans-Serif" font-size="10.00">string</text>
<polyline fill="none" stroke="#bfbfbf" points="195.5,-363.5 236.5,-363.5 "/>
<text text-anchor="middle" x="216" y="-351.5" font-family="Helvetica,sans-Serif" font-size="10.00"> </text>
<polyline fill="none" stroke="#bfbfbf" points="195.5,-344.5 236.5,-344.5 "/>
<text text-anchor="middle" x="216" y="-332.5" font-family="Helvetica,sans-Serif" font-size="10.00"> </text>
</a>
</g>
</g>
<!-- Node5&#45;&gt;Node1 -->
<g id="edge4" class="edge">
<title>Node5&#45;&gt;Node1</title>
<path fill="none" stroke="#404040" d="M204.78,-325.08C198.54,-309.53 190.24,-288.88 181.38,-266.82"/>
<polygon fill="none" stroke="#404040" points="181.32,-266.67 175.37,-262.6 176.84,-255.54 182.79,-259.61 181.32,-266.67"/>
<text text-anchor="middle" x="220" y="-299" font-family="Helvetica,sans-Serif" font-size="10.00"> &#45;_category</text>
<text text-anchor="middle" x="220" y="-288" font-family="Helvetica,sans-Serif" font-size="10.00">&#45;_desc</text>
<text text-anchor="middle" x="220" y="-277" font-family="Helvetica,sans-Serif" font-size="10.00">&#45;_name</text>
</g>
</g>
</svg>
