<?xml version="1.0" encoding="UTF-8" standalone="no"?>
<!DOCTYPE svg PUBLIC "-//W3C//DTD SVG 1.1//EN"
 "http://www.w3.org/Graphics/SVG/1.1/DTD/svg11.dtd">
<!-- Generated by graphviz version 2.49.3 (20211027.1534)
 -->
<!-- Title: EShop Pages: 1 -->
<svg width="294pt" height="645pt"
 viewBox="0.00 0.00 294.00 645.00" xmlns="http://www.w3.org/2000/svg" xmlns:xlink="http://www.w3.org/1999/xlink">
<g id="graph0" class="graph" transform="scale(1 1) rotate(0) translate(4 641)">
<title>EShop</title>
<!-- Node1 -->
<g id="node1" class="node">
<title>Node1</title>
<g id="a_node1"><a xlink:title="Class implementing the e&#45;shop.">
<polygon fill="#bfbfbf" stroke="black" points="0,-0.5 0,-233.5 272,-233.5 272,-0.5 0,-0.5"/>
<text text-anchor="middle" x="136" y="-221.5" font-family="Helvetica,sans-Serif" font-size="10.00">EShop</text>
<polyline fill="none" stroke="black" points="0,-214.5 272,-214.5 "/>
<text text-anchor="middle" x="136" y="-202.5" font-family="Helvetica,sans-Serif" font-size="10.00"> </text>
<polyline fill="none" stroke="black" points="0,-195.5 272,-195.5 "/>
<text text-anchor="start" x="8" y="-183.5" font-family="Helvetica,sans-Serif" font-size="10.00">+ EShop(string name)</text>
<text text-anchor="start" x="8" y="-172.5" font-family="Helvetica,sans-Serif" font-size="10.00">+ EShop(string name, string owner, string email)</text>
<text text-anchor="start" x="8" y="-161.5" font-family="Helvetica,sans-Serif" font-size="10.00">+ ~EShop()</text>
<text text-anchor="start" x="8" y="-150.5" font-family="Helvetica,sans-Serif" font-size="10.00">+ string getName()</text>
<text text-anchor="start" x="8" y="-139.5" font-family="Helvetica,sans-Serif" font-size="10.00">+ Owner * getOwner()</text>
<text text-anchor="start" x="8" y="-128.5" font-family="Helvetica,sans-Serif" font-size="10.00">+ void addItem(Item *)</text>
<text text-anchor="start" x="8" y="-117.5" font-family="Helvetica,sans-Serif" font-size="10.00">+ void removeItem(Item *)</text>
<text text-anchor="start" x="8" y="-106.5" font-family="Helvetica,sans-Serif" font-size="10.00">+ Item * getItemById(size_t id)</text>
<text text-anchor="start" x="8" y="-95.5" font-family="Helvetica,sans-Serif" font-size="10.00">+ void addBuyer(Buyer *)</text>
<text text-anchor="start" x="8" y="-84.5" font-family="Helvetica,sans-Serif" font-size="10.00">+ void removeBuyer(Buyer *)</text>
<text text-anchor="start" x="8" y="-73.5" font-family="Helvetica,sans-Serif" font-size="10.00">+ Buyer * getBuyerByEmail(string email)</text>
<text text-anchor="start" x="8" y="-62.5" font-family="Helvetica,sans-Serif" font-size="10.00">+ void updateItemStock(Item *, int)</text>
<text text-anchor="start" x="8" y="-51.5" font-family="Helvetica,sans-Serif" font-size="10.00">+ vector&lt; pair&lt; string, int &gt; &gt; getCategories()</text>
<text text-anchor="start" x="8" y="-40.5" font-family="Helvetica,sans-Serif" font-size="10.00">+ vector&lt; pair&lt; int, string &gt; &gt; getProductsInCategory(string)</text>
<text text-anchor="start" x="8" y="-29.5" font-family="Helvetica,sans-Serif" font-size="10.00">+ void showProduct(Item *)</text>
<text text-anchor="start" x="8" y="-18.5" font-family="Helvetica,sans-Serif" font-size="10.00">+ vector&lt; vector&lt; string &gt; &gt; checkStatus()</text>
<text text-anchor="start" x="8" y="-7.5" font-family="Helvetica,sans-Serif" font-size="10.00">&#45; void setOwner(string name, string email)</text>
</a>
</g>
</g>
<!-- Node2 -->
<g id="node2" class="node">
<title>Node2</title>
<g id="a_node2"><a xlink:title=" ">
<polygon fill="none" stroke="#bfbfbf" points="21.5,-579.5 21.5,-636.5 62.5,-636.5 62.5,-579.5 21.5,-579.5"/>
<text text-anchor="middle" x="42" y="-624.5" font-family="Helvetica,sans-Serif" font-size="10.00">string</text>
<polyline fill="none" stroke="#bfbfbf" points="21.5,-617.5 62.5,-617.5 "/>
<text text-anchor="middle" x="42" y="-605.5" font-family="Helvetica,sans-Serif" font-size="10.00"> </text>
<polyline fill="none" stroke="#bfbfbf" points="21.5,-598.5 62.5,-598.5 "/>
<text text-anchor="middle" x="42" y="-586.5" font-family="Helvetica,sans-Serif" font-size="10.00"> </text>
</a>
</g>
</g>
<!-- Node2&#45;&gt;Node1 -->
<g id="edge1" class="edge">
<title>Node2&#45;&gt;Node1</title>
<path fill="none" stroke="#404040" d="M38.01,-579.49C30.9,-524.06 19.06,-395.44 45,-292 48.94,-276.3 54.54,-260.44 61.06,-245.02"/>
<polygon fill="none" stroke="#404040" points="61.13,-244.86 59.89,-237.76 65.96,-233.87 67.21,-240.98 61.13,-244.86"/>
<text text-anchor="middle" x="49.5" y="-382" font-family="Helvetica,sans-Serif" font-size="10.00"> &#45;_name</text>
</g>
<!-- Node4 -->
<g id="node4" class="node">
<title>Node4</title>
<g id="a_node4"><a xlink:href="classUser.html" target="_top" xlink:title="Base class for all users.">
<polygon fill="none" stroke="black" points="54.5,-408.5 54.5,-520.5 211.5,-520.5 211.5,-408.5 54.5,-408.5"/>
<text text-anchor="middle" x="133" y="-508.5" font-family="Helvetica,sans-Serif" font-size="10.00">User</text>
<polyline fill="none" stroke="black" points="54.5,-501.5 211.5,-501.5 "/>
<text text-anchor="middle" x="133" y="-489.5" font-family="Helvetica,sans-Serif" font-size="10.00"> </text>
<polyline fill="none" stroke="black" points="54.5,-482.5 211.5,-482.5 "/>
<text text-anchor="start" x="62.5" y="-470.5" font-family="Helvetica,sans-Serif" font-size="10.00">+ User(string name, string email)</text>
<text text-anchor="start" x="62.5" y="-459.5" font-family="Helvetica,sans-Serif" font-size="10.00">+ string getName()</text>
<text text-anchor="start" x="62.5" y="-448.5" font-family="Helvetica,sans-Serif" font-size="10.00">+ string getEmail()</text>
<text text-anchor="start" x="62.5" y="-437.5" font-family="Helvetica,sans-Serif" font-size="10.00">+ virtual bool isAdmin()=0</text>
<text text-anchor="start" x="62.5" y="-426.5" font-family="Helvetica,sans-Serif" font-size="10.00">&#45; void setName(string name)</text>
<text text-anchor="start" x="62.5" y="-415.5" font-family="Helvetica,sans-Serif" font-size="10.00">&#45; void setEmail(string email)</text>
</a>
</g>
</g>
<!-- Node2&#45;&gt;Node4 -->
<g id="edge4" class="edge">
<title>Node2&#45;&gt;Node4</title>
<path fill="none" stroke="#404040" d="M59.76,-579.38C68.67,-565.53 79.88,-548.11 90.82,-531.09"/>
<polygon fill="none" stroke="#404040" points="91.09,-530.67 90.97,-523.46 97.58,-520.57 97.7,-527.78 91.09,-530.67"/>
<text text-anchor="middle" x="102" y="-553" font-family="Helvetica,sans-Serif" font-size="10.00"> &#45;_email</text>
<text text-anchor="middle" x="102" y="-542" font-family="Helvetica,sans-Serif" font-size="10.00">&#45;_name</text>
</g>
<!-- Node3 -->
<g id="node3" class="node">
<title>Node3</title>
<g id="a_node3"><a xlink:href="classOwner.html" target="_top" xlink:title="Specialization of User. Describes an Owner.">
<polygon fill="none" stroke="black" points="54,-292.5 54,-360.5 218,-360.5 218,-292.5 54,-292.5"/>
<text text-anchor="middle" x="136" y="-348.5" font-family="Helvetica,sans-Serif" font-size="10.00">Owner</text>
<polyline fill="none" stroke="black" points="54,-341.5 218,-341.5 "/>
<text text-anchor="middle" x="136" y="-329.5" font-family="Helvetica,sans-Serif" font-size="10.00"> </text>
<polyline fill="none" stroke="black" points="54,-322.5 218,-322.5 "/>
<text text-anchor="start" x="62" y="-310.5" font-family="Helvetica,sans-Serif" font-size="10.00">+ Owner(string name, string email)</text>
<text text-anchor="start" x="62" y="-299.5" font-family="Helvetica,sans-Serif" font-size="10.00">+ bool isAdmin()</text>
</a>
</g>
</g>
<!-- Node3&#45;&gt;Node1 -->
<g id="edge2" class="edge">
<title>Node3&#45;&gt;Node1</title>
<path fill="none" stroke="#404040" d="M136,-292.16C136,-279.07 136,-263.15 136,-246.31"/>
<polygon fill="none" stroke="#404040" points="136,-245.92 132,-239.92 136,-233.92 140,-239.92 136,-245.92"/>
<text text-anchor="middle" x="154.5" y="-260.5" font-family="Helvetica,sans-Serif" font-size="10.00"> &#45;_owner</text>
</g>
<!-- Node4&#45;&gt;Node3 -->
<g id="edge3" class="edge">
<title>Node4&#45;&gt;Node3</title>
<path fill="none" stroke="midnightblue" d="M134.45,-397.85C134.73,-384.89 135.02,-371.81 135.27,-360.51"/>
<polygon fill="none" stroke="midnightblue" points="130.94,-398.11 134.22,-408.18 137.94,-398.26 130.94,-398.11"/>
</g>
<!-- Node5 -->
<g id="node5" class="node">
<title>Node5</title>
<g id="a_node5"><a xlink:title=" ">
<polygon fill="none" stroke="#bfbfbf" points="229.5,-436 229.5,-493 264.5,-493 264.5,-436 229.5,-436"/>
<text text-anchor="middle" x="247" y="-481" font-family="Helvetica,sans-Serif" font-size="10.00">bool</text>
<polyline fill="none" stroke="#bfbfbf" points="229.5,-474 264.5,-474 "/>
<text text-anchor="middle" x="247" y="-462" font-family="Helvetica,sans-Serif" font-size="10.00"> </text>
<polyline fill="none" stroke="#bfbfbf" points="229.5,-455 264.5,-455 "/>
<text text-anchor="middle" x="247" y="-443" font-family="Helvetica,sans-Serif" font-size="10.00"> </text>
</a>
</g>
</g>
<!-- Node5&#45;&gt;Node3 -->
<g id="edge5" class="edge">
<title>Node5&#45;&gt;Node3</title>
<path fill="none" stroke="#404040" d="M236.49,-435.83C232.34,-426.57 227.1,-416.45 221,-408 211.04,-394.21 198.51,-380.83 186.16,-369.07"/>
<polygon fill="none" stroke="#404040" points="186.04,-368.96 178.91,-367.82 177.23,-360.81 184.35,-361.95 186.04,-368.96"/>
<text text-anchor="middle" x="227" y="-382" font-family="Helvetica,sans-Serif" font-size="10.00"> &#45;_isAdmin</text>
</g>
<!-- Node6 -->
<g id="node6" class="node">
<title>Node6</title>
<g id="a_node6"><a xlink:title=" ">
<polygon fill="none" stroke="#bfbfbf" points="236,-298 236,-355 286,-355 286,-298 236,-298"/>
<text text-anchor="middle" x="261" y="-343" font-family="Helvetica,sans-Serif" font-size="10.00">vector&lt;</text>
<polyline fill="none" stroke="#bfbfbf" points="236,-336 286,-336 "/>
<text text-anchor="middle" x="261" y="-324" font-family="Helvetica,sans-Serif" font-size="10.00"> </text>
<polyline fill="none" stroke="#bfbfbf" points="236,-317 286,-317 "/>
<text text-anchor="middle" x="261" y="-305" font-family="Helvetica,sans-Serif" font-size="10.00"> </text>
</a>
</g>
</g>
<!-- Node6&#45;&gt;Node1 -->
<g id="edge6" class="edge">
<title>Node6&#45;&gt;Node1</title>
<path fill="none" stroke="#404040" d="M244.4,-297.95C235.6,-283.33 224.08,-264.21 211.85,-243.91"/>
<polygon fill="none" stroke="#404040" points="211.79,-243.81 205.27,-240.74 205.6,-233.53 212.12,-236.61 211.79,-243.81"/>
<text text-anchor="middle" x="247" y="-266" font-family="Helvetica,sans-Serif" font-size="10.00"> &#45;_buyers</text>
<text text-anchor="middle" x="247" y="-255" font-family="Helvetica,sans-Serif" font-size="10.00">&#45;_items</text>
</g>
</g>
</svg>
