<?xml version="1.0" encoding="UTF-8" standalone="no"?>
<!DOCTYPE svg PUBLIC "-//W3C//DTD SVG 1.1//EN"
 "http://www.w3.org/Graphics/SVG/1.1/DTD/svg11.dtd">
<!-- Generated by graphviz version 2.49.3 (20211027.1534)
 -->
<!-- Title: ShoppingCart::calculateNet Pages: 1 -->
<svg width="1665pt" height="191pt"
 viewBox="0.00 0.00 1665.00 191.03" xmlns="http://www.w3.org/2000/svg" xmlns:xlink="http://www.w3.org/1999/xlink">
<g id="graph0" class="graph" transform="scale(1 1) rotate(0) translate(4 187.03)">
<title>ShoppingCart::calculateNet</title>
<!-- Node1 -->
<g id="node1" class="node">
<title>Node1</title>
<g id="a_node1"><a xlink:title="Calculates the cost of the order.">
<polygon fill="#bfbfbf" stroke="black" points="1523,-66.5 1523,-85.5 1657,-85.5 1657,-66.5 1523,-66.5"/>
<text text-anchor="middle" x="1590" y="-73.5" font-family="Helvetica,sans-Serif" font-size="10.00">ShoppingCart::calculateNet</text>
</a>
</g>
</g>
<!-- Node2 -->
<g id="node2" class="node">
<title>Node2</title>
<g id="a_node2"><a xlink:href="classShoppingCart.html#aed1f25cafeacfa931c9c2b0b0cd6c442" target="_top" xlink:title="Calculates the cost of the courier.">
<polygon fill="none" stroke="black" points="1338,-66.5 1338,-85.5 1487,-85.5 1487,-66.5 1338,-66.5"/>
<text text-anchor="middle" x="1412.5" y="-73.5" font-family="Helvetica,sans-Serif" font-size="10.00">ShoppingCart::calculateCourier</text>
</a>
</g>
</g>
<!-- Node1&#45;&gt;Node2 -->
<g id="edge1" class="edge">
<title>Node1&#45;&gt;Node2</title>
<path fill="none" stroke="midnightblue" d="M1512.52,-76C1504.15,-76 1495.63,-76 1487.29,-76"/>
<polygon fill="midnightblue" stroke="midnightblue" points="1512.65,-79.5 1522.65,-76 1512.65,-72.5 1512.65,-79.5"/>
</g>
<!-- Node3 -->
<g id="node3" class="node">
<title>Node3</title>
<g id="a_node3"><a xlink:href="classShoppingCart.html#ac63018317b6a7619a80ecbf1d71e2083" target="_top" xlink:title="Show the contents of the cart.">
<polygon fill="none" stroke="black" points="1181,-66.5 1181,-85.5 1302,-85.5 1302,-66.5 1181,-66.5"/>
<text text-anchor="middle" x="1241.5" y="-73.5" font-family="Helvetica,sans-Serif" font-size="10.00">ShoppingCart::showCart</text>
</a>
</g>
</g>
<!-- Node1&#45;&gt;Node3 -->
<g id="edge34" class="edge">
<title>Node1&#45;&gt;Node3</title>
<path fill="none" stroke="midnightblue" d="M1537.3,-87.54C1521.27,-90.6 1503.48,-93.48 1487,-95 1421.06,-101.09 1403.9,-101.49 1338,-95 1319.16,-93.14 1298.52,-89.28 1281.27,-85.51"/>
<polygon fill="midnightblue" stroke="midnightblue" points="1538.43,-90.88 1547.56,-85.51 1537.07,-84.02 1538.43,-90.88"/>
</g>
<!-- Node4 -->
<g id="node4" class="node">
<title>Node4</title>
<g id="a_node4"><a xlink:href="classShoppingCart.html#a95a853a2501345049ecd166db1a54da0" target="_top" xlink:title="Performs the checkout.">
<polygon fill="none" stroke="black" points="1026,-28.5 1026,-47.5 1145,-47.5 1145,-28.5 1026,-28.5"/>
<text text-anchor="middle" x="1085.5" y="-35.5" font-family="Helvetica,sans-Serif" font-size="10.00">ShoppingCart::checkout</text>
</a>
</g>
</g>
<!-- Node1&#45;&gt;Node4 -->
<g id="edge33" class="edge">
<title>Node1&#45;&gt;Node4</title>
<path fill="none" stroke="midnightblue" d="M1535.31,-64.58C1519.79,-61.66 1502.78,-58.84 1487,-57 1366,-42.93 1223.28,-39.22 1145.07,-38.28"/>
<polygon fill="midnightblue" stroke="midnightblue" points="1534.79,-68.04 1545.27,-66.5 1536.11,-61.17 1534.79,-68.04"/>
</g>
<!-- Node2&#45;&gt;Node3 -->
<g id="edge2" class="edge">
<title>Node2&#45;&gt;Node3</title>
<path fill="none" stroke="midnightblue" d="M1327.76,-76C1319.13,-76 1310.49,-76 1302.2,-76"/>
<polygon fill="midnightblue" stroke="midnightblue" points="1327.87,-79.5 1337.87,-76 1327.87,-72.5 1327.87,-79.5"/>
</g>
<!-- Node3&#45;&gt;Node4 -->
<g id="edge3" class="edge">
<title>Node3&#45;&gt;Node4</title>
<path fill="none" stroke="midnightblue" d="M1191.71,-63.96C1170.19,-58.65 1145.27,-52.5 1125.08,-47.52"/>
<polygon fill="midnightblue" stroke="midnightblue" points="1191.09,-67.41 1201.64,-66.41 1192.77,-60.62 1191.09,-67.41"/>
</g>
<!-- Node16 -->
<g id="node16" class="node">
<title>Node16</title>
<g id="a_node16"><a xlink:href="classBuyer.html#a83e2d5ab790fc677189fd6841489bae6" target="_top" xlink:title="Wrapper to ShoppingCart::showCart()">
<polygon fill="none" stroke="black" points="903,-66.5 903,-85.5 990,-85.5 990,-66.5 903,-66.5"/>
<text text-anchor="middle" x="946.5" y="-73.5" font-family="Helvetica,sans-Serif" font-size="10.00">Buyer::showCart</text>
</a>
</g>
</g>
<!-- Node3&#45;&gt;Node16 -->
<g id="edge30" class="edge">
<title>Node3&#45;&gt;Node16</title>
<path fill="none" stroke="midnightblue" d="M1170.65,-76C1114.62,-76 1037.77,-76 990.44,-76"/>
<polygon fill="midnightblue" stroke="midnightblue" points="1170.85,-79.5 1180.85,-76 1170.85,-72.5 1170.85,-79.5"/>
</g>
<!-- Node5 -->
<g id="node5" class="node">
<title>Node5</title>
<g id="a_node5"><a xlink:href="classBuyer.html#a7b3cbe4b02665470d746f1d4cddc7442" target="_top" xlink:title="Wrapper to ShoppingCart::checkout()">
<polygon fill="none" stroke="black" points="903.5,-28.5 903.5,-47.5 989.5,-47.5 989.5,-28.5 903.5,-28.5"/>
<text text-anchor="middle" x="946.5" y="-35.5" font-family="Helvetica,sans-Serif" font-size="10.00">Buyer::checkout</text>
</a>
</g>
</g>
<!-- Node4&#45;&gt;Node5 -->
<g id="edge4" class="edge">
<title>Node4&#45;&gt;Node5</title>
<path fill="none" stroke="midnightblue" d="M1015.39,-38C1006.66,-38 997.94,-38 989.8,-38"/>
<polygon fill="midnightblue" stroke="midnightblue" points="1015.6,-41.5 1025.6,-38 1015.6,-34.5 1015.6,-41.5"/>
</g>
<!-- Node6 -->
<g id="node6" class="node">
<title>Node6</title>
<g id="a_node6"><a xlink:href="classMenu.html#a781c392fdcd203e436f5dc6e78f057a8" target="_top" xlink:title=" ">
<polygon fill="none" stroke="black" points="757,-47.5 757,-66.5 867,-66.5 867,-47.5 757,-47.5"/>
<text text-anchor="middle" x="812" y="-54.5" font-family="Helvetica,sans-Serif" font-size="10.00">Menu::showCartMenu</text>
</a>
</g>
</g>
<!-- Node5&#45;&gt;Node6 -->
<g id="edge5" class="edge">
<title>Node5&#45;&gt;Node6</title>
<path fill="none" stroke="midnightblue" d="M893.27,-45.49C884.64,-46.73 875.68,-48.01 867.01,-49.26"/>
<polygon fill="midnightblue" stroke="midnightblue" points="893.81,-48.95 903.21,-44.06 892.82,-42.02 893.81,-48.95"/>
</g>
<!-- Node15 -->
<g id="node15" class="node">
<title>Node15</title>
<g id="a_node15"><a xlink:href="classMenu.html#a3905222cc1c1ec7ed2dce13e16555c52" target="_top" xlink:title=" ">
<polygon fill="none" stroke="black" points="434,-0.5 434,-19.5 568,-19.5 568,-0.5 434,-0.5"/>
<text text-anchor="middle" x="501" y="-7.5" font-family="Helvetica,sans-Serif" font-size="10.00">Menu::showCheckoutMenu</text>
</a>
</g>
</g>
<!-- Node5&#45;&gt;Node15 -->
<g id="edge29" class="edge">
<title>Node5&#45;&gt;Node15</title>
<path fill="none" stroke="midnightblue" d="M892.92,-34.68C811.89,-29.56 656.6,-19.76 568.08,-14.17"/>
<polygon fill="midnightblue" stroke="midnightblue" points="893.18,-38.2 903.38,-35.34 893.62,-31.22 893.18,-38.2"/>
</g>
<!-- Node6&#45;&gt;Node6 -->
<g id="edge28" class="edge">
<title>Node6&#45;&gt;Node6</title>
<path fill="none" stroke="midnightblue" d="M836.93,-76.03C835.57,-81.13 827.26,-85 812,-85 788.18,-85 781.3,-75.57 791.35,-66.76"/>
<polygon fill="midnightblue" stroke="midnightblue" points="840.02,-74.37 832.65,-66.76 833.66,-77.3 840.02,-74.37"/>
</g>
<!-- Node7 -->
<g id="node7" class="node">
<title>Node7</title>
<g id="a_node7"><a xlink:href="classMenu.html#a2ecf65abb196d80c5a5c354155019a93" target="_top" xlink:title=" ">
<polygon fill="none" stroke="black" points="604,-47.5 604,-66.5 721,-66.5 721,-47.5 604,-47.5"/>
<text text-anchor="middle" x="662.5" y="-54.5" font-family="Helvetica,sans-Serif" font-size="10.00">Menu::showBuyerMenu</text>
</a>
</g>
</g>
<!-- Node6&#45;&gt;Node7 -->
<g id="edge6" class="edge">
<title>Node6&#45;&gt;Node7</title>
<path fill="none" stroke="midnightblue" d="M746.64,-50.3C738.13,-50.21 729.44,-50.24 721.05,-50.4"/>
<polygon fill="midnightblue" stroke="midnightblue" points="746.86,-53.8 756.91,-50.47 746.97,-46.8 746.86,-53.8"/>
</g>
<!-- Node7&#45;&gt;Node6 -->
<g id="edge23" class="edge">
<title>Node7&#45;&gt;Node6</title>
<path fill="none" stroke="midnightblue" d="M731.12,-63.73C739.76,-63.79 748.52,-63.72 756.91,-63.53"/>
<polygon fill="midnightblue" stroke="midnightblue" points="731.1,-60.23 721.05,-63.6 731.01,-67.23 731.1,-60.23"/>
</g>
<!-- Node7&#45;&gt;Node7 -->
<g id="edge22" class="edge">
<title>Node7&#45;&gt;Node7</title>
<path fill="none" stroke="midnightblue" d="M690.13,-75.65C688.97,-80.94 679.76,-85 662.5,-85 636.2,-85 628.59,-75.57 639.69,-66.76"/>
<polygon fill="midnightblue" stroke="midnightblue" points="693.15,-73.89 685.31,-66.76 686.99,-77.22 693.15,-73.89"/>
</g>
<!-- Node8 -->
<g id="node8" class="node">
<title>Node8</title>
<g id="a_node8"><a xlink:href="classMenu.html#a1de78dc75d7de7db8bce09a70dbbf77f" target="_top" xlink:title=" ">
<polygon fill="none" stroke="black" points="438.5,-132.5 438.5,-151.5 563.5,-151.5 563.5,-132.5 438.5,-132.5"/>
<text text-anchor="middle" x="501" y="-139.5" font-family="Helvetica,sans-Serif" font-size="10.00">Menu::showBrowseMenu</text>
</a>
</g>
</g>
<!-- Node7&#45;&gt;Node8 -->
<g id="edge7" class="edge">
<title>Node7&#45;&gt;Node8</title>
<path fill="none" stroke="midnightblue" d="M630.21,-72.06C612.54,-83.33 589.7,-98.15 568,-109 549.46,-118.27 526.44,-125.81 513.06,-132.47"/>
<polygon fill="midnightblue" stroke="midnightblue" points="632.36,-74.84 638.94,-66.54 628.62,-68.93 632.36,-74.84"/>
</g>
<!-- Node11 -->
<g id="node11" class="node">
<title>Node11</title>
<g id="a_node11"><a xlink:href="classMenu.html#a6a602f7f37917ae9582719a89246b73b" target="_top" xlink:title=" ">
<polygon fill="none" stroke="black" points="272,-94.5 272,-113.5 393,-113.5 393,-94.5 272,-94.5"/>
<text text-anchor="middle" x="332.5" y="-101.5" font-family="Helvetica,sans-Serif" font-size="10.00">Menu::showOwnerMenu</text>
</a>
</g>
</g>
<!-- Node7&#45;&gt;Node11 -->
<g id="edge26" class="edge">
<title>Node7&#45;&gt;Node11</title>
<path fill="none" stroke="midnightblue" d="M617.65,-69.12C602.08,-73.07 584.35,-77.17 568,-80 508.93,-90.24 440.67,-96.62 393.08,-100.2"/>
<polygon fill="midnightblue" stroke="midnightblue" points="618.74,-72.46 627.55,-66.56 616.99,-65.68 618.74,-72.46"/>
</g>
<!-- Node13 -->
<g id="node13" class="node">
<title>Node13</title>
<g id="a_node13"><a xlink:href="classMenu.html#aaef7622e532f3424a27fce4d16dbda47" target="_top" xlink:title=" ">
<polygon fill="none" stroke="black" points="113.5,-52.5 113.5,-71.5 222.5,-71.5 222.5,-52.5 113.5,-52.5"/>
<text text-anchor="middle" x="168" y="-59.5" font-family="Helvetica,sans-Serif" font-size="10.00">Menu::showWelcome</text>
</a>
</g>
</g>
<!-- Node7&#45;&gt;Node13 -->
<g id="edge27" class="edge">
<title>Node7&#45;&gt;Node13</title>
<path fill="none" stroke="midnightblue" d="M593.36,-52.86C494.34,-51.17 312.69,-53.16 222.6,-57.06"/>
<polygon fill="midnightblue" stroke="midnightblue" points="593.49,-56.36 603.56,-53.05 593.62,-49.36 593.49,-56.36"/>
</g>
<!-- Node7&#45;&gt;Node15 -->
<g id="edge24" class="edge">
<title>Node7&#45;&gt;Node15</title>
<path fill="none" stroke="midnightblue" d="M634.71,-43.91C613.31,-36.1 582.62,-26.64 556.14,-19.52"/>
<polygon fill="midnightblue" stroke="midnightblue" points="633.54,-47.21 644.13,-47.48 636.02,-40.66 633.54,-47.21"/>
</g>
<!-- Node8&#45;&gt;Node7 -->
<g id="edge8" class="edge">
<title>Node8&#45;&gt;Node7</title>
<path fill="none" stroke="midnightblue" d="M565.47,-128.24C566.32,-127.83 567.16,-127.42 568,-127 602.68,-109.67 640.24,-82.19 655.01,-66.7"/>
<polygon fill="midnightblue" stroke="midnightblue" points="563.78,-125.16 556.1,-132.46 566.66,-131.54 563.78,-125.16"/>
</g>
<!-- Node9 -->
<g id="node9" class="node">
<title>Node9</title>
<g id="a_node9"><a xlink:href="classMenu.html#a8bdf4110581d8d8a82f6290f246201e7" target="_top" xlink:title=" ">
<polygon fill="none" stroke="black" points="267,-132.5 267,-151.5 398,-151.5 398,-132.5 267,-132.5"/>
<text text-anchor="middle" x="332.5" y="-139.5" font-family="Helvetica,sans-Serif" font-size="10.00">Menu::showCategoryMenu</text>
</a>
</g>
</g>
<!-- Node8&#45;&gt;Node9 -->
<g id="edge9" class="edge">
<title>Node8&#45;&gt;Node9</title>
<path fill="none" stroke="midnightblue" d="M428.17,-135.31C418.18,-135.21 407.97,-135.24 398.12,-135.4"/>
<polygon fill="midnightblue" stroke="midnightblue" points="428.42,-138.81 438.47,-135.46 428.53,-131.81 428.42,-138.81"/>
</g>
<!-- Node8&#45;&gt;Node11 -->
<g id="edge13" class="edge">
<title>Node8&#45;&gt;Node11</title>
<path fill="none" stroke="midnightblue" d="M468.79,-129.47C447.54,-123.34 418.73,-116.4 393.15,-111.11"/>
<polygon fill="midnightblue" stroke="midnightblue" points="467.99,-132.89 478.57,-132.41 470,-126.18 467.99,-132.89"/>
</g>
<!-- Node9&#45;&gt;Node8 -->
<g id="edge10" class="edge">
<title>Node9&#45;&gt;Node8</title>
<path fill="none" stroke="midnightblue" d="M408.17,-148.72C418.31,-148.79 428.61,-148.73 438.47,-148.54"/>
<polygon fill="midnightblue" stroke="midnightblue" points="408.16,-145.22 398.12,-148.6 408.08,-152.22 408.16,-145.22"/>
</g>
<!-- Node10 -->
<g id="node10" class="node">
<title>Node10</title>
<g id="a_node10"><a xlink:href="classMenu.html#a957fada7140f67c43e3ee253ae863125" target="_top" xlink:title=" ">
<polygon fill="none" stroke="black" points="105,-150.5 105,-169.5 231,-169.5 231,-150.5 105,-150.5"/>
<text text-anchor="middle" x="168" y="-157.5" font-family="Helvetica,sans-Serif" font-size="10.00">Menu::showProductMenu</text>
</a>
</g>
</g>
<!-- Node9&#45;&gt;Node10 -->
<g id="edge11" class="edge">
<title>Node9&#45;&gt;Node10</title>
<path fill="none" stroke="midnightblue" d="M256.68,-143.56C238.31,-145.48 219.5,-147.92 204.04,-150.45"/>
<polygon fill="midnightblue" stroke="midnightblue" points="257.21,-147.02 266.81,-142.54 256.51,-140.06 257.21,-147.02"/>
</g>
<!-- Node10&#45;&gt;Node9 -->
<g id="edge12" class="edge">
<title>Node10&#45;&gt;Node9</title>
<path fill="none" stroke="midnightblue" d="M241.03,-158.73C260.34,-156.76 280.36,-154.19 296.64,-151.52"/>
<polygon fill="midnightblue" stroke="midnightblue" points="240.63,-155.25 231.02,-159.71 241.31,-162.22 240.63,-155.25"/>
</g>
<!-- Node11&#45;&gt;Node8 -->
<g id="edge14" class="edge">
<title>Node11&#45;&gt;Node8</title>
<path fill="none" stroke="midnightblue" d="M364.85,-116.57C385.57,-122.54 413.43,-129.28 438.47,-134.5"/>
<polygon fill="midnightblue" stroke="midnightblue" points="365.59,-113.14 355,-113.62 363.58,-119.84 365.59,-113.14"/>
</g>
<!-- Node12 -->
<g id="node12" class="node">
<title>Node12</title>
<g id="a_node12"><a xlink:href="classMenu.html#a788512183de460d13b8a2dfb571c03f2" target="_top" xlink:title=" ">
<polygon fill="none" stroke="black" points="107.5,-94.5 107.5,-113.5 228.5,-113.5 228.5,-94.5 107.5,-94.5"/>
<text text-anchor="middle" x="168" y="-101.5" font-family="Helvetica,sans-Serif" font-size="10.00">Menu::showStatusMenu</text>
</a>
</g>
</g>
<!-- Node11&#45;&gt;Node12 -->
<g id="edge15" class="edge">
<title>Node11&#45;&gt;Node12</title>
<path fill="none" stroke="midnightblue" d="M261.85,-97.31C250.77,-97.19 239.4,-97.25 228.58,-97.47"/>
<polygon fill="midnightblue" stroke="midnightblue" points="261.86,-100.81 271.91,-97.47 261.97,-93.81 261.86,-100.81"/>
</g>
<!-- Node11&#45;&gt;Node13 -->
<g id="edge18" class="edge">
<title>Node11&#45;&gt;Node13</title>
<path fill="none" stroke="midnightblue" d="M302.74,-91.27C280.61,-84.1 249.4,-75.67 222.69,-69.49"/>
<polygon fill="midnightblue" stroke="midnightblue" points="301.63,-94.59 312.22,-94.46 303.86,-87.95 301.63,-94.59"/>
</g>
<!-- Node12&#45;&gt;Node11 -->
<g id="edge16" class="edge">
<title>Node12&#45;&gt;Node11</title>
<path fill="none" stroke="midnightblue" d="M238.65,-110.69C249.72,-110.81 261.09,-110.75 271.91,-110.53"/>
<polygon fill="midnightblue" stroke="midnightblue" points="238.63,-107.19 228.58,-110.53 238.52,-114.19 238.63,-107.19"/>
</g>
<!-- Node12&#45;&gt;Node12 -->
<g id="edge17" class="edge">
<title>Node12&#45;&gt;Node12</title>
<path fill="none" stroke="midnightblue" d="M192.55,-123.03C191.21,-128.13 183.03,-132 168,-132 144.54,-132 137.76,-122.57 147.65,-113.76"/>
<polygon fill="midnightblue" stroke="midnightblue" points="195.67,-121.42 188.35,-113.76 189.29,-124.31 195.67,-121.42"/>
</g>
<!-- Node13&#45;&gt;Node7 -->
<g id="edge20" class="edge">
<title>Node13&#45;&gt;Node7</title>
<path fill="none" stroke="midnightblue" d="M232.79,-66.07C329.22,-67.86 510.7,-65.96 603.56,-62.13"/>
<polygon fill="midnightblue" stroke="midnightblue" points="232.67,-62.56 222.6,-65.86 232.52,-69.56 232.67,-62.56"/>
</g>
<!-- Node13&#45;&gt;Node11 -->
<g id="edge21" class="edge">
<title>Node13&#45;&gt;Node11</title>
<path fill="none" stroke="midnightblue" d="M197.87,-74.76C218.38,-81.4 246.65,-89.12 271.91,-95.13"/>
<polygon fill="midnightblue" stroke="midnightblue" points="198.78,-71.38 188.19,-71.5 196.55,-78.01 198.78,-71.38"/>
</g>
<!-- Node14 -->
<g id="node14" class="node">
<title>Node14</title>
<g id="a_node14"><a xlink:href="classMenu.html#a323509e5b6f4dc00536e87efd65b8b94" target="_top" xlink:title=" ">
<polygon fill="none" stroke="black" points="0,-52.5 0,-71.5 69,-71.5 69,-52.5 0,-52.5"/>
<text text-anchor="middle" x="34.5" y="-59.5" font-family="Helvetica,sans-Serif" font-size="10.00">Menu::Menu</text>
</a>
</g>
</g>
<!-- Node13&#45;&gt;Node14 -->
<g id="edge19" class="edge">
<title>Node13&#45;&gt;Node14</title>
<path fill="none" stroke="midnightblue" d="M102.92,-62C91.23,-62 79.47,-62 69.12,-62"/>
<polygon fill="midnightblue" stroke="midnightblue" points="103.13,-65.5 113.13,-62 103.13,-58.5 103.13,-65.5"/>
</g>
<!-- Node15&#45;&gt;Node7 -->
<g id="edge25" class="edge">
<title>Node15&#45;&gt;Node7</title>
<path fill="none" stroke="midnightblue" d="M528.97,-23.16C550.28,-30.93 580.72,-40.31 607.06,-47.4"/>
<polygon fill="midnightblue" stroke="midnightblue" points="530.18,-19.87 519.58,-19.6 527.7,-26.42 530.18,-19.87"/>
</g>
<!-- Node16&#45;&gt;Node6 -->
<g id="edge31" class="edge">
<title>Node16&#45;&gt;Node6</title>
<path fill="none" stroke="midnightblue" d="M892.78,-68.44C884.37,-67.23 875.66,-65.98 867.21,-64.77"/>
<polygon fill="midnightblue" stroke="midnightblue" points="892.45,-71.93 902.85,-69.88 893.44,-65 892.45,-71.93"/>
</g>
<!-- Node16&#45;&gt;Node12 -->
<g id="edge32" class="edge">
<title>Node16&#45;&gt;Node12</title>
<path fill="none" stroke="midnightblue" d="M922.43,-90.9C875.61,-119.66 765.25,-180 663.5,-180 663.5,-180 663.5,-180 500,-180 396.1,-180 366.13,-192.11 267,-161 262.59,-159.62 211.8,-129.52 185.14,-113.64"/>
<polygon fill="midnightblue" stroke="midnightblue" points="924.29,-93.86 930.92,-85.6 920.59,-87.92 924.29,-93.86"/>
</g>
</g>
</svg>
