<?xml version="1.0" encoding="UTF-8" standalone="no"?>
<!DOCTYPE svg PUBLIC "-//W3C//DTD SVG 1.1//EN"
 "http://www.w3.org/Graphics/SVG/1.1/DTD/svg11.dtd">
<!-- Generated by graphviz version 2.49.3 (20211027.1534)
 -->
<!-- Title: Item::setCategory Pages: 1 -->
<svg width="241pt" height="142pt"
 viewBox="0.00 0.00 241.00 142.00" xmlns="http://www.w3.org/2000/svg" xmlns:xlink="http://www.w3.org/1999/xlink">
<g id="graph0" class="graph" transform="scale(1 1) rotate(0) translate(4 138)">
<title>Item::setCategory</title>
<!-- Node1 -->
<g id="node1" class="node">
<title>Node1</title>
<g id="a_node1"><a xlink:title="Set the Item&#39;s category.">
<polygon fill="#bfbfbf" stroke="black" points="141,-57.5 141,-76.5 233,-76.5 233,-57.5 141,-57.5"/>
<text text-anchor="middle" x="187" y="-64.5" font-family="Helvetica,sans-Serif" font-size="10.00">Item::setCategory</text>
</a>
</g>
</g>
<!-- Node2 -->
<g id="node2" class="node">
<title>Node2</title>
<g id="a_node2"><a xlink:href="classNotebook.html#aa5092bc8336a484da213317951240258" target="_top" xlink:title="Constructor for Notebook.">
<polygon fill="none" stroke="black" points="0,-114.5 0,-133.5 105,-133.5 105,-114.5 0,-114.5"/>
<text text-anchor="middle" x="52.5" y="-121.5" font-family="Helvetica,sans-Serif" font-size="10.00">Notebook::Notebook</text>
</a>
</g>
</g>
<!-- Node1&#45;&gt;Node2 -->
<g id="edge1" class="edge">
<title>Node1&#45;&gt;Node2</title>
<path fill="none" stroke="midnightblue" d="M157.86,-80.92C142.4,-88.39 122.8,-97.56 105,-105 97.17,-108.27 88.57,-111.57 80.66,-114.47"/>
<polygon fill="midnightblue" stroke="midnightblue" points="159.43,-84.05 166.89,-76.53 156.37,-77.76 159.43,-84.05"/>
</g>
<!-- Node3 -->
<g id="node3" class="node">
<title>Node3</title>
<g id="a_node3"><a xlink:href="classPaper.html#ab6ede816b36a604b45587838c30c05c0" target="_top" xlink:title="Constructor for Paper.">
<polygon fill="none" stroke="black" points="16.5,-76.5 16.5,-95.5 88.5,-95.5 88.5,-76.5 16.5,-76.5"/>
<text text-anchor="middle" x="52.5" y="-83.5" font-family="Helvetica,sans-Serif" font-size="10.00">Paper::Paper</text>
</a>
</g>
</g>
<!-- Node1&#45;&gt;Node3 -->
<g id="edge2" class="edge">
<title>Node1&#45;&gt;Node3</title>
<path fill="none" stroke="midnightblue" d="M130.65,-74.94C116.53,-76.96 101.73,-79.08 88.91,-80.92"/>
<polygon fill="midnightblue" stroke="midnightblue" points="131.37,-78.37 140.77,-73.49 130.38,-71.44 131.37,-78.37"/>
</g>
<!-- Node4 -->
<g id="node4" class="node">
<title>Node4</title>
<g id="a_node4"><a xlink:href="classPen.html#a0e13574ef77fcec1a3c255a4754dbee7" target="_top" xlink:title="Constructor for Pen.">
<polygon fill="none" stroke="black" points="24.5,-38.5 24.5,-57.5 80.5,-57.5 80.5,-38.5 24.5,-38.5"/>
<text text-anchor="middle" x="52.5" y="-45.5" font-family="Helvetica,sans-Serif" font-size="10.00">Pen::Pen</text>
</a>
</g>
</g>
<!-- Node1&#45;&gt;Node4 -->
<g id="edge3" class="edge">
<title>Node1&#45;&gt;Node4</title>
<path fill="none" stroke="midnightblue" d="M130.76,-59.08C113.5,-56.6 95.22,-53.98 80.77,-51.91"/>
<polygon fill="midnightblue" stroke="midnightblue" points="130.38,-62.56 140.77,-60.51 131.37,-55.63 130.38,-62.56"/>
</g>
<!-- Node5 -->
<g id="node5" class="node">
<title>Node5</title>
<g id="a_node5"><a xlink:href="classPencil.html#a0040515e10922cb450e4408874b57624" target="_top" xlink:title="Constructor for Pencil.">
<polygon fill="none" stroke="black" points="15,-0.5 15,-19.5 90,-19.5 90,-0.5 15,-0.5"/>
<text text-anchor="middle" x="52.5" y="-7.5" font-family="Helvetica,sans-Serif" font-size="10.00">Pencil::Pencil</text>
</a>
</g>
</g>
<!-- Node1&#45;&gt;Node5 -->
<g id="edge4" class="edge">
<title>Node1&#45;&gt;Node5</title>
<path fill="none" stroke="midnightblue" d="M157.86,-53.08C142.4,-45.61 122.8,-36.44 105,-29 97.17,-25.73 88.57,-22.43 80.66,-19.53"/>
<polygon fill="midnightblue" stroke="midnightblue" points="156.37,-56.24 166.89,-57.47 159.43,-49.95 156.37,-56.24"/>
</g>
</g>
</svg>
