<?xml version="1.0" encoding="UTF-8" standalone="no"?>
<!DOCTYPE svg PUBLIC "-//W3C//DTD SVG 1.1//EN"
 "http://www.w3.org/Graphics/SVG/1.1/DTD/svg11.dtd">
<!-- Generated by graphviz version 2.49.3 (20211027.1534)
 -->
<!-- Title: Buyer::showCart Pages: 1 -->
<svg width="998pt" height="191pt"
 viewBox="0.00 0.00 998.00 191.03" xmlns="http://www.w3.org/2000/svg" xmlns:xlink="http://www.w3.org/1999/xlink">
<g id="graph0" class="graph" transform="scale(1 1) rotate(0) translate(4 187.03)">
<title>Buyer::showCart</title>
<!-- Node1 -->
<g id="node1" class="node">
<title>Node1</title>
<g id="a_node1"><a xlink:title="Wrapper to ShoppingCart::showCart()">
<polygon fill="#bfbfbf" stroke="black" points="903,-109.5 903,-128.5 990,-128.5 990,-109.5 903,-109.5"/>
<text text-anchor="middle" x="946.5" y="-116.5" font-family="Helvetica,sans-Serif" font-size="10.00">Buyer::showCart</text>
</a>
</g>
</g>
<!-- Node2 -->
<g id="node2" class="node">
<title>Node2</title>
<g id="a_node2"><a xlink:href="classMenu.html#a781c392fdcd203e436f5dc6e78f057a8" target="_top" xlink:title=" ">
<polygon fill="none" stroke="black" points="757,-71.5 757,-90.5 867,-90.5 867,-71.5 757,-71.5"/>
<text text-anchor="middle" x="812" y="-78.5" font-family="Helvetica,sans-Serif" font-size="10.00">Menu::showCartMenu</text>
</a>
</g>
</g>
<!-- Node1&#45;&gt;Node2 -->
<g id="edge1" class="edge">
<title>Node1&#45;&gt;Node2</title>
<path fill="none" stroke="midnightblue" d="M902.3,-106.61C884.15,-101.41 863.37,-95.45 846.42,-90.59"/>
<polygon fill="midnightblue" stroke="midnightblue" points="901.49,-110.02 912.06,-109.41 903.42,-103.29 901.49,-110.02"/>
</g>
<!-- Node8 -->
<g id="node8" class="node">
<title>Node8</title>
<g id="a_node8"><a xlink:href="classMenu.html#a788512183de460d13b8a2dfb571c03f2" target="_top" xlink:title=" ">
<polygon fill="none" stroke="black" points="107.5,-94.5 107.5,-113.5 228.5,-113.5 228.5,-94.5 107.5,-94.5"/>
<text text-anchor="middle" x="168" y="-101.5" font-family="Helvetica,sans-Serif" font-size="10.00">Menu::showStatusMenu</text>
</a>
</g>
</g>
<!-- Node1&#45;&gt;Node8 -->
<g id="edge25" class="edge">
<title>Node1&#45;&gt;Node8</title>
<path fill="none" stroke="midnightblue" d="M909.87,-131.82C856.88,-149.72 753.85,-180 663.5,-180 663.5,-180 663.5,-180 500,-180 396.1,-180 366.13,-192.11 267,-161 262.59,-159.62 211.8,-129.52 185.14,-113.64"/>
<polygon fill="midnightblue" stroke="midnightblue" points="911.15,-135.09 919.47,-128.53 908.88,-128.46 911.15,-135.09"/>
</g>
<!-- Node2&#45;&gt;Node2 -->
<g id="edge24" class="edge">
<title>Node2&#45;&gt;Node2</title>
<path fill="none" stroke="midnightblue" d="M836.93,-100.03C835.57,-105.13 827.26,-109 812,-109 788.18,-109 781.3,-99.57 791.35,-90.76"/>
<polygon fill="midnightblue" stroke="midnightblue" points="840.02,-98.37 832.65,-90.76 833.66,-101.3 840.02,-98.37"/>
</g>
<!-- Node3 -->
<g id="node3" class="node">
<title>Node3</title>
<g id="a_node3"><a xlink:href="classMenu.html#a2ecf65abb196d80c5a5c354155019a93" target="_top" xlink:title=" ">
<polygon fill="none" stroke="black" points="604,-71.5 604,-90.5 721,-90.5 721,-71.5 604,-71.5"/>
<text text-anchor="middle" x="662.5" y="-78.5" font-family="Helvetica,sans-Serif" font-size="10.00">Menu::showBuyerMenu</text>
</a>
</g>
</g>
<!-- Node2&#45;&gt;Node3 -->
<g id="edge2" class="edge">
<title>Node2&#45;&gt;Node3</title>
<path fill="none" stroke="midnightblue" d="M746.64,-74.3C738.13,-74.21 729.44,-74.24 721.05,-74.4"/>
<polygon fill="midnightblue" stroke="midnightblue" points="746.86,-77.8 756.91,-74.47 746.97,-70.8 746.86,-77.8"/>
</g>
<!-- Node3&#45;&gt;Node2 -->
<g id="edge19" class="edge">
<title>Node3&#45;&gt;Node2</title>
<path fill="none" stroke="midnightblue" d="M731.12,-87.73C739.76,-87.79 748.52,-87.72 756.91,-87.53"/>
<polygon fill="midnightblue" stroke="midnightblue" points="731.1,-84.23 721.05,-87.6 731.01,-91.23 731.1,-84.23"/>
</g>
<!-- Node3&#45;&gt;Node3 -->
<g id="edge18" class="edge">
<title>Node3&#45;&gt;Node3</title>
<path fill="none" stroke="midnightblue" d="M690.13,-99.65C688.97,-104.94 679.76,-109 662.5,-109 636.2,-109 628.59,-99.57 639.69,-90.76"/>
<polygon fill="midnightblue" stroke="midnightblue" points="693.15,-97.89 685.31,-90.76 686.99,-101.22 693.15,-97.89"/>
</g>
<!-- Node4 -->
<g id="node4" class="node">
<title>Node4</title>
<g id="a_node4"><a xlink:href="classMenu.html#a1de78dc75d7de7db8bce09a70dbbf77f" target="_top" xlink:title=" ">
<polygon fill="none" stroke="black" points="438.5,-132.5 438.5,-151.5 563.5,-151.5 563.5,-132.5 438.5,-132.5"/>
<text text-anchor="middle" x="501" y="-139.5" font-family="Helvetica,sans-Serif" font-size="10.00">Menu::showBrowseMenu</text>
</a>
</g>
</g>
<!-- Node3&#45;&gt;Node4 -->
<g id="edge3" class="edge">
<title>Node3&#45;&gt;Node4</title>
<path fill="none" stroke="midnightblue" d="M606.87,-94.16C594.14,-98.94 580.62,-104.21 568,-109 548.17,-116.53 524.8,-124.91 511.87,-132.33"/>
<polygon fill="midnightblue" stroke="midnightblue" points="608.26,-97.38 616.42,-90.62 605.83,-90.82 608.26,-97.38"/>
</g>
<!-- Node7 -->
<g id="node7" class="node">
<title>Node7</title>
<g id="a_node7"><a xlink:href="classMenu.html#a6a602f7f37917ae9582719a89246b73b" target="_top" xlink:title=" ">
<polygon fill="none" stroke="black" points="272,-94.5 272,-113.5 393,-113.5 393,-94.5 272,-94.5"/>
<text text-anchor="middle" x="332.5" y="-101.5" font-family="Helvetica,sans-Serif" font-size="10.00">Menu::showOwnerMenu</text>
</a>
</g>
</g>
<!-- Node3&#45;&gt;Node7 -->
<g id="edge22" class="edge">
<title>Node3&#45;&gt;Node7</title>
<path fill="none" stroke="midnightblue" d="M594,-85.73C534.89,-89.88 449.82,-95.84 393.16,-99.82"/>
<polygon fill="midnightblue" stroke="midnightblue" points="594.26,-89.22 603.99,-85.03 593.77,-82.24 594.26,-89.22"/>
</g>
<!-- Node9 -->
<g id="node9" class="node">
<title>Node9</title>
<g id="a_node9"><a xlink:href="classMenu.html#aaef7622e532f3424a27fce4d16dbda47" target="_top" xlink:title=" ">
<polygon fill="none" stroke="black" points="113.5,-52.5 113.5,-71.5 222.5,-71.5 222.5,-52.5 113.5,-52.5"/>
<text text-anchor="middle" x="168" y="-59.5" font-family="Helvetica,sans-Serif" font-size="10.00">Menu::showWelcome</text>
</a>
</g>
</g>
<!-- Node3&#45;&gt;Node9 -->
<g id="edge23" class="edge">
<title>Node3&#45;&gt;Node9</title>
<path fill="none" stroke="midnightblue" d="M593.36,-73.54C494.34,-67.03 312.69,-60.16 222.6,-59.67"/>
<polygon fill="midnightblue" stroke="midnightblue" points="593.34,-77.04 603.56,-74.23 593.81,-70.06 593.34,-77.04"/>
</g>
<!-- Node11 -->
<g id="node11" class="node">
<title>Node11</title>
<g id="a_node11"><a xlink:href="classMenu.html#a3905222cc1c1ec7ed2dce13e16555c52" target="_top" xlink:title=" ">
<polygon fill="none" stroke="black" points="434,-0.5 434,-19.5 568,-19.5 568,-0.5 434,-0.5"/>
<text text-anchor="middle" x="501" y="-7.5" font-family="Helvetica,sans-Serif" font-size="10.00">Menu::showCheckoutMenu</text>
</a>
</g>
</g>
<!-- Node3&#45;&gt;Node11 -->
<g id="edge20" class="edge">
<title>Node3&#45;&gt;Node11</title>
<path fill="none" stroke="midnightblue" d="M645.21,-65.53C626.77,-53.15 595.69,-36.94 568,-25 563.75,-23.16 559.3,-21.35 554.81,-19.61"/>
<polygon fill="midnightblue" stroke="midnightblue" points="643.24,-68.43 653.4,-71.44 647.34,-62.75 643.24,-68.43"/>
</g>
<!-- Node4&#45;&gt;Node3 -->
<g id="edge4" class="edge">
<title>Node4&#45;&gt;Node3</title>
<path fill="none" stroke="midnightblue" d="M563,-128.89C564.68,-128.26 566.35,-127.62 568,-127 598.52,-115.41 634.34,-101.01 651.44,-90.58"/>
<polygon fill="midnightblue" stroke="midnightblue" points="561.39,-125.75 553.22,-132.5 563.81,-132.32 561.39,-125.75"/>
</g>
<!-- Node5 -->
<g id="node5" class="node">
<title>Node5</title>
<g id="a_node5"><a xlink:href="classMenu.html#a8bdf4110581d8d8a82f6290f246201e7" target="_top" xlink:title=" ">
<polygon fill="none" stroke="black" points="267,-132.5 267,-151.5 398,-151.5 398,-132.5 267,-132.5"/>
<text text-anchor="middle" x="332.5" y="-139.5" font-family="Helvetica,sans-Serif" font-size="10.00">Menu::showCategoryMenu</text>
</a>
</g>
</g>
<!-- Node4&#45;&gt;Node5 -->
<g id="edge5" class="edge">
<title>Node4&#45;&gt;Node5</title>
<path fill="none" stroke="midnightblue" d="M428.17,-135.31C418.18,-135.21 407.97,-135.24 398.12,-135.4"/>
<polygon fill="midnightblue" stroke="midnightblue" points="428.42,-138.81 438.47,-135.46 428.53,-131.81 428.42,-138.81"/>
</g>
<!-- Node4&#45;&gt;Node7 -->
<g id="edge9" class="edge">
<title>Node4&#45;&gt;Node7</title>
<path fill="none" stroke="midnightblue" d="M468.79,-129.47C447.54,-123.34 418.73,-116.4 393.15,-111.11"/>
<polygon fill="midnightblue" stroke="midnightblue" points="467.99,-132.89 478.57,-132.41 470,-126.18 467.99,-132.89"/>
</g>
<!-- Node5&#45;&gt;Node4 -->
<g id="edge6" class="edge">
<title>Node5&#45;&gt;Node4</title>
<path fill="none" stroke="midnightblue" d="M408.17,-148.72C418.31,-148.79 428.61,-148.73 438.47,-148.54"/>
<polygon fill="midnightblue" stroke="midnightblue" points="408.16,-145.22 398.12,-148.6 408.08,-152.22 408.16,-145.22"/>
</g>
<!-- Node6 -->
<g id="node6" class="node">
<title>Node6</title>
<g id="a_node6"><a xlink:href="classMenu.html#a957fada7140f67c43e3ee253ae863125" target="_top" xlink:title=" ">
<polygon fill="none" stroke="black" points="105,-150.5 105,-169.5 231,-169.5 231,-150.5 105,-150.5"/>
<text text-anchor="middle" x="168" y="-157.5" font-family="Helvetica,sans-Serif" font-size="10.00">Menu::showProductMenu</text>
</a>
</g>
</g>
<!-- Node5&#45;&gt;Node6 -->
<g id="edge7" class="edge">
<title>Node5&#45;&gt;Node6</title>
<path fill="none" stroke="midnightblue" d="M256.68,-143.56C238.31,-145.48 219.5,-147.92 204.04,-150.45"/>
<polygon fill="midnightblue" stroke="midnightblue" points="257.21,-147.02 266.81,-142.54 256.51,-140.06 257.21,-147.02"/>
</g>
<!-- Node6&#45;&gt;Node5 -->
<g id="edge8" class="edge">
<title>Node6&#45;&gt;Node5</title>
<path fill="none" stroke="midnightblue" d="M241.03,-158.73C260.34,-156.76 280.36,-154.19 296.64,-151.52"/>
<polygon fill="midnightblue" stroke="midnightblue" points="240.63,-155.25 231.02,-159.71 241.31,-162.22 240.63,-155.25"/>
</g>
<!-- Node7&#45;&gt;Node4 -->
<g id="edge10" class="edge">
<title>Node7&#45;&gt;Node4</title>
<path fill="none" stroke="midnightblue" d="M364.85,-116.57C385.57,-122.54 413.43,-129.28 438.47,-134.5"/>
<polygon fill="midnightblue" stroke="midnightblue" points="365.59,-113.14 355,-113.62 363.58,-119.84 365.59,-113.14"/>
</g>
<!-- Node7&#45;&gt;Node8 -->
<g id="edge11" class="edge">
<title>Node7&#45;&gt;Node8</title>
<path fill="none" stroke="midnightblue" d="M261.85,-97.31C250.77,-97.19 239.4,-97.25 228.58,-97.47"/>
<polygon fill="midnightblue" stroke="midnightblue" points="261.86,-100.81 271.91,-97.47 261.97,-93.81 261.86,-100.81"/>
</g>
<!-- Node7&#45;&gt;Node9 -->
<g id="edge14" class="edge">
<title>Node7&#45;&gt;Node9</title>
<path fill="none" stroke="midnightblue" d="M302.74,-91.27C280.61,-84.1 249.4,-75.67 222.69,-69.49"/>
<polygon fill="midnightblue" stroke="midnightblue" points="301.63,-94.59 312.22,-94.46 303.86,-87.95 301.63,-94.59"/>
</g>
<!-- Node8&#45;&gt;Node7 -->
<g id="edge12" class="edge">
<title>Node8&#45;&gt;Node7</title>
<path fill="none" stroke="midnightblue" d="M238.65,-110.69C249.72,-110.81 261.09,-110.75 271.91,-110.53"/>
<polygon fill="midnightblue" stroke="midnightblue" points="238.63,-107.19 228.58,-110.53 238.52,-114.19 238.63,-107.19"/>
</g>
<!-- Node8&#45;&gt;Node8 -->
<g id="edge13" class="edge">
<title>Node8&#45;&gt;Node8</title>
<path fill="none" stroke="midnightblue" d="M192.55,-123.03C191.21,-128.13 183.03,-132 168,-132 144.54,-132 137.76,-122.57 147.65,-113.76"/>
<polygon fill="midnightblue" stroke="midnightblue" points="195.67,-121.42 188.35,-113.76 189.29,-124.31 195.67,-121.42"/>
</g>
<!-- Node9&#45;&gt;Node3 -->
<g id="edge16" class="edge">
<title>Node9&#45;&gt;Node3</title>
<path fill="none" stroke="midnightblue" d="M232.79,-69.18C329.22,-75.67 510.7,-82.61 603.56,-83.3"/>
<polygon fill="midnightblue" stroke="midnightblue" points="232.81,-65.67 222.6,-68.47 232.33,-72.65 232.81,-65.67"/>
</g>
<!-- Node9&#45;&gt;Node7 -->
<g id="edge17" class="edge">
<title>Node9&#45;&gt;Node7</title>
<path fill="none" stroke="midnightblue" d="M197.87,-74.76C218.38,-81.4 246.65,-89.12 271.91,-95.13"/>
<polygon fill="midnightblue" stroke="midnightblue" points="198.78,-71.38 188.19,-71.5 196.55,-78.01 198.78,-71.38"/>
</g>
<!-- Node10 -->
<g id="node10" class="node">
<title>Node10</title>
<g id="a_node10"><a xlink:href="classMenu.html#a323509e5b6f4dc00536e87efd65b8b94" target="_top" xlink:title=" ">
<polygon fill="none" stroke="black" points="0,-52.5 0,-71.5 69,-71.5 69,-52.5 0,-52.5"/>
<text text-anchor="middle" x="34.5" y="-59.5" font-family="Helvetica,sans-Serif" font-size="10.00">Menu::Menu</text>
</a>
</g>
</g>
<!-- Node9&#45;&gt;Node10 -->
<g id="edge15" class="edge">
<title>Node9&#45;&gt;Node10</title>
<path fill="none" stroke="midnightblue" d="M102.92,-62C91.23,-62 79.47,-62 69.12,-62"/>
<polygon fill="midnightblue" stroke="midnightblue" points="103.13,-65.5 113.13,-62 103.13,-58.5 103.13,-65.5"/>
</g>
<!-- Node11&#45;&gt;Node3 -->
<g id="edge21" class="edge">
<title>Node11&#45;&gt;Node3</title>
<path fill="none" stroke="midnightblue" d="M521.56,-24.06C534.82,-29.97 552.66,-36.38 568,-43 588.69,-51.92 611.27,-63.23 629.06,-71.49"/>
<polygon fill="midnightblue" stroke="midnightblue" points="522.96,-20.85 512.44,-19.64 519.91,-27.15 522.96,-20.85"/>
</g>
</g>
</svg>
