<?xml version="1.0" encoding="UTF-8" standalone="no"?>
<!DOCTYPE svg PUBLIC "-//W3C//DTD SVG 1.1//EN"
 "http://www.w3.org/Graphics/SVG/1.1/DTD/svg11.dtd">
<!-- Generated by graphviz version 2.49.3 (20211027.1534)
 -->
<!-- Title: Paper Pages: 1 -->
<!--zoomable 552 -->
<svg id="main" version="1.1" xmlns="http://www.w3.org/2000/svg" xmlns:xlink="http://www.w3.org/1999/xlink" xml:space="preserve" onload="init(evt)">
<style type="text/css"><![CDATA[
.edge:hover path { stroke: red; }
.edge:hover polygon { stroke: red; fill: red; }
]]></style>
<script type="text/javascript"><![CDATA[
var edges = document.getElementsByTagName('g');
if (edges && edges.length) {
  for (var i=0;i<edges.length;i++) {
    if (edges[i].id.substr(0,4)=='edge') {
      edges[i].setAttribute('class','edge');
    }
  }
}
]]></script>
        <defs>
                <circle id="rim" cx="0" cy="0" r="7"/>
                <circle id="rim2" cx="0" cy="0" r="3.5"/>
                <g id="zoomPlus">
                        <use xlink:href="#rim" fill="#404040">
                                <set attributeName="fill" to="#808080" begin="zoomplus.mouseover" end="zoomplus.mouseout"/>
                        </use>
                        <path d="M-4,0h8M0,-4v8" fill="none" stroke="white" stroke-width="1.5" pointer-events="none"/>
                </g>
                <g id="zoomMin">
                        <use xlink:href="#rim" fill="#404040">
                                <set attributeName="fill" to="#808080" begin="zoomminus.mouseover" end="zoomminus.mouseout"/>
                        </use>
                        <path d="M-4,0h8" fill="none" stroke="white" stroke-width="1.5" pointer-events="none"/>
                </g>
                <g id="dirArrow">
                        <path fill="none" stroke="white" stroke-width="1.5" d="M0,-3.0v7 M-2.5,-0.5L0,-3.0L2.5,-0.5"/>
                </g>
               <g id="resetDef">
                       <use xlink:href="#rim2" fill="#404040">
                               <set attributeName="fill" to="#808080" begin="reset.mouseover" end="reset.mouseout"/>
                       </use>
               </g>
        </defs>

<script type="text/javascript">
var viewWidth = 439;
var viewHeight = 552;
var sectionId = 'dynsection-1';
</script>
<script xlink:href="svgpan.js"/>
<svg id="graph" class="graph">
<g id="viewport">
<title>Paper</title>
<!-- Node1 -->
<g id="node1" class="node">
<title>Node1</title>
<g id="a_node1"><a xlink:title="Class representing a Paper.">
<polygon fill="#bfbfbf" stroke="black" points="0,-0.5 0,-123.5 349,-123.5 349,-0.5 0,-0.5"/>
<text text-anchor="middle" x="174.5" y="-111.5" font-family="Helvetica,sans-Serif" font-size="10.00">Paper</text>
<polyline fill="none" stroke="black" points="0,-104.5 349,-104.5 "/>
<text text-anchor="middle" x="174.5" y="-92.5" font-family="Helvetica,sans-Serif" font-size="10.00"> </text>
<polyline fill="none" stroke="black" points="0,-85.5 349,-85.5 "/>
<text text-anchor="start" x="8" y="-73.5" font-family="Helvetica,sans-Serif" font-size="10.00">+ Paper(int pages, int weight, int stock, double price, string name, string desc)</text>
<text text-anchor="start" x="8" y="-62.5" font-family="Helvetica,sans-Serif" font-size="10.00">+ void setPages(int pages)</text>
<text text-anchor="start" x="8" y="-51.5" font-family="Helvetica,sans-Serif" font-size="10.00">+ int getPages()</text>
<text text-anchor="start" x="8" y="-40.5" font-family="Helvetica,sans-Serif" font-size="10.00">+ void setWeight(int)</text>
<text text-anchor="start" x="8" y="-29.5" font-family="Helvetica,sans-Serif" font-size="10.00">+ int getWeight()</text>
<text text-anchor="start" x="8" y="-18.5" font-family="Helvetica,sans-Serif" font-size="10.00">+ void setId()</text>
<text text-anchor="start" x="8" y="-7.5" font-family="Helvetica,sans-Serif" font-size="10.00">+ string getDetails()</text>
</a>
</g>
</g>
<!-- Node2 -->
<g id="node2" class="node">
<title>Node2</title>
<g id="a_node2"><a xlink:href="classItem.html" target="_top" xlink:title="Base class for all other items.">
<polygon fill="none" stroke="black" points="178.5,-161.5 178.5,-416.5 430.5,-416.5 430.5,-161.5 178.5,-161.5"/>
<text text-anchor="middle" x="304.5" y="-404.5" font-family="Helvetica,sans-Serif" font-size="10.00">Item</text>
<polyline fill="none" stroke="black" points="178.5,-397.5 430.5,-397.5 "/>
<text text-anchor="middle" x="304.5" y="-385.5" font-family="Helvetica,sans-Serif" font-size="10.00"> </text>
<polyline fill="none" stroke="black" points="178.5,-378.5 430.5,-378.5 "/>
<text text-anchor="start" x="186.5" y="-366.5" font-family="Helvetica,sans-Serif" font-size="10.00">+ Item(int stock, double price, string name, string desc)</text>
<text text-anchor="start" x="186.5" y="-355.5" font-family="Helvetica,sans-Serif" font-size="10.00">+ virtual ~Item()</text>
<text text-anchor="start" x="186.5" y="-344.5" font-family="Helvetica,sans-Serif" font-size="10.00">+ size_t getId()</text>
<text text-anchor="start" x="186.5" y="-333.5" font-family="Helvetica,sans-Serif" font-size="10.00">+ void setStock(int stock)</text>
<text text-anchor="start" x="186.5" y="-322.5" font-family="Helvetica,sans-Serif" font-size="10.00">+ int getStock()</text>
<text text-anchor="start" x="186.5" y="-311.5" font-family="Helvetica,sans-Serif" font-size="10.00">+ void setPrice(double price)</text>
<text text-anchor="start" x="186.5" y="-300.5" font-family="Helvetica,sans-Serif" font-size="10.00">+ double getPrice()</text>
<text text-anchor="start" x="186.5" y="-289.5" font-family="Helvetica,sans-Serif" font-size="10.00">+ void setName(string name)</text>
<text text-anchor="start" x="186.5" y="-278.5" font-family="Helvetica,sans-Serif" font-size="10.00">+ string getName()</text>
<text text-anchor="start" x="186.5" y="-267.5" font-family="Helvetica,sans-Serif" font-size="10.00">+ void setDescription(string desc)</text>
<text text-anchor="start" x="186.5" y="-256.5" font-family="Helvetica,sans-Serif" font-size="10.00">+ string getDescription()</text>
<text text-anchor="start" x="186.5" y="-245.5" font-family="Helvetica,sans-Serif" font-size="10.00">+ string getCategory()</text>
<text text-anchor="start" x="186.5" y="-234.5" font-family="Helvetica,sans-Serif" font-size="10.00">+ string getBasicInfo()</text>
<text text-anchor="start" x="186.5" y="-223.5" font-family="Helvetica,sans-Serif" font-size="10.00">+ void setId(size_t)</text>
<text text-anchor="start" x="186.5" y="-212.5" font-family="Helvetica,sans-Serif" font-size="10.00">+ void setCategory(string)</text>
<text text-anchor="start" x="186.5" y="-201.5" font-family="Helvetica,sans-Serif" font-size="10.00">+ virtual void setId()=0</text>
<text text-anchor="start" x="186.5" y="-190.5" font-family="Helvetica,sans-Serif" font-size="10.00">+ virtual string getDetails()=0</text>
<text text-anchor="start" x="186.5" y="-179.5" font-family="Helvetica,sans-Serif" font-size="10.00">+ operator std::string()</text>
<text text-anchor="start" x="186.5" y="-168.5" font-family="Helvetica,sans-Serif" font-size="10.00">+ bool operator==(const Item &amp;)</text>
</a>
</g>
</g>
<!-- Node2&#45;&gt;Node1 -->
<g id="edge1" class="edge">
<title>Node2&#45;&gt;Node1</title>
<path fill="none" stroke="midnightblue" d="M226.22,-152.51C220.44,-142.51 214.8,-132.76 209.51,-123.59"/>
<polygon fill="none" stroke="midnightblue" points="223.3,-154.45 231.33,-161.36 229.36,-150.95 223.3,-154.45"/>
</g>
<!-- Node3 -->
<g id="node3" class="node">
<title>Node3</title>
<g id="a_node3"><a xlink:title=" ">
<polygon fill="none" stroke="#bfbfbf" points="354.5,-486.5 354.5,-543.5 396.5,-543.5 396.5,-486.5 354.5,-486.5"/>
<text text-anchor="middle" x="375.5" y="-531.5" font-family="Helvetica,sans-Serif" font-size="10.00">size_t</text>
<polyline fill="none" stroke="#bfbfbf" points="354.5,-524.5 396.5,-524.5 "/>
<text text-anchor="middle" x="375.5" y="-512.5" font-family="Helvetica,sans-Serif" font-size="10.00"> </text>
<polyline fill="none" stroke="#bfbfbf" points="354.5,-505.5 396.5,-505.5 "/>
<text text-anchor="middle" x="375.5" y="-493.5" font-family="Helvetica,sans-Serif" font-size="10.00"> </text>
</a>
</g>
</g>
<!-- Node3&#45;&gt;Node2 -->
<g id="edge2" class="edge">
<title>Node3&#45;&gt;Node2</title>
<path fill="none" stroke="#404040" d="M368.23,-486.47C364.11,-471.24 358.74,-452.01 353.5,-435 352.81,-432.76 352.11,-430.51 351.4,-428.24"/>
<polygon fill="none" stroke="#404040" points="351.4,-428.23 345.78,-423.72 347.79,-416.79 353.41,-421.31 351.4,-428.23"/>
<text text-anchor="middle" x="372" y="-449" font-family="Helvetica,sans-Serif" font-size="10.00"> &#45;_id</text>
</g>
<!-- Node4 -->
<g id="node4" class="node">
<title>Node4</title>
<g id="a_node4"><a xlink:title=" ">
<polygon fill="none" stroke="#bfbfbf" points="133,-486.5 133,-543.5 162,-543.5 162,-486.5 133,-486.5"/>
<text text-anchor="middle" x="147.5" y="-531.5" font-family="Helvetica,sans-Serif" font-size="10.00">int</text>
<polyline fill="none" stroke="#bfbfbf" points="133,-524.5 162,-524.5 "/>
<text text-anchor="middle" x="147.5" y="-512.5" font-family="Helvetica,sans-Serif" font-size="10.00"> </text>
<polyline fill="none" stroke="#bfbfbf" points="133,-505.5 162,-505.5 "/>
<text text-anchor="middle" x="147.5" y="-493.5" font-family="Helvetica,sans-Serif" font-size="10.00"> </text>
</a>
</g>
</g>
<!-- Node4&#45;&gt;Node1 -->
<g id="edge6" class="edge">
<title>Node4&#45;&gt;Node1</title>
<path fill="none" stroke="#404040" d="M141.78,-486.17C130.41,-426.08 108.08,-279.97 132.5,-161 134.25,-152.46 136.78,-143.75 139.74,-135.21"/>
<polygon fill="none" stroke="#404040" points="139.83,-134.96 138.18,-127.95 144.01,-123.72 145.67,-130.73 139.83,-134.96"/>
<text text-anchor="middle" x="151" y="-292" font-family="Helvetica,sans-Serif" font-size="10.00"> &#45;_pages</text>
<text text-anchor="middle" x="151" y="-281" font-family="Helvetica,sans-Serif" font-size="10.00">&#45;_weight</text>
</g>
<!-- Node4&#45;&gt;Node2 -->
<g id="edge3" class="edge">
<title>Node4&#45;&gt;Node2</title>
<path fill="none" stroke="#404040" d="M162.27,-492.93C173.68,-476.65 190.54,-452.6 208.7,-426.69"/>
<polygon fill="none" stroke="#404040" points="208.83,-426.5 208.99,-419.29 215.71,-416.68 215.54,-423.89 208.83,-426.5"/>
<text text-anchor="middle" x="221" y="-449" font-family="Helvetica,sans-Serif" font-size="10.00"> &#45;_stock</text>
</g>
<!-- Node5 -->
<g id="node5" class="node">
<title>Node5</title>
<g id="a_node5"><a xlink:title=" ">
<polygon fill="none" stroke="#bfbfbf" points="221,-486.5 221,-543.5 266,-543.5 266,-486.5 221,-486.5"/>
<text text-anchor="middle" x="243.5" y="-531.5" font-family="Helvetica,sans-Serif" font-size="10.00">double</text>
<polyline fill="none" stroke="#bfbfbf" points="221,-524.5 266,-524.5 "/>
<text text-anchor="middle" x="243.5" y="-512.5" font-family="Helvetica,sans-Serif" font-size="10.00"> </text>
<polyline fill="none" stroke="#bfbfbf" points="221,-505.5 266,-505.5 "/>
<text text-anchor="middle" x="243.5" y="-493.5" font-family="Helvetica,sans-Serif" font-size="10.00"> </text>
</a>
</g>
</g>
<!-- Node5&#45;&gt;Node2 -->
<g id="edge4" class="edge">
<title>Node5&#45;&gt;Node2</title>
<path fill="none" stroke="#404040" d="M251.1,-486.08C255.32,-470.6 260.91,-450.07 266.89,-428.13"/>
<polygon fill="none" stroke="#404040" points="266.89,-428.12 264.6,-421.28 270.04,-416.54 272.32,-423.38 266.89,-428.12"/>
<text text-anchor="middle" x="281.5" y="-449" font-family="Helvetica,sans-Serif" font-size="10.00"> &#45;_price</text>
</g>
<!-- Node6 -->
<g id="node6" class="node">
<title>Node6</title>
<g id="a_node6"><a xlink:title=" ">
<polygon fill="none" stroke="#bfbfbf" points="284,-486.5 284,-543.5 325,-543.5 325,-486.5 284,-486.5"/>
<text text-anchor="middle" x="304.5" y="-531.5" font-family="Helvetica,sans-Serif" font-size="10.00">string</text>
<polyline fill="none" stroke="#bfbfbf" points="284,-524.5 325,-524.5 "/>
<text text-anchor="middle" x="304.5" y="-512.5" font-family="Helvetica,sans-Serif" font-size="10.00"> </text>
<polyline fill="none" stroke="#bfbfbf" points="284,-505.5 325,-505.5 "/>
<text text-anchor="middle" x="304.5" y="-493.5" font-family="Helvetica,sans-Serif" font-size="10.00"> </text>
</a>
</g>
</g>
<!-- Node6&#45;&gt;Node2 -->
<g id="edge5" class="edge">
<title>Node6&#45;&gt;Node2</title>
<path fill="none" stroke="#404040" d="M304.5,-486.08C304.5,-470.75 304.5,-450.45 304.5,-428.73"/>
<polygon fill="none" stroke="#404040" points="304.5,-428.54 300.5,-422.54 304.5,-416.54 308.5,-422.54 304.5,-428.54"/>
<text text-anchor="middle" x="328.5" y="-460" font-family="Helvetica,sans-Serif" font-size="10.00"> &#45;_category</text>
<text text-anchor="middle" x="328.5" y="-449" font-family="Helvetica,sans-Serif" font-size="10.00">&#45;_desc</text>
<text text-anchor="middle" x="328.5" y="-438" font-family="Helvetica,sans-Serif" font-size="10.00">&#45;_name</text>
</g>
</g>
</svg>
        <g id="navigator" transform="translate(0 0)" fill="#404254">
                <rect fill="#f2f5e9" fill-opacity="0.5" stroke="#606060" stroke-width=".5" x="0" y="0" width="60" height="60"/>
                <use id="zoomplus" xlink:href="#zoomPlus" x="17" y="9" onmousedown="handleZoom(evt,'in')"/>
                <use id="zoomminus" xlink:href="#zoomMin" x="42" y="9" onmousedown="handleZoom(evt,'out')"/>
                <use id="reset" xlink:href="#resetDef" x="30" y="36" onmousedown="handleReset()"/>
                <g id="arrowUp" xlink:href="#dirArrow" transform="translate(30 24)" onmousedown="handlePan(0,-1)">
                  <use xlink:href="#rim" fill="#404040">
                        <set attributeName="fill" to="#808080" begin="arrowUp.mouseover" end="arrowUp.mouseout"/>
                  </use>
                  <path fill="none" stroke="white" stroke-width="1.5" d="M0,-3.0v7 M-2.5,-0.5L0,-3.0L2.5,-0.5"/>
                </g>
                <g id="arrowRight" xlink:href="#dirArrow" transform="rotate(90) translate(36 -43)" onmousedown="handlePan(1,0)">
                  <use xlink:href="#rim" fill="#404040">
                        <set attributeName="fill" to="#808080" begin="arrowRight.mouseover" end="arrowRight.mouseout"/>
                  </use>
                  <path fill="none" stroke="white" stroke-width="1.5" d="M0,-3.0v7 M-2.5,-0.5L0,-3.0L2.5,-0.5"/>
                </g>
                <g id="arrowDown" xlink:href="#dirArrow" transform="rotate(180) translate(-30 -48)" onmousedown="handlePan(0,1)">
                  <use xlink:href="#rim" fill="#404040">
                        <set attributeName="fill" to="#808080" begin="arrowDown.mouseover" end="arrowDown.mouseout"/>
                  </use>
                  <path fill="none" stroke="white" stroke-width="1.5" d="M0,-3.0v7 M-2.5,-0.5L0,-3.0L2.5,-0.5"/>
                </g>
                <g id="arrowLeft" xlink:href="#dirArrow" transform="rotate(270) translate(-36 17)" onmousedown="handlePan(-1,0)">
                  <use xlink:href="#rim" fill="#404040">
                        <set attributeName="fill" to="#808080" begin="arrowLeft.mouseover" end="arrowLeft.mouseout"/>
                  </use>
                  <path fill="none" stroke="white" stroke-width="1.5" d="M0,-3.0v7 M-2.5,-0.5L0,-3.0L2.5,-0.5"/>
                </g>
        </g>
        <svg viewBox="0 0 15 15" width="100%" height="30px" preserveAspectRatio="xMaxYMin meet">
         <g id="arrow_out" transform="scale(0.3 0.3)">
          <a xlink:href="classPaper__coll__graph_org.svg" target="_base">
           <rect id="button" ry="5" rx="5" y="6" x="6" height="38" width="38"
                fill="#f2f5e9" fill-opacity="0.5" stroke="#606060" stroke-width="1.0"/>
           <path id="arrow"
             d="M 11.500037,31.436501 C 11.940474,20.09759 22.043105,11.32322 32.158766,21.979434 L 37.068811,17.246167 C 37.068811,17.246167 37.088388,32 37.088388,32 L 22.160133,31.978069 C 22.160133,31.978069 26.997745,27.140456 26.997745,27.140456 C 18.528582,18.264221 13.291696,25.230495 11.500037,31.436501 z"
             style="fill:#404040;"/>
          </a>
         </g>
        </svg>
</svg>
