<?xml version="1.0" encoding="UTF-8" standalone="no"?>
<!DOCTYPE svg PUBLIC "-//W3C//DTD SVG 1.1//EN"
 "http://www.w3.org/Graphics/SVG/1.1/DTD/svg11.dtd">
<!-- Generated by graphviz version 2.49.3 (20211027.1534)
 -->
<!-- Title: User::isAdmin Pages: 1 -->
<svg width="897pt" height="268pt"
 viewBox="0.00 0.00 897.00 268.32" xmlns="http://www.w3.org/2000/svg" xmlns:xlink="http://www.w3.org/1999/xlink">
<g id="graph0" class="graph" transform="scale(1 1) rotate(0) translate(4 264.32)">
<title>User::isAdmin</title>
<!-- Node1 -->
<g id="node1" class="node">
<title>Node1</title>
<g id="a_node1"><a xlink:title="Check if the user is an admin.">
<polygon fill="#bfbfbf" stroke="black" points="812,-61.82 812,-80.82 889,-80.82 889,-61.82 812,-61.82"/>
<text text-anchor="middle" x="850.5" y="-68.82" font-family="Helvetica,sans-Serif" font-size="10.00">User::isAdmin</text>
</a>
</g>
</g>
<!-- Node2 -->
<g id="node2" class="node">
<title>Node2</title>
<g id="a_node2"><a xlink:href="classMenu.html#a1de78dc75d7de7db8bce09a70dbbf77f" target="_top" xlink:title=" ">
<polygon fill="none" stroke="black" points="651,-61.82 651,-80.82 776,-80.82 776,-61.82 651,-61.82"/>
<text text-anchor="middle" x="713.5" y="-68.82" font-family="Helvetica,sans-Serif" font-size="10.00">Menu::showBrowseMenu</text>
</a>
</g>
</g>
<!-- Node1&#45;&gt;Node2 -->
<g id="edge1" class="edge">
<title>Node1&#45;&gt;Node2</title>
<path fill="none" stroke="midnightblue" d="M801.71,-71.32C793.46,-71.32 784.78,-71.32 776.22,-71.32"/>
<polygon fill="midnightblue" stroke="midnightblue" points="801.9,-74.82 811.89,-71.32 801.89,-67.82 801.9,-74.82"/>
</g>
<!-- Node8 -->
<g id="node8" class="node">
<title>Node8</title>
<g id="a_node8"><a xlink:href="classMenu.html#aaef7622e532f3424a27fce4d16dbda47" target="_top" xlink:title=" ">
<polygon fill="none" stroke="black" points="326.5,-240.82 326.5,-259.82 435.5,-259.82 435.5,-240.82 326.5,-240.82"/>
<text text-anchor="middle" x="381" y="-247.82" font-family="Helvetica,sans-Serif" font-size="10.00">Menu::showWelcome</text>
</a>
</g>
</g>
<!-- Node1&#45;&gt;Node8 -->
<g id="edge26" class="edge">
<title>Node1&#45;&gt;Node8</title>
<path fill="none" stroke="midnightblue" d="M825.61,-86.22C784.18,-111.5 695.66,-162.97 615,-193.32 555.36,-215.75 483.79,-231.73 435.84,-240.96"/>
<polygon fill="midnightblue" stroke="midnightblue" points="827.49,-89.17 834.18,-80.96 823.83,-83.21 827.49,-89.17"/>
</g>
<!-- Node11 -->
<g id="node11" class="node">
<title>Node11</title>
<g id="a_node11"><a xlink:href="classMenu.html#a957fada7140f67c43e3ee253ae863125" target="_top" xlink:title=" ">
<polygon fill="none" stroke="black" points="318,-14.82 318,-33.82 444,-33.82 444,-14.82 318,-14.82"/>
<text text-anchor="middle" x="381" y="-21.82" font-family="Helvetica,sans-Serif" font-size="10.00">Menu::showProductMenu</text>
</a>
</g>
</g>
<!-- Node1&#45;&gt;Node11 -->
<g id="edge25" class="edge">
<title>Node1&#45;&gt;Node11</title>
<path fill="none" stroke="midnightblue" d="M814.69,-58.27C769.46,-42.07 687.64,-15.35 615,-5.32 557.32,2.64 541.98,0.03 484,-5.32 463.91,-7.17 441.88,-11.04 423.44,-14.81"/>
<polygon fill="midnightblue" stroke="midnightblue" points="813.72,-61.64 824.31,-61.75 816.1,-55.06 813.72,-61.64"/>
</g>
<!-- Node3 -->
<g id="node3" class="node">
<title>Node3</title>
<g id="a_node3"><a xlink:href="classMenu.html#a2ecf65abb196d80c5a5c354155019a93" target="_top" xlink:title=" ">
<polygon fill="none" stroke="black" points="491,-146.82 491,-165.82 608,-165.82 608,-146.82 491,-146.82"/>
<text text-anchor="middle" x="549.5" y="-153.82" font-family="Helvetica,sans-Serif" font-size="10.00">Menu::showBuyerMenu</text>
</a>
</g>
</g>
<!-- Node2&#45;&gt;Node3 -->
<g id="edge2" class="edge">
<title>Node2&#45;&gt;Node3</title>
<path fill="none" stroke="midnightblue" d="M674.89,-85.25C638.21,-102.72 584.71,-131.51 561.7,-146.8"/>
<polygon fill="midnightblue" stroke="midnightblue" points="676.71,-88.26 684.28,-80.86 673.74,-81.92 676.71,-88.26"/>
</g>
<!-- Node6 -->
<g id="node6" class="node">
<title>Node6</title>
<g id="a_node6"><a xlink:href="classMenu.html#a6a602f7f37917ae9582719a89246b73b" target="_top" xlink:title=" ">
<polygon fill="none" stroke="black" points="157,-108.82 157,-127.82 278,-127.82 278,-108.82 157,-108.82"/>
<text text-anchor="middle" x="217.5" y="-115.82" font-family="Helvetica,sans-Serif" font-size="10.00">Menu::showOwnerMenu</text>
</a>
</g>
</g>
<!-- Node2&#45;&gt;Node6 -->
<g id="edge24" class="edge">
<title>Node2&#45;&gt;Node6</title>
<path fill="none" stroke="midnightblue" d="M640.93,-73.21C541.02,-80.11 361.98,-97.32 272.5,-108.77"/>
<polygon fill="midnightblue" stroke="midnightblue" points="641.19,-76.7 650.93,-72.53 640.72,-69.71 641.19,-76.7"/>
</g>
<!-- Node10 -->
<g id="node10" class="node">
<title>Node10</title>
<g id="a_node10"><a xlink:href="classMenu.html#a8bdf4110581d8d8a82f6290f246201e7" target="_top" xlink:title=" ">
<polygon fill="none" stroke="black" points="484,-14.82 484,-33.82 615,-33.82 615,-14.82 484,-14.82"/>
<text text-anchor="middle" x="549.5" y="-21.82" font-family="Helvetica,sans-Serif" font-size="10.00">Menu::showCategoryMenu</text>
</a>
</g>
</g>
<!-- Node2&#45;&gt;Node10 -->
<g id="edge20" class="edge">
<title>Node2&#45;&gt;Node10</title>
<path fill="none" stroke="midnightblue" d="M685.29,-58.23C663.55,-50.42 632.38,-40.96 605.49,-33.84"/>
<polygon fill="midnightblue" stroke="midnightblue" points="684.26,-61.58 694.85,-61.8 686.71,-55.02 684.26,-61.58"/>
</g>
<!-- Node3&#45;&gt;Node2 -->
<g id="edge3" class="edge">
<title>Node3&#45;&gt;Node2</title>
<path fill="none" stroke="midnightblue" d="M588.3,-142.3C624.87,-124.87 678.04,-96.26 701.11,-80.96"/>
<polygon fill="midnightblue" stroke="midnightblue" points="586.51,-139.27 578.93,-146.68 589.47,-145.61 586.51,-139.27"/>
</g>
<!-- Node3&#45;&gt;Node3 -->
<g id="edge4" class="edge">
<title>Node3&#45;&gt;Node3</title>
<path fill="none" stroke="midnightblue" d="M580.19,-174.59C579.31,-180.06 569.08,-184.32 549.5,-184.32 520.35,-184.32 511.93,-174.88 524.22,-166.08"/>
<polygon fill="midnightblue" stroke="midnightblue" points="583.09,-172.64 574.78,-166.08 577.19,-176.39 583.09,-172.64"/>
</g>
<!-- Node4 -->
<g id="node4" class="node">
<title>Node4</title>
<g id="a_node4"><a xlink:href="classMenu.html#a781c392fdcd203e436f5dc6e78f057a8" target="_top" xlink:title=" ">
<polygon fill="none" stroke="black" points="326,-146.82 326,-165.82 436,-165.82 436,-146.82 326,-146.82"/>
<text text-anchor="middle" x="381" y="-153.82" font-family="Helvetica,sans-Serif" font-size="10.00">Menu::showCartMenu</text>
</a>
</g>
</g>
<!-- Node3&#45;&gt;Node4 -->
<g id="edge5" class="edge">
<title>Node3&#45;&gt;Node4</title>
<path fill="none" stroke="midnightblue" d="M480.59,-149.67C465.75,-149.47 450.24,-149.56 436.03,-149.95"/>
<polygon fill="midnightblue" stroke="midnightblue" points="480.67,-153.17 490.73,-149.86 480.8,-146.18 480.67,-153.17"/>
</g>
<!-- Node5 -->
<g id="node5" class="node">
<title>Node5</title>
<g id="a_node5"><a xlink:href="classMenu.html#a3905222cc1c1ec7ed2dce13e16555c52" target="_top" xlink:title=" ">
<polygon fill="none" stroke="black" points="314,-202.82 314,-221.82 448,-221.82 448,-202.82 314,-202.82"/>
<text text-anchor="middle" x="381" y="-209.82" font-family="Helvetica,sans-Serif" font-size="10.00">Menu::showCheckoutMenu</text>
</a>
</g>
</g>
<!-- Node3&#45;&gt;Node5 -->
<g id="edge8" class="edge">
<title>Node3&#45;&gt;Node5</title>
<path fill="none" stroke="midnightblue" d="M492.01,-169.22C477.72,-174.17 462.36,-179.62 448,-184.32 429.19,-190.48 407.02,-196.64 393.76,-202.66"/>
<polygon fill="midnightblue" stroke="midnightblue" points="493.39,-172.45 501.71,-165.88 491.11,-165.83 493.39,-172.45"/>
</g>
<!-- Node3&#45;&gt;Node6 -->
<g id="edge10" class="edge">
<title>Node3&#45;&gt;Node6</title>
<path fill="none" stroke="midnightblue" d="M493.64,-144.88C478.87,-142.09 462.87,-139.33 448,-137.32 390.55,-129.53 324.56,-124.47 278.12,-121.55"/>
<polygon fill="midnightblue" stroke="midnightblue" points="493.16,-148.35 503.64,-146.8 494.48,-141.47 493.16,-148.35"/>
</g>
<!-- Node3&#45;&gt;Node8 -->
<g id="edge19" class="edge">
<title>Node3&#45;&gt;Node8</title>
<path fill="none" stroke="midnightblue" d="M522.93,-172.05C503.58,-187.01 475.69,-208.58 448,-222.32 431.23,-230.64 410.21,-235.9 396.45,-240.8"/>
<polygon fill="midnightblue" stroke="midnightblue" points="525.14,-174.77 530.93,-165.9 520.87,-169.22 525.14,-174.77"/>
</g>
<!-- Node4&#45;&gt;Node3 -->
<g id="edge6" class="edge">
<title>Node4&#45;&gt;Node3</title>
<path fill="none" stroke="midnightblue" d="M446.05,-162.91C460.76,-163.16 476.31,-163.12 490.73,-162.78"/>
<polygon fill="midnightblue" stroke="midnightblue" points="446.1,-159.41 436.03,-162.69 445.95,-166.41 446.1,-159.41"/>
</g>
<!-- Node4&#45;&gt;Node4 -->
<g id="edge7" class="edge">
<title>Node4&#45;&gt;Node4</title>
<path fill="none" stroke="midnightblue" d="M411.31,-174.59C410.45,-180.06 400.35,-184.32 381,-184.32 352.21,-184.32 343.88,-174.88 356.03,-166.08"/>
<polygon fill="midnightblue" stroke="midnightblue" points="414.25,-172.69 405.97,-166.08 408.32,-176.41 414.25,-172.69"/>
</g>
<!-- Node5&#45;&gt;Node3 -->
<g id="edge9" class="edge">
<title>Node5&#45;&gt;Node3</title>
<path fill="none" stroke="midnightblue" d="M456.45,-199.49C488.28,-188.69 521.55,-175.58 538.03,-165.9"/>
<polygon fill="midnightblue" stroke="midnightblue" points="455.01,-196.28 446.63,-202.76 457.23,-202.92 455.01,-196.28"/>
</g>
<!-- Node6&#45;&gt;Node2 -->
<g id="edge11" class="edge">
<title>Node6&#45;&gt;Node2</title>
<path fill="none" stroke="midnightblue" d="M288.64,-116.53C388.34,-109.68 568.85,-92.35 658.69,-80.84"/>
<polygon fill="midnightblue" stroke="midnightblue" points="288.12,-113.06 278.37,-117.22 288.58,-120.04 288.12,-113.06"/>
</g>
<!-- Node7 -->
<g id="node7" class="node">
<title>Node7</title>
<g id="a_node7"><a xlink:href="classMenu.html#a788512183de460d13b8a2dfb571c03f2" target="_top" xlink:title=" ">
<polygon fill="none" stroke="black" points="0,-108.82 0,-127.82 121,-127.82 121,-108.82 0,-108.82"/>
<text text-anchor="middle" x="60.5" y="-115.82" font-family="Helvetica,sans-Serif" font-size="10.00">Menu::showStatusMenu</text>
</a>
</g>
</g>
<!-- Node6&#45;&gt;Node7 -->
<g id="edge12" class="edge">
<title>Node6&#45;&gt;Node7</title>
<path fill="none" stroke="midnightblue" d="M146.34,-111.6C137.88,-111.53 129.3,-111.58 121.01,-111.73"/>
<polygon fill="midnightblue" stroke="midnightblue" points="146.53,-115.1 156.57,-111.73 146.62,-108.1 146.53,-115.1"/>
</g>
<!-- Node6&#45;&gt;Node8 -->
<g id="edge15" class="edge">
<title>Node6&#45;&gt;Node8</title>
<path fill="none" stroke="midnightblue" d="M226.17,-137.14C240.38,-164.55 273.1,-213.83 314,-240.32 317.8,-242.78 321.93,-244.93 326.2,-246.78"/>
<polygon fill="midnightblue" stroke="midnightblue" points="229.3,-135.58 221.79,-128.11 223.01,-138.64 229.3,-135.58"/>
</g>
<!-- Node7&#45;&gt;Node6 -->
<g id="edge13" class="edge">
<title>Node7&#45;&gt;Node6</title>
<path fill="none" stroke="midnightblue" d="M131.24,-125.04C139.69,-125.11 148.28,-125.06 156.57,-124.91"/>
<polygon fill="midnightblue" stroke="midnightblue" points="131.06,-121.54 121.01,-124.9 130.97,-128.54 131.06,-121.54"/>
</g>
<!-- Node7&#45;&gt;Node7 -->
<g id="edge14" class="edge">
<title>Node7&#45;&gt;Node7</title>
<path fill="none" stroke="midnightblue" d="M89.62,-136.97C88.4,-142.26 78.7,-146.32 60.5,-146.32 32.77,-146.32 24.76,-136.88 36.46,-128.08"/>
<polygon fill="midnightblue" stroke="midnightblue" points="92.54,-135.03 84.54,-128.08 86.46,-138.5 92.54,-135.03"/>
</g>
<!-- Node8&#45;&gt;Node3 -->
<g id="edge17" class="edge">
<title>Node8&#45;&gt;Node3</title>
<path fill="none" stroke="midnightblue" d="M444.99,-241.76C446.01,-241.29 447.01,-240.81 448,-240.32 487.98,-220.48 528.37,-184.32 542.88,-166.08"/>
<polygon fill="midnightblue" stroke="midnightblue" points="443.47,-238.6 435.59,-245.67 446.16,-245.06 443.47,-238.6"/>
</g>
<!-- Node8&#45;&gt;Node6 -->
<g id="edge18" class="edge">
<title>Node8&#45;&gt;Node6</title>
<path fill="none" stroke="midnightblue" d="M352.41,-237.96C339.96,-234.35 325.49,-229.76 314,-222.32 274.12,-196.49 242,-148.98 227.26,-128.01"/>
<polygon fill="midnightblue" stroke="midnightblue" points="351.72,-241.4 362.3,-240.8 353.65,-234.68 351.72,-241.4"/>
</g>
<!-- Node9 -->
<g id="node9" class="node">
<title>Node9</title>
<g id="a_node9"><a xlink:href="classMenu.html#a323509e5b6f4dc00536e87efd65b8b94" target="_top" xlink:title=" ">
<polygon fill="none" stroke="black" points="183,-240.82 183,-259.82 252,-259.82 252,-240.82 183,-240.82"/>
<text text-anchor="middle" x="217.5" y="-247.82" font-family="Helvetica,sans-Serif" font-size="10.00">Menu::Menu</text>
</a>
</g>
</g>
<!-- Node8&#45;&gt;Node9 -->
<g id="edge16" class="edge">
<title>Node8&#45;&gt;Node9</title>
<path fill="none" stroke="midnightblue" d="M316.03,-250.32C294.25,-250.32 270.77,-250.32 252.3,-250.32"/>
<polygon fill="midnightblue" stroke="midnightblue" points="316.22,-253.82 326.22,-250.32 316.22,-246.82 316.22,-253.82"/>
</g>
<!-- Node10&#45;&gt;Node2 -->
<g id="edge21" class="edge">
<title>Node10&#45;&gt;Node2</title>
<path fill="none" stroke="midnightblue" d="M577.89,-37.48C599.54,-45.25 630.46,-54.62 657.2,-61.71"/>
<polygon fill="midnightblue" stroke="midnightblue" points="578.95,-34.14 568.36,-33.92 576.51,-40.7 578.95,-34.14"/>
</g>
<!-- Node10&#45;&gt;Node11 -->
<g id="edge22" class="edge">
<title>Node10&#45;&gt;Node11</title>
<path fill="none" stroke="midnightblue" d="M473.52,-17.6C463.72,-17.53 453.77,-17.58 444.22,-17.76"/>
<polygon fill="midnightblue" stroke="midnightblue" points="473.61,-21.1 483.65,-17.72 473.69,-14.1 473.61,-21.1"/>
</g>
<!-- Node11&#45;&gt;Node10 -->
<g id="edge23" class="edge">
<title>Node11&#45;&gt;Node10</title>
<path fill="none" stroke="midnightblue" d="M454.29,-31.02C464.06,-31.11 474.03,-31.08 483.65,-30.92"/>
<polygon fill="midnightblue" stroke="midnightblue" points="454.27,-27.52 444.22,-30.87 454.17,-34.52 454.27,-27.52"/>
</g>
</g>
</svg>
