<?xml version="1.0" encoding="UTF-8" standalone="no"?>
<!DOCTYPE svg PUBLIC "-//W3C//DTD SVG 1.1//EN"
 "http://www.w3.org/Graphics/SVG/1.1/DTD/svg11.dtd">
<!-- Generated by graphviz version 2.49.3 (20211027.1534)
 -->
<!-- Title: Item::setId Pages: 1 -->
<svg width="332pt" height="142pt"
 viewBox="0.00 0.00 332.00 142.00" xmlns="http://www.w3.org/2000/svg" xmlns:xlink="http://www.w3.org/1999/xlink">
<g id="graph0" class="graph" transform="scale(1 1) rotate(0) translate(4 138)">
<title>Item::setId</title>
<!-- Node1 -->
<g id="node1" class="node">
<title>Node1</title>
<g id="a_node1"><a xlink:title="Set the Item&#39;s ID.">
<polygon fill="#bfbfbf" stroke="black" points="262,-57.5 262,-76.5 324,-76.5 324,-57.5 262,-57.5"/>
<text text-anchor="middle" x="293" y="-64.5" font-family="Helvetica,sans-Serif" font-size="10.00">Item::setId</text>
</a>
</g>
</g>
<!-- Node2 -->
<g id="node2" class="node">
<title>Node2</title>
<g id="a_node2"><a xlink:href="classPaper.html#a5fb4660c9bab53afb43617b32c38de5b" target="_top" xlink:title="Override of Item::setID()">
<polygon fill="none" stroke="black" points="149.5,-114.5 149.5,-133.5 217.5,-133.5 217.5,-114.5 149.5,-114.5"/>
<text text-anchor="middle" x="183.5" y="-121.5" font-family="Helvetica,sans-Serif" font-size="10.00">Paper::setId</text>
</a>
</g>
</g>
<!-- Node1&#45;&gt;Node2 -->
<g id="edge1" class="edge">
<title>Node1&#45;&gt;Node2</title>
<path fill="none" stroke="midnightblue" d="M267.46,-81.86C255.16,-89.11 239.95,-97.81 226,-105 219.8,-108.19 212.96,-111.44 206.65,-114.32"/>
<polygon fill="midnightblue" stroke="midnightblue" points="269.42,-84.76 276.23,-76.64 265.84,-78.75 269.42,-84.76"/>
</g>
<!-- Node4 -->
<g id="node4" class="node">
<title>Node4</title>
<g id="a_node4"><a xlink:href="classNotebook.html#ab24ec77348fa051caf230c7368f2bf24" target="_top" xlink:title="Override of Item::setID()">
<polygon fill="none" stroke="black" points="141,-76.5 141,-95.5 226,-95.5 226,-76.5 141,-76.5"/>
<text text-anchor="middle" x="183.5" y="-83.5" font-family="Helvetica,sans-Serif" font-size="10.00">Notebook::setId</text>
</a>
</g>
</g>
<!-- Node1&#45;&gt;Node4 -->
<g id="edge3" class="edge">
<title>Node1&#45;&gt;Node4</title>
<path fill="none" stroke="midnightblue" d="M251.83,-74.1C243.44,-75.58 234.58,-77.15 226.13,-78.64"/>
<polygon fill="midnightblue" stroke="midnightblue" points="252.53,-77.53 261.77,-72.34 251.31,-70.64 252.53,-77.53"/>
</g>
<!-- Node6 -->
<g id="node6" class="node">
<title>Node6</title>
<g id="a_node6"><a xlink:href="classPen.html#ab06108cb3fcb49065cb3b49f6c00ffb8" target="_top" xlink:title="Override of Item::setID()">
<polygon fill="none" stroke="black" points="153.5,-38.5 153.5,-57.5 213.5,-57.5 213.5,-38.5 153.5,-38.5"/>
<text text-anchor="middle" x="183.5" y="-45.5" font-family="Helvetica,sans-Serif" font-size="10.00">Pen::setId</text>
</a>
</g>
</g>
<!-- Node1&#45;&gt;Node6 -->
<g id="edge5" class="edge">
<title>Node1&#45;&gt;Node6</title>
<path fill="none" stroke="midnightblue" d="M251.91,-59.91C239.25,-57.68 225.51,-55.25 213.76,-53.17"/>
<polygon fill="midnightblue" stroke="midnightblue" points="251.31,-63.36 261.77,-61.66 252.53,-56.47 251.31,-63.36"/>
</g>
<!-- Node8 -->
<g id="node8" class="node">
<title>Node8</title>
<g id="a_node8"><a xlink:href="classPencil.html#a4097f82beeccd6a09fcca4f21777e1d7" target="_top" xlink:title="Override of Item::setID()">
<polygon fill="none" stroke="black" points="148.5,-0.5 148.5,-19.5 218.5,-19.5 218.5,-0.5 148.5,-0.5"/>
<text text-anchor="middle" x="183.5" y="-7.5" font-family="Helvetica,sans-Serif" font-size="10.00">Pencil::setId</text>
</a>
</g>
</g>
<!-- Node1&#45;&gt;Node8 -->
<g id="edge7" class="edge">
<title>Node1&#45;&gt;Node8</title>
<path fill="none" stroke="midnightblue" d="M267.46,-52.14C255.16,-44.89 239.95,-36.19 226,-29 219.8,-25.81 212.96,-22.56 206.65,-19.68"/>
<polygon fill="midnightblue" stroke="midnightblue" points="265.84,-55.25 276.23,-57.36 269.42,-49.24 265.84,-55.25"/>
</g>
<!-- Node3 -->
<g id="node3" class="node">
<title>Node3</title>
<g id="a_node3"><a xlink:href="classPaper.html#ab6ede816b36a604b45587838c30c05c0" target="_top" xlink:title="Constructor for Paper.">
<polygon fill="none" stroke="black" points="16.5,-114.5 16.5,-133.5 88.5,-133.5 88.5,-114.5 16.5,-114.5"/>
<text text-anchor="middle" x="52.5" y="-121.5" font-family="Helvetica,sans-Serif" font-size="10.00">Paper::Paper</text>
</a>
</g>
</g>
<!-- Node2&#45;&gt;Node3 -->
<g id="edge2" class="edge">
<title>Node2&#45;&gt;Node3</title>
<path fill="none" stroke="midnightblue" d="M138.91,-124C122.62,-124 104.33,-124 88.87,-124"/>
<polygon fill="midnightblue" stroke="midnightblue" points="139.28,-127.5 149.28,-124 139.28,-120.5 139.28,-127.5"/>
</g>
<!-- Node5 -->
<g id="node5" class="node">
<title>Node5</title>
<g id="a_node5"><a xlink:href="classNotebook.html#aa5092bc8336a484da213317951240258" target="_top" xlink:title="Constructor for Notebook.">
<polygon fill="none" stroke="black" points="0,-76.5 0,-95.5 105,-95.5 105,-76.5 0,-76.5"/>
<text text-anchor="middle" x="52.5" y="-83.5" font-family="Helvetica,sans-Serif" font-size="10.00">Notebook::Notebook</text>
</a>
</g>
</g>
<!-- Node4&#45;&gt;Node5 -->
<g id="edge4" class="edge">
<title>Node4&#45;&gt;Node5</title>
<path fill="none" stroke="midnightblue" d="M130.9,-86C122.49,-86 113.77,-86 105.36,-86"/>
<polygon fill="midnightblue" stroke="midnightblue" points="130.97,-89.5 140.97,-86 130.97,-82.5 130.97,-89.5"/>
</g>
<!-- Node7 -->
<g id="node7" class="node">
<title>Node7</title>
<g id="a_node7"><a xlink:href="classPen.html#a0e13574ef77fcec1a3c255a4754dbee7" target="_top" xlink:title="Constructor for Pen.">
<polygon fill="none" stroke="black" points="24.5,-38.5 24.5,-57.5 80.5,-57.5 80.5,-38.5 24.5,-38.5"/>
<text text-anchor="middle" x="52.5" y="-45.5" font-family="Helvetica,sans-Serif" font-size="10.00">Pen::Pen</text>
</a>
</g>
</g>
<!-- Node6&#45;&gt;Node7 -->
<g id="edge6" class="edge">
<title>Node6&#45;&gt;Node7</title>
<path fill="none" stroke="midnightblue" d="M143.11,-48C122.98,-48 98.98,-48 80.89,-48"/>
<polygon fill="midnightblue" stroke="midnightblue" points="143.23,-51.5 153.23,-48 143.23,-44.5 143.23,-51.5"/>
</g>
<!-- Node9 -->
<g id="node9" class="node">
<title>Node9</title>
<g id="a_node9"><a xlink:href="classPencil.html#a0040515e10922cb450e4408874b57624" target="_top" xlink:title="Constructor for Pencil.">
<polygon fill="none" stroke="black" points="15,-0.5 15,-19.5 90,-19.5 90,-0.5 15,-0.5"/>
<text text-anchor="middle" x="52.5" y="-7.5" font-family="Helvetica,sans-Serif" font-size="10.00">Pencil::Pencil</text>
</a>
</g>
</g>
<!-- Node8&#45;&gt;Node9 -->
<g id="edge8" class="edge">
<title>Node8&#45;&gt;Node9</title>
<path fill="none" stroke="midnightblue" d="M138.27,-10C122.59,-10 105.13,-10 90.15,-10"/>
<polygon fill="midnightblue" stroke="midnightblue" points="138.27,-13.5 148.27,-10 138.27,-6.5 138.27,-13.5"/>
</g>
</g>
</svg>
