<?xml version="1.0" encoding="UTF-8" standalone="no"?>
<!DOCTYPE svg PUBLIC "-//W3C//DTD SVG 1.1//EN"
 "http://www.w3.org/Graphics/SVG/1.1/DTD/svg11.dtd">
<!-- Generated by graphviz version 2.49.3 (20211027.1534)
 -->
<!-- Title: Notebook Pages: 1 -->
<svg width="437pt" height="530pt"
 viewBox="0.00 0.00 436.50 530.00" xmlns="http://www.w3.org/2000/svg" xmlns:xlink="http://www.w3.org/1999/xlink">
<g id="graph0" class="graph" transform="scale(1 1) rotate(0) translate(4 526)">
<title>Notebook</title>
<!-- Node1 -->
<g id="node1" class="node">
<title>Node1</title>
<g id="a_node1"><a xlink:title="Class representing a Notebook.">
<polygon fill="#bfbfbf" stroke="black" points="0,-0.5 0,-101.5 329,-101.5 329,-0.5 0,-0.5"/>
<text text-anchor="middle" x="164.5" y="-89.5" font-family="Helvetica,sans-Serif" font-size="10.00">Notebook</text>
<polyline fill="none" stroke="black" points="0,-82.5 329,-82.5 "/>
<text text-anchor="middle" x="164.5" y="-70.5" font-family="Helvetica,sans-Serif" font-size="10.00"> </text>
<polyline fill="none" stroke="black" points="0,-63.5 329,-63.5 "/>
<text text-anchor="start" x="8" y="-51.5" font-family="Helvetica,sans-Serif" font-size="10.00">+ Notebook(int subjects, int stock, double price, string name, string desc)</text>
<text text-anchor="start" x="8" y="-40.5" font-family="Helvetica,sans-Serif" font-size="10.00">+ void setSubjects(int subjects)</text>
<text text-anchor="start" x="8" y="-29.5" font-family="Helvetica,sans-Serif" font-size="10.00">+ int getSubjects()</text>
<text text-anchor="start" x="8" y="-18.5" font-family="Helvetica,sans-Serif" font-size="10.00">+ void setId() override</text>
<text text-anchor="start" x="8" y="-7.5" font-family="Helvetica,sans-Serif" font-size="10.00">+ string getDetails() override</text>
</a>
</g>
</g>
<!-- Node2 -->
<g id="node2" class="node">
<title>Node2</title>
<g id="a_node2"><a xlink:href="classItem.html" target="_top" xlink:title="Base class for all other items.">
<polygon fill="none" stroke="black" points="176.5,-139.5 176.5,-394.5 428.5,-394.5 428.5,-139.5 176.5,-139.5"/>
<text text-anchor="middle" x="302.5" y="-382.5" font-family="Helvetica,sans-Serif" font-size="10.00">Item</text>
<polyline fill="none" stroke="black" points="176.5,-375.5 428.5,-375.5 "/>
<text text-anchor="middle" x="302.5" y="-363.5" font-family="Helvetica,sans-Serif" font-size="10.00"> </text>
<polyline fill="none" stroke="black" points="176.5,-356.5 428.5,-356.5 "/>
<text text-anchor="start" x="184.5" y="-344.5" font-family="Helvetica,sans-Serif" font-size="10.00">+ Item(int stock, double price, string name, string desc)</text>
<text text-anchor="start" x="184.5" y="-333.5" font-family="Helvetica,sans-Serif" font-size="10.00">+ virtual ~Item()</text>
<text text-anchor="start" x="184.5" y="-322.5" font-family="Helvetica,sans-Serif" font-size="10.00">+ size_t getId()</text>
<text text-anchor="start" x="184.5" y="-311.5" font-family="Helvetica,sans-Serif" font-size="10.00">+ void setStock(int stock)</text>
<text text-anchor="start" x="184.5" y="-300.5" font-family="Helvetica,sans-Serif" font-size="10.00">+ int getStock()</text>
<text text-anchor="start" x="184.5" y="-289.5" font-family="Helvetica,sans-Serif" font-size="10.00">+ void setPrice(double price)</text>
<text text-anchor="start" x="184.5" y="-278.5" font-family="Helvetica,sans-Serif" font-size="10.00">+ double getPrice()</text>
<text text-anchor="start" x="184.5" y="-267.5" font-family="Helvetica,sans-Serif" font-size="10.00">+ void setName(string name)</text>
<text text-anchor="start" x="184.5" y="-256.5" font-family="Helvetica,sans-Serif" font-size="10.00">+ string getName()</text>
<text text-anchor="start" x="184.5" y="-245.5" font-family="Helvetica,sans-Serif" font-size="10.00">+ void setDescription(string desc)</text>
<text text-anchor="start" x="184.5" y="-234.5" font-family="Helvetica,sans-Serif" font-size="10.00">+ string getDescription()</text>
<text text-anchor="start" x="184.5" y="-223.5" font-family="Helvetica,sans-Serif" font-size="10.00">+ string getCategory()</text>
<text text-anchor="start" x="184.5" y="-212.5" font-family="Helvetica,sans-Serif" font-size="10.00">+ string getBasicInfo()</text>
<text text-anchor="start" x="184.5" y="-201.5" font-family="Helvetica,sans-Serif" font-size="10.00">+ void setId(size_t)</text>
<text text-anchor="start" x="184.5" y="-190.5" font-family="Helvetica,sans-Serif" font-size="10.00">+ void setCategory(string)</text>
<text text-anchor="start" x="184.5" y="-179.5" font-family="Helvetica,sans-Serif" font-size="10.00">+ virtual void setId()=0</text>
<text text-anchor="start" x="184.5" y="-168.5" font-family="Helvetica,sans-Serif" font-size="10.00">+ virtual string getDetails()=0</text>
<text text-anchor="start" x="184.5" y="-157.5" font-family="Helvetica,sans-Serif" font-size="10.00">+ operator std::string()</text>
<text text-anchor="start" x="184.5" y="-146.5" font-family="Helvetica,sans-Serif" font-size="10.00">+ bool operator==(const Item &amp;)</text>
</a>
</g>
</g>
<!-- Node2&#45;&gt;Node1 -->
<g id="edge1" class="edge">
<title>Node2&#45;&gt;Node1</title>
<path fill="none" stroke="midnightblue" d="M215.3,-130.77C208.77,-120.65 202.48,-110.89 196.67,-101.89"/>
<polygon fill="none" stroke="midnightblue" points="212.47,-132.84 220.83,-139.35 218.35,-129.05 212.47,-132.84"/>
</g>
<!-- Node3 -->
<g id="node3" class="node">
<title>Node3</title>
<g id="a_node3"><a xlink:title=" ">
<polygon fill="none" stroke="#bfbfbf" points="352.5,-464.5 352.5,-521.5 394.5,-521.5 394.5,-464.5 352.5,-464.5"/>
<text text-anchor="middle" x="373.5" y="-509.5" font-family="Helvetica,sans-Serif" font-size="10.00">size_t</text>
<polyline fill="none" stroke="#bfbfbf" points="352.5,-502.5 394.5,-502.5 "/>
<text text-anchor="middle" x="373.5" y="-490.5" font-family="Helvetica,sans-Serif" font-size="10.00"> </text>
<polyline fill="none" stroke="#bfbfbf" points="352.5,-483.5 394.5,-483.5 "/>
<text text-anchor="middle" x="373.5" y="-471.5" font-family="Helvetica,sans-Serif" font-size="10.00"> </text>
</a>
</g>
</g>
<!-- Node3&#45;&gt;Node2 -->
<g id="edge2" class="edge">
<title>Node3&#45;&gt;Node2</title>
<path fill="none" stroke="#404040" d="M366.23,-464.47C362.11,-449.24 356.74,-430.01 351.5,-413 350.81,-410.76 350.11,-408.51 349.4,-406.24"/>
<polygon fill="none" stroke="#404040" points="349.4,-406.23 343.78,-401.72 345.79,-394.79 351.41,-399.31 349.4,-406.23"/>
<text text-anchor="middle" x="370" y="-427" font-family="Helvetica,sans-Serif" font-size="10.00"> &#45;_id</text>
</g>
<!-- Node4 -->
<g id="node4" class="node">
<title>Node4</title>
<g id="a_node4"><a xlink:title=" ">
<polygon fill="none" stroke="#bfbfbf" points="123,-464.5 123,-521.5 152,-521.5 152,-464.5 123,-464.5"/>
<text text-anchor="middle" x="137.5" y="-509.5" font-family="Helvetica,sans-Serif" font-size="10.00">int</text>
<polyline fill="none" stroke="#bfbfbf" points="123,-502.5 152,-502.5 "/>
<text text-anchor="middle" x="137.5" y="-490.5" font-family="Helvetica,sans-Serif" font-size="10.00"> </text>
<polyline fill="none" stroke="#bfbfbf" points="123,-483.5 152,-483.5 "/>
<text text-anchor="middle" x="137.5" y="-471.5" font-family="Helvetica,sans-Serif" font-size="10.00"> </text>
</a>
</g>
</g>
<!-- Node4&#45;&gt;Node1 -->
<g id="edge6" class="edge">
<title>Node4&#45;&gt;Node1</title>
<path fill="none" stroke="#404040" d="M130.83,-464.49C117.39,-404.4 90.7,-257.36 119.5,-139 121.62,-130.27 124.79,-121.43 128.47,-112.91"/>
<polygon fill="none" stroke="#404040" points="128.52,-112.81 127.42,-105.68 133.57,-101.92 134.68,-109.05 128.52,-112.81"/>
<text text-anchor="middle" x="143.5" y="-264.5" font-family="Helvetica,sans-Serif" font-size="10.00"> &#45;_subjects</text>
</g>
<!-- Node4&#45;&gt;Node2 -->
<g id="edge3" class="edge">
<title>Node4&#45;&gt;Node2</title>
<path fill="none" stroke="#404040" d="M152.14,-472.12C164.15,-455.81 182.32,-431.15 201.92,-404.54"/>
<polygon fill="none" stroke="#404040" points="202.09,-404.32 202.42,-397.12 209.2,-394.66 208.86,-401.86 202.09,-404.32"/>
<text text-anchor="middle" x="214" y="-427" font-family="Helvetica,sans-Serif" font-size="10.00"> &#45;_stock</text>
</g>
<!-- Node5 -->
<g id="node5" class="node">
<title>Node5</title>
<g id="a_node5"><a xlink:title=" ">
<polygon fill="none" stroke="#bfbfbf" points="219,-464.5 219,-521.5 264,-521.5 264,-464.5 219,-464.5"/>
<text text-anchor="middle" x="241.5" y="-509.5" font-family="Helvetica,sans-Serif" font-size="10.00">double</text>
<polyline fill="none" stroke="#bfbfbf" points="219,-502.5 264,-502.5 "/>
<text text-anchor="middle" x="241.5" y="-490.5" font-family="Helvetica,sans-Serif" font-size="10.00"> </text>
<polyline fill="none" stroke="#bfbfbf" points="219,-483.5 264,-483.5 "/>
<text text-anchor="middle" x="241.5" y="-471.5" font-family="Helvetica,sans-Serif" font-size="10.00"> </text>
</a>
</g>
</g>
<!-- Node5&#45;&gt;Node2 -->
<g id="edge4" class="edge">
<title>Node5&#45;&gt;Node2</title>
<path fill="none" stroke="#404040" d="M249.1,-464.08C253.32,-448.6 258.91,-428.07 264.89,-406.13"/>
<polygon fill="none" stroke="#404040" points="264.89,-406.12 262.6,-399.28 268.04,-394.54 270.32,-401.38 264.89,-406.12"/>
<text text-anchor="middle" x="279.5" y="-427" font-family="Helvetica,sans-Serif" font-size="10.00"> &#45;_price</text>
</g>
<!-- Node6 -->
<g id="node6" class="node">
<title>Node6</title>
<g id="a_node6"><a xlink:title=" ">
<polygon fill="none" stroke="#bfbfbf" points="282,-464.5 282,-521.5 323,-521.5 323,-464.5 282,-464.5"/>
<text text-anchor="middle" x="302.5" y="-509.5" font-family="Helvetica,sans-Serif" font-size="10.00">string</text>
<polyline fill="none" stroke="#bfbfbf" points="282,-502.5 323,-502.5 "/>
<text text-anchor="middle" x="302.5" y="-490.5" font-family="Helvetica,sans-Serif" font-size="10.00"> </text>
<polyline fill="none" stroke="#bfbfbf" points="282,-483.5 323,-483.5 "/>
<text text-anchor="middle" x="302.5" y="-471.5" font-family="Helvetica,sans-Serif" font-size="10.00"> </text>
</a>
</g>
</g>
<!-- Node6&#45;&gt;Node2 -->
<g id="edge5" class="edge">
<title>Node6&#45;&gt;Node2</title>
<path fill="none" stroke="#404040" d="M302.5,-464.08C302.5,-448.75 302.5,-428.45 302.5,-406.73"/>
<polygon fill="none" stroke="#404040" points="302.5,-406.54 298.5,-400.54 302.5,-394.54 306.5,-400.54 302.5,-406.54"/>
<text text-anchor="middle" x="326.5" y="-438" font-family="Helvetica,sans-Serif" font-size="10.00"> &#45;_category</text>
<text text-anchor="middle" x="326.5" y="-427" font-family="Helvetica,sans-Serif" font-size="10.00">&#45;_desc</text>
<text text-anchor="middle" x="326.5" y="-416" font-family="Helvetica,sans-Serif" font-size="10.00">&#45;_name</text>
</g>
</g>
</svg>
