<?xml version="1.0" encoding="UTF-8" standalone="no"?>
<!DOCTYPE svg PUBLIC "-//W3C//DTD SVG 1.1//EN"
 "http://www.w3.org/Graphics/SVG/1.1/DTD/svg11.dtd">
<!-- Generated by graphviz version 2.49.3 (20211027.1534)
 -->
<!-- Title: Buyer::showCart Pages: 1 -->
<svg width="607pt" height="85pt"
 viewBox="0.00 0.00 607.00 85.00" xmlns="http://www.w3.org/2000/svg" xmlns:xlink="http://www.w3.org/1999/xlink">
<g id="graph0" class="graph" transform="scale(1 1) rotate(0) translate(4 81)">
<title>Buyer::showCart</title>
<!-- Node1 -->
<g id="node1" class="node">
<title>Node1</title>
<g id="a_node1"><a xlink:title="Wrapper to ShoppingCart::showCart()">
<polygon fill="#bfbfbf" stroke="black" points="0,-38.5 0,-57.5 87,-57.5 87,-38.5 0,-38.5"/>
<text text-anchor="middle" x="43.5" y="-45.5" font-family="Helvetica,sans-Serif" font-size="10.00">Buyer::showCart</text>
</a>
</g>
</g>
<!-- Node2 -->
<g id="node2" class="node">
<title>Node2</title>
<g id="a_node2"><a xlink:href="classEShopError.html#a47b46a751485345958bf78cf5cd12090" target="_top" xlink:title="Return the error message.">
<polygon fill="none" stroke="black" points="139,-57.5 139,-76.5 228,-76.5 228,-57.5 139,-57.5"/>
<text text-anchor="middle" x="183.5" y="-64.5" font-family="Helvetica,sans-Serif" font-size="10.00">EShopError::error</text>
</a>
</g>
</g>
<!-- Node1&#45;&gt;Node2 -->
<g id="edge1" class="edge">
<title>Node1&#45;&gt;Node2</title>
<path fill="none" stroke="midnightblue" d="M87.03,-53.86C100.29,-55.68 115.08,-57.72 128.98,-59.63"/>
<polygon fill="midnightblue" stroke="midnightblue" points="128.53,-63.1 138.92,-61 129.49,-56.17 128.53,-63.1"/>
</g>
<!-- Node3 -->
<g id="node3" class="node">
<title>Node3</title>
<g id="a_node3"><a xlink:href="classShoppingCart.html#ac63018317b6a7619a80ecbf1d71e2083" target="_top" xlink:title="Show the contents of the cart.">
<polygon fill="none" stroke="black" points="123,-19.5 123,-38.5 244,-38.5 244,-19.5 123,-19.5"/>
<text text-anchor="middle" x="183.5" y="-26.5" font-family="Helvetica,sans-Serif" font-size="10.00">ShoppingCart::showCart</text>
</a>
</g>
</g>
<!-- Node1&#45;&gt;Node3 -->
<g id="edge2" class="edge">
<title>Node1&#45;&gt;Node3</title>
<path fill="none" stroke="midnightblue" d="M87.03,-42.14C95.26,-41.01 104.08,-39.8 112.91,-38.58"/>
<polygon fill="midnightblue" stroke="midnightblue" points="113.43,-42.04 122.86,-37.21 112.48,-35.11 113.43,-42.04"/>
</g>
<!-- Node4 -->
<g id="node4" class="node">
<title>Node4</title>
<g id="a_node4"><a xlink:href="classShoppingCart.html#aed1f25cafeacfa931c9c2b0b0cd6c442" target="_top" xlink:title="Calculates the cost of the courier.">
<polygon fill="none" stroke="black" points="280,-0.5 280,-19.5 429,-19.5 429,-0.5 280,-0.5"/>
<text text-anchor="middle" x="354.5" y="-7.5" font-family="Helvetica,sans-Serif" font-size="10.00">ShoppingCart::calculateCourier</text>
</a>
</g>
</g>
<!-- Node3&#45;&gt;Node4 -->
<g id="edge3" class="edge">
<title>Node3&#45;&gt;Node4</title>
<path fill="none" stroke="midnightblue" d="M244.08,-22.3C252.42,-21.36 261.1,-20.39 269.78,-19.41"/>
<polygon fill="midnightblue" stroke="midnightblue" points="270.39,-22.87 279.94,-18.27 269.61,-15.91 270.39,-22.87"/>
</g>
<!-- Node5 -->
<g id="node5" class="node">
<title>Node5</title>
<g id="a_node5"><a xlink:href="classShoppingCart.html#aefd629209efffec246165e50efaf40d3" target="_top" xlink:title="Calculates the cost of the order.">
<polygon fill="none" stroke="black" points="465,-38.5 465,-57.5 599,-57.5 599,-38.5 465,-38.5"/>
<text text-anchor="middle" x="532" y="-45.5" font-family="Helvetica,sans-Serif" font-size="10.00">ShoppingCart::calculateNet</text>
</a>
</g>
</g>
<!-- Node3&#45;&gt;Node5 -->
<g id="edge6" class="edge">
<title>Node3&#45;&gt;Node5</title>
<path fill="none" stroke="midnightblue" d="M244.07,-32.27C302.26,-35.46 391.09,-40.33 454.49,-43.8"/>
<polygon fill="midnightblue" stroke="midnightblue" points="454.66,-47.32 464.83,-44.37 455.04,-40.33 454.66,-47.32"/>
</g>
<!-- Node4&#45;&gt;Node5 -->
<g id="edge4" class="edge">
<title>Node4&#45;&gt;Node5</title>
<path fill="none" stroke="midnightblue" d="M399.79,-19.59C423.26,-24.67 452.28,-30.96 477.06,-36.32"/>
<polygon fill="midnightblue" stroke="midnightblue" points="476.52,-39.78 487.03,-38.48 478,-32.94 476.52,-39.78"/>
</g>
<!-- Node6 -->
<g id="node6" class="node">
<title>Node6</title>
<g id="a_node6"><a xlink:href="classBuyer.html#a3a482baedbb2d8fc1fde5dee7a435102" target="_top" xlink:title="Get the Buyer&#39;s category.">
<polygon fill="none" stroke="black" points="483,-0.5 483,-19.5 581,-19.5 581,-0.5 483,-0.5"/>
<text text-anchor="middle" x="532" y="-7.5" font-family="Helvetica,sans-Serif" font-size="10.00">Buyer::getCategory</text>
</a>
</g>
</g>
<!-- Node4&#45;&gt;Node6 -->
<g id="edge5" class="edge">
<title>Node4&#45;&gt;Node6</title>
<path fill="none" stroke="midnightblue" d="M429.16,-10C443.59,-10 458.54,-10 472.39,-10"/>
<polygon fill="midnightblue" stroke="midnightblue" points="472.75,-13.5 482.75,-10 472.75,-6.5 472.75,-13.5"/>
</g>
</g>
</svg>
