<?xml version="1.0" encoding="UTF-8" standalone="no"?>
<!DOCTYPE svg PUBLIC "-//W3C//DTD SVG 1.1//EN"
 "http://www.w3.org/Graphics/SVG/1.1/DTD/svg11.dtd">
<!-- Generated by graphviz version 2.49.3 (20211027.1534)
 -->
<!-- Title: Buyer::placeOrder Pages: 1 -->
<!--zoomable 218 -->
<svg id="main" version="1.1" xmlns="http://www.w3.org/2000/svg" xmlns:xlink="http://www.w3.org/1999/xlink" xml:space="preserve" onload="init(evt)">
<style type="text/css"><![CDATA[
.edge:hover path { stroke: red; }
.edge:hover polygon { stroke: red; fill: red; }
]]></style>
<script type="text/javascript"><![CDATA[
var edges = document.getElementsByTagName('g');
if (edges && edges.length) {
  for (var i=0;i<edges.length;i++) {
    if (edges[i].id.substr(0,4)=='edge') {
      edges[i].setAttribute('class','edge');
    }
  }
}
]]></script>
        <defs>
                <circle id="rim" cx="0" cy="0" r="7"/>
                <circle id="rim2" cx="0" cy="0" r="3.5"/>
                <g id="zoomPlus">
                        <use xlink:href="#rim" fill="#404040">
                                <set attributeName="fill" to="#808080" begin="zoomplus.mouseover" end="zoomplus.mouseout"/>
                        </use>
                        <path d="M-4,0h8M0,-4v8" fill="none" stroke="white" stroke-width="1.5" pointer-events="none"/>
                </g>
                <g id="zoomMin">
                        <use xlink:href="#rim" fill="#404040">
                                <set attributeName="fill" to="#808080" begin="zoomminus.mouseover" end="zoomminus.mouseout"/>
                        </use>
                        <path d="M-4,0h8" fill="none" stroke="white" stroke-width="1.5" pointer-events="none"/>
                </g>
                <g id="dirArrow">
                        <path fill="none" stroke="white" stroke-width="1.5" d="M0,-3.0v7 M-2.5,-0.5L0,-3.0L2.5,-0.5"/>
                </g>
               <g id="resetDef">
                       <use xlink:href="#rim2" fill="#404040">
                               <set attributeName="fill" to="#808080" begin="reset.mouseover" end="reset.mouseout"/>
                       </use>
               </g>
        </defs>

<script type="text/javascript">
var viewWidth = 810;
var viewHeight = 218;
var sectionId = 'dynsection-14';
</script>
<script xlink:href="svgpan.js"/>
<svg id="graph" class="graph">
<g id="viewport">
<title>Buyer::placeOrder</title>
<!-- Node1 -->
<g id="node1" class="node">
<title>Node1</title>
<g id="a_node1"><a xlink:title="Add an item to the cart with the specified quantity.">
<polygon fill="#bfbfbf" stroke="black" points="0,-38.5 0,-57.5 93,-57.5 93,-38.5 0,-38.5"/>
<text text-anchor="middle" x="46.5" y="-45.5" font-family="Helvetica,sans-Serif" font-size="10.00">Buyer::placeOrder</text>
</a>
</g>
</g>
<!-- Node2 -->
<g id="node2" class="node">
<title>Node2</title>
<g id="a_node2"><a xlink:href="classShoppingCart.html#a5481a654a62253b5de2650f9149f6780" target="_top" xlink:title="Add quantity of an Item to the cart.">
<polygon fill="none" stroke="black" points="129,-114.5 129,-133.5 268,-133.5 268,-114.5 129,-114.5"/>
<text text-anchor="middle" x="198.5" y="-121.5" font-family="Helvetica,sans-Serif" font-size="10.00">ShoppingCart::addItemOrder</text>
</a>
</g>
</g>
<!-- Node1&#45;&gt;Node2 -->
<g id="edge1" class="edge">
<title>Node1&#45;&gt;Node2</title>
<path fill="none" stroke="midnightblue" d="M66.5,-57.63C92.53,-70.82 139.49,-94.61 169.54,-109.83"/>
<polygon fill="midnightblue" stroke="midnightblue" points="168.15,-113.06 178.66,-114.45 171.32,-106.81 168.15,-113.06"/>
</g>
<!-- Node5 -->
<g id="node5" class="node">
<title>Node5</title>
<g id="a_node5"><a xlink:href="classItem.html#adb47826cabe2aae97ad65a57cd04f963" target="_top" xlink:title="Get the Item&#39;s stock.">
<polygon fill="none" stroke="black" points="722,-76.5 722,-95.5 802,-95.5 802,-76.5 722,-76.5"/>
<text text-anchor="middle" x="762" y="-83.5" font-family="Helvetica,sans-Serif" font-size="10.00">Item::getStock</text>
</a>
</g>
</g>
<!-- Node1&#45;&gt;Node5 -->
<g id="edge10" class="edge">
<title>Node1&#45;&gt;Node5</title>
<path fill="none" stroke="midnightblue" d="M93.19,-50.13C198.01,-55.06 463.84,-67.85 686,-81 694.24,-81.49 702.99,-82.04 711.5,-82.59"/>
<polygon fill="midnightblue" stroke="midnightblue" points="711.48,-86.1 721.69,-83.27 711.95,-79.12 711.48,-86.1"/>
</g>
<!-- Node8 -->
<g id="node8" class="node">
<title>Node8</title>
<g id="a_node8"><a xlink:href="classEShopError.html#a47b46a751485345958bf78cf5cd12090" target="_top" xlink:title="Return the error message.">
<polygon fill="none" stroke="black" points="154,-0.5 154,-19.5 243,-19.5 243,-0.5 154,-0.5"/>
<text text-anchor="middle" x="198.5" y="-7.5" font-family="Helvetica,sans-Serif" font-size="10.00">EShopError::error</text>
</a>
</g>
</g>
<!-- Node1&#45;&gt;Node8 -->
<g id="edge9" class="edge">
<title>Node1&#45;&gt;Node8</title>
<path fill="none" stroke="midnightblue" d="M85.35,-38.41C104.97,-33.44 129.12,-27.32 149.98,-22.04"/>
<polygon fill="midnightblue" stroke="midnightblue" points="151.09,-25.37 159.92,-19.52 149.37,-18.58 151.09,-25.37"/>
</g>
<!-- Node3 -->
<g id="node3" class="node">
<title>Node3</title>
<g id="a_node3"><a xlink:href="classShoppingCart.html#a211bfa95c5d4346f6405e93b9f4a1990" target="_top" xlink:title="Changes the quantity of an item in the cart.">
<polygon fill="none" stroke="black" points="304,-114.5 304,-133.5 495,-133.5 495,-114.5 304,-114.5"/>
<text text-anchor="middle" x="399.5" y="-121.5" font-family="Helvetica,sans-Serif" font-size="10.00">ShoppingCart::changeItemOrderQuantity</text>
</a>
</g>
</g>
<!-- Node2&#45;&gt;Node3 -->
<g id="edge2" class="edge">
<title>Node2&#45;&gt;Node3</title>
<path fill="none" stroke="midnightblue" d="M268.26,-124C276.5,-124 285.05,-124 293.65,-124"/>
<polygon fill="midnightblue" stroke="midnightblue" points="293.75,-127.5 303.75,-124 293.75,-120.5 293.75,-127.5"/>
</g>
<!-- Node2&#45;&gt;Node5 -->
<g id="edge7" class="edge">
<title>Node2&#45;&gt;Node5</title>
<path fill="none" stroke="midnightblue" d="M244.05,-114.5C262.52,-110.93 284.21,-107.2 304,-105 451.74,-88.58 627.77,-86.01 711.72,-85.82"/>
<polygon fill="midnightblue" stroke="midnightblue" points="711.74,-89.32 721.74,-85.81 711.73,-82.32 711.74,-89.32"/>
</g>
<!-- Node6 -->
<g id="node6" class="node">
<title>Node6</title>
<g id="a_node6"><a xlink:href="classItem.html#a0fa2135af2d5ac406fc7ee8d9b73aeec" target="_top" xlink:title="Set the stock of an item.">
<polygon fill="none" stroke="black" points="722,-133.5 722,-152.5 802,-152.5 802,-133.5 722,-133.5"/>
<text text-anchor="middle" x="762" y="-140.5" font-family="Helvetica,sans-Serif" font-size="10.00">Item::setStock</text>
</a>
</g>
</g>
<!-- Node2&#45;&gt;Node6 -->
<g id="edge8" class="edge">
<title>Node2&#45;&gt;Node6</title>
<path fill="none" stroke="midnightblue" d="M241.97,-133.51C260.86,-137.28 283.43,-141.15 304,-143 451.92,-156.34 627.87,-150.17 711.76,-145.89"/>
<polygon fill="midnightblue" stroke="midnightblue" points="711.97,-149.38 721.77,-145.37 711.6,-142.39 711.97,-149.38"/>
</g>
<!-- Node7 -->
<g id="node7" class="node">
<title>Node7</title>
<g id="a_node7"><a xlink:href="classItem.html#a63d7f2148b699e539aae354b01559811" target="_top" xlink:title="Get the Item&#39;s name.">
<polygon fill="none" stroke="black" points="359.5,-190.5 359.5,-209.5 439.5,-209.5 439.5,-190.5 359.5,-190.5"/>
<text text-anchor="middle" x="399.5" y="-197.5" font-family="Helvetica,sans-Serif" font-size="10.00">Item::getName</text>
</a>
</g>
</g>
<!-- Node2&#45;&gt;Node7 -->
<g id="edge6" class="edge">
<title>Node2&#45;&gt;Node7</title>
<path fill="none" stroke="midnightblue" d="M216.02,-133.61C236.22,-145.02 271.7,-164.02 304,-176 318.44,-181.36 334.56,-185.94 349.33,-189.62"/>
<polygon fill="midnightblue" stroke="midnightblue" points="348.77,-193.08 359.31,-192.02 350.41,-186.28 348.77,-193.08"/>
</g>
<!-- Node4 -->
<g id="node4" class="node">
<title>Node4</title>
<g id="a_node4"><a xlink:href="classShoppingCart.html#ac61d13f6110480f27e8fd31e7ccdbfe6" target="_top" xlink:title="Remove an item from the cart completely.">
<polygon fill="none" stroke="black" points="531,-114.5 531,-133.5 686,-133.5 686,-114.5 531,-114.5"/>
<text text-anchor="middle" x="608.5" y="-121.5" font-family="Helvetica,sans-Serif" font-size="10.00">ShoppingCart::removeItemOrder</text>
</a>
</g>
</g>
<!-- Node3&#45;&gt;Node4 -->
<g id="edge3" class="edge">
<title>Node3&#45;&gt;Node4</title>
<path fill="none" stroke="midnightblue" d="M495.22,-124C503.69,-124 512.25,-124 520.65,-124"/>
<polygon fill="midnightblue" stroke="midnightblue" points="520.82,-127.5 530.82,-124 520.82,-120.5 520.82,-127.5"/>
</g>
<!-- Node4&#45;&gt;Node5 -->
<g id="edge4" class="edge">
<title>Node4&#45;&gt;Node5</title>
<path fill="none" stroke="midnightblue" d="M647.73,-114.41C667.63,-109.42 692.16,-103.27 713.29,-97.97"/>
<polygon fill="midnightblue" stroke="midnightblue" points="714.2,-101.35 723.05,-95.52 712.49,-94.56 714.2,-101.35"/>
</g>
<!-- Node4&#45;&gt;Node6 -->
<g id="edge5" class="edge">
<title>Node4&#45;&gt;Node6</title>
<path fill="none" stroke="midnightblue" d="M685.69,-133.56C694.6,-134.67 703.5,-135.79 711.89,-136.84"/>
<polygon fill="midnightblue" stroke="midnightblue" points="711.5,-140.32 721.85,-138.09 712.37,-133.37 711.5,-140.32"/>
</g>
</g>
</svg>
        <g id="navigator" transform="translate(0 0)" fill="#404254">
                <rect fill="#f2f5e9" fill-opacity="0.5" stroke="#606060" stroke-width=".5" x="0" y="0" width="60" height="60"/>
                <use id="zoomplus" xlink:href="#zoomPlus" x="17" y="9" onmousedown="handleZoom(evt,'in')"/>
                <use id="zoomminus" xlink:href="#zoomMin" x="42" y="9" onmousedown="handleZoom(evt,'out')"/>
                <use id="reset" xlink:href="#resetDef" x="30" y="36" onmousedown="handleReset()"/>
                <g id="arrowUp" xlink:href="#dirArrow" transform="translate(30 24)" onmousedown="handlePan(0,-1)">
                  <use xlink:href="#rim" fill="#404040">
                        <set attributeName="fill" to="#808080" begin="arrowUp.mouseover" end="arrowUp.mouseout"/>
                  </use>
                  <path fill="none" stroke="white" stroke-width="1.5" d="M0,-3.0v7 M-2.5,-0.5L0,-3.0L2.5,-0.5"/>
                </g>
                <g id="arrowRight" xlink:href="#dirArrow" transform="rotate(90) translate(36 -43)" onmousedown="handlePan(1,0)">
                  <use xlink:href="#rim" fill="#404040">
                        <set attributeName="fill" to="#808080" begin="arrowRight.mouseover" end="arrowRight.mouseout"/>
                  </use>
                  <path fill="none" stroke="white" stroke-width="1.5" d="M0,-3.0v7 M-2.5,-0.5L0,-3.0L2.5,-0.5"/>
                </g>
                <g id="arrowDown" xlink:href="#dirArrow" transform="rotate(180) translate(-30 -48)" onmousedown="handlePan(0,1)">
                  <use xlink:href="#rim" fill="#404040">
                        <set attributeName="fill" to="#808080" begin="arrowDown.mouseover" end="arrowDown.mouseout"/>
                  </use>
                  <path fill="none" stroke="white" stroke-width="1.5" d="M0,-3.0v7 M-2.5,-0.5L0,-3.0L2.5,-0.5"/>
                </g>
                <g id="arrowLeft" xlink:href="#dirArrow" transform="rotate(270) translate(-36 17)" onmousedown="handlePan(-1,0)">
                  <use xlink:href="#rim" fill="#404040">
                        <set attributeName="fill" to="#808080" begin="arrowLeft.mouseover" end="arrowLeft.mouseout"/>
                  </use>
                  <path fill="none" stroke="white" stroke-width="1.5" d="M0,-3.0v7 M-2.5,-0.5L0,-3.0L2.5,-0.5"/>
                </g>
        </g>
        <svg viewBox="0 0 15 15" width="100%" height="30px" preserveAspectRatio="xMaxYMin meet">
         <g id="arrow_out" transform="scale(0.3 0.3)">
          <a xlink:href="classBuyer_a50ddd9046308e8ac9b82c0665d07452b_cgraph_org.svg" target="_base">
           <rect id="button" ry="5" rx="5" y="6" x="6" height="38" width="38"
                fill="#f2f5e9" fill-opacity="0.5" stroke="#606060" stroke-width="1.0"/>
           <path id="arrow"
             d="M 11.500037,31.436501 C 11.940474,20.09759 22.043105,11.32322 32.158766,21.979434 L 37.068811,17.246167 C 37.068811,17.246167 37.088388,32 37.088388,32 L 22.160133,31.978069 C 22.160133,31.978069 26.997745,27.140456 26.997745,27.140456 C 18.528582,18.264221 13.291696,25.230495 11.500037,31.436501 z"
             style="fill:#404040;"/>
          </a>
         </g>
        </svg>
</svg>
