<?xml version="1.0" encoding="UTF-8" standalone="no"?>
<!DOCTYPE svg PUBLIC "-//W3C//DTD SVG 1.1//EN"
 "http://www.w3.org/Graphics/SVG/1.1/DTD/svg11.dtd">
<!-- Generated by graphviz version 2.49.3 (20211027.1534)
 -->
<!-- Title: User::User Pages: 1 -->
<svg width="189pt" height="66pt"
 viewBox="0.00 0.00 189.00 66.00" xmlns="http://www.w3.org/2000/svg" xmlns:xlink="http://www.w3.org/1999/xlink">
<g id="graph0" class="graph" transform="scale(1 1) rotate(0) translate(4 62)">
<title>User::User</title>
<!-- Node1 -->
<g id="node1" class="node">
<title>Node1</title>
<g id="a_node1"><a xlink:title="Constructor for User, called by Owner and Buyer.">
<polygon fill="#bfbfbf" stroke="black" points="0,-19.5 0,-38.5 63,-38.5 63,-19.5 0,-19.5"/>
<text text-anchor="middle" x="31.5" y="-26.5" font-family="Helvetica,sans-Serif" font-size="10.00">User::User</text>
</a>
</g>
</g>
<!-- Node2 -->
<g id="node2" class="node">
<title>Node2</title>
<g id="a_node2"><a xlink:href="classUser.html#a9d38dd7a9f5ca79cf17ecf572d42c647" target="_top" xlink:title=" ">
<polygon fill="none" stroke="black" points="100,-38.5 100,-57.5 180,-57.5 180,-38.5 100,-38.5"/>
<text text-anchor="middle" x="140" y="-45.5" font-family="Helvetica,sans-Serif" font-size="10.00">User::setEmail</text>
</a>
</g>
</g>
<!-- Node1&#45;&gt;Node2 -->
<g id="edge1" class="edge">
<title>Node1&#45;&gt;Node2</title>
<path fill="none" stroke="midnightblue" d="M63.02,-34.44C71.33,-35.93 80.54,-37.57 89.61,-39.19"/>
<polygon fill="midnightblue" stroke="midnightblue" points="89.26,-42.68 99.72,-40.99 90.49,-35.79 89.26,-42.68"/>
</g>
<!-- Node3 -->
<g id="node3" class="node">
<title>Node3</title>
<g id="a_node3"><a xlink:href="classUser.html#acabf7e5a40909656de5bc631abe5588c" target="_top" xlink:title=" ">
<polygon fill="none" stroke="black" points="99,-0.5 99,-19.5 181,-19.5 181,-0.5 99,-0.5"/>
<text text-anchor="middle" x="140" y="-7.5" font-family="Helvetica,sans-Serif" font-size="10.00">User::setName</text>
</a>
</g>
</g>
<!-- Node1&#45;&gt;Node3 -->
<g id="edge2" class="edge">
<title>Node1&#45;&gt;Node3</title>
<path fill="none" stroke="midnightblue" d="M63.02,-23.56C71.15,-22.11 80.14,-20.5 89.02,-18.92"/>
<polygon fill="midnightblue" stroke="midnightblue" points="89.71,-22.35 98.94,-17.15 88.48,-15.46 89.71,-22.35"/>
</g>
</g>
</svg>
