<?xml version="1.0" encoding="UTF-8" standalone="no"?>
<!DOCTYPE svg PUBLIC "-//W3C//DTD SVG 1.1//EN"
 "http://www.w3.org/Graphics/SVG/1.1/DTD/svg11.dtd">
<!-- Generated by graphviz version 2.49.3 (20211027.1534)
 -->
<!-- Title: Menu::login Pages: 1 -->
<svg width="232pt" height="142pt"
 viewBox="0.00 0.00 232.00 142.00" xmlns="http://www.w3.org/2000/svg" xmlns:xlink="http://www.w3.org/1999/xlink">
<g id="graph0" class="graph" transform="scale(1 1) rotate(0) translate(4 138)">
<title>Menu::login</title>
<!-- Node1 -->
<g id="node1" class="node">
<title>Node1</title>
<g id="a_node1"><a xlink:title="User authentication.">
<polygon fill="#bfbfbf" stroke="black" points="0,-57.5 0,-76.5 65,-76.5 65,-57.5 0,-57.5"/>
<text text-anchor="middle" x="32.5" y="-64.5" font-family="Helvetica,sans-Serif" font-size="10.00">Menu::login</text>
</a>
</g>
</g>
<!-- Node2 -->
<g id="node2" class="node">
<title>Node2</title>
<g id="a_node2"><a xlink:href="classEShop.html#a5b06d5864cf02a1d4b2a6014d3064b61" target="_top" xlink:title="Return a Buyer reference if the Buyer&#39;s email is found in the e&#45;shop.">
<polygon fill="none" stroke="black" points="101,-114.5 101,-133.5 224,-133.5 224,-114.5 101,-114.5"/>
<text text-anchor="middle" x="162.5" y="-121.5" font-family="Helvetica,sans-Serif" font-size="10.00">EShop::getBuyerByEmail</text>
</a>
</g>
</g>
<!-- Node1&#45;&gt;Node2 -->
<g id="edge1" class="edge">
<title>Node1&#45;&gt;Node2</title>
<path fill="none" stroke="midnightblue" d="M48.32,-76.53C61.69,-84.85 82.12,-96.83 101,-105 106.11,-107.21 111.57,-109.3 117.04,-111.21"/>
<polygon fill="midnightblue" stroke="midnightblue" points="116.22,-114.63 126.81,-114.47 118.43,-107.99 116.22,-114.63"/>
</g>
<!-- Node3 -->
<g id="node3" class="node">
<title>Node3</title>
<g id="a_node3"><a xlink:href="classUser.html#a851bfaab8e406de66700edb326c58e38" target="_top" xlink:title="Get the Email of the user.">
<polygon fill="none" stroke="black" points="122.5,-76.5 122.5,-95.5 202.5,-95.5 202.5,-76.5 122.5,-76.5"/>
<text text-anchor="middle" x="162.5" y="-83.5" font-family="Helvetica,sans-Serif" font-size="10.00">User::getEmail</text>
</a>
</g>
</g>
<!-- Node1&#45;&gt;Node3 -->
<g id="edge2" class="edge">
<title>Node1&#45;&gt;Node3</title>
<path fill="none" stroke="midnightblue" d="M65.14,-71.7C79.35,-73.81 96.45,-76.34 112.27,-78.69"/>
<polygon fill="midnightblue" stroke="midnightblue" points="112.04,-82.2 122.45,-80.2 113.07,-75.27 112.04,-82.2"/>
</g>
<!-- Node4 -->
<g id="node4" class="node">
<title>Node4</title>
<g id="a_node4"><a xlink:href="classUser.html#adb316ac38d5f62a967686e7b736a0469" target="_top" xlink:title="Get the Name of the user.">
<polygon fill="none" stroke="black" points="121.5,-38.5 121.5,-57.5 203.5,-57.5 203.5,-38.5 121.5,-38.5"/>
<text text-anchor="middle" x="162.5" y="-45.5" font-family="Helvetica,sans-Serif" font-size="10.00">User::getName</text>
</a>
</g>
</g>
<!-- Node1&#45;&gt;Node4 -->
<g id="edge3" class="edge">
<title>Node1&#45;&gt;Node4</title>
<path fill="none" stroke="midnightblue" d="M65.14,-62.3C78.99,-60.25 95.58,-57.79 111.06,-55.49"/>
<polygon fill="midnightblue" stroke="midnightblue" points="111.65,-58.94 121.03,-54.01 110.62,-52.01 111.65,-58.94"/>
</g>
<!-- Node5 -->
<g id="node5" class="node">
<title>Node5</title>
<g id="a_node5"><a xlink:href="classEShop.html#a1bc26b7bab12221cb2b7682caf93df41" target="_top" xlink:title="Get the owner.">
<polygon fill="none" stroke="black" points="116.5,-0.5 116.5,-19.5 208.5,-19.5 208.5,-0.5 116.5,-0.5"/>
<text text-anchor="middle" x="162.5" y="-7.5" font-family="Helvetica,sans-Serif" font-size="10.00">EShop::getOwner</text>
</a>
</g>
</g>
<!-- Node1&#45;&gt;Node5 -->
<g id="edge4" class="edge">
<title>Node1&#45;&gt;Node5</title>
<path fill="none" stroke="midnightblue" d="M48.32,-57.47C61.69,-49.15 82.12,-37.17 101,-29 106.11,-26.79 111.57,-24.7 117.04,-22.79"/>
<polygon fill="midnightblue" stroke="midnightblue" points="118.43,-26.01 126.81,-19.53 116.22,-19.37 118.43,-26.01"/>
</g>
</g>
</svg>
