<?xml version="1.0" encoding="UTF-8" standalone="no"?>
<!DOCTYPE svg PUBLIC "-//W3C//DTD SVG 1.1//EN"
 "http://www.w3.org/Graphics/SVG/1.1/DTD/svg11.dtd">
<!-- Generated by graphviz version 2.49.3 (20211027.1534)
 -->
<!-- Title: Menu::showCategoryMenu Pages: 1 -->
<!--zoomable 159 -->
<svg id="main" version="1.1" xmlns="http://www.w3.org/2000/svg" xmlns:xlink="http://www.w3.org/1999/xlink" xml:space="preserve" onload="init(evt)">
<style type="text/css"><![CDATA[
.edge:hover path { stroke: red; }
.edge:hover polygon { stroke: red; fill: red; }
]]></style>
<script type="text/javascript"><![CDATA[
var edges = document.getElementsByTagName('g');
if (edges && edges.length) {
  for (var i=0;i<edges.length;i++) {
    if (edges[i].id.substr(0,4)=='edge') {
      edges[i].setAttribute('class','edge');
    }
  }
}
]]></script>
        <defs>
                <circle id="rim" cx="0" cy="0" r="7"/>
                <circle id="rim2" cx="0" cy="0" r="3.5"/>
                <g id="zoomPlus">
                        <use xlink:href="#rim" fill="#404040">
                                <set attributeName="fill" to="#808080" begin="zoomplus.mouseover" end="zoomplus.mouseout"/>
                        </use>
                        <path d="M-4,0h8M0,-4v8" fill="none" stroke="white" stroke-width="1.5" pointer-events="none"/>
                </g>
                <g id="zoomMin">
                        <use xlink:href="#rim" fill="#404040">
                                <set attributeName="fill" to="#808080" begin="zoomminus.mouseover" end="zoomminus.mouseout"/>
                        </use>
                        <path d="M-4,0h8" fill="none" stroke="white" stroke-width="1.5" pointer-events="none"/>
                </g>
                <g id="dirArrow">
                        <path fill="none" stroke="white" stroke-width="1.5" d="M0,-3.0v7 M-2.5,-0.5L0,-3.0L2.5,-0.5"/>
                </g>
               <g id="resetDef">
                       <use xlink:href="#rim2" fill="#404040">
                               <set attributeName="fill" to="#808080" begin="reset.mouseover" end="reset.mouseout"/>
                       </use>
               </g>
        </defs>

<script type="text/javascript">
var viewWidth = 938;
var viewHeight = 159;
var sectionId = 'dynsection-12';
</script>
<script xlink:href="svgpan.js"/>
<svg id="graph" class="graph">
<g id="viewport">
<title>Menu::showCategoryMenu</title>
<!-- Node1 -->
<g id="node1" class="node">
<title>Node1</title>
<g id="a_node1"><a xlink:title=" ">
<polygon fill="#bfbfbf" stroke="black" points="799,-71.5 799,-90.5 930,-90.5 930,-71.5 799,-71.5"/>
<text text-anchor="middle" x="864.5" y="-78.5" font-family="Helvetica,sans-Serif" font-size="10.00">Menu::showCategoryMenu</text>
</a>
</g>
</g>
<!-- Node2 -->
<g id="node2" class="node">
<title>Node2</title>
<g id="a_node2"><a xlink:href="classMenu.html#a1de78dc75d7de7db8bce09a70dbbf77f" target="_top" xlink:title=" ">
<polygon fill="none" stroke="black" points="637.5,-90.5 637.5,-109.5 762.5,-109.5 762.5,-90.5 637.5,-90.5"/>
<text text-anchor="middle" x="700" y="-97.5" font-family="Helvetica,sans-Serif" font-size="10.00">Menu::showBrowseMenu</text>
</a>
</g>
</g>
<!-- Node1&#45;&gt;Node2 -->
<g id="edge1" class="edge">
<title>Node1&#45;&gt;Node2</title>
<path fill="none" stroke="midnightblue" d="M788.68,-83.02C769.78,-85.12 750.4,-87.76 734.69,-90.47"/>
<polygon fill="midnightblue" stroke="midnightblue" points="789.23,-86.48 798.81,-81.94 788.49,-79.52 789.23,-86.48"/>
</g>
<!-- Node10 -->
<g id="node10" class="node">
<title>Node10</title>
<g id="a_node10"><a xlink:href="classMenu.html#a957fada7140f67c43e3ee253ae863125" target="_top" xlink:title=" ">
<polygon fill="none" stroke="black" points="637,-52.5 637,-71.5 763,-71.5 763,-52.5 637,-52.5"/>
<text text-anchor="middle" x="700" y="-59.5" font-family="Helvetica,sans-Serif" font-size="10.00">Menu::showProductMenu</text>
</a>
</g>
</g>
<!-- Node1&#45;&gt;Node10 -->
<g id="edge22" class="edge">
<title>Node1&#45;&gt;Node10</title>
<path fill="none" stroke="midnightblue" d="M819.95,-69.85C802.52,-67.12 782.13,-64.56 763.2,-62.69"/>
<polygon fill="midnightblue" stroke="midnightblue" points="819.4,-73.31 829.83,-71.47 820.53,-66.4 819.4,-73.31"/>
</g>
<!-- Node2&#45;&gt;Node1 -->
<g id="edge20" class="edge">
<title>Node2&#45;&gt;Node1</title>
<path fill="none" stroke="midnightblue" d="M772.55,-98.34C792.49,-96.19 813.21,-93.39 829.83,-90.53"/>
<polygon fill="midnightblue" stroke="midnightblue" points="772.13,-94.87 762.54,-99.37 772.85,-101.83 772.13,-94.87"/>
</g>
<!-- Node3 -->
<g id="node3" class="node">
<title>Node3</title>
<g id="a_node3"><a xlink:href="classMenu.html#a2ecf65abb196d80c5a5c354155019a93" target="_top" xlink:title=" ">
<polygon fill="none" stroke="black" points="170,-94.5 170,-113.5 287,-113.5 287,-94.5 170,-94.5"/>
<text text-anchor="middle" x="228.5" y="-101.5" font-family="Helvetica,sans-Serif" font-size="10.00">Menu::showBuyerMenu</text>
</a>
</g>
</g>
<!-- Node2&#45;&gt;Node3 -->
<g id="edge2" class="edge">
<title>Node2&#45;&gt;Node3</title>
<path fill="none" stroke="midnightblue" d="M627.09,-96.1C551.42,-96.44 428.84,-99.7 323,-98 311.47,-97.82 299.14,-97.5 287.35,-97.34"/>
<polygon fill="midnightblue" stroke="midnightblue" points="627.46,-99.6 637.45,-96.08 627.45,-92.6 627.46,-99.6"/>
</g>
<!-- Node6 -->
<g id="node6" class="node">
<title>Node6</title>
<g id="a_node6"><a xlink:href="classMenu.html#a6a602f7f37917ae9582719a89246b73b" target="_top" xlink:title=" ">
<polygon fill="none" stroke="black" points="480,-38.5 480,-57.5 601,-57.5 601,-38.5 480,-38.5"/>
<text text-anchor="middle" x="540.5" y="-45.5" font-family="Helvetica,sans-Serif" font-size="10.00">Menu::showOwnerMenu</text>
</a>
</g>
</g>
<!-- Node2&#45;&gt;Node6 -->
<g id="edge21" class="edge">
<title>Node2&#45;&gt;Node6</title>
<path fill="none" stroke="midnightblue" d="M679.19,-86.34C666.99,-81.46 651.05,-76.58 637,-72 622.82,-67.38 607.53,-62.19 593.43,-57.65"/>
<polygon fill="midnightblue" stroke="midnightblue" points="677.87,-89.58 688.43,-90.43 680.71,-83.18 677.87,-89.58"/>
</g>
<!-- Node3&#45;&gt;Node2 -->
<g id="edge3" class="edge">
<title>Node3&#45;&gt;Node2</title>
<path fill="none" stroke="midnightblue" d="M275.21,-114.29C290.41,-115.27 307.43,-115.75 323,-116 433.81,-117.78 562.99,-114.12 637.45,-108.83"/>
<polygon fill="midnightblue" stroke="midnightblue" points="275.25,-110.78 265.01,-113.53 274.72,-117.76 275.25,-110.78"/>
</g>
<!-- Node3&#45;&gt;Node3 -->
<g id="edge4" class="edge">
<title>Node3&#45;&gt;Node3</title>
<path fill="none" stroke="midnightblue" d="M257.25,-122.65C256.04,-127.94 246.46,-132 228.5,-132 201.13,-132 193.22,-122.57 204.76,-113.76"/>
<polygon fill="midnightblue" stroke="midnightblue" points="260.19,-120.75 252.24,-113.76 254.09,-124.19 260.19,-120.75"/>
</g>
<!-- Node4 -->
<g id="node4" class="node">
<title>Node4</title>
<g id="a_node4"><a xlink:href="classMenu.html#a781c392fdcd203e436f5dc6e78f057a8" target="_top" xlink:title=" ">
<polygon fill="none" stroke="black" points="12,-113.5 12,-132.5 122,-132.5 122,-113.5 12,-113.5"/>
<text text-anchor="middle" x="67" y="-120.5" font-family="Helvetica,sans-Serif" font-size="10.00">Menu::showCartMenu</text>
</a>
</g>
</g>
<!-- Node3&#45;&gt;Node4 -->
<g id="edge5" class="edge">
<title>Node3&#45;&gt;Node4</title>
<path fill="none" stroke="midnightblue" d="M159.71,-105.39C139.35,-107.59 117.92,-110.5 100.9,-113.5"/>
<polygon fill="midnightblue" stroke="midnightblue" points="160.33,-108.85 169.92,-104.35 159.61,-101.88 160.33,-108.85"/>
</g>
<!-- Node5 -->
<g id="node5" class="node">
<title>Node5</title>
<g id="a_node5"><a xlink:href="classMenu.html#a3905222cc1c1ec7ed2dce13e16555c52" target="_top" xlink:title=" ">
<polygon fill="none" stroke="black" points="0,-75.5 0,-94.5 134,-94.5 134,-75.5 0,-75.5"/>
<text text-anchor="middle" x="67" y="-82.5" font-family="Helvetica,sans-Serif" font-size="10.00">Menu::showCheckoutMenu</text>
</a>
</g>
</g>
<!-- Node3&#45;&gt;Node5 -->
<g id="edge8" class="edge">
<title>Node3&#45;&gt;Node5</title>
<path fill="none" stroke="midnightblue" d="M184.2,-92.76C168.81,-90.32 151.11,-88.02 134.24,-86.23"/>
<polygon fill="midnightblue" stroke="midnightblue" points="184.01,-96.28 194.45,-94.47 185.16,-89.37 184.01,-96.28"/>
</g>
<!-- Node3&#45;&gt;Node6 -->
<g id="edge10" class="edge">
<title>Node3&#45;&gt;Node6</title>
<path fill="none" stroke="midnightblue" d="M297.35,-102.85C339.93,-100.94 395.73,-96.25 444,-85 471.01,-78.7 500.57,-66.34 519.53,-57.64"/>
<polygon fill="midnightblue" stroke="midnightblue" points="296.94,-99.37 287.09,-103.27 297.23,-106.36 296.94,-99.37"/>
</g>
<!-- Node8 -->
<g id="node8" class="node">
<title>Node8</title>
<g id="a_node8"><a xlink:href="classMenu.html#aaef7622e532f3424a27fce4d16dbda47" target="_top" xlink:title=" ">
<polygon fill="none" stroke="black" points="329,-0.5 329,-19.5 438,-19.5 438,-0.5 329,-0.5"/>
<text text-anchor="middle" x="383.5" y="-7.5" font-family="Helvetica,sans-Serif" font-size="10.00">Menu::showWelcome</text>
</a>
</g>
</g>
<!-- Node3&#45;&gt;Node8 -->
<g id="edge19" class="edge">
<title>Node3&#45;&gt;Node8</title>
<path fill="none" stroke="midnightblue" d="M254.18,-87.52C272.06,-72.68 297.47,-51.7 323,-38 338.1,-29.9 357.22,-24.56 369.65,-19.54"/>
<polygon fill="midnightblue" stroke="midnightblue" points="251.52,-85.19 246.05,-94.26 255.98,-90.58 251.52,-85.19"/>
</g>
<!-- Node4&#45;&gt;Node3 -->
<g id="edge6" class="edge">
<title>Node4&#45;&gt;Node3</title>
<path fill="none" stroke="midnightblue" d="M132.06,-122C153.45,-119.78 176.41,-116.7 194.45,-113.53"/>
<polygon fill="midnightblue" stroke="midnightblue" points="131.65,-118.53 122.04,-122.99 132.33,-125.49 131.65,-118.53"/>
</g>
<!-- Node4&#45;&gt;Node4 -->
<g id="edge7" class="edge">
<title>Node4&#45;&gt;Node4</title>
<path fill="none" stroke="midnightblue" d="M96.94,-141.27C96.09,-146.74 86.11,-151 67,-151 38.56,-151 30.34,-141.57 42.34,-132.76"/>
<polygon fill="midnightblue" stroke="midnightblue" points="99.9,-139.41 91.66,-132.76 93.95,-143.1 99.9,-139.41"/>
</g>
<!-- Node5&#45;&gt;Node3 -->
<g id="edge9" class="edge">
<title>Node5&#45;&gt;Node3</title>
<path fill="none" stroke="midnightblue" d="M110.89,-96.17C129.03,-99.06 150.43,-101.76 169.92,-103.65"/>
<polygon fill="midnightblue" stroke="midnightblue" points="111.34,-92.7 100.9,-94.5 110.19,-99.6 111.34,-92.7"/>
</g>
<!-- Node6&#45;&gt;Node2 -->
<g id="edge11" class="edge">
<title>Node6&#45;&gt;Node2</title>
<path fill="none" stroke="midnightblue" d="M561.67,-62.14C580.95,-71.03 610.87,-81.48 637,-90 637.43,-90.14 637.86,-90.28 638.29,-90.42"/>
<polygon fill="midnightblue" stroke="midnightblue" points="563.14,-58.96 552.63,-57.65 560.03,-65.23 563.14,-58.96"/>
</g>
<!-- Node7 -->
<g id="node7" class="node">
<title>Node7</title>
<g id="a_node7"><a xlink:href="classMenu.html#a788512183de460d13b8a2dfb571c03f2" target="_top" xlink:title=" ">
<polygon fill="none" stroke="black" points="323,-38.5 323,-57.5 444,-57.5 444,-38.5 323,-38.5"/>
<text text-anchor="middle" x="383.5" y="-45.5" font-family="Helvetica,sans-Serif" font-size="10.00">Menu::showStatusMenu</text>
</a>
</g>
</g>
<!-- Node6&#45;&gt;Node7 -->
<g id="edge12" class="edge">
<title>Node6&#45;&gt;Node7</title>
<path fill="none" stroke="midnightblue" d="M469.34,-41.28C460.88,-41.21 452.3,-41.26 444.01,-41.41"/>
<polygon fill="midnightblue" stroke="midnightblue" points="469.53,-44.78 479.57,-41.41 469.62,-37.78 469.53,-44.78"/>
</g>
<!-- Node6&#45;&gt;Node8 -->
<g id="edge15" class="edge">
<title>Node6&#45;&gt;Node8</title>
<path fill="none" stroke="midnightblue" d="M509.93,-35.31C489.63,-29.05 462.1,-21.96 438.01,-16.66"/>
<polygon fill="midnightblue" stroke="midnightblue" points="508.96,-38.68 519.55,-38.41 511.11,-32.01 508.96,-38.68"/>
</g>
<!-- Node7&#45;&gt;Node6 -->
<g id="edge13" class="edge">
<title>Node7&#45;&gt;Node6</title>
<path fill="none" stroke="midnightblue" d="M454.24,-54.72C462.69,-54.79 471.28,-54.74 479.57,-54.59"/>
<polygon fill="midnightblue" stroke="midnightblue" points="454.06,-51.22 444.01,-54.59 453.97,-58.22 454.06,-51.22"/>
</g>
<!-- Node7&#45;&gt;Node7 -->
<g id="edge14" class="edge">
<title>Node7&#45;&gt;Node7</title>
<path fill="none" stroke="midnightblue" d="M412.25,-66.65C411.04,-71.94 401.46,-76 383.5,-76 356.13,-76 348.22,-66.57 359.76,-57.76"/>
<polygon fill="midnightblue" stroke="midnightblue" points="415.19,-64.75 407.24,-57.76 409.09,-68.19 415.19,-64.75"/>
</g>
<!-- Node8&#45;&gt;Node3 -->
<g id="edge17" class="edge">
<title>Node8&#45;&gt;Node3</title>
<path fill="none" stroke="midnightblue" d="M319.83,-22.12C280.28,-45.14 247.13,-77.41 234.68,-94.28"/>
<polygon fill="midnightblue" stroke="midnightblue" points="321.87,-24.98 328.9,-17.06 318.47,-18.87 321.87,-24.98"/>
</g>
<!-- Node8&#45;&gt;Node6 -->
<g id="edge18" class="edge">
<title>Node8&#45;&gt;Node6</title>
<path fill="none" stroke="midnightblue" d="M414.14,-22.71C432.65,-28.42 457.15,-34.81 479.57,-39.9"/>
<polygon fill="midnightblue" stroke="midnightblue" points="415.11,-19.35 404.52,-19.62 412.97,-26.01 415.11,-19.35"/>
</g>
<!-- Node9 -->
<g id="node9" class="node">
<title>Node9</title>
<g id="a_node9"><a xlink:href="classMenu.html#a323509e5b6f4dc00536e87efd65b8b94" target="_top" xlink:title=" ">
<polygon fill="none" stroke="black" points="194,-0.5 194,-19.5 263,-19.5 263,-0.5 194,-0.5"/>
<text text-anchor="middle" x="228.5" y="-7.5" font-family="Helvetica,sans-Serif" font-size="10.00">Menu::Menu</text>
</a>
</g>
</g>
<!-- Node8&#45;&gt;Node9 -->
<g id="edge16" class="edge">
<title>Node8&#45;&gt;Node9</title>
<path fill="none" stroke="midnightblue" d="M318.82,-10C299.71,-10 279.51,-10 263.15,-10"/>
<polygon fill="midnightblue" stroke="midnightblue" points="318.99,-13.5 328.99,-10 318.99,-6.5 318.99,-13.5"/>
</g>
<!-- Node10&#45;&gt;Node1 -->
<g id="edge23" class="edge">
<title>Node10&#45;&gt;Node1</title>
<path fill="none" stroke="midnightblue" d="M744.66,-73.17C761.3,-75.77 780.63,-78.22 798.81,-80.06"/>
<polygon fill="midnightblue" stroke="midnightblue" points="745.12,-69.7 734.69,-71.53 743.99,-76.6 745.12,-69.7"/>
</g>
</g>
</svg>
        <g id="navigator" transform="translate(0 0)" fill="#404254">
                <rect fill="#f2f5e9" fill-opacity="0.5" stroke="#606060" stroke-width=".5" x="0" y="0" width="60" height="60"/>
                <use id="zoomplus" xlink:href="#zoomPlus" x="17" y="9" onmousedown="handleZoom(evt,'in')"/>
                <use id="zoomminus" xlink:href="#zoomMin" x="42" y="9" onmousedown="handleZoom(evt,'out')"/>
                <use id="reset" xlink:href="#resetDef" x="30" y="36" onmousedown="handleReset()"/>
                <g id="arrowUp" xlink:href="#dirArrow" transform="translate(30 24)" onmousedown="handlePan(0,-1)">
                  <use xlink:href="#rim" fill="#404040">
                        <set attributeName="fill" to="#808080" begin="arrowUp.mouseover" end="arrowUp.mouseout"/>
                  </use>
                  <path fill="none" stroke="white" stroke-width="1.5" d="M0,-3.0v7 M-2.5,-0.5L0,-3.0L2.5,-0.5"/>
                </g>
                <g id="arrowRight" xlink:href="#dirArrow" transform="rotate(90) translate(36 -43)" onmousedown="handlePan(1,0)">
                  <use xlink:href="#rim" fill="#404040">
                        <set attributeName="fill" to="#808080" begin="arrowRight.mouseover" end="arrowRight.mouseout"/>
                  </use>
                  <path fill="none" stroke="white" stroke-width="1.5" d="M0,-3.0v7 M-2.5,-0.5L0,-3.0L2.5,-0.5"/>
                </g>
                <g id="arrowDown" xlink:href="#dirArrow" transform="rotate(180) translate(-30 -48)" onmousedown="handlePan(0,1)">
                  <use xlink:href="#rim" fill="#404040">
                        <set attributeName="fill" to="#808080" begin="arrowDown.mouseover" end="arrowDown.mouseout"/>
                  </use>
                  <path fill="none" stroke="white" stroke-width="1.5" d="M0,-3.0v7 M-2.5,-0.5L0,-3.0L2.5,-0.5"/>
                </g>
                <g id="arrowLeft" xlink:href="#dirArrow" transform="rotate(270) translate(-36 17)" onmousedown="handlePan(-1,0)">
                  <use xlink:href="#rim" fill="#404040">
                        <set attributeName="fill" to="#808080" begin="arrowLeft.mouseover" end="arrowLeft.mouseout"/>
                  </use>
                  <path fill="none" stroke="white" stroke-width="1.5" d="M0,-3.0v7 M-2.5,-0.5L0,-3.0L2.5,-0.5"/>
                </g>
        </g>
        <svg viewBox="0 0 15 15" width="100%" height="30px" preserveAspectRatio="xMaxYMin meet">
         <g id="arrow_out" transform="scale(0.3 0.3)">
          <a xlink:href="classMenu_a8bdf4110581d8d8a82f6290f246201e7_icgraph_org.svg" target="_base">
           <rect id="button" ry="5" rx="5" y="6" x="6" height="38" width="38"
                fill="#f2f5e9" fill-opacity="0.5" stroke="#606060" stroke-width="1.0"/>
           <path id="arrow"
             d="M 11.500037,31.436501 C 11.940474,20.09759 22.043105,11.32322 32.158766,21.979434 L 37.068811,17.246167 C 37.068811,17.246167 37.088388,32 37.088388,32 L 22.160133,31.978069 C 22.160133,31.978069 26.997745,27.140456 26.997745,27.140456 C 18.528582,18.264221 13.291696,25.230495 11.500037,31.436501 z"
             style="fill:#404040;"/>
          </a>
         </g>
        </svg>
</svg>
