<?xml version="1.0" encoding="UTF-8" standalone="no"?>
<!DOCTYPE svg PUBLIC "-//W3C//DTD SVG 1.1//EN"
 "http://www.w3.org/Graphics/SVG/1.1/DTD/svg11.dtd">
<!-- Generated by graphviz version 2.49.3 (20211027.1534)
 -->
<!-- Title: EShopError Pages: 1 -->
<svg width="147pt" height="193pt"
 viewBox="0.00 0.00 147.00 193.00" xmlns="http://www.w3.org/2000/svg" xmlns:xlink="http://www.w3.org/1999/xlink">
<g id="graph0" class="graph" transform="scale(1 1) rotate(0) translate(4 189)">
<title>EShopError</title>
<!-- Node1 -->
<g id="node1" class="node">
<title>Node1</title>
<g id="a_node1"><a xlink:title="Exception class for passing error messages on failures.">
<polygon fill="#bfbfbf" stroke="black" points="0,-0.5 0,-79.5 139,-79.5 139,-0.5 0,-0.5"/>
<text text-anchor="middle" x="69.5" y="-67.5" font-family="Helvetica,sans-Serif" font-size="10.00">EShopError</text>
<polyline fill="none" stroke="black" points="0,-60.5 139,-60.5 "/>
<text text-anchor="middle" x="69.5" y="-48.5" font-family="Helvetica,sans-Serif" font-size="10.00"> </text>
<polyline fill="none" stroke="black" points="0,-41.5 139,-41.5 "/>
<text text-anchor="start" x="8" y="-29.5" font-family="Helvetica,sans-Serif" font-size="10.00">+ EShopError()</text>
<text text-anchor="start" x="8" y="-18.5" font-family="Helvetica,sans-Serif" font-size="10.00">+ EShopError(string &amp;&amp;error)</text>
<text text-anchor="start" x="8" y="-7.5" font-family="Helvetica,sans-Serif" font-size="10.00">+ const string &amp; error() const</text>
</a>
</g>
</g>
<!-- Node2 -->
<g id="node2" class="node">
<title>Node2</title>
<g id="a_node2"><a xlink:title=" ">
<polygon fill="none" stroke="#bfbfbf" points="49,-127.5 49,-184.5 90,-184.5 90,-127.5 49,-127.5"/>
<text text-anchor="middle" x="69.5" y="-172.5" font-family="Helvetica,sans-Serif" font-size="10.00">string</text>
<polyline fill="none" stroke="#bfbfbf" points="49,-165.5 90,-165.5 "/>
<text text-anchor="middle" x="69.5" y="-153.5" font-family="Helvetica,sans-Serif" font-size="10.00"> </text>
<polyline fill="none" stroke="#bfbfbf" points="49,-146.5 90,-146.5 "/>
<text text-anchor="middle" x="69.5" y="-134.5" font-family="Helvetica,sans-Serif" font-size="10.00"> </text>
</a>
</g>
</g>
<!-- Node2&#45;&gt;Node1 -->
<g id="edge1" class="edge">
<title>Node2&#45;&gt;Node1</title>
<path fill="none" stroke="#404040" d="M69.5,-127.4C69.5,-116.63 69.5,-103.93 69.5,-91.62"/>
<polygon fill="none" stroke="#404040" points="69.5,-91.54 65.5,-85.54 69.5,-79.54 73.5,-85.54 69.5,-91.54"/>
<text text-anchor="middle" x="85" y="-101" font-family="Helvetica,sans-Serif" font-size="10.00"> &#45;_error</text>
</g>
</g>
</svg>
