<?xml version="1.0" encoding="UTF-8" standalone="no"?>
<!DOCTYPE svg PUBLIC "-//W3C//DTD SVG 1.1//EN"
 "http://www.w3.org/Graphics/SVG/1.1/DTD/svg11.dtd">
<!-- Generated by graphviz version 2.49.3 (20211027.1534)
 -->
<!-- Title: Notebook::Notebook Pages: 1 -->
<svg width="362pt" height="104pt"
 viewBox="0.00 0.00 362.00 104.00" xmlns="http://www.w3.org/2000/svg" xmlns:xlink="http://www.w3.org/1999/xlink">
<g id="graph0" class="graph" transform="scale(1 1) rotate(0) translate(4 100)">
<title>Notebook::Notebook</title>
<!-- Node1 -->
<g id="node1" class="node">
<title>Node1</title>
<g id="a_node1"><a xlink:title="Constructor for Notebook.">
<polygon fill="#bfbfbf" stroke="black" points="0,-38.5 0,-57.5 105,-57.5 105,-38.5 0,-38.5"/>
<text text-anchor="middle" x="52.5" y="-45.5" font-family="Helvetica,sans-Serif" font-size="10.00">Notebook::Notebook</text>
</a>
</g>
</g>
<!-- Node2 -->
<g id="node2" class="node">
<title>Node2</title>
<g id="a_node2"><a xlink:href="classItem.html#af6517f0488c9be814f5c6de8bb2a8f1f" target="_top" xlink:title="Set the Item&#39;s category.">
<polygon fill="none" stroke="black" points="152.5,-76.5 152.5,-95.5 244.5,-95.5 244.5,-76.5 152.5,-76.5"/>
<text text-anchor="middle" x="198.5" y="-83.5" font-family="Helvetica,sans-Serif" font-size="10.00">Item::setCategory</text>
</a>
</g>
</g>
<!-- Node1&#45;&gt;Node2 -->
<g id="edge1" class="edge">
<title>Node1&#45;&gt;Node2</title>
<path fill="none" stroke="midnightblue" d="M89.84,-57.59C108.58,-62.54 131.64,-68.62 151.61,-73.89"/>
<polygon fill="midnightblue" stroke="midnightblue" points="150.86,-77.31 161.42,-76.48 152.65,-70.54 150.86,-77.31"/>
</g>
<!-- Node3 -->
<g id="node3" class="node">
<title>Node3</title>
<g id="a_node3"><a xlink:href="classNotebook.html#ab24ec77348fa051caf230c7368f2bf24" target="_top" xlink:title="Override of Item::setID()">
<polygon fill="none" stroke="black" points="156,-38.5 156,-57.5 241,-57.5 241,-38.5 156,-38.5"/>
<text text-anchor="middle" x="198.5" y="-45.5" font-family="Helvetica,sans-Serif" font-size="10.00">Notebook::setId</text>
</a>
</g>
</g>
<!-- Node1&#45;&gt;Node3 -->
<g id="edge2" class="edge">
<title>Node1&#45;&gt;Node3</title>
<path fill="none" stroke="midnightblue" d="M105.08,-48C118.2,-48 132.3,-48 145.44,-48"/>
<polygon fill="midnightblue" stroke="midnightblue" points="145.74,-51.5 155.74,-48 145.74,-44.5 145.74,-51.5"/>
</g>
<!-- Node5 -->
<g id="node5" class="node">
<title>Node5</title>
<g id="a_node5"><a xlink:href="classNotebook.html#a5046b1e4cb8fd321d1c2ba0647a92655" target="_top" xlink:title="Set the number of subjects of the notebook.">
<polygon fill="none" stroke="black" points="141,-0.5 141,-19.5 256,-19.5 256,-0.5 141,-0.5"/>
<text text-anchor="middle" x="198.5" y="-7.5" font-family="Helvetica,sans-Serif" font-size="10.00">Notebook::setSubjects</text>
</a>
</g>
</g>
<!-- Node1&#45;&gt;Node5 -->
<g id="edge4" class="edge">
<title>Node1&#45;&gt;Node5</title>
<path fill="none" stroke="midnightblue" d="M89.84,-38.41C108.58,-33.46 131.64,-27.38 151.61,-22.11"/>
<polygon fill="midnightblue" stroke="midnightblue" points="152.65,-25.46 161.42,-19.52 150.86,-18.69 152.65,-25.46"/>
</g>
<!-- Node4 -->
<g id="node4" class="node">
<title>Node4</title>
<g id="a_node4"><a xlink:href="classItem.html#a92fda3b8072f8ad7bcc3e406785f9ad5" target="_top" xlink:title="Set the Item&#39;s ID.">
<polygon fill="none" stroke="black" points="292,-38.5 292,-57.5 354,-57.5 354,-38.5 292,-38.5"/>
<text text-anchor="middle" x="323" y="-45.5" font-family="Helvetica,sans-Serif" font-size="10.00">Item::setId</text>
</a>
</g>
</g>
<!-- Node3&#45;&gt;Node4 -->
<g id="edge3" class="edge">
<title>Node3&#45;&gt;Node4</title>
<path fill="none" stroke="midnightblue" d="M241.31,-48C254.44,-48 268.89,-48 281.9,-48"/>
<polygon fill="midnightblue" stroke="midnightblue" points="281.96,-51.5 291.96,-48 281.96,-44.5 281.96,-51.5"/>
</g>
</g>
</svg>
