<?xml version="1.0" encoding="UTF-8" standalone="no"?>
<!DOCTYPE svg PUBLIC "-//W3C//DTD SVG 1.1//EN"
 "http://www.w3.org/Graphics/SVG/1.1/DTD/svg11.dtd">
<!-- Generated by graphviz version 2.49.3 (20211027.1534)
 -->
<!-- Title: ShoppingCart::calculateCourier Pages: 1 -->
<svg width="327pt" height="66pt"
 viewBox="0.00 0.00 327.00 66.00" xmlns="http://www.w3.org/2000/svg" xmlns:xlink="http://www.w3.org/1999/xlink">
<g id="graph0" class="graph" transform="scale(1 1) rotate(0) translate(4 62)">
<title>ShoppingCart::calculateCourier</title>
<!-- Node1 -->
<g id="node1" class="node">
<title>Node1</title>
<g id="a_node1"><a xlink:title="Calculates the cost of the courier.">
<polygon fill="#bfbfbf" stroke="black" points="0,-19.5 0,-38.5 149,-38.5 149,-19.5 0,-19.5"/>
<text text-anchor="middle" x="74.5" y="-26.5" font-family="Helvetica,sans-Serif" font-size="10.00">ShoppingCart::calculateCourier</text>
</a>
</g>
</g>
<!-- Node2 -->
<g id="node2" class="node">
<title>Node2</title>
<g id="a_node2"><a xlink:href="classShoppingCart.html#aefd629209efffec246165e50efaf40d3" target="_top" xlink:title="Calculates the cost of the order.">
<polygon fill="none" stroke="black" points="185,-38.5 185,-57.5 319,-57.5 319,-38.5 185,-38.5"/>
<text text-anchor="middle" x="252" y="-45.5" font-family="Helvetica,sans-Serif" font-size="10.00">ShoppingCart::calculateNet</text>
</a>
</g>
</g>
<!-- Node1&#45;&gt;Node2 -->
<g id="edge1" class="edge">
<title>Node1&#45;&gt;Node2</title>
<path fill="none" stroke="midnightblue" d="M149.16,-36.98C157.57,-37.88 166.15,-38.81 174.58,-39.73"/>
<polygon fill="midnightblue" stroke="midnightblue" points="174.47,-43.23 184.78,-40.83 175.22,-36.28 174.47,-43.23"/>
</g>
<!-- Node3 -->
<g id="node3" class="node">
<title>Node3</title>
<g id="a_node3"><a xlink:href="classBuyer.html#a3a482baedbb2d8fc1fde5dee7a435102" target="_top" xlink:title="Get the Buyer&#39;s category.">
<polygon fill="none" stroke="black" points="203,-0.5 203,-19.5 301,-19.5 301,-0.5 203,-0.5"/>
<text text-anchor="middle" x="252" y="-7.5" font-family="Helvetica,sans-Serif" font-size="10.00">Buyer::getCategory</text>
</a>
</g>
</g>
<!-- Node1&#45;&gt;Node3 -->
<g id="edge2" class="edge">
<title>Node1&#45;&gt;Node3</title>
<path fill="none" stroke="midnightblue" d="M149.16,-21.02C163.73,-19.45 178.83,-17.81 192.8,-16.3"/>
<polygon fill="midnightblue" stroke="midnightblue" points="193.18,-19.78 202.75,-15.22 192.43,-12.82 193.18,-19.78"/>
</g>
</g>
</svg>
