<?xml version="1.0" encoding="UTF-8" standalone="no"?>
<!DOCTYPE svg PUBLIC "-//W3C//DTD SVG 1.1//EN"
 "http://www.w3.org/Graphics/SVG/1.1/DTD/svg11.dtd">
<!-- Generated by graphviz version 2.49.3 (20211027.1534)
 -->
<!-- Title: EShopError::error Pages: 1 -->
<!--zoomable 340 -->
<svg id="main" version="1.1" xmlns="http://www.w3.org/2000/svg" xmlns:xlink="http://www.w3.org/1999/xlink" xml:space="preserve" onload="init(evt)">
<style type="text/css"><![CDATA[
.edge:hover path { stroke: red; }
.edge:hover polygon { stroke: red; fill: red; }
]]></style>
<script type="text/javascript"><![CDATA[
var edges = document.getElementsByTagName('g');
if (edges && edges.length) {
  for (var i=0;i<edges.length;i++) {
    if (edges[i].id.substr(0,4)=='edge') {
      edges[i].setAttribute('class','edge');
    }
  }
}
]]></script>
        <defs>
                <circle id="rim" cx="0" cy="0" r="7"/>
                <circle id="rim2" cx="0" cy="0" r="3.5"/>
                <g id="zoomPlus">
                        <use xlink:href="#rim" fill="#404040">
                                <set attributeName="fill" to="#808080" begin="zoomplus.mouseover" end="zoomplus.mouseout"/>
                        </use>
                        <path d="M-4,0h8M0,-4v8" fill="none" stroke="white" stroke-width="1.5" pointer-events="none"/>
                </g>
                <g id="zoomMin">
                        <use xlink:href="#rim" fill="#404040">
                                <set attributeName="fill" to="#808080" begin="zoomminus.mouseover" end="zoomminus.mouseout"/>
                        </use>
                        <path d="M-4,0h8" fill="none" stroke="white" stroke-width="1.5" pointer-events="none"/>
                </g>
                <g id="dirArrow">
                        <path fill="none" stroke="white" stroke-width="1.5" d="M0,-3.0v7 M-2.5,-0.5L0,-3.0L2.5,-0.5"/>
                </g>
               <g id="resetDef">
                       <use xlink:href="#rim2" fill="#404040">
                               <set attributeName="fill" to="#808080" begin="reset.mouseover" end="reset.mouseout"/>
                       </use>
               </g>
        </defs>

<script type="text/javascript">
var viewWidth = 1129;
var viewHeight = 340;
var sectionId = 'dynsection-1';
</script>
<script xlink:href="svgpan.js"/>
<svg id="graph" class="graph">
<g id="viewport">
<title>EShopError::error</title>
<!-- Node1 -->
<g id="node1" class="node">
<title>Node1</title>
<g id="a_node1"><a xlink:title="Return the error message.">
<polygon fill="#bfbfbf" stroke="black" points="1032,-212.5 1032,-231.5 1121,-231.5 1121,-212.5 1032,-212.5"/>
<text text-anchor="middle" x="1076.5" y="-219.5" font-family="Helvetica,sans-Serif" font-size="10.00">EShopError::error</text>
</a>
</g>
</g>
<!-- Node2 -->
<g id="node2" class="node">
<title>Node2</title>
<g id="a_node2"><a xlink:href="main_8cpp.html#a3c04138a5bfe5d72780bb7e82a18e627" target="_top" xlink:title=" ">
<polygon fill="none" stroke="black" points="793,-312.5 793,-331.5 831,-331.5 831,-312.5 793,-312.5"/>
<text text-anchor="middle" x="812" y="-319.5" font-family="Helvetica,sans-Serif" font-size="10.00">main</text>
</a>
</g>
</g>
<!-- Node1&#45;&gt;Node2 -->
<g id="edge1" class="edge">
<title>Node1&#45;&gt;Node2</title>
<path fill="none" stroke="midnightblue" d="M1063.26,-239.87C1049.34,-258.59 1024.78,-287.16 996,-301 940.67,-327.61 865.4,-326.12 831.22,-323.71"/>
<polygon fill="midnightblue" stroke="midnightblue" points="1066.22,-241.74 1069.2,-231.58 1060.53,-237.66 1066.22,-241.74"/>
</g>
<!-- Node3 -->
<g id="node3" class="node">
<title>Node3</title>
<g id="a_node3"><a xlink:href="classBuyer.html#a50ddd9046308e8ac9b82c0665d07452b" target="_top" xlink:title="Add an item to the cart with the specified quantity.">
<polygon fill="none" stroke="black" points="903,-272.5 903,-291.5 996,-291.5 996,-272.5 903,-272.5"/>
<text text-anchor="middle" x="949.5" y="-279.5" font-family="Helvetica,sans-Serif" font-size="10.00">Buyer::placeOrder</text>
</a>
</g>
</g>
<!-- Node1&#45;&gt;Node3 -->
<g id="edge2" class="edge">
<title>Node1&#45;&gt;Node3</title>
<path fill="none" stroke="midnightblue" d="M1046.63,-235.86C1023.35,-247.03 991.2,-262.46 970.63,-272.34"/>
<polygon fill="midnightblue" stroke="midnightblue" points="1048.19,-238.99 1055.69,-231.51 1045.16,-232.68 1048.19,-238.99"/>
</g>
<!-- Node4 -->
<g id="node4" class="node">
<title>Node4</title>
<g id="a_node4"><a xlink:href="classMenu.html#a781c392fdcd203e436f5dc6e78f057a8" target="_top" xlink:title=" ">
<polygon fill="none" stroke="black" points="757,-146.5 757,-165.5 867,-165.5 867,-146.5 757,-146.5"/>
<text text-anchor="middle" x="812" y="-153.5" font-family="Helvetica,sans-Serif" font-size="10.00">Menu::showCartMenu</text>
</a>
</g>
</g>
<!-- Node1&#45;&gt;Node4 -->
<g id="edge32" class="edge">
<title>Node1&#45;&gt;Node4</title>
<path fill="none" stroke="midnightblue" d="M1027.85,-210.02C977.04,-197.24 897.59,-177.27 850.88,-165.52"/>
<polygon fill="midnightblue" stroke="midnightblue" points="1027.06,-213.43 1037.61,-212.47 1028.77,-206.64 1027.06,-213.43"/>
</g>
<!-- Node10 -->
<g id="node10" class="node">
<title>Node10</title>
<g id="a_node10"><a xlink:href="classMenu.html#a788512183de460d13b8a2dfb571c03f2" target="_top" xlink:title=" ">
<polygon fill="none" stroke="black" points="107.5,-62.5 107.5,-81.5 228.5,-81.5 228.5,-62.5 107.5,-62.5"/>
<text text-anchor="middle" x="168" y="-69.5" font-family="Helvetica,sans-Serif" font-size="10.00">Menu::showStatusMenu</text>
</a>
</g>
</g>
<!-- Node1&#45;&gt;Node10 -->
<g id="edge35" class="edge">
<title>Node1&#45;&gt;Node10</title>
<path fill="none" stroke="midnightblue" d="M1065.45,-203.41C1035.08,-150.01 938.6,0 813,0 813,0 813,0 500,0 395,0 368.85,-13.5 267,-39 241.57,-45.37 213.27,-55.2 193.65,-62.48"/>
<polygon fill="midnightblue" stroke="midnightblue" points="1062.57,-205.42 1070.49,-212.46 1068.68,-202.02 1062.57,-205.42"/>
</g>
<!-- Node14 -->
<g id="node14" class="node">
<title>Node14</title>
<g id="a_node14"><a xlink:href="classBuyer.html#a83e2d5ab790fc677189fd6841489bae6" target="_top" xlink:title="Wrapper to ShoppingCart::showCart()">
<polygon fill="none" stroke="black" points="906,-146.5 906,-165.5 993,-165.5 993,-146.5 906,-146.5"/>
<text text-anchor="middle" x="949.5" y="-153.5" font-family="Helvetica,sans-Serif" font-size="10.00">Buyer::showCart</text>
</a>
</g>
</g>
<!-- Node1&#45;&gt;Node14 -->
<g id="edge29" class="edge">
<title>Node1&#45;&gt;Node14</title>
<path fill="none" stroke="midnightblue" d="M1048.33,-207.65C1024.21,-194.92 989.63,-176.66 968.7,-165.61"/>
<polygon fill="midnightblue" stroke="midnightblue" points="1046.85,-210.83 1057.32,-212.4 1050.12,-204.64 1046.85,-210.83"/>
</g>
<!-- Node15 -->
<g id="node15" class="node">
<title>Node15</title>
<g id="a_node15"><a xlink:href="classMenu.html#a69db6693739aa87710c029b54a90385d" target="_top" xlink:title=" ">
<polygon fill="none" stroke="black" points="604.5,-234.5 604.5,-253.5 720.5,-253.5 720.5,-234.5 604.5,-234.5"/>
<text text-anchor="middle" x="662.5" y="-241.5" font-family="Helvetica,sans-Serif" font-size="10.00">Menu::showLoginMenu</text>
</a>
</g>
</g>
<!-- Node1&#45;&gt;Node15 -->
<g id="edge33" class="edge">
<title>Node1&#45;&gt;Node15</title>
<path fill="none" stroke="midnightblue" d="M1021.71,-224.87C943.8,-229.03 800.18,-236.7 720.51,-240.96"/>
<polygon fill="midnightblue" stroke="midnightblue" points="1022,-228.36 1031.8,-224.33 1021.63,-221.37 1022,-228.36"/>
</g>
<!-- Node3&#45;&gt;Node2 -->
<g id="edge3" class="edge">
<title>Node3&#45;&gt;Node2</title>
<path fill="none" stroke="midnightblue" d="M906.31,-294.45C881.03,-301.92 850.18,-311.02 831.06,-316.67"/>
<polygon fill="midnightblue" stroke="midnightblue" points="907.44,-297.77 916.04,-291.58 905.46,-291.06 907.44,-297.77"/>
</g>
<!-- Node3&#45;&gt;Node4 -->
<g id="edge4" class="edge">
<title>Node3&#45;&gt;Node4</title>
<path fill="none" stroke="midnightblue" d="M930.54,-265.3C901.88,-238.65 846.69,-187.33 823.58,-165.84"/>
<polygon fill="midnightblue" stroke="midnightblue" points="928.16,-267.87 937.87,-272.11 932.93,-262.74 928.16,-267.87"/>
</g>
<!-- Node8 -->
<g id="node8" class="node">
<title>Node8</title>
<g id="a_node8"><a xlink:href="classMenu.html#a957fada7140f67c43e3ee253ae863125" target="_top" xlink:title=" ">
<polygon fill="none" stroke="black" points="105,-198.5 105,-217.5 231,-217.5 231,-198.5 105,-198.5"/>
<text text-anchor="middle" x="168" y="-205.5" font-family="Helvetica,sans-Serif" font-size="10.00">Menu::showProductMenu</text>
</a>
</g>
</g>
<!-- Node3&#45;&gt;Node8 -->
<g id="edge28" class="edge">
<title>Node3&#45;&gt;Node8</title>
<path fill="none" stroke="midnightblue" d="M892.27,-282.63C834.79,-283.21 742.92,-284 663.5,-284 663.5,-284 663.5,-284 500,-284 395.75,-284 366.91,-286.76 267,-257 235.83,-247.71 202.57,-228.97 183.93,-217.55"/>
<polygon fill="midnightblue" stroke="midnightblue" points="892.63,-286.12 902.59,-282.52 892.56,-279.12 892.63,-286.12"/>
</g>
<!-- Node4&#45;&gt;Node4 -->
<g id="edge27" class="edge">
<title>Node4&#45;&gt;Node4</title>
<path fill="none" stroke="midnightblue" d="M837.3,-175.03C835.92,-180.13 827.49,-184 812,-184 787.83,-184 780.84,-174.57 791.04,-165.76"/>
<polygon fill="midnightblue" stroke="midnightblue" points="840.37,-173.33 832.96,-165.76 834.03,-176.3 840.37,-173.33"/>
</g>
<!-- Node5 -->
<g id="node5" class="node">
<title>Node5</title>
<g id="a_node5"><a xlink:href="classMenu.html#a2ecf65abb196d80c5a5c354155019a93" target="_top" xlink:title=" ">
<polygon fill="none" stroke="black" points="604,-142.5 604,-161.5 721,-161.5 721,-142.5 604,-142.5"/>
<text text-anchor="middle" x="662.5" y="-149.5" font-family="Helvetica,sans-Serif" font-size="10.00">Menu::showBuyerMenu</text>
</a>
</g>
</g>
<!-- Node4&#45;&gt;Node5 -->
<g id="edge5" class="edge">
<title>Node4&#45;&gt;Node5</title>
<path fill="none" stroke="midnightblue" d="M746.92,-147.56C738.32,-147.24 729.53,-147.03 721.05,-146.96"/>
<polygon fill="midnightblue" stroke="midnightblue" points="746.77,-151.06 756.91,-148 747.08,-144.07 746.77,-151.06"/>
</g>
<!-- Node5&#45;&gt;Node4 -->
<g id="edge22" class="edge">
<title>Node5&#45;&gt;Node4</title>
<path fill="none" stroke="midnightblue" d="M731.12,-160.56C739.76,-160.86 748.52,-161.03 756.91,-161.07"/>
<polygon fill="midnightblue" stroke="midnightblue" points="731.18,-157.06 721.05,-160.16 730.91,-164.06 731.18,-157.06"/>
</g>
<!-- Node5&#45;&gt;Node5 -->
<g id="edge21" class="edge">
<title>Node5&#45;&gt;Node5</title>
<path fill="none" stroke="midnightblue" d="M690.13,-170.65C688.97,-175.94 679.76,-180 662.5,-180 636.2,-180 628.59,-170.57 639.69,-161.76"/>
<polygon fill="midnightblue" stroke="midnightblue" points="693.15,-168.89 685.31,-161.76 686.99,-172.22 693.15,-168.89"/>
</g>
<!-- Node6 -->
<g id="node6" class="node">
<title>Node6</title>
<g id="a_node6"><a xlink:href="classMenu.html#a1de78dc75d7de7db8bce09a70dbbf77f" target="_top" xlink:title=" ">
<polygon fill="none" stroke="black" points="438.5,-142.5 438.5,-161.5 563.5,-161.5 563.5,-142.5 438.5,-142.5"/>
<text text-anchor="middle" x="501" y="-149.5" font-family="Helvetica,sans-Serif" font-size="10.00">Menu::showBrowseMenu</text>
</a>
</g>
</g>
<!-- Node5&#45;&gt;Node6 -->
<g id="edge6" class="edge">
<title>Node5&#45;&gt;Node6</title>
<path fill="none" stroke="midnightblue" d="M593.63,-145.32C583.64,-145.2 573.39,-145.23 563.54,-145.41"/>
<polygon fill="midnightblue" stroke="midnightblue" points="593.86,-148.82 603.92,-145.49 593.98,-141.82 593.86,-148.82"/>
</g>
<!-- Node9 -->
<g id="node9" class="node">
<title>Node9</title>
<g id="a_node9"><a xlink:href="classMenu.html#a6a602f7f37917ae9582719a89246b73b" target="_top" xlink:title=" ">
<polygon fill="none" stroke="black" points="272,-104.5 272,-123.5 393,-123.5 393,-104.5 272,-104.5"/>
<text text-anchor="middle" x="332.5" y="-111.5" font-family="Helvetica,sans-Serif" font-size="10.00">Menu::showOwnerMenu</text>
</a>
</g>
</g>
<!-- Node5&#45;&gt;Node9 -->
<g id="edge25" class="edge">
<title>Node5&#45;&gt;Node9</title>
<path fill="none" stroke="midnightblue" d="M642.46,-136.02C624.55,-122.1 596.31,-102.95 568,-95 497.81,-75.29 411.49,-92.3 365.66,-104.41"/>
<polygon fill="midnightblue" stroke="midnightblue" points="640.39,-138.84 650.38,-142.36 644.76,-133.38 640.39,-138.84"/>
</g>
<!-- Node11 -->
<g id="node11" class="node">
<title>Node11</title>
<g id="a_node11"><a xlink:href="classMenu.html#aaef7622e532f3424a27fce4d16dbda47" target="_top" xlink:title=" ">
<polygon fill="none" stroke="black" points="113.5,-151.5 113.5,-170.5 222.5,-170.5 222.5,-151.5 113.5,-151.5"/>
<text text-anchor="middle" x="168" y="-158.5" font-family="Helvetica,sans-Serif" font-size="10.00">Menu::showWelcome</text>
</a>
</g>
</g>
<!-- Node5&#45;&gt;Node11 -->
<g id="edge26" class="edge">
<title>Node5&#45;&gt;Node11</title>
<path fill="none" stroke="midnightblue" d="M593.84,-158.48C585.18,-159.89 576.41,-161.15 568,-162 444.93,-174.38 299.5,-164.63 222.73,-160.65"/>
<polygon fill="midnightblue" stroke="midnightblue" points="594.64,-161.89 603.92,-156.77 593.48,-154.99 594.64,-161.89"/>
</g>
<!-- Node13 -->
<g id="node13" class="node">
<title>Node13</title>
<g id="a_node13"><a xlink:href="classMenu.html#a3905222cc1c1ec7ed2dce13e16555c52" target="_top" xlink:title=" ">
<polygon fill="none" stroke="black" points="434,-104.5 434,-123.5 568,-123.5 568,-104.5 434,-104.5"/>
<text text-anchor="middle" x="501" y="-111.5" font-family="Helvetica,sans-Serif" font-size="10.00">Menu::showCheckoutMenu</text>
</a>
</g>
</g>
<!-- Node5&#45;&gt;Node13 -->
<g id="edge23" class="edge">
<title>Node5&#45;&gt;Node13</title>
<path fill="none" stroke="midnightblue" d="M631.43,-139.42C613.6,-134.06 590.28,-128.08 568.34,-123.14"/>
<polygon fill="midnightblue" stroke="midnightblue" points="630.39,-142.76 640.97,-142.41 632.48,-136.08 630.39,-142.76"/>
</g>
<!-- Node6&#45;&gt;Node5 -->
<g id="edge7" class="edge">
<title>Node6&#45;&gt;Node5</title>
<path fill="none" stroke="midnightblue" d="M573.6,-158.72C583.75,-158.8 594.08,-158.73 603.92,-158.51"/>
<polygon fill="midnightblue" stroke="midnightblue" points="573.58,-155.22 563.54,-158.59 573.49,-162.22 573.58,-155.22"/>
</g>
<!-- Node7 -->
<g id="node7" class="node">
<title>Node7</title>
<g id="a_node7"><a xlink:href="classMenu.html#a8bdf4110581d8d8a82f6290f246201e7" target="_top" xlink:title=" ">
<polygon fill="none" stroke="black" points="267,-198.5 267,-217.5 398,-217.5 398,-198.5 267,-198.5"/>
<text text-anchor="middle" x="332.5" y="-205.5" font-family="Helvetica,sans-Serif" font-size="10.00">Menu::showCategoryMenu</text>
</a>
</g>
</g>
<!-- Node6&#45;&gt;Node7 -->
<g id="edge8" class="edge">
<title>Node6&#45;&gt;Node7</title>
<path fill="none" stroke="midnightblue" d="M443.61,-164.54C410.62,-174.82 371.32,-188.77 349.73,-198.34"/>
<polygon fill="midnightblue" stroke="midnightblue" points="444.64,-167.88 453.18,-161.61 442.59,-161.19 444.64,-167.88"/>
</g>
<!-- Node6&#45;&gt;Node9 -->
<g id="edge12" class="edge">
<title>Node6&#45;&gt;Node9</title>
<path fill="none" stroke="midnightblue" d="M468.79,-139.47C447.54,-133.34 418.73,-126.4 393.15,-121.11"/>
<polygon fill="midnightblue" stroke="midnightblue" points="467.99,-142.89 478.57,-142.41 470,-136.18 467.99,-142.89"/>
</g>
<!-- Node7&#45;&gt;Node6 -->
<g id="edge9" class="edge">
<title>Node7&#45;&gt;Node6</title>
<path fill="none" stroke="midnightblue" d="M389.79,-195.49C422.94,-185.17 462.48,-171.12 484.04,-161.55"/>
<polygon fill="midnightblue" stroke="midnightblue" points="388.73,-192.16 380.19,-198.43 390.78,-198.85 388.73,-192.16"/>
</g>
<!-- Node7&#45;&gt;Node8 -->
<g id="edge10" class="edge">
<title>Node7&#45;&gt;Node8</title>
<path fill="none" stroke="midnightblue" d="M256.78,-201.27C248.19,-201.22 239.49,-201.27 231.09,-201.42"/>
<polygon fill="midnightblue" stroke="midnightblue" points="256.77,-204.77 266.81,-201.38 256.85,-197.77 256.77,-204.77"/>
</g>
<!-- Node8&#45;&gt;Node7 -->
<g id="edge11" class="edge">
<title>Node8&#45;&gt;Node7</title>
<path fill="none" stroke="midnightblue" d="M241.34,-214.71C249.83,-214.78 258.44,-214.75 266.81,-214.62"/>
<polygon fill="midnightblue" stroke="midnightblue" points="241.13,-211.21 231.09,-214.58 241.04,-218.21 241.13,-211.21"/>
</g>
<!-- Node9&#45;&gt;Node6 -->
<g id="edge13" class="edge">
<title>Node9&#45;&gt;Node6</title>
<path fill="none" stroke="midnightblue" d="M364.85,-126.57C385.57,-132.54 413.43,-139.28 438.47,-144.5"/>
<polygon fill="midnightblue" stroke="midnightblue" points="365.59,-123.14 355,-123.62 363.58,-129.84 365.59,-123.14"/>
</g>
<!-- Node9&#45;&gt;Node10 -->
<g id="edge14" class="edge">
<title>Node9&#45;&gt;Node10</title>
<path fill="none" stroke="midnightblue" d="M302.56,-101.21C282.11,-94.6 253.96,-86.91 228.78,-80.91"/>
<polygon fill="midnightblue" stroke="midnightblue" points="301.63,-104.59 312.22,-104.46 303.86,-97.96 301.63,-104.59"/>
</g>
<!-- Node9&#45;&gt;Node11 -->
<g id="edge17" class="edge">
<title>Node9&#45;&gt;Node11</title>
<path fill="none" stroke="midnightblue" d="M266.04,-126.3C237.39,-134.16 206.01,-143.98 186.91,-151.4"/>
<polygon fill="midnightblue" stroke="midnightblue" points="267.29,-129.59 276.03,-123.6 265.46,-122.83 267.29,-129.59"/>
</g>
<!-- Node10&#45;&gt;Node9 -->
<g id="edge15" class="edge">
<title>Node10&#45;&gt;Node9</title>
<path fill="none" stroke="midnightblue" d="M197.87,-84.76C218.38,-91.4 246.65,-99.12 271.91,-105.13"/>
<polygon fill="midnightblue" stroke="midnightblue" points="198.78,-81.38 188.19,-81.5 196.55,-88.01 198.78,-81.38"/>
</g>
<!-- Node10&#45;&gt;Node10 -->
<g id="edge16" class="edge">
<title>Node10&#45;&gt;Node10</title>
<path fill="none" stroke="midnightblue" d="M192.55,-91.03C191.21,-96.13 183.03,-100 168,-100 144.54,-100 137.76,-90.57 147.65,-81.76"/>
<polygon fill="midnightblue" stroke="midnightblue" points="195.67,-89.42 188.35,-81.76 189.29,-92.31 195.67,-89.42"/>
</g>
<!-- Node11&#45;&gt;Node5 -->
<g id="edge19" class="edge">
<title>Node11&#45;&gt;Node5</title>
<path fill="none" stroke="midnightblue" d="M218.36,-171.96C293.88,-182.25 442.56,-192.62 568,-180 597.01,-177.08 630.32,-169.2 648.31,-161.63"/>
<polygon fill="midnightblue" stroke="midnightblue" points="218.59,-168.46 208.2,-170.51 217.61,-175.39 218.59,-168.46"/>
</g>
<!-- Node11&#45;&gt;Node9 -->
<g id="edge20" class="edge">
<title>Node11&#45;&gt;Node9</title>
<path fill="none" stroke="midnightblue" d="M232.5,-149.24C261.78,-141.26 294.29,-131.12 313.8,-123.52"/>
<polygon fill="midnightblue" stroke="midnightblue" points="231.48,-145.89 222.72,-151.86 233.29,-152.65 231.48,-145.89"/>
</g>
<!-- Node12 -->
<g id="node12" class="node">
<title>Node12</title>
<g id="a_node12"><a xlink:href="classMenu.html#a323509e5b6f4dc00536e87efd65b8b94" target="_top" xlink:title=" ">
<polygon fill="none" stroke="black" points="0,-151.5 0,-170.5 69,-170.5 69,-151.5 0,-151.5"/>
<text text-anchor="middle" x="34.5" y="-158.5" font-family="Helvetica,sans-Serif" font-size="10.00">Menu::Menu</text>
</a>
</g>
</g>
<!-- Node11&#45;&gt;Node12 -->
<g id="edge18" class="edge">
<title>Node11&#45;&gt;Node12</title>
<path fill="none" stroke="midnightblue" d="M102.92,-161C91.23,-161 79.47,-161 69.12,-161"/>
<polygon fill="midnightblue" stroke="midnightblue" points="103.13,-164.5 113.13,-161 103.13,-157.5 103.13,-164.5"/>
</g>
<!-- Node13&#45;&gt;Node5 -->
<g id="edge24" class="edge">
<title>Node13&#45;&gt;Node5</title>
<path fill="none" stroke="midnightblue" d="M532.18,-126.61C552.39,-132.69 579.64,-139.54 603.92,-144.79"/>
<polygon fill="midnightblue" stroke="midnightblue" points="533.18,-123.26 522.59,-123.61 531.09,-129.94 533.18,-123.26"/>
</g>
<!-- Node14&#45;&gt;Node4 -->
<g id="edge30" class="edge">
<title>Node14&#45;&gt;Node4</title>
<path fill="none" stroke="midnightblue" d="M895.99,-156C886.58,-156 876.77,-156 867.31,-156"/>
<polygon fill="midnightblue" stroke="midnightblue" points="896,-159.5 906,-156 896,-152.5 896,-159.5"/>
</g>
<!-- Node14&#45;&gt;Node10 -->
<g id="edge31" class="edge">
<title>Node14&#45;&gt;Node10</title>
<path fill="none" stroke="midnightblue" d="M927.44,-140.48C881.82,-108.45 769.43,-38 663.5,-38 663.5,-38 663.5,-38 500,-38 403.67,-38 292.4,-52.43 226.52,-62.48"/>
<polygon fill="midnightblue" stroke="midnightblue" points="925.48,-143.38 935.65,-146.34 929.55,-137.69 925.48,-143.38"/>
</g>
<!-- Node15&#45;&gt;Node11 -->
<g id="edge34" class="edge">
<title>Node15&#45;&gt;Node11</title>
<path fill="none" stroke="midnightblue" d="M600.15,-255.01C519.66,-266.49 375.87,-276.63 267,-227 245.83,-217.35 249.96,-202.49 231,-189 220.41,-181.47 207.48,-175.24 196.17,-170.59"/>
<polygon fill="midnightblue" stroke="midnightblue" points="600.74,-258.46 610.12,-253.53 599.72,-251.54 600.74,-258.46"/>
</g>
</g>
</svg>
        <g id="navigator" transform="translate(0 0)" fill="#404254">
                <rect fill="#f2f5e9" fill-opacity="0.5" stroke="#606060" stroke-width=".5" x="0" y="0" width="60" height="60"/>
                <use id="zoomplus" xlink:href="#zoomPlus" x="17" y="9" onmousedown="handleZoom(evt,'in')"/>
                <use id="zoomminus" xlink:href="#zoomMin" x="42" y="9" onmousedown="handleZoom(evt,'out')"/>
                <use id="reset" xlink:href="#resetDef" x="30" y="36" onmousedown="handleReset()"/>
                <g id="arrowUp" xlink:href="#dirArrow" transform="translate(30 24)" onmousedown="handlePan(0,-1)">
                  <use xlink:href="#rim" fill="#404040">
                        <set attributeName="fill" to="#808080" begin="arrowUp.mouseover" end="arrowUp.mouseout"/>
                  </use>
                  <path fill="none" stroke="white" stroke-width="1.5" d="M0,-3.0v7 M-2.5,-0.5L0,-3.0L2.5,-0.5"/>
                </g>
                <g id="arrowRight" xlink:href="#dirArrow" transform="rotate(90) translate(36 -43)" onmousedown="handlePan(1,0)">
                  <use xlink:href="#rim" fill="#404040">
                        <set attributeName="fill" to="#808080" begin="arrowRight.mouseover" end="arrowRight.mouseout"/>
                  </use>
                  <path fill="none" stroke="white" stroke-width="1.5" d="M0,-3.0v7 M-2.5,-0.5L0,-3.0L2.5,-0.5"/>
                </g>
                <g id="arrowDown" xlink:href="#dirArrow" transform="rotate(180) translate(-30 -48)" onmousedown="handlePan(0,1)">
                  <use xlink:href="#rim" fill="#404040">
                        <set attributeName="fill" to="#808080" begin="arrowDown.mouseover" end="arrowDown.mouseout"/>
                  </use>
                  <path fill="none" stroke="white" stroke-width="1.5" d="M0,-3.0v7 M-2.5,-0.5L0,-3.0L2.5,-0.5"/>
                </g>
                <g id="arrowLeft" xlink:href="#dirArrow" transform="rotate(270) translate(-36 17)" onmousedown="handlePan(-1,0)">
                  <use xlink:href="#rim" fill="#404040">
                        <set attributeName="fill" to="#808080" begin="arrowLeft.mouseover" end="arrowLeft.mouseout"/>
                  </use>
                  <path fill="none" stroke="white" stroke-width="1.5" d="M0,-3.0v7 M-2.5,-0.5L0,-3.0L2.5,-0.5"/>
                </g>
        </g>
        <svg viewBox="0 0 15 15" width="100%" height="30px" preserveAspectRatio="xMaxYMin meet">
         <g id="arrow_out" transform="scale(0.3 0.3)">
          <a xlink:href="classEShopError_a47b46a751485345958bf78cf5cd12090_icgraph_org.svg" target="_base">
           <rect id="button" ry="5" rx="5" y="6" x="6" height="38" width="38"
                fill="#f2f5e9" fill-opacity="0.5" stroke="#606060" stroke-width="1.0"/>
           <path id="arrow"
             d="M 11.500037,31.436501 C 11.940474,20.09759 22.043105,11.32322 32.158766,21.979434 L 37.068811,17.246167 C 37.068811,17.246167 37.088388,32 37.088388,32 L 22.160133,31.978069 C 22.160133,31.978069 26.997745,27.140456 26.997745,27.140456 C 18.528582,18.264221 13.291696,25.230495 11.500037,31.436501 z"
             style="fill:#404040;"/>
          </a>
         </g>
        </svg>
</svg>
