<?xml version="1.0" encoding="UTF-8" standalone="no"?>
<!DOCTYPE svg PUBLIC "-//W3C//DTD SVG 1.1//EN"
 "http://www.w3.org/Graphics/SVG/1.1/DTD/svg11.dtd">
<!-- Generated by graphviz version 2.49.3 (20211027.1534)
 -->
<!-- Title: Pen Pages: 1 -->
<!--zoomable 552 -->
<svg id="main" version="1.1" xmlns="http://www.w3.org/2000/svg" xmlns:xlink="http://www.w3.org/1999/xlink" xml:space="preserve" onload="init(evt)">
<style type="text/css"><![CDATA[
.edge:hover path { stroke: red; }
.edge:hover polygon { stroke: red; fill: red; }
]]></style>
<script type="text/javascript"><![CDATA[
var edges = document.getElementsByTagName('g');
if (edges && edges.length) {
  for (var i=0;i<edges.length;i++) {
    if (edges[i].id.substr(0,4)=='edge') {
      edges[i].setAttribute('class','edge');
    }
  }
}
]]></script>
        <defs>
                <circle id="rim" cx="0" cy="0" r="7"/>
                <circle id="rim2" cx="0" cy="0" r="3.5"/>
                <g id="zoomPlus">
                        <use xlink:href="#rim" fill="#404040">
                                <set attributeName="fill" to="#808080" begin="zoomplus.mouseover" end="zoomplus.mouseout"/>
                        </use>
                        <path d="M-4,0h8M0,-4v8" fill="none" stroke="white" stroke-width="1.5" pointer-events="none"/>
                </g>
                <g id="zoomMin">
                        <use xlink:href="#rim" fill="#404040">
                                <set attributeName="fill" to="#808080" begin="zoomminus.mouseover" end="zoomminus.mouseout"/>
                        </use>
                        <path d="M-4,0h8" fill="none" stroke="white" stroke-width="1.5" pointer-events="none"/>
                </g>
                <g id="dirArrow">
                        <path fill="none" stroke="white" stroke-width="1.5" d="M0,-3.0v7 M-2.5,-0.5L0,-3.0L2.5,-0.5"/>
                </g>
               <g id="resetDef">
                       <use xlink:href="#rim2" fill="#404040">
                               <set attributeName="fill" to="#808080" begin="reset.mouseover" end="reset.mouseout"/>
                       </use>
               </g>
        </defs>

<script type="text/javascript">
var viewWidth = 406;
var viewHeight = 552;
var sectionId = 'dynsection-1';
</script>
<script xlink:href="svgpan.js"/>
<svg id="graph" class="graph">
<g id="viewport">
<title>Pen</title>
<!-- Node1 -->
<g id="node1" class="node">
<title>Node1</title>
<g id="a_node1"><a xlink:title="Class representing a Pen.">
<polygon fill="#bfbfbf" stroke="black" points="19.37,-0.5 19.37,-123.5 387.37,-123.5 387.37,-0.5 19.37,-0.5"/>
<text text-anchor="middle" x="203.37" y="-111.5" font-family="Helvetica,sans-Serif" font-size="10.00">Pen</text>
<polyline fill="none" stroke="black" points="19.37,-104.5 387.37,-104.5 "/>
<text text-anchor="middle" x="203.37" y="-92.5" font-family="Helvetica,sans-Serif" font-size="10.00"> </text>
<polyline fill="none" stroke="black" points="19.37,-85.5 387.37,-85.5 "/>
<text text-anchor="start" x="27.37" y="-73.5" font-family="Helvetica,sans-Serif" font-size="10.00">+ Pen(double tipSize, string color, int stock, double price, string name, string desc)</text>
<text text-anchor="start" x="27.37" y="-62.5" font-family="Helvetica,sans-Serif" font-size="10.00">+ void setTipSize(double tipSize)</text>
<text text-anchor="start" x="27.37" y="-51.5" font-family="Helvetica,sans-Serif" font-size="10.00">+ double getTipSize()</text>
<text text-anchor="start" x="27.37" y="-40.5" font-family="Helvetica,sans-Serif" font-size="10.00">+ void setColor(string color)</text>
<text text-anchor="start" x="27.37" y="-29.5" font-family="Helvetica,sans-Serif" font-size="10.00">+ string getColor()</text>
<text text-anchor="start" x="27.37" y="-18.5" font-family="Helvetica,sans-Serif" font-size="10.00">+ void setId() override</text>
<text text-anchor="start" x="27.37" y="-7.5" font-family="Helvetica,sans-Serif" font-size="10.00">+ string getDetails() override</text>
</a>
</g>
</g>
<!-- Node2 -->
<g id="node2" class="node">
<title>Node2</title>
<g id="a_node2"><a xlink:href="classItem.html" target="_top" xlink:title="Base class for all other items.">
<polygon fill="none" stroke="black" points="77.37,-161.5 77.37,-416.5 329.37,-416.5 329.37,-161.5 77.37,-161.5"/>
<text text-anchor="middle" x="203.37" y="-404.5" font-family="Helvetica,sans-Serif" font-size="10.00">Item</text>
<polyline fill="none" stroke="black" points="77.37,-397.5 329.37,-397.5 "/>
<text text-anchor="middle" x="203.37" y="-385.5" font-family="Helvetica,sans-Serif" font-size="10.00"> </text>
<polyline fill="none" stroke="black" points="77.37,-378.5 329.37,-378.5 "/>
<text text-anchor="start" x="85.37" y="-366.5" font-family="Helvetica,sans-Serif" font-size="10.00">+ Item(int stock, double price, string name, string desc)</text>
<text text-anchor="start" x="85.37" y="-355.5" font-family="Helvetica,sans-Serif" font-size="10.00">+ virtual ~Item()</text>
<text text-anchor="start" x="85.37" y="-344.5" font-family="Helvetica,sans-Serif" font-size="10.00">+ size_t getId()</text>
<text text-anchor="start" x="85.37" y="-333.5" font-family="Helvetica,sans-Serif" font-size="10.00">+ void setStock(int stock)</text>
<text text-anchor="start" x="85.37" y="-322.5" font-family="Helvetica,sans-Serif" font-size="10.00">+ int getStock()</text>
<text text-anchor="start" x="85.37" y="-311.5" font-family="Helvetica,sans-Serif" font-size="10.00">+ void setPrice(double price)</text>
<text text-anchor="start" x="85.37" y="-300.5" font-family="Helvetica,sans-Serif" font-size="10.00">+ double getPrice()</text>
<text text-anchor="start" x="85.37" y="-289.5" font-family="Helvetica,sans-Serif" font-size="10.00">+ void setName(string name)</text>
<text text-anchor="start" x="85.37" y="-278.5" font-family="Helvetica,sans-Serif" font-size="10.00">+ string getName()</text>
<text text-anchor="start" x="85.37" y="-267.5" font-family="Helvetica,sans-Serif" font-size="10.00">+ void setDescription(string desc)</text>
<text text-anchor="start" x="85.37" y="-256.5" font-family="Helvetica,sans-Serif" font-size="10.00">+ string getDescription()</text>
<text text-anchor="start" x="85.37" y="-245.5" font-family="Helvetica,sans-Serif" font-size="10.00">+ string getCategory()</text>
<text text-anchor="start" x="85.37" y="-234.5" font-family="Helvetica,sans-Serif" font-size="10.00">+ string getBasicInfo()</text>
<text text-anchor="start" x="85.37" y="-223.5" font-family="Helvetica,sans-Serif" font-size="10.00">+ void setId(size_t)</text>
<text text-anchor="start" x="85.37" y="-212.5" font-family="Helvetica,sans-Serif" font-size="10.00">+ void setCategory(string)</text>
<text text-anchor="start" x="85.37" y="-201.5" font-family="Helvetica,sans-Serif" font-size="10.00">+ virtual void setId()=0</text>
<text text-anchor="start" x="85.37" y="-190.5" font-family="Helvetica,sans-Serif" font-size="10.00">+ virtual string getDetails()=0</text>
<text text-anchor="start" x="85.37" y="-179.5" font-family="Helvetica,sans-Serif" font-size="10.00">+ operator std::string()</text>
<text text-anchor="start" x="85.37" y="-168.5" font-family="Helvetica,sans-Serif" font-size="10.00">+ bool operator==(const Item &amp;)</text>
</a>
</g>
</g>
<!-- Node2&#45;&gt;Node1 -->
<g id="edge1" class="edge">
<title>Node2&#45;&gt;Node1</title>
<path fill="none" stroke="midnightblue" d="M203.37,-151.3C203.37,-141.72 203.37,-132.39 203.37,-123.59"/>
<polygon fill="none" stroke="midnightblue" points="199.87,-151.36 203.37,-161.36 206.87,-151.36 199.87,-151.36"/>
</g>
<!-- Node3 -->
<g id="node3" class="node">
<title>Node3</title>
<g id="a_node3"><a xlink:title=" ">
<polygon fill="none" stroke="#bfbfbf" points="139.37,-486.5 139.37,-543.5 181.37,-543.5 181.37,-486.5 139.37,-486.5"/>
<text text-anchor="middle" x="160.37" y="-531.5" font-family="Helvetica,sans-Serif" font-size="10.00">size_t</text>
<polyline fill="none" stroke="#bfbfbf" points="139.37,-524.5 181.37,-524.5 "/>
<text text-anchor="middle" x="160.37" y="-512.5" font-family="Helvetica,sans-Serif" font-size="10.00"> </text>
<polyline fill="none" stroke="#bfbfbf" points="139.37,-505.5 181.37,-505.5 "/>
<text text-anchor="middle" x="160.37" y="-493.5" font-family="Helvetica,sans-Serif" font-size="10.00"> </text>
</a>
</g>
</g>
<!-- Node3&#45;&gt;Node2 -->
<g id="edge2" class="edge">
<title>Node3&#45;&gt;Node2</title>
<path fill="none" stroke="#404040" d="M165.73,-486.08C168.68,-470.67 172.6,-450.26 176.79,-428.43"/>
<polygon fill="none" stroke="#404040" points="176.81,-428.32 174.02,-421.68 179.08,-416.54 181.87,-423.18 176.81,-428.32"/>
<text text-anchor="middle" x="185.87" y="-449" font-family="Helvetica,sans-Serif" font-size="10.00"> &#45;_id</text>
</g>
<!-- Node4 -->
<g id="node4" class="node">
<title>Node4</title>
<g id="a_node4"><a xlink:title=" ">
<polygon fill="none" stroke="#bfbfbf" points="198.87,-486.5 198.87,-543.5 227.87,-543.5 227.87,-486.5 198.87,-486.5"/>
<text text-anchor="middle" x="213.37" y="-531.5" font-family="Helvetica,sans-Serif" font-size="10.00">int</text>
<polyline fill="none" stroke="#bfbfbf" points="198.87,-524.5 227.87,-524.5 "/>
<text text-anchor="middle" x="213.37" y="-512.5" font-family="Helvetica,sans-Serif" font-size="10.00"> </text>
<polyline fill="none" stroke="#bfbfbf" points="198.87,-505.5 227.87,-505.5 "/>
<text text-anchor="middle" x="213.37" y="-493.5" font-family="Helvetica,sans-Serif" font-size="10.00"> </text>
</a>
</g>
</g>
<!-- Node4&#45;&gt;Node2 -->
<g id="edge3" class="edge">
<title>Node4&#45;&gt;Node2</title>
<path fill="none" stroke="#404040" d="M212.12,-486.08C211.44,-470.75 210.53,-450.45 209.56,-428.73"/>
<polygon fill="none" stroke="#404040" points="209.55,-428.53 205.29,-422.71 209.02,-416.54 213.28,-422.35 209.55,-428.53"/>
<text text-anchor="middle" x="228.87" y="-449" font-family="Helvetica,sans-Serif" font-size="10.00"> &#45;_stock</text>
</g>
<!-- Node5 -->
<g id="node5" class="node">
<title>Node5</title>
<g id="a_node5"><a xlink:title=" ">
<polygon fill="none" stroke="#bfbfbf" points="41.87,-486.5 41.87,-543.5 86.87,-543.5 86.87,-486.5 41.87,-486.5"/>
<text text-anchor="middle" x="64.37" y="-531.5" font-family="Helvetica,sans-Serif" font-size="10.00">double</text>
<polyline fill="none" stroke="#bfbfbf" points="41.87,-524.5 86.87,-524.5 "/>
<text text-anchor="middle" x="64.37" y="-512.5" font-family="Helvetica,sans-Serif" font-size="10.00"> </text>
<polyline fill="none" stroke="#bfbfbf" points="41.87,-505.5 86.87,-505.5 "/>
<text text-anchor="middle" x="64.37" y="-493.5" font-family="Helvetica,sans-Serif" font-size="10.00"> </text>
</a>
</g>
</g>
<!-- Node5&#45;&gt;Node1 -->
<g id="edge6" class="edge">
<title>Node5&#45;&gt;Node1</title>
<path fill="none" stroke="#404040" d="M51.22,-486.44C23.37,-423.74 -34.09,-267.56 28.37,-161 34.7,-150.19 42.72,-140.48 51.82,-131.77"/>
<polygon fill="none" stroke="#404040" points="51.88,-131.71 53.71,-124.73 60.85,-123.73 59.03,-130.71 51.88,-131.71"/>
<text text-anchor="middle" x="48.37" y="-286.5" font-family="Helvetica,sans-Serif" font-size="10.00"> &#45;_tipSize</text>
</g>
<!-- Node5&#45;&gt;Node2 -->
<g id="edge4" class="edge">
<title>Node5&#45;&gt;Node2</title>
<path fill="none" stroke="#404040" d="M81.69,-486.08C91.47,-470.32 104.5,-449.32 118.4,-426.92"/>
<polygon fill="none" stroke="#404040" points="118.52,-426.73 118.28,-419.53 124.84,-416.54 125.08,-423.75 118.52,-426.73"/>
<text text-anchor="middle" x="129.37" y="-449" font-family="Helvetica,sans-Serif" font-size="10.00"> &#45;_price</text>
</g>
<!-- Node6 -->
<g id="node6" class="node">
<title>Node6</title>
<g id="a_node6"><a xlink:title=" ">
<polygon fill="none" stroke="#bfbfbf" points="307.87,-486.5 307.87,-543.5 348.87,-543.5 348.87,-486.5 307.87,-486.5"/>
<text text-anchor="middle" x="328.37" y="-531.5" font-family="Helvetica,sans-Serif" font-size="10.00">string</text>
<polyline fill="none" stroke="#bfbfbf" points="307.87,-524.5 348.87,-524.5 "/>
<text text-anchor="middle" x="328.37" y="-512.5" font-family="Helvetica,sans-Serif" font-size="10.00"> </text>
<polyline fill="none" stroke="#bfbfbf" points="307.87,-505.5 348.87,-505.5 "/>
<text text-anchor="middle" x="328.37" y="-493.5" font-family="Helvetica,sans-Serif" font-size="10.00"> </text>
</a>
</g>
</g>
<!-- Node6&#45;&gt;Node1 -->
<g id="edge7" class="edge">
<title>Node6&#45;&gt;Node1</title>
<path fill="none" stroke="#404040" d="M344.87,-486.07C347.56,-480.28 349.93,-474.08 351.37,-468 354.74,-453.73 351.71,-449.66 351.37,-435 348.48,-313.12 396.3,-268.27 338.37,-161 332.74,-150.58 325.47,-141 317.22,-132.24"/>
<polygon fill="none" stroke="#404040" points="317.19,-132.21 310.12,-130.82 308.68,-123.75 315.75,-125.14 317.19,-132.21"/>
<text text-anchor="middle" x="382.37" y="-286.5" font-family="Helvetica,sans-Serif" font-size="10.00"> &#45;_color</text>
</g>
<!-- Node6&#45;&gt;Node2 -->
<g id="edge5" class="edge">
<title>Node6&#45;&gt;Node2</title>
<path fill="none" stroke="#404040" d="M312.79,-486.08C304.03,-470.39 292.38,-449.51 279.94,-427.22"/>
<polygon fill="none" stroke="#404040" points="279.83,-427.02 273.41,-423.73 273.98,-416.54 280.4,-419.83 279.83,-427.02"/>
<text text-anchor="middle" x="325.37" y="-460" font-family="Helvetica,sans-Serif" font-size="10.00"> &#45;_category</text>
<text text-anchor="middle" x="325.37" y="-449" font-family="Helvetica,sans-Serif" font-size="10.00">&#45;_desc</text>
<text text-anchor="middle" x="325.37" y="-438" font-family="Helvetica,sans-Serif" font-size="10.00">&#45;_name</text>
</g>
</g>
</svg>
        <g id="navigator" transform="translate(0 0)" fill="#404254">
                <rect fill="#f2f5e9" fill-opacity="0.5" stroke="#606060" stroke-width=".5" x="0" y="0" width="60" height="60"/>
                <use id="zoomplus" xlink:href="#zoomPlus" x="17" y="9" onmousedown="handleZoom(evt,'in')"/>
                <use id="zoomminus" xlink:href="#zoomMin" x="42" y="9" onmousedown="handleZoom(evt,'out')"/>
                <use id="reset" xlink:href="#resetDef" x="30" y="36" onmousedown="handleReset()"/>
                <g id="arrowUp" xlink:href="#dirArrow" transform="translate(30 24)" onmousedown="handlePan(0,-1)">
                  <use xlink:href="#rim" fill="#404040">
                        <set attributeName="fill" to="#808080" begin="arrowUp.mouseover" end="arrowUp.mouseout"/>
                  </use>
                  <path fill="none" stroke="white" stroke-width="1.5" d="M0,-3.0v7 M-2.5,-0.5L0,-3.0L2.5,-0.5"/>
                </g>
                <g id="arrowRight" xlink:href="#dirArrow" transform="rotate(90) translate(36 -43)" onmousedown="handlePan(1,0)">
                  <use xlink:href="#rim" fill="#404040">
                        <set attributeName="fill" to="#808080" begin="arrowRight.mouseover" end="arrowRight.mouseout"/>
                  </use>
                  <path fill="none" stroke="white" stroke-width="1.5" d="M0,-3.0v7 M-2.5,-0.5L0,-3.0L2.5,-0.5"/>
                </g>
                <g id="arrowDown" xlink:href="#dirArrow" transform="rotate(180) translate(-30 -48)" onmousedown="handlePan(0,1)">
                  <use xlink:href="#rim" fill="#404040">
                        <set attributeName="fill" to="#808080" begin="arrowDown.mouseover" end="arrowDown.mouseout"/>
                  </use>
                  <path fill="none" stroke="white" stroke-width="1.5" d="M0,-3.0v7 M-2.5,-0.5L0,-3.0L2.5,-0.5"/>
                </g>
                <g id="arrowLeft" xlink:href="#dirArrow" transform="rotate(270) translate(-36 17)" onmousedown="handlePan(-1,0)">
                  <use xlink:href="#rim" fill="#404040">
                        <set attributeName="fill" to="#808080" begin="arrowLeft.mouseover" end="arrowLeft.mouseout"/>
                  </use>
                  <path fill="none" stroke="white" stroke-width="1.5" d="M0,-3.0v7 M-2.5,-0.5L0,-3.0L2.5,-0.5"/>
                </g>
        </g>
        <svg viewBox="0 0 15 15" width="100%" height="30px" preserveAspectRatio="xMaxYMin meet">
         <g id="arrow_out" transform="scale(0.3 0.3)">
          <a xlink:href="classPen__coll__graph_org.svg" target="_base">
           <rect id="button" ry="5" rx="5" y="6" x="6" height="38" width="38"
                fill="#f2f5e9" fill-opacity="0.5" stroke="#606060" stroke-width="1.0"/>
           <path id="arrow"
             d="M 11.500037,31.436501 C 11.940474,20.09759 22.043105,11.32322 32.158766,21.979434 L 37.068811,17.246167 C 37.068811,17.246167 37.088388,32 37.088388,32 L 22.160133,31.978069 C 22.160133,31.978069 26.997745,27.140456 26.997745,27.140456 C 18.528582,18.264221 13.291696,25.230495 11.500037,31.436501 z"
             style="fill:#404040;"/>
          </a>
         </g>
        </svg>
</svg>
