<?xml version="1.0" encoding="UTF-8" standalone="no"?>
<!DOCTYPE svg PUBLIC "-//W3C//DTD SVG 1.1//EN"
 "http://www.w3.org/Graphics/SVG/1.1/DTD/svg11.dtd">
<!-- Generated by graphviz version 2.49.3 (20211027.1534)
 -->
<!-- Title: Item::getStock Pages: 1 -->
<svg width="1745pt" height="260pt"
 viewBox="0.00 0.00 1745.00 260.00" xmlns="http://www.w3.org/2000/svg" xmlns:xlink="http://www.w3.org/1999/xlink">
<g id="graph0" class="graph" transform="scale(1 1) rotate(0) translate(4 256)">
<title>Item::getStock</title>
<!-- Node1 -->
<g id="node1" class="node">
<title>Node1</title>
<g id="a_node1"><a xlink:title="Get the Item&#39;s stock.">
<polygon fill="#bfbfbf" stroke="black" points="1657,-175.5 1657,-194.5 1737,-194.5 1737,-175.5 1657,-175.5"/>
<text text-anchor="middle" x="1697" y="-182.5" font-family="Helvetica,sans-Serif" font-size="10.00">Item::getStock</text>
</a>
</g>
</g>
<!-- Node2 -->
<g id="node2" class="node">
<title>Node2</title>
<g id="a_node2"><a xlink:href="classShoppingCart.html#a5481a654a62253b5de2650f9149f6780" target="_top" xlink:title="Add quantity of an Item to the cart.">
<polygon fill="none" stroke="black" points="1064,-118.5 1064,-137.5 1203,-137.5 1203,-118.5 1064,-118.5"/>
<text text-anchor="middle" x="1133.5" y="-125.5" font-family="Helvetica,sans-Serif" font-size="10.00">ShoppingCart::addItemOrder</text>
</a>
</g>
</g>
<!-- Node1&#45;&gt;Node2 -->
<g id="edge1" class="edge">
<title>Node1&#45;&gt;Node2</title>
<path fill="none" stroke="midnightblue" d="M1646.72,-182.47C1562.77,-177.82 1386.75,-166.53 1239,-147 1220.08,-144.5 1199.38,-140.91 1181.43,-137.53"/>
<polygon fill="midnightblue" stroke="midnightblue" points="1646.56,-185.97 1656.74,-183.02 1646.95,-178.98 1646.56,-185.97"/>
</g>
<!-- Node3 -->
<g id="node3" class="node">
<title>Node3</title>
<g id="a_node3"><a xlink:href="classBuyer.html#a50ddd9046308e8ac9b82c0665d07452b" target="_top" xlink:title="Add an item to the cart with the specified quantity.">
<polygon fill="none" stroke="black" points="919,-156.5 919,-175.5 1012,-175.5 1012,-156.5 919,-156.5"/>
<text text-anchor="middle" x="965.5" y="-163.5" font-family="Helvetica,sans-Serif" font-size="10.00">Buyer::placeOrder</text>
</a>
</g>
</g>
<!-- Node1&#45;&gt;Node3 -->
<g id="edge29" class="edge">
<title>Node1&#45;&gt;Node3</title>
<path fill="none" stroke="midnightblue" d="M1646.39,-183.71C1511.98,-180.21 1142.26,-170.58 1012.36,-167.19"/>
<polygon fill="midnightblue" stroke="midnightblue" points="1646.69,-187.22 1656.78,-183.98 1646.87,-180.22 1646.69,-187.22"/>
</g>
<!-- Node15 -->
<g id="node15" class="node">
<title>Node15</title>
<g id="a_node15"><a xlink:href="classShoppingCart.html#ac61d13f6110480f27e8fd31e7ccdbfe6" target="_top" xlink:title="Remove an item from the cart completely.">
<polygon fill="none" stroke="black" points="1466,-118.5 1466,-137.5 1621,-137.5 1621,-118.5 1466,-118.5"/>
<text text-anchor="middle" x="1543.5" y="-125.5" font-family="Helvetica,sans-Serif" font-size="10.00">ShoppingCart::removeItemOrder</text>
</a>
</g>
</g>
<!-- Node1&#45;&gt;Node15 -->
<g id="edge30" class="edge">
<title>Node1&#45;&gt;Node15</title>
<path fill="none" stroke="midnightblue" d="M1666.48,-171.11C1652.79,-164.9 1636.22,-157.71 1621,-152 1607.06,-146.76 1591.41,-141.71 1577.91,-137.61"/>
<polygon fill="midnightblue" stroke="midnightblue" points="1665.33,-174.43 1675.88,-175.42 1668.25,-168.07 1665.33,-174.43"/>
</g>
<!-- Node18 -->
<g id="node18" class="node">
<title>Node18</title>
<g id="a_node18"><a xlink:href="classEShop.html#ab82e472c26df9d85acd262b449d15fb1" target="_top" xlink:title="Update an Item&#39;s stock.">
<polygon fill="none" stroke="black" points="1071.5,-232.5 1071.5,-251.5 1195.5,-251.5 1195.5,-232.5 1071.5,-232.5"/>
<text text-anchor="middle" x="1133.5" y="-239.5" font-family="Helvetica,sans-Serif" font-size="10.00">EShop::updateItemStock</text>
</a>
</g>
</g>
<!-- Node1&#45;&gt;Node18 -->
<g id="edge35" class="edge">
<title>Node1&#45;&gt;Node18</title>
<path fill="none" stroke="midnightblue" d="M1646.88,-189.99C1544.31,-200.4 1307.62,-224.43 1195.51,-235.81"/>
<polygon fill="midnightblue" stroke="midnightblue" points="1647.37,-193.46 1656.96,-188.96 1646.66,-186.49 1647.37,-193.46"/>
</g>
<!-- Node2&#45;&gt;Node3 -->
<g id="edge2" class="edge">
<title>Node2&#45;&gt;Node3</title>
<path fill="none" stroke="midnightblue" d="M1080.85,-139.82C1057.44,-145.18 1030.14,-151.43 1008.09,-156.48"/>
<polygon fill="midnightblue" stroke="midnightblue" points="1081.64,-143.23 1090.61,-137.59 1080.08,-136.41 1081.64,-143.23"/>
</g>
<!-- Node4 -->
<g id="node4" class="node">
<title>Node4</title>
<g id="a_node4"><a xlink:href="main_8cpp.html#a3c04138a5bfe5d72780bb7e82a18e627" target="_top" xlink:title=" ">
<polygon fill="none" stroke="black" points="793,-194.5 793,-213.5 831,-213.5 831,-194.5 793,-194.5"/>
<text text-anchor="middle" x="812" y="-201.5" font-family="Helvetica,sans-Serif" font-size="10.00">main</text>
</a>
</g>
</g>
<!-- Node3&#45;&gt;Node4 -->
<g id="edge3" class="edge">
<title>Node3&#45;&gt;Node4</title>
<path fill="none" stroke="midnightblue" d="M916.29,-178.09C887.24,-185.38 851.94,-194.23 831.03,-199.48"/>
<polygon fill="midnightblue" stroke="midnightblue" points="917.42,-181.42 926.27,-175.59 915.72,-174.63 917.42,-181.42"/>
</g>
<!-- Node5 -->
<g id="node5" class="node">
<title>Node5</title>
<g id="a_node5"><a xlink:href="classMenu.html#a781c392fdcd203e436f5dc6e78f057a8" target="_top" xlink:title=" ">
<polygon fill="none" stroke="black" points="757,-80.5 757,-99.5 867,-99.5 867,-80.5 757,-80.5"/>
<text text-anchor="middle" x="812" y="-87.5" font-family="Helvetica,sans-Serif" font-size="10.00">Menu::showCartMenu</text>
</a>
</g>
</g>
<!-- Node3&#45;&gt;Node5 -->
<g id="edge4" class="edge">
<title>Node3&#45;&gt;Node5</title>
<path fill="none" stroke="midnightblue" d="M936.08,-151.74C905.66,-136.48 858.24,-112.7 832.03,-99.55"/>
<polygon fill="midnightblue" stroke="midnightblue" points="934.8,-155.02 945.31,-156.37 937.94,-148.76 934.8,-155.02"/>
</g>
<!-- Node9 -->
<g id="node9" class="node">
<title>Node9</title>
<g id="a_node9"><a xlink:href="classMenu.html#a957fada7140f67c43e3ee253ae863125" target="_top" xlink:title=" ">
<polygon fill="none" stroke="black" points="105,-118.5 105,-137.5 231,-137.5 231,-118.5 105,-118.5"/>
<text text-anchor="middle" x="168" y="-125.5" font-family="Helvetica,sans-Serif" font-size="10.00">Menu::showProductMenu</text>
</a>
</g>
</g>
<!-- Node3&#45;&gt;Node9 -->
<g id="edge28" class="edge">
<title>Node3&#45;&gt;Node9</title>
<path fill="none" stroke="midnightblue" d="M908.77,-166C848.36,-166 749.08,-166 663.5,-166 663.5,-166 663.5,-166 500,-166 400.37,-166 284.96,-148.8 220.11,-137.54"/>
<polygon fill="midnightblue" stroke="midnightblue" points="908.86,-169.5 918.86,-166 908.86,-162.5 908.86,-169.5"/>
</g>
<!-- Node5&#45;&gt;Node5 -->
<g id="edge27" class="edge">
<title>Node5&#45;&gt;Node5</title>
<path fill="none" stroke="midnightblue" d="M839.63,-108.65C838.47,-113.94 829.26,-118 812,-118 785.7,-118 778.09,-108.57 789.19,-99.76"/>
<polygon fill="midnightblue" stroke="midnightblue" points="842.65,-106.89 834.81,-99.76 836.49,-110.22 842.65,-106.89"/>
</g>
<!-- Node6 -->
<g id="node6" class="node">
<title>Node6</title>
<g id="a_node6"><a xlink:href="classMenu.html#a2ecf65abb196d80c5a5c354155019a93" target="_top" xlink:title=" ">
<polygon fill="none" stroke="black" points="604,-80.5 604,-99.5 721,-99.5 721,-80.5 604,-80.5"/>
<text text-anchor="middle" x="662.5" y="-87.5" font-family="Helvetica,sans-Serif" font-size="10.00">Menu::showBuyerMenu</text>
</a>
</g>
</g>
<!-- Node5&#45;&gt;Node6 -->
<g id="edge5" class="edge">
<title>Node5&#45;&gt;Node6</title>
<path fill="none" stroke="midnightblue" d="M746.64,-83.3C738.13,-83.21 729.44,-83.24 721.05,-83.4"/>
<polygon fill="midnightblue" stroke="midnightblue" points="746.86,-86.8 756.91,-83.47 746.97,-79.8 746.86,-86.8"/>
</g>
<!-- Node6&#45;&gt;Node5 -->
<g id="edge22" class="edge">
<title>Node6&#45;&gt;Node5</title>
<path fill="none" stroke="midnightblue" d="M731.12,-96.73C739.76,-96.79 748.52,-96.72 756.91,-96.53"/>
<polygon fill="midnightblue" stroke="midnightblue" points="731.1,-93.23 721.05,-96.6 731.01,-100.23 731.1,-93.23"/>
</g>
<!-- Node6&#45;&gt;Node6 -->
<g id="edge21" class="edge">
<title>Node6&#45;&gt;Node6</title>
<path fill="none" stroke="midnightblue" d="M690.13,-108.65C688.97,-113.94 679.76,-118 662.5,-118 636.2,-118 628.59,-108.57 639.69,-99.76"/>
<polygon fill="midnightblue" stroke="midnightblue" points="693.15,-106.89 685.31,-99.76 686.99,-110.22 693.15,-106.89"/>
</g>
<!-- Node7 -->
<g id="node7" class="node">
<title>Node7</title>
<g id="a_node7"><a xlink:href="classMenu.html#a1de78dc75d7de7db8bce09a70dbbf77f" target="_top" xlink:title=" ">
<polygon fill="none" stroke="black" points="438.5,-80.5 438.5,-99.5 563.5,-99.5 563.5,-80.5 438.5,-80.5"/>
<text text-anchor="middle" x="501" y="-87.5" font-family="Helvetica,sans-Serif" font-size="10.00">Menu::showBrowseMenu</text>
</a>
</g>
</g>
<!-- Node6&#45;&gt;Node7 -->
<g id="edge6" class="edge">
<title>Node6&#45;&gt;Node7</title>
<path fill="none" stroke="midnightblue" d="M593.63,-83.32C583.64,-83.2 573.39,-83.23 563.54,-83.41"/>
<polygon fill="midnightblue" stroke="midnightblue" points="593.86,-86.82 603.92,-83.49 593.98,-79.82 593.86,-86.82"/>
</g>
<!-- Node10 -->
<g id="node10" class="node">
<title>Node10</title>
<g id="a_node10"><a xlink:href="classMenu.html#a6a602f7f37917ae9582719a89246b73b" target="_top" xlink:title=" ">
<polygon fill="none" stroke="black" points="272,-42.5 272,-61.5 393,-61.5 393,-42.5 272,-42.5"/>
<text text-anchor="middle" x="332.5" y="-49.5" font-family="Helvetica,sans-Serif" font-size="10.00">Menu::showOwnerMenu</text>
</a>
</g>
</g>
<!-- Node6&#45;&gt;Node10 -->
<g id="edge25" class="edge">
<title>Node6&#45;&gt;Node10</title>
<path fill="none" stroke="midnightblue" d="M609.7,-78.33C596.18,-75.59 581.59,-72.92 568,-71 508.95,-62.64 440.99,-57.64 393.48,-54.88"/>
<polygon fill="midnightblue" stroke="midnightblue" points="609.29,-81.81 619.8,-80.41 610.71,-74.96 609.29,-81.81"/>
</g>
<!-- Node12 -->
<g id="node12" class="node">
<title>Node12</title>
<g id="a_node12"><a xlink:href="classMenu.html#aaef7622e532f3424a27fce4d16dbda47" target="_top" xlink:title=" ">
<polygon fill="none" stroke="black" points="113.5,-0.5 113.5,-19.5 222.5,-19.5 222.5,-0.5 113.5,-0.5"/>
<text text-anchor="middle" x="168" y="-7.5" font-family="Helvetica,sans-Serif" font-size="10.00">Menu::showWelcome</text>
</a>
</g>
</g>
<!-- Node6&#45;&gt;Node12 -->
<g id="edge26" class="edge">
<title>Node6&#45;&gt;Node12</title>
<path fill="none" stroke="midnightblue" d="M643.93,-75.01C625.44,-64.41 595.3,-51.83 568,-45 446.99,-14.72 300.13,-5.27 222.73,-5.4"/>
<polygon fill="midnightblue" stroke="midnightblue" points="642.12,-78.01 652.45,-80.33 645.82,-72.07 642.12,-78.01"/>
</g>
<!-- Node14 -->
<g id="node14" class="node">
<title>Node14</title>
<g id="a_node14"><a xlink:href="classMenu.html#a3905222cc1c1ec7ed2dce13e16555c52" target="_top" xlink:title=" ">
<polygon fill="none" stroke="black" points="434,-118.5 434,-137.5 568,-137.5 568,-118.5 434,-118.5"/>
<text text-anchor="middle" x="501" y="-125.5" font-family="Helvetica,sans-Serif" font-size="10.00">Menu::showCheckoutMenu</text>
</a>
</g>
</g>
<!-- Node6&#45;&gt;Node14 -->
<g id="edge23" class="edge">
<title>Node6&#45;&gt;Node14</title>
<path fill="none" stroke="midnightblue" d="M594.14,-99.37C568.34,-105.21 540.77,-112.44 522.59,-118.39"/>
<polygon fill="midnightblue" stroke="midnightblue" points="594.91,-102.79 603.92,-97.21 593.4,-95.95 594.91,-102.79"/>
</g>
<!-- Node7&#45;&gt;Node6 -->
<g id="edge7" class="edge">
<title>Node7&#45;&gt;Node6</title>
<path fill="none" stroke="midnightblue" d="M573.6,-96.72C583.75,-96.8 594.08,-96.73 603.92,-96.51"/>
<polygon fill="midnightblue" stroke="midnightblue" points="573.58,-93.22 563.54,-96.59 573.49,-100.22 573.58,-93.22"/>
</g>
<!-- Node8 -->
<g id="node8" class="node">
<title>Node8</title>
<g id="a_node8"><a xlink:href="classMenu.html#a8bdf4110581d8d8a82f6290f246201e7" target="_top" xlink:title=" ">
<polygon fill="none" stroke="black" points="267,-99.5 267,-118.5 398,-118.5 398,-99.5 267,-99.5"/>
<text text-anchor="middle" x="332.5" y="-106.5" font-family="Helvetica,sans-Serif" font-size="10.00">Menu::showCategoryMenu</text>
</a>
</g>
</g>
<!-- Node7&#45;&gt;Node8 -->
<g id="edge8" class="edge">
<title>Node7&#45;&gt;Node8</title>
<path fill="none" stroke="midnightblue" d="M428.34,-91.49C407.5,-93.65 385.66,-96.51 368.2,-99.44"/>
<polygon fill="midnightblue" stroke="midnightblue" points="428.87,-94.95 438.47,-90.48 428.18,-87.98 428.87,-94.95"/>
</g>
<!-- Node7&#45;&gt;Node10 -->
<g id="edge12" class="edge">
<title>Node7&#45;&gt;Node10</title>
<path fill="none" stroke="midnightblue" d="M468.79,-77.47C447.54,-71.34 418.73,-64.4 393.15,-59.11"/>
<polygon fill="midnightblue" stroke="midnightblue" points="467.99,-80.89 478.57,-80.41 470,-74.18 467.99,-80.89"/>
</g>
<!-- Node8&#45;&gt;Node7 -->
<g id="edge9" class="edge">
<title>Node8&#45;&gt;Node7</title>
<path fill="none" stroke="midnightblue" d="M408.28,-107.19C428.25,-105.05 448.88,-102.32 465.5,-99.53"/>
<polygon fill="midnightblue" stroke="midnightblue" points="407.83,-103.71 398.24,-108.21 408.54,-110.68 407.83,-103.71"/>
</g>
<!-- Node8&#45;&gt;Node9 -->
<g id="edge10" class="edge">
<title>Node8&#45;&gt;Node9</title>
<path fill="none" stroke="midnightblue" d="M256.68,-111.02C237.78,-113.12 218.4,-115.76 202.69,-118.47"/>
<polygon fill="midnightblue" stroke="midnightblue" points="257.23,-114.48 266.81,-109.94 256.49,-107.52 257.23,-114.48"/>
</g>
<!-- Node9&#45;&gt;Node8 -->
<g id="edge11" class="edge">
<title>Node9&#45;&gt;Node8</title>
<path fill="none" stroke="midnightblue" d="M241.4,-126.25C261.07,-124.11 281.44,-121.35 297.83,-118.53"/>
<polygon fill="midnightblue" stroke="midnightblue" points="240.78,-122.79 231.2,-127.31 241.51,-129.76 240.78,-122.79"/>
</g>
<!-- Node10&#45;&gt;Node7 -->
<g id="edge13" class="edge">
<title>Node10&#45;&gt;Node7</title>
<path fill="none" stroke="midnightblue" d="M364.85,-64.57C385.57,-70.54 413.43,-77.28 438.47,-82.5"/>
<polygon fill="midnightblue" stroke="midnightblue" points="365.59,-61.14 355,-61.62 363.58,-67.84 365.59,-61.14"/>
</g>
<!-- Node11 -->
<g id="node11" class="node">
<title>Node11</title>
<g id="a_node11"><a xlink:href="classMenu.html#a788512183de460d13b8a2dfb571c03f2" target="_top" xlink:title=" ">
<polygon fill="none" stroke="black" points="107.5,-42.5 107.5,-61.5 228.5,-61.5 228.5,-42.5 107.5,-42.5"/>
<text text-anchor="middle" x="168" y="-49.5" font-family="Helvetica,sans-Serif" font-size="10.00">Menu::showStatusMenu</text>
</a>
</g>
</g>
<!-- Node10&#45;&gt;Node11 -->
<g id="edge14" class="edge">
<title>Node10&#45;&gt;Node11</title>
<path fill="none" stroke="midnightblue" d="M261.85,-45.31C250.77,-45.19 239.4,-45.25 228.58,-45.47"/>
<polygon fill="midnightblue" stroke="midnightblue" points="261.86,-48.81 271.91,-45.47 261.97,-41.81 261.86,-48.81"/>
</g>
<!-- Node10&#45;&gt;Node12 -->
<g id="edge17" class="edge">
<title>Node10&#45;&gt;Node12</title>
<path fill="none" stroke="midnightblue" d="M302.74,-39.27C280.61,-32.1 249.4,-23.67 222.69,-17.49"/>
<polygon fill="midnightblue" stroke="midnightblue" points="301.63,-42.59 312.22,-42.46 303.86,-35.95 301.63,-42.59"/>
</g>
<!-- Node11&#45;&gt;Node10 -->
<g id="edge15" class="edge">
<title>Node11&#45;&gt;Node10</title>
<path fill="none" stroke="midnightblue" d="M238.65,-58.69C249.72,-58.81 261.09,-58.75 271.91,-58.53"/>
<polygon fill="midnightblue" stroke="midnightblue" points="238.63,-55.19 228.58,-58.53 238.52,-62.19 238.63,-55.19"/>
</g>
<!-- Node11&#45;&gt;Node11 -->
<g id="edge16" class="edge">
<title>Node11&#45;&gt;Node11</title>
<path fill="none" stroke="midnightblue" d="M192.55,-71.03C191.21,-76.13 183.03,-80 168,-80 144.54,-80 137.76,-70.57 147.65,-61.76"/>
<polygon fill="midnightblue" stroke="midnightblue" points="195.67,-69.42 188.35,-61.76 189.29,-72.31 195.67,-69.42"/>
</g>
<!-- Node12&#45;&gt;Node6 -->
<g id="edge19" class="edge">
<title>Node12&#45;&gt;Node6</title>
<path fill="none" stroke="midnightblue" d="M233.09,-18.05C312.7,-24.12 452.19,-34.02 568,-63 585.89,-67.48 604.99,-74.42 621.24,-80.38"/>
<polygon fill="midnightblue" stroke="midnightblue" points="232.97,-14.53 222.73,-17.25 232.43,-21.51 232.97,-14.53"/>
</g>
<!-- Node12&#45;&gt;Node10 -->
<g id="edge20" class="edge">
<title>Node12&#45;&gt;Node10</title>
<path fill="none" stroke="midnightblue" d="M197.87,-22.76C218.38,-29.4 246.65,-37.12 271.91,-43.13"/>
<polygon fill="midnightblue" stroke="midnightblue" points="198.78,-19.38 188.19,-19.5 196.55,-26.01 198.78,-19.38"/>
</g>
<!-- Node13 -->
<g id="node13" class="node">
<title>Node13</title>
<g id="a_node13"><a xlink:href="classMenu.html#a323509e5b6f4dc00536e87efd65b8b94" target="_top" xlink:title=" ">
<polygon fill="none" stroke="black" points="0,-0.5 0,-19.5 69,-19.5 69,-0.5 0,-0.5"/>
<text text-anchor="middle" x="34.5" y="-7.5" font-family="Helvetica,sans-Serif" font-size="10.00">Menu::Menu</text>
</a>
</g>
</g>
<!-- Node12&#45;&gt;Node13 -->
<g id="edge18" class="edge">
<title>Node12&#45;&gt;Node13</title>
<path fill="none" stroke="midnightblue" d="M102.92,-10C91.23,-10 79.47,-10 69.12,-10"/>
<polygon fill="midnightblue" stroke="midnightblue" points="103.13,-13.5 113.13,-10 103.13,-6.5 103.13,-13.5"/>
</g>
<!-- Node14&#45;&gt;Node6 -->
<g id="edge24" class="edge">
<title>Node14&#45;&gt;Node6</title>
<path fill="none" stroke="midnightblue" d="M578.21,-116.59C601.33,-111.16 624.85,-104.87 640.97,-99.59"/>
<polygon fill="midnightblue" stroke="midnightblue" points="577.3,-113.2 568.34,-118.86 578.87,-120.03 577.3,-113.2"/>
</g>
<!-- Node16 -->
<g id="node16" class="node">
<title>Node16</title>
<g id="a_node16"><a xlink:href="classShoppingCart.html#a211bfa95c5d4346f6405e93b9f4a1990" target="_top" xlink:title="Changes the quantity of an item in the cart.">
<polygon fill="none" stroke="black" points="1239,-118.5 1239,-137.5 1430,-137.5 1430,-118.5 1239,-118.5"/>
<text text-anchor="middle" x="1334.5" y="-125.5" font-family="Helvetica,sans-Serif" font-size="10.00">ShoppingCart::changeItemOrderQuantity</text>
</a>
</g>
</g>
<!-- Node15&#45;&gt;Node16 -->
<g id="edge31" class="edge">
<title>Node15&#45;&gt;Node16</title>
<path fill="none" stroke="midnightblue" d="M1455.53,-128C1447.11,-128 1438.54,-128 1430.05,-128"/>
<polygon fill="midnightblue" stroke="midnightblue" points="1455.72,-131.5 1465.72,-128 1455.71,-124.5 1455.72,-131.5"/>
</g>
<!-- Node17 -->
<g id="node17" class="node">
<title>Node17</title>
<g id="a_node17"><a xlink:href="classBuyer.html#abbce820121c4111b8d8384c88f9e44c8" target="_top" xlink:title="Removes an item from the cart completely.">
<polygon fill="none" stroke="black" points="903,-80.5 903,-99.5 1028,-99.5 1028,-80.5 903,-80.5"/>
<text text-anchor="middle" x="965.5" y="-87.5" font-family="Helvetica,sans-Serif" font-size="10.00">Buyer::removeFromOrder</text>
</a>
</g>
</g>
<!-- Node15&#45;&gt;Node17 -->
<g id="edge33" class="edge">
<title>Node15&#45;&gt;Node17</title>
<path fill="none" stroke="midnightblue" d="M1484.22,-116.72C1466.84,-113.74 1447.7,-110.85 1430,-109 1286.62,-94.01 1117.14,-90.7 1028.16,-90.06"/>
<polygon fill="midnightblue" stroke="midnightblue" points="1483.78,-120.19 1494.23,-118.47 1484.99,-113.3 1483.78,-120.19"/>
</g>
<!-- Node16&#45;&gt;Node2 -->
<g id="edge32" class="edge">
<title>Node16&#45;&gt;Node2</title>
<path fill="none" stroke="midnightblue" d="M1228.79,-128C1220.14,-128 1211.55,-128 1203.27,-128"/>
<polygon fill="midnightblue" stroke="midnightblue" points="1228.95,-131.5 1238.95,-128 1228.95,-124.5 1228.95,-131.5"/>
</g>
<!-- Node17&#45;&gt;Node5 -->
<g id="edge34" class="edge">
<title>Node17&#45;&gt;Node5</title>
<path fill="none" stroke="midnightblue" d="M892.84,-90C884.24,-90 875.56,-90 867.27,-90"/>
<polygon fill="midnightblue" stroke="midnightblue" points="892.88,-93.5 902.88,-90 892.88,-86.5 892.88,-93.5"/>
</g>
<!-- Node18&#45;&gt;Node9 -->
<g id="edge36" class="edge">
<title>Node18&#45;&gt;Node9</title>
<path fill="none" stroke="midnightblue" d="M1061.15,-242C996.4,-242 898.3,-242 813,-242 813,-242 813,-242 500,-242 372.06,-242 230.73,-164.92 184.53,-137.52"/>
<polygon fill="midnightblue" stroke="midnightblue" points="1061.25,-245.5 1071.25,-242 1061.25,-238.5 1061.25,-245.5"/>
</g>
</g>
</svg>
