<?xml version="1.0" encoding="UTF-8" standalone="no"?>
<!DOCTYPE svg PUBLIC "-//W3C//DTD SVG 1.1//EN"
 "http://www.w3.org/Graphics/SVG/1.1/DTD/svg11.dtd">
<!-- Generated by graphviz version 2.49.3 (20211027.1534)
 -->
<!-- Title: Menu::askYesNo Pages: 1 -->
<svg width="1226pt" height="159pt"
 viewBox="0.00 0.00 1226.00 159.00" xmlns="http://www.w3.org/2000/svg" xmlns:xlink="http://www.w3.org/1999/xlink">
<g id="graph0" class="graph" transform="scale(1 1) rotate(0) translate(4 155)">
<title>Menu::askYesNo</title>
<!-- Node1 -->
<g id="node1" class="node">
<title>Node1</title>
<g id="a_node1"><a xlink:title="Helper function to encapsulate yes/no questions.">
<polygon fill="#bfbfbf" stroke="black" points="1127,-37.5 1127,-56.5 1218,-56.5 1218,-37.5 1127,-37.5"/>
<text text-anchor="middle" x="1172.5" y="-44.5" font-family="Helvetica,sans-Serif" font-size="10.00">Menu::askYesNo</text>
</a>
</g>
</g>
<!-- Node2 -->
<g id="node2" class="node">
<title>Node2</title>
<g id="a_node2"><a xlink:href="classMenu.html#a957fada7140f67c43e3ee253ae863125" target="_top" xlink:title=" ">
<polygon fill="none" stroke="black" points="965,-56.5 965,-75.5 1091,-75.5 1091,-56.5 965,-56.5"/>
<text text-anchor="middle" x="1028" y="-63.5" font-family="Helvetica,sans-Serif" font-size="10.00">Menu::showProductMenu</text>
</a>
</g>
</g>
<!-- Node1&#45;&gt;Node2 -->
<g id="edge1" class="edge">
<title>Node1&#45;&gt;Node2</title>
<path fill="none" stroke="midnightblue" d="M1116.74,-54.3C1108.32,-55.42 1099.58,-56.59 1091.03,-57.73"/>
<polygon fill="midnightblue" stroke="midnightblue" points="1117.35,-57.75 1126.8,-52.96 1116.43,-50.81 1117.35,-57.75"/>
</g>
<!-- Node9 -->
<g id="node9" class="node">
<title>Node9</title>
<g id="a_node9"><a xlink:href="classMenu.html#a788512183de460d13b8a2dfb571c03f2" target="_top" xlink:title=" ">
<polygon fill="none" stroke="black" points="323,-0.5 323,-19.5 444,-19.5 444,-0.5 323,-0.5"/>
<text text-anchor="middle" x="383.5" y="-7.5" font-family="Helvetica,sans-Serif" font-size="10.00">Menu::showStatusMenu</text>
</a>
</g>
</g>
<!-- Node1&#45;&gt;Node9 -->
<g id="edge25" class="edge">
<title>Node1&#45;&gt;Node9</title>
<path fill="none" stroke="midnightblue" d="M1116.66,-38.97C1055.35,-30.69 953.04,-19 864.5,-19 864.5,-19 864.5,-19 698.5,-19 609.88,-19 507.25,-15.37 444.1,-12.72"/>
<polygon fill="midnightblue" stroke="midnightblue" points="1116.49,-42.48 1126.87,-40.36 1117.44,-35.54 1116.49,-42.48"/>
</g>
<!-- Node3 -->
<g id="node3" class="node">
<title>Node3</title>
<g id="a_node3"><a xlink:href="classMenu.html#a8bdf4110581d8d8a82f6290f246201e7" target="_top" xlink:title=" ">
<polygon fill="none" stroke="black" points="798,-56.5 798,-75.5 929,-75.5 929,-56.5 798,-56.5"/>
<text text-anchor="middle" x="863.5" y="-63.5" font-family="Helvetica,sans-Serif" font-size="10.00">Menu::showCategoryMenu</text>
</a>
</g>
</g>
<!-- Node2&#45;&gt;Node3 -->
<g id="edge2" class="edge">
<title>Node2&#45;&gt;Node3</title>
<path fill="none" stroke="midnightblue" d="M954.44,-59.28C946,-59.22 937.44,-59.25 929.12,-59.38"/>
<polygon fill="midnightblue" stroke="midnightblue" points="954.59,-62.79 964.64,-59.41 954.68,-55.79 954.59,-62.79"/>
</g>
<!-- Node3&#45;&gt;Node2 -->
<g id="edge24" class="edge">
<title>Node3&#45;&gt;Node2</title>
<path fill="none" stroke="midnightblue" d="M939.36,-72.73C947.82,-72.78 956.37,-72.73 964.64,-72.59"/>
<polygon fill="midnightblue" stroke="midnightblue" points="939.15,-69.23 929.12,-72.62 939.08,-76.23 939.15,-69.23"/>
</g>
<!-- Node4 -->
<g id="node4" class="node">
<title>Node4</title>
<g id="a_node4"><a xlink:href="classMenu.html#a1de78dc75d7de7db8bce09a70dbbf77f" target="_top" xlink:title=" ">
<polygon fill="none" stroke="black" points="637,-56.5 637,-75.5 762,-75.5 762,-56.5 637,-56.5"/>
<text text-anchor="middle" x="699.5" y="-63.5" font-family="Helvetica,sans-Serif" font-size="10.00">Menu::showBrowseMenu</text>
</a>
</g>
</g>
<!-- Node3&#45;&gt;Node4 -->
<g id="edge3" class="edge">
<title>Node3&#45;&gt;Node4</title>
<path fill="none" stroke="midnightblue" d="M787.3,-59.27C778.84,-59.22 770.31,-59.27 762.05,-59.43"/>
<polygon fill="midnightblue" stroke="midnightblue" points="787.51,-62.77 797.54,-59.37 787.58,-55.77 787.51,-62.77"/>
</g>
<!-- Node4&#45;&gt;Node3 -->
<g id="edge22" class="edge">
<title>Node4&#45;&gt;Node3</title>
<path fill="none" stroke="midnightblue" d="M772.24,-72.71C780.66,-72.78 789.22,-72.76 797.54,-72.63"/>
<polygon fill="midnightblue" stroke="midnightblue" points="772.1,-69.21 762.05,-72.57 772.01,-76.21 772.1,-69.21"/>
</g>
<!-- Node5 -->
<g id="node5" class="node">
<title>Node5</title>
<g id="a_node5"><a xlink:href="classMenu.html#a2ecf65abb196d80c5a5c354155019a93" target="_top" xlink:title=" ">
<polygon fill="none" stroke="black" points="170,-94.5 170,-113.5 287,-113.5 287,-94.5 170,-94.5"/>
<text text-anchor="middle" x="228.5" y="-101.5" font-family="Helvetica,sans-Serif" font-size="10.00">Menu::showBuyerMenu</text>
</a>
</g>
</g>
<!-- Node4&#45;&gt;Node5 -->
<g id="edge4" class="edge">
<title>Node4&#45;&gt;Node5</title>
<path fill="none" stroke="midnightblue" d="M627.12,-71.54C618.34,-73.08 609.47,-74.64 601,-76 531.55,-87.18 514.2,-91.55 444,-96 390.33,-99.4 376.78,-96.29 323,-96 311.47,-95.94 299.15,-95.83 287.36,-95.91"/>
<polygon fill="midnightblue" stroke="midnightblue" points="627.74,-74.98 636.98,-69.8 626.52,-68.09 627.74,-74.98"/>
</g>
<!-- Node8 -->
<g id="node8" class="node">
<title>Node8</title>
<g id="a_node8"><a xlink:href="classMenu.html#a6a602f7f37917ae9582719a89246b73b" target="_top" xlink:title=" ">
<polygon fill="none" stroke="black" points="480,-56.5 480,-75.5 601,-75.5 601,-56.5 480,-56.5"/>
<text text-anchor="middle" x="540.5" y="-63.5" font-family="Helvetica,sans-Serif" font-size="10.00">Menu::showOwnerMenu</text>
</a>
</g>
</g>
<!-- Node4&#45;&gt;Node8 -->
<g id="edge23" class="edge">
<title>Node4&#45;&gt;Node8</title>
<path fill="none" stroke="midnightblue" d="M626.87,-59.27C618.26,-59.22 609.54,-59.27 601.12,-59.43"/>
<polygon fill="midnightblue" stroke="midnightblue" points="626.86,-62.77 636.9,-59.39 626.94,-55.77 626.86,-62.77"/>
</g>
<!-- Node5&#45;&gt;Node4 -->
<g id="edge5" class="edge">
<title>Node5&#45;&gt;Node4</title>
<path fill="none" stroke="midnightblue" d="M297.04,-113.73C305.77,-113.89 314.6,-113.96 323,-114 376.78,-114.29 390.33,-117.4 444,-114 514.2,-109.55 531.55,-105.18 601,-94 630.29,-89.29 664.23,-82.33 683.36,-75.54"/>
<polygon fill="midnightblue" stroke="midnightblue" points="296.93,-110.23 286.86,-113.51 296.78,-117.23 296.93,-110.23"/>
</g>
<!-- Node5&#45;&gt;Node5 -->
<g id="edge6" class="edge">
<title>Node5&#45;&gt;Node5</title>
<path fill="none" stroke="midnightblue" d="M257.25,-122.65C256.04,-127.94 246.46,-132 228.5,-132 201.13,-132 193.22,-122.57 204.76,-113.76"/>
<polygon fill="midnightblue" stroke="midnightblue" points="260.19,-120.75 252.24,-113.76 254.09,-124.19 260.19,-120.75"/>
</g>
<!-- Node6 -->
<g id="node6" class="node">
<title>Node6</title>
<g id="a_node6"><a xlink:href="classMenu.html#a781c392fdcd203e436f5dc6e78f057a8" target="_top" xlink:title=" ">
<polygon fill="none" stroke="black" points="12,-113.5 12,-132.5 122,-132.5 122,-113.5 12,-113.5"/>
<text text-anchor="middle" x="67" y="-120.5" font-family="Helvetica,sans-Serif" font-size="10.00">Menu::showCartMenu</text>
</a>
</g>
</g>
<!-- Node5&#45;&gt;Node6 -->
<g id="edge7" class="edge">
<title>Node5&#45;&gt;Node6</title>
<path fill="none" stroke="midnightblue" d="M159.71,-105.39C139.35,-107.59 117.92,-110.5 100.9,-113.5"/>
<polygon fill="midnightblue" stroke="midnightblue" points="160.33,-108.85 169.92,-104.35 159.61,-101.88 160.33,-108.85"/>
</g>
<!-- Node7 -->
<g id="node7" class="node">
<title>Node7</title>
<g id="a_node7"><a xlink:href="classMenu.html#a3905222cc1c1ec7ed2dce13e16555c52" target="_top" xlink:title=" ">
<polygon fill="none" stroke="black" points="0,-75.5 0,-94.5 134,-94.5 134,-75.5 0,-75.5"/>
<text text-anchor="middle" x="67" y="-82.5" font-family="Helvetica,sans-Serif" font-size="10.00">Menu::showCheckoutMenu</text>
</a>
</g>
</g>
<!-- Node5&#45;&gt;Node7 -->
<g id="edge10" class="edge">
<title>Node5&#45;&gt;Node7</title>
<path fill="none" stroke="midnightblue" d="M184.2,-92.76C168.81,-90.32 151.11,-88.02 134.24,-86.23"/>
<polygon fill="midnightblue" stroke="midnightblue" points="184.01,-96.28 194.45,-94.47 185.16,-89.37 184.01,-96.28"/>
</g>
<!-- Node5&#45;&gt;Node8 -->
<g id="edge12" class="edge">
<title>Node5&#45;&gt;Node8</title>
<path fill="none" stroke="midnightblue" d="M297.24,-99.88C339.56,-96.84 395.11,-92.01 444,-85 461.4,-82.51 480.43,-78.9 496.88,-75.5"/>
<polygon fill="midnightblue" stroke="midnightblue" points="296.78,-96.4 287.05,-100.6 297.27,-103.39 296.78,-96.4"/>
</g>
<!-- Node10 -->
<g id="node10" class="node">
<title>Node10</title>
<g id="a_node10"><a xlink:href="classMenu.html#aaef7622e532f3424a27fce4d16dbda47" target="_top" xlink:title=" ">
<polygon fill="none" stroke="black" points="329,-56.5 329,-75.5 438,-75.5 438,-56.5 329,-56.5"/>
<text text-anchor="middle" x="383.5" y="-63.5" font-family="Helvetica,sans-Serif" font-size="10.00">Menu::showWelcome</text>
</a>
</g>
</g>
<!-- Node5&#45;&gt;Node10 -->
<g id="edge21" class="edge">
<title>Node5&#45;&gt;Node10</title>
<path fill="none" stroke="midnightblue" d="M296.82,-93.99C320.8,-88.26 346,-81.33 362.81,-75.59"/>
<polygon fill="midnightblue" stroke="midnightblue" points="295.95,-90.6 287.01,-96.28 297.54,-97.41 295.95,-90.6"/>
</g>
<!-- Node6&#45;&gt;Node5 -->
<g id="edge8" class="edge">
<title>Node6&#45;&gt;Node5</title>
<path fill="none" stroke="midnightblue" d="M132.06,-122C153.45,-119.78 176.41,-116.7 194.45,-113.53"/>
<polygon fill="midnightblue" stroke="midnightblue" points="131.65,-118.53 122.04,-122.99 132.33,-125.49 131.65,-118.53"/>
</g>
<!-- Node6&#45;&gt;Node6 -->
<g id="edge9" class="edge">
<title>Node6&#45;&gt;Node6</title>
<path fill="none" stroke="midnightblue" d="M96.94,-141.27C96.09,-146.74 86.11,-151 67,-151 38.56,-151 30.34,-141.57 42.34,-132.76"/>
<polygon fill="midnightblue" stroke="midnightblue" points="99.9,-139.41 91.66,-132.76 93.95,-143.1 99.9,-139.41"/>
</g>
<!-- Node7&#45;&gt;Node5 -->
<g id="edge11" class="edge">
<title>Node7&#45;&gt;Node5</title>
<path fill="none" stroke="midnightblue" d="M110.89,-96.17C129.03,-99.06 150.43,-101.76 169.92,-103.65"/>
<polygon fill="midnightblue" stroke="midnightblue" points="111.34,-92.7 100.9,-94.5 110.19,-99.6 111.34,-92.7"/>
</g>
<!-- Node8&#45;&gt;Node4 -->
<g id="edge13" class="edge">
<title>Node8&#45;&gt;Node4</title>
<path fill="none" stroke="midnightblue" d="M611.4,-72.71C619.9,-72.79 628.53,-72.75 636.9,-72.61"/>
<polygon fill="midnightblue" stroke="midnightblue" points="611.17,-69.21 601.12,-72.57 611.07,-76.21 611.17,-69.21"/>
</g>
<!-- Node8&#45;&gt;Node9 -->
<g id="edge14" class="edge">
<title>Node8&#45;&gt;Node9</title>
<path fill="none" stroke="midnightblue" d="M515.48,-52.28C492.18,-42.04 456.29,-28.71 427.96,-19.57"/>
<polygon fill="midnightblue" stroke="midnightblue" points="514.09,-55.49 524.64,-56.45 516.99,-49.12 514.09,-55.49"/>
</g>
<!-- Node8&#45;&gt;Node10 -->
<g id="edge17" class="edge">
<title>Node8&#45;&gt;Node10</title>
<path fill="none" stroke="midnightblue" d="M469.56,-59.28C459.03,-59.2 448.31,-59.29 438.19,-59.54"/>
<polygon fill="midnightblue" stroke="midnightblue" points="469.53,-62.78 479.57,-59.41 469.62,-55.78 469.53,-62.78"/>
</g>
<!-- Node9&#45;&gt;Node8 -->
<g id="edge15" class="edge">
<title>Node9&#45;&gt;Node8</title>
<path fill="none" stroke="midnightblue" d="M408.76,-23.83C432.04,-34.04 467.71,-47.28 495.91,-56.39"/>
<polygon fill="midnightblue" stroke="midnightblue" points="410.16,-20.62 399.6,-19.66 407.26,-26.99 410.16,-20.62"/>
</g>
<!-- Node9&#45;&gt;Node9 -->
<g id="edge16" class="edge">
<title>Node9&#45;&gt;Node9</title>
<path fill="none" stroke="midnightblue" d="M412.25,-28.65C411.04,-33.94 401.46,-38 383.5,-38 356.13,-38 348.22,-28.57 359.76,-19.76"/>
<polygon fill="midnightblue" stroke="midnightblue" points="415.19,-26.75 407.24,-19.76 409.09,-30.19 415.19,-26.75"/>
</g>
<!-- Node10&#45;&gt;Node5 -->
<g id="edge19" class="edge">
<title>Node10&#45;&gt;Node5</title>
<path fill="none" stroke="midnightblue" d="M319.08,-75.09C293.86,-81.01 266.69,-88.42 248.97,-94.48"/>
<polygon fill="midnightblue" stroke="midnightblue" points="320.02,-78.46 328.99,-72.82 318.46,-71.64 320.02,-78.46"/>
</g>
<!-- Node10&#45;&gt;Node8 -->
<g id="edge20" class="edge">
<title>Node10&#45;&gt;Node8</title>
<path fill="none" stroke="midnightblue" d="M448.38,-72.66C458.7,-72.8 469.35,-72.78 479.57,-72.59"/>
<polygon fill="midnightblue" stroke="midnightblue" points="448.26,-69.15 438.19,-72.46 448.13,-76.15 448.26,-69.15"/>
</g>
<!-- Node11 -->
<g id="node11" class="node">
<title>Node11</title>
<g id="a_node11"><a xlink:href="classMenu.html#a323509e5b6f4dc00536e87efd65b8b94" target="_top" xlink:title=" ">
<polygon fill="none" stroke="black" points="194,-56.5 194,-75.5 263,-75.5 263,-56.5 194,-56.5"/>
<text text-anchor="middle" x="228.5" y="-63.5" font-family="Helvetica,sans-Serif" font-size="10.00">Menu::Menu</text>
</a>
</g>
</g>
<!-- Node10&#45;&gt;Node11 -->
<g id="edge18" class="edge">
<title>Node10&#45;&gt;Node11</title>
<path fill="none" stroke="midnightblue" d="M318.82,-66C299.71,-66 279.51,-66 263.15,-66"/>
<polygon fill="midnightblue" stroke="midnightblue" points="318.99,-69.5 328.99,-66 318.99,-62.5 318.99,-69.5"/>
</g>
</g>
</svg>
