<?xml version="1.0" encoding="UTF-8" standalone="no"?>
<!DOCTYPE svg PUBLIC "-//W3C//DTD SVG 1.1//EN"
 "http://www.w3.org/Graphics/SVG/1.1/DTD/svg11.dtd">
<!-- Generated by graphviz version 2.49.3 (20211027.1534)
 -->
<!-- Title: Item::getName Pages: 1 -->
<!--zoomable 236 -->
<svg id="main" version="1.1" xmlns="http://www.w3.org/2000/svg" xmlns:xlink="http://www.w3.org/1999/xlink" xml:space="preserve" onload="init(evt)">
<style type="text/css"><![CDATA[
.edge:hover path { stroke: red; }
.edge:hover polygon { stroke: red; fill: red; }
]]></style>
<script type="text/javascript"><![CDATA[
var edges = document.getElementsByTagName('g');
if (edges && edges.length) {
  for (var i=0;i<edges.length;i++) {
    if (edges[i].id.substr(0,4)=='edge') {
      edges[i].setAttribute('class','edge');
    }
  }
}
]]></script>
        <defs>
                <circle id="rim" cx="0" cy="0" r="7"/>
                <circle id="rim2" cx="0" cy="0" r="3.5"/>
                <g id="zoomPlus">
                        <use xlink:href="#rim" fill="#404040">
                                <set attributeName="fill" to="#808080" begin="zoomplus.mouseover" end="zoomplus.mouseout"/>
                        </use>
                        <path d="M-4,0h8M0,-4v8" fill="none" stroke="white" stroke-width="1.5" pointer-events="none"/>
                </g>
                <g id="zoomMin">
                        <use xlink:href="#rim" fill="#404040">
                                <set attributeName="fill" to="#808080" begin="zoomminus.mouseover" end="zoomminus.mouseout"/>
                        </use>
                        <path d="M-4,0h8" fill="none" stroke="white" stroke-width="1.5" pointer-events="none"/>
                </g>
                <g id="dirArrow">
                        <path fill="none" stroke="white" stroke-width="1.5" d="M0,-3.0v7 M-2.5,-0.5L0,-3.0L2.5,-0.5"/>
                </g>
               <g id="resetDef">
                       <use xlink:href="#rim2" fill="#404040">
                               <set attributeName="fill" to="#808080" begin="reset.mouseover" end="reset.mouseout"/>
                       </use>
               </g>
        </defs>

<script type="text/javascript">
var viewWidth = 1305;
var viewHeight = 236;
var sectionId = 'dynsection-3';
</script>
<script xlink:href="svgpan.js"/>
<svg id="graph" class="graph">
<g id="viewport">
<title>Item::getName</title>
<!-- Node1 -->
<g id="node1" class="node">
<title>Node1</title>
<g id="a_node1"><a xlink:title="Get the Item&#39;s name.">
<polygon fill="#bfbfbf" stroke="black" points="1217,-170.5 1217,-189.5 1297,-189.5 1297,-170.5 1217,-170.5"/>
<text text-anchor="middle" x="1257" y="-177.5" font-family="Helvetica,sans-Serif" font-size="10.00">Item::getName</text>
</a>
</g>
</g>
<!-- Node2 -->
<g id="node2" class="node">
<title>Node2</title>
<g id="a_node2"><a xlink:href="classEShop.html#ad7003995c9d5ab17f2440825af920c06" target="_top" xlink:title="Add an Item to the e&#45;shop.">
<polygon fill="none" stroke="black" points="912,-208.5 912,-227.5 997,-227.5 997,-208.5 912,-208.5"/>
<text text-anchor="middle" x="954.5" y="-215.5" font-family="Helvetica,sans-Serif" font-size="10.00">EShop::addItem</text>
</a>
</g>
</g>
<!-- Node1&#45;&gt;Node2 -->
<g id="edge1" class="edge">
<title>Node1&#45;&gt;Node2</title>
<path fill="none" stroke="midnightblue" d="M1213.55,-192.04C1202.99,-194.68 1191.64,-197.22 1181,-199 1117.45,-209.65 1042.78,-214.45 997.32,-216.53"/>
<polygon fill="midnightblue" stroke="midnightblue" points="1214.58,-195.39 1223.39,-189.5 1212.83,-188.61 1214.58,-195.39"/>
</g>
<!-- Node4 -->
<g id="node4" class="node">
<title>Node4</title>
<g id="a_node4"><a xlink:href="classShoppingCart.html#a5481a654a62253b5de2650f9149f6780" target="_top" xlink:title="Add quantity of an Item to the cart.">
<polygon fill="none" stroke="black" points="1042,-170.5 1042,-189.5 1181,-189.5 1181,-170.5 1042,-170.5"/>
<text text-anchor="middle" x="1111.5" y="-177.5" font-family="Helvetica,sans-Serif" font-size="10.00">ShoppingCart::addItemOrder</text>
</a>
</g>
</g>
<!-- Node1&#45;&gt;Node4 -->
<g id="edge3" class="edge">
<title>Node1&#45;&gt;Node4</title>
<path fill="none" stroke="midnightblue" d="M1206.65,-180C1198.43,-180 1189.78,-180 1181.19,-180"/>
<polygon fill="midnightblue" stroke="midnightblue" points="1206.79,-183.5 1216.79,-180 1206.79,-176.5 1206.79,-183.5"/>
</g>
<!-- Node16 -->
<g id="node16" class="node">
<title>Node16</title>
<g id="a_node16"><a xlink:href="classShoppingCart.html#a7b10eca9cc2f0ea5fd617c8f28b4dfd4" target="_top" xlink:title="Get the order information of an item in the cart.">
<polygon fill="none" stroke="black" points="1043,-118.5 1043,-137.5 1180,-137.5 1180,-118.5 1043,-118.5"/>
<text text-anchor="middle" x="1111.5" y="-125.5" font-family="Helvetica,sans-Serif" font-size="10.00">ShoppingCart::getItemOrder</text>
</a>
</g>
</g>
<!-- Node1&#45;&gt;Node16 -->
<g id="edge31" class="edge">
<title>Node1&#45;&gt;Node16</title>
<path fill="none" stroke="midnightblue" d="M1220.13,-167C1195,-157.89 1161.95,-145.92 1139.14,-137.65"/>
<polygon fill="midnightblue" stroke="midnightblue" points="1219.09,-170.35 1229.68,-170.46 1221.47,-163.76 1219.09,-170.35"/>
</g>
<!-- Node3 -->
<g id="node3" class="node">
<title>Node3</title>
<g id="a_node3"><a xlink:href="main_8cpp.html#a3c04138a5bfe5d72780bb7e82a18e627" target="_top" xlink:title=" ">
<polygon fill="none" stroke="black" points="793,-208.5 793,-227.5 831,-227.5 831,-208.5 793,-208.5"/>
<text text-anchor="middle" x="812" y="-215.5" font-family="Helvetica,sans-Serif" font-size="10.00">main</text>
</a>
</g>
</g>
<!-- Node2&#45;&gt;Node3 -->
<g id="edge2" class="edge">
<title>Node2&#45;&gt;Node3</title>
<path fill="none" stroke="midnightblue" d="M901.71,-218C876.94,-218 848.88,-218 831.07,-218"/>
<polygon fill="midnightblue" stroke="midnightblue" points="901.73,-221.5 911.73,-218 901.73,-214.5 901.73,-221.5"/>
</g>
<!-- Node5 -->
<g id="node5" class="node">
<title>Node5</title>
<g id="a_node5"><a xlink:href="classBuyer.html#a50ddd9046308e8ac9b82c0665d07452b" target="_top" xlink:title="Add an item to the cart with the specified quantity.">
<polygon fill="none" stroke="black" points="908,-170.5 908,-189.5 1001,-189.5 1001,-170.5 908,-170.5"/>
<text text-anchor="middle" x="954.5" y="-177.5" font-family="Helvetica,sans-Serif" font-size="10.00">Buyer::placeOrder</text>
</a>
</g>
</g>
<!-- Node4&#45;&gt;Node5 -->
<g id="edge4" class="edge">
<title>Node4&#45;&gt;Node5</title>
<path fill="none" stroke="midnightblue" d="M1031.59,-180C1021.11,-180 1010.68,-180 1001.04,-180"/>
<polygon fill="midnightblue" stroke="midnightblue" points="1031.61,-183.5 1041.61,-180 1031.61,-176.5 1031.61,-183.5"/>
</g>
<!-- Node5&#45;&gt;Node3 -->
<g id="edge5" class="edge">
<title>Node5&#45;&gt;Node3</title>
<path fill="none" stroke="midnightblue" d="M908.32,-192.22C882.16,-199.29 850.67,-207.81 831.24,-213.07"/>
<polygon fill="midnightblue" stroke="midnightblue" points="909.31,-195.58 918.05,-189.59 907.48,-188.82 909.31,-195.58"/>
</g>
<!-- Node6 -->
<g id="node6" class="node">
<title>Node6</title>
<g id="a_node6"><a xlink:href="classMenu.html#a781c392fdcd203e436f5dc6e78f057a8" target="_top" xlink:title=" ">
<polygon fill="none" stroke="black" points="757,-104.5 757,-123.5 867,-123.5 867,-104.5 757,-104.5"/>
<text text-anchor="middle" x="812" y="-111.5" font-family="Helvetica,sans-Serif" font-size="10.00">Menu::showCartMenu</text>
</a>
</g>
</g>
<!-- Node5&#45;&gt;Node6 -->
<g id="edge6" class="edge">
<title>Node5&#45;&gt;Node6</title>
<path fill="none" stroke="midnightblue" d="M923.67,-165.99C896.53,-153.24 857.19,-134.76 833.45,-123.61"/>
<polygon fill="midnightblue" stroke="midnightblue" points="922.53,-169.32 933.07,-170.4 925.51,-162.98 922.53,-169.32"/>
</g>
<!-- Node10 -->
<g id="node10" class="node">
<title>Node10</title>
<g id="a_node10"><a xlink:href="classMenu.html#a957fada7140f67c43e3ee253ae863125" target="_top" xlink:title=" ">
<polygon fill="none" stroke="black" points="105,-150.5 105,-169.5 231,-169.5 231,-150.5 105,-150.5"/>
<text text-anchor="middle" x="168" y="-157.5" font-family="Helvetica,sans-Serif" font-size="10.00">Menu::showProductMenu</text>
</a>
</g>
</g>
<!-- Node5&#45;&gt;Node10 -->
<g id="edge30" class="edge">
<title>Node5&#45;&gt;Node10</title>
<path fill="none" stroke="midnightblue" d="M897.67,-180C839.28,-180 744.95,-180 663.5,-180 663.5,-180 663.5,-180 500,-180 406.16,-180 297.63,-171.89 231.16,-166"/>
<polygon fill="midnightblue" stroke="midnightblue" points="897.79,-183.5 907.79,-180 897.79,-176.5 897.79,-183.5"/>
</g>
<!-- Node6&#45;&gt;Node6 -->
<g id="edge29" class="edge">
<title>Node6&#45;&gt;Node6</title>
<path fill="none" stroke="midnightblue" d="M838.51,-132.65C837.4,-137.94 828.56,-142 812,-142 786.76,-142 779.47,-132.57 790.11,-123.76"/>
<polygon fill="midnightblue" stroke="midnightblue" points="841.6,-131.02 833.89,-123.76 835.39,-134.24 841.6,-131.02"/>
</g>
<!-- Node7 -->
<g id="node7" class="node">
<title>Node7</title>
<g id="a_node7"><a xlink:href="classMenu.html#a2ecf65abb196d80c5a5c354155019a93" target="_top" xlink:title=" ">
<polygon fill="none" stroke="black" points="604,-94.5 604,-113.5 721,-113.5 721,-94.5 604,-94.5"/>
<text text-anchor="middle" x="662.5" y="-101.5" font-family="Helvetica,sans-Serif" font-size="10.00">Menu::showBuyerMenu</text>
</a>
</g>
</g>
<!-- Node6&#45;&gt;Node7 -->
<g id="edge7" class="edge">
<title>Node6&#45;&gt;Node7</title>
<path fill="none" stroke="midnightblue" d="M753.85,-103.53C743.15,-102.6 731.96,-101.84 721.24,-101.31"/>
<polygon fill="midnightblue" stroke="midnightblue" points="753.64,-107.03 763.92,-104.47 754.29,-100.06 753.64,-107.03"/>
</g>
<!-- Node7&#45;&gt;Node6 -->
<g id="edge24" class="edge">
<title>Node7&#45;&gt;Node6</title>
<path fill="none" stroke="midnightblue" d="M720.59,-114.46C732.53,-115.5 745.09,-116.33 756.91,-116.87"/>
<polygon fill="midnightblue" stroke="midnightblue" points="720.57,-110.95 710.29,-113.5 719.92,-117.92 720.57,-110.95"/>
</g>
<!-- Node7&#45;&gt;Node7 -->
<g id="edge23" class="edge">
<title>Node7&#45;&gt;Node7</title>
<path fill="none" stroke="midnightblue" d="M690.13,-122.65C688.97,-127.94 679.76,-132 662.5,-132 636.2,-132 628.59,-122.57 639.69,-113.76"/>
<polygon fill="midnightblue" stroke="midnightblue" points="693.15,-120.89 685.31,-113.76 686.99,-124.22 693.15,-120.89"/>
</g>
<!-- Node8 -->
<g id="node8" class="node">
<title>Node8</title>
<g id="a_node8"><a xlink:href="classMenu.html#a1de78dc75d7de7db8bce09a70dbbf77f" target="_top" xlink:title=" ">
<polygon fill="none" stroke="black" points="438.5,-132.5 438.5,-151.5 563.5,-151.5 563.5,-132.5 438.5,-132.5"/>
<text text-anchor="middle" x="501" y="-139.5" font-family="Helvetica,sans-Serif" font-size="10.00">Menu::showBrowseMenu</text>
</a>
</g>
</g>
<!-- Node7&#45;&gt;Node8 -->
<g id="edge8" class="edge">
<title>Node7&#45;&gt;Node8</title>
<path fill="none" stroke="midnightblue" d="M594.14,-113.37C568.34,-119.21 540.77,-126.44 522.59,-132.39"/>
<polygon fill="midnightblue" stroke="midnightblue" points="594.91,-116.79 603.92,-111.21 593.4,-109.95 594.91,-116.79"/>
</g>
<!-- Node11 -->
<g id="node11" class="node">
<title>Node11</title>
<g id="a_node11"><a xlink:href="classMenu.html#a6a602f7f37917ae9582719a89246b73b" target="_top" xlink:title=" ">
<polygon fill="none" stroke="black" points="272,-94.5 272,-113.5 393,-113.5 393,-94.5 272,-94.5"/>
<text text-anchor="middle" x="332.5" y="-101.5" font-family="Helvetica,sans-Serif" font-size="10.00">Menu::showOwnerMenu</text>
</a>
</g>
</g>
<!-- Node7&#45;&gt;Node11 -->
<g id="edge27" class="edge">
<title>Node7&#45;&gt;Node11</title>
<path fill="none" stroke="midnightblue" d="M593.64,-104C534.54,-104 449.7,-104 393.16,-104"/>
<polygon fill="midnightblue" stroke="midnightblue" points="593.99,-107.5 603.99,-104 593.99,-100.5 593.99,-107.5"/>
</g>
<!-- Node13 -->
<g id="node13" class="node">
<title>Node13</title>
<g id="a_node13"><a xlink:href="classMenu.html#aaef7622e532f3424a27fce4d16dbda47" target="_top" xlink:title=" ">
<polygon fill="none" stroke="black" points="113.5,-52.5 113.5,-71.5 222.5,-71.5 222.5,-52.5 113.5,-52.5"/>
<text text-anchor="middle" x="168" y="-59.5" font-family="Helvetica,sans-Serif" font-size="10.00">Menu::showWelcome</text>
</a>
</g>
</g>
<!-- Node7&#45;&gt;Node13 -->
<g id="edge28" class="edge">
<title>Node7&#45;&gt;Node13</title>
<path fill="none" stroke="midnightblue" d="M593.36,-93.35C494.34,-82.22 312.69,-66.87 222.6,-62.17"/>
<polygon fill="midnightblue" stroke="midnightblue" points="593.22,-96.86 603.56,-94.52 594.02,-89.91 593.22,-96.86"/>
</g>
<!-- Node15 -->
<g id="node15" class="node">
<title>Node15</title>
<g id="a_node15"><a xlink:href="classMenu.html#a3905222cc1c1ec7ed2dce13e16555c52" target="_top" xlink:title=" ">
<polygon fill="none" stroke="black" points="434,-0.5 434,-19.5 568,-19.5 568,-0.5 434,-0.5"/>
<text text-anchor="middle" x="501" y="-7.5" font-family="Helvetica,sans-Serif" font-size="10.00">Menu::showCheckoutMenu</text>
</a>
</g>
</g>
<!-- Node7&#45;&gt;Node15 -->
<g id="edge25" class="edge">
<title>Node7&#45;&gt;Node15</title>
<path fill="none" stroke="midnightblue" d="M649.28,-86.94C632.15,-68.97 599.55,-42.06 568,-25 564.46,-23.09 560.74,-21.27 556.94,-19.57"/>
<polygon fill="midnightblue" stroke="midnightblue" points="646.74,-89.35 656,-94.5 651.97,-84.7 646.74,-89.35"/>
</g>
<!-- Node8&#45;&gt;Node7 -->
<g id="edge9" class="edge">
<title>Node8&#45;&gt;Node7</title>
<path fill="none" stroke="midnightblue" d="M573.77,-131.62C598.29,-125.97 623.82,-119.21 640.97,-113.59"/>
<polygon fill="midnightblue" stroke="midnightblue" points="572.7,-128.27 563.72,-133.89 574.24,-135.1 572.7,-128.27"/>
</g>
<!-- Node9 -->
<g id="node9" class="node">
<title>Node9</title>
<g id="a_node9"><a xlink:href="classMenu.html#a8bdf4110581d8d8a82f6290f246201e7" target="_top" xlink:title=" ">
<polygon fill="none" stroke="black" points="267,-132.5 267,-151.5 398,-151.5 398,-132.5 267,-132.5"/>
<text text-anchor="middle" x="332.5" y="-139.5" font-family="Helvetica,sans-Serif" font-size="10.00">Menu::showCategoryMenu</text>
</a>
</g>
</g>
<!-- Node8&#45;&gt;Node9 -->
<g id="edge10" class="edge">
<title>Node8&#45;&gt;Node9</title>
<path fill="none" stroke="midnightblue" d="M428.17,-135.31C418.18,-135.21 407.97,-135.24 398.12,-135.4"/>
<polygon fill="midnightblue" stroke="midnightblue" points="428.42,-138.81 438.47,-135.46 428.53,-131.81 428.42,-138.81"/>
</g>
<!-- Node8&#45;&gt;Node11 -->
<g id="edge14" class="edge">
<title>Node8&#45;&gt;Node11</title>
<path fill="none" stroke="midnightblue" d="M468.79,-129.47C447.54,-123.34 418.73,-116.4 393.15,-111.11"/>
<polygon fill="midnightblue" stroke="midnightblue" points="467.99,-132.89 478.57,-132.41 470,-126.18 467.99,-132.89"/>
</g>
<!-- Node9&#45;&gt;Node8 -->
<g id="edge11" class="edge">
<title>Node9&#45;&gt;Node8</title>
<path fill="none" stroke="midnightblue" d="M408.17,-148.72C418.31,-148.79 428.61,-148.73 438.47,-148.54"/>
<polygon fill="midnightblue" stroke="midnightblue" points="408.16,-145.22 398.12,-148.6 408.08,-152.22 408.16,-145.22"/>
</g>
<!-- Node9&#45;&gt;Node10 -->
<g id="edge12" class="edge">
<title>Node9&#45;&gt;Node10</title>
<path fill="none" stroke="midnightblue" d="M256.68,-143.56C238.31,-145.48 219.5,-147.92 204.04,-150.45"/>
<polygon fill="midnightblue" stroke="midnightblue" points="257.21,-147.02 266.81,-142.54 256.51,-140.06 257.21,-147.02"/>
</g>
<!-- Node10&#45;&gt;Node9 -->
<g id="edge13" class="edge">
<title>Node10&#45;&gt;Node9</title>
<path fill="none" stroke="midnightblue" d="M241.03,-158.73C260.34,-156.76 280.36,-154.19 296.64,-151.52"/>
<polygon fill="midnightblue" stroke="midnightblue" points="240.63,-155.25 231.02,-159.71 241.31,-162.22 240.63,-155.25"/>
</g>
<!-- Node11&#45;&gt;Node8 -->
<g id="edge15" class="edge">
<title>Node11&#45;&gt;Node8</title>
<path fill="none" stroke="midnightblue" d="M364.85,-116.57C385.57,-122.54 413.43,-129.28 438.47,-134.5"/>
<polygon fill="midnightblue" stroke="midnightblue" points="365.59,-113.14 355,-113.62 363.58,-119.84 365.59,-113.14"/>
</g>
<!-- Node12 -->
<g id="node12" class="node">
<title>Node12</title>
<g id="a_node12"><a xlink:href="classMenu.html#a788512183de460d13b8a2dfb571c03f2" target="_top" xlink:title=" ">
<polygon fill="none" stroke="black" points="107.5,-94.5 107.5,-113.5 228.5,-113.5 228.5,-94.5 107.5,-94.5"/>
<text text-anchor="middle" x="168" y="-101.5" font-family="Helvetica,sans-Serif" font-size="10.00">Menu::showStatusMenu</text>
</a>
</g>
</g>
<!-- Node11&#45;&gt;Node12 -->
<g id="edge16" class="edge">
<title>Node11&#45;&gt;Node12</title>
<path fill="none" stroke="midnightblue" d="M261.85,-97.31C250.77,-97.19 239.4,-97.25 228.58,-97.47"/>
<polygon fill="midnightblue" stroke="midnightblue" points="261.86,-100.81 271.91,-97.47 261.97,-93.81 261.86,-100.81"/>
</g>
<!-- Node11&#45;&gt;Node13 -->
<g id="edge19" class="edge">
<title>Node11&#45;&gt;Node13</title>
<path fill="none" stroke="midnightblue" d="M302.74,-91.27C280.61,-84.1 249.4,-75.67 222.69,-69.49"/>
<polygon fill="midnightblue" stroke="midnightblue" points="301.63,-94.59 312.22,-94.46 303.86,-87.95 301.63,-94.59"/>
</g>
<!-- Node12&#45;&gt;Node11 -->
<g id="edge17" class="edge">
<title>Node12&#45;&gt;Node11</title>
<path fill="none" stroke="midnightblue" d="M238.65,-110.69C249.72,-110.81 261.09,-110.75 271.91,-110.53"/>
<polygon fill="midnightblue" stroke="midnightblue" points="238.63,-107.19 228.58,-110.53 238.52,-114.19 238.63,-107.19"/>
</g>
<!-- Node12&#45;&gt;Node12 -->
<g id="edge18" class="edge">
<title>Node12&#45;&gt;Node12</title>
<path fill="none" stroke="midnightblue" d="M192.55,-123.03C191.21,-128.13 183.03,-132 168,-132 144.54,-132 137.76,-122.57 147.65,-113.76"/>
<polygon fill="midnightblue" stroke="midnightblue" points="195.67,-121.42 188.35,-113.76 189.29,-124.31 195.67,-121.42"/>
</g>
<!-- Node13&#45;&gt;Node7 -->
<g id="edge21" class="edge">
<title>Node13&#45;&gt;Node7</title>
<path fill="none" stroke="midnightblue" d="M232.79,-72.15C329.22,-83.15 510.7,-98.57 603.56,-103.6"/>
<polygon fill="midnightblue" stroke="midnightblue" points="232.93,-68.65 222.6,-70.97 232.13,-75.6 232.93,-68.65"/>
</g>
<!-- Node13&#45;&gt;Node11 -->
<g id="edge22" class="edge">
<title>Node13&#45;&gt;Node11</title>
<path fill="none" stroke="midnightblue" d="M197.87,-74.76C218.38,-81.4 246.65,-89.12 271.91,-95.13"/>
<polygon fill="midnightblue" stroke="midnightblue" points="198.78,-71.38 188.19,-71.5 196.55,-78.01 198.78,-71.38"/>
</g>
<!-- Node14 -->
<g id="node14" class="node">
<title>Node14</title>
<g id="a_node14"><a xlink:href="classMenu.html#a323509e5b6f4dc00536e87efd65b8b94" target="_top" xlink:title=" ">
<polygon fill="none" stroke="black" points="0,-52.5 0,-71.5 69,-71.5 69,-52.5 0,-52.5"/>
<text text-anchor="middle" x="34.5" y="-59.5" font-family="Helvetica,sans-Serif" font-size="10.00">Menu::Menu</text>
</a>
</g>
</g>
<!-- Node13&#45;&gt;Node14 -->
<g id="edge20" class="edge">
<title>Node13&#45;&gt;Node14</title>
<path fill="none" stroke="midnightblue" d="M102.92,-62C91.23,-62 79.47,-62 69.12,-62"/>
<polygon fill="midnightblue" stroke="midnightblue" points="103.13,-65.5 113.13,-62 103.13,-58.5 103.13,-65.5"/>
</g>
<!-- Node15&#45;&gt;Node7 -->
<g id="edge26" class="edge">
<title>Node15&#45;&gt;Node7</title>
<path fill="none" stroke="midnightblue" d="M522.93,-23.59C536.25,-29.03 553.64,-35.24 568,-43 596,-58.14 624.83,-81.04 642.93,-94.41"/>
<polygon fill="midnightblue" stroke="midnightblue" points="524.21,-20.33 513.65,-19.56 521.43,-26.75 524.21,-20.33"/>
</g>
<!-- Node17 -->
<g id="node17" class="node">
<title>Node17</title>
<g id="a_node17"><a xlink:href="classBuyer.html#acb2c5fc961cbb7e90089fd64e8e71fc0" target="_top" xlink:title="Wrapper to ShoppingCart::getItemOrder()">
<polygon fill="none" stroke="black" points="903,-118.5 903,-137.5 1006,-137.5 1006,-118.5 903,-118.5"/>
<text text-anchor="middle" x="954.5" y="-125.5" font-family="Helvetica,sans-Serif" font-size="10.00">Buyer::getItemOrder</text>
</a>
</g>
</g>
<!-- Node16&#45;&gt;Node17 -->
<g id="edge32" class="edge">
<title>Node16&#45;&gt;Node17</title>
<path fill="none" stroke="midnightblue" d="M1032.74,-128C1023.67,-128 1014.59,-128 1006.02,-128"/>
<polygon fill="midnightblue" stroke="midnightblue" points="1032.97,-131.5 1042.97,-128 1032.97,-124.5 1032.97,-131.5"/>
</g>
<!-- Node17&#45;&gt;Node6 -->
<g id="edge33" class="edge">
<title>Node17&#45;&gt;Node6</title>
<path fill="none" stroke="midnightblue" d="M892.67,-121.94C884.28,-121.1 875.71,-120.25 867.45,-119.43"/>
<polygon fill="midnightblue" stroke="midnightblue" points="892.48,-125.44 902.78,-122.95 893.17,-118.47 892.48,-125.44"/>
</g>
</g>
</svg>
        <g id="navigator" transform="translate(0 0)" fill="#404254">
                <rect fill="#f2f5e9" fill-opacity="0.5" stroke="#606060" stroke-width=".5" x="0" y="0" width="60" height="60"/>
                <use id="zoomplus" xlink:href="#zoomPlus" x="17" y="9" onmousedown="handleZoom(evt,'in')"/>
                <use id="zoomminus" xlink:href="#zoomMin" x="42" y="9" onmousedown="handleZoom(evt,'out')"/>
                <use id="reset" xlink:href="#resetDef" x="30" y="36" onmousedown="handleReset()"/>
                <g id="arrowUp" xlink:href="#dirArrow" transform="translate(30 24)" onmousedown="handlePan(0,-1)">
                  <use xlink:href="#rim" fill="#404040">
                        <set attributeName="fill" to="#808080" begin="arrowUp.mouseover" end="arrowUp.mouseout"/>
                  </use>
                  <path fill="none" stroke="white" stroke-width="1.5" d="M0,-3.0v7 M-2.5,-0.5L0,-3.0L2.5,-0.5"/>
                </g>
                <g id="arrowRight" xlink:href="#dirArrow" transform="rotate(90) translate(36 -43)" onmousedown="handlePan(1,0)">
                  <use xlink:href="#rim" fill="#404040">
                        <set attributeName="fill" to="#808080" begin="arrowRight.mouseover" end="arrowRight.mouseout"/>
                  </use>
                  <path fill="none" stroke="white" stroke-width="1.5" d="M0,-3.0v7 M-2.5,-0.5L0,-3.0L2.5,-0.5"/>
                </g>
                <g id="arrowDown" xlink:href="#dirArrow" transform="rotate(180) translate(-30 -48)" onmousedown="handlePan(0,1)">
                  <use xlink:href="#rim" fill="#404040">
                        <set attributeName="fill" to="#808080" begin="arrowDown.mouseover" end="arrowDown.mouseout"/>
                  </use>
                  <path fill="none" stroke="white" stroke-width="1.5" d="M0,-3.0v7 M-2.5,-0.5L0,-3.0L2.5,-0.5"/>
                </g>
                <g id="arrowLeft" xlink:href="#dirArrow" transform="rotate(270) translate(-36 17)" onmousedown="handlePan(-1,0)">
                  <use xlink:href="#rim" fill="#404040">
                        <set attributeName="fill" to="#808080" begin="arrowLeft.mouseover" end="arrowLeft.mouseout"/>
                  </use>
                  <path fill="none" stroke="white" stroke-width="1.5" d="M0,-3.0v7 M-2.5,-0.5L0,-3.0L2.5,-0.5"/>
                </g>
        </g>
        <svg viewBox="0 0 15 15" width="100%" height="30px" preserveAspectRatio="xMaxYMin meet">
         <g id="arrow_out" transform="scale(0.3 0.3)">
          <a xlink:href="classItem_a63d7f2148b699e539aae354b01559811_icgraph_org.svg" target="_base">
           <rect id="button" ry="5" rx="5" y="6" x="6" height="38" width="38"
                fill="#f2f5e9" fill-opacity="0.5" stroke="#606060" stroke-width="1.0"/>
           <path id="arrow"
             d="M 11.500037,31.436501 C 11.940474,20.09759 22.043105,11.32322 32.158766,21.979434 L 37.068811,17.246167 C 37.068811,17.246167 37.088388,32 37.088388,32 L 22.160133,31.978069 C 22.160133,31.978069 26.997745,27.140456 26.997745,27.140456 C 18.528582,18.264221 13.291696,25.230495 11.500037,31.436501 z"
             style="fill:#404040;"/>
          </a>
         </g>
        </svg>
</svg>
