<?xml version="1.0" encoding="UTF-8" standalone="no"?>
<!DOCTYPE svg PUBLIC "-//W3C//DTD SVG 1.1//EN"
 "http://www.w3.org/Graphics/SVG/1.1/DTD/svg11.dtd">
<!-- Generated by graphviz version 2.49.3 (20211027.1534)
 -->
<!-- Title: EShop::updateItemStock Pages: 1 -->
<svg width="1259pt" height="159pt"
 viewBox="0.00 0.00 1259.00 159.00" xmlns="http://www.w3.org/2000/svg" xmlns:xlink="http://www.w3.org/1999/xlink">
<g id="graph0" class="graph" transform="scale(1 1) rotate(0) translate(4 155)">
<title>EShop::updateItemStock</title>
<!-- Node1 -->
<g id="node1" class="node">
<title>Node1</title>
<g id="a_node1"><a xlink:title="Update an Item&#39;s stock.">
<polygon fill="#bfbfbf" stroke="black" points="1127,-89.5 1127,-108.5 1251,-108.5 1251,-89.5 1127,-89.5"/>
<text text-anchor="middle" x="1189" y="-96.5" font-family="Helvetica,sans-Serif" font-size="10.00">EShop::updateItemStock</text>
</a>
</g>
</g>
<!-- Node2 -->
<g id="node2" class="node">
<title>Node2</title>
<g id="a_node2"><a xlink:href="classMenu.html#a957fada7140f67c43e3ee253ae863125" target="_top" xlink:title=" ">
<polygon fill="none" stroke="black" points="965,-89.5 965,-108.5 1091,-108.5 1091,-89.5 965,-89.5"/>
<text text-anchor="middle" x="1028" y="-96.5" font-family="Helvetica,sans-Serif" font-size="10.00">Menu::showProductMenu</text>
</a>
</g>
</g>
<!-- Node1&#45;&gt;Node2 -->
<g id="edge1" class="edge">
<title>Node1&#45;&gt;Node2</title>
<path fill="none" stroke="midnightblue" d="M1116.97,-99C1108.37,-99 1099.63,-99 1091.17,-99"/>
<polygon fill="midnightblue" stroke="midnightblue" points="1116.98,-102.5 1126.98,-99 1116.98,-95.5 1116.98,-102.5"/>
</g>
<!-- Node3 -->
<g id="node3" class="node">
<title>Node3</title>
<g id="a_node3"><a xlink:href="classMenu.html#a8bdf4110581d8d8a82f6290f246201e7" target="_top" xlink:title=" ">
<polygon fill="none" stroke="black" points="798,-89.5 798,-108.5 929,-108.5 929,-89.5 798,-89.5"/>
<text text-anchor="middle" x="863.5" y="-96.5" font-family="Helvetica,sans-Serif" font-size="10.00">Menu::showCategoryMenu</text>
</a>
</g>
</g>
<!-- Node2&#45;&gt;Node3 -->
<g id="edge2" class="edge">
<title>Node2&#45;&gt;Node3</title>
<path fill="none" stroke="midnightblue" d="M954.44,-92.28C946,-92.22 937.44,-92.25 929.12,-92.38"/>
<polygon fill="midnightblue" stroke="midnightblue" points="954.59,-95.79 964.64,-92.41 954.68,-88.79 954.59,-95.79"/>
</g>
<!-- Node3&#45;&gt;Node2 -->
<g id="edge24" class="edge">
<title>Node3&#45;&gt;Node2</title>
<path fill="none" stroke="midnightblue" d="M939.36,-105.73C947.82,-105.78 956.37,-105.73 964.64,-105.59"/>
<polygon fill="midnightblue" stroke="midnightblue" points="939.15,-102.23 929.12,-105.62 939.08,-109.23 939.15,-102.23"/>
</g>
<!-- Node4 -->
<g id="node4" class="node">
<title>Node4</title>
<g id="a_node4"><a xlink:href="classMenu.html#a1de78dc75d7de7db8bce09a70dbbf77f" target="_top" xlink:title=" ">
<polygon fill="none" stroke="black" points="637,-89.5 637,-108.5 762,-108.5 762,-89.5 637,-89.5"/>
<text text-anchor="middle" x="699.5" y="-96.5" font-family="Helvetica,sans-Serif" font-size="10.00">Menu::showBrowseMenu</text>
</a>
</g>
</g>
<!-- Node3&#45;&gt;Node4 -->
<g id="edge3" class="edge">
<title>Node3&#45;&gt;Node4</title>
<path fill="none" stroke="midnightblue" d="M787.3,-92.27C778.84,-92.22 770.31,-92.27 762.05,-92.43"/>
<polygon fill="midnightblue" stroke="midnightblue" points="787.51,-95.77 797.54,-92.37 787.58,-88.77 787.51,-95.77"/>
</g>
<!-- Node4&#45;&gt;Node3 -->
<g id="edge22" class="edge">
<title>Node4&#45;&gt;Node3</title>
<path fill="none" stroke="midnightblue" d="M772.24,-105.71C780.66,-105.78 789.22,-105.76 797.54,-105.63"/>
<polygon fill="midnightblue" stroke="midnightblue" points="772.1,-102.21 762.05,-105.57 772.01,-109.21 772.1,-102.21"/>
</g>
<!-- Node5 -->
<g id="node5" class="node">
<title>Node5</title>
<g id="a_node5"><a xlink:href="classMenu.html#a2ecf65abb196d80c5a5c354155019a93" target="_top" xlink:title=" ">
<polygon fill="none" stroke="black" points="170,-94.5 170,-113.5 287,-113.5 287,-94.5 170,-94.5"/>
<text text-anchor="middle" x="228.5" y="-101.5" font-family="Helvetica,sans-Serif" font-size="10.00">Menu::showBuyerMenu</text>
</a>
</g>
</g>
<!-- Node4&#45;&gt;Node5 -->
<g id="edge4" class="edge">
<title>Node4&#45;&gt;Node5</title>
<path fill="none" stroke="midnightblue" d="M626.55,-94.32C575.59,-94.75 505.61,-97.03 444,-98 390.23,-98.84 376.77,-98.86 323,-98 311.47,-97.82 299.14,-97.5 287.35,-97.34"/>
<polygon fill="midnightblue" stroke="midnightblue" points="626.82,-97.82 636.8,-94.26 626.78,-90.82 626.82,-97.82"/>
</g>
<!-- Node8 -->
<g id="node8" class="node">
<title>Node8</title>
<g id="a_node8"><a xlink:href="classMenu.html#a6a602f7f37917ae9582719a89246b73b" target="_top" xlink:title=" ">
<polygon fill="none" stroke="black" points="480,-38.5 480,-57.5 601,-57.5 601,-38.5 480,-38.5"/>
<text text-anchor="middle" x="540.5" y="-45.5" font-family="Helvetica,sans-Serif" font-size="10.00">Menu::showOwnerMenu</text>
</a>
</g>
</g>
<!-- Node4&#45;&gt;Node8 -->
<g id="edge23" class="edge">
<title>Node4&#45;&gt;Node8</title>
<path fill="none" stroke="midnightblue" d="M672.84,-85.52C650.51,-76.63 617.54,-65.54 590.22,-57.53"/>
<polygon fill="midnightblue" stroke="midnightblue" points="671.71,-88.84 682.29,-89.43 674.39,-82.37 671.71,-88.84"/>
</g>
<!-- Node5&#45;&gt;Node4 -->
<g id="edge5" class="edge">
<title>Node5&#45;&gt;Node4</title>
<path fill="none" stroke="midnightblue" d="M275.21,-114.29C290.41,-115.27 307.43,-115.75 323,-116 376.77,-116.86 390.23,-116.84 444,-116 511.07,-114.95 588.06,-112.33 639.63,-108.5"/>
<polygon fill="midnightblue" stroke="midnightblue" points="275.25,-110.78 265.01,-113.53 274.72,-117.76 275.25,-110.78"/>
</g>
<!-- Node5&#45;&gt;Node5 -->
<g id="edge6" class="edge">
<title>Node5&#45;&gt;Node5</title>
<path fill="none" stroke="midnightblue" d="M257.25,-122.65C256.04,-127.94 246.46,-132 228.5,-132 201.13,-132 193.22,-122.57 204.76,-113.76"/>
<polygon fill="midnightblue" stroke="midnightblue" points="260.19,-120.75 252.24,-113.76 254.09,-124.19 260.19,-120.75"/>
</g>
<!-- Node6 -->
<g id="node6" class="node">
<title>Node6</title>
<g id="a_node6"><a xlink:href="classMenu.html#a781c392fdcd203e436f5dc6e78f057a8" target="_top" xlink:title=" ">
<polygon fill="none" stroke="black" points="12,-113.5 12,-132.5 122,-132.5 122,-113.5 12,-113.5"/>
<text text-anchor="middle" x="67" y="-120.5" font-family="Helvetica,sans-Serif" font-size="10.00">Menu::showCartMenu</text>
</a>
</g>
</g>
<!-- Node5&#45;&gt;Node6 -->
<g id="edge7" class="edge">
<title>Node5&#45;&gt;Node6</title>
<path fill="none" stroke="midnightblue" d="M159.71,-105.39C139.35,-107.59 117.92,-110.5 100.9,-113.5"/>
<polygon fill="midnightblue" stroke="midnightblue" points="160.33,-108.85 169.92,-104.35 159.61,-101.88 160.33,-108.85"/>
</g>
<!-- Node7 -->
<g id="node7" class="node">
<title>Node7</title>
<g id="a_node7"><a xlink:href="classMenu.html#a3905222cc1c1ec7ed2dce13e16555c52" target="_top" xlink:title=" ">
<polygon fill="none" stroke="black" points="0,-75.5 0,-94.5 134,-94.5 134,-75.5 0,-75.5"/>
<text text-anchor="middle" x="67" y="-82.5" font-family="Helvetica,sans-Serif" font-size="10.00">Menu::showCheckoutMenu</text>
</a>
</g>
</g>
<!-- Node5&#45;&gt;Node7 -->
<g id="edge10" class="edge">
<title>Node5&#45;&gt;Node7</title>
<path fill="none" stroke="midnightblue" d="M184.2,-92.76C168.81,-90.32 151.11,-88.02 134.24,-86.23"/>
<polygon fill="midnightblue" stroke="midnightblue" points="184.01,-96.28 194.45,-94.47 185.16,-89.37 184.01,-96.28"/>
</g>
<!-- Node5&#45;&gt;Node8 -->
<g id="edge12" class="edge">
<title>Node5&#45;&gt;Node8</title>
<path fill="none" stroke="midnightblue" d="M297.35,-102.85C339.93,-100.94 395.73,-96.25 444,-85 471.01,-78.7 500.57,-66.34 519.53,-57.64"/>
<polygon fill="midnightblue" stroke="midnightblue" points="296.94,-99.37 287.09,-103.27 297.23,-106.36 296.94,-99.37"/>
</g>
<!-- Node10 -->
<g id="node10" class="node">
<title>Node10</title>
<g id="a_node10"><a xlink:href="classMenu.html#aaef7622e532f3424a27fce4d16dbda47" target="_top" xlink:title=" ">
<polygon fill="none" stroke="black" points="329,-0.5 329,-19.5 438,-19.5 438,-0.5 329,-0.5"/>
<text text-anchor="middle" x="383.5" y="-7.5" font-family="Helvetica,sans-Serif" font-size="10.00">Menu::showWelcome</text>
</a>
</g>
</g>
<!-- Node5&#45;&gt;Node10 -->
<g id="edge21" class="edge">
<title>Node5&#45;&gt;Node10</title>
<path fill="none" stroke="midnightblue" d="M254.18,-87.52C272.06,-72.68 297.47,-51.7 323,-38 338.1,-29.9 357.22,-24.56 369.65,-19.54"/>
<polygon fill="midnightblue" stroke="midnightblue" points="251.52,-85.19 246.05,-94.26 255.98,-90.58 251.52,-85.19"/>
</g>
<!-- Node6&#45;&gt;Node5 -->
<g id="edge8" class="edge">
<title>Node6&#45;&gt;Node5</title>
<path fill="none" stroke="midnightblue" d="M132.06,-122C153.45,-119.78 176.41,-116.7 194.45,-113.53"/>
<polygon fill="midnightblue" stroke="midnightblue" points="131.65,-118.53 122.04,-122.99 132.33,-125.49 131.65,-118.53"/>
</g>
<!-- Node6&#45;&gt;Node6 -->
<g id="edge9" class="edge">
<title>Node6&#45;&gt;Node6</title>
<path fill="none" stroke="midnightblue" d="M96.94,-141.27C96.09,-146.74 86.11,-151 67,-151 38.56,-151 30.34,-141.57 42.34,-132.76"/>
<polygon fill="midnightblue" stroke="midnightblue" points="99.9,-139.41 91.66,-132.76 93.95,-143.1 99.9,-139.41"/>
</g>
<!-- Node7&#45;&gt;Node5 -->
<g id="edge11" class="edge">
<title>Node7&#45;&gt;Node5</title>
<path fill="none" stroke="midnightblue" d="M110.89,-96.17C129.03,-99.06 150.43,-101.76 169.92,-103.65"/>
<polygon fill="midnightblue" stroke="midnightblue" points="111.34,-92.7 100.9,-94.5 110.19,-99.6 111.34,-92.7"/>
</g>
<!-- Node8&#45;&gt;Node4 -->
<g id="edge13" class="edge">
<title>Node8&#45;&gt;Node4</title>
<path fill="none" stroke="midnightblue" d="M567.12,-61.46C589.42,-70.35 622.36,-81.43 649.68,-89.44"/>
<polygon fill="midnightblue" stroke="midnightblue" points="568.25,-58.15 557.68,-57.56 565.58,-64.62 568.25,-58.15"/>
</g>
<!-- Node9 -->
<g id="node9" class="node">
<title>Node9</title>
<g id="a_node9"><a xlink:href="classMenu.html#a788512183de460d13b8a2dfb571c03f2" target="_top" xlink:title=" ">
<polygon fill="none" stroke="black" points="323,-38.5 323,-57.5 444,-57.5 444,-38.5 323,-38.5"/>
<text text-anchor="middle" x="383.5" y="-45.5" font-family="Helvetica,sans-Serif" font-size="10.00">Menu::showStatusMenu</text>
</a>
</g>
</g>
<!-- Node8&#45;&gt;Node9 -->
<g id="edge14" class="edge">
<title>Node8&#45;&gt;Node9</title>
<path fill="none" stroke="midnightblue" d="M469.34,-41.28C460.88,-41.21 452.3,-41.26 444.01,-41.41"/>
<polygon fill="midnightblue" stroke="midnightblue" points="469.53,-44.78 479.57,-41.41 469.62,-37.78 469.53,-44.78"/>
</g>
<!-- Node8&#45;&gt;Node10 -->
<g id="edge17" class="edge">
<title>Node8&#45;&gt;Node10</title>
<path fill="none" stroke="midnightblue" d="M509.93,-35.31C489.63,-29.05 462.1,-21.96 438.01,-16.66"/>
<polygon fill="midnightblue" stroke="midnightblue" points="508.96,-38.68 519.55,-38.41 511.11,-32.01 508.96,-38.68"/>
</g>
<!-- Node9&#45;&gt;Node8 -->
<g id="edge15" class="edge">
<title>Node9&#45;&gt;Node8</title>
<path fill="none" stroke="midnightblue" d="M454.24,-54.72C462.69,-54.79 471.28,-54.74 479.57,-54.59"/>
<polygon fill="midnightblue" stroke="midnightblue" points="454.06,-51.22 444.01,-54.59 453.97,-58.22 454.06,-51.22"/>
</g>
<!-- Node9&#45;&gt;Node9 -->
<g id="edge16" class="edge">
<title>Node9&#45;&gt;Node9</title>
<path fill="none" stroke="midnightblue" d="M412.25,-66.65C411.04,-71.94 401.46,-76 383.5,-76 356.13,-76 348.22,-66.57 359.76,-57.76"/>
<polygon fill="midnightblue" stroke="midnightblue" points="415.19,-64.75 407.24,-57.76 409.09,-68.19 415.19,-64.75"/>
</g>
<!-- Node10&#45;&gt;Node5 -->
<g id="edge19" class="edge">
<title>Node10&#45;&gt;Node5</title>
<path fill="none" stroke="midnightblue" d="M319.83,-22.12C280.28,-45.14 247.13,-77.41 234.68,-94.28"/>
<polygon fill="midnightblue" stroke="midnightblue" points="321.87,-24.98 328.9,-17.06 318.47,-18.87 321.87,-24.98"/>
</g>
<!-- Node10&#45;&gt;Node8 -->
<g id="edge20" class="edge">
<title>Node10&#45;&gt;Node8</title>
<path fill="none" stroke="midnightblue" d="M414.14,-22.71C432.65,-28.42 457.15,-34.81 479.57,-39.9"/>
<polygon fill="midnightblue" stroke="midnightblue" points="415.11,-19.35 404.52,-19.62 412.97,-26.01 415.11,-19.35"/>
</g>
<!-- Node11 -->
<g id="node11" class="node">
<title>Node11</title>
<g id="a_node11"><a xlink:href="classMenu.html#a323509e5b6f4dc00536e87efd65b8b94" target="_top" xlink:title=" ">
<polygon fill="none" stroke="black" points="194,-0.5 194,-19.5 263,-19.5 263,-0.5 194,-0.5"/>
<text text-anchor="middle" x="228.5" y="-7.5" font-family="Helvetica,sans-Serif" font-size="10.00">Menu::Menu</text>
</a>
</g>
</g>
<!-- Node10&#45;&gt;Node11 -->
<g id="edge18" class="edge">
<title>Node10&#45;&gt;Node11</title>
<path fill="none" stroke="midnightblue" d="M318.82,-10C299.71,-10 279.51,-10 263.15,-10"/>
<polygon fill="midnightblue" stroke="midnightblue" points="318.99,-13.5 328.99,-10 318.99,-6.5 318.99,-13.5"/>
</g>
</g>
</svg>
