<?xml version="1.0" encoding="UTF-8" standalone="no"?>
<!DOCTYPE svg PUBLIC "-//W3C//DTD SVG 1.1//EN"
 "http://www.w3.org/Graphics/SVG/1.1/DTD/svg11.dtd">
<!-- Generated by graphviz version 2.49.3 (20211027.1534)
 -->
<!-- Title: Buyer::checkout Pages: 1 -->
<svg width="761pt" height="180pt"
 viewBox="0.00 0.00 761.00 180.00" xmlns="http://www.w3.org/2000/svg" xmlns:xlink="http://www.w3.org/1999/xlink">
<g id="graph0" class="graph" transform="scale(1 1) rotate(0) translate(4 176)">
<title>Buyer::checkout</title>
<!-- Node1 -->
<g id="node1" class="node">
<title>Node1</title>
<g id="a_node1"><a xlink:title="Wrapper to ShoppingCart::checkout()">
<polygon fill="#bfbfbf" stroke="black" points="0,-76.5 0,-95.5 86,-95.5 86,-76.5 0,-76.5"/>
<text text-anchor="middle" x="43" y="-83.5" font-family="Helvetica,sans-Serif" font-size="10.00">Buyer::checkout</text>
</a>
</g>
</g>
<!-- Node2 -->
<g id="node2" class="node">
<title>Node2</title>
<g id="a_node2"><a xlink:href="classShoppingCart.html#a95a853a2501345049ecd166db1a54da0" target="_top" xlink:title="Performs the checkout.">
<polygon fill="none" stroke="black" points="122,-76.5 122,-95.5 241,-95.5 241,-76.5 122,-76.5"/>
<text text-anchor="middle" x="181.5" y="-83.5" font-family="Helvetica,sans-Serif" font-size="10.00">ShoppingCart::checkout</text>
</a>
</g>
</g>
<!-- Node1&#45;&gt;Node2 -->
<g id="edge1" class="edge">
<title>Node1&#45;&gt;Node2</title>
<path fill="none" stroke="midnightblue" d="M86.07,-86C94.18,-86 102.86,-86 111.57,-86"/>
<polygon fill="midnightblue" stroke="midnightblue" points="111.76,-89.5 121.76,-86 111.76,-82.5 111.76,-89.5"/>
</g>
<!-- Node3 -->
<g id="node3" class="node">
<title>Node3</title>
<g id="a_node3"><a xlink:href="classBuyer.html#a99e4efe4a01aae567b2f3bbd2a185c95" target="_top" xlink:title="Set the buyer&#39;s bonus based on the cost of the order.">
<polygon fill="none" stroke="black" points="287.5,-114.5 287.5,-133.5 387.5,-133.5 387.5,-114.5 287.5,-114.5"/>
<text text-anchor="middle" x="337.5" y="-121.5" font-family="Helvetica,sans-Serif" font-size="10.00">Buyer::awardBonus</text>
</a>
</g>
</g>
<!-- Node2&#45;&gt;Node3 -->
<g id="edge2" class="edge">
<title>Node2&#45;&gt;Node3</title>
<path fill="none" stroke="midnightblue" d="M221.36,-95.59C241.59,-100.58 266.52,-106.73 288,-112.03"/>
<polygon fill="midnightblue" stroke="midnightblue" points="287.37,-115.48 297.92,-114.48 289.05,-108.69 287.37,-115.48"/>
</g>
<!-- Node6 -->
<g id="node6" class="node">
<title>Node6</title>
<g id="a_node6"><a xlink:href="classShoppingCart.html#aefd629209efffec246165e50efaf40d3" target="_top" xlink:title="Calculates the cost of the order.">
<polygon fill="none" stroke="black" points="619,-38.5 619,-57.5 753,-57.5 753,-38.5 619,-38.5"/>
<text text-anchor="middle" x="686" y="-45.5" font-family="Helvetica,sans-Serif" font-size="10.00">ShoppingCart::calculateNet</text>
</a>
</g>
</g>
<!-- Node2&#45;&gt;Node6 -->
<g id="edge5" class="edge">
<title>Node2&#45;&gt;Node6</title>
<path fill="none" stroke="midnightblue" d="M241.31,-83.89C319.49,-80.75 461.86,-73.93 583,-62 592.08,-61.11 601.59,-60.01 611.01,-58.83"/>
<polygon fill="midnightblue" stroke="midnightblue" points="611.68,-62.28 621.16,-57.53 610.79,-55.33 611.68,-62.28"/>
</g>
<!-- Node7 -->
<g id="node7" class="node">
<title>Node7</title>
<g id="a_node7"><a xlink:href="classShoppingCart.html#ac63018317b6a7619a80ecbf1d71e2083" target="_top" xlink:title="Show the contents of the cart.">
<polygon fill="none" stroke="black" points="277,-38.5 277,-57.5 398,-57.5 398,-38.5 277,-38.5"/>
<text text-anchor="middle" x="337.5" y="-45.5" font-family="Helvetica,sans-Serif" font-size="10.00">ShoppingCart::showCart</text>
</a>
</g>
</g>
<!-- Node2&#45;&gt;Node7 -->
<g id="edge6" class="edge">
<title>Node2&#45;&gt;Node7</title>
<path fill="none" stroke="midnightblue" d="M221.36,-76.41C241.59,-71.42 266.52,-65.27 288,-59.97"/>
<polygon fill="midnightblue" stroke="midnightblue" points="289.05,-63.31 297.92,-57.52 287.37,-56.52 289.05,-63.31"/>
</g>
<!-- Node4 -->
<g id="node4" class="node">
<title>Node4</title>
<g id="a_node4"><a xlink:href="classBuyer.html#a12b8dad507986d3ecb0ffca73c5cab22" target="_top" xlink:title="Sets a buyer&#39;s bonus based on the cost.">
<polygon fill="none" stroke="black" points="465,-152.5 465,-171.5 552,-171.5 552,-152.5 465,-152.5"/>
<text text-anchor="middle" x="508.5" y="-159.5" font-family="Helvetica,sans-Serif" font-size="10.00">Buyer::setBonus</text>
</a>
</g>
</g>
<!-- Node3&#45;&gt;Node4 -->
<g id="edge3" class="edge">
<title>Node3&#45;&gt;Node4</title>
<path fill="none" stroke="midnightblue" d="M381.15,-133.59C403.65,-138.65 431.45,-144.9 455.24,-150.25"/>
<polygon fill="midnightblue" stroke="midnightblue" points="454.64,-153.7 465.16,-152.48 456.17,-146.87 454.64,-153.7"/>
</g>
<!-- Node5 -->
<g id="node5" class="node">
<title>Node5</title>
<g id="a_node5"><a xlink:href="classBuyer.html#a71abc791624d824d6a3da483ec342d5a" target="_top" xlink:title="Sets a buyer&#39;s category based on _bonus.">
<polygon fill="none" stroke="black" points="459.5,-114.5 459.5,-133.5 557.5,-133.5 557.5,-114.5 459.5,-114.5"/>
<text text-anchor="middle" x="508.5" y="-121.5" font-family="Helvetica,sans-Serif" font-size="10.00">Buyer::setCategory</text>
</a>
</g>
</g>
<!-- Node3&#45;&gt;Node5 -->
<g id="edge4" class="edge">
<title>Node3&#45;&gt;Node5</title>
<path fill="none" stroke="midnightblue" d="M387.84,-124C407,-124 429.1,-124 449.06,-124"/>
<polygon fill="midnightblue" stroke="midnightblue" points="449.27,-127.5 459.27,-124 449.27,-120.5 449.27,-127.5"/>
</g>
<!-- Node7&#45;&gt;Node6 -->
<g id="edge10" class="edge">
<title>Node7&#45;&gt;Node6</title>
<path fill="none" stroke="midnightblue" d="M398.07,-48C456.26,-48 545.09,-48 608.49,-48"/>
<polygon fill="midnightblue" stroke="midnightblue" points="608.83,-51.5 618.83,-48 608.83,-44.5 608.83,-51.5"/>
</g>
<!-- Node8 -->
<g id="node8" class="node">
<title>Node8</title>
<g id="a_node8"><a xlink:href="classShoppingCart.html#aed1f25cafeacfa931c9c2b0b0cd6c442" target="_top" xlink:title="Calculates the cost of the courier.">
<polygon fill="none" stroke="black" points="434,-0.5 434,-19.5 583,-19.5 583,-0.5 434,-0.5"/>
<text text-anchor="middle" x="508.5" y="-7.5" font-family="Helvetica,sans-Serif" font-size="10.00">ShoppingCart::calculateCourier</text>
</a>
</g>
</g>
<!-- Node7&#45;&gt;Node8 -->
<g id="edge7" class="edge">
<title>Node7&#45;&gt;Node8</title>
<path fill="none" stroke="midnightblue" d="M381.15,-38.41C403.65,-33.35 431.45,-27.1 455.24,-21.75"/>
<polygon fill="midnightblue" stroke="midnightblue" points="456.17,-25.13 465.16,-19.52 454.64,-18.3 456.17,-25.13"/>
</g>
<!-- Node8&#45;&gt;Node6 -->
<g id="edge8" class="edge">
<title>Node8&#45;&gt;Node6</title>
<path fill="none" stroke="midnightblue" d="M553.79,-19.59C577.26,-24.67 606.28,-30.96 631.06,-36.32"/>
<polygon fill="midnightblue" stroke="midnightblue" points="630.52,-39.78 641.03,-38.48 632,-32.94 630.52,-39.78"/>
</g>
<!-- Node9 -->
<g id="node9" class="node">
<title>Node9</title>
<g id="a_node9"><a xlink:href="classBuyer.html#a3a482baedbb2d8fc1fde5dee7a435102" target="_top" xlink:title="Get the Buyer&#39;s category.">
<polygon fill="none" stroke="black" points="637,-0.5 637,-19.5 735,-19.5 735,-0.5 637,-0.5"/>
<text text-anchor="middle" x="686" y="-7.5" font-family="Helvetica,sans-Serif" font-size="10.00">Buyer::getCategory</text>
</a>
</g>
</g>
<!-- Node8&#45;&gt;Node9 -->
<g id="edge9" class="edge">
<title>Node8&#45;&gt;Node9</title>
<path fill="none" stroke="midnightblue" d="M583.16,-10C597.59,-10 612.54,-10 626.39,-10"/>
<polygon fill="midnightblue" stroke="midnightblue" points="626.75,-13.5 636.75,-10 626.75,-6.5 626.75,-13.5"/>
</g>
</g>
</svg>
