<?xml version="1.0" encoding="UTF-8" standalone="no"?>
<!DOCTYPE svg PUBLIC "-//W3C//DTD SVG 1.1//EN"
 "http://www.w3.org/Graphics/SVG/1.1/DTD/svg11.dtd">
<!-- Generated by graphviz version 2.49.3 (20211027.1534)
 -->
<!-- Title: Pen::Pen Pages: 1 -->
<svg width="290pt" height="142pt"
 viewBox="0.00 0.00 290.00 142.00" xmlns="http://www.w3.org/2000/svg" xmlns:xlink="http://www.w3.org/1999/xlink">
<g id="graph0" class="graph" transform="scale(1 1) rotate(0) translate(4 138)">
<title>Pen::Pen</title>
<!-- Node1 -->
<g id="node1" class="node">
<title>Node1</title>
<g id="a_node1"><a xlink:title="Constructor for Pen.">
<polygon fill="#bfbfbf" stroke="black" points="0,-57.5 0,-76.5 56,-76.5 56,-57.5 0,-57.5"/>
<text text-anchor="middle" x="28" y="-64.5" font-family="Helvetica,sans-Serif" font-size="10.00">Pen::Pen</text>
</a>
</g>
</g>
<!-- Node2 -->
<g id="node2" class="node">
<title>Node2</title>
<g id="a_node2"><a xlink:href="classItem.html#af6517f0488c9be814f5c6de8bb2a8f1f" target="_top" xlink:title="Set the Item&#39;s category.">
<polygon fill="none" stroke="black" points="92,-114.5 92,-133.5 184,-133.5 184,-114.5 92,-114.5"/>
<text text-anchor="middle" x="138" y="-121.5" font-family="Helvetica,sans-Serif" font-size="10.00">Item::setCategory</text>
</a>
</g>
</g>
<!-- Node1&#45;&gt;Node2 -->
<g id="edge1" class="edge">
<title>Node1&#45;&gt;Node2</title>
<path fill="none" stroke="midnightblue" d="M43.43,-76.52C55.98,-84.6 74.81,-96.25 92,-105 95.55,-106.81 99.32,-108.6 103.1,-110.31"/>
<polygon fill="midnightblue" stroke="midnightblue" points="101.86,-113.58 112.42,-114.37 104.65,-107.17 101.86,-113.58"/>
</g>
<!-- Node3 -->
<g id="node3" class="node">
<title>Node3</title>
<g id="a_node3"><a xlink:href="classPen.html#a44bb8023f756f383a9dc466818091c93" target="_top" xlink:title="Set the color of the Pen.">
<polygon fill="none" stroke="black" points="101,-76.5 101,-95.5 175,-95.5 175,-76.5 101,-76.5"/>
<text text-anchor="middle" x="138" y="-83.5" font-family="Helvetica,sans-Serif" font-size="10.00">Pen::setColor</text>
</a>
</g>
</g>
<!-- Node1&#45;&gt;Node3 -->
<g id="edge2" class="edge">
<title>Node1&#45;&gt;Node3</title>
<path fill="none" stroke="midnightblue" d="M56.25,-71.79C66.69,-73.63 78.92,-75.78 90.65,-77.85"/>
<polygon fill="midnightblue" stroke="midnightblue" points="90.32,-81.34 100.77,-79.63 91.53,-74.45 90.32,-81.34"/>
</g>
<!-- Node4 -->
<g id="node4" class="node">
<title>Node4</title>
<g id="a_node4"><a xlink:href="classPen.html#ab06108cb3fcb49065cb3b49f6c00ffb8" target="_top" xlink:title="Override of Item::setID()">
<polygon fill="none" stroke="black" points="108,-38.5 108,-57.5 168,-57.5 168,-38.5 108,-38.5"/>
<text text-anchor="middle" x="138" y="-45.5" font-family="Helvetica,sans-Serif" font-size="10.00">Pen::setId</text>
</a>
</g>
</g>
<!-- Node1&#45;&gt;Node4 -->
<g id="edge3" class="edge">
<title>Node1&#45;&gt;Node4</title>
<path fill="none" stroke="midnightblue" d="M56.25,-62.21C68.8,-60 83.93,-57.34 97.68,-54.92"/>
<polygon fill="midnightblue" stroke="midnightblue" points="98.62,-58.31 107.86,-53.13 97.41,-51.41 98.62,-58.31"/>
</g>
<!-- Node6 -->
<g id="node6" class="node">
<title>Node6</title>
<g id="a_node6"><a xlink:href="classPen.html#adf2aba0bb1f1cb9b026e23f0f05279c0" target="_top" xlink:title="Set the tip size of the Pen.">
<polygon fill="none" stroke="black" points="96,-0.5 96,-19.5 180,-19.5 180,-0.5 96,-0.5"/>
<text text-anchor="middle" x="138" y="-7.5" font-family="Helvetica,sans-Serif" font-size="10.00">Pen::setTipSize</text>
</a>
</g>
</g>
<!-- Node1&#45;&gt;Node6 -->
<g id="edge5" class="edge">
<title>Node1&#45;&gt;Node6</title>
<path fill="none" stroke="midnightblue" d="M43.43,-57.48C55.98,-49.4 74.81,-37.75 92,-29 95.55,-27.19 99.32,-25.4 103.1,-23.69"/>
<polygon fill="midnightblue" stroke="midnightblue" points="104.65,-26.83 112.42,-19.63 101.86,-20.42 104.65,-26.83"/>
</g>
<!-- Node5 -->
<g id="node5" class="node">
<title>Node5</title>
<g id="a_node5"><a xlink:href="classItem.html#a92fda3b8072f8ad7bcc3e406785f9ad5" target="_top" xlink:title="Set the Item&#39;s ID.">
<polygon fill="none" stroke="black" points="220,-38.5 220,-57.5 282,-57.5 282,-38.5 220,-38.5"/>
<text text-anchor="middle" x="251" y="-45.5" font-family="Helvetica,sans-Serif" font-size="10.00">Item::setId</text>
</a>
</g>
</g>
<!-- Node4&#45;&gt;Node5 -->
<g id="edge4" class="edge">
<title>Node4&#45;&gt;Node5</title>
<path fill="none" stroke="midnightblue" d="M168.16,-48C180.86,-48 195.95,-48 209.69,-48"/>
<polygon fill="midnightblue" stroke="midnightblue" points="209.87,-51.5 219.87,-48 209.87,-44.5 209.87,-51.5"/>
</g>
</g>
</svg>
