<?xml version="1.0" encoding="UTF-8" standalone="no"?>
<!DOCTYPE svg PUBLIC "-//W3C//DTD SVG 1.1//EN"
 "http://www.w3.org/Graphics/SVG/1.1/DTD/svg11.dtd">
<!-- Generated by graphviz version 2.49.3 (20211027.1534)
 -->
<!-- Title: Buyer::awardBonus Pages: 1 -->
<svg width="242pt" height="66pt"
 viewBox="0.00 0.00 242.00 66.00" xmlns="http://www.w3.org/2000/svg" xmlns:xlink="http://www.w3.org/1999/xlink">
<g id="graph0" class="graph" transform="scale(1 1) rotate(0) translate(4 62)">
<title>Buyer::awardBonus</title>
<!-- Node1 -->
<g id="node1" class="node">
<title>Node1</title>
<g id="a_node1"><a xlink:title="Set the buyer&#39;s bonus based on the cost of the order.">
<polygon fill="#bfbfbf" stroke="black" points="0,-19.5 0,-38.5 100,-38.5 100,-19.5 0,-19.5"/>
<text text-anchor="middle" x="50" y="-26.5" font-family="Helvetica,sans-Serif" font-size="10.00">Buyer::awardBonus</text>
</a>
</g>
</g>
<!-- Node2 -->
<g id="node2" class="node">
<title>Node2</title>
<g id="a_node2"><a xlink:href="classBuyer.html#a12b8dad507986d3ecb0ffca73c5cab22" target="_top" xlink:title="Sets a buyer&#39;s bonus based on the cost.">
<polygon fill="none" stroke="black" points="141.5,-38.5 141.5,-57.5 228.5,-57.5 228.5,-38.5 141.5,-38.5"/>
<text text-anchor="middle" x="185" y="-45.5" font-family="Helvetica,sans-Serif" font-size="10.00">Buyer::setBonus</text>
</a>
</g>
</g>
<!-- Node1&#45;&gt;Node2 -->
<g id="edge1" class="edge">
<title>Node1&#45;&gt;Node2</title>
<path fill="none" stroke="midnightblue" d="M100.15,-36.02C110.25,-37.46 120.92,-38.99 131.15,-40.45"/>
<polygon fill="midnightblue" stroke="midnightblue" points="130.79,-43.93 141.18,-41.88 131.78,-37 130.79,-43.93"/>
</g>
<!-- Node3 -->
<g id="node3" class="node">
<title>Node3</title>
<g id="a_node3"><a xlink:href="classBuyer.html#a71abc791624d824d6a3da483ec342d5a" target="_top" xlink:title="Sets a buyer&#39;s category based on _bonus.">
<polygon fill="none" stroke="black" points="136,-0.5 136,-19.5 234,-19.5 234,-0.5 136,-0.5"/>
<text text-anchor="middle" x="185" y="-7.5" font-family="Helvetica,sans-Serif" font-size="10.00">Buyer::setCategory</text>
</a>
</g>
</g>
<!-- Node1&#45;&gt;Node3 -->
<g id="edge2" class="edge">
<title>Node1&#45;&gt;Node3</title>
<path fill="none" stroke="midnightblue" d="M100.15,-21.98C108.55,-20.78 117.35,-19.52 125.96,-18.29"/>
<polygon fill="midnightblue" stroke="midnightblue" points="126.54,-21.74 135.94,-16.87 125.55,-14.81 126.54,-21.74"/>
</g>
</g>
</svg>
