<?xml version="1.0" encoding="UTF-8" standalone="no"?>
<!DOCTYPE svg PUBLIC "-//W3C//DTD SVG 1.1//EN"
 "http://www.w3.org/Graphics/SVG/1.1/DTD/svg11.dtd">
<!-- Generated by graphviz version 2.49.3 (20211027.1534)
 -->
<!-- Title: ShoppingCart::addItemOrder Pages: 1 -->
<svg width="681pt" height="129pt"
 viewBox="0.00 0.00 681.00 128.95" xmlns="http://www.w3.org/2000/svg" xmlns:xlink="http://www.w3.org/1999/xlink">
<g id="graph0" class="graph" transform="scale(1 1) rotate(0) translate(4 124.95)">
<title>ShoppingCart::addItemOrder</title>
<!-- Node1 -->
<g id="node1" class="node">
<title>Node1</title>
<g id="a_node1"><a xlink:title="Add quantity of an Item to the cart.">
<polygon fill="#bfbfbf" stroke="black" points="0,-57.5 0,-76.5 139,-76.5 139,-57.5 0,-57.5"/>
<text text-anchor="middle" x="69.5" y="-64.5" font-family="Helvetica,sans-Serif" font-size="10.00">ShoppingCart::addItemOrder</text>
</a>
</g>
</g>
<!-- Node2 -->
<g id="node2" class="node">
<title>Node2</title>
<g id="a_node2"><a xlink:href="classShoppingCart.html#a211bfa95c5d4346f6405e93b9f4a1990" target="_top" xlink:title="Changes the quantity of an item in the cart.">
<polygon fill="none" stroke="black" points="175,-76.5 175,-95.5 366,-95.5 366,-76.5 175,-76.5"/>
<text text-anchor="middle" x="270.5" y="-83.5" font-family="Helvetica,sans-Serif" font-size="10.00">ShoppingCart::changeItemOrderQuantity</text>
</a>
</g>
</g>
<!-- Node1&#45;&gt;Node2 -->
<g id="edge1" class="edge">
<title>Node1&#45;&gt;Node2</title>
<path fill="none" stroke="midnightblue" d="M139.26,-73.57C147.5,-74.35 156.05,-75.17 164.65,-75.99"/>
<polygon fill="midnightblue" stroke="midnightblue" points="164.47,-79.49 174.75,-76.95 165.13,-72.52 164.47,-79.49"/>
</g>
<!-- Node4 -->
<g id="node4" class="node">
<title>Node4</title>
<g id="a_node4"><a xlink:href="classItem.html#adb47826cabe2aae97ad65a57cd04f963" target="_top" xlink:title="Get the Item&#39;s stock.">
<polygon fill="none" stroke="black" points="593,-95.5 593,-114.5 673,-114.5 673,-95.5 593,-95.5"/>
<text text-anchor="middle" x="633" y="-102.5" font-family="Helvetica,sans-Serif" font-size="10.00">Item::getStock</text>
</a>
</g>
</g>
<!-- Node1&#45;&gt;Node4 -->
<g id="edge6" class="edge">
<title>Node1&#45;&gt;Node4</title>
<path fill="none" stroke="midnightblue" d="M90.35,-76.59C110.95,-85.97 144.39,-99.61 175,-105 321.45,-130.8 498.43,-118.82 582.73,-110.55"/>
<polygon fill="midnightblue" stroke="midnightblue" points="583.18,-114.02 592.78,-109.54 582.48,-107.06 583.18,-114.02"/>
</g>
<!-- Node5 -->
<g id="node5" class="node">
<title>Node5</title>
<g id="a_node5"><a xlink:href="classItem.html#a0fa2135af2d5ac406fc7ee8d9b73aeec" target="_top" xlink:title="Set the stock of an item.">
<polygon fill="none" stroke="black" points="593,-57.5 593,-76.5 673,-76.5 673,-57.5 593,-57.5"/>
<text text-anchor="middle" x="633" y="-64.5" font-family="Helvetica,sans-Serif" font-size="10.00">Item::setStock</text>
</a>
</g>
</g>
<!-- Node1&#45;&gt;Node5 -->
<g id="edge7" class="edge">
<title>Node1&#45;&gt;Node5</title>
<path fill="none" stroke="midnightblue" d="M139.07,-67C253.93,-67 482.48,-67 582.82,-67"/>
<polygon fill="midnightblue" stroke="midnightblue" points="582.99,-70.5 592.99,-67 582.99,-63.5 582.99,-70.5"/>
</g>
<!-- Node6 -->
<g id="node6" class="node">
<title>Node6</title>
<g id="a_node6"><a xlink:href="classItem.html#a63d7f2148b699e539aae354b01559811" target="_top" xlink:title="Get the Item&#39;s name.">
<polygon fill="none" stroke="black" points="230.5,-0.5 230.5,-19.5 310.5,-19.5 310.5,-0.5 230.5,-0.5"/>
<text text-anchor="middle" x="270.5" y="-7.5" font-family="Helvetica,sans-Serif" font-size="10.00">Item::getName</text>
</a>
</g>
</g>
<!-- Node1&#45;&gt;Node6 -->
<g id="edge5" class="edge">
<title>Node1&#45;&gt;Node6</title>
<path fill="none" stroke="midnightblue" d="M99.2,-57.45C120.12,-50.61 149.2,-41.34 175,-34 189.68,-29.82 205.75,-25.61 220.4,-21.9"/>
<polygon fill="midnightblue" stroke="midnightblue" points="221.44,-25.25 230.28,-19.43 219.73,-18.46 221.44,-25.25"/>
</g>
<!-- Node3 -->
<g id="node3" class="node">
<title>Node3</title>
<g id="a_node3"><a xlink:href="classShoppingCart.html#ac61d13f6110480f27e8fd31e7ccdbfe6" target="_top" xlink:title="Remove an item from the cart completely.">
<polygon fill="none" stroke="black" points="402,-76.5 402,-95.5 557,-95.5 557,-76.5 402,-76.5"/>
<text text-anchor="middle" x="479.5" y="-83.5" font-family="Helvetica,sans-Serif" font-size="10.00">ShoppingCart::removeItemOrder</text>
</a>
</g>
</g>
<!-- Node2&#45;&gt;Node3 -->
<g id="edge2" class="edge">
<title>Node2&#45;&gt;Node3</title>
<path fill="none" stroke="midnightblue" d="M366.22,-86C374.69,-86 383.25,-86 391.65,-86"/>
<polygon fill="midnightblue" stroke="midnightblue" points="391.82,-89.5 401.82,-86 391.82,-82.5 391.82,-89.5"/>
</g>
<!-- Node3&#45;&gt;Node4 -->
<g id="edge3" class="edge">
<title>Node3&#45;&gt;Node4</title>
<path fill="none" stroke="midnightblue" d="M556.69,-95.56C565.6,-96.67 574.5,-97.79 582.89,-98.84"/>
<polygon fill="midnightblue" stroke="midnightblue" points="582.5,-102.32 592.85,-100.09 583.37,-95.37 582.5,-102.32"/>
</g>
<!-- Node3&#45;&gt;Node5 -->
<g id="edge4" class="edge">
<title>Node3&#45;&gt;Node5</title>
<path fill="none" stroke="midnightblue" d="M556.69,-76.44C565.6,-75.33 574.5,-74.21 582.89,-73.16"/>
<polygon fill="midnightblue" stroke="midnightblue" points="583.37,-76.63 592.85,-71.91 582.5,-69.68 583.37,-76.63"/>
</g>
</g>
</svg>
