<?xml version="1.0" encoding="UTF-8" standalone="no"?>
<!DOCTYPE svg PUBLIC "-//W3C//DTD SVG 1.1//EN"
 "http://www.w3.org/Graphics/SVG/1.1/DTD/svg11.dtd">
<!-- Generated by graphviz version 2.49.3 (20211027.1534)
 -->
<!-- Title: Menu::showLoginMenu Pages: 1 -->
<svg width="408pt" height="142pt"
 viewBox="0.00 0.00 408.00 142.00" xmlns="http://www.w3.org/2000/svg" xmlns:xlink="http://www.w3.org/1999/xlink">
<g id="graph0" class="graph" transform="scale(1 1) rotate(0) translate(4 138)">
<title>Menu::showLoginMenu</title>
<!-- Node1 -->
<g id="node1" class="node">
<title>Node1</title>
<g id="a_node1"><a xlink:title=" ">
<polygon fill="#bfbfbf" stroke="black" points="0,-76.5 0,-95.5 116,-95.5 116,-76.5 0,-76.5"/>
<text text-anchor="middle" x="58" y="-83.5" font-family="Helvetica,sans-Serif" font-size="10.00">Menu::showLoginMenu</text>
</a>
</g>
</g>
<!-- Node2 -->
<g id="node2" class="node">
<title>Node2</title>
<g id="a_node2"><a xlink:href="classEShopError.html#a47b46a751485345958bf78cf5cd12090" target="_top" xlink:title="Return the error message.">
<polygon fill="none" stroke="black" points="152,-95.5 152,-114.5 241,-114.5 241,-95.5 152,-95.5"/>
<text text-anchor="middle" x="196.5" y="-102.5" font-family="Helvetica,sans-Serif" font-size="10.00">EShopError::error</text>
</a>
</g>
</g>
<!-- Node1&#45;&gt;Node2 -->
<g id="edge1" class="edge">
<title>Node1&#45;&gt;Node2</title>
<path fill="none" stroke="midnightblue" d="M116.1,-93.95C124.62,-95.13 133.37,-96.35 141.82,-97.53"/>
<polygon fill="midnightblue" stroke="midnightblue" points="141.54,-101.02 151.92,-98.93 142.5,-94.09 141.54,-101.02"/>
</g>
<!-- Node3 -->
<g id="node3" class="node">
<title>Node3</title>
<g id="a_node3"><a xlink:href="classMenu.html#a1cba910e7f8a136371a3eb3d18cc73b3" target="_top" xlink:title="User authentication.">
<polygon fill="none" stroke="black" points="164,-57.5 164,-76.5 229,-76.5 229,-57.5 164,-57.5"/>
<text text-anchor="middle" x="196.5" y="-64.5" font-family="Helvetica,sans-Serif" font-size="10.00">Menu::login</text>
</a>
</g>
</g>
<!-- Node1&#45;&gt;Node3 -->
<g id="edge2" class="edge">
<title>Node1&#45;&gt;Node3</title>
<path fill="none" stroke="midnightblue" d="M116.1,-78.05C128.75,-76.29 141.94,-74.46 153.84,-72.8"/>
<polygon fill="midnightblue" stroke="midnightblue" points="154.5,-76.24 163.93,-71.39 153.54,-69.31 154.5,-76.24"/>
</g>
<!-- Node4 -->
<g id="node4" class="node">
<title>Node4</title>
<g id="a_node4"><a xlink:href="classEShop.html#a5b06d5864cf02a1d4b2a6014d3064b61" target="_top" xlink:title="Return a Buyer reference if the Buyer&#39;s email is found in the e&#45;shop.">
<polygon fill="none" stroke="black" points="277,-114.5 277,-133.5 400,-133.5 400,-114.5 277,-114.5"/>
<text text-anchor="middle" x="338.5" y="-121.5" font-family="Helvetica,sans-Serif" font-size="10.00">EShop::getBuyerByEmail</text>
</a>
</g>
</g>
<!-- Node3&#45;&gt;Node4 -->
<g id="edge3" class="edge">
<title>Node3&#45;&gt;Node4</title>
<path fill="none" stroke="midnightblue" d="M220.22,-76.55C226.96,-79.48 234.32,-82.78 241,-86 257.3,-93.85 260.3,-98.04 277,-105 282.21,-107.17 287.76,-109.23 293.3,-111.15"/>
<polygon fill="midnightblue" stroke="midnightblue" points="292.6,-114.6 303.19,-114.41 294.8,-107.95 292.6,-114.6"/>
</g>
<!-- Node5 -->
<g id="node5" class="node">
<title>Node5</title>
<g id="a_node5"><a xlink:href="classUser.html#a851bfaab8e406de66700edb326c58e38" target="_top" xlink:title="Get the Email of the user.">
<polygon fill="none" stroke="black" points="298.5,-76.5 298.5,-95.5 378.5,-95.5 378.5,-76.5 298.5,-76.5"/>
<text text-anchor="middle" x="338.5" y="-83.5" font-family="Helvetica,sans-Serif" font-size="10.00">User::getEmail</text>
</a>
</g>
</g>
<!-- Node3&#45;&gt;Node5 -->
<g id="edge4" class="edge">
<title>Node3&#45;&gt;Node5</title>
<path fill="none" stroke="midnightblue" d="M229.27,-71.31C246.72,-73.68 268.74,-76.67 288.36,-79.33"/>
<polygon fill="midnightblue" stroke="midnightblue" points="287.98,-82.81 298.36,-80.69 288.92,-75.87 287.98,-82.81"/>
</g>
<!-- Node6 -->
<g id="node6" class="node">
<title>Node6</title>
<g id="a_node6"><a xlink:href="classUser.html#adb316ac38d5f62a967686e7b736a0469" target="_top" xlink:title="Get the Name of the user.">
<polygon fill="none" stroke="black" points="297.5,-38.5 297.5,-57.5 379.5,-57.5 379.5,-38.5 297.5,-38.5"/>
<text text-anchor="middle" x="338.5" y="-45.5" font-family="Helvetica,sans-Serif" font-size="10.00">User::getName</text>
</a>
</g>
</g>
<!-- Node3&#45;&gt;Node6 -->
<g id="edge5" class="edge">
<title>Node3&#45;&gt;Node6</title>
<path fill="none" stroke="midnightblue" d="M229.27,-62.69C246.36,-60.37 267.85,-57.45 287.16,-54.83"/>
<polygon fill="midnightblue" stroke="midnightblue" points="287.89,-58.27 297.33,-53.45 286.95,-51.33 287.89,-58.27"/>
</g>
<!-- Node7 -->
<g id="node7" class="node">
<title>Node7</title>
<g id="a_node7"><a xlink:href="classEShop.html#a1bc26b7bab12221cb2b7682caf93df41" target="_top" xlink:title="Get the owner.">
<polygon fill="none" stroke="black" points="292.5,-0.5 292.5,-19.5 384.5,-19.5 384.5,-0.5 292.5,-0.5"/>
<text text-anchor="middle" x="338.5" y="-7.5" font-family="Helvetica,sans-Serif" font-size="10.00">EShop::getOwner</text>
</a>
</g>
</g>
<!-- Node3&#45;&gt;Node7 -->
<g id="edge6" class="edge">
<title>Node3&#45;&gt;Node7</title>
<path fill="none" stroke="midnightblue" d="M215.49,-57.5C231.39,-49.32 255.36,-37.52 277,-29 282.58,-26.8 288.52,-24.68 294.42,-22.7"/>
<polygon fill="midnightblue" stroke="midnightblue" points="295.8,-25.93 304.24,-19.52 293.64,-19.28 295.8,-25.93"/>
</g>
</g>
</svg>
