<?xml version="1.0" encoding="UTF-8" standalone="no"?>
<!DOCTYPE svg PUBLIC "-//W3C//DTD SVG 1.1//EN"
 "http://www.w3.org/Graphics/SVG/1.1/DTD/svg11.dtd">
<!-- Generated by graphviz version 2.49.3 (20211027.1534)
 -->
<!-- Title: Buyer::getCategoryName Pages: 1 -->
<!--zoomable 231 -->
<svg id="main" version="1.1" xmlns="http://www.w3.org/2000/svg" xmlns:xlink="http://www.w3.org/1999/xlink" xml:space="preserve" onload="init(evt)">
<style type="text/css"><![CDATA[
.edge:hover path { stroke: red; }
.edge:hover polygon { stroke: red; fill: red; }
]]></style>
<script type="text/javascript"><![CDATA[
var edges = document.getElementsByTagName('g');
if (edges && edges.length) {
  for (var i=0;i<edges.length;i++) {
    if (edges[i].id.substr(0,4)=='edge') {
      edges[i].setAttribute('class','edge');
    }
  }
}
]]></script>
        <defs>
                <circle id="rim" cx="0" cy="0" r="7"/>
                <circle id="rim2" cx="0" cy="0" r="3.5"/>
                <g id="zoomPlus">
                        <use xlink:href="#rim" fill="#404040">
                                <set attributeName="fill" to="#808080" begin="zoomplus.mouseover" end="zoomplus.mouseout"/>
                        </use>
                        <path d="M-4,0h8M0,-4v8" fill="none" stroke="white" stroke-width="1.5" pointer-events="none"/>
                </g>
                <g id="zoomMin">
                        <use xlink:href="#rim" fill="#404040">
                                <set attributeName="fill" to="#808080" begin="zoomminus.mouseover" end="zoomminus.mouseout"/>
                        </use>
                        <path d="M-4,0h8" fill="none" stroke="white" stroke-width="1.5" pointer-events="none"/>
                </g>
                <g id="dirArrow">
                        <path fill="none" stroke="white" stroke-width="1.5" d="M0,-3.0v7 M-2.5,-0.5L0,-3.0L2.5,-0.5"/>
                </g>
               <g id="resetDef">
                       <use xlink:href="#rim2" fill="#404040">
                               <set attributeName="fill" to="#808080" begin="reset.mouseover" end="reset.mouseout"/>
                       </use>
               </g>
        </defs>

<script type="text/javascript">
var viewWidth = 889;
var viewHeight = 231;
var sectionId = 'dynsection-10';
</script>
<script xlink:href="svgpan.js"/>
<svg id="graph" class="graph">
<g id="viewport">
<title>Buyer::getCategoryName</title>
<!-- Node1 -->
<g id="node1" class="node">
<title>Node1</title>
<g id="a_node1"><a xlink:title="Get the Buyer&#39;s category as string.">
<polygon fill="#bfbfbf" stroke="black" points="757,-103.5 757,-122.5 881,-122.5 881,-103.5 757,-103.5"/>
<text text-anchor="middle" x="819" y="-110.5" font-family="Helvetica,sans-Serif" font-size="10.00">Buyer::getCategoryName</text>
</a>
</g>
</g>
<!-- Node2 -->
<g id="node2" class="node">
<title>Node2</title>
<g id="a_node2"><a xlink:href="classMenu.html#a2ecf65abb196d80c5a5c354155019a93" target="_top" xlink:title=" ">
<polygon fill="none" stroke="black" points="604,-103.5 604,-122.5 721,-122.5 721,-103.5 604,-103.5"/>
<text text-anchor="middle" x="662.5" y="-110.5" font-family="Helvetica,sans-Serif" font-size="10.00">Menu::showBuyerMenu</text>
</a>
</g>
</g>
<!-- Node1&#45;&gt;Node2 -->
<g id="edge1" class="edge">
<title>Node1&#45;&gt;Node2</title>
<path fill="none" stroke="midnightblue" d="M746.87,-113C738.24,-113 729.5,-113 721.1,-113"/>
<polygon fill="midnightblue" stroke="midnightblue" points="746.94,-116.5 756.94,-113 746.94,-109.5 746.94,-116.5"/>
</g>
<!-- Node2&#45;&gt;Node2 -->
<g id="edge17" class="edge">
<title>Node2&#45;&gt;Node2</title>
<path fill="none" stroke="midnightblue" d="M691.62,-131.65C690.4,-136.94 680.7,-141 662.5,-141 634.77,-141 626.76,-131.57 638.46,-122.76"/>
<polygon fill="midnightblue" stroke="midnightblue" points="694.54,-129.71 686.54,-122.76 688.46,-133.18 694.54,-129.71"/>
</g>
<!-- Node3 -->
<g id="node3" class="node">
<title>Node3</title>
<g id="a_node3"><a xlink:href="classMenu.html#a1de78dc75d7de7db8bce09a70dbbf77f" target="_top" xlink:title=" ">
<polygon fill="none" stroke="black" points="438.5,-188.5 438.5,-207.5 563.5,-207.5 563.5,-188.5 438.5,-188.5"/>
<text text-anchor="middle" x="501" y="-195.5" font-family="Helvetica,sans-Serif" font-size="10.00">Menu::showBrowseMenu</text>
</a>
</g>
</g>
<!-- Node2&#45;&gt;Node3 -->
<g id="edge2" class="edge">
<title>Node2&#45;&gt;Node3</title>
<path fill="none" stroke="midnightblue" d="M630.21,-128.06C612.54,-139.33 589.7,-154.15 568,-165 549.46,-174.27 526.44,-181.81 513.06,-188.47"/>
<polygon fill="midnightblue" stroke="midnightblue" points="632.36,-130.84 638.94,-122.54 628.62,-124.93 632.36,-130.84"/>
</g>
<!-- Node6 -->
<g id="node6" class="node">
<title>Node6</title>
<g id="a_node6"><a xlink:href="classMenu.html#a6a602f7f37917ae9582719a89246b73b" target="_top" xlink:title=" ">
<polygon fill="none" stroke="black" points="272,-150.5 272,-169.5 393,-169.5 393,-150.5 272,-150.5"/>
<text text-anchor="middle" x="332.5" y="-157.5" font-family="Helvetica,sans-Serif" font-size="10.00">Menu::showOwnerMenu</text>
</a>
</g>
</g>
<!-- Node2&#45;&gt;Node6 -->
<g id="edge23" class="edge">
<title>Node2&#45;&gt;Node6</title>
<path fill="none" stroke="midnightblue" d="M617.65,-125.12C602.08,-129.07 584.35,-133.17 568,-136 508.93,-146.24 440.67,-152.62 393.08,-156.2"/>
<polygon fill="midnightblue" stroke="midnightblue" points="618.74,-128.46 627.55,-122.56 616.99,-121.68 618.74,-128.46"/>
</g>
<!-- Node8 -->
<g id="node8" class="node">
<title>Node8</title>
<g id="a_node8"><a xlink:href="classMenu.html#aaef7622e532f3424a27fce4d16dbda47" target="_top" xlink:title=" ">
<polygon fill="none" stroke="black" points="113.5,-107.5 113.5,-126.5 222.5,-126.5 222.5,-107.5 113.5,-107.5"/>
<text text-anchor="middle" x="168" y="-114.5" font-family="Helvetica,sans-Serif" font-size="10.00">Menu::showWelcome</text>
</a>
</g>
</g>
<!-- Node2&#45;&gt;Node8 -->
<g id="edge24" class="edge">
<title>Node2&#45;&gt;Node8</title>
<path fill="none" stroke="midnightblue" d="M593.36,-108.72C494.34,-106.83 312.69,-108.45 222.6,-112.16"/>
<polygon fill="midnightblue" stroke="midnightblue" points="593.48,-112.22 603.56,-108.93 593.63,-105.22 593.48,-112.22"/>
</g>
<!-- Node10 -->
<g id="node10" class="node">
<title>Node10</title>
<g id="a_node10"><a xlink:href="classMenu.html#a781c392fdcd203e436f5dc6e78f057a8" target="_top" xlink:title=" ">
<polygon fill="none" stroke="black" points="446,-38.5 446,-57.5 556,-57.5 556,-38.5 446,-38.5"/>
<text text-anchor="middle" x="501" y="-45.5" font-family="Helvetica,sans-Serif" font-size="10.00">Menu::showCartMenu</text>
</a>
</g>
</g>
<!-- Node2&#45;&gt;Node10 -->
<g id="edge18" class="edge">
<title>Node2&#45;&gt;Node10</title>
<path fill="none" stroke="midnightblue" d="M638.89,-98.91C613.09,-86.27 570.47,-68.59 539.64,-57.51"/>
<polygon fill="midnightblue" stroke="midnightblue" points="637.4,-102.07 647.9,-103.48 640.57,-95.83 637.4,-102.07"/>
</g>
<!-- Node11 -->
<g id="node11" class="node">
<title>Node11</title>
<g id="a_node11"><a xlink:href="classMenu.html#a3905222cc1c1ec7ed2dce13e16555c52" target="_top" xlink:title=" ">
<polygon fill="none" stroke="black" points="434,-0.5 434,-19.5 568,-19.5 568,-0.5 434,-0.5"/>
<text text-anchor="middle" x="501" y="-7.5" font-family="Helvetica,sans-Serif" font-size="10.00">Menu::showCheckoutMenu</text>
</a>
</g>
</g>
<!-- Node2&#45;&gt;Node11 -->
<g id="edge21" class="edge">
<title>Node2&#45;&gt;Node11</title>
<path fill="none" stroke="midnightblue" d="M651.29,-95.06C635.34,-73.59 602.74,-39.25 568,-20 567.79,-19.88 567.58,-19.77 567.37,-19.66"/>
<polygon fill="midnightblue" stroke="midnightblue" points="648.49,-97.17 657.06,-103.4 654.24,-93.18 648.49,-97.17"/>
</g>
<!-- Node3&#45;&gt;Node2 -->
<g id="edge3" class="edge">
<title>Node3&#45;&gt;Node2</title>
<path fill="none" stroke="midnightblue" d="M565.47,-184.24C566.32,-183.83 567.16,-183.42 568,-183 602.68,-165.67 640.24,-138.19 655.01,-122.7"/>
<polygon fill="midnightblue" stroke="midnightblue" points="563.78,-181.16 556.1,-188.46 566.66,-187.54 563.78,-181.16"/>
</g>
<!-- Node4 -->
<g id="node4" class="node">
<title>Node4</title>
<g id="a_node4"><a xlink:href="classMenu.html#a8bdf4110581d8d8a82f6290f246201e7" target="_top" xlink:title=" ">
<polygon fill="none" stroke="black" points="267,-195.5 267,-214.5 398,-214.5 398,-195.5 267,-195.5"/>
<text text-anchor="middle" x="332.5" y="-202.5" font-family="Helvetica,sans-Serif" font-size="10.00">Menu::showCategoryMenu</text>
</a>
</g>
</g>
<!-- Node3&#45;&gt;Node4 -->
<g id="edge4" class="edge">
<title>Node3&#45;&gt;Node4</title>
<path fill="none" stroke="midnightblue" d="M428.17,-194.33C418.18,-194.65 407.97,-195.11 398.12,-195.69"/>
<polygon fill="midnightblue" stroke="midnightblue" points="428.57,-197.82 438.47,-194.05 428.38,-190.82 428.57,-197.82"/>
</g>
<!-- Node3&#45;&gt;Node6 -->
<g id="edge8" class="edge">
<title>Node3&#45;&gt;Node6</title>
<path fill="none" stroke="midnightblue" d="M468.79,-185.47C447.54,-179.34 418.73,-172.4 393.15,-167.11"/>
<polygon fill="midnightblue" stroke="midnightblue" points="467.99,-188.89 478.57,-188.41 470,-182.18 467.99,-188.89"/>
</g>
<!-- Node4&#45;&gt;Node3 -->
<g id="edge5" class="edge">
<title>Node4&#45;&gt;Node3</title>
<path fill="none" stroke="midnightblue" d="M408.17,-208.58C418.31,-208.23 428.61,-207.74 438.47,-207.13"/>
<polygon fill="midnightblue" stroke="midnightblue" points="408.01,-205.08 398.12,-208.88 408.22,-212.08 408.01,-205.08"/>
</g>
<!-- Node5 -->
<g id="node5" class="node">
<title>Node5</title>
<g id="a_node5"><a xlink:href="classMenu.html#a957fada7140f67c43e3ee253ae863125" target="_top" xlink:title=" ">
<polygon fill="none" stroke="black" points="105,-203.5 105,-222.5 231,-222.5 231,-203.5 105,-203.5"/>
<text text-anchor="middle" x="168" y="-210.5" font-family="Helvetica,sans-Serif" font-size="10.00">Menu::showProductMenu</text>
</a>
</g>
</g>
<!-- Node4&#45;&gt;Node5 -->
<g id="edge6" class="edge">
<title>Node4&#45;&gt;Node5</title>
<path fill="none" stroke="midnightblue" d="M256.55,-201.96C247.4,-202.36 238.14,-202.87 229.25,-203.49"/>
<polygon fill="midnightblue" stroke="midnightblue" points="256.95,-205.45 266.81,-201.56 256.68,-198.45 256.95,-205.45"/>
</g>
<!-- Node5&#45;&gt;Node4 -->
<g id="edge7" class="edge">
<title>Node5&#45;&gt;Node4</title>
<path fill="none" stroke="midnightblue" d="M241.4,-216.15C251.29,-215.74 261.35,-215.19 270.99,-214.53"/>
<polygon fill="midnightblue" stroke="midnightblue" points="241.05,-212.66 231.19,-216.52 241.31,-219.66 241.05,-212.66"/>
</g>
<!-- Node6&#45;&gt;Node3 -->
<g id="edge9" class="edge">
<title>Node6&#45;&gt;Node3</title>
<path fill="none" stroke="midnightblue" d="M364.85,-172.57C385.57,-178.54 413.43,-185.28 438.47,-190.5"/>
<polygon fill="midnightblue" stroke="midnightblue" points="365.59,-169.14 355,-169.62 363.58,-175.84 365.59,-169.14"/>
</g>
<!-- Node7 -->
<g id="node7" class="node">
<title>Node7</title>
<g id="a_node7"><a xlink:href="classMenu.html#a788512183de460d13b8a2dfb571c03f2" target="_top" xlink:title=" ">
<polygon fill="none" stroke="black" points="107.5,-147.5 107.5,-166.5 228.5,-166.5 228.5,-147.5 107.5,-147.5"/>
<text text-anchor="middle" x="168" y="-154.5" font-family="Helvetica,sans-Serif" font-size="10.00">Menu::showStatusMenu</text>
</a>
</g>
</g>
<!-- Node6&#45;&gt;Node7 -->
<g id="edge10" class="edge">
<title>Node6&#45;&gt;Node7</title>
<path fill="none" stroke="midnightblue" d="M261.85,-152.03C250.77,-151.7 239.4,-151.55 228.58,-151.57"/>
<polygon fill="midnightblue" stroke="midnightblue" points="261.8,-155.53 271.91,-152.37 262.04,-148.53 261.8,-155.53"/>
</g>
<!-- Node6&#45;&gt;Node8 -->
<g id="edge13" class="edge">
<title>Node6&#45;&gt;Node8</title>
<path fill="none" stroke="midnightblue" d="M303.05,-147.2C280.87,-139.86 249.42,-131.16 222.56,-124.78"/>
<polygon fill="midnightblue" stroke="midnightblue" points="301.95,-150.52 312.54,-150.46 304.22,-143.9 301.95,-150.52"/>
</g>
<!-- Node7&#45;&gt;Node6 -->
<g id="edge11" class="edge">
<title>Node7&#45;&gt;Node6</title>
<path fill="none" stroke="midnightblue" d="M238.65,-164.97C249.72,-165.3 261.09,-165.45 271.91,-165.43"/>
<polygon fill="midnightblue" stroke="midnightblue" points="238.69,-161.47 228.58,-164.63 238.45,-168.47 238.69,-161.47"/>
</g>
<!-- Node7&#45;&gt;Node7 -->
<g id="edge12" class="edge">
<title>Node7&#45;&gt;Node7</title>
<path fill="none" stroke="midnightblue" d="M192.55,-176.03C191.21,-181.13 183.03,-185 168,-185 144.54,-185 137.76,-175.57 147.65,-166.76"/>
<polygon fill="midnightblue" stroke="midnightblue" points="195.67,-174.42 188.35,-166.76 189.29,-177.31 195.67,-174.42"/>
</g>
<!-- Node8&#45;&gt;Node2 -->
<g id="edge15" class="edge">
<title>Node8&#45;&gt;Node2</title>
<path fill="none" stroke="midnightblue" d="M232.79,-121.2C329.22,-123.18 510.7,-121.65 603.56,-118.01"/>
<polygon fill="midnightblue" stroke="midnightblue" points="232.67,-117.69 222.6,-120.96 232.51,-124.69 232.67,-117.69"/>
</g>
<!-- Node8&#45;&gt;Node6 -->
<g id="edge16" class="edge">
<title>Node8&#45;&gt;Node6</title>
<path fill="none" stroke="midnightblue" d="M197.87,-129.94C218.38,-136.71 246.65,-144.6 271.91,-150.76"/>
<polygon fill="midnightblue" stroke="midnightblue" points="198.78,-126.56 188.19,-126.62 196.51,-133.18 198.78,-126.56"/>
</g>
<!-- Node9 -->
<g id="node9" class="node">
<title>Node9</title>
<g id="a_node9"><a xlink:href="classMenu.html#a323509e5b6f4dc00536e87efd65b8b94" target="_top" xlink:title=" ">
<polygon fill="none" stroke="black" points="0,-107.5 0,-126.5 69,-126.5 69,-107.5 0,-107.5"/>
<text text-anchor="middle" x="34.5" y="-114.5" font-family="Helvetica,sans-Serif" font-size="10.00">Menu::Menu</text>
</a>
</g>
</g>
<!-- Node8&#45;&gt;Node9 -->
<g id="edge14" class="edge">
<title>Node8&#45;&gt;Node9</title>
<path fill="none" stroke="midnightblue" d="M102.92,-117C91.23,-117 79.47,-117 69.12,-117"/>
<polygon fill="midnightblue" stroke="midnightblue" points="103.13,-120.5 113.13,-117 103.13,-113.5 103.13,-120.5"/>
</g>
<!-- Node10&#45;&gt;Node2 -->
<g id="edge19" class="edge">
<title>Node10&#45;&gt;Node2</title>
<path fill="none" stroke="midnightblue" d="M524.88,-62.23C550.67,-74.83 592.99,-92.39 623.7,-103.44"/>
<polygon fill="midnightblue" stroke="midnightblue" points="526.37,-59.06 515.87,-57.66 523.21,-65.3 526.37,-59.06"/>
</g>
<!-- Node10&#45;&gt;Node10 -->
<g id="edge20" class="edge">
<title>Node10&#45;&gt;Node10</title>
<path fill="none" stroke="midnightblue" d="M530.94,-66.27C530.09,-71.74 520.11,-76 501,-76 472.56,-76 464.34,-66.57 476.34,-57.76"/>
<polygon fill="midnightblue" stroke="midnightblue" points="533.9,-64.41 525.66,-57.76 527.95,-68.1 533.9,-64.41"/>
</g>
<!-- Node11&#45;&gt;Node2 -->
<g id="edge22" class="edge">
<title>Node11&#45;&gt;Node2</title>
<path fill="none" stroke="midnightblue" d="M527.26,-22.52C540.02,-26.4 555.41,-31.02 568,-38 600.45,-55.98 631.03,-87.12 647.92,-103.38"/>
<polygon fill="midnightblue" stroke="midnightblue" points="528.29,-19.17 517.71,-19.54 526.21,-25.86 528.29,-19.17"/>
</g>
</g>
</svg>
        <g id="navigator" transform="translate(0 0)" fill="#404254">
                <rect fill="#f2f5e9" fill-opacity="0.5" stroke="#606060" stroke-width=".5" x="0" y="0" width="60" height="60"/>
                <use id="zoomplus" xlink:href="#zoomPlus" x="17" y="9" onmousedown="handleZoom(evt,'in')"/>
                <use id="zoomminus" xlink:href="#zoomMin" x="42" y="9" onmousedown="handleZoom(evt,'out')"/>
                <use id="reset" xlink:href="#resetDef" x="30" y="36" onmousedown="handleReset()"/>
                <g id="arrowUp" xlink:href="#dirArrow" transform="translate(30 24)" onmousedown="handlePan(0,-1)">
                  <use xlink:href="#rim" fill="#404040">
                        <set attributeName="fill" to="#808080" begin="arrowUp.mouseover" end="arrowUp.mouseout"/>
                  </use>
                  <path fill="none" stroke="white" stroke-width="1.5" d="M0,-3.0v7 M-2.5,-0.5L0,-3.0L2.5,-0.5"/>
                </g>
                <g id="arrowRight" xlink:href="#dirArrow" transform="rotate(90) translate(36 -43)" onmousedown="handlePan(1,0)">
                  <use xlink:href="#rim" fill="#404040">
                        <set attributeName="fill" to="#808080" begin="arrowRight.mouseover" end="arrowRight.mouseout"/>
                  </use>
                  <path fill="none" stroke="white" stroke-width="1.5" d="M0,-3.0v7 M-2.5,-0.5L0,-3.0L2.5,-0.5"/>
                </g>
                <g id="arrowDown" xlink:href="#dirArrow" transform="rotate(180) translate(-30 -48)" onmousedown="handlePan(0,1)">
                  <use xlink:href="#rim" fill="#404040">
                        <set attributeName="fill" to="#808080" begin="arrowDown.mouseover" end="arrowDown.mouseout"/>
                  </use>
                  <path fill="none" stroke="white" stroke-width="1.5" d="M0,-3.0v7 M-2.5,-0.5L0,-3.0L2.5,-0.5"/>
                </g>
                <g id="arrowLeft" xlink:href="#dirArrow" transform="rotate(270) translate(-36 17)" onmousedown="handlePan(-1,0)">
                  <use xlink:href="#rim" fill="#404040">
                        <set attributeName="fill" to="#808080" begin="arrowLeft.mouseover" end="arrowLeft.mouseout"/>
                  </use>
                  <path fill="none" stroke="white" stroke-width="1.5" d="M0,-3.0v7 M-2.5,-0.5L0,-3.0L2.5,-0.5"/>
                </g>
        </g>
        <svg viewBox="0 0 15 15" width="100%" height="30px" preserveAspectRatio="xMaxYMin meet">
         <g id="arrow_out" transform="scale(0.3 0.3)">
          <a xlink:href="classBuyer_ae93fe05c76d09d1d1577485efdd9fa86_icgraph_org.svg" target="_base">
           <rect id="button" ry="5" rx="5" y="6" x="6" height="38" width="38"
                fill="#f2f5e9" fill-opacity="0.5" stroke="#606060" stroke-width="1.0"/>
           <path id="arrow"
             d="M 11.500037,31.436501 C 11.940474,20.09759 22.043105,11.32322 32.158766,21.979434 L 37.068811,17.246167 C 37.068811,17.246167 37.088388,32 37.088388,32 L 22.160133,31.978069 C 22.160133,31.978069 26.997745,27.140456 26.997745,27.140456 C 18.528582,18.264221 13.291696,25.230495 11.500037,31.436501 z"
             style="fill:#404040;"/>
          </a>
         </g>
        </svg>
</svg>
