<?xml version="1.0" encoding="UTF-8" standalone="no"?>
<!DOCTYPE svg PUBLIC "-//W3C//DTD SVG 1.1//EN"
 "http://www.w3.org/Graphics/SVG/1.1/DTD/svg11.dtd">
<!-- Generated by graphviz version 2.49.3 (20211027.1534)
 -->
<!-- Title: Paper::Paper Pages: 1 -->
<svg width="306pt" height="142pt"
 viewBox="0.00 0.00 306.00 142.00" xmlns="http://www.w3.org/2000/svg" xmlns:xlink="http://www.w3.org/1999/xlink">
<g id="graph0" class="graph" transform="scale(1 1) rotate(0) translate(4 138)">
<title>Paper::Paper</title>
<!-- Node1 -->
<g id="node1" class="node">
<title>Node1</title>
<g id="a_node1"><a xlink:title="Constructor for Paper.">
<polygon fill="#bfbfbf" stroke="black" points="0,-57.5 0,-76.5 72,-76.5 72,-57.5 0,-57.5"/>
<text text-anchor="middle" x="36" y="-64.5" font-family="Helvetica,sans-Serif" font-size="10.00">Paper::Paper</text>
</a>
</g>
</g>
<!-- Node2 -->
<g id="node2" class="node">
<title>Node2</title>
<g id="a_node2"><a xlink:href="classItem.html#af6517f0488c9be814f5c6de8bb2a8f1f" target="_top" xlink:title="Set the Item&#39;s category.">
<polygon fill="none" stroke="black" points="108,-114.5 108,-133.5 200,-133.5 200,-114.5 108,-114.5"/>
<text text-anchor="middle" x="154" y="-121.5" font-family="Helvetica,sans-Serif" font-size="10.00">Item::setCategory</text>
</a>
</g>
</g>
<!-- Node1&#45;&gt;Node2 -->
<g id="edge1" class="edge">
<title>Node1&#45;&gt;Node2</title>
<path fill="none" stroke="midnightblue" d="M53.7,-76.5C67.95,-84.47 89.08,-95.96 108,-105 111.79,-106.81 115.79,-108.63 119.79,-110.39"/>
<polygon fill="midnightblue" stroke="midnightblue" points="118.43,-113.61 129,-114.35 121.19,-107.18 118.43,-113.61"/>
</g>
<!-- Node3 -->
<g id="node3" class="node">
<title>Node3</title>
<g id="a_node3"><a xlink:href="classPaper.html#a5fb4660c9bab53afb43617b32c38de5b" target="_top" xlink:title="Override of Item::setID()">
<polygon fill="none" stroke="black" points="120,-76.5 120,-95.5 188,-95.5 188,-76.5 120,-76.5"/>
<text text-anchor="middle" x="154" y="-83.5" font-family="Helvetica,sans-Serif" font-size="10.00">Paper::setId</text>
</a>
</g>
</g>
<!-- Node1&#45;&gt;Node3 -->
<g id="edge2" class="edge">
<title>Node1&#45;&gt;Node3</title>
<path fill="none" stroke="midnightblue" d="M72.12,-72.75C84,-74.7 97.4,-76.89 109.83,-78.93"/>
<polygon fill="midnightblue" stroke="midnightblue" points="109.55,-82.43 119.98,-80.59 110.68,-75.52 109.55,-82.43"/>
</g>
<!-- Node5 -->
<g id="node5" class="node">
<title>Node5</title>
<g id="a_node5"><a xlink:href="classPaper.html#a2d04e86a9c097e5a627ab6cb5b47a133" target="_top" xlink:title="Set the pages of Paper.">
<polygon fill="none" stroke="black" points="110,-38.5 110,-57.5 198,-57.5 198,-38.5 110,-38.5"/>
<text text-anchor="middle" x="154" y="-45.5" font-family="Helvetica,sans-Serif" font-size="10.00">Paper::setPages</text>
</a>
</g>
</g>
<!-- Node1&#45;&gt;Node5 -->
<g id="edge4" class="edge">
<title>Node1&#45;&gt;Node5</title>
<path fill="none" stroke="midnightblue" d="M72.12,-61.25C80.84,-59.82 90.37,-58.26 99.74,-56.72"/>
<polygon fill="midnightblue" stroke="midnightblue" points="100.5,-60.15 109.8,-55.08 99.37,-53.24 100.5,-60.15"/>
</g>
<!-- Node6 -->
<g id="node6" class="node">
<title>Node6</title>
<g id="a_node6"><a xlink:href="classPaper.html#ae0ef2f36fb8c4466ecbd4fbf1aabf2b1" target="_top" xlink:title="Set the weight of Paper.">
<polygon fill="none" stroke="black" points="109,-0.5 109,-19.5 199,-19.5 199,-0.5 109,-0.5"/>
<text text-anchor="middle" x="154" y="-7.5" font-family="Helvetica,sans-Serif" font-size="10.00">Paper::setWeight</text>
</a>
</g>
</g>
<!-- Node1&#45;&gt;Node6 -->
<g id="edge5" class="edge">
<title>Node1&#45;&gt;Node6</title>
<path fill="none" stroke="midnightblue" d="M53.7,-57.5C67.95,-49.53 89.08,-38.04 108,-29 111.79,-27.19 115.79,-25.37 119.79,-23.61"/>
<polygon fill="midnightblue" stroke="midnightblue" points="121.19,-26.82 129,-19.65 118.43,-20.39 121.19,-26.82"/>
</g>
<!-- Node4 -->
<g id="node4" class="node">
<title>Node4</title>
<g id="a_node4"><a xlink:href="classItem.html#a92fda3b8072f8ad7bcc3e406785f9ad5" target="_top" xlink:title="Set the Item&#39;s ID.">
<polygon fill="none" stroke="black" points="236,-76.5 236,-95.5 298,-95.5 298,-76.5 236,-76.5"/>
<text text-anchor="middle" x="267" y="-83.5" font-family="Helvetica,sans-Serif" font-size="10.00">Item::setId</text>
</a>
</g>
</g>
<!-- Node3&#45;&gt;Node4 -->
<g id="edge3" class="edge">
<title>Node3&#45;&gt;Node4</title>
<path fill="none" stroke="midnightblue" d="M188,-86C199.89,-86 213.42,-86 225.85,-86"/>
<polygon fill="midnightblue" stroke="midnightblue" points="225.96,-89.5 235.96,-86 225.96,-82.5 225.96,-89.5"/>
</g>
</g>
</svg>
