<?xml version="1.0" encoding="UTF-8" standalone="no"?>
<!DOCTYPE svg PUBLIC "-//W3C//DTD SVG 1.1//EN"
 "http://www.w3.org/Graphics/SVG/1.1/DTD/svg11.dtd">
<!-- Generated by graphviz version 2.49.3 (20211027.1534)
 -->
<!-- Title: ShoppingCart::changeItemOrderQuantity Pages: 1 -->
<svg width="506pt" height="66pt"
 viewBox="0.00 0.00 506.00 66.00" xmlns="http://www.w3.org/2000/svg" xmlns:xlink="http://www.w3.org/1999/xlink">
<g id="graph0" class="graph" transform="scale(1 1) rotate(0) translate(4 62)">
<title>ShoppingCart::changeItemOrderQuantity</title>
<!-- Node1 -->
<g id="node1" class="node">
<title>Node1</title>
<g id="a_node1"><a xlink:title="Changes the quantity of an item in the cart.">
<polygon fill="#bfbfbf" stroke="black" points="0,-19.5 0,-38.5 191,-38.5 191,-19.5 0,-19.5"/>
<text text-anchor="middle" x="95.5" y="-26.5" font-family="Helvetica,sans-Serif" font-size="10.00">ShoppingCart::changeItemOrderQuantity</text>
</a>
</g>
</g>
<!-- Node2 -->
<g id="node2" class="node">
<title>Node2</title>
<g id="a_node2"><a xlink:href="classShoppingCart.html#ac61d13f6110480f27e8fd31e7ccdbfe6" target="_top" xlink:title="Remove an item from the cart completely.">
<polygon fill="none" stroke="black" points="227,-19.5 227,-38.5 382,-38.5 382,-19.5 227,-19.5"/>
<text text-anchor="middle" x="304.5" y="-26.5" font-family="Helvetica,sans-Serif" font-size="10.00">ShoppingCart::removeItemOrder</text>
</a>
</g>
</g>
<!-- Node1&#45;&gt;Node2 -->
<g id="edge1" class="edge">
<title>Node1&#45;&gt;Node2</title>
<path fill="none" stroke="midnightblue" d="M191.22,-29C199.69,-29 208.25,-29 216.65,-29"/>
<polygon fill="midnightblue" stroke="midnightblue" points="216.82,-32.5 226.82,-29 216.82,-25.5 216.82,-32.5"/>
</g>
<!-- Node3 -->
<g id="node3" class="node">
<title>Node3</title>
<g id="a_node3"><a xlink:href="classItem.html#adb47826cabe2aae97ad65a57cd04f963" target="_top" xlink:title="Get the Item&#39;s stock.">
<polygon fill="none" stroke="black" points="418,-38.5 418,-57.5 498,-57.5 498,-38.5 418,-38.5"/>
<text text-anchor="middle" x="458" y="-45.5" font-family="Helvetica,sans-Serif" font-size="10.00">Item::getStock</text>
</a>
</g>
</g>
<!-- Node2&#45;&gt;Node3 -->
<g id="edge2" class="edge">
<title>Node2&#45;&gt;Node3</title>
<path fill="none" stroke="midnightblue" d="M381.69,-38.56C390.6,-39.67 399.5,-40.79 407.89,-41.84"/>
<polygon fill="midnightblue" stroke="midnightblue" points="407.5,-45.32 417.85,-43.09 408.37,-38.37 407.5,-45.32"/>
</g>
<!-- Node4 -->
<g id="node4" class="node">
<title>Node4</title>
<g id="a_node4"><a xlink:href="classItem.html#a0fa2135af2d5ac406fc7ee8d9b73aeec" target="_top" xlink:title="Set the stock of an item.">
<polygon fill="none" stroke="black" points="418,-0.5 418,-19.5 498,-19.5 498,-0.5 418,-0.5"/>
<text text-anchor="middle" x="458" y="-7.5" font-family="Helvetica,sans-Serif" font-size="10.00">Item::setStock</text>
</a>
</g>
</g>
<!-- Node2&#45;&gt;Node4 -->
<g id="edge3" class="edge">
<title>Node2&#45;&gt;Node4</title>
<path fill="none" stroke="midnightblue" d="M381.69,-19.44C390.6,-18.33 399.5,-17.21 407.89,-16.16"/>
<polygon fill="midnightblue" stroke="midnightblue" points="408.37,-19.63 417.85,-14.91 407.5,-12.68 408.37,-19.63"/>
</g>
</g>
</svg>
