<?xml version="1.0" encoding="UTF-8" standalone="no"?>
<!DOCTYPE svg PUBLIC "-//W3C//DTD SVG 1.1//EN"
 "http://www.w3.org/Graphics/SVG/1.1/DTD/svg11.dtd">
<!-- Generated by graphviz version 2.49.3 (20211027.1534)
 -->
<!-- Title: EShop::checkStatus Pages: 1 -->
<!--zoomable 128 -->
<svg id="main" version="1.1" xmlns="http://www.w3.org/2000/svg" xmlns:xlink="http://www.w3.org/1999/xlink" xml:space="preserve" onload="init(evt)">
<style type="text/css"><![CDATA[
.edge:hover path { stroke: red; }
.edge:hover polygon { stroke: red; fill: red; }
]]></style>
<script type="text/javascript"><![CDATA[
var edges = document.getElementsByTagName('g');
if (edges && edges.length) {
  for (var i=0;i<edges.length;i++) {
    if (edges[i].id.substr(0,4)=='edge') {
      edges[i].setAttribute('class','edge');
    }
  }
}
]]></script>
        <defs>
                <circle id="rim" cx="0" cy="0" r="7"/>
                <circle id="rim2" cx="0" cy="0" r="3.5"/>
                <g id="zoomPlus">
                        <use xlink:href="#rim" fill="#404040">
                                <set attributeName="fill" to="#808080" begin="zoomplus.mouseover" end="zoomplus.mouseout"/>
                        </use>
                        <path d="M-4,0h8M0,-4v8" fill="none" stroke="white" stroke-width="1.5" pointer-events="none"/>
                </g>
                <g id="zoomMin">
                        <use xlink:href="#rim" fill="#404040">
                                <set attributeName="fill" to="#808080" begin="zoomminus.mouseover" end="zoomminus.mouseout"/>
                        </use>
                        <path d="M-4,0h8" fill="none" stroke="white" stroke-width="1.5" pointer-events="none"/>
                </g>
                <g id="dirArrow">
                        <path fill="none" stroke="white" stroke-width="1.5" d="M0,-3.0v7 M-2.5,-0.5L0,-3.0L2.5,-0.5"/>
                </g>
               <g id="resetDef">
                       <use xlink:href="#rim2" fill="#404040">
                               <set attributeName="fill" to="#808080" begin="reset.mouseover" end="reset.mouseout"/>
                       </use>
               </g>
        </defs>

<script type="text/javascript">
var viewWidth = 1223;
var viewHeight = 128;
var sectionId = 'dynsection-6';
</script>
<script xlink:href="svgpan.js"/>
<svg id="graph" class="graph">
<g id="viewport">
<title>EShop::checkStatus</title>
<!-- Node1 -->
<g id="node1" class="node">
<title>Node1</title>
<g id="a_node1"><a xlink:title="Prints the status of the Buyers.">
<polygon fill="#bfbfbf" stroke="black" points="1111,-56.5 1111,-75.5 1215,-75.5 1215,-56.5 1111,-56.5"/>
<text text-anchor="middle" x="1163" y="-63.5" font-family="Helvetica,sans-Serif" font-size="10.00">EShop::checkStatus</text>
</a>
</g>
</g>
<!-- Node2 -->
<g id="node2" class="node">
<title>Node2</title>
<g id="a_node2"><a xlink:href="classMenu.html#a788512183de460d13b8a2dfb571c03f2" target="_top" xlink:title=" ">
<polygon fill="none" stroke="black" points="954,-56.5 954,-75.5 1075,-75.5 1075,-56.5 954,-56.5"/>
<text text-anchor="middle" x="1014.5" y="-63.5" font-family="Helvetica,sans-Serif" font-size="10.00">Menu::showStatusMenu</text>
</a>
</g>
</g>
<!-- Node1&#45;&gt;Node2 -->
<g id="edge1" class="edge">
<title>Node1&#45;&gt;Node2</title>
<path fill="none" stroke="midnightblue" d="M1100.65,-66C1092.24,-66 1083.62,-66 1075.25,-66"/>
<polygon fill="midnightblue" stroke="midnightblue" points="1100.76,-69.5 1110.76,-66 1100.76,-62.5 1100.76,-69.5"/>
</g>
<!-- Node2&#45;&gt;Node2 -->
<g id="edge24" class="edge">
<title>Node2&#45;&gt;Node2</title>
<path fill="none" stroke="midnightblue" d="M1042.13,-84.65C1040.97,-89.94 1031.76,-94 1014.5,-94 988.2,-94 980.59,-84.57 991.69,-75.76"/>
<polygon fill="midnightblue" stroke="midnightblue" points="1045.15,-82.89 1037.31,-75.76 1038.99,-86.22 1045.15,-82.89"/>
</g>
<!-- Node3 -->
<g id="node3" class="node">
<title>Node3</title>
<g id="a_node3"><a xlink:href="classMenu.html#a6a602f7f37917ae9582719a89246b73b" target="_top" xlink:title=" ">
<polygon fill="none" stroke="black" points="797,-56.5 797,-75.5 918,-75.5 918,-56.5 797,-56.5"/>
<text text-anchor="middle" x="857.5" y="-63.5" font-family="Helvetica,sans-Serif" font-size="10.00">Menu::showOwnerMenu</text>
</a>
</g>
</g>
<!-- Node2&#45;&gt;Node3 -->
<g id="edge2" class="edge">
<title>Node2&#45;&gt;Node3</title>
<path fill="none" stroke="midnightblue" d="M943.34,-59.28C934.88,-59.21 926.3,-59.26 918.01,-59.41"/>
<polygon fill="midnightblue" stroke="midnightblue" points="943.53,-62.78 953.57,-59.41 943.62,-55.78 943.53,-62.78"/>
</g>
<!-- Node3&#45;&gt;Node2 -->
<g id="edge22" class="edge">
<title>Node3&#45;&gt;Node2</title>
<path fill="none" stroke="midnightblue" d="M928.24,-72.72C936.69,-72.79 945.28,-72.74 953.57,-72.59"/>
<polygon fill="midnightblue" stroke="midnightblue" points="928.06,-69.22 918.01,-72.59 927.97,-76.22 928.06,-69.22"/>
</g>
<!-- Node4 -->
<g id="node4" class="node">
<title>Node4</title>
<g id="a_node4"><a xlink:href="classMenu.html#a1de78dc75d7de7db8bce09a70dbbf77f" target="_top" xlink:title=" ">
<polygon fill="none" stroke="black" points="333.5,-100.5 333.5,-119.5 458.5,-119.5 458.5,-100.5 333.5,-100.5"/>
<text text-anchor="middle" x="396" y="-107.5" font-family="Helvetica,sans-Serif" font-size="10.00">Menu::showBrowseMenu</text>
</a>
</g>
</g>
<!-- Node3&#45;&gt;Node4 -->
<g id="edge3" class="edge">
<title>Node3&#45;&gt;Node4</title>
<path fill="none" stroke="midnightblue" d="M786.79,-67.67C694.23,-74.05 532.82,-89.67 449.74,-100.46"/>
<polygon fill="midnightblue" stroke="midnightblue" points="787.16,-71.15 796.9,-66.99 786.69,-64.17 787.16,-71.15"/>
</g>
<!-- Node8 -->
<g id="node8" class="node">
<title>Node8</title>
<g id="a_node8"><a xlink:href="classMenu.html#aaef7622e532f3424a27fce4d16dbda47" target="_top" xlink:title=" ">
<polygon fill="none" stroke="black" points="652,-18.5 652,-37.5 761,-37.5 761,-18.5 652,-18.5"/>
<text text-anchor="middle" x="706.5" y="-25.5" font-family="Helvetica,sans-Serif" font-size="10.00">Menu::showWelcome</text>
</a>
</g>
</g>
<!-- Node3&#45;&gt;Node8 -->
<g id="edge23" class="edge">
<title>Node3&#45;&gt;Node8</title>
<path fill="none" stroke="midnightblue" d="M827.83,-53.24C808.98,-47.19 783.72,-40.4 761.21,-35.19"/>
<polygon fill="midnightblue" stroke="midnightblue" points="826.73,-56.56 837.33,-56.41 828.95,-49.92 826.73,-56.56"/>
</g>
<!-- Node4&#45;&gt;Node3 -->
<g id="edge21" class="edge">
<title>Node4&#45;&gt;Node3</title>
<path fill="none" stroke="midnightblue" d="M468.72,-108.19C561.59,-101.73 721.31,-86.24 803.79,-75.54"/>
<polygon fill="midnightblue" stroke="midnightblue" points="468.3,-104.71 458.56,-108.88 468.77,-111.7 468.3,-104.71"/>
</g>
<!-- Node5 -->
<g id="node5" class="node">
<title>Node5</title>
<g id="a_node5"><a xlink:href="classMenu.html#a2ecf65abb196d80c5a5c354155019a93" target="_top" xlink:title=" ">
<polygon fill="none" stroke="black" points="499,-38.5 499,-57.5 616,-57.5 616,-38.5 499,-38.5"/>
<text text-anchor="middle" x="557.5" y="-45.5" font-family="Helvetica,sans-Serif" font-size="10.00">Menu::showBuyerMenu</text>
</a>
</g>
</g>
<!-- Node4&#45;&gt;Node5 -->
<g id="edge4" class="edge">
<title>Node4&#45;&gt;Node5</title>
<path fill="none" stroke="midnightblue" d="M465.82,-96.82C500.52,-83.31 532.48,-68.16 547.6,-57.54"/>
<polygon fill="midnightblue" stroke="midnightblue" points="464.56,-93.56 456.47,-100.4 467.06,-100.1 464.56,-93.56"/>
</g>
<!-- Node10 -->
<g id="node10" class="node">
<title>Node10</title>
<g id="a_node10"><a xlink:href="classMenu.html#a8bdf4110581d8d8a82f6290f246201e7" target="_top" xlink:title=" ">
<polygon fill="none" stroke="black" points="162,-100.5 162,-119.5 293,-119.5 293,-100.5 162,-100.5"/>
<text text-anchor="middle" x="227.5" y="-107.5" font-family="Helvetica,sans-Serif" font-size="10.00">Menu::showCategoryMenu</text>
</a>
</g>
</g>
<!-- Node4&#45;&gt;Node10 -->
<g id="edge17" class="edge">
<title>Node4&#45;&gt;Node10</title>
<path fill="none" stroke="midnightblue" d="M323.17,-103.31C313.18,-103.21 302.97,-103.24 293.12,-103.4"/>
<polygon fill="midnightblue" stroke="midnightblue" points="323.42,-106.81 333.47,-103.46 323.53,-99.81 323.42,-106.81"/>
</g>
<!-- Node5&#45;&gt;Node3 -->
<g id="edge12" class="edge">
<title>Node5&#45;&gt;Node3</title>
<path fill="none" stroke="midnightblue" d="M626.23,-52.09C677.63,-55.2 747.63,-59.42 796.91,-62.4"/>
<polygon fill="midnightblue" stroke="midnightblue" points="626.4,-48.6 616.21,-51.49 625.98,-55.58 626.4,-48.6"/>
</g>
<!-- Node5&#45;&gt;Node4 -->
<g id="edge5" class="edge">
<title>Node5&#45;&gt;Node4</title>
<path fill="none" stroke="midnightblue" d="M508.88,-61.44C494.29,-67.47 478.1,-74.3 463,-80 444.1,-87.13 421.58,-93.94 408.33,-100.33"/>
<polygon fill="midnightblue" stroke="midnightblue" points="510.29,-64.65 518.21,-57.61 507.63,-58.17 510.29,-64.65"/>
</g>
<!-- Node5&#45;&gt;Node5 -->
<g id="edge6" class="edge">
<title>Node5&#45;&gt;Node5</title>
<path fill="none" stroke="midnightblue" d="M585.13,-66.65C583.97,-71.94 574.76,-76 557.5,-76 531.2,-76 523.59,-66.57 534.69,-57.76"/>
<polygon fill="midnightblue" stroke="midnightblue" points="588.15,-64.89 580.31,-57.76 581.99,-68.22 588.15,-64.89"/>
</g>
<!-- Node6 -->
<g id="node6" class="node">
<title>Node6</title>
<g id="a_node6"><a xlink:href="classMenu.html#a781c392fdcd203e436f5dc6e78f057a8" target="_top" xlink:title=" ">
<polygon fill="none" stroke="black" points="341,-42.5 341,-61.5 451,-61.5 451,-42.5 341,-42.5"/>
<text text-anchor="middle" x="396" y="-49.5" font-family="Helvetica,sans-Serif" font-size="10.00">Menu::showCartMenu</text>
</a>
</g>
</g>
<!-- Node5&#45;&gt;Node6 -->
<g id="edge7" class="edge">
<title>Node5&#45;&gt;Node6</title>
<path fill="none" stroke="midnightblue" d="M488.9,-43.02C476.26,-43.19 463.2,-43.6 451.04,-44.22"/>
<polygon fill="midnightblue" stroke="midnightblue" points="488.95,-46.52 498.92,-42.93 488.89,-39.52 488.95,-46.52"/>
</g>
<!-- Node7 -->
<g id="node7" class="node">
<title>Node7</title>
<g id="a_node7"><a xlink:href="classMenu.html#a3905222cc1c1ec7ed2dce13e16555c52" target="_top" xlink:title=" ">
<polygon fill="none" stroke="black" points="329,-4.5 329,-23.5 463,-23.5 463,-4.5 329,-4.5"/>
<text text-anchor="middle" x="396" y="-11.5" font-family="Helvetica,sans-Serif" font-size="10.00">Menu::showCheckoutMenu</text>
</a>
</g>
</g>
<!-- Node5&#45;&gt;Node7 -->
<g id="edge10" class="edge">
<title>Node5&#45;&gt;Node7</title>
<path fill="none" stroke="midnightblue" d="M524.56,-35.66C506.92,-30.87 484.33,-25.68 463.08,-21.43"/>
<polygon fill="midnightblue" stroke="midnightblue" points="523.75,-39.07 534.32,-38.43 525.65,-32.33 523.75,-39.07"/>
</g>
<!-- Node5&#45;&gt;Node8 -->
<g id="edge13" class="edge">
<title>Node5&#45;&gt;Node8</title>
<path fill="none" stroke="midnightblue" d="M626.33,-45.5C643.83,-43.23 661.75,-40.39 676.11,-37.53"/>
<polygon fill="midnightblue" stroke="midnightblue" points="625.61,-42.07 616.12,-46.77 626.47,-49.01 625.61,-42.07"/>
</g>
<!-- Node6&#45;&gt;Node5 -->
<g id="edge8" class="edge">
<title>Node6&#45;&gt;Node5</title>
<path fill="none" stroke="midnightblue" d="M461.33,-57.02C473.77,-56.9 486.72,-56.53 498.92,-55.96"/>
<polygon fill="midnightblue" stroke="midnightblue" points="461.02,-53.52 451.04,-57.07 461.06,-60.52 461.02,-53.52"/>
</g>
<!-- Node6&#45;&gt;Node6 -->
<g id="edge9" class="edge">
<title>Node6&#45;&gt;Node6</title>
<path fill="none" stroke="midnightblue" d="M425.94,-70.27C425.09,-75.74 415.11,-80 396,-80 367.56,-80 359.34,-70.57 371.34,-61.76"/>
<polygon fill="midnightblue" stroke="midnightblue" points="428.9,-68.41 420.66,-61.76 422.95,-72.1 428.9,-68.41"/>
</g>
<!-- Node7&#45;&gt;Node5 -->
<g id="edge11" class="edge">
<title>Node7&#45;&gt;Node5</title>
<path fill="none" stroke="midnightblue" d="M428.99,-26.35C449,-31.79 475.36,-37.73 498.92,-42.24"/>
<polygon fill="midnightblue" stroke="midnightblue" points="429.73,-22.92 419.16,-23.57 427.82,-29.66 429.73,-22.92"/>
</g>
<!-- Node8&#45;&gt;Node3 -->
<g id="edge16" class="edge">
<title>Node8&#45;&gt;Node3</title>
<path fill="none" stroke="midnightblue" d="M736.44,-40.85C753.59,-46.34 775.97,-52.43 796.75,-57.39"/>
<polygon fill="midnightblue" stroke="midnightblue" points="737.09,-37.38 726.5,-37.53 734.87,-44.02 737.09,-37.38"/>
</g>
<!-- Node8&#45;&gt;Node5 -->
<g id="edge15" class="edge">
<title>Node8&#45;&gt;Node5</title>
<path fill="none" stroke="midnightblue" d="M641.65,-29.99C622.99,-32.33 603.48,-35.37 588.06,-38.44"/>
<polygon fill="midnightblue" stroke="midnightblue" points="642.08,-33.46 651.6,-28.8 641.25,-26.51 642.08,-33.46"/>
</g>
<!-- Node9 -->
<g id="node9" class="node">
<title>Node9</title>
<g id="a_node9"><a xlink:href="classMenu.html#a323509e5b6f4dc00536e87efd65b8b94" target="_top" xlink:title=" ">
<polygon fill="none" stroke="black" points="523,-0.5 523,-19.5 592,-19.5 592,-0.5 523,-0.5"/>
<text text-anchor="middle" x="557.5" y="-7.5" font-family="Helvetica,sans-Serif" font-size="10.00">Menu::Menu</text>
</a>
</g>
</g>
<!-- Node8&#45;&gt;Node9 -->
<g id="edge14" class="edge">
<title>Node8&#45;&gt;Node9</title>
<path fill="none" stroke="midnightblue" d="M641.22,-20.13C624.37,-18.07 606.87,-15.92 592.32,-14.14"/>
<polygon fill="midnightblue" stroke="midnightblue" points="641.25,-23.66 651.6,-21.4 642.1,-16.71 641.25,-23.66"/>
</g>
<!-- Node10&#45;&gt;Node4 -->
<g id="edge18" class="edge">
<title>Node10&#45;&gt;Node4</title>
<path fill="none" stroke="midnightblue" d="M303.17,-116.72C313.31,-116.79 323.61,-116.73 333.47,-116.54"/>
<polygon fill="midnightblue" stroke="midnightblue" points="303.16,-113.22 293.12,-116.6 303.08,-120.22 303.16,-113.22"/>
</g>
<!-- Node11 -->
<g id="node11" class="node">
<title>Node11</title>
<g id="a_node11"><a xlink:href="classMenu.html#a957fada7140f67c43e3ee253ae863125" target="_top" xlink:title=" ">
<polygon fill="none" stroke="black" points="0,-100.5 0,-119.5 126,-119.5 126,-100.5 0,-100.5"/>
<text text-anchor="middle" x="63" y="-107.5" font-family="Helvetica,sans-Serif" font-size="10.00">Menu::showProductMenu</text>
</a>
</g>
</g>
<!-- Node10&#45;&gt;Node11 -->
<g id="edge19" class="edge">
<title>Node10&#45;&gt;Node11</title>
<path fill="none" stroke="midnightblue" d="M151.78,-103.27C143.19,-103.22 134.49,-103.27 126.09,-103.42"/>
<polygon fill="midnightblue" stroke="midnightblue" points="151.77,-106.77 161.81,-103.38 151.85,-99.77 151.77,-106.77"/>
</g>
<!-- Node11&#45;&gt;Node10 -->
<g id="edge20" class="edge">
<title>Node11&#45;&gt;Node10</title>
<path fill="none" stroke="midnightblue" d="M136.34,-116.71C144.83,-116.78 153.44,-116.75 161.81,-116.62"/>
<polygon fill="midnightblue" stroke="midnightblue" points="136.13,-113.21 126.09,-116.58 136.04,-120.21 136.13,-113.21"/>
</g>
</g>
</svg>
        <g id="navigator" transform="translate(0 0)" fill="#404254">
                <rect fill="#f2f5e9" fill-opacity="0.5" stroke="#606060" stroke-width=".5" x="0" y="0" width="60" height="60"/>
                <use id="zoomplus" xlink:href="#zoomPlus" x="17" y="9" onmousedown="handleZoom(evt,'in')"/>
                <use id="zoomminus" xlink:href="#zoomMin" x="42" y="9" onmousedown="handleZoom(evt,'out')"/>
                <use id="reset" xlink:href="#resetDef" x="30" y="36" onmousedown="handleReset()"/>
                <g id="arrowUp" xlink:href="#dirArrow" transform="translate(30 24)" onmousedown="handlePan(0,-1)">
                  <use xlink:href="#rim" fill="#404040">
                        <set attributeName="fill" to="#808080" begin="arrowUp.mouseover" end="arrowUp.mouseout"/>
                  </use>
                  <path fill="none" stroke="white" stroke-width="1.5" d="M0,-3.0v7 M-2.5,-0.5L0,-3.0L2.5,-0.5"/>
                </g>
                <g id="arrowRight" xlink:href="#dirArrow" transform="rotate(90) translate(36 -43)" onmousedown="handlePan(1,0)">
                  <use xlink:href="#rim" fill="#404040">
                        <set attributeName="fill" to="#808080" begin="arrowRight.mouseover" end="arrowRight.mouseout"/>
                  </use>
                  <path fill="none" stroke="white" stroke-width="1.5" d="M0,-3.0v7 M-2.5,-0.5L0,-3.0L2.5,-0.5"/>
                </g>
                <g id="arrowDown" xlink:href="#dirArrow" transform="rotate(180) translate(-30 -48)" onmousedown="handlePan(0,1)">
                  <use xlink:href="#rim" fill="#404040">
                        <set attributeName="fill" to="#808080" begin="arrowDown.mouseover" end="arrowDown.mouseout"/>
                  </use>
                  <path fill="none" stroke="white" stroke-width="1.5" d="M0,-3.0v7 M-2.5,-0.5L0,-3.0L2.5,-0.5"/>
                </g>
                <g id="arrowLeft" xlink:href="#dirArrow" transform="rotate(270) translate(-36 17)" onmousedown="handlePan(-1,0)">
                  <use xlink:href="#rim" fill="#404040">
                        <set attributeName="fill" to="#808080" begin="arrowLeft.mouseover" end="arrowLeft.mouseout"/>
                  </use>
                  <path fill="none" stroke="white" stroke-width="1.5" d="M0,-3.0v7 M-2.5,-0.5L0,-3.0L2.5,-0.5"/>
                </g>
        </g>
        <svg viewBox="0 0 15 15" width="100%" height="30px" preserveAspectRatio="xMaxYMin meet">
         <g id="arrow_out" transform="scale(0.3 0.3)">
          <a xlink:href="classEShop_a972be0f7e6945195d96f95240a68a967_icgraph_org.svg" target="_base">
           <rect id="button" ry="5" rx="5" y="6" x="6" height="38" width="38"
                fill="#f2f5e9" fill-opacity="0.5" stroke="#606060" stroke-width="1.0"/>
           <path id="arrow"
             d="M 11.500037,31.436501 C 11.940474,20.09759 22.043105,11.32322 32.158766,21.979434 L 37.068811,17.246167 C 37.068811,17.246167 37.088388,32 37.088388,32 L 22.160133,31.978069 C 22.160133,31.978069 26.997745,27.140456 26.997745,27.140456 C 18.528582,18.264221 13.291696,25.230495 11.500037,31.436501 z"
             style="fill:#404040;"/>
          </a>
         </g>
        </svg>
</svg>
