<?xml version="1.0" encoding="UTF-8" standalone="no"?>
<!DOCTYPE svg PUBLIC "-//W3C//DTD SVG 1.1//EN"
 "http://www.w3.org/Graphics/SVG/1.1/DTD/svg11.dtd">
<!-- Generated by graphviz version 2.49.3 (20211027.1534)
 -->
<!-- Title: Buyer::getItemOrder Pages: 1 -->
<svg width="400pt" height="28pt"
 viewBox="0.00 0.00 400.00 28.00" xmlns="http://www.w3.org/2000/svg" xmlns:xlink="http://www.w3.org/1999/xlink">
<g id="graph0" class="graph" transform="scale(1 1) rotate(0) translate(4 24)">
<title>Buyer::getItemOrder</title>
<!-- Node1 -->
<g id="node1" class="node">
<title>Node1</title>
<g id="a_node1"><a xlink:title="Wrapper to ShoppingCart::getItemOrder()">
<polygon fill="#bfbfbf" stroke="black" points="0,-0.5 0,-19.5 103,-19.5 103,-0.5 0,-0.5"/>
<text text-anchor="middle" x="51.5" y="-7.5" font-family="Helvetica,sans-Serif" font-size="10.00">Buyer::getItemOrder</text>
</a>
</g>
</g>
<!-- Node2 -->
<g id="node2" class="node">
<title>Node2</title>
<g id="a_node2"><a xlink:href="classShoppingCart.html#a7b10eca9cc2f0ea5fd617c8f28b4dfd4" target="_top" xlink:title="Get the order information of an item in the cart.">
<polygon fill="none" stroke="black" points="139,-0.5 139,-19.5 276,-19.5 276,-0.5 139,-0.5"/>
<text text-anchor="middle" x="207.5" y="-7.5" font-family="Helvetica,sans-Serif" font-size="10.00">ShoppingCart::getItemOrder</text>
</a>
</g>
</g>
<!-- Node1&#45;&gt;Node2 -->
<g id="edge1" class="edge">
<title>Node1&#45;&gt;Node2</title>
<path fill="none" stroke="midnightblue" d="M103.35,-10C111.54,-10 120.17,-10 128.82,-10"/>
<polygon fill="midnightblue" stroke="midnightblue" points="128.94,-13.5 138.94,-10 128.94,-6.5 128.94,-13.5"/>
</g>
<!-- Node3 -->
<g id="node3" class="node">
<title>Node3</title>
<g id="a_node3"><a xlink:href="classItem.html#a63d7f2148b699e539aae354b01559811" target="_top" xlink:title="Get the Item&#39;s name.">
<polygon fill="none" stroke="black" points="312,-0.5 312,-19.5 392,-19.5 392,-0.5 312,-0.5"/>
<text text-anchor="middle" x="352" y="-7.5" font-family="Helvetica,sans-Serif" font-size="10.00">Item::getName</text>
</a>
</g>
</g>
<!-- Node2&#45;&gt;Node3 -->
<g id="edge2" class="edge">
<title>Node2&#45;&gt;Node3</title>
<path fill="none" stroke="midnightblue" d="M276.41,-10C284.98,-10 293.61,-10 301.81,-10"/>
<polygon fill="midnightblue" stroke="midnightblue" points="301.93,-13.5 311.93,-10 301.93,-6.5 301.93,-13.5"/>
</g>
</g>
</svg>
