<?xml version="1.0" encoding="UTF-8" standalone="no"?>
<!DOCTYPE svg PUBLIC "-//W3C//DTD SVG 1.1//EN"
 "http://www.w3.org/Graphics/SVG/1.1/DTD/svg11.dtd">
<!-- Generated by graphviz version 2.49.3 (20211027.1534)
 -->
<!-- Title: ShoppingCart::showCart Pages: 1 -->
<svg width="484pt" height="66pt"
 viewBox="0.00 0.00 484.00 66.00" xmlns="http://www.w3.org/2000/svg" xmlns:xlink="http://www.w3.org/1999/xlink">
<g id="graph0" class="graph" transform="scale(1 1) rotate(0) translate(4 62)">
<title>ShoppingCart::showCart</title>
<!-- Node1 -->
<g id="node1" class="node">
<title>Node1</title>
<g id="a_node1"><a xlink:title="Show the contents of the cart.">
<polygon fill="#bfbfbf" stroke="black" points="0,-19.5 0,-38.5 121,-38.5 121,-19.5 0,-19.5"/>
<text text-anchor="middle" x="60.5" y="-26.5" font-family="Helvetica,sans-Serif" font-size="10.00">ShoppingCart::showCart</text>
</a>
</g>
</g>
<!-- Node2 -->
<g id="node2" class="node">
<title>Node2</title>
<g id="a_node2"><a xlink:href="classShoppingCart.html#aed1f25cafeacfa931c9c2b0b0cd6c442" target="_top" xlink:title="Calculates the cost of the courier.">
<polygon fill="none" stroke="black" points="157,-0.5 157,-19.5 306,-19.5 306,-0.5 157,-0.5"/>
<text text-anchor="middle" x="231.5" y="-7.5" font-family="Helvetica,sans-Serif" font-size="10.00">ShoppingCart::calculateCourier</text>
</a>
</g>
</g>
<!-- Node1&#45;&gt;Node2 -->
<g id="edge1" class="edge">
<title>Node1&#45;&gt;Node2</title>
<path fill="none" stroke="midnightblue" d="M121.08,-22.3C129.42,-21.36 138.1,-20.39 146.78,-19.41"/>
<polygon fill="midnightblue" stroke="midnightblue" points="147.39,-22.87 156.94,-18.27 146.61,-15.91 147.39,-22.87"/>
</g>
<!-- Node3 -->
<g id="node3" class="node">
<title>Node3</title>
<g id="a_node3"><a xlink:href="classShoppingCart.html#aefd629209efffec246165e50efaf40d3" target="_top" xlink:title="Calculates the cost of the order.">
<polygon fill="none" stroke="black" points="342,-38.5 342,-57.5 476,-57.5 476,-38.5 342,-38.5"/>
<text text-anchor="middle" x="409" y="-45.5" font-family="Helvetica,sans-Serif" font-size="10.00">ShoppingCart::calculateNet</text>
</a>
</g>
</g>
<!-- Node1&#45;&gt;Node3 -->
<g id="edge4" class="edge">
<title>Node1&#45;&gt;Node3</title>
<path fill="none" stroke="midnightblue" d="M121.07,-32.27C179.26,-35.46 268.09,-40.33 331.49,-43.8"/>
<polygon fill="midnightblue" stroke="midnightblue" points="331.66,-47.32 341.83,-44.37 332.04,-40.33 331.66,-47.32"/>
</g>
<!-- Node2&#45;&gt;Node3 -->
<g id="edge2" class="edge">
<title>Node2&#45;&gt;Node3</title>
<path fill="none" stroke="midnightblue" d="M276.79,-19.59C300.26,-24.67 329.28,-30.96 354.06,-36.32"/>
<polygon fill="midnightblue" stroke="midnightblue" points="353.52,-39.78 364.03,-38.48 355,-32.94 353.52,-39.78"/>
</g>
<!-- Node4 -->
<g id="node4" class="node">
<title>Node4</title>
<g id="a_node4"><a xlink:href="classBuyer.html#a3a482baedbb2d8fc1fde5dee7a435102" target="_top" xlink:title="Get the Buyer&#39;s category.">
<polygon fill="none" stroke="black" points="360,-0.5 360,-19.5 458,-19.5 458,-0.5 360,-0.5"/>
<text text-anchor="middle" x="409" y="-7.5" font-family="Helvetica,sans-Serif" font-size="10.00">Buyer::getCategory</text>
</a>
</g>
</g>
<!-- Node2&#45;&gt;Node4 -->
<g id="edge3" class="edge">
<title>Node2&#45;&gt;Node4</title>
<path fill="none" stroke="midnightblue" d="M306.16,-10C320.59,-10 335.54,-10 349.39,-10"/>
<polygon fill="midnightblue" stroke="midnightblue" points="349.75,-13.5 359.75,-10 349.75,-6.5 349.75,-13.5"/>
</g>
</g>
</svg>
