<?xml version="1.0" encoding="UTF-8" standalone="no"?>
<!DOCTYPE svg PUBLIC "-//W3C//DTD SVG 1.1//EN"
 "http://www.w3.org/Graphics/SVG/1.1/DTD/svg11.dtd">
<!-- Generated by graphviz version 2.49.3 (20211027.1534)
 -->
<!-- Title: Pencil::Pencil Pages: 1 -->
<svg width="311pt" height="142pt"
 viewBox="0.00 0.00 311.00 142.00" xmlns="http://www.w3.org/2000/svg" xmlns:xlink="http://www.w3.org/1999/xlink">
<g id="graph0" class="graph" transform="scale(1 1) rotate(0) translate(4 138)">
<title>Pencil::Pencil</title>
<!-- Node1 -->
<g id="node1" class="node">
<title>Node1</title>
<g id="a_node1"><a xlink:title="Constructor for Pencil.">
<polygon fill="#bfbfbf" stroke="black" points="0,-57.5 0,-76.5 75,-76.5 75,-57.5 0,-57.5"/>
<text text-anchor="middle" x="37.5" y="-64.5" font-family="Helvetica,sans-Serif" font-size="10.00">Pencil::Pencil</text>
</a>
</g>
</g>
<!-- Node2 -->
<g id="node2" class="node">
<title>Node2</title>
<g id="a_node2"><a xlink:href="classItem.html#af6517f0488c9be814f5c6de8bb2a8f1f" target="_top" xlink:title="Set the Item&#39;s category.">
<polygon fill="none" stroke="black" points="112,-114.5 112,-133.5 204,-133.5 204,-114.5 112,-114.5"/>
<text text-anchor="middle" x="158" y="-121.5" font-family="Helvetica,sans-Serif" font-size="10.00">Item::setCategory</text>
</a>
</g>
</g>
<!-- Node1&#45;&gt;Node2 -->
<g id="edge1" class="edge">
<title>Node1&#45;&gt;Node2</title>
<path fill="none" stroke="midnightblue" d="M55.56,-76.51C70.12,-84.48 91.69,-95.97 111,-105 114.87,-106.81 118.97,-108.63 123.06,-110.39"/>
<polygon fill="midnightblue" stroke="midnightblue" points="121.89,-113.7 132.47,-114.35 124.61,-107.25 121.89,-113.7"/>
</g>
<!-- Node3 -->
<g id="node3" class="node">
<title>Node3</title>
<g id="a_node3"><a xlink:href="classPencil.html#a4097f82beeccd6a09fcca4f21777e1d7" target="_top" xlink:title="Override of Item::setID()">
<polygon fill="none" stroke="black" points="123,-76.5 123,-95.5 193,-95.5 193,-76.5 123,-76.5"/>
<text text-anchor="middle" x="158" y="-83.5" font-family="Helvetica,sans-Serif" font-size="10.00">Pencil::setId</text>
</a>
</g>
</g>
<!-- Node1&#45;&gt;Node3 -->
<g id="edge2" class="edge">
<title>Node1&#45;&gt;Node3</title>
<path fill="none" stroke="midnightblue" d="M75.02,-72.86C86.92,-74.76 100.26,-76.9 112.67,-78.89"/>
<polygon fill="midnightblue" stroke="midnightblue" points="112.4,-82.39 122.82,-80.52 113.5,-75.48 112.4,-82.39"/>
</g>
<!-- Node5 -->
<g id="node5" class="node">
<title>Node5</title>
<g id="a_node5"><a xlink:href="classPencil.html#a110452522f842c0717fd421a26ded1c2" target="_top" xlink:title="Set the tip size of the Pencil.">
<polygon fill="none" stroke="black" points="111,-38.5 111,-57.5 205,-57.5 205,-38.5 111,-38.5"/>
<text text-anchor="middle" x="158" y="-45.5" font-family="Helvetica,sans-Serif" font-size="10.00">Pencil::setTipSize</text>
</a>
</g>
</g>
<!-- Node1&#45;&gt;Node5 -->
<g id="edge4" class="edge">
<title>Node1&#45;&gt;Node5</title>
<path fill="none" stroke="midnightblue" d="M75.02,-61.14C83.13,-59.84 91.92,-58.43 100.62,-57.04"/>
<polygon fill="midnightblue" stroke="midnightblue" points="101.43,-60.45 110.75,-55.42 100.32,-53.54 101.43,-60.45"/>
</g>
<!-- Node6 -->
<g id="node6" class="node">
<title>Node6</title>
<g id="a_node6"><a xlink:href="classPencil.html#ac8dfd709ec31ee951895e6748a2e2d1d" target="_top" xlink:title="Set the type of the Pencil.">
<polygon fill="none" stroke="black" points="116.5,-0.5 116.5,-19.5 199.5,-19.5 199.5,-0.5 116.5,-0.5"/>
<text text-anchor="middle" x="158" y="-7.5" font-family="Helvetica,sans-Serif" font-size="10.00">Pencil::setType</text>
</a>
</g>
</g>
<!-- Node1&#45;&gt;Node6 -->
<g id="edge5" class="edge">
<title>Node1&#45;&gt;Node6</title>
<path fill="none" stroke="midnightblue" d="M55.56,-57.49C70.12,-49.52 91.69,-38.03 111,-29 114.87,-27.19 118.97,-25.37 123.06,-23.61"/>
<polygon fill="midnightblue" stroke="midnightblue" points="124.61,-26.75 132.47,-19.65 121.89,-20.3 124.61,-26.75"/>
</g>
<!-- Node4 -->
<g id="node4" class="node">
<title>Node4</title>
<g id="a_node4"><a xlink:href="classItem.html#a92fda3b8072f8ad7bcc3e406785f9ad5" target="_top" xlink:title="Set the Item&#39;s ID.">
<polygon fill="none" stroke="black" points="241,-76.5 241,-95.5 303,-95.5 303,-76.5 241,-76.5"/>
<text text-anchor="middle" x="272" y="-83.5" font-family="Helvetica,sans-Serif" font-size="10.00">Item::setId</text>
</a>
</g>
</g>
<!-- Node3&#45;&gt;Node4 -->
<g id="edge3" class="edge">
<title>Node3&#45;&gt;Node4</title>
<path fill="none" stroke="midnightblue" d="M193.21,-86C205.07,-86 218.48,-86 230.78,-86"/>
<polygon fill="midnightblue" stroke="midnightblue" points="230.79,-89.5 240.79,-86 230.79,-82.5 230.79,-89.5"/>
</g>
</g>
</svg>
