<?xml version="1.0" encoding="UTF-8" standalone="no"?>
<!DOCTYPE svg PUBLIC "-//W3C//DTD SVG 1.1//EN"
 "http://www.w3.org/Graphics/SVG/1.1/DTD/svg11.dtd">
<!-- Generated by graphviz version 2.49.3 (20211027.1534)
 -->
<!-- Title: Buyer::clearCart Pages: 1 -->
<!--zoomable 175 -->
<svg id="main" version="1.1" xmlns="http://www.w3.org/2000/svg" xmlns:xlink="http://www.w3.org/1999/xlink" xml:space="preserve" onload="init(evt)">
<style type="text/css"><![CDATA[
.edge:hover path { stroke: red; }
.edge:hover polygon { stroke: red; fill: red; }
]]></style>
<script type="text/javascript"><![CDATA[
var edges = document.getElementsByTagName('g');
if (edges && edges.length) {
  for (var i=0;i<edges.length;i++) {
    if (edges[i].id.substr(0,4)=='edge') {
      edges[i].setAttribute('class','edge');
    }
  }
}
]]></script>
        <defs>
                <circle id="rim" cx="0" cy="0" r="7"/>
                <circle id="rim2" cx="0" cy="0" r="3.5"/>
                <g id="zoomPlus">
                        <use xlink:href="#rim" fill="#404040">
                                <set attributeName="fill" to="#808080" begin="zoomplus.mouseover" end="zoomplus.mouseout"/>
                        </use>
                        <path d="M-4,0h8M0,-4v8" fill="none" stroke="white" stroke-width="1.5" pointer-events="none"/>
                </g>
                <g id="zoomMin">
                        <use xlink:href="#rim" fill="#404040">
                                <set attributeName="fill" to="#808080" begin="zoomminus.mouseover" end="zoomminus.mouseout"/>
                        </use>
                        <path d="M-4,0h8" fill="none" stroke="white" stroke-width="1.5" pointer-events="none"/>
                </g>
                <g id="dirArrow">
                        <path fill="none" stroke="white" stroke-width="1.5" d="M0,-3.0v7 M-2.5,-0.5L0,-3.0L2.5,-0.5"/>
                </g>
               <g id="resetDef">
                       <use xlink:href="#rim2" fill="#404040">
                               <set attributeName="fill" to="#808080" begin="reset.mouseover" end="reset.mouseout"/>
                       </use>
               </g>
        </defs>

<script type="text/javascript">
var viewWidth = 996;
var viewHeight = 175;
var sectionId = 'dynsection-7';
</script>
<script xlink:href="svgpan.js"/>
<svg id="graph" class="graph">
<g id="viewport">
<title>Buyer::clearCart</title>
<!-- Node1 -->
<g id="node1" class="node">
<title>Node1</title>
<g id="a_node1"><a xlink:title="Wrapper to ShoppingCart::clearCart()">
<polygon fill="#bfbfbf" stroke="black" points="903,-47.5 903,-66.5 988,-66.5 988,-47.5 903,-47.5"/>
<text text-anchor="middle" x="945.5" y="-54.5" font-family="Helvetica,sans-Serif" font-size="10.00">Buyer::clearCart</text>
</a>
</g>
</g>
<!-- Node2 -->
<g id="node2" class="node">
<title>Node2</title>
<g id="a_node2"><a xlink:href="classMenu.html#a781c392fdcd203e436f5dc6e78f057a8" target="_top" xlink:title=" ">
<polygon fill="none" stroke="black" points="757,-47.5 757,-66.5 867,-66.5 867,-47.5 757,-47.5"/>
<text text-anchor="middle" x="812" y="-54.5" font-family="Helvetica,sans-Serif" font-size="10.00">Menu::showCartMenu</text>
</a>
</g>
</g>
<!-- Node1&#45;&gt;Node2 -->
<g id="edge1" class="edge">
<title>Node1&#45;&gt;Node2</title>
<path fill="none" stroke="midnightblue" d="M892.87,-57C884.49,-57 875.78,-57 867.34,-57"/>
<polygon fill="midnightblue" stroke="midnightblue" points="892.89,-60.5 902.89,-57 892.89,-53.5 892.89,-60.5"/>
</g>
<!-- Node2&#45;&gt;Node2 -->
<g id="edge24" class="edge">
<title>Node2&#45;&gt;Node2</title>
<path fill="none" stroke="midnightblue" d="M836.55,-76.03C835.21,-81.13 827.03,-85 812,-85 788.54,-85 781.76,-75.57 791.65,-66.76"/>
<polygon fill="midnightblue" stroke="midnightblue" points="839.67,-74.42 832.35,-66.76 833.29,-77.31 839.67,-74.42"/>
</g>
<!-- Node3 -->
<g id="node3" class="node">
<title>Node3</title>
<g id="a_node3"><a xlink:href="classMenu.html#a2ecf65abb196d80c5a5c354155019a93" target="_top" xlink:title=" ">
<polygon fill="none" stroke="black" points="604,-47.5 604,-66.5 721,-66.5 721,-47.5 604,-47.5"/>
<text text-anchor="middle" x="662.5" y="-54.5" font-family="Helvetica,sans-Serif" font-size="10.00">Menu::showBuyerMenu</text>
</a>
</g>
</g>
<!-- Node2&#45;&gt;Node3 -->
<g id="edge2" class="edge">
<title>Node2&#45;&gt;Node3</title>
<path fill="none" stroke="midnightblue" d="M746.64,-50.3C738.13,-50.21 729.44,-50.24 721.05,-50.4"/>
<polygon fill="midnightblue" stroke="midnightblue" points="746.86,-53.8 756.91,-50.47 746.97,-46.8 746.86,-53.8"/>
</g>
<!-- Node3&#45;&gt;Node2 -->
<g id="edge19" class="edge">
<title>Node3&#45;&gt;Node2</title>
<path fill="none" stroke="midnightblue" d="M731.12,-63.73C739.76,-63.79 748.52,-63.72 756.91,-63.53"/>
<polygon fill="midnightblue" stroke="midnightblue" points="731.1,-60.23 721.05,-63.6 731.01,-67.23 731.1,-60.23"/>
</g>
<!-- Node3&#45;&gt;Node3 -->
<g id="edge18" class="edge">
<title>Node3&#45;&gt;Node3</title>
<path fill="none" stroke="midnightblue" d="M690.13,-75.65C688.97,-80.94 679.76,-85 662.5,-85 636.2,-85 628.59,-75.57 639.69,-66.76"/>
<polygon fill="midnightblue" stroke="midnightblue" points="693.15,-73.89 685.31,-66.76 686.99,-77.22 693.15,-73.89"/>
</g>
<!-- Node4 -->
<g id="node4" class="node">
<title>Node4</title>
<g id="a_node4"><a xlink:href="classMenu.html#a1de78dc75d7de7db8bce09a70dbbf77f" target="_top" xlink:title=" ">
<polygon fill="none" stroke="black" points="438.5,-132.5 438.5,-151.5 563.5,-151.5 563.5,-132.5 438.5,-132.5"/>
<text text-anchor="middle" x="501" y="-139.5" font-family="Helvetica,sans-Serif" font-size="10.00">Menu::showBrowseMenu</text>
</a>
</g>
</g>
<!-- Node3&#45;&gt;Node4 -->
<g id="edge3" class="edge">
<title>Node3&#45;&gt;Node4</title>
<path fill="none" stroke="midnightblue" d="M630.21,-72.06C612.54,-83.33 589.7,-98.15 568,-109 549.46,-118.27 526.44,-125.81 513.06,-132.47"/>
<polygon fill="midnightblue" stroke="midnightblue" points="632.36,-74.84 638.94,-66.54 628.62,-68.93 632.36,-74.84"/>
</g>
<!-- Node7 -->
<g id="node7" class="node">
<title>Node7</title>
<g id="a_node7"><a xlink:href="classMenu.html#a6a602f7f37917ae9582719a89246b73b" target="_top" xlink:title=" ">
<polygon fill="none" stroke="black" points="272,-94.5 272,-113.5 393,-113.5 393,-94.5 272,-94.5"/>
<text text-anchor="middle" x="332.5" y="-101.5" font-family="Helvetica,sans-Serif" font-size="10.00">Menu::showOwnerMenu</text>
</a>
</g>
</g>
<!-- Node3&#45;&gt;Node7 -->
<g id="edge22" class="edge">
<title>Node3&#45;&gt;Node7</title>
<path fill="none" stroke="midnightblue" d="M617.65,-69.12C602.08,-73.07 584.35,-77.17 568,-80 508.93,-90.24 440.67,-96.62 393.08,-100.2"/>
<polygon fill="midnightblue" stroke="midnightblue" points="618.74,-72.46 627.55,-66.56 616.99,-65.68 618.74,-72.46"/>
</g>
<!-- Node9 -->
<g id="node9" class="node">
<title>Node9</title>
<g id="a_node9"><a xlink:href="classMenu.html#aaef7622e532f3424a27fce4d16dbda47" target="_top" xlink:title=" ">
<polygon fill="none" stroke="black" points="113.5,-51.5 113.5,-70.5 222.5,-70.5 222.5,-51.5 113.5,-51.5"/>
<text text-anchor="middle" x="168" y="-58.5" font-family="Helvetica,sans-Serif" font-size="10.00">Menu::showWelcome</text>
</a>
</g>
</g>
<!-- Node3&#45;&gt;Node9 -->
<g id="edge23" class="edge">
<title>Node3&#45;&gt;Node9</title>
<path fill="none" stroke="midnightblue" d="M593.36,-52.72C494.34,-50.83 312.69,-52.45 222.6,-56.16"/>
<polygon fill="midnightblue" stroke="midnightblue" points="593.48,-56.22 603.56,-52.93 593.63,-49.22 593.48,-56.22"/>
</g>
<!-- Node11 -->
<g id="node11" class="node">
<title>Node11</title>
<g id="a_node11"><a xlink:href="classMenu.html#a3905222cc1c1ec7ed2dce13e16555c52" target="_top" xlink:title=" ">
<polygon fill="none" stroke="black" points="434,-0.5 434,-19.5 568,-19.5 568,-0.5 434,-0.5"/>
<text text-anchor="middle" x="501" y="-7.5" font-family="Helvetica,sans-Serif" font-size="10.00">Menu::showCheckoutMenu</text>
</a>
</g>
</g>
<!-- Node3&#45;&gt;Node11 -->
<g id="edge20" class="edge">
<title>Node3&#45;&gt;Node11</title>
<path fill="none" stroke="midnightblue" d="M634.71,-43.91C613.31,-36.1 582.62,-26.64 556.14,-19.52"/>
<polygon fill="midnightblue" stroke="midnightblue" points="633.54,-47.21 644.13,-47.48 636.02,-40.66 633.54,-47.21"/>
</g>
<!-- Node4&#45;&gt;Node3 -->
<g id="edge4" class="edge">
<title>Node4&#45;&gt;Node3</title>
<path fill="none" stroke="midnightblue" d="M565.47,-128.24C566.32,-127.83 567.16,-127.42 568,-127 602.68,-109.67 640.24,-82.19 655.01,-66.7"/>
<polygon fill="midnightblue" stroke="midnightblue" points="563.78,-125.16 556.1,-132.46 566.66,-131.54 563.78,-125.16"/>
</g>
<!-- Node5 -->
<g id="node5" class="node">
<title>Node5</title>
<g id="a_node5"><a xlink:href="classMenu.html#a8bdf4110581d8d8a82f6290f246201e7" target="_top" xlink:title=" ">
<polygon fill="none" stroke="black" points="267,-139.5 267,-158.5 398,-158.5 398,-139.5 267,-139.5"/>
<text text-anchor="middle" x="332.5" y="-146.5" font-family="Helvetica,sans-Serif" font-size="10.00">Menu::showCategoryMenu</text>
</a>
</g>
</g>
<!-- Node4&#45;&gt;Node5 -->
<g id="edge5" class="edge">
<title>Node4&#45;&gt;Node5</title>
<path fill="none" stroke="midnightblue" d="M428.17,-138.33C418.18,-138.65 407.97,-139.11 398.12,-139.69"/>
<polygon fill="midnightblue" stroke="midnightblue" points="428.57,-141.82 438.47,-138.05 428.38,-134.82 428.57,-141.82"/>
</g>
<!-- Node4&#45;&gt;Node7 -->
<g id="edge9" class="edge">
<title>Node4&#45;&gt;Node7</title>
<path fill="none" stroke="midnightblue" d="M468.79,-129.47C447.54,-123.34 418.73,-116.4 393.15,-111.11"/>
<polygon fill="midnightblue" stroke="midnightblue" points="467.99,-132.89 478.57,-132.41 470,-126.18 467.99,-132.89"/>
</g>
<!-- Node5&#45;&gt;Node4 -->
<g id="edge6" class="edge">
<title>Node5&#45;&gt;Node4</title>
<path fill="none" stroke="midnightblue" d="M408.17,-152.58C418.31,-152.23 428.61,-151.74 438.47,-151.13"/>
<polygon fill="midnightblue" stroke="midnightblue" points="408.01,-149.08 398.12,-152.88 408.22,-156.08 408.01,-149.08"/>
</g>
<!-- Node6 -->
<g id="node6" class="node">
<title>Node6</title>
<g id="a_node6"><a xlink:href="classMenu.html#a957fada7140f67c43e3ee253ae863125" target="_top" xlink:title=" ">
<polygon fill="none" stroke="black" points="105,-147.5 105,-166.5 231,-166.5 231,-147.5 105,-147.5"/>
<text text-anchor="middle" x="168" y="-154.5" font-family="Helvetica,sans-Serif" font-size="10.00">Menu::showProductMenu</text>
</a>
</g>
</g>
<!-- Node5&#45;&gt;Node6 -->
<g id="edge7" class="edge">
<title>Node5&#45;&gt;Node6</title>
<path fill="none" stroke="midnightblue" d="M256.55,-145.96C247.4,-146.36 238.14,-146.87 229.25,-147.49"/>
<polygon fill="midnightblue" stroke="midnightblue" points="256.95,-149.45 266.81,-145.56 256.68,-142.45 256.95,-149.45"/>
</g>
<!-- Node6&#45;&gt;Node5 -->
<g id="edge8" class="edge">
<title>Node6&#45;&gt;Node5</title>
<path fill="none" stroke="midnightblue" d="M241.4,-160.15C251.29,-159.74 261.35,-159.19 270.99,-158.53"/>
<polygon fill="midnightblue" stroke="midnightblue" points="241.05,-156.66 231.19,-160.52 241.31,-163.66 241.05,-156.66"/>
</g>
<!-- Node7&#45;&gt;Node4 -->
<g id="edge10" class="edge">
<title>Node7&#45;&gt;Node4</title>
<path fill="none" stroke="midnightblue" d="M364.85,-116.57C385.57,-122.54 413.43,-129.28 438.47,-134.5"/>
<polygon fill="midnightblue" stroke="midnightblue" points="365.59,-113.14 355,-113.62 363.58,-119.84 365.59,-113.14"/>
</g>
<!-- Node8 -->
<g id="node8" class="node">
<title>Node8</title>
<g id="a_node8"><a xlink:href="classMenu.html#a788512183de460d13b8a2dfb571c03f2" target="_top" xlink:title=" ">
<polygon fill="none" stroke="black" points="107.5,-91.5 107.5,-110.5 228.5,-110.5 228.5,-91.5 107.5,-91.5"/>
<text text-anchor="middle" x="168" y="-98.5" font-family="Helvetica,sans-Serif" font-size="10.00">Menu::showStatusMenu</text>
</a>
</g>
</g>
<!-- Node7&#45;&gt;Node8 -->
<g id="edge11" class="edge">
<title>Node7&#45;&gt;Node8</title>
<path fill="none" stroke="midnightblue" d="M261.85,-96.03C250.77,-95.7 239.4,-95.55 228.58,-95.57"/>
<polygon fill="midnightblue" stroke="midnightblue" points="261.8,-99.53 271.91,-96.37 262.04,-92.53 261.8,-99.53"/>
</g>
<!-- Node7&#45;&gt;Node9 -->
<g id="edge14" class="edge">
<title>Node7&#45;&gt;Node9</title>
<path fill="none" stroke="midnightblue" d="M303.05,-91.2C280.87,-83.86 249.42,-75.16 222.56,-68.78"/>
<polygon fill="midnightblue" stroke="midnightblue" points="301.95,-94.52 312.54,-94.46 304.22,-87.9 301.95,-94.52"/>
</g>
<!-- Node8&#45;&gt;Node7 -->
<g id="edge12" class="edge">
<title>Node8&#45;&gt;Node7</title>
<path fill="none" stroke="midnightblue" d="M238.65,-108.97C249.72,-109.3 261.09,-109.45 271.91,-109.43"/>
<polygon fill="midnightblue" stroke="midnightblue" points="238.69,-105.47 228.58,-108.63 238.45,-112.47 238.69,-105.47"/>
</g>
<!-- Node8&#45;&gt;Node8 -->
<g id="edge13" class="edge">
<title>Node8&#45;&gt;Node8</title>
<path fill="none" stroke="midnightblue" d="M192.55,-120.03C191.21,-125.13 183.03,-129 168,-129 144.54,-129 137.76,-119.57 147.65,-110.76"/>
<polygon fill="midnightblue" stroke="midnightblue" points="195.67,-118.42 188.35,-110.76 189.29,-121.31 195.67,-118.42"/>
</g>
<!-- Node9&#45;&gt;Node3 -->
<g id="edge16" class="edge">
<title>Node9&#45;&gt;Node3</title>
<path fill="none" stroke="midnightblue" d="M232.79,-65.2C329.22,-67.18 510.7,-65.65 603.56,-62.01"/>
<polygon fill="midnightblue" stroke="midnightblue" points="232.67,-61.69 222.6,-64.96 232.51,-68.69 232.67,-61.69"/>
</g>
<!-- Node9&#45;&gt;Node7 -->
<g id="edge17" class="edge">
<title>Node9&#45;&gt;Node7</title>
<path fill="none" stroke="midnightblue" d="M197.87,-73.94C218.38,-80.71 246.65,-88.6 271.91,-94.76"/>
<polygon fill="midnightblue" stroke="midnightblue" points="198.78,-70.56 188.19,-70.62 196.51,-77.18 198.78,-70.56"/>
</g>
<!-- Node10 -->
<g id="node10" class="node">
<title>Node10</title>
<g id="a_node10"><a xlink:href="classMenu.html#a323509e5b6f4dc00536e87efd65b8b94" target="_top" xlink:title=" ">
<polygon fill="none" stroke="black" points="0,-51.5 0,-70.5 69,-70.5 69,-51.5 0,-51.5"/>
<text text-anchor="middle" x="34.5" y="-58.5" font-family="Helvetica,sans-Serif" font-size="10.00">Menu::Menu</text>
</a>
</g>
</g>
<!-- Node9&#45;&gt;Node10 -->
<g id="edge15" class="edge">
<title>Node9&#45;&gt;Node10</title>
<path fill="none" stroke="midnightblue" d="M102.92,-61C91.23,-61 79.47,-61 69.12,-61"/>
<polygon fill="midnightblue" stroke="midnightblue" points="103.13,-64.5 113.13,-61 103.13,-57.5 103.13,-64.5"/>
</g>
<!-- Node11&#45;&gt;Node3 -->
<g id="edge21" class="edge">
<title>Node11&#45;&gt;Node3</title>
<path fill="none" stroke="midnightblue" d="M528.97,-23.16C550.28,-30.93 580.72,-40.31 607.06,-47.4"/>
<polygon fill="midnightblue" stroke="midnightblue" points="530.18,-19.87 519.58,-19.6 527.7,-26.42 530.18,-19.87"/>
</g>
</g>
</svg>
        <g id="navigator" transform="translate(0 0)" fill="#404254">
                <rect fill="#f2f5e9" fill-opacity="0.5" stroke="#606060" stroke-width=".5" x="0" y="0" width="60" height="60"/>
                <use id="zoomplus" xlink:href="#zoomPlus" x="17" y="9" onmousedown="handleZoom(evt,'in')"/>
                <use id="zoomminus" xlink:href="#zoomMin" x="42" y="9" onmousedown="handleZoom(evt,'out')"/>
                <use id="reset" xlink:href="#resetDef" x="30" y="36" onmousedown="handleReset()"/>
                <g id="arrowUp" xlink:href="#dirArrow" transform="translate(30 24)" onmousedown="handlePan(0,-1)">
                  <use xlink:href="#rim" fill="#404040">
                        <set attributeName="fill" to="#808080" begin="arrowUp.mouseover" end="arrowUp.mouseout"/>
                  </use>
                  <path fill="none" stroke="white" stroke-width="1.5" d="M0,-3.0v7 M-2.5,-0.5L0,-3.0L2.5,-0.5"/>
                </g>
                <g id="arrowRight" xlink:href="#dirArrow" transform="rotate(90) translate(36 -43)" onmousedown="handlePan(1,0)">
                  <use xlink:href="#rim" fill="#404040">
                        <set attributeName="fill" to="#808080" begin="arrowRight.mouseover" end="arrowRight.mouseout"/>
                  </use>
                  <path fill="none" stroke="white" stroke-width="1.5" d="M0,-3.0v7 M-2.5,-0.5L0,-3.0L2.5,-0.5"/>
                </g>
                <g id="arrowDown" xlink:href="#dirArrow" transform="rotate(180) translate(-30 -48)" onmousedown="handlePan(0,1)">
                  <use xlink:href="#rim" fill="#404040">
                        <set attributeName="fill" to="#808080" begin="arrowDown.mouseover" end="arrowDown.mouseout"/>
                  </use>
                  <path fill="none" stroke="white" stroke-width="1.5" d="M0,-3.0v7 M-2.5,-0.5L0,-3.0L2.5,-0.5"/>
                </g>
                <g id="arrowLeft" xlink:href="#dirArrow" transform="rotate(270) translate(-36 17)" onmousedown="handlePan(-1,0)">
                  <use xlink:href="#rim" fill="#404040">
                        <set attributeName="fill" to="#808080" begin="arrowLeft.mouseover" end="arrowLeft.mouseout"/>
                  </use>
                  <path fill="none" stroke="white" stroke-width="1.5" d="M0,-3.0v7 M-2.5,-0.5L0,-3.0L2.5,-0.5"/>
                </g>
        </g>
        <svg viewBox="0 0 15 15" width="100%" height="30px" preserveAspectRatio="xMaxYMin meet">
         <g id="arrow_out" transform="scale(0.3 0.3)">
          <a xlink:href="classBuyer_a52e194a710cef9038268cdd4df9fe4f1_icgraph_org.svg" target="_base">
           <rect id="button" ry="5" rx="5" y="6" x="6" height="38" width="38"
                fill="#f2f5e9" fill-opacity="0.5" stroke="#606060" stroke-width="1.0"/>
           <path id="arrow"
             d="M 11.500037,31.436501 C 11.940474,20.09759 22.043105,11.32322 32.158766,21.979434 L 37.068811,17.246167 C 37.068811,17.246167 37.088388,32 37.088388,32 L 22.160133,31.978069 C 22.160133,31.978069 26.997745,27.140456 26.997745,27.140456 C 18.528582,18.264221 13.291696,25.230495 11.500037,31.436501 z"
             style="fill:#404040;"/>
          </a>
         </g>
        </svg>
</svg>
