<?xml version="1.0" encoding="UTF-8" standalone="no"?>
<!DOCTYPE svg PUBLIC "-//W3C//DTD SVG 1.1//EN"
 "http://www.w3.org/Graphics/SVG/1.1/DTD/svg11.dtd">
<!-- Generated by graphviz version 2.49.3 (20211027.1534)
 -->
<!-- Title: EShop::getCategories Pages: 1 -->
<!--zoomable 254 -->
<svg id="main" version="1.1" xmlns="http://www.w3.org/2000/svg" xmlns:xlink="http://www.w3.org/1999/xlink" xml:space="preserve" onload="init(evt)">
<style type="text/css"><![CDATA[
.edge:hover path { stroke: red; }
.edge:hover polygon { stroke: red; fill: red; }
]]></style>
<script type="text/javascript"><![CDATA[
var edges = document.getElementsByTagName('g');
if (edges && edges.length) {
  for (var i=0;i<edges.length;i++) {
    if (edges[i].id.substr(0,4)=='edge') {
      edges[i].setAttribute('class','edge');
    }
  }
}
]]></script>
        <defs>
                <circle id="rim" cx="0" cy="0" r="7"/>
                <circle id="rim2" cx="0" cy="0" r="3.5"/>
                <g id="zoomPlus">
                        <use xlink:href="#rim" fill="#404040">
                                <set attributeName="fill" to="#808080" begin="zoomplus.mouseover" end="zoomplus.mouseout"/>
                        </use>
                        <path d="M-4,0h8M0,-4v8" fill="none" stroke="white" stroke-width="1.5" pointer-events="none"/>
                </g>
                <g id="zoomMin">
                        <use xlink:href="#rim" fill="#404040">
                                <set attributeName="fill" to="#808080" begin="zoomminus.mouseover" end="zoomminus.mouseout"/>
                        </use>
                        <path d="M-4,0h8" fill="none" stroke="white" stroke-width="1.5" pointer-events="none"/>
                </g>
                <g id="dirArrow">
                        <path fill="none" stroke="white" stroke-width="1.5" d="M0,-3.0v7 M-2.5,-0.5L0,-3.0L2.5,-0.5"/>
                </g>
               <g id="resetDef">
                       <use xlink:href="#rim2" fill="#404040">
                               <set attributeName="fill" to="#808080" begin="reset.mouseover" end="reset.mouseout"/>
                       </use>
               </g>
        </defs>

<script type="text/javascript">
var viewWidth = 930;
var viewHeight = 254;
var sectionId = 'dynsection-8';
</script>
<script xlink:href="svgpan.js"/>
<svg id="graph" class="graph">
<g id="viewport">
<title>EShop::getCategories</title>
<!-- Node1 -->
<g id="node1" class="node">
<title>Node1</title>
<g id="a_node1"><a xlink:title="Get the categories of Items that exist in the e&#45;shop.">
<polygon fill="#bfbfbf" stroke="black" points="812,-47.5 812,-66.5 922,-66.5 922,-47.5 812,-47.5"/>
<text text-anchor="middle" x="867" y="-54.5" font-family="Helvetica,sans-Serif" font-size="10.00">EShop::getCategories</text>
</a>
</g>
</g>
<!-- Node2 -->
<g id="node2" class="node">
<title>Node2</title>
<g id="a_node2"><a xlink:href="classMenu.html#a1de78dc75d7de7db8bce09a70dbbf77f" target="_top" xlink:title=" ">
<polygon fill="none" stroke="black" points="651,-47.5 651,-66.5 776,-66.5 776,-47.5 651,-47.5"/>
<text text-anchor="middle" x="713.5" y="-54.5" font-family="Helvetica,sans-Serif" font-size="10.00">Menu::showBrowseMenu</text>
</a>
</g>
</g>
<!-- Node1&#45;&gt;Node2 -->
<g id="edge1" class="edge">
<title>Node1&#45;&gt;Node2</title>
<path fill="none" stroke="midnightblue" d="M801.57,-57C793.13,-57 784.5,-57 776.11,-57"/>
<polygon fill="midnightblue" stroke="midnightblue" points="801.73,-60.5 811.73,-57 801.73,-53.5 801.73,-60.5"/>
</g>
<!-- Node3 -->
<g id="node3" class="node">
<title>Node3</title>
<g id="a_node3"><a xlink:href="classMenu.html#a2ecf65abb196d80c5a5c354155019a93" target="_top" xlink:title=" ">
<polygon fill="none" stroke="black" points="491,-132.5 491,-151.5 608,-151.5 608,-132.5 491,-132.5"/>
<text text-anchor="middle" x="549.5" y="-139.5" font-family="Helvetica,sans-Serif" font-size="10.00">Menu::showBuyerMenu</text>
</a>
</g>
</g>
<!-- Node2&#45;&gt;Node3 -->
<g id="edge2" class="edge">
<title>Node2&#45;&gt;Node3</title>
<path fill="none" stroke="midnightblue" d="M674.89,-70.93C638.21,-88.4 584.71,-117.19 561.7,-132.48"/>
<polygon fill="midnightblue" stroke="midnightblue" points="676.71,-73.95 684.28,-66.54 673.74,-67.6 676.71,-73.95"/>
</g>
<!-- Node6 -->
<g id="node6" class="node">
<title>Node6</title>
<g id="a_node6"><a xlink:href="classMenu.html#a6a602f7f37917ae9582719a89246b73b" target="_top" xlink:title=" ">
<polygon fill="none" stroke="black" points="157,-94.5 157,-113.5 278,-113.5 278,-94.5 157,-94.5"/>
<text text-anchor="middle" x="217.5" y="-101.5" font-family="Helvetica,sans-Serif" font-size="10.00">Menu::showOwnerMenu</text>
</a>
</g>
</g>
<!-- Node2&#45;&gt;Node6 -->
<g id="edge24" class="edge">
<title>Node2&#45;&gt;Node6</title>
<path fill="none" stroke="midnightblue" d="M640.93,-58.89C541.02,-65.79 361.98,-83 272.5,-94.45"/>
<polygon fill="midnightblue" stroke="midnightblue" points="641.19,-62.38 650.93,-58.21 640.72,-55.39 641.19,-62.38"/>
</g>
<!-- Node10 -->
<g id="node10" class="node">
<title>Node10</title>
<g id="a_node10"><a xlink:href="classMenu.html#a8bdf4110581d8d8a82f6290f246201e7" target="_top" xlink:title=" ">
<polygon fill="none" stroke="black" points="484,-0.5 484,-19.5 615,-19.5 615,-0.5 484,-0.5"/>
<text text-anchor="middle" x="549.5" y="-7.5" font-family="Helvetica,sans-Serif" font-size="10.00">Menu::showCategoryMenu</text>
</a>
</g>
</g>
<!-- Node2&#45;&gt;Node10 -->
<g id="edge20" class="edge">
<title>Node2&#45;&gt;Node10</title>
<path fill="none" stroke="midnightblue" d="M685.29,-43.91C663.55,-36.1 632.38,-26.64 605.49,-19.52"/>
<polygon fill="midnightblue" stroke="midnightblue" points="684.26,-47.26 694.85,-47.48 686.71,-40.7 684.26,-47.26"/>
</g>
<!-- Node3&#45;&gt;Node2 -->
<g id="edge3" class="edge">
<title>Node3&#45;&gt;Node2</title>
<path fill="none" stroke="midnightblue" d="M588.3,-127.98C624.87,-110.55 678.04,-81.94 701.11,-66.64"/>
<polygon fill="midnightblue" stroke="midnightblue" points="586.51,-124.95 578.93,-132.36 589.47,-131.29 586.51,-124.95"/>
</g>
<!-- Node3&#45;&gt;Node3 -->
<g id="edge4" class="edge">
<title>Node3&#45;&gt;Node3</title>
<path fill="none" stroke="midnightblue" d="M580.19,-160.27C579.31,-165.74 569.08,-170 549.5,-170 520.35,-170 511.93,-160.57 524.22,-151.76"/>
<polygon fill="midnightblue" stroke="midnightblue" points="583.09,-158.32 574.78,-151.76 577.19,-162.07 583.09,-158.32"/>
</g>
<!-- Node4 -->
<g id="node4" class="node">
<title>Node4</title>
<g id="a_node4"><a xlink:href="classMenu.html#a781c392fdcd203e436f5dc6e78f057a8" target="_top" xlink:title=" ">
<polygon fill="none" stroke="black" points="326,-208.5 326,-227.5 436,-227.5 436,-208.5 326,-208.5"/>
<text text-anchor="middle" x="381" y="-215.5" font-family="Helvetica,sans-Serif" font-size="10.00">Menu::showCartMenu</text>
</a>
</g>
</g>
<!-- Node3&#45;&gt;Node4 -->
<g id="edge5" class="edge">
<title>Node3&#45;&gt;Node4</title>
<path fill="none" stroke="midnightblue" d="M513.67,-156.45C494.79,-166.93 470.72,-180.44 448,-190 430.41,-197.4 409.03,-202.97 395.46,-208.31"/>
<polygon fill="midnightblue" stroke="midnightblue" points="515.43,-159.48 522.5,-151.58 512.05,-153.35 515.43,-159.48"/>
</g>
<!-- Node5 -->
<g id="node5" class="node">
<title>Node5</title>
<g id="a_node5"><a xlink:href="classMenu.html#a3905222cc1c1ec7ed2dce13e16555c52" target="_top" xlink:title=" ">
<polygon fill="none" stroke="black" points="314,-170.5 314,-189.5 448,-189.5 448,-170.5 314,-170.5"/>
<text text-anchor="middle" x="381" y="-177.5" font-family="Helvetica,sans-Serif" font-size="10.00">Menu::showCheckoutMenu</text>
</a>
</g>
</g>
<!-- Node3&#45;&gt;Node5 -->
<g id="edge8" class="edge">
<title>Node3&#45;&gt;Node5</title>
<path fill="none" stroke="midnightblue" d="M480.66,-150.84C452.95,-156.78 422.88,-164.3 403.31,-170.44"/>
<polygon fill="midnightblue" stroke="midnightblue" points="481.67,-154.2 490.73,-148.72 480.23,-147.35 481.67,-154.2"/>
</g>
<!-- Node3&#45;&gt;Node6 -->
<g id="edge10" class="edge">
<title>Node3&#45;&gt;Node6</title>
<path fill="none" stroke="midnightblue" d="M493.64,-130.56C478.87,-127.77 462.87,-125.02 448,-123 390.55,-115.21 324.56,-110.15 278.12,-107.23"/>
<polygon fill="midnightblue" stroke="midnightblue" points="493.16,-134.03 503.64,-132.48 494.48,-127.15 493.16,-134.03"/>
</g>
<!-- Node8 -->
<g id="node8" class="node">
<title>Node8</title>
<g id="a_node8"><a xlink:href="classMenu.html#aaef7622e532f3424a27fce4d16dbda47" target="_top" xlink:title=" ">
<polygon fill="none" stroke="black" points="326.5,-132.5 326.5,-151.5 435.5,-151.5 435.5,-132.5 326.5,-132.5"/>
<text text-anchor="middle" x="381" y="-139.5" font-family="Helvetica,sans-Serif" font-size="10.00">Menu::showWelcome</text>
</a>
</g>
</g>
<!-- Node3&#45;&gt;Node8 -->
<g id="edge19" class="edge">
<title>Node3&#45;&gt;Node8</title>
<path fill="none" stroke="midnightblue" d="M480.54,-135.35C465.62,-135.15 450.02,-135.25 435.75,-135.64"/>
<polygon fill="midnightblue" stroke="midnightblue" points="480.67,-138.86 490.73,-135.54 480.8,-131.86 480.67,-138.86"/>
</g>
<!-- Node4&#45;&gt;Node3 -->
<g id="edge6" class="edge">
<title>Node4&#45;&gt;Node3</title>
<path fill="none" stroke="midnightblue" d="M445.45,-209.05C446.31,-208.7 447.16,-208.35 448,-208 484.8,-192.52 525.11,-166.67 541.24,-151.69"/>
<polygon fill="midnightblue" stroke="midnightblue" points="444.18,-205.79 436.04,-212.56 446.63,-212.35 444.18,-205.79"/>
</g>
<!-- Node4&#45;&gt;Node4 -->
<g id="edge7" class="edge">
<title>Node4&#45;&gt;Node4</title>
<path fill="none" stroke="midnightblue" d="M411.31,-236.27C410.45,-241.74 400.35,-246 381,-246 352.21,-246 343.88,-236.57 356.03,-227.76"/>
<polygon fill="midnightblue" stroke="midnightblue" points="414.25,-234.37 405.97,-227.76 408.32,-238.09 414.25,-234.37"/>
</g>
<!-- Node5&#45;&gt;Node3 -->
<g id="edge9" class="edge">
<title>Node5&#45;&gt;Node3</title>
<path fill="none" stroke="midnightblue" d="M458.24,-169.33C483.43,-163.73 509.47,-157.11 527.07,-151.59"/>
<polygon fill="midnightblue" stroke="midnightblue" points="457.3,-165.95 448.28,-171.5 458.79,-172.79 457.3,-165.95"/>
</g>
<!-- Node6&#45;&gt;Node2 -->
<g id="edge11" class="edge">
<title>Node6&#45;&gt;Node2</title>
<path fill="none" stroke="midnightblue" d="M288.64,-102.21C388.34,-95.37 568.85,-78.03 658.69,-66.52"/>
<polygon fill="midnightblue" stroke="midnightblue" points="288.12,-98.74 278.37,-102.9 288.58,-105.72 288.12,-98.74"/>
</g>
<!-- Node7 -->
<g id="node7" class="node">
<title>Node7</title>
<g id="a_node7"><a xlink:href="classMenu.html#a788512183de460d13b8a2dfb571c03f2" target="_top" xlink:title=" ">
<polygon fill="none" stroke="black" points="0,-94.5 0,-113.5 121,-113.5 121,-94.5 0,-94.5"/>
<text text-anchor="middle" x="60.5" y="-101.5" font-family="Helvetica,sans-Serif" font-size="10.00">Menu::showStatusMenu</text>
</a>
</g>
</g>
<!-- Node6&#45;&gt;Node7 -->
<g id="edge12" class="edge">
<title>Node6&#45;&gt;Node7</title>
<path fill="none" stroke="midnightblue" d="M146.34,-97.28C137.88,-97.21 129.3,-97.26 121.01,-97.41"/>
<polygon fill="midnightblue" stroke="midnightblue" points="146.53,-100.78 156.57,-97.41 146.62,-93.78 146.53,-100.78"/>
</g>
<!-- Node6&#45;&gt;Node8 -->
<g id="edge15" class="edge">
<title>Node6&#45;&gt;Node8</title>
<path fill="none" stroke="midnightblue" d="M249.05,-116.61C270.79,-123.06 300.56,-130.39 326.22,-135.75"/>
<polygon fill="midnightblue" stroke="midnightblue" points="249.97,-113.23 239.38,-113.62 247.9,-119.92 249.97,-113.23"/>
</g>
<!-- Node7&#45;&gt;Node6 -->
<g id="edge13" class="edge">
<title>Node7&#45;&gt;Node6</title>
<path fill="none" stroke="midnightblue" d="M131.24,-110.72C139.69,-110.79 148.28,-110.74 156.57,-110.59"/>
<polygon fill="midnightblue" stroke="midnightblue" points="131.06,-107.22 121.01,-110.59 130.97,-114.22 131.06,-107.22"/>
</g>
<!-- Node7&#45;&gt;Node7 -->
<g id="edge14" class="edge">
<title>Node7&#45;&gt;Node7</title>
<path fill="none" stroke="midnightblue" d="M89.62,-122.65C88.4,-127.94 78.7,-132 60.5,-132 32.77,-132 24.76,-122.57 36.46,-113.76"/>
<polygon fill="midnightblue" stroke="midnightblue" points="92.54,-120.71 84.54,-113.76 86.46,-124.18 92.54,-120.71"/>
</g>
<!-- Node8&#45;&gt;Node3 -->
<g id="edge17" class="edge">
<title>Node8&#45;&gt;Node3</title>
<path fill="none" stroke="midnightblue" d="M445.82,-148.58C460.59,-148.84 476.23,-148.8 490.73,-148.46"/>
<polygon fill="midnightblue" stroke="midnightblue" points="445.83,-145.08 435.75,-148.36 445.67,-152.08 445.83,-145.08"/>
</g>
<!-- Node8&#45;&gt;Node6 -->
<g id="edge18" class="edge">
<title>Node8&#45;&gt;Node6</title>
<path fill="none" stroke="midnightblue" d="M349.66,-129.45C329.54,-123.47 302.46,-116.72 278.13,-111.49"/>
<polygon fill="midnightblue" stroke="midnightblue" points="348.63,-132.8 359.22,-132.41 350.7,-126.11 348.63,-132.8"/>
</g>
<!-- Node9 -->
<g id="node9" class="node">
<title>Node9</title>
<g id="a_node9"><a xlink:href="classMenu.html#a323509e5b6f4dc00536e87efd65b8b94" target="_top" xlink:title=" ">
<polygon fill="none" stroke="black" points="183,-132.5 183,-151.5 252,-151.5 252,-132.5 183,-132.5"/>
<text text-anchor="middle" x="217.5" y="-139.5" font-family="Helvetica,sans-Serif" font-size="10.00">Menu::Menu</text>
</a>
</g>
</g>
<!-- Node8&#45;&gt;Node9 -->
<g id="edge16" class="edge">
<title>Node8&#45;&gt;Node9</title>
<path fill="none" stroke="midnightblue" d="M316.03,-142C294.25,-142 270.77,-142 252.3,-142"/>
<polygon fill="midnightblue" stroke="midnightblue" points="316.22,-145.5 326.22,-142 316.22,-138.5 316.22,-145.5"/>
</g>
<!-- Node10&#45;&gt;Node2 -->
<g id="edge21" class="edge">
<title>Node10&#45;&gt;Node2</title>
<path fill="none" stroke="midnightblue" d="M577.89,-23.16C599.54,-30.93 630.46,-40.31 657.2,-47.4"/>
<polygon fill="midnightblue" stroke="midnightblue" points="578.95,-19.82 568.36,-19.6 576.51,-26.38 578.95,-19.82"/>
</g>
<!-- Node11 -->
<g id="node11" class="node">
<title>Node11</title>
<g id="a_node11"><a xlink:href="classMenu.html#a957fada7140f67c43e3ee253ae863125" target="_top" xlink:title=" ">
<polygon fill="none" stroke="black" points="318,-0.5 318,-19.5 444,-19.5 444,-0.5 318,-0.5"/>
<text text-anchor="middle" x="381" y="-7.5" font-family="Helvetica,sans-Serif" font-size="10.00">Menu::showProductMenu</text>
</a>
</g>
</g>
<!-- Node10&#45;&gt;Node11 -->
<g id="edge22" class="edge">
<title>Node10&#45;&gt;Node11</title>
<path fill="none" stroke="midnightblue" d="M473.52,-3.28C463.72,-3.21 453.77,-3.26 444.22,-3.45"/>
<polygon fill="midnightblue" stroke="midnightblue" points="473.61,-6.78 483.65,-3.4 473.69,0.22 473.61,-6.78"/>
</g>
<!-- Node11&#45;&gt;Node10 -->
<g id="edge23" class="edge">
<title>Node11&#45;&gt;Node10</title>
<path fill="none" stroke="midnightblue" d="M454.29,-16.7C464.06,-16.79 474.03,-16.76 483.65,-16.6"/>
<polygon fill="midnightblue" stroke="midnightblue" points="454.27,-13.2 444.22,-16.55 454.17,-20.2 454.27,-13.2"/>
</g>
</g>
</svg>
        <g id="navigator" transform="translate(0 0)" fill="#404254">
                <rect fill="#f2f5e9" fill-opacity="0.5" stroke="#606060" stroke-width=".5" x="0" y="0" width="60" height="60"/>
                <use id="zoomplus" xlink:href="#zoomPlus" x="17" y="9" onmousedown="handleZoom(evt,'in')"/>
                <use id="zoomminus" xlink:href="#zoomMin" x="42" y="9" onmousedown="handleZoom(evt,'out')"/>
                <use id="reset" xlink:href="#resetDef" x="30" y="36" onmousedown="handleReset()"/>
                <g id="arrowUp" xlink:href="#dirArrow" transform="translate(30 24)" onmousedown="handlePan(0,-1)">
                  <use xlink:href="#rim" fill="#404040">
                        <set attributeName="fill" to="#808080" begin="arrowUp.mouseover" end="arrowUp.mouseout"/>
                  </use>
                  <path fill="none" stroke="white" stroke-width="1.5" d="M0,-3.0v7 M-2.5,-0.5L0,-3.0L2.5,-0.5"/>
                </g>
                <g id="arrowRight" xlink:href="#dirArrow" transform="rotate(90) translate(36 -43)" onmousedown="handlePan(1,0)">
                  <use xlink:href="#rim" fill="#404040">
                        <set attributeName="fill" to="#808080" begin="arrowRight.mouseover" end="arrowRight.mouseout"/>
                  </use>
                  <path fill="none" stroke="white" stroke-width="1.5" d="M0,-3.0v7 M-2.5,-0.5L0,-3.0L2.5,-0.5"/>
                </g>
                <g id="arrowDown" xlink:href="#dirArrow" transform="rotate(180) translate(-30 -48)" onmousedown="handlePan(0,1)">
                  <use xlink:href="#rim" fill="#404040">
                        <set attributeName="fill" to="#808080" begin="arrowDown.mouseover" end="arrowDown.mouseout"/>
                  </use>
                  <path fill="none" stroke="white" stroke-width="1.5" d="M0,-3.0v7 M-2.5,-0.5L0,-3.0L2.5,-0.5"/>
                </g>
                <g id="arrowLeft" xlink:href="#dirArrow" transform="rotate(270) translate(-36 17)" onmousedown="handlePan(-1,0)">
                  <use xlink:href="#rim" fill="#404040">
                        <set attributeName="fill" to="#808080" begin="arrowLeft.mouseover" end="arrowLeft.mouseout"/>
                  </use>
                  <path fill="none" stroke="white" stroke-width="1.5" d="M0,-3.0v7 M-2.5,-0.5L0,-3.0L2.5,-0.5"/>
                </g>
        </g>
        <svg viewBox="0 0 15 15" width="100%" height="30px" preserveAspectRatio="xMaxYMin meet">
         <g id="arrow_out" transform="scale(0.3 0.3)">
          <a xlink:href="classEShop_a5e2210d29c858bbff792f17198836e70_icgraph_org.svg" target="_base">
           <rect id="button" ry="5" rx="5" y="6" x="6" height="38" width="38"
                fill="#f2f5e9" fill-opacity="0.5" stroke="#606060" stroke-width="1.0"/>
           <path id="arrow"
             d="M 11.500037,31.436501 C 11.940474,20.09759 22.043105,11.32322 32.158766,21.979434 L 37.068811,17.246167 C 37.068811,17.246167 37.088388,32 37.088388,32 L 22.160133,31.978069 C 22.160133,31.978069 26.997745,27.140456 26.997745,27.140456 C 18.528582,18.264221 13.291696,25.230495 11.500037,31.436501 z"
             style="fill:#404040;"/>
          </a>
         </g>
        </svg>
</svg>
