<?xml version="1.0" encoding="UTF-8" standalone="no"?>
<!DOCTYPE svg PUBLIC "-//W3C//DTD SVG 1.1//EN"
 "http://www.w3.org/Graphics/SVG/1.1/DTD/svg11.dtd">
<!-- Generated by graphviz version 2.49.3 (20211027.1534)
 -->
<!-- Title: Pencil Pages: 1 -->
<svg width="520pt" height="562pt"
 viewBox="0.00 0.00 519.50 562.00" xmlns="http://www.w3.org/2000/svg" xmlns:xlink="http://www.w3.org/1999/xlink">
<g id="graph0" class="graph" transform="scale(1 1) rotate(0) translate(4 558)">
<title>Pencil</title>
<!-- Node1 -->
<g id="node1" class="node">
<title>Node1</title>
<g id="a_node1"><a xlink:title="Class representing a Pencil.">
<polygon fill="#bfbfbf" stroke="black" points="140.5,-0.5 140.5,-123.5 511.5,-123.5 511.5,-0.5 140.5,-0.5"/>
<text text-anchor="middle" x="326" y="-111.5" font-family="Helvetica,sans-Serif" font-size="10.00">Pencil</text>
<polyline fill="none" stroke="black" points="140.5,-104.5 511.5,-104.5 "/>
<text text-anchor="middle" x="326" y="-92.5" font-family="Helvetica,sans-Serif" font-size="10.00"> </text>
<polyline fill="none" stroke="black" points="140.5,-85.5 511.5,-85.5 "/>
<text text-anchor="start" x="148.5" y="-73.5" font-family="Helvetica,sans-Serif" font-size="10.00">+ Pencil(double tipSize, Type type, int stock, double price, string name, string desc)</text>
<text text-anchor="start" x="148.5" y="-62.5" font-family="Helvetica,sans-Serif" font-size="10.00">+ void setTipSize(double tipSize)</text>
<text text-anchor="start" x="148.5" y="-51.5" font-family="Helvetica,sans-Serif" font-size="10.00">+ double getTipSize()</text>
<text text-anchor="start" x="148.5" y="-40.5" font-family="Helvetica,sans-Serif" font-size="10.00">+ void setType(Type type)</text>
<text text-anchor="start" x="148.5" y="-29.5" font-family="Helvetica,sans-Serif" font-size="10.00">+ Type getType()</text>
<text text-anchor="start" x="148.5" y="-18.5" font-family="Helvetica,sans-Serif" font-size="10.00">+ void setId() override</text>
<text text-anchor="start" x="148.5" y="-7.5" font-family="Helvetica,sans-Serif" font-size="10.00">+ string getDetails() override</text>
</a>
</g>
</g>
<!-- Node2 -->
<g id="node2" class="node">
<title>Node2</title>
<g id="a_node2"><a xlink:href="classItem.html" target="_top" xlink:title="Base class for all other items.">
<polygon fill="none" stroke="black" points="0,-171.5 0,-426.5 252,-426.5 252,-171.5 0,-171.5"/>
<text text-anchor="middle" x="126" y="-414.5" font-family="Helvetica,sans-Serif" font-size="10.00">Item</text>
<polyline fill="none" stroke="black" points="0,-407.5 252,-407.5 "/>
<text text-anchor="middle" x="126" y="-395.5" font-family="Helvetica,sans-Serif" font-size="10.00"> </text>
<polyline fill="none" stroke="black" points="0,-388.5 252,-388.5 "/>
<text text-anchor="start" x="8" y="-376.5" font-family="Helvetica,sans-Serif" font-size="10.00">+ Item(int stock, double price, string name, string desc)</text>
<text text-anchor="start" x="8" y="-365.5" font-family="Helvetica,sans-Serif" font-size="10.00">+ virtual ~Item()</text>
<text text-anchor="start" x="8" y="-354.5" font-family="Helvetica,sans-Serif" font-size="10.00">+ size_t getId()</text>
<text text-anchor="start" x="8" y="-343.5" font-family="Helvetica,sans-Serif" font-size="10.00">+ void setStock(int stock)</text>
<text text-anchor="start" x="8" y="-332.5" font-family="Helvetica,sans-Serif" font-size="10.00">+ int getStock()</text>
<text text-anchor="start" x="8" y="-321.5" font-family="Helvetica,sans-Serif" font-size="10.00">+ void setPrice(double price)</text>
<text text-anchor="start" x="8" y="-310.5" font-family="Helvetica,sans-Serif" font-size="10.00">+ double getPrice()</text>
<text text-anchor="start" x="8" y="-299.5" font-family="Helvetica,sans-Serif" font-size="10.00">+ void setName(string name)</text>
<text text-anchor="start" x="8" y="-288.5" font-family="Helvetica,sans-Serif" font-size="10.00">+ string getName()</text>
<text text-anchor="start" x="8" y="-277.5" font-family="Helvetica,sans-Serif" font-size="10.00">+ void setDescription(string desc)</text>
<text text-anchor="start" x="8" y="-266.5" font-family="Helvetica,sans-Serif" font-size="10.00">+ string getDescription()</text>
<text text-anchor="start" x="8" y="-255.5" font-family="Helvetica,sans-Serif" font-size="10.00">+ string getCategory()</text>
<text text-anchor="start" x="8" y="-244.5" font-family="Helvetica,sans-Serif" font-size="10.00">+ string getBasicInfo()</text>
<text text-anchor="start" x="8" y="-233.5" font-family="Helvetica,sans-Serif" font-size="10.00">+ void setId(size_t)</text>
<text text-anchor="start" x="8" y="-222.5" font-family="Helvetica,sans-Serif" font-size="10.00">+ void setCategory(string)</text>
<text text-anchor="start" x="8" y="-211.5" font-family="Helvetica,sans-Serif" font-size="10.00">+ virtual void setId()=0</text>
<text text-anchor="start" x="8" y="-200.5" font-family="Helvetica,sans-Serif" font-size="10.00">+ virtual string getDetails()=0</text>
<text text-anchor="start" x="8" y="-189.5" font-family="Helvetica,sans-Serif" font-size="10.00">+ operator std::string()</text>
<text text-anchor="start" x="8" y="-178.5" font-family="Helvetica,sans-Serif" font-size="10.00">+ bool operator==(const Item &amp;)</text>
</a>
</g>
</g>
<!-- Node2&#45;&gt;Node1 -->
<g id="edge1" class="edge">
<title>Node2&#45;&gt;Node1</title>
<path fill="none" stroke="midnightblue" d="M240.5,-163.46C252.33,-149.56 263.88,-135.99 274.48,-123.54"/>
<polygon fill="none" stroke="midnightblue" points="237.72,-161.33 233.9,-171.21 243.05,-165.87 237.72,-161.33"/>
</g>
<!-- Node3 -->
<g id="node3" class="node">
<title>Node3</title>
<g id="a_node3"><a xlink:title=" ">
<polygon fill="none" stroke="#bfbfbf" points="102,-496.5 102,-553.5 144,-553.5 144,-496.5 102,-496.5"/>
<text text-anchor="middle" x="123" y="-541.5" font-family="Helvetica,sans-Serif" font-size="10.00">size_t</text>
<polyline fill="none" stroke="#bfbfbf" points="102,-534.5 144,-534.5 "/>
<text text-anchor="middle" x="123" y="-522.5" font-family="Helvetica,sans-Serif" font-size="10.00"> </text>
<polyline fill="none" stroke="#bfbfbf" points="102,-515.5 144,-515.5 "/>
<text text-anchor="middle" x="123" y="-503.5" font-family="Helvetica,sans-Serif" font-size="10.00"> </text>
</a>
</g>
</g>
<!-- Node3&#45;&gt;Node2 -->
<g id="edge2" class="edge">
<title>Node3&#45;&gt;Node2</title>
<path fill="none" stroke="#404040" d="M123.37,-496.08C123.58,-480.75 123.85,-460.45 124.14,-438.73"/>
<polygon fill="none" stroke="#404040" points="124.14,-438.54 120.23,-432.48 124.31,-426.54 128.22,-432.59 124.14,-438.54"/>
<text text-anchor="middle" x="134.5" y="-459" font-family="Helvetica,sans-Serif" font-size="10.00"> &#45;_id</text>
</g>
<!-- Node4 -->
<g id="node4" class="node">
<title>Node4</title>
<g id="a_node4"><a xlink:title=" ">
<polygon fill="none" stroke="#bfbfbf" points="53.5,-496.5 53.5,-553.5 82.5,-553.5 82.5,-496.5 53.5,-496.5"/>
<text text-anchor="middle" x="68" y="-541.5" font-family="Helvetica,sans-Serif" font-size="10.00">int</text>
<polyline fill="none" stroke="#bfbfbf" points="53.5,-534.5 82.5,-534.5 "/>
<text text-anchor="middle" x="68" y="-522.5" font-family="Helvetica,sans-Serif" font-size="10.00"> </text>
<polyline fill="none" stroke="#bfbfbf" points="53.5,-515.5 82.5,-515.5 "/>
<text text-anchor="middle" x="68" y="-503.5" font-family="Helvetica,sans-Serif" font-size="10.00"> </text>
</a>
</g>
</g>
<!-- Node4&#45;&gt;Node2 -->
<g id="edge3" class="edge">
<title>Node4&#45;&gt;Node2</title>
<path fill="none" stroke="#404040" d="M73.47,-496.48C76.62,-481.25 80.77,-462.02 85,-445 85.53,-442.86 86.08,-440.7 86.63,-438.52"/>
<polygon fill="none" stroke="#404040" points="86.65,-438.42 84.28,-431.61 89.64,-426.8 92.02,-433.6 86.65,-438.42"/>
<text text-anchor="middle" x="102.5" y="-459" font-family="Helvetica,sans-Serif" font-size="10.00"> &#45;_stock</text>
</g>
<!-- Node5 -->
<g id="node5" class="node">
<title>Node5</title>
<g id="a_node5"><a xlink:title=" ">
<polygon fill="none" stroke="#bfbfbf" points="243.5,-496.5 243.5,-553.5 288.5,-553.5 288.5,-496.5 243.5,-496.5"/>
<text text-anchor="middle" x="266" y="-541.5" font-family="Helvetica,sans-Serif" font-size="10.00">double</text>
<polyline fill="none" stroke="#bfbfbf" points="243.5,-534.5 288.5,-534.5 "/>
<text text-anchor="middle" x="266" y="-522.5" font-family="Helvetica,sans-Serif" font-size="10.00"> </text>
<polyline fill="none" stroke="#bfbfbf" points="243.5,-515.5 288.5,-515.5 "/>
<text text-anchor="middle" x="266" y="-503.5" font-family="Helvetica,sans-Serif" font-size="10.00"> </text>
</a>
</g>
</g>
<!-- Node5&#45;&gt;Node1 -->
<g id="edge6" class="edge">
<title>Node5&#45;&gt;Node1</title>
<path fill="none" stroke="#404040" d="M271.26,-496.33C272.28,-490.31 273.26,-483.95 274,-478 290.85,-342.22 274.05,-305.89 297,-171 298.98,-159.37 301.65,-147.18 304.58,-135.35"/>
<polygon fill="none" stroke="#404040" points="304.59,-135.3 302.21,-128.49 307.57,-123.67 309.96,-130.48 304.59,-135.3"/>
<text text-anchor="middle" x="317" y="-296.5" font-family="Helvetica,sans-Serif" font-size="10.00"> &#45;_tipSize</text>
</g>
<!-- Node5&#45;&gt;Node2 -->
<g id="edge4" class="edge">
<title>Node5&#45;&gt;Node2</title>
<path fill="none" stroke="#404040" d="M249.91,-496.44C240.94,-481.2 229.49,-461.97 219,-445 217.38,-442.38 215.75,-439.74 214.09,-437.09"/>
<polygon fill="none" stroke="#404040" points="214.01,-436.94 207.43,-433.97 207.65,-426.76 214.22,-429.74 214.01,-436.94"/>
<text text-anchor="middle" x="255" y="-459" font-family="Helvetica,sans-Serif" font-size="10.00"> &#45;_price</text>
</g>
<!-- Node6 -->
<g id="node6" class="node">
<title>Node6</title>
<g id="a_node6"><a xlink:title=" ">
<polygon fill="none" stroke="#bfbfbf" points="162.5,-496.5 162.5,-553.5 203.5,-553.5 203.5,-496.5 162.5,-496.5"/>
<text text-anchor="middle" x="183" y="-541.5" font-family="Helvetica,sans-Serif" font-size="10.00">string</text>
<polyline fill="none" stroke="#bfbfbf" points="162.5,-534.5 203.5,-534.5 "/>
<text text-anchor="middle" x="183" y="-522.5" font-family="Helvetica,sans-Serif" font-size="10.00"> </text>
<polyline fill="none" stroke="#bfbfbf" points="162.5,-515.5 203.5,-515.5 "/>
<text text-anchor="middle" x="183" y="-503.5" font-family="Helvetica,sans-Serif" font-size="10.00"> </text>
</a>
</g>
</g>
<!-- Node6&#45;&gt;Node2 -->
<g id="edge5" class="edge">
<title>Node6&#45;&gt;Node2</title>
<path fill="none" stroke="#404040" d="M175.73,-496.28C174.16,-490.25 172.52,-483.92 171,-478 167.72,-465.23 164.32,-451.93 160.93,-438.62"/>
<polygon fill="none" stroke="#404040" points="160.92,-438.55 155.56,-433.72 157.96,-426.92 163.32,-431.75 160.92,-438.55"/>
<text text-anchor="middle" x="195" y="-470" font-family="Helvetica,sans-Serif" font-size="10.00"> &#45;_category</text>
<text text-anchor="middle" x="195" y="-459" font-family="Helvetica,sans-Serif" font-size="10.00">&#45;_desc</text>
<text text-anchor="middle" x="195" y="-448" font-family="Helvetica,sans-Serif" font-size="10.00">&#45;_name</text>
</g>
<!-- Node7 -->
<g id="node7" class="node">
<title>Node7</title>
<g id="a_node7"><a xlink:title=" ">
<polygon fill="none" stroke="#bfbfbf" points="346,-270.5 346,-327.5 384,-327.5 384,-270.5 346,-270.5"/>
<text text-anchor="middle" x="365" y="-315.5" font-family="Helvetica,sans-Serif" font-size="10.00">Type</text>
<polyline fill="none" stroke="#bfbfbf" points="346,-308.5 384,-308.5 "/>
<text text-anchor="middle" x="365" y="-296.5" font-family="Helvetica,sans-Serif" font-size="10.00"> </text>
<polyline fill="none" stroke="#bfbfbf" points="346,-289.5 384,-289.5 "/>
<text text-anchor="middle" x="365" y="-277.5" font-family="Helvetica,sans-Serif" font-size="10.00"> </text>
</a>
</g>
</g>
<!-- Node7&#45;&gt;Node1 -->
<g id="edge7" class="edge">
<title>Node7&#45;&gt;Node1</title>
<path fill="none" stroke="#404040" d="M360.37,-270.12C354.91,-237.2 345.61,-181.16 338.06,-135.67"/>
<polygon fill="none" stroke="#404040" points="338.05,-135.59 333.12,-130.32 336.08,-123.75 341.01,-129.01 338.05,-135.59"/>
<text text-anchor="middle" x="354.5" y="-145" font-family="Helvetica,sans-Serif" font-size="10.00"> &#45;_type</text>
</g>
<!-- Node8 -->
<g id="node8" class="node">
<title>Node8</title>
<g id="a_node8"><a xlink:title=" ">
<polygon fill="none" stroke="#bfbfbf" points="402.5,-270.5 402.5,-327.5 443.5,-327.5 443.5,-270.5 402.5,-270.5"/>
<text text-anchor="middle" x="423" y="-315.5" font-family="Helvetica,sans-Serif" font-size="10.00">map&lt;</text>
<polyline fill="none" stroke="#bfbfbf" points="402.5,-308.5 443.5,-308.5 "/>
<text text-anchor="middle" x="423" y="-296.5" font-family="Helvetica,sans-Serif" font-size="10.00"> </text>
<polyline fill="none" stroke="#bfbfbf" points="402.5,-289.5 443.5,-289.5 "/>
<text text-anchor="middle" x="423" y="-277.5" font-family="Helvetica,sans-Serif" font-size="10.00"> </text>
</a>
</g>
</g>
<!-- Node8&#45;&gt;Node1 -->
<g id="edge8" class="edge">
<title>Node8&#45;&gt;Node1</title>
<path fill="none" stroke="#404040" d="M419.13,-270.45C414.83,-244.17 406.64,-203.85 393,-171 387.86,-158.63 381.39,-146.05 374.51,-134.06"/>
<polygon fill="none" stroke="#404040" points="374.49,-134.02 367.99,-130.89 368.38,-123.69 374.88,-126.82 374.49,-134.02"/>
<text text-anchor="middle" x="408" y="-145" font-family="Helvetica,sans-Serif" font-size="10.00"> &#45;_typeMap</text>
</g>
</g>
</svg>
