<?xml version="1.0" encoding="UTF-8" standalone="no"?>
<!DOCTYPE svg PUBLIC "-//W3C//DTD SVG 1.1//EN"
 "http://www.w3.org/Graphics/SVG/1.1/DTD/svg11.dtd">
<!-- Generated by graphviz version 2.49.3 (20211027.1534)
 -->
<!-- Title: ShoppingCart::calculateCourier Pages: 1 -->
<!--zoomable 193 -->
<svg id="main" version="1.1" xmlns="http://www.w3.org/2000/svg" xmlns:xlink="http://www.w3.org/1999/xlink" xml:space="preserve" onload="init(evt)">
<style type="text/css"><![CDATA[
.edge:hover path { stroke: red; }
.edge:hover polygon { stroke: red; fill: red; }
]]></style>
<script type="text/javascript"><![CDATA[
var edges = document.getElementsByTagName('g');
if (edges && edges.length) {
  for (var i=0;i<edges.length;i++) {
    if (edges[i].id.substr(0,4)=='edge') {
      edges[i].setAttribute('class','edge');
    }
  }
}
]]></script>
        <defs>
                <circle id="rim" cx="0" cy="0" r="7"/>
                <circle id="rim2" cx="0" cy="0" r="3.5"/>
                <g id="zoomPlus">
                        <use xlink:href="#rim" fill="#404040">
                                <set attributeName="fill" to="#808080" begin="zoomplus.mouseover" end="zoomplus.mouseout"/>
                        </use>
                        <path d="M-4,0h8M0,-4v8" fill="none" stroke="white" stroke-width="1.5" pointer-events="none"/>
                </g>
                <g id="zoomMin">
                        <use xlink:href="#rim" fill="#404040">
                                <set attributeName="fill" to="#808080" begin="zoomminus.mouseover" end="zoomminus.mouseout"/>
                        </use>
                        <path d="M-4,0h8" fill="none" stroke="white" stroke-width="1.5" pointer-events="none"/>
                </g>
                <g id="dirArrow">
                        <path fill="none" stroke="white" stroke-width="1.5" d="M0,-3.0v7 M-2.5,-0.5L0,-3.0L2.5,-0.5"/>
                </g>
               <g id="resetDef">
                       <use xlink:href="#rim2" fill="#404040">
                               <set attributeName="fill" to="#808080" begin="reset.mouseover" end="reset.mouseout"/>
                       </use>
               </g>
        </defs>

<script type="text/javascript">
var viewWidth = 1495;
var viewHeight = 193;
var sectionId = 'dynsection-4';
</script>
<script xlink:href="svgpan.js"/>
<svg id="graph" class="graph">
<g id="viewport">
<title>ShoppingCart::calculateCourier</title>
<!-- Node1 -->
<g id="node1" class="node">
<title>Node1</title>
<g id="a_node1"><a xlink:title="Calculates the cost of the courier.">
<polygon fill="#bfbfbf" stroke="black" points="1338,-109.47 1338,-128.47 1487,-128.47 1487,-109.47 1338,-109.47"/>
<text text-anchor="middle" x="1412.5" y="-116.47" font-family="Helvetica,sans-Serif" font-size="10.00">ShoppingCart::calculateCourier</text>
</a>
</g>
</g>
<!-- Node2 -->
<g id="node2" class="node">
<title>Node2</title>
<g id="a_node2"><a xlink:href="classShoppingCart.html#ac63018317b6a7619a80ecbf1d71e2083" target="_top" xlink:title="Show the contents of the cart.">
<polygon fill="none" stroke="black" points="1181,-109.47 1181,-128.47 1302,-128.47 1302,-109.47 1181,-109.47"/>
<text text-anchor="middle" x="1241.5" y="-116.47" font-family="Helvetica,sans-Serif" font-size="10.00">ShoppingCart::showCart</text>
</a>
</g>
</g>
<!-- Node1&#45;&gt;Node2 -->
<g id="edge1" class="edge">
<title>Node1&#45;&gt;Node2</title>
<path fill="none" stroke="midnightblue" d="M1327.76,-118.97C1319.13,-118.97 1310.49,-118.97 1302.2,-118.97"/>
<polygon fill="midnightblue" stroke="midnightblue" points="1327.87,-122.47 1337.87,-118.97 1327.87,-115.47 1327.87,-122.47"/>
</g>
<!-- Node3 -->
<g id="node3" class="node">
<title>Node3</title>
<g id="a_node3"><a xlink:href="classShoppingCart.html#a95a853a2501345049ecd166db1a54da0" target="_top" xlink:title="Performs the checkout.">
<polygon fill="none" stroke="black" points="1026,-128.47 1026,-147.47 1145,-147.47 1145,-128.47 1026,-128.47"/>
<text text-anchor="middle" x="1085.5" y="-135.47" font-family="Helvetica,sans-Serif" font-size="10.00">ShoppingCart::checkout</text>
</a>
</g>
</g>
<!-- Node2&#45;&gt;Node3 -->
<g id="edge2" class="edge">
<title>Node2&#45;&gt;Node3</title>
<path fill="none" stroke="midnightblue" d="M1170.92,-127.56C1162.3,-128.62 1153.56,-129.7 1145.12,-130.74"/>
<polygon fill="midnightblue" stroke="midnightblue" points="1171.46,-131.02 1180.96,-126.32 1170.61,-124.07 1171.46,-131.02"/>
</g>
<!-- Node15 -->
<g id="node15" class="node">
<title>Node15</title>
<g id="a_node15"><a xlink:href="classBuyer.html#a83e2d5ab790fc677189fd6841489bae6" target="_top" xlink:title="Wrapper to ShoppingCart::showCart()">
<polygon fill="none" stroke="black" points="903,-90.47 903,-109.47 990,-109.47 990,-90.47 903,-90.47"/>
<text text-anchor="middle" x="946.5" y="-97.47" font-family="Helvetica,sans-Serif" font-size="10.00">Buyer::showCart</text>
</a>
</g>
</g>
<!-- Node2&#45;&gt;Node15 -->
<g id="edge29" class="edge">
<title>Node2&#45;&gt;Node15</title>
<path fill="none" stroke="midnightblue" d="M1170.65,-114.44C1114.62,-110.81 1037.77,-105.83 990.44,-102.76"/>
<polygon fill="midnightblue" stroke="midnightblue" points="1170.65,-117.95 1180.85,-115.11 1171.1,-110.97 1170.65,-117.95"/>
</g>
<!-- Node4 -->
<g id="node4" class="node">
<title>Node4</title>
<g id="a_node4"><a xlink:href="classBuyer.html#a7b3cbe4b02665470d746f1d4cddc7442" target="_top" xlink:title="Wrapper to ShoppingCart::checkout()">
<polygon fill="none" stroke="black" points="903.5,-128.47 903.5,-147.47 989.5,-147.47 989.5,-128.47 903.5,-128.47"/>
<text text-anchor="middle" x="946.5" y="-135.47" font-family="Helvetica,sans-Serif" font-size="10.00">Buyer::checkout</text>
</a>
</g>
</g>
<!-- Node3&#45;&gt;Node4 -->
<g id="edge3" class="edge">
<title>Node3&#45;&gt;Node4</title>
<path fill="none" stroke="midnightblue" d="M1015.39,-137.97C1006.66,-137.97 997.94,-137.97 989.8,-137.97"/>
<polygon fill="midnightblue" stroke="midnightblue" points="1015.6,-141.47 1025.6,-137.97 1015.6,-134.47 1015.6,-141.47"/>
</g>
<!-- Node5 -->
<g id="node5" class="node">
<title>Node5</title>
<g id="a_node5"><a xlink:href="classMenu.html#a781c392fdcd203e436f5dc6e78f057a8" target="_top" xlink:title=" ">
<polygon fill="none" stroke="black" points="757,-109.47 757,-128.47 867,-128.47 867,-109.47 757,-109.47"/>
<text text-anchor="middle" x="812" y="-116.47" font-family="Helvetica,sans-Serif" font-size="10.00">Menu::showCartMenu</text>
</a>
</g>
</g>
<!-- Node4&#45;&gt;Node5 -->
<g id="edge4" class="edge">
<title>Node4&#45;&gt;Node5</title>
<path fill="none" stroke="midnightblue" d="M893.27,-130.49C884.64,-129.25 875.68,-127.96 867.01,-126.72"/>
<polygon fill="midnightblue" stroke="midnightblue" points="892.82,-133.96 903.21,-131.91 893.81,-127.03 892.82,-133.96"/>
</g>
<!-- Node14 -->
<g id="node14" class="node">
<title>Node14</title>
<g id="a_node14"><a xlink:href="classMenu.html#a3905222cc1c1ec7ed2dce13e16555c52" target="_top" xlink:title=" ">
<polygon fill="none" stroke="black" points="434,-165.47 434,-184.47 568,-184.47 568,-165.47 434,-165.47"/>
<text text-anchor="middle" x="501" y="-172.47" font-family="Helvetica,sans-Serif" font-size="10.00">Menu::showCheckoutMenu</text>
</a>
</g>
</g>
<!-- Node4&#45;&gt;Node14 -->
<g id="edge28" class="edge">
<title>Node4&#45;&gt;Node14</title>
<path fill="none" stroke="midnightblue" d="M899.8,-149.86C889.1,-152.25 877.7,-154.48 867,-155.97 763.31,-170.45 641.65,-174.16 568.27,-174.97"/>
<polygon fill="midnightblue" stroke="midnightblue" points="900.84,-153.21 909.79,-147.54 899.26,-146.39 900.84,-153.21"/>
</g>
<!-- Node5&#45;&gt;Node5 -->
<g id="edge27" class="edge">
<title>Node5&#45;&gt;Node5</title>
<path fill="none" stroke="midnightblue" d="M836.93,-138C835.57,-143.1 827.26,-146.97 812,-146.97 788.18,-146.97 781.3,-137.54 791.35,-128.73"/>
<polygon fill="midnightblue" stroke="midnightblue" points="840.02,-136.35 832.65,-128.73 833.66,-139.28 840.02,-136.35"/>
</g>
<!-- Node6 -->
<g id="node6" class="node">
<title>Node6</title>
<g id="a_node6"><a xlink:href="classMenu.html#a2ecf65abb196d80c5a5c354155019a93" target="_top" xlink:title=" ">
<polygon fill="none" stroke="black" points="604,-109.47 604,-128.47 721,-128.47 721,-109.47 604,-109.47"/>
<text text-anchor="middle" x="662.5" y="-116.47" font-family="Helvetica,sans-Serif" font-size="10.00">Menu::showBuyerMenu</text>
</a>
</g>
</g>
<!-- Node5&#45;&gt;Node6 -->
<g id="edge5" class="edge">
<title>Node5&#45;&gt;Node6</title>
<path fill="none" stroke="midnightblue" d="M746.64,-112.27C738.13,-112.18 729.44,-112.22 721.05,-112.37"/>
<polygon fill="midnightblue" stroke="midnightblue" points="746.86,-115.78 756.91,-112.44 746.97,-108.78 746.86,-115.78"/>
</g>
<!-- Node6&#45;&gt;Node5 -->
<g id="edge22" class="edge">
<title>Node6&#45;&gt;Node5</title>
<path fill="none" stroke="midnightblue" d="M731.12,-125.7C739.76,-125.76 748.52,-125.7 756.91,-125.51"/>
<polygon fill="midnightblue" stroke="midnightblue" points="731.1,-122.2 721.05,-125.58 731.01,-129.2 731.1,-122.2"/>
</g>
<!-- Node6&#45;&gt;Node6 -->
<g id="edge21" class="edge">
<title>Node6&#45;&gt;Node6</title>
<path fill="none" stroke="midnightblue" d="M690.13,-137.63C688.97,-142.91 679.76,-146.97 662.5,-146.97 636.2,-146.97 628.59,-137.54 639.69,-128.73"/>
<polygon fill="midnightblue" stroke="midnightblue" points="693.15,-135.86 685.31,-128.73 686.99,-139.19 693.15,-135.86"/>
</g>
<!-- Node7 -->
<g id="node7" class="node">
<title>Node7</title>
<g id="a_node7"><a xlink:href="classMenu.html#a1de78dc75d7de7db8bce09a70dbbf77f" target="_top" xlink:title=" ">
<polygon fill="none" stroke="black" points="438.5,-33.47 438.5,-52.47 563.5,-52.47 563.5,-33.47 438.5,-33.47"/>
<text text-anchor="middle" x="501" y="-40.47" font-family="Helvetica,sans-Serif" font-size="10.00">Menu::showBrowseMenu</text>
</a>
</g>
</g>
<!-- Node6&#45;&gt;Node7 -->
<g id="edge6" class="edge">
<title>Node6&#45;&gt;Node7</title>
<path fill="none" stroke="midnightblue" d="M646.16,-103.01C627.95,-89.37 596.46,-70.96 568,-57.97 563.9,-56.1 559.6,-54.27 555.25,-52.53"/>
<polygon fill="midnightblue" stroke="midnightblue" points="643.97,-105.74 653.96,-109.27 648.35,-100.28 643.97,-105.74"/>
</g>
<!-- Node10 -->
<g id="node10" class="node">
<title>Node10</title>
<g id="a_node10"><a xlink:href="classMenu.html#a6a602f7f37917ae9582719a89246b73b" target="_top" xlink:title=" ">
<polygon fill="none" stroke="black" points="272,-71.47 272,-90.47 393,-90.47 393,-71.47 272,-71.47"/>
<text text-anchor="middle" x="332.5" y="-78.47" font-family="Helvetica,sans-Serif" font-size="10.00">Menu::showOwnerMenu</text>
</a>
</g>
</g>
<!-- Node6&#45;&gt;Node10 -->
<g id="edge25" class="edge">
<title>Node6&#45;&gt;Node10</title>
<path fill="none" stroke="midnightblue" d="M593.65,-108.44C585.02,-107.21 576.31,-106.02 568,-104.97 508.72,-97.51 440.78,-90.75 393.35,-86.32"/>
<polygon fill="midnightblue" stroke="midnightblue" points="593.3,-111.92 603.7,-109.89 594.31,-104.99 593.3,-111.92"/>
</g>
<!-- Node12 -->
<g id="node12" class="node">
<title>Node12</title>
<g id="a_node12"><a xlink:href="classMenu.html#aaef7622e532f3424a27fce4d16dbda47" target="_top" xlink:title=" ">
<polygon fill="none" stroke="black" points="113.5,-118.47 113.5,-137.47 222.5,-137.47 222.5,-118.47 113.5,-118.47"/>
<text text-anchor="middle" x="168" y="-125.47" font-family="Helvetica,sans-Serif" font-size="10.00">Menu::showWelcome</text>
</a>
</g>
</g>
<!-- Node6&#45;&gt;Node12 -->
<g id="edge26" class="edge">
<title>Node6&#45;&gt;Node12</title>
<path fill="none" stroke="midnightblue" d="M593.36,-115.38C494.34,-114.5 312.69,-117.97 222.6,-122.6"/>
<polygon fill="midnightblue" stroke="midnightblue" points="593.52,-118.89 603.56,-115.49 593.59,-111.89 593.52,-118.89"/>
</g>
<!-- Node6&#45;&gt;Node14 -->
<g id="edge23" class="edge">
<title>Node6&#45;&gt;Node14</title>
<path fill="none" stroke="midnightblue" d="M607.08,-131.64C575.55,-141.91 538.14,-155.79 517.54,-165.31"/>
<polygon fill="midnightblue" stroke="midnightblue" points="608.19,-134.96 616.65,-128.58 606.05,-128.3 608.19,-134.96"/>
</g>
<!-- Node7&#45;&gt;Node6 -->
<g id="edge7" class="edge">
<title>Node7&#45;&gt;Node6</title>
<path fill="none" stroke="midnightblue" d="M521.66,-56.83C534.95,-62.65 552.8,-69.04 568,-75.97 590.47,-86.23 614.83,-99.87 633.05,-109.34"/>
<polygon fill="midnightblue" stroke="midnightblue" points="523.03,-53.61 512.49,-52.49 520.03,-59.93 523.03,-53.61"/>
</g>
<!-- Node8 -->
<g id="node8" class="node">
<title>Node8</title>
<g id="a_node8"><a xlink:href="classMenu.html#a8bdf4110581d8d8a82f6290f246201e7" target="_top" xlink:title=" ">
<polygon fill="none" stroke="black" points="267,-33.47 267,-52.47 398,-52.47 398,-33.47 267,-33.47"/>
<text text-anchor="middle" x="332.5" y="-40.47" font-family="Helvetica,sans-Serif" font-size="10.00">Menu::showCategoryMenu</text>
</a>
</g>
</g>
<!-- Node7&#45;&gt;Node8 -->
<g id="edge8" class="edge">
<title>Node7&#45;&gt;Node8</title>
<path fill="none" stroke="midnightblue" d="M428.17,-36.28C418.18,-36.18 407.97,-36.21 398.12,-36.38"/>
<polygon fill="midnightblue" stroke="midnightblue" points="428.42,-39.79 438.47,-36.43 428.53,-32.79 428.42,-39.79"/>
</g>
<!-- Node7&#45;&gt;Node10 -->
<g id="edge12" class="edge">
<title>Node7&#45;&gt;Node10</title>
<path fill="none" stroke="midnightblue" d="M428.4,-52.62C401.85,-58.41 373.69,-65.5 355,-71.36"/>
<polygon fill="midnightblue" stroke="midnightblue" points="429.43,-55.98 438.47,-50.48 427.96,-49.14 429.43,-55.98"/>
</g>
<!-- Node8&#45;&gt;Node7 -->
<g id="edge9" class="edge">
<title>Node8&#45;&gt;Node7</title>
<path fill="none" stroke="midnightblue" d="M408.17,-49.69C418.31,-49.77 428.61,-49.71 438.47,-49.52"/>
<polygon fill="midnightblue" stroke="midnightblue" points="408.16,-46.19 398.12,-49.57 408.08,-53.19 408.16,-46.19"/>
</g>
<!-- Node9 -->
<g id="node9" class="node">
<title>Node9</title>
<g id="a_node9"><a xlink:href="classMenu.html#a957fada7140f67c43e3ee253ae863125" target="_top" xlink:title=" ">
<polygon fill="none" stroke="black" points="105,-24.47 105,-43.47 231,-43.47 231,-24.47 105,-24.47"/>
<text text-anchor="middle" x="168" y="-31.47" font-family="Helvetica,sans-Serif" font-size="10.00">Menu::showProductMenu</text>
</a>
</g>
</g>
<!-- Node8&#45;&gt;Node9 -->
<g id="edge10" class="edge">
<title>Node8&#45;&gt;Node9</title>
<path fill="none" stroke="midnightblue" d="M266.06,-32.72C254.55,-31.91 242.61,-31.26 231.19,-30.84"/>
<polygon fill="midnightblue" stroke="midnightblue" points="265.8,-36.21 276.03,-33.46 266.32,-29.22 265.8,-36.21"/>
</g>
<!-- Node9&#45;&gt;Node8 -->
<g id="edge11" class="edge">
<title>Node9&#45;&gt;Node8</title>
<path fill="none" stroke="midnightblue" d="M234.6,-44.25C245.22,-44.99 256.21,-45.59 266.81,-46.02"/>
<polygon fill="midnightblue" stroke="midnightblue" points="234.79,-40.75 224.56,-43.49 234.27,-47.73 234.79,-40.75"/>
</g>
<!-- Node10&#45;&gt;Node7 -->
<g id="edge13" class="edge">
<title>Node10&#45;&gt;Node7</title>
<path fill="none" stroke="midnightblue" d="M403.05,-71.77C430.23,-65.89 459.41,-58.58 478.57,-52.57"/>
<polygon fill="midnightblue" stroke="midnightblue" points="402.21,-68.37 393.15,-73.86 403.66,-75.22 402.21,-68.37"/>
</g>
<!-- Node11 -->
<g id="node11" class="node">
<title>Node11</title>
<g id="a_node11"><a xlink:href="classMenu.html#a788512183de460d13b8a2dfb571c03f2" target="_top" xlink:title=" ">
<polygon fill="none" stroke="black" points="107.5,-62.47 107.5,-81.47 228.5,-81.47 228.5,-62.47 107.5,-62.47"/>
<text text-anchor="middle" x="168" y="-69.47" font-family="Helvetica,sans-Serif" font-size="10.00">Menu::showStatusMenu</text>
</a>
</g>
</g>
<!-- Node10&#45;&gt;Node11 -->
<g id="edge14" class="edge">
<title>Node10&#45;&gt;Node11</title>
<path fill="none" stroke="midnightblue" d="M265.85,-70.7C253.55,-69.84 240.76,-69.17 228.66,-68.75"/>
<polygon fill="midnightblue" stroke="midnightblue" points="265.8,-74.21 276.03,-71.46 266.32,-67.23 265.8,-74.21"/>
</g>
<!-- Node10&#45;&gt;Node12 -->
<g id="edge17" class="edge">
<title>Node10&#45;&gt;Node12</title>
<path fill="none" stroke="midnightblue" d="M266.04,-93.27C237.39,-101.14 206.01,-110.95 186.91,-118.37"/>
<polygon fill="midnightblue" stroke="midnightblue" points="267.29,-96.56 276.03,-90.58 265.46,-89.8 267.29,-96.56"/>
</g>
<!-- Node11&#45;&gt;Node10 -->
<g id="edge15" class="edge">
<title>Node11&#45;&gt;Node10</title>
<path fill="none" stroke="midnightblue" d="M234.72,-82.25C247.02,-83.11 259.81,-83.79 271.91,-84.21"/>
<polygon fill="midnightblue" stroke="midnightblue" points="234.76,-78.75 224.53,-81.49 234.24,-85.73 234.76,-78.75"/>
</g>
<!-- Node11&#45;&gt;Node11 -->
<g id="edge16" class="edge">
<title>Node11&#45;&gt;Node11</title>
<path fill="none" stroke="midnightblue" d="M192.55,-91C191.21,-96.1 183.03,-99.97 168,-99.97 144.54,-99.97 137.76,-90.54 147.65,-81.73"/>
<polygon fill="midnightblue" stroke="midnightblue" points="195.67,-89.39 188.35,-81.73 189.29,-92.28 195.67,-89.39"/>
</g>
<!-- Node12&#45;&gt;Node6 -->
<g id="edge19" class="edge">
<title>Node12&#45;&gt;Node6</title>
<path fill="none" stroke="midnightblue" d="M232.79,-131.52C329.22,-132.53 510.7,-129.16 603.56,-124.57"/>
<polygon fill="midnightblue" stroke="midnightblue" points="232.64,-128.02 222.6,-131.4 232.55,-135.02 232.64,-128.02"/>
</g>
<!-- Node12&#45;&gt;Node10 -->
<g id="edge20" class="edge">
<title>Node12&#45;&gt;Node10</title>
<path fill="none" stroke="midnightblue" d="M232.5,-116.21C261.78,-108.23 294.29,-98.09 313.8,-90.5"/>
<polygon fill="midnightblue" stroke="midnightblue" points="231.48,-112.86 222.72,-118.83 233.29,-119.63 231.48,-112.86"/>
</g>
<!-- Node13 -->
<g id="node13" class="node">
<title>Node13</title>
<g id="a_node13"><a xlink:href="classMenu.html#a323509e5b6f4dc00536e87efd65b8b94" target="_top" xlink:title=" ">
<polygon fill="none" stroke="black" points="0,-118.47 0,-137.47 69,-137.47 69,-118.47 0,-118.47"/>
<text text-anchor="middle" x="34.5" y="-125.47" font-family="Helvetica,sans-Serif" font-size="10.00">Menu::Menu</text>
</a>
</g>
</g>
<!-- Node12&#45;&gt;Node13 -->
<g id="edge18" class="edge">
<title>Node12&#45;&gt;Node13</title>
<path fill="none" stroke="midnightblue" d="M102.92,-127.97C91.23,-127.97 79.47,-127.97 69.12,-127.97"/>
<polygon fill="midnightblue" stroke="midnightblue" points="103.13,-131.47 113.13,-127.97 103.13,-124.47 103.13,-131.47"/>
</g>
<!-- Node14&#45;&gt;Node6 -->
<g id="edge24" class="edge">
<title>Node14&#45;&gt;Node6</title>
<path fill="none" stroke="midnightblue" d="M556.34,-162.33C588.01,-152.02 625.64,-138.06 646.21,-128.52"/>
<polygon fill="midnightblue" stroke="midnightblue" points="555.19,-159.03 546.73,-165.41 557.32,-165.69 555.19,-159.03"/>
</g>
<!-- Node15&#45;&gt;Node5 -->
<g id="edge30" class="edge">
<title>Node15&#45;&gt;Node5</title>
<path fill="none" stroke="midnightblue" d="M892.78,-107.53C884.37,-108.74 875.66,-109.99 867.21,-111.2"/>
<polygon fill="midnightblue" stroke="midnightblue" points="893.44,-110.98 902.85,-106.09 892.45,-104.05 893.44,-110.98"/>
</g>
<!-- Node15&#45;&gt;Node11 -->
<g id="edge31" class="edge">
<title>Node15&#45;&gt;Node11</title>
<path fill="none" stroke="midnightblue" d="M920.53,-85.4C872.47,-58.78 763.03,-4.97 663.5,-4.97 663.5,-4.97 663.5,-4.97 500,-4.97 396.1,-4.97 363.5,14.54 267,-23.97 247.92,-31.59 249.15,-43.35 231,-52.97 223.94,-56.72 216.03,-59.85 208.28,-62.42"/>
<polygon fill="midnightblue" stroke="midnightblue" points="918.87,-88.49 929.3,-90.34 922.31,-82.39 918.87,-88.49"/>
</g>
</g>
</svg>
        <g id="navigator" transform="translate(0 0)" fill="#404254">
                <rect fill="#f2f5e9" fill-opacity="0.5" stroke="#606060" stroke-width=".5" x="0" y="0" width="60" height="60"/>
                <use id="zoomplus" xlink:href="#zoomPlus" x="17" y="9" onmousedown="handleZoom(evt,'in')"/>
                <use id="zoomminus" xlink:href="#zoomMin" x="42" y="9" onmousedown="handleZoom(evt,'out')"/>
                <use id="reset" xlink:href="#resetDef" x="30" y="36" onmousedown="handleReset()"/>
                <g id="arrowUp" xlink:href="#dirArrow" transform="translate(30 24)" onmousedown="handlePan(0,-1)">
                  <use xlink:href="#rim" fill="#404040">
                        <set attributeName="fill" to="#808080" begin="arrowUp.mouseover" end="arrowUp.mouseout"/>
                  </use>
                  <path fill="none" stroke="white" stroke-width="1.5" d="M0,-3.0v7 M-2.5,-0.5L0,-3.0L2.5,-0.5"/>
                </g>
                <g id="arrowRight" xlink:href="#dirArrow" transform="rotate(90) translate(36 -43)" onmousedown="handlePan(1,0)">
                  <use xlink:href="#rim" fill="#404040">
                        <set attributeName="fill" to="#808080" begin="arrowRight.mouseover" end="arrowRight.mouseout"/>
                  </use>
                  <path fill="none" stroke="white" stroke-width="1.5" d="M0,-3.0v7 M-2.5,-0.5L0,-3.0L2.5,-0.5"/>
                </g>
                <g id="arrowDown" xlink:href="#dirArrow" transform="rotate(180) translate(-30 -48)" onmousedown="handlePan(0,1)">
                  <use xlink:href="#rim" fill="#404040">
                        <set attributeName="fill" to="#808080" begin="arrowDown.mouseover" end="arrowDown.mouseout"/>
                  </use>
                  <path fill="none" stroke="white" stroke-width="1.5" d="M0,-3.0v7 M-2.5,-0.5L0,-3.0L2.5,-0.5"/>
                </g>
                <g id="arrowLeft" xlink:href="#dirArrow" transform="rotate(270) translate(-36 17)" onmousedown="handlePan(-1,0)">
                  <use xlink:href="#rim" fill="#404040">
                        <set attributeName="fill" to="#808080" begin="arrowLeft.mouseover" end="arrowLeft.mouseout"/>
                  </use>
                  <path fill="none" stroke="white" stroke-width="1.5" d="M0,-3.0v7 M-2.5,-0.5L0,-3.0L2.5,-0.5"/>
                </g>
        </g>
        <svg viewBox="0 0 15 15" width="100%" height="30px" preserveAspectRatio="xMaxYMin meet">
         <g id="arrow_out" transform="scale(0.3 0.3)">
          <a xlink:href="classShoppingCart_aed1f25cafeacfa931c9c2b0b0cd6c442_icgraph_org.svg" target="_base">
           <rect id="button" ry="5" rx="5" y="6" x="6" height="38" width="38"
                fill="#f2f5e9" fill-opacity="0.5" stroke="#606060" stroke-width="1.0"/>
           <path id="arrow"
             d="M 11.500037,31.436501 C 11.940474,20.09759 22.043105,11.32322 32.158766,21.979434 L 37.068811,17.246167 C 37.068811,17.246167 37.088388,32 37.088388,32 L 22.160133,31.978069 C 22.160133,31.978069 26.997745,27.140456 26.997745,27.140456 C 18.528582,18.264221 13.291696,25.230495 11.500037,31.436501 z"
             style="fill:#404040;"/>
          </a>
         </g>
        </svg>
</svg>
