<?xml version="1.0" encoding="UTF-8" standalone="no"?>
<!DOCTYPE svg PUBLIC "-//W3C//DTD SVG 1.1//EN"
 "http://www.w3.org/Graphics/SVG/1.1/DTD/svg11.dtd">
<!-- Generated by graphviz version 2.49.3 (20211027.1534)
 -->
<!-- Title: ShoppingCart::removeItemOrder Pages: 1 -->
<svg width="1597pt" height="188pt"
 viewBox="0.00 0.00 1597.00 188.00" xmlns="http://www.w3.org/2000/svg" xmlns:xlink="http://www.w3.org/1999/xlink">
<g id="graph0" class="graph" transform="scale(1 1) rotate(0) translate(4 184)">
<title>ShoppingCart::removeItemOrder</title>
<!-- Node1 -->
<g id="node1" class="node">
<title>Node1</title>
<g id="a_node1"><a xlink:title="Remove an item from the cart completely.">
<polygon fill="#bfbfbf" stroke="black" points="1434,-92.5 1434,-111.5 1589,-111.5 1589,-92.5 1434,-92.5"/>
<text text-anchor="middle" x="1511.5" y="-99.5" font-family="Helvetica,sans-Serif" font-size="10.00">ShoppingCart::removeItemOrder</text>
</a>
</g>
</g>
<!-- Node2 -->
<g id="node2" class="node">
<title>Node2</title>
<g id="a_node2"><a xlink:href="classShoppingCart.html#a211bfa95c5d4346f6405e93b9f4a1990" target="_top" xlink:title="Changes the quantity of an item in the cart.">
<polygon fill="none" stroke="black" points="1207,-115.5 1207,-134.5 1398,-134.5 1398,-115.5 1207,-115.5"/>
<text text-anchor="middle" x="1302.5" y="-122.5" font-family="Helvetica,sans-Serif" font-size="10.00">ShoppingCart::changeItemOrderQuantity</text>
</a>
</g>
</g>
<!-- Node1&#45;&gt;Node2 -->
<g id="edge1" class="edge">
<title>Node1&#45;&gt;Node2</title>
<path fill="none" stroke="midnightblue" d="M1423.76,-111.64C1412.33,-112.91 1400.63,-114.21 1389.22,-115.48"/>
<polygon fill="midnightblue" stroke="midnightblue" points="1424.16,-115.11 1433.72,-110.53 1423.39,-108.16 1424.16,-115.11"/>
</g>
<!-- Node16 -->
<g id="node16" class="node">
<title>Node16</title>
<g id="a_node16"><a xlink:href="classBuyer.html#abbce820121c4111b8d8384c88f9e44c8" target="_top" xlink:title="Removes an item from the cart completely.">
<polygon fill="none" stroke="black" points="1039,-64.5 1039,-83.5 1164,-83.5 1164,-64.5 1039,-64.5"/>
<text text-anchor="middle" x="1101.5" y="-71.5" font-family="Helvetica,sans-Serif" font-size="10.00">Buyer::removeFromOrder</text>
</a>
</g>
</g>
<!-- Node1&#45;&gt;Node16 -->
<g id="edge30" class="edge">
<title>Node1&#45;&gt;Node16</title>
<path fill="none" stroke="midnightblue" d="M1423.48,-96.03C1345.56,-90.68 1233.26,-82.97 1164.24,-78.24"/>
<polygon fill="midnightblue" stroke="midnightblue" points="1423.54,-99.54 1433.76,-96.73 1424.02,-92.56 1423.54,-99.54"/>
</g>
<!-- Node3 -->
<g id="node3" class="node">
<title>Node3</title>
<g id="a_node3"><a xlink:href="classShoppingCart.html#a5481a654a62253b5de2650f9149f6780" target="_top" xlink:title="Add quantity of an Item to the cart.">
<polygon fill="none" stroke="black" points="1032,-117.5 1032,-136.5 1171,-136.5 1171,-117.5 1032,-117.5"/>
<text text-anchor="middle" x="1101.5" y="-124.5" font-family="Helvetica,sans-Serif" font-size="10.00">ShoppingCart::addItemOrder</text>
</a>
</g>
</g>
<!-- Node2&#45;&gt;Node3 -->
<g id="edge2" class="edge">
<title>Node2&#45;&gt;Node3</title>
<path fill="none" stroke="midnightblue" d="M1196.79,-126.05C1188.14,-126.14 1179.55,-126.23 1171.27,-126.31"/>
<polygon fill="midnightblue" stroke="midnightblue" points="1196.99,-129.55 1206.95,-125.95 1196.92,-122.55 1196.99,-129.55"/>
</g>
<!-- Node4 -->
<g id="node4" class="node">
<title>Node4</title>
<g id="a_node4"><a xlink:href="classBuyer.html#a50ddd9046308e8ac9b82c0665d07452b" target="_top" xlink:title="Add an item to the cart with the specified quantity.">
<polygon fill="none" stroke="black" points="903,-117.5 903,-136.5 996,-136.5 996,-117.5 903,-117.5"/>
<text text-anchor="middle" x="949.5" y="-124.5" font-family="Helvetica,sans-Serif" font-size="10.00">Buyer::placeOrder</text>
</a>
</g>
</g>
<!-- Node3&#45;&gt;Node4 -->
<g id="edge3" class="edge">
<title>Node3&#45;&gt;Node4</title>
<path fill="none" stroke="midnightblue" d="M1021.49,-127C1012.84,-127 1004.26,-127 996.21,-127"/>
<polygon fill="midnightblue" stroke="midnightblue" points="1021.65,-130.5 1031.65,-127 1021.65,-123.5 1021.65,-130.5"/>
</g>
<!-- Node5 -->
<g id="node5" class="node">
<title>Node5</title>
<g id="a_node5"><a xlink:href="main_8cpp.html#a3c04138a5bfe5d72780bb7e82a18e627" target="_top" xlink:title=" ">
<polygon fill="none" stroke="black" points="793,-118.5 793,-137.5 831,-137.5 831,-118.5 793,-118.5"/>
<text text-anchor="middle" x="812" y="-125.5" font-family="Helvetica,sans-Serif" font-size="10.00">main</text>
</a>
</g>
</g>
<!-- Node4&#45;&gt;Node5 -->
<g id="edge4" class="edge">
<title>Node4&#45;&gt;Node5</title>
<path fill="none" stroke="midnightblue" d="M892.41,-127.41C870.57,-127.58 847.06,-127.75 831.34,-127.86"/>
<polygon fill="midnightblue" stroke="midnightblue" points="892.65,-130.91 902.63,-127.34 892.6,-123.91 892.65,-130.91"/>
</g>
<!-- Node6 -->
<g id="node6" class="node">
<title>Node6</title>
<g id="a_node6"><a xlink:href="classMenu.html#a781c392fdcd203e436f5dc6e78f057a8" target="_top" xlink:title=" ">
<polygon fill="none" stroke="black" points="757,-62.5 757,-81.5 867,-81.5 867,-62.5 757,-62.5"/>
<text text-anchor="middle" x="812" y="-69.5" font-family="Helvetica,sans-Serif" font-size="10.00">Menu::showCartMenu</text>
</a>
</g>
</g>
<!-- Node4&#45;&gt;Node6 -->
<g id="edge5" class="edge">
<title>Node4&#45;&gt;Node6</title>
<path fill="none" stroke="midnightblue" d="M915.36,-113.55C891.03,-103.67 858.57,-90.5 836.79,-81.66"/>
<polygon fill="midnightblue" stroke="midnightblue" points="914.32,-116.9 924.9,-117.42 916.95,-110.42 914.32,-116.9"/>
</g>
<!-- Node10 -->
<g id="node10" class="node">
<title>Node10</title>
<g id="a_node10"><a xlink:href="classMenu.html#a957fada7140f67c43e3ee253ae863125" target="_top" xlink:title=" ">
<polygon fill="none" stroke="black" points="105,-150.5 105,-169.5 231,-169.5 231,-150.5 105,-150.5"/>
<text text-anchor="middle" x="168" y="-157.5" font-family="Helvetica,sans-Serif" font-size="10.00">Menu::showProductMenu</text>
</a>
</g>
</g>
<!-- Node4&#45;&gt;Node10 -->
<g id="edge29" class="edge">
<title>Node4&#45;&gt;Node10</title>
<path fill="none" stroke="midnightblue" d="M907.95,-139.41C853.07,-155.07 751.86,-180 663.5,-180 663.5,-180 663.5,-180 500,-180 406.16,-180 297.63,-171.89 231.16,-166"/>
<polygon fill="midnightblue" stroke="midnightblue" points="909.01,-142.74 917.64,-136.6 907.06,-136.02 909.01,-142.74"/>
</g>
<!-- Node6&#45;&gt;Node6 -->
<g id="edge28" class="edge">
<title>Node6&#45;&gt;Node6</title>
<path fill="none" stroke="midnightblue" d="M837.3,-91.03C835.92,-96.13 827.49,-100 812,-100 787.83,-100 780.84,-90.57 791.04,-81.76"/>
<polygon fill="midnightblue" stroke="midnightblue" points="840.37,-89.33 832.96,-81.76 834.03,-92.3 840.37,-89.33"/>
</g>
<!-- Node7 -->
<g id="node7" class="node">
<title>Node7</title>
<g id="a_node7"><a xlink:href="classMenu.html#a2ecf65abb196d80c5a5c354155019a93" target="_top" xlink:title=" ">
<polygon fill="none" stroke="black" points="604,-62.5 604,-81.5 721,-81.5 721,-62.5 604,-62.5"/>
<text text-anchor="middle" x="662.5" y="-69.5" font-family="Helvetica,sans-Serif" font-size="10.00">Menu::showBuyerMenu</text>
</a>
</g>
</g>
<!-- Node6&#45;&gt;Node7 -->
<g id="edge6" class="edge">
<title>Node6&#45;&gt;Node7</title>
<path fill="none" stroke="midnightblue" d="M746.64,-65.3C738.13,-65.21 729.44,-65.24 721.05,-65.4"/>
<polygon fill="midnightblue" stroke="midnightblue" points="746.86,-68.8 756.91,-65.47 746.97,-61.8 746.86,-68.8"/>
</g>
<!-- Node7&#45;&gt;Node6 -->
<g id="edge23" class="edge">
<title>Node7&#45;&gt;Node6</title>
<path fill="none" stroke="midnightblue" d="M731.12,-78.73C739.76,-78.79 748.52,-78.72 756.91,-78.53"/>
<polygon fill="midnightblue" stroke="midnightblue" points="731.1,-75.23 721.05,-78.6 731.01,-82.23 731.1,-75.23"/>
</g>
<!-- Node7&#45;&gt;Node7 -->
<g id="edge22" class="edge">
<title>Node7&#45;&gt;Node7</title>
<path fill="none" stroke="midnightblue" d="M690.13,-90.65C688.97,-95.94 679.76,-100 662.5,-100 636.2,-100 628.59,-90.57 639.69,-81.76"/>
<polygon fill="midnightblue" stroke="midnightblue" points="693.15,-88.89 685.31,-81.76 686.99,-92.22 693.15,-88.89"/>
</g>
<!-- Node8 -->
<g id="node8" class="node">
<title>Node8</title>
<g id="a_node8"><a xlink:href="classMenu.html#a1de78dc75d7de7db8bce09a70dbbf77f" target="_top" xlink:title=" ">
<polygon fill="none" stroke="black" points="438.5,-132.5 438.5,-151.5 563.5,-151.5 563.5,-132.5 438.5,-132.5"/>
<text text-anchor="middle" x="501" y="-139.5" font-family="Helvetica,sans-Serif" font-size="10.00">Menu::showBrowseMenu</text>
</a>
</g>
</g>
<!-- Node7&#45;&gt;Node8 -->
<g id="edge7" class="edge">
<title>Node7&#45;&gt;Node8</title>
<path fill="none" stroke="midnightblue" d="M618.29,-86.02C602.62,-93.3 584.68,-101.89 568,-109 548.71,-117.22 525.55,-125.23 512.42,-132.33"/>
<polygon fill="midnightblue" stroke="midnightblue" points="620.1,-89.04 627.72,-81.67 617.17,-82.68 620.1,-89.04"/>
</g>
<!-- Node11 -->
<g id="node11" class="node">
<title>Node11</title>
<g id="a_node11"><a xlink:href="classMenu.html#a6a602f7f37917ae9582719a89246b73b" target="_top" xlink:title=" ">
<polygon fill="none" stroke="black" points="272,-94.5 272,-113.5 393,-113.5 393,-94.5 272,-94.5"/>
<text text-anchor="middle" x="332.5" y="-101.5" font-family="Helvetica,sans-Serif" font-size="10.00">Menu::showOwnerMenu</text>
</a>
</g>
</g>
<!-- Node7&#45;&gt;Node11 -->
<g id="edge26" class="edge">
<title>Node7&#45;&gt;Node11</title>
<path fill="none" stroke="midnightblue" d="M594,-78.59C534.89,-84.35 449.82,-92.65 393.16,-98.18"/>
<polygon fill="midnightblue" stroke="midnightblue" points="594.38,-82.07 603.99,-77.61 593.7,-75.1 594.38,-82.07"/>
</g>
<!-- Node13 -->
<g id="node13" class="node">
<title>Node13</title>
<g id="a_node13"><a xlink:href="classMenu.html#aaef7622e532f3424a27fce4d16dbda47" target="_top" xlink:title=" ">
<polygon fill="none" stroke="black" points="113.5,-52.5 113.5,-71.5 222.5,-71.5 222.5,-52.5 113.5,-52.5"/>
<text text-anchor="middle" x="168" y="-59.5" font-family="Helvetica,sans-Serif" font-size="10.00">Menu::showWelcome</text>
</a>
</g>
</g>
<!-- Node7&#45;&gt;Node13 -->
<g id="edge27" class="edge">
<title>Node7&#45;&gt;Node13</title>
<path fill="none" stroke="midnightblue" d="M593.36,-65.78C494.34,-61.08 312.69,-57.54 222.6,-58.69"/>
<polygon fill="midnightblue" stroke="midnightblue" points="593.4,-69.29 603.56,-66.28 593.74,-62.3 593.4,-69.29"/>
</g>
<!-- Node15 -->
<g id="node15" class="node">
<title>Node15</title>
<g id="a_node15"><a xlink:href="classMenu.html#a3905222cc1c1ec7ed2dce13e16555c52" target="_top" xlink:title=" ">
<polygon fill="none" stroke="black" points="434,-0.5 434,-19.5 568,-19.5 568,-0.5 434,-0.5"/>
<text text-anchor="middle" x="501" y="-7.5" font-family="Helvetica,sans-Serif" font-size="10.00">Menu::showCheckoutMenu</text>
</a>
</g>
</g>
<!-- Node7&#45;&gt;Node15 -->
<g id="edge24" class="edge">
<title>Node7&#45;&gt;Node15</title>
<path fill="none" stroke="midnightblue" d="M642.99,-57.44C624.18,-47.41 594.18,-35.08 568,-25 563.33,-23.2 558.47,-21.37 553.59,-19.59"/>
<polygon fill="midnightblue" stroke="midnightblue" points="641.31,-60.51 651.72,-62.45 644.79,-54.44 641.31,-60.51"/>
</g>
<!-- Node8&#45;&gt;Node7 -->
<g id="edge8" class="edge">
<title>Node8&#45;&gt;Node7</title>
<path fill="none" stroke="midnightblue" d="M563.85,-128.74C565.25,-128.16 566.63,-127.58 568,-127 599.95,-113.38 636.57,-94.31 652.88,-81.84"/>
<polygon fill="midnightblue" stroke="midnightblue" points="562.44,-125.54 554.44,-132.49 565.03,-132.04 562.44,-125.54"/>
</g>
<!-- Node9 -->
<g id="node9" class="node">
<title>Node9</title>
<g id="a_node9"><a xlink:href="classMenu.html#a8bdf4110581d8d8a82f6290f246201e7" target="_top" xlink:title=" ">
<polygon fill="none" stroke="black" points="267,-132.5 267,-151.5 398,-151.5 398,-132.5 267,-132.5"/>
<text text-anchor="middle" x="332.5" y="-139.5" font-family="Helvetica,sans-Serif" font-size="10.00">Menu::showCategoryMenu</text>
</a>
</g>
</g>
<!-- Node8&#45;&gt;Node9 -->
<g id="edge9" class="edge">
<title>Node8&#45;&gt;Node9</title>
<path fill="none" stroke="midnightblue" d="M428.17,-135.31C418.18,-135.21 407.97,-135.24 398.12,-135.4"/>
<polygon fill="midnightblue" stroke="midnightblue" points="428.42,-138.81 438.47,-135.46 428.53,-131.81 428.42,-138.81"/>
</g>
<!-- Node8&#45;&gt;Node11 -->
<g id="edge13" class="edge">
<title>Node8&#45;&gt;Node11</title>
<path fill="none" stroke="midnightblue" d="M468.79,-129.47C447.54,-123.34 418.73,-116.4 393.15,-111.11"/>
<polygon fill="midnightblue" stroke="midnightblue" points="467.99,-132.89 478.57,-132.41 470,-126.18 467.99,-132.89"/>
</g>
<!-- Node9&#45;&gt;Node8 -->
<g id="edge10" class="edge">
<title>Node9&#45;&gt;Node8</title>
<path fill="none" stroke="midnightblue" d="M408.17,-148.72C418.31,-148.79 428.61,-148.73 438.47,-148.54"/>
<polygon fill="midnightblue" stroke="midnightblue" points="408.16,-145.22 398.12,-148.6 408.08,-152.22 408.16,-145.22"/>
</g>
<!-- Node9&#45;&gt;Node10 -->
<g id="edge11" class="edge">
<title>Node9&#45;&gt;Node10</title>
<path fill="none" stroke="midnightblue" d="M256.68,-143.56C238.31,-145.48 219.5,-147.92 204.04,-150.45"/>
<polygon fill="midnightblue" stroke="midnightblue" points="257.21,-147.02 266.81,-142.54 256.51,-140.06 257.21,-147.02"/>
</g>
<!-- Node10&#45;&gt;Node9 -->
<g id="edge12" class="edge">
<title>Node10&#45;&gt;Node9</title>
<path fill="none" stroke="midnightblue" d="M241.03,-158.73C260.34,-156.76 280.36,-154.19 296.64,-151.52"/>
<polygon fill="midnightblue" stroke="midnightblue" points="240.63,-155.25 231.02,-159.71 241.31,-162.22 240.63,-155.25"/>
</g>
<!-- Node11&#45;&gt;Node8 -->
<g id="edge14" class="edge">
<title>Node11&#45;&gt;Node8</title>
<path fill="none" stroke="midnightblue" d="M364.85,-116.57C385.57,-122.54 413.43,-129.28 438.47,-134.5"/>
<polygon fill="midnightblue" stroke="midnightblue" points="365.59,-113.14 355,-113.62 363.58,-119.84 365.59,-113.14"/>
</g>
<!-- Node12 -->
<g id="node12" class="node">
<title>Node12</title>
<g id="a_node12"><a xlink:href="classMenu.html#a788512183de460d13b8a2dfb571c03f2" target="_top" xlink:title=" ">
<polygon fill="none" stroke="black" points="107.5,-94.5 107.5,-113.5 228.5,-113.5 228.5,-94.5 107.5,-94.5"/>
<text text-anchor="middle" x="168" y="-101.5" font-family="Helvetica,sans-Serif" font-size="10.00">Menu::showStatusMenu</text>
</a>
</g>
</g>
<!-- Node11&#45;&gt;Node12 -->
<g id="edge15" class="edge">
<title>Node11&#45;&gt;Node12</title>
<path fill="none" stroke="midnightblue" d="M261.85,-97.31C250.77,-97.19 239.4,-97.25 228.58,-97.47"/>
<polygon fill="midnightblue" stroke="midnightblue" points="261.86,-100.81 271.91,-97.47 261.97,-93.81 261.86,-100.81"/>
</g>
<!-- Node11&#45;&gt;Node13 -->
<g id="edge18" class="edge">
<title>Node11&#45;&gt;Node13</title>
<path fill="none" stroke="midnightblue" d="M302.74,-91.27C280.61,-84.1 249.4,-75.67 222.69,-69.49"/>
<polygon fill="midnightblue" stroke="midnightblue" points="301.63,-94.59 312.22,-94.46 303.86,-87.95 301.63,-94.59"/>
</g>
<!-- Node12&#45;&gt;Node11 -->
<g id="edge16" class="edge">
<title>Node12&#45;&gt;Node11</title>
<path fill="none" stroke="midnightblue" d="M238.65,-110.69C249.72,-110.81 261.09,-110.75 271.91,-110.53"/>
<polygon fill="midnightblue" stroke="midnightblue" points="238.63,-107.19 228.58,-110.53 238.52,-114.19 238.63,-107.19"/>
</g>
<!-- Node12&#45;&gt;Node12 -->
<g id="edge17" class="edge">
<title>Node12&#45;&gt;Node12</title>
<path fill="none" stroke="midnightblue" d="M192.55,-123.03C191.21,-128.13 183.03,-132 168,-132 144.54,-132 137.76,-122.57 147.65,-113.76"/>
<polygon fill="midnightblue" stroke="midnightblue" points="195.67,-121.42 188.35,-113.76 189.29,-124.31 195.67,-121.42"/>
</g>
<!-- Node13&#45;&gt;Node7 -->
<g id="edge20" class="edge">
<title>Node13&#45;&gt;Node7</title>
<path fill="none" stroke="midnightblue" d="M232.79,-68.01C329.22,-72.74 510.7,-76.37 603.56,-75.36"/>
<polygon fill="midnightblue" stroke="midnightblue" points="232.76,-64.5 222.6,-67.49 232.4,-71.49 232.76,-64.5"/>
</g>
<!-- Node13&#45;&gt;Node11 -->
<g id="edge21" class="edge">
<title>Node13&#45;&gt;Node11</title>
<path fill="none" stroke="midnightblue" d="M197.87,-74.76C218.38,-81.4 246.65,-89.12 271.91,-95.13"/>
<polygon fill="midnightblue" stroke="midnightblue" points="198.78,-71.38 188.19,-71.5 196.55,-78.01 198.78,-71.38"/>
</g>
<!-- Node14 -->
<g id="node14" class="node">
<title>Node14</title>
<g id="a_node14"><a xlink:href="classMenu.html#a323509e5b6f4dc00536e87efd65b8b94" target="_top" xlink:title=" ">
<polygon fill="none" stroke="black" points="0,-52.5 0,-71.5 69,-71.5 69,-52.5 0,-52.5"/>
<text text-anchor="middle" x="34.5" y="-59.5" font-family="Helvetica,sans-Serif" font-size="10.00">Menu::Menu</text>
</a>
</g>
</g>
<!-- Node13&#45;&gt;Node14 -->
<g id="edge19" class="edge">
<title>Node13&#45;&gt;Node14</title>
<path fill="none" stroke="midnightblue" d="M102.92,-62C91.23,-62 79.47,-62 69.12,-62"/>
<polygon fill="midnightblue" stroke="midnightblue" points="103.13,-65.5 113.13,-62 103.13,-58.5 103.13,-65.5"/>
</g>
<!-- Node15&#45;&gt;Node7 -->
<g id="edge25" class="edge">
<title>Node15&#45;&gt;Node7</title>
<path fill="none" stroke="midnightblue" d="M520.94,-24.25C534.17,-30.39 552.22,-36.93 568,-43 584.35,-49.29 602.2,-56.47 617.87,-62.34"/>
<polygon fill="midnightblue" stroke="midnightblue" points="522.38,-21.05 511.88,-19.64 519.21,-27.29 522.38,-21.05"/>
</g>
<!-- Node16&#45;&gt;Node6 -->
<g id="edge31" class="edge">
<title>Node16&#45;&gt;Node6</title>
<path fill="none" stroke="midnightblue" d="M1028.72,-73.5C978.69,-73.15 913,-72.7 867.3,-72.38"/>
<polygon fill="midnightblue" stroke="midnightblue" points="1028.8,-77 1038.82,-73.57 1028.85,-70 1028.8,-77"/>
</g>
</g>
</svg>
