<?xml version="1.0" encoding="UTF-8" standalone="no"?>
<!DOCTYPE svg PUBLIC "-//W3C//DTD SVG 1.1//EN"
 "http://www.w3.org/Graphics/SVG/1.1/DTD/svg11.dtd">
<!-- Generated by graphviz version 2.49.3 (20211027.1534)
 -->
<!-- Title: EShop::updateItemStock Pages: 1 -->
<svg width="248pt" height="66pt"
 viewBox="0.00 0.00 248.00 66.00" xmlns="http://www.w3.org/2000/svg" xmlns:xlink="http://www.w3.org/1999/xlink">
<g id="graph0" class="graph" transform="scale(1 1) rotate(0) translate(4 62)">
<title>EShop::updateItemStock</title>
<!-- Node1 -->
<g id="node1" class="node">
<title>Node1</title>
<g id="a_node1"><a xlink:title="Update an Item&#39;s stock.">
<polygon fill="#bfbfbf" stroke="black" points="0,-19.5 0,-38.5 124,-38.5 124,-19.5 0,-19.5"/>
<text text-anchor="middle" x="62" y="-26.5" font-family="Helvetica,sans-Serif" font-size="10.00">EShop::updateItemStock</text>
</a>
</g>
</g>
<!-- Node2 -->
<g id="node2" class="node">
<title>Node2</title>
<g id="a_node2"><a xlink:href="classItem.html#adb47826cabe2aae97ad65a57cd04f963" target="_top" xlink:title="Get the Item&#39;s stock.">
<polygon fill="none" stroke="black" points="160,-38.5 160,-57.5 240,-57.5 240,-38.5 160,-38.5"/>
<text text-anchor="middle" x="200" y="-45.5" font-family="Helvetica,sans-Serif" font-size="10.00">Item::getStock</text>
</a>
</g>
</g>
<!-- Node1&#45;&gt;Node2 -->
<g id="edge1" class="edge">
<title>Node1&#45;&gt;Node2</title>
<path fill="none" stroke="midnightblue" d="M124.24,-37.56C132.86,-38.76 141.63,-39.98 149.98,-41.15"/>
<polygon fill="midnightblue" stroke="midnightblue" points="149.53,-44.62 159.92,-42.54 150.5,-37.69 149.53,-44.62"/>
</g>
<!-- Node3 -->
<g id="node3" class="node">
<title>Node3</title>
<g id="a_node3"><a xlink:href="classItem.html#a0fa2135af2d5ac406fc7ee8d9b73aeec" target="_top" xlink:title="Set the stock of an item.">
<polygon fill="none" stroke="black" points="160,-0.5 160,-19.5 240,-19.5 240,-0.5 160,-0.5"/>
<text text-anchor="middle" x="200" y="-7.5" font-family="Helvetica,sans-Serif" font-size="10.00">Item::setStock</text>
</a>
</g>
</g>
<!-- Node1&#45;&gt;Node3 -->
<g id="edge2" class="edge">
<title>Node1&#45;&gt;Node3</title>
<path fill="none" stroke="midnightblue" d="M124.24,-20.44C132.86,-19.24 141.63,-18.02 149.98,-16.85"/>
<polygon fill="midnightblue" stroke="midnightblue" points="150.5,-20.31 159.92,-15.46 149.53,-13.38 150.5,-20.31"/>
</g>
</g>
</svg>
