<?xml version="1.0" encoding="UTF-8" standalone="no"?>
<!DOCTYPE svg PUBLIC "-//W3C//DTD SVG 1.1//EN"
 "http://www.w3.org/Graphics/SVG/1.1/DTD/svg11.dtd">
<!-- Generated by graphviz version 2.49.3 (20211027.1534)
 -->
<!-- Title: src/eshoperror.h Pages: 1 -->
<svg width="501pt" height="140pt"
 viewBox="0.00 0.00 500.50 140.00" xmlns="http://www.w3.org/2000/svg" xmlns:xlink="http://www.w3.org/1999/xlink">
<g id="graph0" class="graph" transform="scale(1 1) rotate(0) translate(4 136)">
<title>src/eshoperror.h</title>
<!-- Node1 -->
<g id="node1" class="node">
<title>Node1</title>
<g id="a_node1"><a xlink:title=" ">
<polygon fill="#bfbfbf" stroke="black" points="193,-112.5 193,-131.5 279,-131.5 279,-112.5 193,-112.5"/>
<text text-anchor="middle" x="236" y="-119.5" font-family="Helvetica,sans-Serif" font-size="10.00">src/eshoperror.h</text>
</a>
</g>
</g>
<!-- Node2 -->
<g id="node2" class="node">
<title>Node2</title>
<g id="a_node2"><a xlink:href="buyer_8cpp.html" target="_top" xlink:title=" ">
<polygon fill="none" stroke="black" points="0,-56.5 0,-75.5 74,-75.5 74,-56.5 0,-56.5"/>
<text text-anchor="middle" x="37" y="-63.5" font-family="Helvetica,sans-Serif" font-size="10.00">src/buyer.cpp</text>
</a>
</g>
</g>
<!-- Node1&#45;&gt;Node2 -->
<g id="edge1" class="edge">
<title>Node1&#45;&gt;Node2</title>
<path fill="none" stroke="midnightblue" d="M194.35,-109.7C156.79,-99.51 102.39,-84.74 68.38,-75.52"/>
<polygon fill="midnightblue" stroke="midnightblue" points="193.9,-113.2 204.47,-112.44 195.73,-106.45 193.9,-113.2"/>
</g>
<!-- Node3 -->
<g id="node3" class="node">
<title>Node3</title>
<g id="a_node3"><a xlink:href="eshop_8cpp.html" target="_top" xlink:title=" ">
<polygon fill="none" stroke="black" points="92.5,-56.5 92.5,-75.5 169.5,-75.5 169.5,-56.5 92.5,-56.5"/>
<text text-anchor="middle" x="131" y="-63.5" font-family="Helvetica,sans-Serif" font-size="10.00">src/eshop.cpp</text>
</a>
</g>
</g>
<!-- Node1&#45;&gt;Node3 -->
<g id="edge2" class="edge">
<title>Node1&#45;&gt;Node3</title>
<path fill="none" stroke="midnightblue" d="M210.19,-107.73C190.75,-97.73 164.65,-84.31 147.83,-75.65"/>
<polygon fill="midnightblue" stroke="midnightblue" points="208.64,-110.86 219.13,-112.32 211.84,-104.64 208.64,-110.86"/>
</g>
<!-- Node4 -->
<g id="node4" class="node">
<title>Node4</title>
<g id="a_node4"><a xlink:href="eshoperror_8cpp.html" target="_top" xlink:title=" ">
<polygon fill="none" stroke="black" points="187.5,-56.5 187.5,-75.5 284.5,-75.5 284.5,-56.5 187.5,-56.5"/>
<text text-anchor="middle" x="236" y="-63.5" font-family="Helvetica,sans-Serif" font-size="10.00">src/eshoperror.cpp</text>
</a>
</g>
</g>
<!-- Node1&#45;&gt;Node4 -->
<g id="edge3" class="edge">
<title>Node1&#45;&gt;Node4</title>
<path fill="none" stroke="midnightblue" d="M236,-101.8C236,-92.91 236,-82.78 236,-75.75"/>
<polygon fill="midnightblue" stroke="midnightblue" points="232.5,-102.08 236,-112.08 239.5,-102.08 232.5,-102.08"/>
</g>
<!-- Node5 -->
<g id="node5" class="node">
<title>Node5</title>
<g id="a_node5"><a xlink:href="menu_8h.html" target="_top" xlink:title=" ">
<polygon fill="none" stroke="black" points="302.5,-56.5 302.5,-75.5 367.5,-75.5 367.5,-56.5 302.5,-56.5"/>
<text text-anchor="middle" x="335" y="-63.5" font-family="Helvetica,sans-Serif" font-size="10.00">src/menu.h</text>
</a>
</g>
</g>
<!-- Node1&#45;&gt;Node5 -->
<g id="edge4" class="edge">
<title>Node1&#45;&gt;Node5</title>
<path fill="none" stroke="midnightblue" d="M260.84,-107.45C279.11,-97.48 303.42,-84.23 319.13,-75.65"/>
<polygon fill="midnightblue" stroke="midnightblue" points="259.01,-104.46 251.91,-112.32 262.36,-110.61 259.01,-104.46"/>
</g>
<!-- Node8 -->
<g id="node8" class="node">
<title>Node8</title>
<g id="a_node8"><a xlink:href="shoppingcart_8cpp.html" target="_top" xlink:title=" ">
<polygon fill="none" stroke="black" points="385.5,-56.5 385.5,-75.5 492.5,-75.5 492.5,-56.5 385.5,-56.5"/>
<text text-anchor="middle" x="439" y="-63.5" font-family="Helvetica,sans-Serif" font-size="10.00">src/shoppingcart.cpp</text>
</a>
</g>
</g>
<!-- Node1&#45;&gt;Node8 -->
<g id="edge7" class="edge">
<title>Node1&#45;&gt;Node8</title>
<path fill="none" stroke="midnightblue" d="M277.99,-109.83C316.32,-99.63 372.15,-84.78 406.98,-75.52"/>
<polygon fill="midnightblue" stroke="midnightblue" points="276.93,-106.49 268.17,-112.44 278.73,-113.26 276.93,-106.49"/>
</g>
<!-- Node6 -->
<g id="node6" class="node">
<title>Node6</title>
<g id="a_node6"><a xlink:href="main_8cpp.html" target="_top" xlink:title=" ">
<polygon fill="none" stroke="black" points="253,-0.5 253,-19.5 325,-19.5 325,-0.5 253,-0.5"/>
<text text-anchor="middle" x="289" y="-7.5" font-family="Helvetica,sans-Serif" font-size="10.00">src/main.cpp</text>
</a>
</g>
</g>
<!-- Node5&#45;&gt;Node6 -->
<g id="edge5" class="edge">
<title>Node5&#45;&gt;Node6</title>
<path fill="none" stroke="midnightblue" d="M320.89,-48.43C312.82,-38.97 303.04,-27.48 296.45,-19.75"/>
<polygon fill="midnightblue" stroke="midnightblue" points="318.25,-50.74 327.4,-56.08 323.58,-46.2 318.25,-50.74"/>
</g>
<!-- Node7 -->
<g id="node7" class="node">
<title>Node7</title>
<g id="a_node7"><a xlink:href="menu_8cpp.html" target="_top" xlink:title=" ">
<polygon fill="none" stroke="black" points="343.5,-0.5 343.5,-19.5 418.5,-19.5 418.5,-0.5 343.5,-0.5"/>
<text text-anchor="middle" x="381" y="-7.5" font-family="Helvetica,sans-Serif" font-size="10.00">src/menu.cpp</text>
</a>
</g>
</g>
<!-- Node5&#45;&gt;Node7 -->
<g id="edge6" class="edge">
<title>Node5&#45;&gt;Node7</title>
<path fill="none" stroke="midnightblue" d="M349.11,-48.43C357.18,-38.97 366.96,-27.48 373.55,-19.75"/>
<polygon fill="midnightblue" stroke="midnightblue" points="346.42,-46.2 342.6,-56.08 351.75,-50.74 346.42,-46.2"/>
</g>
</g>
</svg>
