<?xml version="1.0" encoding="UTF-8" standalone="no"?>
<!DOCTYPE svg PUBLIC "-//W3C//DTD SVG 1.1//EN"
 "http://www.w3.org/Graphics/SVG/1.1/DTD/svg11.dtd">
<!-- Generated by graphviz version 2.49.3 (20211027.1534)
 -->
<!-- Title: src/eshop.h Pages: 1 -->
<svg width="239pt" height="196pt"
 viewBox="0.00 0.00 239.16 196.00" xmlns="http://www.w3.org/2000/svg" xmlns:xlink="http://www.w3.org/1999/xlink">
<g id="graph0" class="graph" transform="scale(1 1) rotate(0) translate(4 192)">
<title>src/eshop.h</title>
<!-- Node1 -->
<g id="node1" class="node">
<title>Node1</title>
<g id="a_node1"><a xlink:title=" ">
<polygon fill="#bfbfbf" stroke="black" points="59.66,-168.5 59.66,-187.5 126.66,-187.5 126.66,-168.5 59.66,-168.5"/>
<text text-anchor="middle" x="93.16" y="-175.5" font-family="Helvetica,sans-Serif" font-size="10.00">src/eshop.h</text>
</a>
</g>
</g>
<!-- Node2 -->
<g id="node2" class="node">
<title>Node2</title>
<g id="a_node2"><a xlink:title=" ">
<polygon fill="none" stroke="#bfbfbf" points="10.16,-0.5 10.16,-19.5 64.16,-19.5 64.16,-0.5 10.16,-0.5"/>
<text text-anchor="middle" x="37.16" y="-7.5" font-family="Helvetica,sans-Serif" font-size="10.00">iostream</text>
</a>
</g>
</g>
<!-- Node1&#45;&gt;Node2 -->
<g id="edge1" class="edge">
<title>Node1&#45;&gt;Node2</title>
<path fill="none" stroke="midnightblue" d="M59.47,-168.9C40.25,-162.37 17.74,-151.03 6.16,-132 1.32,-124.05 -4.89,-94.57 7.16,-56 10.41,-45.6 16.88,-35.38 22.98,-27.32"/>
<polygon fill="midnightblue" stroke="midnightblue" points="25.73,-29.49 29.28,-19.51 20.28,-25.09 25.73,-29.49"/>
</g>
<!-- Node3 -->
<g id="node3" class="node">
<title>Node3</title>
<g id="a_node3"><a xlink:title=" ">
<polygon fill="none" stroke="#bfbfbf" points="187.16,-112.5 187.16,-131.5 231.16,-131.5 231.16,-112.5 187.16,-112.5"/>
<text text-anchor="middle" x="209.16" y="-119.5" font-family="Helvetica,sans-Serif" font-size="10.00">vector</text>
</a>
</g>
</g>
<!-- Node1&#45;&gt;Node3 -->
<g id="edge2" class="edge">
<title>Node1&#45;&gt;Node3</title>
<path fill="none" stroke="midnightblue" d="M111.54,-168.44C130.38,-159.68 159.89,-145.94 181.54,-135.86"/>
<polygon fill="midnightblue" stroke="midnightblue" points="183.28,-138.91 190.87,-131.52 180.32,-132.56 183.28,-138.91"/>
</g>
<!-- Node4 -->
<g id="node4" class="node">
<title>Node4</title>
<g id="a_node4"><a xlink:href="item_8h.html" target="_top" xlink:title=" ">
<polygon fill="none" stroke="black" points="76.66,-56.5 76.66,-75.5 119.66,-75.5 119.66,-56.5 76.66,-56.5"/>
<text text-anchor="middle" x="98.16" y="-63.5" font-family="Helvetica,sans-Serif" font-size="10.00">item.h</text>
</a>
</g>
</g>
<!-- Node1&#45;&gt;Node4 -->
<g id="edge3" class="edge">
<title>Node1&#45;&gt;Node4</title>
<path fill="none" stroke="midnightblue" d="M93.55,-168.37C94.36,-150.62 96.22,-109.67 97.32,-85.6"/>
<polygon fill="midnightblue" stroke="midnightblue" points="100.81,-85.74 97.77,-75.59 93.82,-85.42 100.81,-85.74"/>
</g>
<!-- Node5 -->
<g id="node5" class="node">
<title>Node5</title>
<g id="a_node5"><a xlink:href="owner_8h.html" target="_top" xlink:title=" ">
<polygon fill="none" stroke="black" points="15.16,-112.5 15.16,-131.5 65.16,-131.5 65.16,-112.5 15.16,-112.5"/>
<text text-anchor="middle" x="40.16" y="-119.5" font-family="Helvetica,sans-Serif" font-size="10.00">owner.h</text>
</a>
</g>
</g>
<!-- Node1&#45;&gt;Node5 -->
<g id="edge5" class="edge">
<title>Node1&#45;&gt;Node5</title>
<path fill="none" stroke="midnightblue" d="M84.41,-168.08C76.69,-160.22 65.26,-148.57 55.94,-139.08"/>
<polygon fill="midnightblue" stroke="midnightblue" points="58.25,-136.44 48.75,-131.75 53.26,-141.34 58.25,-136.44"/>
</g>
<!-- Node7 -->
<g id="node7" class="node">
<title>Node7</title>
<g id="a_node7"><a xlink:href="buyer_8h.html" target="_top" xlink:title=" ">
<polygon fill="none" stroke="black" points="121.66,-112.5 121.66,-131.5 168.66,-131.5 168.66,-112.5 121.66,-112.5"/>
<text text-anchor="middle" x="145.16" y="-119.5" font-family="Helvetica,sans-Serif" font-size="10.00">buyer.h</text>
</a>
</g>
</g>
<!-- Node1&#45;&gt;Node7 -->
<g id="edge8" class="edge">
<title>Node1&#45;&gt;Node7</title>
<path fill="none" stroke="midnightblue" d="M101.75,-168.08C109.32,-160.22 120.54,-148.57 129.68,-139.08"/>
<polygon fill="midnightblue" stroke="midnightblue" points="132.32,-141.38 136.73,-131.75 127.28,-136.53 132.32,-141.38"/>
</g>
<!-- Node4&#45;&gt;Node2 -->
<g id="edge4" class="edge">
<title>Node4&#45;&gt;Node2</title>
<path fill="none" stroke="midnightblue" d="M88.36,-56.32C79.34,-48.34 65.76,-36.31 54.84,-26.65"/>
<polygon fill="midnightblue" stroke="midnightblue" points="56.95,-23.84 47.14,-19.83 52.31,-29.08 56.95,-23.84"/>
</g>
<!-- Node6 -->
<g id="node6" class="node">
<title>Node6</title>
<g id="a_node6"><a xlink:href="user_8h.html" target="_top" xlink:title=" ">
<polygon fill="none" stroke="black" points="15.66,-56.5 15.66,-75.5 58.66,-75.5 58.66,-56.5 15.66,-56.5"/>
<text text-anchor="middle" x="37.16" y="-63.5" font-family="Helvetica,sans-Serif" font-size="10.00">user.h</text>
</a>
</g>
</g>
<!-- Node5&#45;&gt;Node6 -->
<g id="edge6" class="edge">
<title>Node5&#45;&gt;Node6</title>
<path fill="none" stroke="midnightblue" d="M39.67,-112.08C39.27,-105.01 38.71,-94.86 38.22,-85.99"/>
<polygon fill="midnightblue" stroke="midnightblue" points="41.7,-85.54 37.65,-75.75 34.71,-85.93 41.7,-85.54"/>
</g>
<!-- Node6&#45;&gt;Node2 -->
<g id="edge7" class="edge">
<title>Node6&#45;&gt;Node2</title>
<path fill="none" stroke="midnightblue" d="M37.16,-56.08C37.16,-49.01 37.16,-38.86 37.16,-29.99"/>
<polygon fill="midnightblue" stroke="midnightblue" points="40.66,-29.75 37.16,-19.75 33.66,-29.75 40.66,-29.75"/>
</g>
<!-- Node7&#45;&gt;Node4 -->
<g id="edge11" class="edge">
<title>Node7&#45;&gt;Node4</title>
<path fill="none" stroke="midnightblue" d="M137.4,-112.08C130.62,-104.3 120.62,-92.8 112.41,-83.37"/>
<polygon fill="midnightblue" stroke="midnightblue" points="114.98,-81 105.78,-75.75 109.7,-85.59 114.98,-81"/>
</g>
<!-- Node7&#45;&gt;Node6 -->
<g id="edge12" class="edge">
<title>Node7&#45;&gt;Node6</title>
<path fill="none" stroke="midnightblue" d="M127.81,-112.32C110.49,-103.66 83.65,-90.24 63.66,-80.25"/>
<polygon fill="midnightblue" stroke="midnightblue" points="64.98,-77 54.47,-75.65 61.85,-83.26 64.98,-77"/>
</g>
<!-- Node8 -->
<g id="node8" class="node">
<title>Node8</title>
<g id="a_node8"><a xlink:title=" ">
<polygon fill="none" stroke="#bfbfbf" points="191.16,-56.5 191.16,-75.5 221.16,-75.5 221.16,-56.5 191.16,-56.5"/>
<text text-anchor="middle" x="206.16" y="-63.5" font-family="Helvetica,sans-Serif" font-size="10.00">set</text>
</a>
</g>
</g>
<!-- Node7&#45;&gt;Node8 -->
<g id="edge9" class="edge">
<title>Node7&#45;&gt;Node8</title>
<path fill="none" stroke="midnightblue" d="M154.96,-112.32C163.98,-104.34 177.57,-92.31 188.48,-82.65"/>
<polygon fill="midnightblue" stroke="midnightblue" points="191.01,-85.08 196.18,-75.83 186.37,-79.84 191.01,-85.08"/>
</g>
<!-- Node9 -->
<g id="node9" class="node">
<title>Node9</title>
<g id="a_node9"><a xlink:title=" ">
<polygon fill="none" stroke="#bfbfbf" points="137.66,-56.5 137.66,-75.5 172.66,-75.5 172.66,-56.5 137.66,-56.5"/>
<text text-anchor="middle" x="155.16" y="-63.5" font-family="Helvetica,sans-Serif" font-size="10.00">map</text>
</a>
</g>
</g>
<!-- Node7&#45;&gt;Node9 -->
<g id="edge10" class="edge">
<title>Node7&#45;&gt;Node9</title>
<path fill="none" stroke="midnightblue" d="M146.81,-112.08C148.14,-104.93 150.04,-94.64 151.7,-85.69"/>
<polygon fill="midnightblue" stroke="midnightblue" points="155.16,-86.22 153.54,-75.75 148.28,-84.95 155.16,-86.22"/>
</g>
</g>
</svg>
