<?xml version="1.0" encoding="UTF-8" standalone="no"?>
<!DOCTYPE svg PUBLIC "-//W3C//DTD SVG 1.1//EN"
 "http://www.w3.org/Graphics/SVG/1.1/DTD/svg11.dtd">
<!-- Generated by graphviz version 2.49.3 (20211027.1534)
 -->
<!-- Title: Graphical Class Hierarchy Pages: 1 -->
<svg width="127pt" height="66pt"
 viewBox="0.00 0.00 127.00 66.00" xmlns="http://www.w3.org/2000/svg" xmlns:xlink="http://www.w3.org/1999/xlink">
<g id="graph0" class="graph" transform="scale(1 1) rotate(0) translate(4 62)">
<title>Graphical Class Hierarchy</title>
<!-- Node0 -->
<g id="node1" class="node">
<title>Node0</title>
<g id="a_node1"><a xlink:href="classUser.html" target="_top" xlink:title="Base class for all users.">
<polygon fill="none" stroke="black" points="0,-19.5 0,-38.5 38,-38.5 38,-19.5 0,-19.5"/>
<text text-anchor="middle" x="19" y="-26.5" font-family="Helvetica,sans-Serif" font-size="10.00">User</text>
</a>
</g>
</g>
<!-- Node1 -->
<g id="node2" class="node">
<title>Node1</title>
<g id="a_node2"><a xlink:href="classBuyer.html" target="_top" xlink:title="Specialization of User. Describes a Buyer.">
<polygon fill="none" stroke="black" points="76,-38.5 76,-57.5 117,-57.5 117,-38.5 76,-38.5"/>
<text text-anchor="middle" x="96.5" y="-45.5" font-family="Helvetica,sans-Serif" font-size="10.00">Buyer</text>
</a>
</g>
</g>
<!-- Node0&#45;&gt;Node1 -->
<g id="edge1" class="edge">
<title>Node0&#45;&gt;Node1</title>
<path fill="none" stroke="midnightblue" d="M48.18,-36.09C57.37,-38.41 67.37,-40.92 75.8,-43.04"/>
<polygon fill="midnightblue" stroke="midnightblue" points="48.83,-32.65 38.28,-33.6 47.12,-39.43 48.83,-32.65"/>
</g>
<!-- Node2 -->
<g id="node3" class="node">
<title>Node2</title>
<g id="a_node3"><a xlink:href="classOwner.html" target="_top" xlink:title="Specialization of User. Describes an Owner.">
<polygon fill="none" stroke="black" points="74,-0.5 74,-19.5 119,-19.5 119,-0.5 74,-0.5"/>
<text text-anchor="middle" x="96.5" y="-7.5" font-family="Helvetica,sans-Serif" font-size="10.00">Owner</text>
</a>
</g>
</g>
<!-- Node0&#45;&gt;Node2 -->
<g id="edge2" class="edge">
<title>Node0&#45;&gt;Node2</title>
<path fill="none" stroke="midnightblue" d="M48.18,-21.91C56.69,-19.77 65.9,-17.45 73.91,-15.43"/>
<polygon fill="midnightblue" stroke="midnightblue" points="47.12,-18.57 38.28,-24.4 48.83,-25.35 47.12,-18.57"/>
</g>
</g>
</svg>
