<?xml version="1.0" encoding="UTF-8" standalone="no"?>
<!DOCTYPE svg PUBLIC "-//W3C//DTD SVG 1.1//EN"
 "http://www.w3.org/Graphics/SVG/1.1/DTD/svg11.dtd">
<!-- Generated by graphviz version 2.49.3 (20211027.1534)
 -->
<!-- Title: Graphical Class Hierarchy Pages: 1 -->
<svg width="139pt" height="142pt"
 viewBox="0.00 0.00 139.00 142.00" xmlns="http://www.w3.org/2000/svg" xmlns:xlink="http://www.w3.org/1999/xlink">
<g id="graph0" class="graph" transform="scale(1 1) rotate(0) translate(4 138)">
<title>Graphical Class Hierarchy</title>
<!-- Node0 -->
<g id="node1" class="node">
<title>Node0</title>
<g id="a_node1"><a xlink:href="classItem.html" target="_top" xlink:title="Base class for all other items.">
<polygon fill="none" stroke="black" points="0,-57.5 0,-76.5 36,-76.5 36,-57.5 0,-57.5"/>
<text text-anchor="middle" x="18" y="-64.5" font-family="Helvetica,sans-Serif" font-size="10.00">Item</text>
</a>
</g>
</g>
<!-- Node1 -->
<g id="node2" class="node">
<title>Node1</title>
<g id="a_node2"><a xlink:href="classNotebook.html" target="_top" xlink:title="Class representing a Notebook.">
<polygon fill="none" stroke="black" points="72,-114.5 72,-133.5 131,-133.5 131,-114.5 72,-114.5"/>
<text text-anchor="middle" x="101.5" y="-121.5" font-family="Helvetica,sans-Serif" font-size="10.00">Notebook</text>
</a>
</g>
</g>
<!-- Node0&#45;&gt;Node1 -->
<g id="edge1" class="edge">
<title>Node0&#45;&gt;Node1</title>
<path fill="none" stroke="midnightblue" d="M40.6,-82.74C50.17,-89.64 61.59,-97.8 72,-105 76.5,-108.11 81.45,-111.44 85.94,-114.43"/>
<polygon fill="midnightblue" stroke="midnightblue" points="42.57,-79.84 32.42,-76.81 38.46,-85.51 42.57,-79.84"/>
</g>
<!-- Node2 -->
<g id="node3" class="node">
<title>Node2</title>
<g id="a_node3"><a xlink:href="classPaper.html" target="_top" xlink:title="Class representing a Paper.">
<polygon fill="none" stroke="black" points="80.5,-76.5 80.5,-95.5 122.5,-95.5 122.5,-76.5 80.5,-76.5"/>
<text text-anchor="middle" x="101.5" y="-83.5" font-family="Helvetica,sans-Serif" font-size="10.00">Paper</text>
</a>
</g>
</g>
<!-- Node0&#45;&gt;Node2 -->
<g id="edge2" class="edge">
<title>Node0&#45;&gt;Node2</title>
<path fill="none" stroke="midnightblue" d="M46.36,-73.38C57.49,-75.97 70.11,-78.92 80.37,-81.31"/>
<polygon fill="midnightblue" stroke="midnightblue" points="46.82,-69.89 36.28,-71.03 45.23,-76.71 46.82,-69.89"/>
</g>
<!-- Node3 -->
<g id="node4" class="node">
<title>Node3</title>
<g id="a_node4"><a xlink:href="classPen.html" target="_top" xlink:title="Class representing a Pen.">
<polygon fill="none" stroke="black" points="84.5,-38.5 84.5,-57.5 118.5,-57.5 118.5,-38.5 84.5,-38.5"/>
<text text-anchor="middle" x="101.5" y="-45.5" font-family="Helvetica,sans-Serif" font-size="10.00">Pen</text>
</a>
</g>
</g>
<!-- Node0&#45;&gt;Node3 -->
<g id="edge3" class="edge">
<title>Node0&#45;&gt;Node3</title>
<path fill="none" stroke="midnightblue" d="M46.31,-60.63C58.94,-57.69 73.5,-54.29 84.35,-51.77"/>
<polygon fill="midnightblue" stroke="midnightblue" points="45.23,-57.29 36.28,-62.97 46.82,-64.11 45.23,-57.29"/>
</g>
<!-- Node4 -->
<g id="node5" class="node">
<title>Node4</title>
<g id="a_node5"><a xlink:href="classPencil.html" target="_top" xlink:title="Class representing a Pencil.">
<polygon fill="none" stroke="black" points="79.5,-0.5 79.5,-19.5 123.5,-19.5 123.5,-0.5 79.5,-0.5"/>
<text text-anchor="middle" x="101.5" y="-7.5" font-family="Helvetica,sans-Serif" font-size="10.00">Pencil</text>
</a>
</g>
</g>
<!-- Node0&#45;&gt;Node4 -->
<g id="edge4" class="edge">
<title>Node0&#45;&gt;Node4</title>
<path fill="none" stroke="midnightblue" d="M40.6,-51.26C50.17,-44.36 61.59,-36.2 72,-29 76.5,-25.89 81.45,-22.56 85.94,-19.57"/>
<polygon fill="midnightblue" stroke="midnightblue" points="38.46,-48.49 32.42,-57.19 42.57,-54.16 38.46,-48.49"/>
</g>
</g>
</svg>
