<?xml version="1.0" encoding="UTF-8" standalone="no"?>
<!DOCTYPE svg PUBLIC "-//W3C//DTD SVG 1.1//EN"
 "http://www.w3.org/Graphics/SVG/1.1/DTD/svg11.dtd">
<!-- Generated by graphviz version 2.49.3 (20211027.1534)
 -->
<!-- Title: src/item.h Pages: 1 -->
<!--zoomable 252 -->
<svg id="main" version="1.1" xmlns="http://www.w3.org/2000/svg" xmlns:xlink="http://www.w3.org/1999/xlink" xml:space="preserve" onload="init(evt)">
<style type="text/css"><![CDATA[
.edge:hover path { stroke: red; }
.edge:hover polygon { stroke: red; fill: red; }
]]></style>
<script type="text/javascript"><![CDATA[
var edges = document.getElementsByTagName('g');
if (edges && edges.length) {
  for (var i=0;i<edges.length;i++) {
    if (edges[i].id.substr(0,4)=='edge') {
      edges[i].setAttribute('class','edge');
    }
  }
}
]]></script>
        <defs>
                <circle id="rim" cx="0" cy="0" r="7"/>
                <circle id="rim2" cx="0" cy="0" r="3.5"/>
                <g id="zoomPlus">
                        <use xlink:href="#rim" fill="#404040">
                                <set attributeName="fill" to="#808080" begin="zoomplus.mouseover" end="zoomplus.mouseout"/>
                        </use>
                        <path d="M-4,0h8M0,-4v8" fill="none" stroke="white" stroke-width="1.5" pointer-events="none"/>
                </g>
                <g id="zoomMin">
                        <use xlink:href="#rim" fill="#404040">
                                <set attributeName="fill" to="#808080" begin="zoomminus.mouseover" end="zoomminus.mouseout"/>
                        </use>
                        <path d="M-4,0h8" fill="none" stroke="white" stroke-width="1.5" pointer-events="none"/>
                </g>
                <g id="dirArrow">
                        <path fill="none" stroke="white" stroke-width="1.5" d="M0,-3.0v7 M-2.5,-0.5L0,-3.0L2.5,-0.5"/>
                </g>
               <g id="resetDef">
                       <use xlink:href="#rim2" fill="#404040">
                               <set attributeName="fill" to="#808080" begin="reset.mouseover" end="reset.mouseout"/>
                       </use>
               </g>
        </defs>

<script type="text/javascript">
var viewWidth = 857;
var viewHeight = 252;
var sectionId = 'dynsection-1';
</script>
<script xlink:href="svgpan.js"/>
<svg id="graph" class="graph">
<g id="viewport">
<title>src/item.h</title>
<!-- Node1 -->
<g id="node1" class="node">
<title>Node1</title>
<g id="a_node1"><a xlink:title=" ">
<polygon fill="#bfbfbf" stroke="black" points="372,-224.5 372,-243.5 431,-243.5 431,-224.5 372,-224.5"/>
<text text-anchor="middle" x="401.5" y="-231.5" font-family="Helvetica,sans-Serif" font-size="10.00">src/item.h</text>
</a>
</g>
</g>
<!-- Node2 -->
<g id="node2" class="node">
<title>Node2</title>
<g id="a_node2"><a xlink:href="buyer_8h.html" target="_top" xlink:title=" ">
<polygon fill="none" stroke="black" points="161.5,-168.5 161.5,-187.5 225.5,-187.5 225.5,-168.5 161.5,-168.5"/>
<text text-anchor="middle" x="193.5" y="-175.5" font-family="Helvetica,sans-Serif" font-size="10.00">src/buyer.h</text>
</a>
</g>
</g>
<!-- Node1&#45;&gt;Node2 -->
<g id="edge1" class="edge">
<title>Node1&#45;&gt;Node2</title>
<path fill="none" stroke="midnightblue" d="M361.87,-222.71C322.32,-212.44 262.31,-196.87 225.64,-187.34"/>
<polygon fill="midnightblue" stroke="midnightblue" points="361.14,-226.14 371.7,-225.26 362.9,-219.36 361.14,-226.14"/>
</g>
<!-- Node4 -->
<g id="node4" class="node">
<title>Node4</title>
<g id="a_node4"><a xlink:href="eshop_8h.html" target="_top" xlink:title=" ">
<polygon fill="none" stroke="black" points="207,-112.5 207,-131.5 274,-131.5 274,-112.5 207,-112.5"/>
<text text-anchor="middle" x="240.5" y="-119.5" font-family="Helvetica,sans-Serif" font-size="10.00">src/eshop.h</text>
</a>
</g>
</g>
<!-- Node1&#45;&gt;Node4 -->
<g id="edge11" class="edge">
<title>Node1&#45;&gt;Node4</title>
<path fill="none" stroke="midnightblue" d="M361.81,-227.05C334.31,-221.17 298.32,-209.75 273.5,-188 255.99,-172.65 246.6,-145.79 242.71,-131.89"/>
<polygon fill="midnightblue" stroke="midnightblue" points="361.41,-230.54 371.89,-229.05 362.76,-223.68 361.41,-230.54"/>
</g>
<!-- Node6 -->
<g id="node6" class="node">
<title>Node6</title>
<g id="a_node6"><a xlink:href="menu_8h.html" target="_top" xlink:title=" ">
<polygon fill="none" stroke="black" points="518,-56.5 518,-75.5 583,-75.5 583,-56.5 518,-56.5"/>
<text text-anchor="middle" x="550.5" y="-63.5" font-family="Helvetica,sans-Serif" font-size="10.00">src/menu.h</text>
</a>
</g>
</g>
<!-- Node1&#45;&gt;Node6 -->
<g id="edge13" class="edge">
<title>Node1&#45;&gt;Node6</title>
<path fill="none" stroke="midnightblue" d="M441.36,-230.26C501.75,-225.34 612.59,-213.11 642.5,-188 669.34,-165.47 683.17,-141 663.5,-112 645.66,-85.7 609.74,-74.77 583.17,-70.23"/>
<polygon fill="midnightblue" stroke="midnightblue" points="440.75,-226.79 431.05,-231.06 441.3,-233.77 440.75,-226.79"/>
</g>
<!-- Node9 -->
<g id="node9" class="node">
<title>Node9</title>
<g id="a_node9"><a xlink:href="shoppingcart_8h.html" target="_top" xlink:title=" ">
<polygon fill="none" stroke="black" points="54.5,-112.5 54.5,-131.5 150.5,-131.5 150.5,-112.5 54.5,-112.5"/>
<text text-anchor="middle" x="102.5" y="-119.5" font-family="Helvetica,sans-Serif" font-size="10.00">src/shoppingcart.h</text>
</a>
</g>
</g>
<!-- Node1&#45;&gt;Node9 -->
<g id="edge26" class="edge">
<title>Node1&#45;&gt;Node9</title>
<path fill="none" stroke="midnightblue" d="M361.55,-229.3C300.38,-223.05 186.99,-209 152.5,-188 129.88,-174.23 113.74,-146.16 106.6,-131.83"/>
<polygon fill="midnightblue" stroke="midnightblue" points="361.31,-232.79 371.61,-230.3 362.01,-225.83 361.31,-232.79"/>
</g>
<!-- Node11 -->
<g id="node11" class="node">
<title>Node11</title>
<g id="a_node11"><a xlink:href="item_8cpp.html" target="_top" xlink:title=" ">
<polygon fill="none" stroke="black" points="366.5,-168.5 366.5,-187.5 436.5,-187.5 436.5,-168.5 366.5,-168.5"/>
<text text-anchor="middle" x="401.5" y="-175.5" font-family="Helvetica,sans-Serif" font-size="10.00">src/item.cpp</text>
</a>
</g>
</g>
<!-- Node1&#45;&gt;Node11 -->
<g id="edge12" class="edge">
<title>Node1&#45;&gt;Node11</title>
<path fill="none" stroke="midnightblue" d="M401.5,-213.8C401.5,-204.91 401.5,-194.78 401.5,-187.75"/>
<polygon fill="midnightblue" stroke="midnightblue" points="398,-214.08 401.5,-224.08 405,-214.08 398,-214.08"/>
</g>
<!-- Node12 -->
<g id="node12" class="node">
<title>Node12</title>
<g id="a_node12"><a xlink:href="notebook_8h.html" target="_top" xlink:title=" ">
<polygon fill="none" stroke="black" points="553.5,-168.5 553.5,-187.5 633.5,-187.5 633.5,-168.5 553.5,-168.5"/>
<text text-anchor="middle" x="593.5" y="-175.5" font-family="Helvetica,sans-Serif" font-size="10.00">src/notebook.h</text>
</a>
</g>
</g>
<!-- Node1&#45;&gt;Node12 -->
<g id="edge14" class="edge">
<title>Node1&#45;&gt;Node12</title>
<path fill="none" stroke="midnightblue" d="M440.83,-221.94C477.11,-211.74 530.19,-196.8 563.25,-187.51"/>
<polygon fill="midnightblue" stroke="midnightblue" points="439.76,-218.6 431.08,-224.68 441.65,-225.34 439.76,-218.6"/>
</g>
<!-- Node14 -->
<g id="node14" class="node">
<title>Node14</title>
<g id="a_node14"><a xlink:href="paper_8h.html" target="_top" xlink:title=" ">
<polygon fill="none" stroke="black" points="283,-168.5 283,-187.5 348,-187.5 348,-168.5 283,-168.5"/>
<text text-anchor="middle" x="315.5" y="-175.5" font-family="Helvetica,sans-Serif" font-size="10.00">src/paper.h</text>
</a>
</g>
</g>
<!-- Node1&#45;&gt;Node14 -->
<g id="edge17" class="edge">
<title>Node1&#45;&gt;Node14</title>
<path fill="none" stroke="midnightblue" d="M379.05,-218.9C363.28,-209 342.69,-196.07 329.28,-187.65"/>
<polygon fill="midnightblue" stroke="midnightblue" points="377.35,-221.97 387.68,-224.32 381.07,-216.04 377.35,-221.97"/>
</g>
<!-- Node16 -->
<g id="node16" class="node">
<title>Node16</title>
<g id="a_node16"><a xlink:href="pen_8h.html" target="_top" xlink:title=" ">
<polygon fill="none" stroke="black" points="454.5,-168.5 454.5,-187.5 510.5,-187.5 510.5,-168.5 454.5,-168.5"/>
<text text-anchor="middle" x="482.5" y="-175.5" font-family="Helvetica,sans-Serif" font-size="10.00">src/pen.h</text>
</a>
</g>
</g>
<!-- Node1&#45;&gt;Node16 -->
<g id="edge20" class="edge">
<title>Node1&#45;&gt;Node16</title>
<path fill="none" stroke="midnightblue" d="M423.07,-218.62C437.86,-208.76 457.01,-195.99 469.52,-187.65"/>
<polygon fill="midnightblue" stroke="midnightblue" points="420.89,-215.86 414.51,-224.32 424.78,-221.69 420.89,-215.86"/>
</g>
<!-- Node18 -->
<g id="node18" class="node">
<title>Node18</title>
<g id="a_node18"><a xlink:href="pencil_8h.html" target="_top" xlink:title=" ">
<polygon fill="none" stroke="black" points="733.5,-168.5 733.5,-187.5 799.5,-187.5 799.5,-168.5 733.5,-168.5"/>
<text text-anchor="middle" x="766.5" y="-175.5" font-family="Helvetica,sans-Serif" font-size="10.00">src/pencil.h</text>
</a>
</g>
</g>
<!-- Node1&#45;&gt;Node18 -->
<g id="edge23" class="edge">
<title>Node1&#45;&gt;Node18</title>
<path fill="none" stroke="midnightblue" d="M441.63,-227.96C502.04,-220.22 619.88,-204.58 719.5,-188 724.01,-187.25 728.75,-186.41 733.41,-185.55"/>
<polygon fill="midnightblue" stroke="midnightblue" points="440.86,-224.53 431.39,-229.26 441.75,-231.47 440.86,-224.53"/>
</g>
<!-- Node3 -->
<g id="node3" class="node">
<title>Node3</title>
<g id="a_node3"><a xlink:href="buyer_8cpp.html" target="_top" xlink:title=" ">
<polygon fill="none" stroke="black" points="125.5,-56.5 125.5,-75.5 199.5,-75.5 199.5,-56.5 125.5,-56.5"/>
<text text-anchor="middle" x="162.5" y="-63.5" font-family="Helvetica,sans-Serif" font-size="10.00">src/buyer.cpp</text>
</a>
</g>
</g>
<!-- Node2&#45;&gt;Node3 -->
<g id="edge2" class="edge">
<title>Node2&#45;&gt;Node3</title>
<path fill="none" stroke="midnightblue" d="M188.34,-158.67C181.56,-134.62 169.94,-93.39 164.92,-75.59"/>
<polygon fill="midnightblue" stroke="midnightblue" points="184.99,-159.69 191.07,-168.37 191.72,-157.79 184.99,-159.69"/>
</g>
<!-- Node2&#45;&gt;Node4 -->
<g id="edge3" class="edge">
<title>Node2&#45;&gt;Node4</title>
<path fill="none" stroke="midnightblue" d="M207.92,-160.43C216.16,-150.97 226.15,-139.48 232.88,-131.75"/>
<polygon fill="midnightblue" stroke="midnightblue" points="205.19,-158.24 201.26,-168.08 210.47,-162.84 205.19,-158.24"/>
</g>
<!-- Node2&#45;&gt;Node9 -->
<g id="edge8" class="edge">
<title>Node2&#45;&gt;Node9</title>
<path fill="none" stroke="midnightblue" d="M170.21,-163.18C153.46,-153.24 131.4,-140.15 117.08,-131.65"/>
<polygon fill="midnightblue" stroke="midnightblue" points="168.49,-166.23 178.88,-168.32 172.07,-160.21 168.49,-166.23"/>
</g>
<!-- Node5 -->
<g id="node5" class="node">
<title>Node5</title>
<g id="a_node5"><a xlink:href="eshop_8cpp.html" target="_top" xlink:title=" ">
<polygon fill="none" stroke="black" points="218,-56.5 218,-75.5 295,-75.5 295,-56.5 218,-56.5"/>
<text text-anchor="middle" x="256.5" y="-63.5" font-family="Helvetica,sans-Serif" font-size="10.00">src/eshop.cpp</text>
</a>
</g>
</g>
<!-- Node4&#45;&gt;Node5 -->
<g id="edge4" class="edge">
<title>Node4&#45;&gt;Node5</title>
<path fill="none" stroke="midnightblue" d="M246.01,-102.4C248.69,-93.36 251.78,-82.94 253.91,-75.75"/>
<polygon fill="midnightblue" stroke="midnightblue" points="242.63,-101.5 243.14,-112.08 249.34,-103.49 242.63,-101.5"/>
</g>
<!-- Node4&#45;&gt;Node6 -->
<g id="edge5" class="edge">
<title>Node4&#45;&gt;Node6</title>
<path fill="none" stroke="midnightblue" d="M284.06,-112.8C285.55,-112.53 287.04,-112.26 288.5,-112 370.95,-97.19 468.18,-80.76 517.8,-72.45"/>
<polygon fill="midnightblue" stroke="midnightblue" points="283.26,-109.39 274.06,-114.64 284.53,-116.28 283.26,-109.39"/>
</g>
<!-- Node7 -->
<g id="node7" class="node">
<title>Node7</title>
<g id="a_node7"><a xlink:href="main_8cpp.html" target="_top" xlink:title=" ">
<polygon fill="none" stroke="black" points="468.5,-0.5 468.5,-19.5 540.5,-19.5 540.5,-0.5 468.5,-0.5"/>
<text text-anchor="middle" x="504.5" y="-7.5" font-family="Helvetica,sans-Serif" font-size="10.00">src/main.cpp</text>
</a>
</g>
</g>
<!-- Node6&#45;&gt;Node7 -->
<g id="edge6" class="edge">
<title>Node6&#45;&gt;Node7</title>
<path fill="none" stroke="midnightblue" d="M536.39,-48.43C528.32,-38.97 518.54,-27.48 511.95,-19.75"/>
<polygon fill="midnightblue" stroke="midnightblue" points="533.75,-50.74 542.9,-56.08 539.08,-46.2 533.75,-50.74"/>
</g>
<!-- Node8 -->
<g id="node8" class="node">
<title>Node8</title>
<g id="a_node8"><a xlink:href="menu_8cpp.html" target="_top" xlink:title=" ">
<polygon fill="none" stroke="black" points="559,-0.5 559,-19.5 634,-19.5 634,-0.5 559,-0.5"/>
<text text-anchor="middle" x="596.5" y="-7.5" font-family="Helvetica,sans-Serif" font-size="10.00">src/menu.cpp</text>
</a>
</g>
</g>
<!-- Node6&#45;&gt;Node8 -->
<g id="edge7" class="edge">
<title>Node6&#45;&gt;Node8</title>
<path fill="none" stroke="midnightblue" d="M564.61,-48.43C572.68,-38.97 582.46,-27.48 589.05,-19.75"/>
<polygon fill="midnightblue" stroke="midnightblue" points="561.92,-46.2 558.1,-56.08 567.25,-50.74 561.92,-46.2"/>
</g>
<!-- Node9&#45;&gt;Node3 -->
<g id="edge9" class="edge">
<title>Node9&#45;&gt;Node3</title>
<path fill="none" stroke="midnightblue" d="M119.68,-105.54C130.38,-95.91 143.76,-83.87 152.68,-75.83"/>
<polygon fill="midnightblue" stroke="midnightblue" points="117.23,-103.03 112.14,-112.32 121.91,-108.24 117.23,-103.03"/>
</g>
<!-- Node10 -->
<g id="node10" class="node">
<title>Node10</title>
<g id="a_node10"><a xlink:href="shoppingcart_8cpp.html" target="_top" xlink:title=" ">
<polygon fill="none" stroke="black" points="0,-56.5 0,-75.5 107,-75.5 107,-56.5 0,-56.5"/>
<text text-anchor="middle" x="53.5" y="-63.5" font-family="Helvetica,sans-Serif" font-size="10.00">src/shoppingcart.cpp</text>
</a>
</g>
</g>
<!-- Node9&#45;&gt;Node10 -->
<g id="edge10" class="edge">
<title>Node9&#45;&gt;Node10</title>
<path fill="none" stroke="midnightblue" d="M87.47,-104.43C78.88,-94.97 68.46,-83.48 61.44,-75.75"/>
<polygon fill="midnightblue" stroke="midnightblue" points="85.1,-107.03 94.41,-112.08 90.28,-102.33 85.1,-107.03"/>
</g>
<!-- Node12&#45;&gt;Node6 -->
<g id="edge15" class="edge">
<title>Node12&#45;&gt;Node6</title>
<path fill="none" stroke="midnightblue" d="M618.7,-163C638.04,-150.35 659.55,-130.87 647.5,-112 633.41,-89.94 605.42,-78.53 583.11,-72.73"/>
<polygon fill="midnightblue" stroke="midnightblue" points="616.77,-160.07 610.1,-168.3 620.44,-166.03 616.77,-160.07"/>
</g>
<!-- Node13 -->
<g id="node13" class="node">
<title>Node13</title>
<g id="a_node13"><a xlink:href="notebook_8cpp.html" target="_top" xlink:title=" ">
<polygon fill="none" stroke="black" points="548,-112.5 548,-131.5 639,-131.5 639,-112.5 548,-112.5"/>
<text text-anchor="middle" x="593.5" y="-119.5" font-family="Helvetica,sans-Serif" font-size="10.00">src/notebook.cpp</text>
</a>
</g>
</g>
<!-- Node12&#45;&gt;Node13 -->
<g id="edge16" class="edge">
<title>Node12&#45;&gt;Node13</title>
<path fill="none" stroke="midnightblue" d="M593.5,-157.8C593.5,-148.91 593.5,-138.78 593.5,-131.75"/>
<polygon fill="midnightblue" stroke="midnightblue" points="590,-158.08 593.5,-168.08 597,-158.08 590,-158.08"/>
</g>
<!-- Node14&#45;&gt;Node6 -->
<g id="edge18" class="edge">
<title>Node14&#45;&gt;Node6</title>
<path fill="none" stroke="midnightblue" d="M311.7,-157.87C310.02,-143.48 310.47,-124.21 321.5,-112 347.29,-83.43 460.94,-72.48 517.83,-68.73"/>
<polygon fill="midnightblue" stroke="midnightblue" points="308.31,-158.82 313.34,-168.14 315.22,-157.71 308.31,-158.82"/>
</g>
<!-- Node15 -->
<g id="node15" class="node">
<title>Node15</title>
<g id="a_node15"><a xlink:href="paper_8cpp.html" target="_top" xlink:title=" ">
<polygon fill="none" stroke="black" points="331,-112.5 331,-131.5 406,-131.5 406,-112.5 331,-112.5"/>
<text text-anchor="middle" x="368.5" y="-119.5" font-family="Helvetica,sans-Serif" font-size="10.00">src/paper.cpp</text>
</a>
</g>
</g>
<!-- Node14&#45;&gt;Node15 -->
<g id="edge19" class="edge">
<title>Node14&#45;&gt;Node15</title>
<path fill="none" stroke="midnightblue" d="M331.48,-160.72C340.82,-151.2 352.25,-139.56 359.91,-131.75"/>
<polygon fill="midnightblue" stroke="midnightblue" points="328.76,-158.49 324.25,-168.08 333.75,-163.4 328.76,-158.49"/>
</g>
<!-- Node16&#45;&gt;Node6 -->
<g id="edge21" class="edge">
<title>Node16&#45;&gt;Node6</title>
<path fill="none" stroke="midnightblue" d="M466.36,-160.58C455.05,-147.01 443.59,-127.53 453.5,-112 467.59,-89.94 495.58,-78.53 517.89,-72.73"/>
<polygon fill="midnightblue" stroke="midnightblue" points="463.9,-163.07 473.19,-168.17 469.1,-158.4 463.9,-163.07"/>
</g>
<!-- Node17 -->
<g id="node17" class="node">
<title>Node17</title>
<g id="a_node17"><a xlink:href="pen_8cpp.html" target="_top" xlink:title=" ">
<polygon fill="none" stroke="black" points="463,-112.5 463,-131.5 530,-131.5 530,-112.5 463,-112.5"/>
<text text-anchor="middle" x="496.5" y="-119.5" font-family="Helvetica,sans-Serif" font-size="10.00">src/pen.cpp</text>
</a>
</g>
</g>
<!-- Node16&#45;&gt;Node17 -->
<g id="edge22" class="edge">
<title>Node16&#45;&gt;Node17</title>
<path fill="none" stroke="midnightblue" d="M487.32,-158.4C489.67,-149.36 492.37,-138.94 494.23,-131.75"/>
<polygon fill="midnightblue" stroke="midnightblue" points="483.93,-157.52 484.81,-168.08 490.71,-159.28 483.93,-157.52"/>
</g>
<!-- Node18&#45;&gt;Node6 -->
<g id="edge24" class="edge">
<title>Node18&#45;&gt;Node6</title>
<path fill="none" stroke="midnightblue" d="M758.03,-159.22C750.09,-144.42 736.84,-123.93 719.5,-112 677.97,-83.44 619.24,-73 583.08,-69.18"/>
<polygon fill="midnightblue" stroke="midnightblue" points="755.03,-161.03 762.67,-168.37 761.27,-157.87 755.03,-161.03"/>
</g>
<!-- Node19 -->
<g id="node19" class="node">
<title>Node19</title>
<g id="a_node19"><a xlink:href="pencil_8cpp.html" target="_top" xlink:title=" ">
<polygon fill="none" stroke="black" points="772,-112.5 772,-131.5 849,-131.5 849,-112.5 772,-112.5"/>
<text text-anchor="middle" x="810.5" y="-119.5" font-family="Helvetica,sans-Serif" font-size="10.00">src/pencil.cpp</text>
</a>
</g>
</g>
<!-- Node18&#45;&gt;Node19 -->
<g id="edge25" class="edge">
<title>Node18&#45;&gt;Node19</title>
<path fill="none" stroke="midnightblue" d="M780.23,-160.14C787.9,-150.74 797.13,-139.4 803.37,-131.75"/>
<polygon fill="midnightblue" stroke="midnightblue" points="777.37,-158.12 773.77,-168.08 782.8,-162.54 777.37,-158.12"/>
</g>
</g>
</svg>
        <g id="navigator" transform="translate(0 0)" fill="#404254">
                <rect fill="#f2f5e9" fill-opacity="0.5" stroke="#606060" stroke-width=".5" x="0" y="0" width="60" height="60"/>
                <use id="zoomplus" xlink:href="#zoomPlus" x="17" y="9" onmousedown="handleZoom(evt,'in')"/>
                <use id="zoomminus" xlink:href="#zoomMin" x="42" y="9" onmousedown="handleZoom(evt,'out')"/>
                <use id="reset" xlink:href="#resetDef" x="30" y="36" onmousedown="handleReset()"/>
                <g id="arrowUp" xlink:href="#dirArrow" transform="translate(30 24)" onmousedown="handlePan(0,-1)">
                  <use xlink:href="#rim" fill="#404040">
                        <set attributeName="fill" to="#808080" begin="arrowUp.mouseover" end="arrowUp.mouseout"/>
                  </use>
                  <path fill="none" stroke="white" stroke-width="1.5" d="M0,-3.0v7 M-2.5,-0.5L0,-3.0L2.5,-0.5"/>
                </g>
                <g id="arrowRight" xlink:href="#dirArrow" transform="rotate(90) translate(36 -43)" onmousedown="handlePan(1,0)">
                  <use xlink:href="#rim" fill="#404040">
                        <set attributeName="fill" to="#808080" begin="arrowRight.mouseover" end="arrowRight.mouseout"/>
                  </use>
                  <path fill="none" stroke="white" stroke-width="1.5" d="M0,-3.0v7 M-2.5,-0.5L0,-3.0L2.5,-0.5"/>
                </g>
                <g id="arrowDown" xlink:href="#dirArrow" transform="rotate(180) translate(-30 -48)" onmousedown="handlePan(0,1)">
                  <use xlink:href="#rim" fill="#404040">
                        <set attributeName="fill" to="#808080" begin="arrowDown.mouseover" end="arrowDown.mouseout"/>
                  </use>
                  <path fill="none" stroke="white" stroke-width="1.5" d="M0,-3.0v7 M-2.5,-0.5L0,-3.0L2.5,-0.5"/>
                </g>
                <g id="arrowLeft" xlink:href="#dirArrow" transform="rotate(270) translate(-36 17)" onmousedown="handlePan(-1,0)">
                  <use xlink:href="#rim" fill="#404040">
                        <set attributeName="fill" to="#808080" begin="arrowLeft.mouseover" end="arrowLeft.mouseout"/>
                  </use>
                  <path fill="none" stroke="white" stroke-width="1.5" d="M0,-3.0v7 M-2.5,-0.5L0,-3.0L2.5,-0.5"/>
                </g>
        </g>
        <svg viewBox="0 0 15 15" width="100%" height="30px" preserveAspectRatio="xMaxYMin meet">
         <g id="arrow_out" transform="scale(0.3 0.3)">
          <a xlink:href="item_8h__dep__incl_org.svg" target="_base">
           <rect id="button" ry="5" rx="5" y="6" x="6" height="38" width="38"
                fill="#f2f5e9" fill-opacity="0.5" stroke="#606060" stroke-width="1.0"/>
           <path id="arrow"
             d="M 11.500037,31.436501 C 11.940474,20.09759 22.043105,11.32322 32.158766,21.979434 L 37.068811,17.246167 C 37.068811,17.246167 37.088388,32 37.088388,32 L 22.160133,31.978069 C 22.160133,31.978069 26.997745,27.140456 26.997745,27.140456 C 18.528582,18.264221 13.291696,25.230495 11.500037,31.436501 z"
             style="fill:#404040;"/>
          </a>
         </g>
        </svg>
</svg>
