<?xml version="1.0" encoding="UTF-8" standalone="no"?>
<!DOCTYPE svg PUBLIC "-//W3C//DTD SVG 1.1//EN"
 "http://www.w3.org/Graphics/SVG/1.1/DTD/svg11.dtd">
<!-- Generated by graphviz version 2.49.3 (20211027.1534)
 -->
<!-- Title: src/main.cpp Pages: 1 -->
<svg width="618pt" height="308pt"
 viewBox="0.00 0.00 618.00 308.00" xmlns="http://www.w3.org/2000/svg" xmlns:xlink="http://www.w3.org/1999/xlink">
<g id="graph0" class="graph" transform="scale(1 1) rotate(0) translate(4 304)">
<title>src/main.cpp</title>
<!-- Node1 -->
<g id="node1" class="node">
<title>Node1</title>
<g id="a_node1"><a xlink:title=" ">
<polygon fill="#bfbfbf" stroke="black" points="142,-280.5 142,-299.5 214,-299.5 214,-280.5 142,-280.5"/>
<text text-anchor="middle" x="178" y="-287.5" font-family="Helvetica,sans-Serif" font-size="10.00">src/main.cpp</text>
</a>
</g>
</g>
<!-- Node2 -->
<g id="node2" class="node">
<title>Node2</title>
<g id="a_node2"><a xlink:title=" ">
<polygon fill="none" stroke="#bfbfbf" points="99,-0.5 99,-19.5 153,-19.5 153,-0.5 99,-0.5"/>
<text text-anchor="middle" x="126" y="-7.5" font-family="Helvetica,sans-Serif" font-size="10.00">iostream</text>
</a>
</g>
</g>
<!-- Node1&#45;&gt;Node2 -->
<g id="edge1" class="edge">
<title>Node1&#45;&gt;Node2</title>
<path fill="none" stroke="midnightblue" d="M141.98,-283.31C89.97,-272.82 0,-245.12 0,-179 0,-179 0,-179 0,-121 0,-71.95 54.85,-39.74 92.17,-23.5"/>
<polygon fill="midnightblue" stroke="midnightblue" points="93.82,-26.61 101.71,-19.53 91.13,-20.14 93.82,-26.61"/>
</g>
<!-- Node3 -->
<g id="node3" class="node">
<title>Node3</title>
<g id="a_node3"><a xlink:href="menu_8h.html" target="_top" xlink:title=" ">
<polygon fill="none" stroke="black" points="362,-224.5 362,-243.5 410,-243.5 410,-224.5 362,-224.5"/>
<text text-anchor="middle" x="386" y="-231.5" font-family="Helvetica,sans-Serif" font-size="10.00">menu.h</text>
</a>
</g>
</g>
<!-- Node1&#45;&gt;Node3 -->
<g id="edge2" class="edge">
<title>Node1&#45;&gt;Node3</title>
<path fill="none" stroke="midnightblue" d="M210.96,-280.44C249.55,-270.42 313.14,-253.92 352.12,-243.79"/>
<polygon fill="midnightblue" stroke="midnightblue" points="353.15,-247.14 361.95,-241.24 351.39,-240.37 353.15,-247.14"/>
</g>
<!-- Node4 -->
<g id="node4" class="node">
<title>Node4</title>
<g id="a_node4"><a xlink:href="eshop_8h.html" target="_top" xlink:title=" ">
<polygon fill="none" stroke="black" points="250,-168.5 250,-187.5 300,-187.5 300,-168.5 250,-168.5"/>
<text text-anchor="middle" x="275" y="-175.5" font-family="Helvetica,sans-Serif" font-size="10.00">eshop.h</text>
</a>
</g>
</g>
<!-- Node3&#45;&gt;Node4 -->
<g id="edge3" class="edge">
<title>Node3&#45;&gt;Node4</title>
<path fill="none" stroke="midnightblue" d="M368.17,-224.32C350.28,-215.62 322.52,-202.12 301.95,-192.11"/>
<polygon fill="midnightblue" stroke="midnightblue" points="303.31,-188.88 292.79,-187.65 300.25,-195.18 303.31,-188.88"/>
</g>
<!-- Node6 -->
<g id="node6" class="node">
<title>Node6</title>
<g id="a_node6"><a xlink:href="item_8h.html" target="_top" xlink:title=" ">
<polygon fill="none" stroke="black" points="425.5,-56.5 425.5,-75.5 468.5,-75.5 468.5,-56.5 425.5,-56.5"/>
<text text-anchor="middle" x="447" y="-63.5" font-family="Helvetica,sans-Serif" font-size="10.00">item.h</text>
</a>
</g>
</g>
<!-- Node3&#45;&gt;Node6 -->
<g id="edge16" class="edge">
<title>Node3&#45;&gt;Node6</title>
<path fill="none" stroke="midnightblue" d="M410.2,-233.02C442.1,-231.57 497.16,-223.69 523,-188 549.73,-151.08 498.95,-104.83 468.14,-81.66"/>
<polygon fill="midnightblue" stroke="midnightblue" points="470.21,-78.83 460.07,-75.76 466.08,-84.49 470.21,-78.83"/>
</g>
<!-- Node12 -->
<g id="node12" class="node">
<title>Node12</title>
<g id="a_node12"><a xlink:href="pen_8h.html" target="_top" xlink:title=" ">
<polygon fill="none" stroke="black" points="570,-168.5 570,-187.5 610,-187.5 610,-168.5 570,-168.5"/>
<text text-anchor="middle" x="590" y="-175.5" font-family="Helvetica,sans-Serif" font-size="10.00">pen.h</text>
</a>
</g>
</g>
<!-- Node3&#45;&gt;Node12 -->
<g id="edge17" class="edge">
<title>Node3&#45;&gt;Node12</title>
<path fill="none" stroke="midnightblue" d="M410.2,-226.59C447.58,-216.7 519.28,-197.72 559.93,-186.96"/>
<polygon fill="midnightblue" stroke="midnightblue" points="561.03,-190.29 569.8,-184.35 559.24,-183.52 561.03,-190.29"/>
</g>
<!-- Node13 -->
<g id="node13" class="node">
<title>Node13</title>
<g id="a_node13"><a xlink:href="pencil_8h.html" target="_top" xlink:title=" ">
<polygon fill="none" stroke="black" points="350,-112.5 350,-131.5 400,-131.5 400,-112.5 350,-112.5"/>
<text text-anchor="middle" x="375" y="-119.5" font-family="Helvetica,sans-Serif" font-size="10.00">pencil.h</text>
</a>
</g>
</g>
<!-- Node3&#45;&gt;Node13 -->
<g id="edge19" class="edge">
<title>Node3&#45;&gt;Node13</title>
<path fill="none" stroke="midnightblue" d="M383.27,-224.49C380.55,-215.52 376.56,-200.94 375,-188 373.14,-172.58 373.28,-154.94 373.81,-141.94"/>
<polygon fill="midnightblue" stroke="midnightblue" points="377.31,-142.04 374.33,-131.87 370.32,-141.68 377.31,-142.04"/>
</g>
<!-- Node14 -->
<g id="node14" class="node">
<title>Node14</title>
<g id="a_node14"><a xlink:href="notebook_8h.html" target="_top" xlink:title=" ">
<polygon fill="none" stroke="black" points="384,-168.5 384,-187.5 448,-187.5 448,-168.5 384,-168.5"/>
<text text-anchor="middle" x="416" y="-175.5" font-family="Helvetica,sans-Serif" font-size="10.00">notebook.h</text>
</a>
</g>
</g>
<!-- Node3&#45;&gt;Node14 -->
<g id="edge22" class="edge">
<title>Node3&#45;&gt;Node14</title>
<path fill="none" stroke="midnightblue" d="M390.95,-224.08C395.1,-216.61 401.15,-205.72 406.27,-196.52"/>
<polygon fill="midnightblue" stroke="midnightblue" points="409.34,-198.19 411.14,-187.75 403.22,-194.79 409.34,-198.19"/>
</g>
<!-- Node15 -->
<g id="node15" class="node">
<title>Node15</title>
<g id="a_node15"><a xlink:href="paper_8h.html" target="_top" xlink:title=" ">
<polygon fill="none" stroke="black" points="466,-168.5 466,-187.5 514,-187.5 514,-168.5 466,-168.5"/>
<text text-anchor="middle" x="490" y="-175.5" font-family="Helvetica,sans-Serif" font-size="10.00">paper.h</text>
</a>
</g>
</g>
<!-- Node3&#45;&gt;Node15 -->
<g id="edge24" class="edge">
<title>Node3&#45;&gt;Node15</title>
<path fill="none" stroke="midnightblue" d="M402.71,-224.32C419.31,-215.7 445,-202.36 464.22,-192.39"/>
<polygon fill="midnightblue" stroke="midnightblue" points="466.07,-195.37 473.33,-187.65 462.84,-189.16 466.07,-195.37"/>
</g>
<!-- Node16 -->
<g id="node16" class="node">
<title>Node16</title>
<g id="a_node16"><a xlink:href="eshoperror_8h.html" target="_top" xlink:title=" ">
<polygon fill="none" stroke="black" points="28,-112.5 28,-131.5 98,-131.5 98,-112.5 28,-112.5"/>
<text text-anchor="middle" x="63" y="-119.5" font-family="Helvetica,sans-Serif" font-size="10.00">eshoperror.h</text>
</a>
</g>
</g>
<!-- Node3&#45;&gt;Node16 -->
<g id="edge26" class="edge">
<title>Node3&#45;&gt;Node16</title>
<path fill="none" stroke="midnightblue" d="M361.77,-225.88C332.88,-217.29 283.21,-202.25 241,-188 189.65,-170.67 130.68,-148.73 95.16,-135.28"/>
<polygon fill="midnightblue" stroke="midnightblue" points="95.95,-131.84 85.35,-131.56 93.46,-138.38 95.95,-131.84"/>
</g>
<!-- Node4&#45;&gt;Node2 -->
<g id="edge4" class="edge">
<title>Node4&#45;&gt;Node2</title>
<path fill="none" stroke="midnightblue" d="M249.95,-171.55C216.16,-163.69 158.64,-148.3 145,-132 120.63,-102.88 121.02,-55.51 123.48,-29.52"/>
<polygon fill="midnightblue" stroke="midnightblue" points="126.96,-29.85 124.63,-19.51 120.01,-29.05 126.96,-29.85"/>
</g>
<!-- Node5 -->
<g id="node5" class="node">
<title>Node5</title>
<g id="a_node5"><a xlink:title=" ">
<polygon fill="none" stroke="#bfbfbf" points="288,-112.5 288,-131.5 332,-131.5 332,-112.5 288,-112.5"/>
<text text-anchor="middle" x="310" y="-119.5" font-family="Helvetica,sans-Serif" font-size="10.00">vector</text>
</a>
</g>
</g>
<!-- Node4&#45;&gt;Node5 -->
<g id="edge5" class="edge">
<title>Node4&#45;&gt;Node5</title>
<path fill="none" stroke="midnightblue" d="M280.78,-168.08C285.67,-160.53 292.83,-149.49 298.83,-140.23"/>
<polygon fill="midnightblue" stroke="midnightblue" points="301.83,-142.05 304.33,-131.75 295.95,-138.24 301.83,-142.05"/>
</g>
<!-- Node4&#45;&gt;Node6 -->
<g id="edge6" class="edge">
<title>Node4&#45;&gt;Node6</title>
<path fill="none" stroke="midnightblue" d="M300.02,-173.97C329.02,-169.33 376.92,-158.09 409,-132 424.01,-119.79 434.37,-99.96 440.44,-85.41"/>
<polygon fill="midnightblue" stroke="midnightblue" points="443.76,-86.52 444.1,-75.93 437.23,-84 443.76,-86.52"/>
</g>
<!-- Node7 -->
<g id="node7" class="node">
<title>Node7</title>
<g id="a_node7"><a xlink:href="owner_8h.html" target="_top" xlink:title=" ">
<polygon fill="none" stroke="black" points="154,-112.5 154,-131.5 204,-131.5 204,-112.5 154,-112.5"/>
<text text-anchor="middle" x="179" y="-119.5" font-family="Helvetica,sans-Serif" font-size="10.00">owner.h</text>
</a>
</g>
</g>
<!-- Node4&#45;&gt;Node7 -->
<g id="edge8" class="edge">
<title>Node4&#45;&gt;Node7</title>
<path fill="none" stroke="midnightblue" d="M259.58,-168.32C244.46,-159.82 221.18,-146.73 203.53,-136.8"/>
<polygon fill="midnightblue" stroke="midnightblue" points="204.82,-133.51 194.39,-131.65 201.39,-139.61 204.82,-133.51"/>
</g>
<!-- Node9 -->
<g id="node9" class="node">
<title>Node9</title>
<g id="a_node9"><a xlink:href="buyer_8h.html" target="_top" xlink:title=" ">
<polygon fill="none" stroke="black" points="222.5,-112.5 222.5,-131.5 269.5,-131.5 269.5,-112.5 222.5,-112.5"/>
<text text-anchor="middle" x="246" y="-119.5" font-family="Helvetica,sans-Serif" font-size="10.00">buyer.h</text>
</a>
</g>
</g>
<!-- Node4&#45;&gt;Node9 -->
<g id="edge11" class="edge">
<title>Node4&#45;&gt;Node9</title>
<path fill="none" stroke="midnightblue" d="M270.21,-168.08C266.24,-160.69 260.47,-149.95 255.57,-140.81"/>
<polygon fill="midnightblue" stroke="midnightblue" points="258.51,-138.91 250.7,-131.75 252.35,-142.22 258.51,-138.91"/>
</g>
<!-- Node6&#45;&gt;Node2 -->
<g id="edge7" class="edge">
<title>Node6&#45;&gt;Node2</title>
<path fill="none" stroke="midnightblue" d="M425.44,-61.37C371.67,-52.33 231.09,-28.68 163.44,-17.3"/>
<polygon fill="midnightblue" stroke="midnightblue" points="163.68,-13.79 153.23,-15.58 162.51,-20.69 163.68,-13.79"/>
</g>
<!-- Node8 -->
<g id="node8" class="node">
<title>Node8</title>
<g id="a_node8"><a xlink:href="user_8h.html" target="_top" xlink:title=" ">
<polygon fill="none" stroke="black" points="157.5,-56.5 157.5,-75.5 200.5,-75.5 200.5,-56.5 157.5,-56.5"/>
<text text-anchor="middle" x="179" y="-63.5" font-family="Helvetica,sans-Serif" font-size="10.00">user.h</text>
</a>
</g>
</g>
<!-- Node7&#45;&gt;Node8 -->
<g id="edge9" class="edge">
<title>Node7&#45;&gt;Node8</title>
<path fill="none" stroke="midnightblue" d="M179,-112.08C179,-105.01 179,-94.86 179,-85.99"/>
<polygon fill="midnightblue" stroke="midnightblue" points="182.5,-85.75 179,-75.75 175.5,-85.75 182.5,-85.75"/>
</g>
<!-- Node8&#45;&gt;Node2 -->
<g id="edge10" class="edge">
<title>Node8&#45;&gt;Node2</title>
<path fill="none" stroke="midnightblue" d="M170.25,-56.08C162.53,-48.22 151.1,-36.57 141.78,-27.08"/>
<polygon fill="midnightblue" stroke="midnightblue" points="144.09,-24.44 134.59,-19.75 139.1,-29.34 144.09,-24.44"/>
</g>
<!-- Node9&#45;&gt;Node6 -->
<g id="edge14" class="edge">
<title>Node9&#45;&gt;Node6</title>
<path fill="none" stroke="midnightblue" d="M269.79,-114.5C272.89,-113.66 276.02,-112.81 279,-112 326.55,-99.15 381.71,-84.4 415.48,-75.4"/>
<polygon fill="midnightblue" stroke="midnightblue" points="416.48,-78.75 425.24,-72.79 414.68,-71.99 416.48,-78.75"/>
</g>
<!-- Node9&#45;&gt;Node8 -->
<g id="edge15" class="edge">
<title>Node9&#45;&gt;Node8</title>
<path fill="none" stroke="midnightblue" d="M235.24,-112.32C225.23,-104.26 210.11,-92.08 198.07,-82.37"/>
<polygon fill="midnightblue" stroke="midnightblue" points="199.94,-79.38 189.96,-75.83 195.55,-84.83 199.94,-79.38"/>
</g>
<!-- Node10 -->
<g id="node10" class="node">
<title>Node10</title>
<g id="a_node10"><a xlink:title=" ">
<polygon fill="none" stroke="#bfbfbf" points="231,-56.5 231,-75.5 261,-75.5 261,-56.5 231,-56.5"/>
<text text-anchor="middle" x="246" y="-63.5" font-family="Helvetica,sans-Serif" font-size="10.00">set</text>
</a>
</g>
</g>
<!-- Node9&#45;&gt;Node10 -->
<g id="edge12" class="edge">
<title>Node9&#45;&gt;Node10</title>
<path fill="none" stroke="midnightblue" d="M246,-112.08C246,-105.01 246,-94.86 246,-85.99"/>
<polygon fill="midnightblue" stroke="midnightblue" points="249.5,-85.75 246,-75.75 242.5,-85.75 249.5,-85.75"/>
</g>
<!-- Node11 -->
<g id="node11" class="node">
<title>Node11</title>
<g id="a_node11"><a xlink:title=" ">
<polygon fill="none" stroke="#bfbfbf" points="335.5,-56.5 335.5,-75.5 370.5,-75.5 370.5,-56.5 335.5,-56.5"/>
<text text-anchor="middle" x="353" y="-63.5" font-family="Helvetica,sans-Serif" font-size="10.00">map</text>
</a>
</g>
</g>
<!-- Node9&#45;&gt;Node11 -->
<g id="edge13" class="edge">
<title>Node9&#45;&gt;Node11</title>
<path fill="none" stroke="midnightblue" d="M263.19,-112.32C280.35,-103.66 306.95,-90.24 326.75,-80.25"/>
<polygon fill="midnightblue" stroke="midnightblue" points="328.5,-83.28 335.85,-75.65 325.35,-77.04 328.5,-83.28"/>
</g>
<!-- Node12&#45;&gt;Node6 -->
<g id="edge18" class="edge">
<title>Node12&#45;&gt;Node6</title>
<path fill="none" stroke="midnightblue" d="M587.55,-168.22C583.3,-154.47 573.3,-127.8 556,-112 534.14,-92.03 502.2,-80.27 478.54,-73.81"/>
<polygon fill="midnightblue" stroke="midnightblue" points="479.19,-70.36 468.64,-71.28 477.46,-77.14 479.19,-70.36"/>
</g>
<!-- Node13&#45;&gt;Node6 -->
<g id="edge21" class="edge">
<title>Node13&#45;&gt;Node6</title>
<path fill="none" stroke="midnightblue" d="M386.57,-112.32C397.42,-104.18 413.88,-91.84 426.88,-82.09"/>
<polygon fill="midnightblue" stroke="midnightblue" points="429.32,-84.63 435.22,-75.83 425.12,-79.03 429.32,-84.63"/>
</g>
<!-- Node13&#45;&gt;Node11 -->
<g id="edge20" class="edge">
<title>Node13&#45;&gt;Node11</title>
<path fill="none" stroke="midnightblue" d="M371.37,-112.08C368.39,-104.77 364.07,-94.18 360.38,-85.1"/>
<polygon fill="midnightblue" stroke="midnightblue" points="363.58,-83.69 356.57,-75.75 357.1,-86.33 363.58,-83.69"/>
</g>
<!-- Node14&#45;&gt;Node6 -->
<g id="edge23" class="edge">
<title>Node14&#45;&gt;Node6</title>
<path fill="none" stroke="midnightblue" d="M422.66,-168.25C428.87,-159.57 437.78,-145.62 442,-132 446.66,-116.95 447.73,-99.04 447.74,-85.84"/>
<polygon fill="midnightblue" stroke="midnightblue" points="451.23,-85.57 447.53,-75.64 444.23,-85.71 451.23,-85.57"/>
</g>
<!-- Node15&#45;&gt;Node6 -->
<g id="edge25" class="edge">
<title>Node15&#45;&gt;Node6</title>
<path fill="none" stroke="midnightblue" d="M486.63,-168.37C479.62,-150.46 463.39,-108.92 454.02,-84.95"/>
<polygon fill="midnightblue" stroke="midnightblue" points="457.26,-83.63 450.36,-75.59 450.74,-86.18 457.26,-83.63"/>
</g>
<!-- Node16&#45;&gt;Node2 -->
<g id="edge27" class="edge">
<title>Node16&#45;&gt;Node2</title>
<path fill="none" stroke="midnightblue" d="M67.94,-112.37C78.29,-94.3 102.42,-52.18 116.09,-28.31"/>
<polygon fill="midnightblue" stroke="midnightblue" points="119.15,-30.01 121.08,-19.59 113.07,-26.53 119.15,-30.01"/>
</g>
</g>
</svg>
