<?xml version="1.0" encoding="UTF-8" standalone="no"?>
<!DOCTYPE svg PUBLIC "-//W3C//DTD SVG 1.1//EN"
 "http://www.w3.org/Graphics/SVG/1.1/DTD/svg11.dtd">
<!-- Generated by graphviz version 2.49.3 (20211027.1534)
 -->
<!-- Title: main Pages: 1 -->
<!--zoomable 332 -->
<svg id="main" version="1.1" xmlns="http://www.w3.org/2000/svg" xmlns:xlink="http://www.w3.org/1999/xlink" xml:space="preserve" onload="init(evt)">
<style type="text/css"><![CDATA[
.edge:hover path { stroke: red; }
.edge:hover polygon { stroke: red; fill: red; }
]]></style>
<script type="text/javascript"><![CDATA[
var edges = document.getElementsByTagName('g');
if (edges && edges.length) {
  for (var i=0;i<edges.length;i++) {
    if (edges[i].id.substr(0,4)=='edge') {
      edges[i].setAttribute('class','edge');
    }
  }
}
]]></script>
        <defs>
                <circle id="rim" cx="0" cy="0" r="7"/>
                <circle id="rim2" cx="0" cy="0" r="3.5"/>
                <g id="zoomPlus">
                        <use xlink:href="#rim" fill="#404040">
                                <set attributeName="fill" to="#808080" begin="zoomplus.mouseover" end="zoomplus.mouseout"/>
                        </use>
                        <path d="M-4,0h8M0,-4v8" fill="none" stroke="white" stroke-width="1.5" pointer-events="none"/>
                </g>
                <g id="zoomMin">
                        <use xlink:href="#rim" fill="#404040">
                                <set attributeName="fill" to="#808080" begin="zoomminus.mouseover" end="zoomminus.mouseout"/>
                        </use>
                        <path d="M-4,0h8" fill="none" stroke="white" stroke-width="1.5" pointer-events="none"/>
                </g>
                <g id="dirArrow">
                        <path fill="none" stroke="white" stroke-width="1.5" d="M0,-3.0v7 M-2.5,-0.5L0,-3.0L2.5,-0.5"/>
                </g>
               <g id="resetDef">
                       <use xlink:href="#rim2" fill="#404040">
                               <set attributeName="fill" to="#808080" begin="reset.mouseover" end="reset.mouseout"/>
                       </use>
               </g>
        </defs>

<script type="text/javascript">
var viewWidth = 914;
var viewHeight = 332;
var sectionId = 'dynsection-1';
</script>
<script xlink:href="svgpan.js"/>
<svg id="graph" class="graph">
<g id="viewport">
<title>main</title>
<!-- Node1 -->
<g id="node1" class="node">
<title>Node1</title>
<g id="a_node1"><a xlink:title=" ">
<polygon fill="#bfbfbf" stroke="black" points="0,-152.5 0,-171.5 38,-171.5 38,-152.5 0,-152.5"/>
<text text-anchor="middle" x="19" y="-159.5" font-family="Helvetica,sans-Serif" font-size="10.00">main</text>
</a>
</g>
</g>
<!-- Node2 -->
<g id="node2" class="node">
<title>Node2</title>
<g id="a_node2"><a xlink:href="classEShop.html#a8444eafd76d24731ddf53b036fce3a92" target="_top" xlink:title="Add a Buyer to the e&#45;shop.">
<polygon fill="none" stroke="black" points="90.5,-304.5 90.5,-323.5 180.5,-323.5 180.5,-304.5 90.5,-304.5"/>
<text text-anchor="middle" x="135.5" y="-311.5" font-family="Helvetica,sans-Serif" font-size="10.00">EShop::addBuyer</text>
</a>
</g>
</g>
<!-- Node1&#45;&gt;Node2 -->
<g id="edge1" class="edge">
<title>Node1&#45;&gt;Node2</title>
<path fill="none" stroke="midnightblue" d="M21.49,-171.78C25.56,-195.33 39.01,-255.75 74,-290 77.99,-293.9 82.69,-297.19 87.68,-299.96"/>
<polygon fill="midnightblue" stroke="midnightblue" points="86.35,-303.21 96.88,-304.4 89.39,-296.9 86.35,-303.21"/>
</g>
<!-- Node4 -->
<g id="node4" class="node">
<title>Node4</title>
<g id="a_node4"><a xlink:href="classEShop.html#ad7003995c9d5ab17f2440825af920c06" target="_top" xlink:title="Add an Item to the e&#45;shop.">
<polygon fill="none" stroke="black" points="260,-266.5 260,-285.5 345,-285.5 345,-266.5 260,-266.5"/>
<text text-anchor="middle" x="302.5" y="-273.5" font-family="Helvetica,sans-Serif" font-size="10.00">EShop::addItem</text>
</a>
</g>
</g>
<!-- Node1&#45;&gt;Node4 -->
<g id="edge3" class="edge">
<title>Node1&#45;&gt;Node4</title>
<path fill="none" stroke="midnightblue" d="M23.21,-171.66C29.68,-189.48 46.12,-227.34 74,-245 126.97,-278.56 200.75,-282.58 249.75,-280.69"/>
<polygon fill="midnightblue" stroke="midnightblue" points="250,-284.19 259.82,-280.21 249.66,-277.19 250,-284.19"/>
</g>
<!-- Node6 -->
<g id="node6" class="node">
<title>Node6</title>
<g id="a_node6"><a xlink:href="classEShopError.html#a47b46a751485345958bf78cf5cd12090" target="_top" xlink:title="Return the error message.">
<polygon fill="none" stroke="black" points="258,-228.5 258,-247.5 347,-247.5 347,-228.5 258,-228.5"/>
<text text-anchor="middle" x="302.5" y="-235.5" font-family="Helvetica,sans-Serif" font-size="10.00">EShopError::error</text>
</a>
</g>
</g>
<!-- Node1&#45;&gt;Node6 -->
<g id="edge5" class="edge">
<title>Node1&#45;&gt;Node6</title>
<path fill="none" stroke="midnightblue" d="M25.89,-171.72C34.57,-185.04 52.13,-208.49 74,-219 128.75,-245.3 199.48,-246.92 247.44,-243.99"/>
<polygon fill="midnightblue" stroke="midnightblue" points="247.88,-247.46 257.61,-243.27 247.39,-240.48 247.88,-247.46"/>
</g>
<!-- Node7 -->
<g id="node7" class="node">
<title>Node7</title>
<g id="a_node7"><a xlink:href="classEShop.html#a5b06d5864cf02a1d4b2a6014d3064b61" target="_top" xlink:title="Return a Buyer reference if the Buyer&#39;s email is found in the e&#45;shop.">
<polygon fill="none" stroke="black" points="74,-190.5 74,-209.5 197,-209.5 197,-190.5 74,-190.5"/>
<text text-anchor="middle" x="135.5" y="-197.5" font-family="Helvetica,sans-Serif" font-size="10.00">EShop::getBuyerByEmail</text>
</a>
</g>
</g>
<!-- Node1&#45;&gt;Node7 -->
<g id="edge6" class="edge">
<title>Node1&#45;&gt;Node7</title>
<path fill="none" stroke="midnightblue" d="M38.44,-168.66C48.85,-172.38 62.12,-177.05 74,-181 80.39,-183.13 87.17,-185.32 93.81,-187.43"/>
<polygon fill="midnightblue" stroke="midnightblue" points="92.76,-190.77 103.35,-190.44 94.86,-184.09 92.76,-190.77"/>
</g>
<!-- Node8 -->
<g id="node8" class="node">
<title>Node8</title>
<g id="a_node8"><a xlink:href="classEShop.html#a74ea0d783f8404ca1e13f8ea1f9c82aa" target="_top" xlink:title="Return an Item reference if the Item&#39;s ID is found in the e&#45;shop.">
<polygon fill="none" stroke="black" points="84.5,-152.5 84.5,-171.5 186.5,-171.5 186.5,-152.5 84.5,-152.5"/>
<text text-anchor="middle" x="135.5" y="-159.5" font-family="Helvetica,sans-Serif" font-size="10.00">EShop::getItemById</text>
</a>
</g>
</g>
<!-- Node1&#45;&gt;Node8 -->
<g id="edge7" class="edge">
<title>Node1&#45;&gt;Node8</title>
<path fill="none" stroke="midnightblue" d="M38.14,-162C48.09,-162 61.06,-162 74.24,-162"/>
<polygon fill="midnightblue" stroke="midnightblue" points="74.32,-165.5 84.32,-162 74.32,-158.5 74.32,-165.5"/>
</g>
<!-- Node9 -->
<g id="node9" class="node">
<title>Node9</title>
<g id="a_node9"><a xlink:href="classBuyer.html#a50ddd9046308e8ac9b82c0665d07452b" target="_top" xlink:title="Add an item to the cart with the specified quantity.">
<polygon fill="none" stroke="black" points="89,-114.5 89,-133.5 182,-133.5 182,-114.5 89,-114.5"/>
<text text-anchor="middle" x="135.5" y="-121.5" font-family="Helvetica,sans-Serif" font-size="10.00">Buyer::placeOrder</text>
</a>
</g>
</g>
<!-- Node1&#45;&gt;Node9 -->
<g id="edge8" class="edge">
<title>Node1&#45;&gt;Node9</title>
<path fill="none" stroke="midnightblue" d="M38.44,-155.34C48.85,-151.62 62.12,-146.95 74,-143 80.39,-140.87 87.17,-138.68 93.81,-136.57"/>
<polygon fill="midnightblue" stroke="midnightblue" points="94.86,-139.91 103.35,-133.56 92.76,-133.23 94.86,-139.91"/>
</g>
<!-- Node15 -->
<g id="node15" class="node">
<title>Node15</title>
<g id="a_node15"><a xlink:href="classEShop.html#ac935112a9ba86c6da391ed924d7ac1e5" target="_top" xlink:title="Remove a Buyer from the eshop if it exists and clears their cart.">
<polygon fill="none" stroke="black" points="82,-76.5 82,-95.5 189,-95.5 189,-76.5 82,-76.5"/>
<text text-anchor="middle" x="135.5" y="-83.5" font-family="Helvetica,sans-Serif" font-size="10.00">EShop::removeBuyer</text>
</a>
</g>
</g>
<!-- Node1&#45;&gt;Node15 -->
<g id="edge19" class="edge">
<title>Node1&#45;&gt;Node15</title>
<path fill="none" stroke="midnightblue" d="M26.88,-152.07C36.17,-139.38 53.88,-117.57 74,-105 77.37,-102.89 80.99,-101.01 84.73,-99.31"/>
<polygon fill="midnightblue" stroke="midnightblue" points="86.21,-102.49 94.17,-95.5 83.59,-96 86.21,-102.49"/>
</g>
<!-- Node16 -->
<g id="node16" class="node">
<title>Node16</title>
<g id="a_node16"><a xlink:href="classEShop.html#af3b239e7ec7562b21993d9a5be7034c0" target="_top" xlink:title="Remove an Item from the eshop if it exists.">
<polygon fill="none" stroke="black" points="85,-38.5 85,-57.5 186,-57.5 186,-38.5 85,-38.5"/>
<text text-anchor="middle" x="135.5" y="-45.5" font-family="Helvetica,sans-Serif" font-size="10.00">EShop::removeItem</text>
</a>
</g>
</g>
<!-- Node1&#45;&gt;Node16 -->
<g id="edge20" class="edge">
<title>Node1&#45;&gt;Node16</title>
<path fill="none" stroke="midnightblue" d="M22.83,-152.35C28.95,-133.19 45.21,-90.24 74,-67 76.25,-65.18 78.67,-63.54 81.21,-62.06"/>
<polygon fill="midnightblue" stroke="midnightblue" points="82.81,-65.17 90.2,-57.58 79.69,-58.9 82.81,-65.17"/>
</g>
<!-- Node17 -->
<g id="node17" class="node">
<title>Node17</title>
<g id="a_node17"><a xlink:href="classEShop.html#a81f57193668487f22bfdc11597eead9d" target="_top" xlink:title="Shows the details of the specified product.">
<polygon fill="none" stroke="black" points="82,-0.5 82,-19.5 189,-19.5 189,-0.5 82,-0.5"/>
<text text-anchor="middle" x="135.5" y="-7.5" font-family="Helvetica,sans-Serif" font-size="10.00">EShop::showProduct</text>
</a>
</g>
</g>
<!-- Node1&#45;&gt;Node17 -->
<g id="edge21" class="edge">
<title>Node1&#45;&gt;Node17</title>
<path fill="none" stroke="midnightblue" d="M21.1,-152.39C24.41,-128.08 36.44,-63.63 74,-29 75.71,-27.42 77.55,-25.98 79.49,-24.65"/>
<polygon fill="midnightblue" stroke="midnightblue" points="81.5,-27.53 88.49,-19.58 78.06,-21.44 81.5,-27.53"/>
</g>
<!-- Node3 -->
<g id="node3" class="node">
<title>Node3</title>
<g id="a_node3"><a xlink:href="classUser.html#adb316ac38d5f62a967686e7b736a0469" target="_top" xlink:title="Get the Name of the user.">
<polygon fill="none" stroke="black" points="261.5,-304.5 261.5,-323.5 343.5,-323.5 343.5,-304.5 261.5,-304.5"/>
<text text-anchor="middle" x="302.5" y="-311.5" font-family="Helvetica,sans-Serif" font-size="10.00">User::getName</text>
</a>
</g>
</g>
<!-- Node2&#45;&gt;Node3 -->
<g id="edge2" class="edge">
<title>Node2&#45;&gt;Node3</title>
<path fill="none" stroke="midnightblue" d="M180.72,-314C202.49,-314 228.83,-314 251.35,-314"/>
<polygon fill="midnightblue" stroke="midnightblue" points="251.4,-317.5 261.4,-314 251.4,-310.5 251.4,-317.5"/>
</g>
<!-- Node5 -->
<g id="node5" class="node">
<title>Node5</title>
<g id="a_node5"><a xlink:href="classItem.html#a63d7f2148b699e539aae354b01559811" target="_top" xlink:title="Get the Item&#39;s name.">
<polygon fill="none" stroke="black" points="463.5,-266.5 463.5,-285.5 543.5,-285.5 543.5,-266.5 463.5,-266.5"/>
<text text-anchor="middle" x="503.5" y="-273.5" font-family="Helvetica,sans-Serif" font-size="10.00">Item::getName</text>
</a>
</g>
</g>
<!-- Node4&#45;&gt;Node5 -->
<g id="edge4" class="edge">
<title>Node4&#45;&gt;Node5</title>
<path fill="none" stroke="midnightblue" d="M345.22,-276C376.58,-276 419.67,-276 452.82,-276"/>
<polygon fill="midnightblue" stroke="midnightblue" points="453.21,-279.5 463.21,-276 453.21,-272.5 453.21,-279.5"/>
</g>
<!-- Node9&#45;&gt;Node6 -->
<g id="edge17" class="edge">
<title>Node9&#45;&gt;Node6</title>
<path fill="none" stroke="midnightblue" d="M181.68,-133.53C187.23,-135.99 192.52,-139.1 197,-143 225.19,-167.54 204.4,-194.94 233,-219 237.54,-222.82 242.78,-225.87 248.31,-228.31"/>
<polygon fill="midnightblue" stroke="midnightblue" points="247.22,-231.64 257.81,-231.87 249.68,-225.09 247.22,-231.64"/>
</g>
<!-- Node10 -->
<g id="node10" class="node">
<title>Node10</title>
<g id="a_node10"><a xlink:href="classShoppingCart.html#a5481a654a62253b5de2650f9149f6780" target="_top" xlink:title="Add quantity of an Item to the cart.">
<polygon fill="none" stroke="black" points="233,-190.5 233,-209.5 372,-209.5 372,-190.5 233,-190.5"/>
<text text-anchor="middle" x="302.5" y="-197.5" font-family="Helvetica,sans-Serif" font-size="10.00">ShoppingCart::addItemOrder</text>
</a>
</g>
</g>
<!-- Node9&#45;&gt;Node10 -->
<g id="edge9" class="edge">
<title>Node9&#45;&gt;Node10</title>
<path fill="none" stroke="midnightblue" d="M170.84,-133.51C179.5,-136.25 188.69,-139.47 197,-143 225.53,-155.13 256.51,-172.61 277.27,-185.02"/>
<polygon fill="midnightblue" stroke="midnightblue" points="275.68,-188.14 286.04,-190.32 279.3,-182.15 275.68,-188.14"/>
</g>
<!-- Node13 -->
<g id="node13" class="node">
<title>Node13</title>
<g id="a_node13"><a xlink:href="classItem.html#adb47826cabe2aae97ad65a57cd04f963" target="_top" xlink:title="Get the Item&#39;s stock.">
<polygon fill="none" stroke="black" points="826,-152.5 826,-171.5 906,-171.5 906,-152.5 826,-152.5"/>
<text text-anchor="middle" x="866" y="-159.5" font-family="Helvetica,sans-Serif" font-size="10.00">Item::getStock</text>
</a>
</g>
</g>
<!-- Node9&#45;&gt;Node13 -->
<g id="edge18" class="edge">
<title>Node9&#45;&gt;Node13</title>
<path fill="none" stroke="midnightblue" d="M182.07,-126.05C288.51,-130.89 561.77,-143.63 790,-157 798.24,-157.48 806.99,-158.03 815.5,-158.59"/>
<polygon fill="midnightblue" stroke="midnightblue" points="815.48,-162.09 825.69,-159.26 815.95,-155.11 815.48,-162.09"/>
</g>
<!-- Node10&#45;&gt;Node5 -->
<g id="edge14" class="edge">
<title>Node10&#45;&gt;Node5</title>
<path fill="none" stroke="midnightblue" d="M349.64,-209.57C357.36,-212.07 365.09,-215.17 372,-219 390.98,-229.52 388.9,-241.68 408,-252 421.79,-259.45 437.98,-264.65 453.02,-268.26"/>
<polygon fill="midnightblue" stroke="midnightblue" points="452.68,-271.77 463.2,-270.51 454.19,-264.93 452.68,-271.77"/>
</g>
<!-- Node11 -->
<g id="node11" class="node">
<title>Node11</title>
<g id="a_node11"><a xlink:href="classShoppingCart.html#a211bfa95c5d4346f6405e93b9f4a1990" target="_top" xlink:title="Changes the quantity of an item in the cart.">
<polygon fill="none" stroke="black" points="408,-190.5 408,-209.5 599,-209.5 599,-190.5 408,-190.5"/>
<text text-anchor="middle" x="503.5" y="-197.5" font-family="Helvetica,sans-Serif" font-size="10.00">ShoppingCart::changeItemOrderQuantity</text>
</a>
</g>
</g>
<!-- Node10&#45;&gt;Node11 -->
<g id="edge10" class="edge">
<title>Node10&#45;&gt;Node11</title>
<path fill="none" stroke="midnightblue" d="M372.26,-200C380.5,-200 389.05,-200 397.65,-200"/>
<polygon fill="midnightblue" stroke="midnightblue" points="397.75,-203.5 407.75,-200 397.75,-196.5 397.75,-203.5"/>
</g>
<!-- Node10&#45;&gt;Node13 -->
<g id="edge15" class="edge">
<title>Node10&#45;&gt;Node13</title>
<path fill="none" stroke="midnightblue" d="M348.05,-190.5C366.52,-186.93 388.21,-183.2 408,-181 555.74,-164.58 731.77,-162.01 815.72,-161.82"/>
<polygon fill="midnightblue" stroke="midnightblue" points="815.74,-165.32 825.74,-161.81 815.73,-158.32 815.74,-165.32"/>
</g>
<!-- Node14 -->
<g id="node14" class="node">
<title>Node14</title>
<g id="a_node14"><a xlink:href="classItem.html#a0fa2135af2d5ac406fc7ee8d9b73aeec" target="_top" xlink:title="Set the stock of an item.">
<polygon fill="none" stroke="black" points="826,-209.5 826,-228.5 906,-228.5 906,-209.5 826,-209.5"/>
<text text-anchor="middle" x="866" y="-216.5" font-family="Helvetica,sans-Serif" font-size="10.00">Item::setStock</text>
</a>
</g>
</g>
<!-- Node10&#45;&gt;Node14 -->
<g id="edge16" class="edge">
<title>Node10&#45;&gt;Node14</title>
<path fill="none" stroke="midnightblue" d="M345.97,-209.51C364.86,-213.28 387.43,-217.15 408,-219 555.92,-232.34 731.87,-226.17 815.76,-221.89"/>
<polygon fill="midnightblue" stroke="midnightblue" points="815.97,-225.38 825.77,-221.37 815.6,-218.39 815.97,-225.38"/>
</g>
<!-- Node12 -->
<g id="node12" class="node">
<title>Node12</title>
<g id="a_node12"><a xlink:href="classShoppingCart.html#ac61d13f6110480f27e8fd31e7ccdbfe6" target="_top" xlink:title="Remove an item from the cart completely.">
<polygon fill="none" stroke="black" points="635,-190.5 635,-209.5 790,-209.5 790,-190.5 635,-190.5"/>
<text text-anchor="middle" x="712.5" y="-197.5" font-family="Helvetica,sans-Serif" font-size="10.00">ShoppingCart::removeItemOrder</text>
</a>
</g>
</g>
<!-- Node11&#45;&gt;Node12 -->
<g id="edge11" class="edge">
<title>Node11&#45;&gt;Node12</title>
<path fill="none" stroke="midnightblue" d="M599.22,-200C607.69,-200 616.25,-200 624.65,-200"/>
<polygon fill="midnightblue" stroke="midnightblue" points="624.82,-203.5 634.82,-200 624.82,-196.5 624.82,-203.5"/>
</g>
<!-- Node12&#45;&gt;Node13 -->
<g id="edge12" class="edge">
<title>Node12&#45;&gt;Node13</title>
<path fill="none" stroke="midnightblue" d="M751.73,-190.41C771.63,-185.42 796.16,-179.27 817.29,-173.97"/>
<polygon fill="midnightblue" stroke="midnightblue" points="818.2,-177.35 827.05,-171.52 816.49,-170.56 818.2,-177.35"/>
</g>
<!-- Node12&#45;&gt;Node14 -->
<g id="edge13" class="edge">
<title>Node12&#45;&gt;Node14</title>
<path fill="none" stroke="midnightblue" d="M789.69,-209.56C798.6,-210.67 807.5,-211.79 815.89,-212.84"/>
<polygon fill="midnightblue" stroke="midnightblue" points="815.5,-216.32 825.85,-214.09 816.37,-209.37 815.5,-216.32"/>
</g>
</g>
</svg>
        <g id="navigator" transform="translate(0 0)" fill="#404254">
                <rect fill="#f2f5e9" fill-opacity="0.5" stroke="#606060" stroke-width=".5" x="0" y="0" width="60" height="60"/>
                <use id="zoomplus" xlink:href="#zoomPlus" x="17" y="9" onmousedown="handleZoom(evt,'in')"/>
                <use id="zoomminus" xlink:href="#zoomMin" x="42" y="9" onmousedown="handleZoom(evt,'out')"/>
                <use id="reset" xlink:href="#resetDef" x="30" y="36" onmousedown="handleReset()"/>
                <g id="arrowUp" xlink:href="#dirArrow" transform="translate(30 24)" onmousedown="handlePan(0,-1)">
                  <use xlink:href="#rim" fill="#404040">
                        <set attributeName="fill" to="#808080" begin="arrowUp.mouseover" end="arrowUp.mouseout"/>
                  </use>
                  <path fill="none" stroke="white" stroke-width="1.5" d="M0,-3.0v7 M-2.5,-0.5L0,-3.0L2.5,-0.5"/>
                </g>
                <g id="arrowRight" xlink:href="#dirArrow" transform="rotate(90) translate(36 -43)" onmousedown="handlePan(1,0)">
                  <use xlink:href="#rim" fill="#404040">
                        <set attributeName="fill" to="#808080" begin="arrowRight.mouseover" end="arrowRight.mouseout"/>
                  </use>
                  <path fill="none" stroke="white" stroke-width="1.5" d="M0,-3.0v7 M-2.5,-0.5L0,-3.0L2.5,-0.5"/>
                </g>
                <g id="arrowDown" xlink:href="#dirArrow" transform="rotate(180) translate(-30 -48)" onmousedown="handlePan(0,1)">
                  <use xlink:href="#rim" fill="#404040">
                        <set attributeName="fill" to="#808080" begin="arrowDown.mouseover" end="arrowDown.mouseout"/>
                  </use>
                  <path fill="none" stroke="white" stroke-width="1.5" d="M0,-3.0v7 M-2.5,-0.5L0,-3.0L2.5,-0.5"/>
                </g>
                <g id="arrowLeft" xlink:href="#dirArrow" transform="rotate(270) translate(-36 17)" onmousedown="handlePan(-1,0)">
                  <use xlink:href="#rim" fill="#404040">
                        <set attributeName="fill" to="#808080" begin="arrowLeft.mouseover" end="arrowLeft.mouseout"/>
                  </use>
                  <path fill="none" stroke="white" stroke-width="1.5" d="M0,-3.0v7 M-2.5,-0.5L0,-3.0L2.5,-0.5"/>
                </g>
        </g>
        <svg viewBox="0 0 15 15" width="100%" height="30px" preserveAspectRatio="xMaxYMin meet">
         <g id="arrow_out" transform="scale(0.3 0.3)">
          <a xlink:href="main_8cpp_a3c04138a5bfe5d72780bb7e82a18e627_cgraph_org.svg" target="_base">
           <rect id="button" ry="5" rx="5" y="6" x="6" height="38" width="38"
                fill="#f2f5e9" fill-opacity="0.5" stroke="#606060" stroke-width="1.0"/>
           <path id="arrow"
             d="M 11.500037,31.436501 C 11.940474,20.09759 22.043105,11.32322 32.158766,21.979434 L 37.068811,17.246167 C 37.068811,17.246167 37.088388,32 37.088388,32 L 22.160133,31.978069 C 22.160133,31.978069 26.997745,27.140456 26.997745,27.140456 C 18.528582,18.264221 13.291696,25.230495 11.500037,31.436501 z"
             style="fill:#404040;"/>
          </a>
         </g>
        </svg>
</svg>
