<?xml version="1.0" encoding="UTF-8" standalone="no"?>
<!DOCTYPE svg PUBLIC "-//W3C//DTD SVG 1.1//EN"
 "http://www.w3.org/Graphics/SVG/1.1/DTD/svg11.dtd">
<!-- Generated by graphviz version 2.49.3 (20211027.1534)
 -->
<!-- Title: src/menu.cpp Pages: 1 -->
<!--zoomable 308 -->
<svg id="main" version="1.1" xmlns="http://www.w3.org/2000/svg" xmlns:xlink="http://www.w3.org/1999/xlink" xml:space="preserve" onload="init(evt)">
<style type="text/css"><![CDATA[
.edge:hover path { stroke: red; }
.edge:hover polygon { stroke: red; fill: red; }
]]></style>
<script type="text/javascript"><![CDATA[
var edges = document.getElementsByTagName('g');
if (edges && edges.length) {
  for (var i=0;i<edges.length;i++) {
    if (edges[i].id.substr(0,4)=='edge') {
      edges[i].setAttribute('class','edge');
    }
  }
}
]]></script>
        <defs>
                <circle id="rim" cx="0" cy="0" r="7"/>
                <circle id="rim2" cx="0" cy="0" r="3.5"/>
                <g id="zoomPlus">
                        <use xlink:href="#rim" fill="#404040">
                                <set attributeName="fill" to="#808080" begin="zoomplus.mouseover" end="zoomplus.mouseout"/>
                        </use>
                        <path d="M-4,0h8M0,-4v8" fill="none" stroke="white" stroke-width="1.5" pointer-events="none"/>
                </g>
                <g id="zoomMin">
                        <use xlink:href="#rim" fill="#404040">
                                <set attributeName="fill" to="#808080" begin="zoomminus.mouseover" end="zoomminus.mouseout"/>
                        </use>
                        <path d="M-4,0h8" fill="none" stroke="white" stroke-width="1.5" pointer-events="none"/>
                </g>
                <g id="dirArrow">
                        <path fill="none" stroke="white" stroke-width="1.5" d="M0,-3.0v7 M-2.5,-0.5L0,-3.0L2.5,-0.5"/>
                </g>
               <g id="resetDef">
                       <use xlink:href="#rim2" fill="#404040">
                               <set attributeName="fill" to="#808080" begin="reset.mouseover" end="reset.mouseout"/>
                       </use>
               </g>
        </defs>

<script type="text/javascript">
var viewWidth = 672;
var viewHeight = 308;
var sectionId = 'dynsection-0';
</script>
<script xlink:href="svgpan.js"/>
<svg id="graph" class="graph">
<g id="viewport">
<title>src/menu.cpp</title>
<!-- Node1 -->
<g id="node1" class="node">
<title>Node1</title>
<g id="a_node1"><a xlink:title=" ">
<polygon fill="#bfbfbf" stroke="black" points="369.5,-280.5 369.5,-299.5 444.5,-299.5 444.5,-280.5 369.5,-280.5"/>
<text text-anchor="middle" x="407" y="-287.5" font-family="Helvetica,sans-Serif" font-size="10.00">src/menu.cpp</text>
</a>
</g>
</g>
<!-- Node2 -->
<g id="node2" class="node">
<title>Node2</title>
<g id="a_node2"><a xlink:title=" ">
<polygon fill="none" stroke="#bfbfbf" points="135,-224.5 135,-243.5 185,-243.5 185,-224.5 135,-224.5"/>
<text text-anchor="middle" x="160" y="-231.5" font-family="Helvetica,sans-Serif" font-size="10.00">iomanip</text>
</a>
</g>
</g>
<!-- Node1&#45;&gt;Node2 -->
<g id="edge1" class="edge">
<title>Node1&#45;&gt;Node2</title>
<path fill="none" stroke="midnightblue" d="M369.16,-281.61C328.48,-273.53 261.67,-259.87 195.04,-244.16"/>
<polygon fill="midnightblue" stroke="midnightblue" points="195.75,-240.73 185.22,-241.83 194.14,-247.54 195.75,-240.73"/>
</g>
<!-- Node3 -->
<g id="node3" class="node">
<title>Node3</title>
<g id="a_node3"><a xlink:title=" ">
<polygon fill="none" stroke="#bfbfbf" points="492,-56.5 492,-75.5 522,-75.5 522,-56.5 492,-56.5"/>
<text text-anchor="middle" x="507" y="-63.5" font-family="Helvetica,sans-Serif" font-size="10.00">set</text>
</a>
</g>
</g>
<!-- Node1&#45;&gt;Node3 -->
<g id="edge2" class="edge">
<title>Node1&#45;&gt;Node3</title>
<path fill="none" stroke="midnightblue" d="M421.46,-280.35C445.27,-265.17 491.87,-231.18 510,-188 524.25,-154.06 517.6,-109.91 511.97,-85.42"/>
<polygon fill="midnightblue" stroke="midnightblue" points="515.35,-84.51 509.54,-75.66 508.56,-86.21 515.35,-84.51"/>
</g>
<!-- Node4 -->
<g id="node4" class="node">
<title>Node4</title>
<g id="a_node4"><a xlink:title=" ">
<polygon fill="none" stroke="#bfbfbf" points="616.5,-224.5 616.5,-243.5 663.5,-243.5 663.5,-224.5 616.5,-224.5"/>
<text text-anchor="middle" x="640" y="-231.5" font-family="Helvetica,sans-Serif" font-size="10.00">iterator</text>
</a>
</g>
</g>
<!-- Node1&#45;&gt;Node4 -->
<g id="edge3" class="edge">
<title>Node1&#45;&gt;Node4</title>
<path fill="none" stroke="midnightblue" d="M444.4,-280.44C483.66,-271.43 547.19,-256.81 602,-244 603.44,-243.66 604.92,-243.32 606.41,-242.97"/>
<polygon fill="midnightblue" stroke="midnightblue" points="607.36,-246.34 616.29,-240.64 605.75,-239.53 607.36,-246.34"/>
</g>
<!-- Node5 -->
<g id="node5" class="node">
<title>Node5</title>
<g id="a_node5"><a xlink:href="menu_8h.html" target="_top" xlink:title=" ">
<polygon fill="none" stroke="black" points="203,-224.5 203,-243.5 251,-243.5 251,-224.5 203,-224.5"/>
<text text-anchor="middle" x="227" y="-231.5" font-family="Helvetica,sans-Serif" font-size="10.00">menu.h</text>
</a>
</g>
</g>
<!-- Node1&#45;&gt;Node5 -->
<g id="edge4" class="edge">
<title>Node1&#45;&gt;Node5</title>
<path fill="none" stroke="midnightblue" d="M378.48,-280.44C346.59,-270.88 294.96,-255.39 261,-245.2"/>
<polygon fill="midnightblue" stroke="midnightblue" points="261.65,-241.74 251.07,-242.22 259.64,-248.45 261.65,-241.74"/>
</g>
<!-- Node6 -->
<g id="node6" class="node">
<title>Node6</title>
<g id="a_node6"><a xlink:href="eshop_8h.html" target="_top" xlink:title=" ">
<polygon fill="none" stroke="black" points="333,-168.5 333,-187.5 383,-187.5 383,-168.5 333,-168.5"/>
<text text-anchor="middle" x="358" y="-175.5" font-family="Helvetica,sans-Serif" font-size="10.00">eshop.h</text>
</a>
</g>
</g>
<!-- Node5&#45;&gt;Node6 -->
<g id="edge5" class="edge">
<title>Node5&#45;&gt;Node6</title>
<path fill="none" stroke="midnightblue" d="M247.76,-224.44C269.32,-215.56 303.26,-201.56 327.79,-191.45"/>
<polygon fill="midnightblue" stroke="midnightblue" points="329.43,-194.56 337.34,-187.52 326.76,-188.09 329.43,-194.56"/>
</g>
<!-- Node9 -->
<g id="node9" class="node">
<title>Node9</title>
<g id="a_node9"><a xlink:href="item_8h.html" target="_top" xlink:title=" ">
<polygon fill="none" stroke="black" points="177.5,-56.5 177.5,-75.5 220.5,-75.5 220.5,-56.5 177.5,-56.5"/>
<text text-anchor="middle" x="199" y="-63.5" font-family="Helvetica,sans-Serif" font-size="10.00">item.h</text>
</a>
</g>
</g>
<!-- Node5&#45;&gt;Node9 -->
<g id="edge18" class="edge">
<title>Node5&#45;&gt;Node9</title>
<path fill="none" stroke="midnightblue" d="M222.77,-224.36C214.65,-207.24 197.15,-167.59 191,-132 189.49,-123.24 190.22,-120.85 191,-112 191.78,-103.2 193.39,-93.54 194.97,-85.43"/>
<polygon fill="midnightblue" stroke="midnightblue" points="198.41,-86.07 197.01,-75.57 191.56,-84.65 198.41,-86.07"/>
</g>
<!-- Node14 -->
<g id="node14" class="node">
<title>Node14</title>
<g id="a_node14"><a xlink:href="pen_8h.html" target="_top" xlink:title=" ">
<polygon fill="none" stroke="black" points="121,-168.5 121,-187.5 161,-187.5 161,-168.5 121,-168.5"/>
<text text-anchor="middle" x="141" y="-175.5" font-family="Helvetica,sans-Serif" font-size="10.00">pen.h</text>
</a>
</g>
</g>
<!-- Node5&#45;&gt;Node14 -->
<g id="edge19" class="edge">
<title>Node5&#45;&gt;Node14</title>
<path fill="none" stroke="midnightblue" d="M213.18,-224.32C199.77,-215.9 179.18,-202.97 163.41,-193.07"/>
<polygon fill="midnightblue" stroke="midnightblue" points="165.11,-190.01 154.78,-187.65 161.39,-195.94 165.11,-190.01"/>
</g>
<!-- Node15 -->
<g id="node15" class="node">
<title>Node15</title>
<g id="a_node15"><a xlink:href="pencil_8h.html" target="_top" xlink:title=" ">
<polygon fill="none" stroke="black" points="200,-112.5 200,-131.5 250,-131.5 250,-112.5 200,-112.5"/>
<text text-anchor="middle" x="225" y="-119.5" font-family="Helvetica,sans-Serif" font-size="10.00">pencil.h</text>
</a>
</g>
</g>
<!-- Node5&#45;&gt;Node15 -->
<g id="edge21" class="edge">
<title>Node5&#45;&gt;Node15</title>
<path fill="none" stroke="midnightblue" d="M226.84,-224.37C226.52,-206.62 225.78,-165.67 225.34,-141.6"/>
<polygon fill="midnightblue" stroke="midnightblue" points="228.84,-141.53 225.16,-131.59 221.84,-141.65 228.84,-141.53"/>
</g>
<!-- Node16 -->
<g id="node16" class="node">
<title>Node16</title>
<g id="a_node16"><a xlink:href="notebook_8h.html" target="_top" xlink:title=" ">
<polygon fill="none" stroke="black" points="0,-112.5 0,-131.5 64,-131.5 64,-112.5 0,-112.5"/>
<text text-anchor="middle" x="32" y="-119.5" font-family="Helvetica,sans-Serif" font-size="10.00">notebook.h</text>
</a>
</g>
</g>
<!-- Node5&#45;&gt;Node16 -->
<g id="edge24" class="edge">
<title>Node5&#45;&gt;Node16</title>
<path fill="none" stroke="midnightblue" d="M202.87,-226.34C199.89,-225.54 196.88,-224.74 194,-224 128.45,-207.09 93.23,-236.5 46,-188 34.31,-175.99 31.37,-156.7 31.03,-142.24"/>
<polygon fill="midnightblue" stroke="midnightblue" points="34.53,-141.97 31.18,-131.92 27.53,-141.87 34.53,-141.97"/>
</g>
<!-- Node17 -->
<g id="node17" class="node">
<title>Node17</title>
<g id="a_node17"><a xlink:href="paper_8h.html" target="_top" xlink:title=" ">
<polygon fill="none" stroke="black" points="55,-168.5 55,-187.5 103,-187.5 103,-168.5 55,-168.5"/>
<text text-anchor="middle" x="79" y="-175.5" font-family="Helvetica,sans-Serif" font-size="10.00">paper.h</text>
</a>
</g>
</g>
<!-- Node5&#45;&gt;Node17 -->
<g id="edge26" class="edge">
<title>Node5&#45;&gt;Node17</title>
<path fill="none" stroke="midnightblue" d="M203.55,-224.44C178.87,-215.44 139.81,-201.19 112.02,-191.05"/>
<polygon fill="midnightblue" stroke="midnightblue" points="112.94,-187.66 102.34,-187.52 110.54,-194.23 112.94,-187.66"/>
</g>
<!-- Node18 -->
<g id="node18" class="node">
<title>Node18</title>
<g id="a_node18"><a xlink:href="eshoperror_8h.html" target="_top" xlink:title=" ">
<polygon fill="none" stroke="black" points="431,-168.5 431,-187.5 501,-187.5 501,-168.5 431,-168.5"/>
<text text-anchor="middle" x="466" y="-175.5" font-family="Helvetica,sans-Serif" font-size="10.00">eshoperror.h</text>
</a>
</g>
</g>
<!-- Node5&#45;&gt;Node18 -->
<g id="edge28" class="edge">
<title>Node5&#45;&gt;Node18</title>
<path fill="none" stroke="midnightblue" d="M251.23,-227.53C290.98,-218.54 370.63,-200.55 420.97,-189.18"/>
<polygon fill="midnightblue" stroke="midnightblue" points="421.95,-192.54 430.93,-186.92 420.4,-185.71 421.95,-192.54"/>
</g>
<!-- Node7 -->
<g id="node7" class="node">
<title>Node7</title>
<g id="a_node7"><a xlink:title=" ">
<polygon fill="none" stroke="#bfbfbf" points="412,-0.5 412,-19.5 466,-19.5 466,-0.5 412,-0.5"/>
<text text-anchor="middle" x="439" y="-7.5" font-family="Helvetica,sans-Serif" font-size="10.00">iostream</text>
</a>
</g>
</g>
<!-- Node6&#45;&gt;Node7 -->
<g id="edge6" class="edge">
<title>Node6&#45;&gt;Node7</title>
<path fill="none" stroke="midnightblue" d="M383.19,-172.23C418.54,-164.96 480,-150.04 493,-132 505.68,-114.4 470.37,-57.07 450.9,-28.09"/>
<polygon fill="midnightblue" stroke="midnightblue" points="453.74,-26.05 445.21,-19.77 447.96,-30 453.74,-26.05"/>
</g>
<!-- Node8 -->
<g id="node8" class="node">
<title>Node8</title>
<g id="a_node8"><a xlink:title=" ">
<polygon fill="none" stroke="#bfbfbf" points="306,-112.5 306,-131.5 350,-131.5 350,-112.5 306,-112.5"/>
<text text-anchor="middle" x="328" y="-119.5" font-family="Helvetica,sans-Serif" font-size="10.00">vector</text>
</a>
</g>
</g>
<!-- Node6&#45;&gt;Node8 -->
<g id="edge7" class="edge">
<title>Node6&#45;&gt;Node8</title>
<path fill="none" stroke="midnightblue" d="M353.05,-168.08C348.9,-160.61 342.85,-149.72 337.73,-140.52"/>
<polygon fill="midnightblue" stroke="midnightblue" points="340.78,-138.79 332.86,-131.75 334.66,-142.19 340.78,-138.79"/>
</g>
<!-- Node6&#45;&gt;Node9 -->
<g id="edge8" class="edge">
<title>Node6&#45;&gt;Node9</title>
<path fill="none" stroke="midnightblue" d="M345.52,-168.37C318.36,-149.57 253.59,-104.77 220.01,-81.53"/>
<polygon fill="midnightblue" stroke="midnightblue" points="221.63,-78.4 211.42,-75.59 217.65,-84.16 221.63,-78.4"/>
</g>
<!-- Node10 -->
<g id="node10" class="node">
<title>Node10</title>
<g id="a_node10"><a xlink:href="owner_8h.html" target="_top" xlink:title=" ">
<polygon fill="none" stroke="black" points="434,-112.5 434,-131.5 484,-131.5 484,-112.5 434,-112.5"/>
<text text-anchor="middle" x="459" y="-119.5" font-family="Helvetica,sans-Serif" font-size="10.00">owner.h</text>
</a>
</g>
</g>
<!-- Node6&#45;&gt;Node10 -->
<g id="edge10" class="edge">
<title>Node6&#45;&gt;Node10</title>
<path fill="none" stroke="midnightblue" d="M374.23,-168.32C390.35,-159.7 415.3,-146.36 433.96,-136.39"/>
<polygon fill="midnightblue" stroke="midnightblue" points="435.64,-139.46 442.81,-131.65 432.34,-133.28 435.64,-139.46"/>
</g>
<!-- Node12 -->
<g id="node12" class="node">
<title>Node12</title>
<g id="a_node12"><a xlink:href="buyer_8h.html" target="_top" xlink:title=" ">
<polygon fill="none" stroke="black" points="368.5,-112.5 368.5,-131.5 415.5,-131.5 415.5,-112.5 368.5,-112.5"/>
<text text-anchor="middle" x="392" y="-119.5" font-family="Helvetica,sans-Serif" font-size="10.00">buyer.h</text>
</a>
</g>
</g>
<!-- Node6&#45;&gt;Node12 -->
<g id="edge13" class="edge">
<title>Node6&#45;&gt;Node12</title>
<path fill="none" stroke="midnightblue" d="M363.61,-168.08C368.37,-160.53 375.32,-149.49 381.15,-140.23"/>
<polygon fill="midnightblue" stroke="midnightblue" points="384.12,-142.08 386.49,-131.75 378.2,-138.35 384.12,-142.08"/>
</g>
<!-- Node9&#45;&gt;Node7 -->
<g id="edge9" class="edge">
<title>Node9&#45;&gt;Node7</title>
<path fill="none" stroke="midnightblue" d="M220.72,-60.11C261.74,-50.88 351.03,-30.79 401.79,-19.37"/>
<polygon fill="midnightblue" stroke="midnightblue" points="402.71,-22.75 411.7,-17.14 401.17,-15.92 402.71,-22.75"/>
</g>
<!-- Node11 -->
<g id="node11" class="node">
<title>Node11</title>
<g id="a_node11"><a xlink:href="user_8h.html" target="_top" xlink:title=" ">
<polygon fill="none" stroke="black" points="392.5,-56.5 392.5,-75.5 435.5,-75.5 435.5,-56.5 392.5,-56.5"/>
<text text-anchor="middle" x="414" y="-63.5" font-family="Helvetica,sans-Serif" font-size="10.00">user.h</text>
</a>
</g>
</g>
<!-- Node10&#45;&gt;Node11 -->
<g id="edge11" class="edge">
<title>Node10&#45;&gt;Node11</title>
<path fill="none" stroke="midnightblue" d="M451.57,-112.08C445.15,-104.38 435.69,-93.03 427.88,-83.65"/>
<polygon fill="midnightblue" stroke="midnightblue" points="430.38,-81.19 421.29,-75.75 425.01,-85.67 430.38,-81.19"/>
</g>
<!-- Node11&#45;&gt;Node7 -->
<g id="edge12" class="edge">
<title>Node11&#45;&gt;Node7</title>
<path fill="none" stroke="midnightblue" d="M418.13,-56.08C421.51,-48.77 426.42,-38.18 430.62,-29.1"/>
<polygon fill="midnightblue" stroke="midnightblue" points="433.92,-30.3 434.95,-19.75 427.57,-27.36 433.92,-30.3"/>
</g>
<!-- Node12&#45;&gt;Node3 -->
<g id="edge14" class="edge">
<title>Node12&#45;&gt;Node3</title>
<path fill="none" stroke="midnightblue" d="M410.22,-112.44C429.77,-103.26 460.93,-88.63 482.59,-78.46"/>
<polygon fill="midnightblue" stroke="midnightblue" points="484.24,-81.56 491.8,-74.14 481.26,-75.22 484.24,-81.56"/>
</g>
<!-- Node12&#45;&gt;Node9 -->
<g id="edge16" class="edge">
<title>Node12&#45;&gt;Node9</title>
<path fill="none" stroke="midnightblue" d="M368.33,-114.38C333.68,-104.68 269.08,-86.61 230.47,-75.8"/>
<polygon fill="midnightblue" stroke="midnightblue" points="231.35,-72.42 220.78,-73.09 229.46,-79.16 231.35,-72.42"/>
</g>
<!-- Node12&#45;&gt;Node11 -->
<g id="edge17" class="edge">
<title>Node12&#45;&gt;Node11</title>
<path fill="none" stroke="midnightblue" d="M395.63,-112.08C398.61,-104.77 402.93,-94.18 406.62,-85.1"/>
<polygon fill="midnightblue" stroke="midnightblue" points="409.9,-86.33 410.43,-75.75 403.42,-83.69 409.9,-86.33"/>
</g>
<!-- Node13 -->
<g id="node13" class="node">
<title>Node13</title>
<g id="a_node13"><a xlink:title=" ">
<polygon fill="none" stroke="#bfbfbf" points="302.5,-56.5 302.5,-75.5 337.5,-75.5 337.5,-56.5 302.5,-56.5"/>
<text text-anchor="middle" x="320" y="-63.5" font-family="Helvetica,sans-Serif" font-size="10.00">map</text>
</a>
</g>
</g>
<!-- Node12&#45;&gt;Node13 -->
<g id="edge15" class="edge">
<title>Node12&#45;&gt;Node13</title>
<path fill="none" stroke="midnightblue" d="M380.43,-112.32C369.58,-104.18 353.12,-91.84 340.12,-82.09"/>
<polygon fill="midnightblue" stroke="midnightblue" points="341.88,-79.03 331.78,-75.83 337.68,-84.63 341.88,-79.03"/>
</g>
<!-- Node14&#45;&gt;Node9 -->
<g id="edge20" class="edge">
<title>Node14&#45;&gt;Node9</title>
<path fill="none" stroke="midnightblue" d="M141.96,-168.09C143.65,-155.09 147.98,-130.45 158,-112 163.96,-101.02 173.16,-90.58 181.34,-82.53"/>
<polygon fill="midnightblue" stroke="midnightblue" points="183.82,-85 188.72,-75.6 179.03,-79.89 183.82,-85"/>
</g>
<!-- Node15&#45;&gt;Node9 -->
<g id="edge23" class="edge">
<title>Node15&#45;&gt;Node9</title>
<path fill="none" stroke="midnightblue" d="M220.71,-112.08C217.15,-104.69 211.98,-93.95 207.58,-84.81"/>
<polygon fill="midnightblue" stroke="midnightblue" points="210.71,-83.24 203.21,-75.75 204.4,-86.28 210.71,-83.24"/>
</g>
<!-- Node15&#45;&gt;Node13 -->
<g id="edge22" class="edge">
<title>Node15&#45;&gt;Node13</title>
<path fill="none" stroke="midnightblue" d="M240.26,-112.32C255.22,-103.82 278.25,-90.73 295.73,-80.8"/>
<polygon fill="midnightblue" stroke="midnightblue" points="297.81,-83.64 304.77,-75.65 294.35,-77.55 297.81,-83.64"/>
</g>
<!-- Node16&#45;&gt;Node9 -->
<g id="edge25" class="edge">
<title>Node16&#45;&gt;Node9</title>
<path fill="none" stroke="midnightblue" d="M58.46,-112.44C88.17,-102.84 136.34,-87.26 167.84,-77.07"/>
<polygon fill="midnightblue" stroke="midnightblue" points="169,-80.38 177.44,-73.97 166.85,-73.72 169,-80.38"/>
</g>
<!-- Node17&#45;&gt;Node9 -->
<g id="edge27" class="edge">
<title>Node17&#45;&gt;Node9</title>
<path fill="none" stroke="midnightblue" d="M87.67,-168.45C100.47,-155.88 125.25,-131.78 147,-112 158.04,-101.96 170.7,-90.99 180.76,-82.4"/>
<polygon fill="midnightblue" stroke="midnightblue" points="183.16,-84.96 188.51,-75.82 178.62,-79.62 183.16,-84.96"/>
</g>
<!-- Node18&#45;&gt;Node7 -->
<g id="edge29" class="edge">
<title>Node18&#45;&gt;Node7</title>
<path fill="none" stroke="midnightblue" d="M484.59,-168.41C498.54,-160.91 516.75,-148.61 526,-132 542.47,-102.43 548.92,-84.72 531,-56 519,-36.77 496.14,-25.54 476.21,-19.1"/>
<polygon fill="midnightblue" stroke="midnightblue" points="477.01,-15.69 466.43,-16.23 475.04,-22.4 477.01,-15.69"/>
</g>
</g>
</svg>
        <g id="navigator" transform="translate(0 0)" fill="#404254">
                <rect fill="#f2f5e9" fill-opacity="0.5" stroke="#606060" stroke-width=".5" x="0" y="0" width="60" height="60"/>
                <use id="zoomplus" xlink:href="#zoomPlus" x="17" y="9" onmousedown="handleZoom(evt,'in')"/>
                <use id="zoomminus" xlink:href="#zoomMin" x="42" y="9" onmousedown="handleZoom(evt,'out')"/>
                <use id="reset" xlink:href="#resetDef" x="30" y="36" onmousedown="handleReset()"/>
                <g id="arrowUp" xlink:href="#dirArrow" transform="translate(30 24)" onmousedown="handlePan(0,-1)">
                  <use xlink:href="#rim" fill="#404040">
                        <set attributeName="fill" to="#808080" begin="arrowUp.mouseover" end="arrowUp.mouseout"/>
                  </use>
                  <path fill="none" stroke="white" stroke-width="1.5" d="M0,-3.0v7 M-2.5,-0.5L0,-3.0L2.5,-0.5"/>
                </g>
                <g id="arrowRight" xlink:href="#dirArrow" transform="rotate(90) translate(36 -43)" onmousedown="handlePan(1,0)">
                  <use xlink:href="#rim" fill="#404040">
                        <set attributeName="fill" to="#808080" begin="arrowRight.mouseover" end="arrowRight.mouseout"/>
                  </use>
                  <path fill="none" stroke="white" stroke-width="1.5" d="M0,-3.0v7 M-2.5,-0.5L0,-3.0L2.5,-0.5"/>
                </g>
                <g id="arrowDown" xlink:href="#dirArrow" transform="rotate(180) translate(-30 -48)" onmousedown="handlePan(0,1)">
                  <use xlink:href="#rim" fill="#404040">
                        <set attributeName="fill" to="#808080" begin="arrowDown.mouseover" end="arrowDown.mouseout"/>
                  </use>
                  <path fill="none" stroke="white" stroke-width="1.5" d="M0,-3.0v7 M-2.5,-0.5L0,-3.0L2.5,-0.5"/>
                </g>
                <g id="arrowLeft" xlink:href="#dirArrow" transform="rotate(270) translate(-36 17)" onmousedown="handlePan(-1,0)">
                  <use xlink:href="#rim" fill="#404040">
                        <set attributeName="fill" to="#808080" begin="arrowLeft.mouseover" end="arrowLeft.mouseout"/>
                  </use>
                  <path fill="none" stroke="white" stroke-width="1.5" d="M0,-3.0v7 M-2.5,-0.5L0,-3.0L2.5,-0.5"/>
                </g>
        </g>
        <svg viewBox="0 0 15 15" width="100%" height="30px" preserveAspectRatio="xMaxYMin meet">
         <g id="arrow_out" transform="scale(0.3 0.3)">
          <a xlink:href="menu_8cpp__incl_org.svg" target="_base">
           <rect id="button" ry="5" rx="5" y="6" x="6" height="38" width="38"
                fill="#f2f5e9" fill-opacity="0.5" stroke="#606060" stroke-width="1.0"/>
           <path id="arrow"
             d="M 11.500037,31.436501 C 11.940474,20.09759 22.043105,11.32322 32.158766,21.979434 L 37.068811,17.246167 C 37.068811,17.246167 37.088388,32 37.088388,32 L 22.160133,31.978069 C 22.160133,31.978069 26.997745,27.140456 26.997745,27.140456 C 18.528582,18.264221 13.291696,25.230495 11.500037,31.436501 z"
             style="fill:#404040;"/>
          </a>
         </g>
        </svg>
</svg>
