<?xml version="1.0" encoding="UTF-8" standalone="no"?>
<!DOCTYPE svg PUBLIC "-//W3C//DTD SVG 1.1//EN"
 "http://www.w3.org/Graphics/SVG/1.1/DTD/svg11.dtd">
<!-- Generated by graphviz version 2.49.3 (20211027.1534)
 -->
<!-- Title: src/menu.h Pages: 1 -->
<svg width="517pt" height="252pt"
 viewBox="0.00 0.00 516.98 252.00" xmlns="http://www.w3.org/2000/svg" xmlns:xlink="http://www.w3.org/1999/xlink">
<g id="graph0" class="graph" transform="scale(1 1) rotate(0) translate(4 248)">
<title>src/menu.h</title>
<!-- Node1 -->
<g id="node1" class="node">
<title>Node1</title>
<g id="a_node1"><a xlink:title=" ">
<polygon fill="#bfbfbf" stroke="black" points="109.48,-224.5 109.48,-243.5 174.48,-243.5 174.48,-224.5 109.48,-224.5"/>
<text text-anchor="middle" x="141.98" y="-231.5" font-family="Helvetica,sans-Serif" font-size="10.00">src/menu.h</text>
</a>
</g>
</g>
<!-- Node2 -->
<g id="node2" class="node">
<title>Node2</title>
<g id="a_node2"><a xlink:href="eshop_8h.html" target="_top" xlink:title=" ">
<polygon fill="none" stroke="black" points="299.98,-168.5 299.98,-187.5 349.98,-187.5 349.98,-168.5 299.98,-168.5"/>
<text text-anchor="middle" x="324.98" y="-175.5" font-family="Helvetica,sans-Serif" font-size="10.00">eshop.h</text>
</a>
</g>
</g>
<!-- Node1&#45;&gt;Node2 -->
<g id="edge1" class="edge">
<title>Node1&#45;&gt;Node2</title>
<path fill="none" stroke="midnightblue" d="M170.97,-224.44C203.35,-214.89 255.74,-199.43 290.27,-189.24"/>
<polygon fill="midnightblue" stroke="midnightblue" points="291.34,-192.58 299.94,-186.39 289.36,-185.86 291.34,-192.58"/>
</g>
<!-- Node5 -->
<g id="node5" class="node">
<title>Node5</title>
<g id="a_node5"><a xlink:href="item_8h.html" target="_top" xlink:title=" ">
<polygon fill="none" stroke="black" points="131.48,-56.5 131.48,-75.5 174.48,-75.5 174.48,-56.5 131.48,-56.5"/>
<text text-anchor="middle" x="152.98" y="-63.5" font-family="Helvetica,sans-Serif" font-size="10.00">item.h</text>
</a>
</g>
</g>
<!-- Node1&#45;&gt;Node5 -->
<g id="edge14" class="edge">
<title>Node1&#45;&gt;Node5</title>
<path fill="none" stroke="midnightblue" d="M109.29,-232.7C76.39,-230.42 27.15,-221.23 2.98,-188 -2.25,-180.81 1.53,-176.77 2.98,-168 7.26,-142.07 3.43,-130.62 21.98,-112 48.58,-85.3 91.72,-74.42 121.17,-70.01"/>
<polygon fill="midnightblue" stroke="midnightblue" points="121.89,-73.44 131.34,-68.65 120.97,-66.5 121.89,-73.44"/>
</g>
<!-- Node11 -->
<g id="node11" class="node">
<title>Node11</title>
<g id="a_node11"><a xlink:href="pen_8h.html" target="_top" xlink:title=" ">
<polygon fill="none" stroke="black" points="11.98,-168.5 11.98,-187.5 51.98,-187.5 51.98,-168.5 11.98,-168.5"/>
<text text-anchor="middle" x="31.98" y="-175.5" font-family="Helvetica,sans-Serif" font-size="10.00">pen.h</text>
</a>
</g>
</g>
<!-- Node1&#45;&gt;Node11 -->
<g id="edge15" class="edge">
<title>Node1&#45;&gt;Node11</title>
<path fill="none" stroke="midnightblue" d="M124.3,-224.32C106.58,-215.62 79.07,-202.12 58.69,-192.11"/>
<polygon fill="midnightblue" stroke="midnightblue" points="60.12,-188.92 49.61,-187.65 57.04,-195.2 60.12,-188.92"/>
</g>
<!-- Node12 -->
<g id="node12" class="node">
<title>Node12</title>
<g id="a_node12"><a xlink:href="pencil_8h.html" target="_top" xlink:title=" ">
<polygon fill="none" stroke="black" points="41.98,-112.5 41.98,-131.5 91.98,-131.5 91.98,-112.5 41.98,-112.5"/>
<text text-anchor="middle" x="66.98" y="-119.5" font-family="Helvetica,sans-Serif" font-size="10.00">pencil.h</text>
</a>
</g>
</g>
<!-- Node1&#45;&gt;Node12 -->
<g id="edge17" class="edge">
<title>Node1&#45;&gt;Node12</title>
<path fill="none" stroke="midnightblue" d="M136.09,-224.37C123.71,-206.22 94.8,-163.8 78.56,-139.99"/>
<polygon fill="midnightblue" stroke="midnightblue" points="81.36,-137.88 72.83,-131.59 75.58,-141.83 81.36,-137.88"/>
</g>
<!-- Node13 -->
<g id="node13" class="node">
<title>Node13</title>
<g id="a_node13"><a xlink:href="notebook_8h.html" target="_top" xlink:title=" ">
<polygon fill="none" stroke="black" points="109.98,-112.5 109.98,-131.5 173.98,-131.5 173.98,-112.5 109.98,-112.5"/>
<text text-anchor="middle" x="141.98" y="-119.5" font-family="Helvetica,sans-Serif" font-size="10.00">notebook.h</text>
</a>
</g>
</g>
<!-- Node1&#45;&gt;Node13 -->
<g id="edge20" class="edge">
<title>Node1&#45;&gt;Node13</title>
<path fill="none" stroke="midnightblue" d="M141.98,-224.37C141.98,-206.62 141.98,-165.67 141.98,-141.6"/>
<polygon fill="midnightblue" stroke="midnightblue" points="145.48,-141.59 141.98,-131.59 138.48,-141.59 145.48,-141.59"/>
</g>
<!-- Node14 -->
<g id="node14" class="node">
<title>Node14</title>
<g id="a_node14"><a xlink:href="paper_8h.html" target="_top" xlink:title=" ">
<polygon fill="none" stroke="black" points="173.98,-168.5 173.98,-187.5 221.98,-187.5 221.98,-168.5 173.98,-168.5"/>
<text text-anchor="middle" x="197.98" y="-175.5" font-family="Helvetica,sans-Serif" font-size="10.00">paper.h</text>
</a>
</g>
</g>
<!-- Node1&#45;&gt;Node14 -->
<g id="edge22" class="edge">
<title>Node1&#45;&gt;Node14</title>
<path fill="none" stroke="midnightblue" d="M150.97,-224.32C159.17,-216.42 171.48,-204.55 181.45,-194.94"/>
<polygon fill="midnightblue" stroke="midnightblue" points="184.05,-197.29 188.82,-187.83 179.19,-192.26 184.05,-197.29"/>
</g>
<!-- Node15 -->
<g id="node15" class="node">
<title>Node15</title>
<g id="a_node15"><a xlink:href="eshoperror_8h.html" target="_top" xlink:title=" ">
<polygon fill="none" stroke="black" points="438.98,-168.5 438.98,-187.5 508.98,-187.5 508.98,-168.5 438.98,-168.5"/>
<text text-anchor="middle" x="473.98" y="-175.5" font-family="Helvetica,sans-Serif" font-size="10.00">eshoperror.h</text>
</a>
</g>
</g>
<!-- Node1&#45;&gt;Node15 -->
<g id="edge24" class="edge">
<title>Node1&#45;&gt;Node15</title>
<path fill="none" stroke="midnightblue" d="M174.72,-227.67C234.39,-217.97 360.94,-197.39 428.78,-186.35"/>
<polygon fill="midnightblue" stroke="midnightblue" points="429.43,-189.79 438.74,-184.73 428.31,-182.88 429.43,-189.79"/>
</g>
<!-- Node3 -->
<g id="node3" class="node">
<title>Node3</title>
<g id="a_node3"><a xlink:title=" ">
<polygon fill="none" stroke="#bfbfbf" points="388.98,-0.5 388.98,-19.5 442.98,-19.5 442.98,-0.5 388.98,-0.5"/>
<text text-anchor="middle" x="415.98" y="-7.5" font-family="Helvetica,sans-Serif" font-size="10.00">iostream</text>
</a>
</g>
</g>
<!-- Node2&#45;&gt;Node3 -->
<g id="edge2" class="edge">
<title>Node2&#45;&gt;Node3</title>
<path fill="none" stroke="midnightblue" d="M350.08,-176.45C380.66,-174.27 431.15,-165.46 454.98,-132 478.12,-99.49 449.12,-52.55 430.09,-27.78"/>
<polygon fill="midnightblue" stroke="midnightblue" points="432.62,-25.34 423.64,-19.72 427.16,-29.71 432.62,-25.34"/>
</g>
<!-- Node4 -->
<g id="node4" class="node">
<title>Node4</title>
<g id="a_node4"><a xlink:title=" ">
<polygon fill="none" stroke="#bfbfbf" points="401.98,-112.5 401.98,-131.5 445.98,-131.5 445.98,-112.5 401.98,-112.5"/>
<text text-anchor="middle" x="423.98" y="-119.5" font-family="Helvetica,sans-Serif" font-size="10.00">vector</text>
</a>
</g>
</g>
<!-- Node2&#45;&gt;Node4 -->
<g id="edge3" class="edge">
<title>Node2&#45;&gt;Node4</title>
<path fill="none" stroke="midnightblue" d="M340.88,-168.32C356.61,-159.74 380.92,-146.49 399.19,-136.52"/>
<polygon fill="midnightblue" stroke="midnightblue" points="401.01,-139.52 408.11,-131.65 397.65,-133.37 401.01,-139.52"/>
</g>
<!-- Node2&#45;&gt;Node5 -->
<g id="edge4" class="edge">
<title>Node2&#45;&gt;Node5</title>
<path fill="none" stroke="midnightblue" d="M311.48,-168.37C281.96,-149.49 211.43,-104.38 175.24,-81.24"/>
<polygon fill="midnightblue" stroke="midnightblue" points="176.72,-78.03 166.41,-75.59 172.95,-83.93 176.72,-78.03"/>
</g>
<!-- Node6 -->
<g id="node6" class="node">
<title>Node6</title>
<g id="a_node6"><a xlink:href="owner_8h.html" target="_top" xlink:title=" ">
<polygon fill="none" stroke="black" points="333.98,-112.5 333.98,-131.5 383.98,-131.5 383.98,-112.5 333.98,-112.5"/>
<text text-anchor="middle" x="358.98" y="-119.5" font-family="Helvetica,sans-Serif" font-size="10.00">owner.h</text>
</a>
</g>
</g>
<!-- Node2&#45;&gt;Node6 -->
<g id="edge6" class="edge">
<title>Node2&#45;&gt;Node6</title>
<path fill="none" stroke="midnightblue" d="M330.59,-168.08C335.34,-160.53 342.29,-149.49 348.13,-140.23"/>
<polygon fill="midnightblue" stroke="midnightblue" points="351.1,-142.08 353.47,-131.75 345.18,-138.35 351.1,-142.08"/>
</g>
<!-- Node8 -->
<g id="node8" class="node">
<title>Node8</title>
<g id="a_node8"><a xlink:href="buyer_8h.html" target="_top" xlink:title=" ">
<polygon fill="none" stroke="black" points="268.48,-112.5 268.48,-131.5 315.48,-131.5 315.48,-112.5 268.48,-112.5"/>
<text text-anchor="middle" x="291.98" y="-119.5" font-family="Helvetica,sans-Serif" font-size="10.00">buyer.h</text>
</a>
</g>
</g>
<!-- Node2&#45;&gt;Node8 -->
<g id="edge9" class="edge">
<title>Node2&#45;&gt;Node8</title>
<path fill="none" stroke="midnightblue" d="M319.53,-168.08C314.96,-160.61 308.31,-149.72 302.68,-140.52"/>
<polygon fill="midnightblue" stroke="midnightblue" points="305.53,-138.46 297.32,-131.75 299.55,-142.11 305.53,-138.46"/>
</g>
<!-- Node5&#45;&gt;Node3 -->
<g id="edge5" class="edge">
<title>Node5&#45;&gt;Node3</title>
<path fill="none" stroke="midnightblue" d="M174.5,-60.58C219.31,-51.38 323.08,-30.07 378.89,-18.62"/>
<polygon fill="midnightblue" stroke="midnightblue" points="379.63,-22.04 388.72,-16.6 378.22,-15.18 379.63,-22.04"/>
</g>
<!-- Node7 -->
<g id="node7" class="node">
<title>Node7</title>
<g id="a_node7"><a xlink:href="user_8h.html" target="_top" xlink:title=" ">
<polygon fill="none" stroke="black" points="337.48,-56.5 337.48,-75.5 380.48,-75.5 380.48,-56.5 337.48,-56.5"/>
<text text-anchor="middle" x="358.98" y="-63.5" font-family="Helvetica,sans-Serif" font-size="10.00">user.h</text>
</a>
</g>
</g>
<!-- Node6&#45;&gt;Node7 -->
<g id="edge7" class="edge">
<title>Node6&#45;&gt;Node7</title>
<path fill="none" stroke="midnightblue" d="M358.98,-112.08C358.98,-105.01 358.98,-94.86 358.98,-85.99"/>
<polygon fill="midnightblue" stroke="midnightblue" points="362.48,-85.75 358.98,-75.75 355.48,-85.75 362.48,-85.75"/>
</g>
<!-- Node7&#45;&gt;Node3 -->
<g id="edge8" class="edge">
<title>Node7&#45;&gt;Node3</title>
<path fill="none" stroke="midnightblue" d="M368.13,-56.32C376.48,-48.42 389.01,-36.55 399.15,-26.94"/>
<polygon fill="midnightblue" stroke="midnightblue" points="401.8,-29.25 406.65,-19.83 396.98,-24.17 401.8,-29.25"/>
</g>
<!-- Node8&#45;&gt;Node5 -->
<g id="edge12" class="edge">
<title>Node8&#45;&gt;Node5</title>
<path fill="none" stroke="midnightblue" d="M269.95,-112.44C246.87,-103.48 210.41,-89.31 184.34,-79.18"/>
<polygon fill="midnightblue" stroke="midnightblue" points="185.49,-75.88 174.9,-75.52 182.95,-82.4 185.49,-75.88"/>
</g>
<!-- Node8&#45;&gt;Node7 -->
<g id="edge13" class="edge">
<title>Node8&#45;&gt;Node7</title>
<path fill="none" stroke="midnightblue" d="M302.74,-112.32C312.74,-104.26 327.86,-92.08 339.91,-82.37"/>
<polygon fill="midnightblue" stroke="midnightblue" points="342.43,-84.83 348.02,-75.83 338.03,-79.38 342.43,-84.83"/>
</g>
<!-- Node9 -->
<g id="node9" class="node">
<title>Node9</title>
<g id="a_node9"><a xlink:title=" ">
<polygon fill="none" stroke="#bfbfbf" points="276.98,-56.5 276.98,-75.5 306.98,-75.5 306.98,-56.5 276.98,-56.5"/>
<text text-anchor="middle" x="291.98" y="-63.5" font-family="Helvetica,sans-Serif" font-size="10.00">set</text>
</a>
</g>
</g>
<!-- Node8&#45;&gt;Node9 -->
<g id="edge10" class="edge">
<title>Node8&#45;&gt;Node9</title>
<path fill="none" stroke="midnightblue" d="M291.98,-112.08C291.98,-105.01 291.98,-94.86 291.98,-85.99"/>
<polygon fill="midnightblue" stroke="midnightblue" points="295.48,-85.75 291.98,-75.75 288.48,-85.75 295.48,-85.75"/>
</g>
<!-- Node10 -->
<g id="node10" class="node">
<title>Node10</title>
<g id="a_node10"><a xlink:title=" ">
<polygon fill="none" stroke="#bfbfbf" points="213.48,-56.5 213.48,-75.5 248.48,-75.5 248.48,-56.5 213.48,-56.5"/>
<text text-anchor="middle" x="230.98" y="-63.5" font-family="Helvetica,sans-Serif" font-size="10.00">map</text>
</a>
</g>
</g>
<!-- Node8&#45;&gt;Node10 -->
<g id="edge11" class="edge">
<title>Node8&#45;&gt;Node10</title>
<path fill="none" stroke="midnightblue" d="M282.18,-112.32C273.16,-104.34 259.57,-92.31 248.66,-82.65"/>
<polygon fill="midnightblue" stroke="midnightblue" points="250.76,-79.84 240.96,-75.83 246.12,-85.08 250.76,-79.84"/>
</g>
<!-- Node11&#45;&gt;Node5 -->
<g id="edge16" class="edge">
<title>Node11&#45;&gt;Node5</title>
<path fill="none" stroke="midnightblue" d="M29.33,-168.5C25.73,-155.13 21.02,-128.98 32.98,-112 52.86,-83.77 92.73,-73.23 121.05,-69.31"/>
<polygon fill="midnightblue" stroke="midnightblue" points="121.75,-72.75 131.27,-68.1 120.93,-65.8 121.75,-72.75"/>
</g>
<!-- Node12&#45;&gt;Node5 -->
<g id="edge19" class="edge">
<title>Node12&#45;&gt;Node5</title>
<path fill="none" stroke="midnightblue" d="M80.79,-112.32C94.21,-103.9 114.8,-90.97 130.56,-81.07"/>
<polygon fill="midnightblue" stroke="midnightblue" points="132.59,-83.94 139.19,-75.65 128.86,-78.01 132.59,-83.94"/>
</g>
<!-- Node12&#45;&gt;Node10 -->
<g id="edge18" class="edge">
<title>Node12&#45;&gt;Node10</title>
<path fill="none" stroke="midnightblue" d="M92.24,-112.68C122.27,-102.79 172.21,-86.35 203.27,-76.12"/>
<polygon fill="midnightblue" stroke="midnightblue" points="204.62,-79.36 213.03,-72.91 202.43,-72.71 204.62,-79.36"/>
</g>
<!-- Node13&#45;&gt;Node5 -->
<g id="edge21" class="edge">
<title>Node13&#45;&gt;Node5</title>
<path fill="none" stroke="midnightblue" d="M143.79,-112.08C145.25,-104.93 147.35,-94.64 149.17,-85.69"/>
<polygon fill="midnightblue" stroke="midnightblue" points="152.63,-86.25 151.19,-75.75 145.77,-84.85 152.63,-86.25"/>
</g>
<!-- Node14&#45;&gt;Node5 -->
<g id="edge23" class="edge">
<title>Node14&#45;&gt;Node5</title>
<path fill="none" stroke="midnightblue" d="M196.98,-168.28C195.3,-155.5 191.24,-131.14 182.98,-112 178.71,-102.1 172.23,-92.03 166.39,-83.94"/>
<polygon fill="midnightblue" stroke="midnightblue" points="169.03,-81.62 160.22,-75.75 163.44,-85.84 169.03,-81.62"/>
</g>
<!-- Node15&#45;&gt;Node3 -->
<g id="edge25" class="edge">
<title>Node15&#45;&gt;Node3</title>
<path fill="none" stroke="midnightblue" d="M478.2,-168.42C487.79,-147.63 508.79,-93.55 487.98,-56 479.89,-41.41 464.87,-30.92 450.64,-23.76"/>
<polygon fill="midnightblue" stroke="midnightblue" points="452.03,-20.55 441.48,-19.53 449.09,-26.9 452.03,-20.55"/>
</g>
</g>
</svg>
