<?xml version="1.0" encoding="UTF-8" standalone="no"?>
<!DOCTYPE svg PUBLIC "-//W3C//DTD SVG 1.1//EN"
 "http://www.w3.org/Graphics/SVG/1.1/DTD/svg11.dtd">
<!-- Generated by graphviz version 2.49.3 (20211027.1534)
 -->
<!-- Title: src/owner.cpp Pages: 1 -->
<svg width="85pt" height="196pt"
 viewBox="0.00 0.00 85.00 196.00" xmlns="http://www.w3.org/2000/svg" xmlns:xlink="http://www.w3.org/1999/xlink">
<g id="graph0" class="graph" transform="scale(1 1) rotate(0) translate(4 192)">
<title>src/owner.cpp</title>
<!-- Node1 -->
<g id="node1" class="node">
<title>Node1</title>
<g id="a_node1"><a xlink:title=" ">
<polygon fill="#bfbfbf" stroke="black" points="0,-168.5 0,-187.5 77,-187.5 77,-168.5 0,-168.5"/>
<text text-anchor="middle" x="38.5" y="-175.5" font-family="Helvetica,sans-Serif" font-size="10.00">src/owner.cpp</text>
</a>
</g>
</g>
<!-- Node2 -->
<g id="node2" class="node">
<title>Node2</title>
<g id="a_node2"><a xlink:href="owner_8h.html" target="_top" xlink:title=" ">
<polygon fill="none" stroke="black" points="13.5,-112.5 13.5,-131.5 63.5,-131.5 63.5,-112.5 13.5,-112.5"/>
<text text-anchor="middle" x="38.5" y="-119.5" font-family="Helvetica,sans-Serif" font-size="10.00">owner.h</text>
</a>
</g>
</g>
<!-- Node1&#45;&gt;Node2 -->
<g id="edge1" class="edge">
<title>Node1&#45;&gt;Node2</title>
<path fill="none" stroke="midnightblue" d="M38.5,-168.08C38.5,-161.01 38.5,-150.86 38.5,-141.99"/>
<polygon fill="midnightblue" stroke="midnightblue" points="42,-141.75 38.5,-131.75 35,-141.75 42,-141.75"/>
</g>
<!-- Node3 -->
<g id="node3" class="node">
<title>Node3</title>
<g id="a_node3"><a xlink:href="user_8h.html" target="_top" xlink:title=" ">
<polygon fill="none" stroke="black" points="17,-56.5 17,-75.5 60,-75.5 60,-56.5 17,-56.5"/>
<text text-anchor="middle" x="38.5" y="-63.5" font-family="Helvetica,sans-Serif" font-size="10.00">user.h</text>
</a>
</g>
</g>
<!-- Node2&#45;&gt;Node3 -->
<g id="edge2" class="edge">
<title>Node2&#45;&gt;Node3</title>
<path fill="none" stroke="midnightblue" d="M38.5,-112.08C38.5,-105.01 38.5,-94.86 38.5,-85.99"/>
<polygon fill="midnightblue" stroke="midnightblue" points="42,-85.75 38.5,-75.75 35,-85.75 42,-85.75"/>
</g>
<!-- Node4 -->
<g id="node4" class="node">
<title>Node4</title>
<g id="a_node4"><a xlink:title=" ">
<polygon fill="none" stroke="#bfbfbf" points="11.5,-0.5 11.5,-19.5 65.5,-19.5 65.5,-0.5 11.5,-0.5"/>
<text text-anchor="middle" x="38.5" y="-7.5" font-family="Helvetica,sans-Serif" font-size="10.00">iostream</text>
</a>
</g>
</g>
<!-- Node3&#45;&gt;Node4 -->
<g id="edge3" class="edge">
<title>Node3&#45;&gt;Node4</title>
<path fill="none" stroke="midnightblue" d="M38.5,-56.08C38.5,-49.01 38.5,-38.86 38.5,-29.99"/>
<polygon fill="midnightblue" stroke="midnightblue" points="42,-29.75 38.5,-19.75 35,-29.75 42,-29.75"/>
</g>
</g>
</svg>
