<?xml version="1.0" encoding="UTF-8" standalone="no"?>
<!DOCTYPE svg PUBLIC "-//W3C//DTD SVG 1.1//EN"
 "http://www.w3.org/Graphics/SVG/1.1/DTD/svg11.dtd">
<!-- Generated by graphviz version 2.49.3 (20211027.1534)
 -->
<!-- Title: src/owner.h Pages: 1 -->
<svg width="219pt" height="196pt"
 viewBox="0.00 0.00 219.00 196.00" xmlns="http://www.w3.org/2000/svg" xmlns:xlink="http://www.w3.org/1999/xlink">
<g id="graph0" class="graph" transform="scale(1 1) rotate(0) translate(4 192)">
<title>src/owner.h</title>
<!-- Node1 -->
<g id="node1" class="node">
<title>Node1</title>
<g id="a_node1"><a xlink:title=" ">
<polygon fill="#bfbfbf" stroke="black" points="94,-168.5 94,-187.5 161,-187.5 161,-168.5 94,-168.5"/>
<text text-anchor="middle" x="127.5" y="-175.5" font-family="Helvetica,sans-Serif" font-size="10.00">src/owner.h</text>
</a>
</g>
</g>
<!-- Node2 -->
<g id="node2" class="node">
<title>Node2</title>
<g id="a_node2"><a xlink:href="eshop_8h.html" target="_top" xlink:title=" ">
<polygon fill="none" stroke="black" points="49,-112.5 49,-131.5 116,-131.5 116,-112.5 49,-112.5"/>
<text text-anchor="middle" x="82.5" y="-119.5" font-family="Helvetica,sans-Serif" font-size="10.00">src/eshop.h</text>
</a>
</g>
</g>
<!-- Node1&#45;&gt;Node2 -->
<g id="edge1" class="edge">
<title>Node1&#45;&gt;Node2</title>
<path fill="none" stroke="midnightblue" d="M113.45,-160.14C105.61,-150.74 96.17,-139.4 89.79,-131.75"/>
<polygon fill="midnightblue" stroke="midnightblue" points="110.98,-162.64 120.07,-168.08 116.36,-158.16 110.98,-162.64"/>
</g>
<!-- Node7 -->
<g id="node7" class="node">
<title>Node7</title>
<g id="a_node7"><a xlink:href="owner_8cpp.html" target="_top" xlink:title=" ">
<polygon fill="none" stroke="black" points="134,-112.5 134,-131.5 211,-131.5 211,-112.5 134,-112.5"/>
<text text-anchor="middle" x="172.5" y="-119.5" font-family="Helvetica,sans-Serif" font-size="10.00">src/owner.cpp</text>
</a>
</g>
</g>
<!-- Node1&#45;&gt;Node7 -->
<g id="edge6" class="edge">
<title>Node1&#45;&gt;Node7</title>
<path fill="none" stroke="midnightblue" d="M141.55,-160.14C149.39,-150.74 158.83,-139.4 165.21,-131.75"/>
<polygon fill="midnightblue" stroke="midnightblue" points="138.64,-158.16 134.93,-168.08 144.02,-162.64 138.64,-158.16"/>
</g>
<!-- Node3 -->
<g id="node3" class="node">
<title>Node3</title>
<g id="a_node3"><a xlink:href="eshop_8cpp.html" target="_top" xlink:title=" ">
<polygon fill="none" stroke="black" points="0,-56.5 0,-75.5 77,-75.5 77,-56.5 0,-56.5"/>
<text text-anchor="middle" x="38.5" y="-63.5" font-family="Helvetica,sans-Serif" font-size="10.00">src/eshop.cpp</text>
</a>
</g>
</g>
<!-- Node2&#45;&gt;Node3 -->
<g id="edge2" class="edge">
<title>Node2&#45;&gt;Node3</title>
<path fill="none" stroke="midnightblue" d="M68.77,-104.14C61.1,-94.74 51.87,-83.4 45.63,-75.75"/>
<polygon fill="midnightblue" stroke="midnightblue" points="66.2,-106.54 75.23,-112.08 71.63,-102.12 66.2,-106.54"/>
</g>
<!-- Node4 -->
<g id="node4" class="node">
<title>Node4</title>
<g id="a_node4"><a xlink:href="menu_8h.html" target="_top" xlink:title=" ">
<polygon fill="none" stroke="black" points="95,-56.5 95,-75.5 160,-75.5 160,-56.5 95,-56.5"/>
<text text-anchor="middle" x="127.5" y="-63.5" font-family="Helvetica,sans-Serif" font-size="10.00">src/menu.h</text>
</a>
</g>
</g>
<!-- Node2&#45;&gt;Node4 -->
<g id="edge3" class="edge">
<title>Node2&#45;&gt;Node4</title>
<path fill="none" stroke="midnightblue" d="M96.55,-104.14C104.39,-94.74 113.83,-83.4 120.21,-75.75"/>
<polygon fill="midnightblue" stroke="midnightblue" points="93.64,-102.16 89.93,-112.08 99.02,-106.64 93.64,-102.16"/>
</g>
<!-- Node5 -->
<g id="node5" class="node">
<title>Node5</title>
<g id="a_node5"><a xlink:href="main_8cpp.html" target="_top" xlink:title=" ">
<polygon fill="none" stroke="black" points="45.5,-0.5 45.5,-19.5 117.5,-19.5 117.5,-0.5 45.5,-0.5"/>
<text text-anchor="middle" x="81.5" y="-7.5" font-family="Helvetica,sans-Serif" font-size="10.00">src/main.cpp</text>
</a>
</g>
</g>
<!-- Node4&#45;&gt;Node5 -->
<g id="edge4" class="edge">
<title>Node4&#45;&gt;Node5</title>
<path fill="none" stroke="midnightblue" d="M113.39,-48.43C105.32,-38.97 95.54,-27.48 88.95,-19.75"/>
<polygon fill="midnightblue" stroke="midnightblue" points="110.75,-50.74 119.9,-56.08 116.08,-46.2 110.75,-50.74"/>
</g>
<!-- Node6 -->
<g id="node6" class="node">
<title>Node6</title>
<g id="a_node6"><a xlink:href="menu_8cpp.html" target="_top" xlink:title=" ">
<polygon fill="none" stroke="black" points="136,-0.5 136,-19.5 211,-19.5 211,-0.5 136,-0.5"/>
<text text-anchor="middle" x="173.5" y="-7.5" font-family="Helvetica,sans-Serif" font-size="10.00">src/menu.cpp</text>
</a>
</g>
</g>
<!-- Node4&#45;&gt;Node6 -->
<g id="edge5" class="edge">
<title>Node4&#45;&gt;Node6</title>
<path fill="none" stroke="midnightblue" d="M141.61,-48.43C149.68,-38.97 159.46,-27.48 166.05,-19.75"/>
<polygon fill="midnightblue" stroke="midnightblue" points="138.92,-46.2 135.1,-56.08 144.25,-50.74 138.92,-46.2"/>
</g>
</g>
</svg>
