<?xml version="1.0" encoding="UTF-8" standalone="no"?>
<!DOCTYPE svg PUBLIC "-//W3C//DTD SVG 1.1//EN"
 "http://www.w3.org/Graphics/SVG/1.1/DTD/svg11.dtd">
<!-- Generated by graphviz version 2.49.3 (20211027.1534)
 -->
<!-- Title: src/pen.cpp Pages: 1 -->
<svg width="123pt" height="196pt"
 viewBox="0.00 0.00 123.00 196.00" xmlns="http://www.w3.org/2000/svg" xmlns:xlink="http://www.w3.org/1999/xlink">
<g id="graph0" class="graph" transform="scale(1 1) rotate(0) translate(4 192)">
<title>src/pen.cpp</title>
<!-- Node1 -->
<g id="node1" class="node">
<title>Node1</title>
<g id="a_node1"><a xlink:title=" ">
<polygon fill="#bfbfbf" stroke="black" points="22.5,-168.5 22.5,-187.5 89.5,-187.5 89.5,-168.5 22.5,-168.5"/>
<text text-anchor="middle" x="56" y="-175.5" font-family="Helvetica,sans-Serif" font-size="10.00">src/pen.cpp</text>
</a>
</g>
</g>
<!-- Node2 -->
<g id="node2" class="node">
<title>Node2</title>
<g id="a_node2"><a xlink:title=" ">
<polygon fill="none" stroke="#bfbfbf" points="0,-112.5 0,-131.5 50,-131.5 50,-112.5 0,-112.5"/>
<text text-anchor="middle" x="25" y="-119.5" font-family="Helvetica,sans-Serif" font-size="10.00">typeinfo</text>
</a>
</g>
</g>
<!-- Node1&#45;&gt;Node2 -->
<g id="edge1" class="edge">
<title>Node1&#45;&gt;Node2</title>
<path fill="none" stroke="midnightblue" d="M50.88,-168.08C46.59,-160.61 40.34,-149.72 35.06,-140.52"/>
<polygon fill="midnightblue" stroke="midnightblue" points="38.04,-138.68 30.02,-131.75 31.97,-142.17 38.04,-138.68"/>
</g>
<!-- Node3 -->
<g id="node3" class="node">
<title>Node3</title>
<g id="a_node3"><a xlink:href="pen_8h.html" target="_top" xlink:title=" ">
<polygon fill="none" stroke="black" points="68,-112.5 68,-131.5 108,-131.5 108,-112.5 68,-112.5"/>
<text text-anchor="middle" x="88" y="-119.5" font-family="Helvetica,sans-Serif" font-size="10.00">pen.h</text>
</a>
</g>
</g>
<!-- Node1&#45;&gt;Node3 -->
<g id="edge2" class="edge">
<title>Node1&#45;&gt;Node3</title>
<path fill="none" stroke="midnightblue" d="M61.28,-168.08C65.71,-160.61 72.16,-149.72 77.62,-140.52"/>
<polygon fill="midnightblue" stroke="midnightblue" points="80.73,-142.14 82.81,-131.75 74.71,-138.57 80.73,-142.14"/>
</g>
<!-- Node4 -->
<g id="node4" class="node">
<title>Node4</title>
<g id="a_node4"><a xlink:href="item_8h.html" target="_top" xlink:title=" ">
<polygon fill="none" stroke="black" points="66.5,-56.5 66.5,-75.5 109.5,-75.5 109.5,-56.5 66.5,-56.5"/>
<text text-anchor="middle" x="88" y="-63.5" font-family="Helvetica,sans-Serif" font-size="10.00">item.h</text>
</a>
</g>
</g>
<!-- Node3&#45;&gt;Node4 -->
<g id="edge3" class="edge">
<title>Node3&#45;&gt;Node4</title>
<path fill="none" stroke="midnightblue" d="M88,-112.08C88,-105.01 88,-94.86 88,-85.99"/>
<polygon fill="midnightblue" stroke="midnightblue" points="91.5,-85.75 88,-75.75 84.5,-85.75 91.5,-85.75"/>
</g>
<!-- Node5 -->
<g id="node5" class="node">
<title>Node5</title>
<g id="a_node5"><a xlink:title=" ">
<polygon fill="none" stroke="#bfbfbf" points="61,-0.5 61,-19.5 115,-19.5 115,-0.5 61,-0.5"/>
<text text-anchor="middle" x="88" y="-7.5" font-family="Helvetica,sans-Serif" font-size="10.00">iostream</text>
</a>
</g>
</g>
<!-- Node4&#45;&gt;Node5 -->
<g id="edge4" class="edge">
<title>Node4&#45;&gt;Node5</title>
<path fill="none" stroke="midnightblue" d="M88,-56.08C88,-49.01 88,-38.86 88,-29.99"/>
<polygon fill="midnightblue" stroke="midnightblue" points="91.5,-29.75 88,-19.75 84.5,-29.75 91.5,-29.75"/>
</g>
</g>
</svg>
