<?xml version="1.0" encoding="UTF-8" standalone="no"?>
<!DOCTYPE svg PUBLIC "-//W3C//DTD SVG 1.1//EN"
 "http://www.w3.org/Graphics/SVG/1.1/DTD/svg11.dtd">
<!-- Generated by graphviz version 2.49.3 (20211027.1534)
 -->
<!-- Title: src/shoppingcart.cpp Pages: 1 -->
<svg width="301pt" height="252pt"
 viewBox="0.00 0.00 300.50 252.00" xmlns="http://www.w3.org/2000/svg" xmlns:xlink="http://www.w3.org/1999/xlink">
<g id="graph0" class="graph" transform="scale(1 1) rotate(0) translate(4 248)">
<title>src/shoppingcart.cpp</title>
<!-- Node1 -->
<g id="node1" class="node">
<title>Node1</title>
<g id="a_node1"><a xlink:title=" ">
<polygon fill="#bfbfbf" stroke="black" points="18.5,-224.5 18.5,-243.5 125.5,-243.5 125.5,-224.5 18.5,-224.5"/>
<text text-anchor="middle" x="72" y="-231.5" font-family="Helvetica,sans-Serif" font-size="10.00">src/shoppingcart.cpp</text>
</a>
</g>
</g>
<!-- Node2 -->
<g id="node2" class="node">
<title>Node2</title>
<g id="a_node2"><a xlink:title=" ">
<polygon fill="none" stroke="#bfbfbf" points="0,-168.5 0,-187.5 44,-187.5 44,-168.5 0,-168.5"/>
<text text-anchor="middle" x="22" y="-175.5" font-family="Helvetica,sans-Serif" font-size="10.00">vector</text>
</a>
</g>
</g>
<!-- Node1&#45;&gt;Node2 -->
<g id="edge1" class="edge">
<title>Node1&#45;&gt;Node2</title>
<path fill="none" stroke="midnightblue" d="M63.74,-224.08C56.54,-216.3 45.89,-204.8 37.15,-195.37"/>
<polygon fill="midnightblue" stroke="midnightblue" points="39.47,-192.71 30.1,-187.75 34.33,-197.47 39.47,-192.71"/>
</g>
<!-- Node3 -->
<g id="node3" class="node">
<title>Node3</title>
<g id="a_node3"><a xlink:href="shoppingcart_8h.html" target="_top" xlink:title=" ">
<polygon fill="none" stroke="black" points="116,-168.5 116,-187.5 196,-187.5 196,-168.5 116,-168.5"/>
<text text-anchor="middle" x="156" y="-175.5" font-family="Helvetica,sans-Serif" font-size="10.00">shoppingcart.h</text>
</a>
</g>
</g>
<!-- Node1&#45;&gt;Node3 -->
<g id="edge2" class="edge">
<title>Node1&#45;&gt;Node3</title>
<path fill="none" stroke="midnightblue" d="M85.5,-224.32C98.6,-215.9 118.71,-202.97 134.11,-193.07"/>
<polygon fill="midnightblue" stroke="midnightblue" points="136.02,-196.01 142.54,-187.65 132.23,-190.12 136.02,-196.01"/>
</g>
<!-- Node10 -->
<g id="node10" class="node">
<title>Node10</title>
<g id="a_node10"><a xlink:href="eshoperror_8h.html" target="_top" xlink:title=" ">
<polygon fill="none" stroke="black" points="20,-112.5 20,-131.5 90,-131.5 90,-112.5 20,-112.5"/>
<text text-anchor="middle" x="55" y="-119.5" font-family="Helvetica,sans-Serif" font-size="10.00">eshoperror.h</text>
</a>
</g>
</g>
<!-- Node1&#45;&gt;Node10 -->
<g id="edge13" class="edge">
<title>Node1&#45;&gt;Node10</title>
<path fill="none" stroke="midnightblue" d="M70.67,-224.37C67.92,-206.62 61.59,-165.67 57.87,-141.6"/>
<polygon fill="midnightblue" stroke="midnightblue" points="61.31,-140.94 56.33,-131.59 54.4,-142.01 61.31,-140.94"/>
</g>
<!-- Node4 -->
<g id="node4" class="node">
<title>Node4</title>
<g id="a_node4"><a xlink:title=" ">
<polygon fill="none" stroke="#bfbfbf" points="87,-56.5 87,-75.5 117,-75.5 117,-56.5 87,-56.5"/>
<text text-anchor="middle" x="102" y="-63.5" font-family="Helvetica,sans-Serif" font-size="10.00">set</text>
</a>
</g>
</g>
<!-- Node3&#45;&gt;Node4 -->
<g id="edge3" class="edge">
<title>Node3&#45;&gt;Node4</title>
<path fill="none" stroke="midnightblue" d="M151.76,-168.37C142.93,-150.38 122.4,-108.55 110.65,-84.63"/>
<polygon fill="midnightblue" stroke="midnightblue" points="113.77,-83.03 106.22,-75.59 107.48,-86.11 113.77,-83.03"/>
</g>
<!-- Node5 -->
<g id="node5" class="node">
<title>Node5</title>
<g id="a_node5"><a xlink:title=" ">
<polygon fill="none" stroke="#bfbfbf" points="135.5,-56.5 135.5,-75.5 170.5,-75.5 170.5,-56.5 135.5,-56.5"/>
<text text-anchor="middle" x="153" y="-63.5" font-family="Helvetica,sans-Serif" font-size="10.00">map</text>
</a>
</g>
</g>
<!-- Node3&#45;&gt;Node5 -->
<g id="edge4" class="edge">
<title>Node3&#45;&gt;Node5</title>
<path fill="none" stroke="midnightblue" d="M155.76,-168.37C155.28,-150.62 154.16,-109.67 153.51,-85.6"/>
<polygon fill="midnightblue" stroke="midnightblue" points="157.01,-85.49 153.23,-75.59 150.01,-85.68 157.01,-85.49"/>
</g>
<!-- Node6 -->
<g id="node6" class="node">
<title>Node6</title>
<g id="a_node6"><a xlink:href="item_8h.html" target="_top" xlink:title=" ">
<polygon fill="none" stroke="black" points="249.5,-56.5 249.5,-75.5 292.5,-75.5 292.5,-56.5 249.5,-56.5"/>
<text text-anchor="middle" x="271" y="-63.5" font-family="Helvetica,sans-Serif" font-size="10.00">item.h</text>
</a>
</g>
</g>
<!-- Node3&#45;&gt;Node6 -->
<g id="edge5" class="edge">
<title>Node3&#45;&gt;Node6</title>
<path fill="none" stroke="midnightblue" d="M181.86,-168.42C200.33,-161.18 224.7,-149.22 241,-132 253.53,-118.77 261.55,-99.37 266.11,-85.21"/>
<polygon fill="midnightblue" stroke="midnightblue" points="269.48,-86.17 268.95,-75.59 262.76,-84.19 269.48,-86.17"/>
</g>
<!-- Node8 -->
<g id="node8" class="node">
<title>Node8</title>
<g id="a_node8"><a xlink:href="buyer_8h.html" target="_top" xlink:title=" ">
<polygon fill="none" stroke="black" points="184.5,-112.5 184.5,-131.5 231.5,-131.5 231.5,-112.5 184.5,-112.5"/>
<text text-anchor="middle" x="208" y="-119.5" font-family="Helvetica,sans-Serif" font-size="10.00">buyer.h</text>
</a>
</g>
</g>
<!-- Node3&#45;&gt;Node8 -->
<g id="edge7" class="edge">
<title>Node3&#45;&gt;Node8</title>
<path fill="none" stroke="midnightblue" d="M164.59,-168.08C172.16,-160.22 183.38,-148.57 192.51,-139.08"/>
<polygon fill="midnightblue" stroke="midnightblue" points="195.16,-141.38 199.57,-131.75 190.12,-136.53 195.16,-141.38"/>
</g>
<!-- Node7 -->
<g id="node7" class="node">
<title>Node7</title>
<g id="a_node7"><a xlink:title=" ">
<polygon fill="none" stroke="#bfbfbf" points="183,-0.5 183,-19.5 237,-19.5 237,-0.5 183,-0.5"/>
<text text-anchor="middle" x="210" y="-7.5" font-family="Helvetica,sans-Serif" font-size="10.00">iostream</text>
</a>
</g>
</g>
<!-- Node6&#45;&gt;Node7 -->
<g id="edge6" class="edge">
<title>Node6&#45;&gt;Node7</title>
<path fill="none" stroke="midnightblue" d="M261.2,-56.32C252.18,-48.34 238.59,-36.31 227.68,-26.65"/>
<polygon fill="midnightblue" stroke="midnightblue" points="229.79,-23.84 219.98,-19.83 225.15,-29.08 229.79,-23.84"/>
</g>
<!-- Node8&#45;&gt;Node4 -->
<g id="edge8" class="edge">
<title>Node8&#45;&gt;Node4</title>
<path fill="none" stroke="midnightblue" d="M190.97,-112.32C173.47,-103.41 146.06,-89.44 126.28,-79.37"/>
<polygon fill="midnightblue" stroke="midnightblue" points="127.77,-76.2 117.27,-74.78 124.59,-82.44 127.77,-76.2"/>
</g>
<!-- Node8&#45;&gt;Node5 -->
<g id="edge9" class="edge">
<title>Node8&#45;&gt;Node5</title>
<path fill="none" stroke="midnightblue" d="M198.92,-112.08C190.83,-104.14 178.8,-92.34 169.09,-82.8"/>
<polygon fill="midnightblue" stroke="midnightblue" points="171.5,-80.26 161.91,-75.75 166.6,-85.25 171.5,-80.26"/>
</g>
<!-- Node8&#45;&gt;Node6 -->
<g id="edge10" class="edge">
<title>Node8&#45;&gt;Node6</title>
<path fill="none" stroke="midnightblue" d="M218.12,-112.32C227.53,-104.26 241.74,-92.08 253.07,-82.37"/>
<polygon fill="midnightblue" stroke="midnightblue" points="255.38,-85 260.69,-75.83 250.82,-79.68 255.38,-85"/>
</g>
<!-- Node9 -->
<g id="node9" class="node">
<title>Node9</title>
<g id="a_node9"><a xlink:href="user_8h.html" target="_top" xlink:title=" ">
<polygon fill="none" stroke="black" points="188.5,-56.5 188.5,-75.5 231.5,-75.5 231.5,-56.5 188.5,-56.5"/>
<text text-anchor="middle" x="210" y="-63.5" font-family="Helvetica,sans-Serif" font-size="10.00">user.h</text>
</a>
</g>
</g>
<!-- Node8&#45;&gt;Node9 -->
<g id="edge11" class="edge">
<title>Node8&#45;&gt;Node9</title>
<path fill="none" stroke="midnightblue" d="M208.33,-112.08C208.59,-105.01 208.97,-94.86 209.3,-85.99"/>
<polygon fill="midnightblue" stroke="midnightblue" points="212.8,-85.87 209.68,-75.75 205.81,-85.61 212.8,-85.87"/>
</g>
<!-- Node9&#45;&gt;Node7 -->
<g id="edge12" class="edge">
<title>Node9&#45;&gt;Node7</title>
<path fill="none" stroke="midnightblue" d="M210,-56.08C210,-49.01 210,-38.86 210,-29.99"/>
<polygon fill="midnightblue" stroke="midnightblue" points="213.5,-29.75 210,-19.75 206.5,-29.75 213.5,-29.75"/>
</g>
<!-- Node10&#45;&gt;Node7 -->
<g id="edge14" class="edge">
<title>Node10&#45;&gt;Node7</title>
<path fill="none" stroke="midnightblue" d="M55.72,-112.14C57.31,-98.29 62.34,-71.48 78,-56 103.38,-30.91 143.29,-19.8 172.59,-14.88"/>
<polygon fill="midnightblue" stroke="midnightblue" points="173.49,-18.28 182.86,-13.33 172.45,-11.36 173.49,-18.28"/>
</g>
</g>
</svg>
