<?xml version="1.0" encoding="UTF-8" standalone="no"?>
<!DOCTYPE svg PUBLIC "-//W3C//DTD SVG 1.1//EN"
 "http://www.w3.org/Graphics/SVG/1.1/DTD/svg11.dtd">
<!-- Generated by graphviz version 2.49.3 (20211027.1534)
 -->
<!-- Title: src/shoppingcart.h Pages: 1 -->
<svg width="214pt" height="196pt"
 viewBox="0.00 0.00 213.50 196.00" xmlns="http://www.w3.org/2000/svg" xmlns:xlink="http://www.w3.org/1999/xlink">
<g id="graph0" class="graph" transform="scale(1 1) rotate(0) translate(4 192)">
<title>src/shoppingcart.h</title>
<!-- Node1 -->
<g id="node1" class="node">
<title>Node1</title>
<g id="a_node1"><a xlink:title=" ">
<polygon fill="#bfbfbf" stroke="black" points="44,-168.5 44,-187.5 140,-187.5 140,-168.5 44,-168.5"/>
<text text-anchor="middle" x="92" y="-175.5" font-family="Helvetica,sans-Serif" font-size="10.00">src/shoppingcart.h</text>
</a>
</g>
</g>
<!-- Node2 -->
<g id="node2" class="node">
<title>Node2</title>
<g id="a_node2"><a xlink:title=" ">
<polygon fill="none" stroke="#bfbfbf" points="0,-56.5 0,-75.5 30,-75.5 30,-56.5 0,-56.5"/>
<text text-anchor="middle" x="15" y="-63.5" font-family="Helvetica,sans-Serif" font-size="10.00">set</text>
</a>
</g>
</g>
<!-- Node1&#45;&gt;Node2 -->
<g id="edge1" class="edge">
<title>Node1&#45;&gt;Node2</title>
<path fill="none" stroke="midnightblue" d="M85.96,-168.37C73.25,-150.22 43.56,-107.8 26.89,-83.99"/>
<polygon fill="midnightblue" stroke="midnightblue" points="29.62,-81.78 21.01,-75.59 23.88,-85.79 29.62,-81.78"/>
</g>
<!-- Node3 -->
<g id="node3" class="node">
<title>Node3</title>
<g id="a_node3"><a xlink:title=" ">
<polygon fill="none" stroke="#bfbfbf" points="48.5,-56.5 48.5,-75.5 83.5,-75.5 83.5,-56.5 48.5,-56.5"/>
<text text-anchor="middle" x="66" y="-63.5" font-family="Helvetica,sans-Serif" font-size="10.00">map</text>
</a>
</g>
</g>
<!-- Node1&#45;&gt;Node3 -->
<g id="edge2" class="edge">
<title>Node1&#45;&gt;Node3</title>
<path fill="none" stroke="midnightblue" d="M89.96,-168.37C85.76,-150.62 76.08,-109.67 70.4,-85.6"/>
<polygon fill="midnightblue" stroke="midnightblue" points="73.74,-84.52 68.03,-75.59 66.92,-86.13 73.74,-84.52"/>
</g>
<!-- Node4 -->
<g id="node4" class="node">
<title>Node4</title>
<g id="a_node4"><a xlink:href="item_8h.html" target="_top" xlink:title=" ">
<polygon fill="none" stroke="black" points="162.5,-56.5 162.5,-75.5 205.5,-75.5 205.5,-56.5 162.5,-56.5"/>
<text text-anchor="middle" x="184" y="-63.5" font-family="Helvetica,sans-Serif" font-size="10.00">item.h</text>
</a>
</g>
</g>
<!-- Node1&#45;&gt;Node4 -->
<g id="edge3" class="edge">
<title>Node1&#45;&gt;Node4</title>
<path fill="none" stroke="midnightblue" d="M106.84,-168.36C119.77,-160.26 138.39,-147.14 151,-132 162.75,-117.9 171.78,-98.91 177.4,-85.1"/>
<polygon fill="midnightblue" stroke="midnightblue" points="180.68,-86.31 181.02,-75.72 174.15,-83.79 180.68,-86.31"/>
</g>
<!-- Node6 -->
<g id="node6" class="node">
<title>Node6</title>
<g id="a_node6"><a xlink:href="buyer_8h.html" target="_top" xlink:title=" ">
<polygon fill="none" stroke="black" points="94.5,-112.5 94.5,-131.5 141.5,-131.5 141.5,-112.5 94.5,-112.5"/>
<text text-anchor="middle" x="118" y="-119.5" font-family="Helvetica,sans-Serif" font-size="10.00">buyer.h</text>
</a>
</g>
</g>
<!-- Node1&#45;&gt;Node6 -->
<g id="edge5" class="edge">
<title>Node1&#45;&gt;Node6</title>
<path fill="none" stroke="midnightblue" d="M96.29,-168.08C99.85,-160.69 105.02,-149.95 109.42,-140.81"/>
<polygon fill="midnightblue" stroke="midnightblue" points="112.6,-142.28 113.79,-131.75 106.29,-139.24 112.6,-142.28"/>
</g>
<!-- Node5 -->
<g id="node5" class="node">
<title>Node5</title>
<g id="a_node5"><a xlink:title=" ">
<polygon fill="none" stroke="#bfbfbf" points="126,-0.5 126,-19.5 180,-19.5 180,-0.5 126,-0.5"/>
<text text-anchor="middle" x="153" y="-7.5" font-family="Helvetica,sans-Serif" font-size="10.00">iostream</text>
</a>
</g>
</g>
<!-- Node4&#45;&gt;Node5 -->
<g id="edge4" class="edge">
<title>Node4&#45;&gt;Node5</title>
<path fill="none" stroke="midnightblue" d="M178.88,-56.08C174.59,-48.61 168.34,-37.72 163.06,-28.52"/>
<polygon fill="midnightblue" stroke="midnightblue" points="166.04,-26.68 158.02,-19.75 159.97,-30.17 166.04,-26.68"/>
</g>
<!-- Node6&#45;&gt;Node2 -->
<g id="edge6" class="edge">
<title>Node6&#45;&gt;Node2</title>
<path fill="none" stroke="midnightblue" d="M101.45,-112.32C84.62,-103.5 58.36,-89.73 39.19,-79.68"/>
<polygon fill="midnightblue" stroke="midnightblue" points="40.65,-76.49 30.17,-74.95 37.4,-82.69 40.65,-76.49"/>
</g>
<!-- Node6&#45;&gt;Node3 -->
<g id="edge7" class="edge">
<title>Node6&#45;&gt;Node3</title>
<path fill="none" stroke="midnightblue" d="M109.41,-112.08C101.84,-104.22 90.62,-92.57 81.49,-83.08"/>
<polygon fill="midnightblue" stroke="midnightblue" points="83.88,-80.53 74.43,-75.75 78.84,-85.38 83.88,-80.53"/>
</g>
<!-- Node6&#45;&gt;Node4 -->
<g id="edge8" class="edge">
<title>Node6&#45;&gt;Node4</title>
<path fill="none" stroke="midnightblue" d="M128.6,-112.32C138.46,-104.26 153.35,-92.08 165.22,-82.37"/>
<polygon fill="midnightblue" stroke="midnightblue" points="167.68,-84.88 173.2,-75.83 163.25,-79.46 167.68,-84.88"/>
</g>
<!-- Node7 -->
<g id="node7" class="node">
<title>Node7</title>
<g id="a_node7"><a xlink:href="user_8h.html" target="_top" xlink:title=" ">
<polygon fill="none" stroke="black" points="101.5,-56.5 101.5,-75.5 144.5,-75.5 144.5,-56.5 101.5,-56.5"/>
<text text-anchor="middle" x="123" y="-63.5" font-family="Helvetica,sans-Serif" font-size="10.00">user.h</text>
</a>
</g>
</g>
<!-- Node6&#45;&gt;Node7 -->
<g id="edge9" class="edge">
<title>Node6&#45;&gt;Node7</title>
<path fill="none" stroke="midnightblue" d="M118.83,-112.08C119.48,-105.01 120.42,-94.86 121.24,-85.99"/>
<polygon fill="midnightblue" stroke="midnightblue" points="124.75,-86.03 122.19,-75.75 117.78,-85.39 124.75,-86.03"/>
</g>
<!-- Node7&#45;&gt;Node5 -->
<g id="edge10" class="edge">
<title>Node7&#45;&gt;Node5</title>
<path fill="none" stroke="midnightblue" d="M127.95,-56.08C132.1,-48.61 138.15,-37.72 143.27,-28.52"/>
<polygon fill="midnightblue" stroke="midnightblue" points="146.34,-30.19 148.14,-19.75 140.22,-26.79 146.34,-30.19"/>
</g>
</g>
</svg>
