<?xml version="1.0" encoding="UTF-8" standalone="no"?>
<!DOCTYPE svg PUBLIC "-//W3C//DTD SVG 1.1//EN"
 "http://www.w3.org/Graphics/SVG/1.1/DTD/svg11.dtd">
<!-- Generated by graphviz version 2.49.3 (20211027.1534)
 -->
<!-- Title: src/user.h Pages: 1 -->
<svg width="437pt" height="252pt"
 viewBox="0.00 0.00 436.50 252.00" xmlns="http://www.w3.org/2000/svg" xmlns:xlink="http://www.w3.org/1999/xlink">
<g id="graph0" class="graph" transform="scale(1 1) rotate(0) translate(4 248)">
<title>src/user.h</title>
<!-- Node1 -->
<g id="node1" class="node">
<title>Node1</title>
<g id="a_node1"><a xlink:title=" ">
<polygon fill="#bfbfbf" stroke="black" points="221.5,-224.5 221.5,-243.5 280.5,-243.5 280.5,-224.5 221.5,-224.5"/>
<text text-anchor="middle" x="251" y="-231.5" font-family="Helvetica,sans-Serif" font-size="10.00">src/user.h</text>
</a>
</g>
</g>
<!-- Node2 -->
<g id="node2" class="node">
<title>Node2</title>
<g id="a_node2"><a xlink:href="buyer_8h.html" target="_top" xlink:title=" ">
<polygon fill="none" stroke="black" points="127,-168.5 127,-187.5 191,-187.5 191,-168.5 127,-168.5"/>
<text text-anchor="middle" x="159" y="-175.5" font-family="Helvetica,sans-Serif" font-size="10.00">src/buyer.h</text>
</a>
</g>
</g>
<!-- Node1&#45;&gt;Node2 -->
<g id="edge1" class="edge">
<title>Node1&#45;&gt;Node2</title>
<path fill="none" stroke="midnightblue" d="M227.45,-219.18C210.52,-209.24 188.22,-196.15 173.74,-187.65"/>
<polygon fill="midnightblue" stroke="midnightblue" points="225.82,-222.28 236.22,-224.32 229.37,-216.24 225.82,-222.28"/>
</g>
<!-- Node11 -->
<g id="node11" class="node">
<title>Node11</title>
<g id="a_node11"><a xlink:href="owner_8h.html" target="_top" xlink:title=" ">
<polygon fill="none" stroke="black" points="217.5,-168.5 217.5,-187.5 284.5,-187.5 284.5,-168.5 217.5,-168.5"/>
<text text-anchor="middle" x="251" y="-175.5" font-family="Helvetica,sans-Serif" font-size="10.00">src/owner.h</text>
</a>
</g>
</g>
<!-- Node1&#45;&gt;Node11 -->
<g id="edge11" class="edge">
<title>Node1&#45;&gt;Node11</title>
<path fill="none" stroke="midnightblue" d="M251,-213.8C251,-204.91 251,-194.78 251,-187.75"/>
<polygon fill="midnightblue" stroke="midnightblue" points="247.5,-214.08 251,-224.08 254.5,-214.08 247.5,-214.08"/>
</g>
<!-- Node13 -->
<g id="node13" class="node">
<title>Node13</title>
<g id="a_node13"><a xlink:href="user_8cpp.html" target="_top" xlink:title=" ">
<polygon fill="none" stroke="black" points="303,-168.5 303,-187.5 373,-187.5 373,-168.5 303,-168.5"/>
<text text-anchor="middle" x="338" y="-175.5" font-family="Helvetica,sans-Serif" font-size="10.00">src/user.cpp</text>
</a>
</g>
</g>
<!-- Node1&#45;&gt;Node13 -->
<g id="edge14" class="edge">
<title>Node1&#45;&gt;Node13</title>
<path fill="none" stroke="midnightblue" d="M273.72,-218.9C289.67,-209 310.5,-196.07 324.06,-187.65"/>
<polygon fill="midnightblue" stroke="midnightblue" points="271.63,-216.08 264.98,-224.32 275.32,-222.02 271.63,-216.08"/>
</g>
<!-- Node3 -->
<g id="node3" class="node">
<title>Node3</title>
<g id="a_node3"><a xlink:href="buyer_8cpp.html" target="_top" xlink:title=" ">
<polygon fill="none" stroke="black" points="0,-56.5 0,-75.5 74,-75.5 74,-56.5 0,-56.5"/>
<text text-anchor="middle" x="37" y="-63.5" font-family="Helvetica,sans-Serif" font-size="10.00">src/buyer.cpp</text>
</a>
</g>
</g>
<!-- Node2&#45;&gt;Node3 -->
<g id="edge2" class="edge">
<title>Node2&#45;&gt;Node3</title>
<path fill="none" stroke="midnightblue" d="M133.35,-163.23C119.45,-155.13 102.43,-144.1 89,-132 69.47,-114.39 51.42,-88.96 42.63,-75.74"/>
<polygon fill="midnightblue" stroke="midnightblue" points="131.96,-166.47 142.39,-168.36 135.41,-160.38 131.96,-166.47"/>
</g>
<!-- Node4 -->
<g id="node4" class="node">
<title>Node4</title>
<g id="a_node4"><a xlink:href="eshop_8h.html" target="_top" xlink:title=" ">
<polygon fill="none" stroke="black" points="217.5,-112.5 217.5,-131.5 284.5,-131.5 284.5,-112.5 217.5,-112.5"/>
<text text-anchor="middle" x="251" y="-119.5" font-family="Helvetica,sans-Serif" font-size="10.00">src/eshop.h</text>
</a>
</g>
</g>
<!-- Node2&#45;&gt;Node4 -->
<g id="edge3" class="edge">
<title>Node2&#45;&gt;Node4</title>
<path fill="none" stroke="midnightblue" d="M182.55,-163.18C199.48,-153.24 221.78,-140.15 236.26,-131.65"/>
<polygon fill="midnightblue" stroke="midnightblue" points="180.63,-160.24 173.78,-168.32 184.18,-166.28 180.63,-160.24"/>
</g>
<!-- Node9 -->
<g id="node9" class="node">
<title>Node9</title>
<g id="a_node9"><a xlink:href="shoppingcart_8h.html" target="_top" xlink:title=" ">
<polygon fill="none" stroke="black" points="98,-112.5 98,-131.5 194,-131.5 194,-112.5 98,-112.5"/>
<text text-anchor="middle" x="146" y="-119.5" font-family="Helvetica,sans-Serif" font-size="10.00">src/shoppingcart.h</text>
</a>
</g>
</g>
<!-- Node2&#45;&gt;Node9 -->
<g id="edge8" class="edge">
<title>Node2&#45;&gt;Node9</title>
<path fill="none" stroke="midnightblue" d="M154.45,-158.1C152.29,-149.14 149.82,-138.86 148.11,-131.75"/>
<polygon fill="midnightblue" stroke="midnightblue" points="151.11,-159.18 156.85,-168.08 157.92,-157.54 151.11,-159.18"/>
</g>
<!-- Node5 -->
<g id="node5" class="node">
<title>Node5</title>
<g id="a_node5"><a xlink:href="eshop_8cpp.html" target="_top" xlink:title=" ">
<polygon fill="none" stroke="black" points="217.5,-56.5 217.5,-75.5 294.5,-75.5 294.5,-56.5 217.5,-56.5"/>
<text text-anchor="middle" x="256" y="-63.5" font-family="Helvetica,sans-Serif" font-size="10.00">src/eshop.cpp</text>
</a>
</g>
</g>
<!-- Node4&#45;&gt;Node5 -->
<g id="edge4" class="edge">
<title>Node4&#45;&gt;Node5</title>
<path fill="none" stroke="midnightblue" d="M252.75,-102.1C253.58,-93.14 254.53,-82.86 255.19,-75.75"/>
<polygon fill="midnightblue" stroke="midnightblue" points="249.26,-101.8 251.83,-112.08 256.23,-102.45 249.26,-101.8"/>
</g>
<!-- Node6 -->
<g id="node6" class="node">
<title>Node6</title>
<g id="a_node6"><a xlink:href="menu_8h.html" target="_top" xlink:title=" ">
<polygon fill="none" stroke="black" points="312.5,-56.5 312.5,-75.5 377.5,-75.5 377.5,-56.5 312.5,-56.5"/>
<text text-anchor="middle" x="345" y="-63.5" font-family="Helvetica,sans-Serif" font-size="10.00">src/menu.h</text>
</a>
</g>
</g>
<!-- Node4&#45;&gt;Node6 -->
<g id="edge5" class="edge">
<title>Node4&#45;&gt;Node6</title>
<path fill="none" stroke="midnightblue" d="M275.06,-107.18C292.36,-97.24 315.15,-84.15 329.93,-75.65"/>
<polygon fill="midnightblue" stroke="midnightblue" points="273.03,-104.31 266.1,-112.32 276.52,-110.38 273.03,-104.31"/>
</g>
<!-- Node7 -->
<g id="node7" class="node">
<title>Node7</title>
<g id="a_node7"><a xlink:href="main_8cpp.html" target="_top" xlink:title=" ">
<polygon fill="none" stroke="black" points="263,-0.5 263,-19.5 335,-19.5 335,-0.5 263,-0.5"/>
<text text-anchor="middle" x="299" y="-7.5" font-family="Helvetica,sans-Serif" font-size="10.00">src/main.cpp</text>
</a>
</g>
</g>
<!-- Node6&#45;&gt;Node7 -->
<g id="edge6" class="edge">
<title>Node6&#45;&gt;Node7</title>
<path fill="none" stroke="midnightblue" d="M330.89,-48.43C322.82,-38.97 313.04,-27.48 306.45,-19.75"/>
<polygon fill="midnightblue" stroke="midnightblue" points="328.25,-50.74 337.4,-56.08 333.58,-46.2 328.25,-50.74"/>
</g>
<!-- Node8 -->
<g id="node8" class="node">
<title>Node8</title>
<g id="a_node8"><a xlink:href="menu_8cpp.html" target="_top" xlink:title=" ">
<polygon fill="none" stroke="black" points="353.5,-0.5 353.5,-19.5 428.5,-19.5 428.5,-0.5 353.5,-0.5"/>
<text text-anchor="middle" x="391" y="-7.5" font-family="Helvetica,sans-Serif" font-size="10.00">src/menu.cpp</text>
</a>
</g>
</g>
<!-- Node6&#45;&gt;Node8 -->
<g id="edge7" class="edge">
<title>Node6&#45;&gt;Node8</title>
<path fill="none" stroke="midnightblue" d="M359.11,-48.43C367.18,-38.97 376.96,-27.48 383.55,-19.75"/>
<polygon fill="midnightblue" stroke="midnightblue" points="356.42,-46.2 352.6,-56.08 361.75,-50.74 356.42,-46.2"/>
</g>
<!-- Node9&#45;&gt;Node3 -->
<g id="edge9" class="edge">
<title>Node9&#45;&gt;Node3</title>
<path fill="none" stroke="midnightblue" d="M119.48,-107.86C99.27,-97.85 72.01,-84.35 54.47,-75.65"/>
<polygon fill="midnightblue" stroke="midnightblue" points="117.97,-111.02 128.49,-112.32 121.08,-104.75 117.97,-111.02"/>
</g>
<!-- Node10 -->
<g id="node10" class="node">
<title>Node10</title>
<g id="a_node10"><a xlink:href="shoppingcart_8cpp.html" target="_top" xlink:title=" ">
<polygon fill="none" stroke="black" points="92.5,-56.5 92.5,-75.5 199.5,-75.5 199.5,-56.5 92.5,-56.5"/>
<text text-anchor="middle" x="146" y="-63.5" font-family="Helvetica,sans-Serif" font-size="10.00">src/shoppingcart.cpp</text>
</a>
</g>
</g>
<!-- Node9&#45;&gt;Node10 -->
<g id="edge10" class="edge">
<title>Node9&#45;&gt;Node10</title>
<path fill="none" stroke="midnightblue" d="M146,-101.8C146,-92.91 146,-82.78 146,-75.75"/>
<polygon fill="midnightblue" stroke="midnightblue" points="142.5,-102.08 146,-112.08 149.5,-102.08 142.5,-102.08"/>
</g>
<!-- Node11&#45;&gt;Node4 -->
<g id="edge12" class="edge">
<title>Node11&#45;&gt;Node4</title>
<path fill="none" stroke="midnightblue" d="M251,-157.8C251,-148.91 251,-138.78 251,-131.75"/>
<polygon fill="midnightblue" stroke="midnightblue" points="247.5,-158.08 251,-168.08 254.5,-158.08 247.5,-158.08"/>
</g>
<!-- Node12 -->
<g id="node12" class="node">
<title>Node12</title>
<g id="a_node12"><a xlink:href="owner_8cpp.html" target="_top" xlink:title=" ">
<polygon fill="none" stroke="black" points="302.5,-112.5 302.5,-131.5 379.5,-131.5 379.5,-112.5 302.5,-112.5"/>
<text text-anchor="middle" x="341" y="-119.5" font-family="Helvetica,sans-Serif" font-size="10.00">src/owner.cpp</text>
</a>
</g>
</g>
<!-- Node11&#45;&gt;Node12 -->
<g id="edge13" class="edge">
<title>Node11&#45;&gt;Node12</title>
<path fill="none" stroke="midnightblue" d="M274.04,-163.18C290.6,-153.24 312.42,-140.15 326.58,-131.65"/>
<polygon fill="midnightblue" stroke="midnightblue" points="272.23,-160.18 265.46,-168.32 275.84,-166.18 272.23,-160.18"/>
</g>
</g>
</svg>
